<?xml version="1.0" encoding="UTF-8" standalone="no"?>
<svg xmlns:xlink="http://www.w3.org/1999/xlink" height="13.85px" width="36.7px" xmlns="http://www.w3.org/2000/svg">
  <g transform="matrix(1.0, 0.0, 0.0, 1.0, 17.8, 6.9)">
    <path d="M-3.85 -1.35 L-0.2 -1.3 4.3 -1.05 6.65 -0.9 8.9 -0.75 11.65 -0.55 14.2 -0.3 14.5 -0.3 14.75 -0.3 14.75 -0.2 14.65 -0.15 12.95 0.05 10.95 0.1 6.5 0.55 -3.2 1.7 -3.35 1.75 -3.65 1.75 -3.65 1.8 Q-3.3 2.3 -2.15 2.3 L0.15 2.2 2.2 2.05 4.75 2.0 9.95 2.05 12.95 2.0 14.05 1.65 14.3 1.5 14.6 1.4 16.6 0.3 17.4 -0.2 17.7 -0.5 18.9 0.2 13.0 3.25 -3.8 4.3 -3.85 -1.35" fill="#b8c9cf" fill-rule="evenodd" stroke="none"/>
    <path d="M17.7 -0.5 L17.4 -0.2 16.6 0.3 14.6 1.4 14.3 1.5 14.05 1.65 12.95 2.0 9.95 2.05 4.75 2.0 2.2 2.05 0.15 2.2 -2.15 2.3 Q-3.3 2.3 -3.65 1.8 L-3.65 1.75 -3.35 1.75 -3.2 1.7 6.5 0.55 10.95 0.1 12.95 0.05 14.65 -0.15 14.75 -0.2 14.75 -0.3 14.5 -0.3 14.2 -0.3 11.65 -0.55 8.9 -0.75 6.65 -0.9 4.3 -1.05 -0.2 -1.3 -3.85 -1.35 -3.9 -3.6 12.4 -3.55 17.7 -0.5" fill="#e0e8eb" fill-rule="evenodd" stroke="none"/>
    <path d="M-6.0 -5.35 Q-5.85 -5.65 -5.6 -5.05 L-5.25 -3.9 -4.95 -2.7 -4.75 -1.3 -4.85 -0.15 -5.45 -0.2 -5.7 -3.05 -5.95 -3.8 -6.0 -4.45 Q-6.2 -5.1 -6.0 -5.35 M-14.35 -1.3 L-10.85 -1.9 -7.65 -2.35 Q-7.6 -2.35 -7.35 -2.5 L-7.1 -2.4 -7.1 -2.15 -7.2 -2.0 -7.15 -1.05 Q-7.0 0.1 -7.25 0.2 L-9.15 0.05 -11.75 -0.15 -14.1 -0.1 -15.9 0.1 Q-16.3 0.1 -16.45 -0.2 L-16.4 -0.55 -16.25 -0.75 -15.35 -1.0 Q-14.9 -1.0 -14.35 -1.3" fill="#6b5a50" fill-rule="evenodd" stroke="none"/>
    <path d="M-3.85 -1.35 L-3.8 4.3 -6.0 6.95 -6.8 3.25 -17.8 1.8 -17.8 -1.15 -6.75 -3.4 -6.1 -6.9 -3.9 -3.6 -3.85 -1.35 M-14.35 -1.3 Q-14.9 -1.0 -15.35 -1.0 L-16.25 -0.75 -16.4 -0.55 -16.45 -0.2 Q-16.3 0.1 -15.9 0.1 L-14.1 -0.1 -11.75 -0.15 -9.15 0.05 -7.25 0.2 Q-7.0 0.1 -7.15 -1.05 L-7.2 -2.0 -7.1 -2.15 -7.1 -2.4 -7.35 -2.5 Q-7.6 -2.35 -7.65 -2.35 L-10.85 -1.9 -14.35 -1.3 M-6.0 -5.35 Q-6.2 -5.1 -6.0 -4.45 L-5.95 -3.8 -5.7 -3.05 -5.45 -0.2 -4.85 -0.15 -4.75 -1.3 -4.95 -2.7 -5.25 -3.9 -5.6 -5.05 Q-5.85 -5.65 -6.0 -5.35" fill="#000000" fill-rule="evenodd" stroke="none"/>
    <path d="M-3.85 -1.35 L-3.8 4.3 13.0 3.25 18.9 0.2 17.7 -0.5 12.4 -3.55 -3.9 -3.6 -3.85 -1.35 M-3.9 -3.6 L-6.1 -6.9 -6.75 -3.4 -17.8 -1.15 -17.8 1.8 -6.8 3.25 -6.0 6.95 -3.8 4.3" fill="none" stroke="#000000" stroke-linecap="round" stroke-linejoin="round" stroke-opacity="0.4" stroke-width="0.05"/>
  </g>
</svg>
