<?xml version="1.0" encoding="UTF-8" standalone="no"?>
<svg xmlns:xlink="http://www.w3.org/1999/xlink" height="4.4px" width="30.1px" xmlns="http://www.w3.org/2000/svg">
  <g transform="matrix(1.0, 0.0, 0.0, 1.0, 13.7, 2.2)">
    <path d="M16.35 -1.95 L16.3 -2.0 15.3 -1.45 14.25 -1.1 13.25 -0.9 11.7 0.0 11.7 -0.1 10.0 0.5 8.25 0.55 6.35 0.85 Q4.85 1.4 4.2 0.85 3.45 0.3 2.65 0.7 L1.2 1.05 Q0.2 0.85 0.0 0.55 L-0.25 0.35 -0.15 -1.4 16.4 -2.05 16.4 -2.1 16.35 -1.95 M-1.8 -0.6 Q-1.45 0.05 -1.9 0.35 -2.5 0.75 -2.9 0.15 -3.2 -0.35 -2.65 -0.7 L-1.8 -0.6" fill="#e0e8eb" fill-rule="evenodd" stroke="none"/>
    <path d="M-0.25 0.35 L0.0 0.55 Q0.2 0.85 1.2 1.05 L2.65 0.7 Q3.45 0.3 4.2 0.85 4.85 1.4 6.35 0.85 L8.25 0.55 10.0 0.5 11.7 -0.1 11.7 0.0 13.25 -0.9 14.25 -1.1 15.3 -1.45 16.3 -2.0 16.35 -1.95 Q13.15 0.9 9.05 1.8 L-0.35 1.5 -0.25 0.35" fill="#b8c9cf" fill-rule="evenodd" stroke="none"/>
    <path d="M-9.95 -1.15 L-8.8 -1.2 -6.05 -1.35 -3.8 -1.3 Q-3.6 -0.9 -4.0 -0.6 L-8.9 -0.2 -11.1 -0.2 Q-12.2 -0.4 -12.45 -0.8 -12.7 -1.1 -12.4 -1.25 -12.05 -1.5 -11.2 -1.25 L-9.95 -1.15" fill="#6b5a50" fill-rule="evenodd" stroke="none"/>
    <path d="M-0.15 -1.4 L-0.25 0.35 -0.35 1.5 -13.7 0.65 -13.55 -2.2 -0.15 -1.4 M-9.95 -1.15 L-11.2 -1.25 Q-12.05 -1.5 -12.4 -1.25 -12.7 -1.1 -12.45 -0.8 -12.2 -0.4 -11.1 -0.2 L-8.9 -0.2 -4.0 -0.6 Q-3.6 -0.9 -3.8 -1.3 L-6.05 -1.35 -8.8 -1.2 -9.95 -1.15 M-1.8 -0.6 L-2.65 -0.7 Q-3.2 -0.35 -2.9 0.15 -2.5 0.75 -1.9 0.35 -1.45 0.05 -1.8 -0.6" fill="#000000" fill-rule="evenodd" stroke="none"/>
    <path d="M16.35 -1.95 L16.4 -2.1 16.4 -2.05 -0.15 -1.4 -0.25 0.35 -0.35 1.5 9.05 1.8 Q13.15 0.9 16.35 -1.95 M-0.15 -1.4 L-13.55 -2.2 -13.7 0.65 -0.35 1.5 M-1.8 -0.6 L-2.65 -0.7 Q-3.2 -0.35 -2.9 0.15 -2.5 0.75 -1.9 0.35 -1.45 0.05 -1.8 -0.6" fill="none" stroke="#000000" stroke-linecap="round" stroke-linejoin="round" stroke-opacity="0.4" stroke-width="0.05"/>
  </g>
</svg>
