<?xml version="1.0" encoding="UTF-8" standalone="no"?>
<svg xmlns:xlink="http://www.w3.org/1999/xlink" height="88.05px" width="89.3px" xmlns="http://www.w3.org/2000/svg">
  <g transform="matrix(1.0, 0.0, 0.0, 1.0, -74.6, 62.5)">
    <use height="88.05" transform="matrix(1.0, 0.0, 0.0, 1.0, 74.6, -62.5)" width="89.3" xlink:href="#shape0"/>
  </g>
  <defs>
    <g id="shape0" transform="matrix(1.0, 0.0, 0.0, 1.0, -74.6, 62.5)">
      <path d="M162.55 21.15 L162.5 21.15 162.5 21.1 162.55 21.15 M74.6 -46.2 L74.6 -46.85 74.85 -46.7 74.6 -46.85 74.85 -46.65 74.6 -46.2 M76.1 -55.1 L76.35 -55.65 76.55 -55.35 76.1 -55.1 M113.2 22.35 L113.15 22.2 113.6 22.3 113.2 22.4 113.2 22.35" fill="#faf8c3" fill-rule="evenodd" stroke="none"/>
      <path d="M75.9 12.05 L76.0 5.4 79.7 5.3 79.85 5.6 84.5 4.6 85.2 4.45 84.35 7.5 Q83.95 8.45 79.85 9.95 77.5 10.85 76.8 11.3 L75.9 12.05 M88.1 -55.0 Q87.35 -57.85 87.35 -59.3 L87.4 -60.35 Q90.75 -60.05 96.15 -56.45 L88.35 -55.05 88.1 -55.0 M137.75 -10.25 L136.75 -12.5 Q136.25 -13.65 134.55 -14.7 132.4 -16.05 130.15 -15.85 129.2 -15.75 129.2 -17.8 L129.55 -23.8 142.5 -8.3 140.3 -8.85 Q138.2 -9.55 137.75 -10.2 L137.75 -10.25 137.75 -10.2 137.75 -10.25" fill="#ddbf95" fill-rule="evenodd" stroke="none"/>
      <path d="M88.15 -54.7 L88.1 -55.0 88.35 -55.05 88.15 -54.7" fill="#e2c9a5" fill-rule="evenodd" stroke="none"/>
      <path d="M77.9 -58.15 Q78.95 -60.45 80.65 -61.3 82.6 -62.35 88.0 -62.5 L89.6 -62.35 87.45 -60.7 87.2 -60.4 87.45 -60.7 89.6 -62.35 Q92.65 -61.75 97.25 -58.75 L104.9 -52.95 Q116.45 -43.25 123.15 -35.25 L130.9 -25.95 146.05 -7.85 Q163.9 13.3 163.9 19.0 163.9 20.3 162.55 21.15 L162.5 21.1 Q162.5 15.4 144.65 -5.75 L142.5 -8.3 129.55 -23.8 129.1 -24.35 121.75 -33.15 Q115.05 -41.15 103.5 -50.85 L99.8 -53.85 96.15 -56.45 Q90.75 -60.05 87.4 -60.35 L87.2 -60.4 86.6 -60.4 Q81.2 -60.25 79.25 -59.2 L77.9 -58.15 M87.45 -60.7 L87.4 -60.35 87.45 -60.7 M97.25 -58.75 L97.0 -57.15 96.85 -56.8 96.7 -56.5 96.15 -56.45 96.7 -56.5 96.85 -56.8 97.0 -57.15 97.25 -58.75 M130.9 -25.95 L130.2 -25.05 129.55 -24.5 129.1 -24.35 129.55 -24.5 130.2 -25.05 130.9 -25.95 M129.55 -24.5 L129.55 -23.8 129.55 -24.5 M144.45 -8.85 Q143.35 -8.3 142.7 -8.3 L142.5 -8.3 142.7 -8.3 Q143.35 -8.3 144.45 -8.85" fill="#ffd393" fill-rule="evenodd" stroke="none"/>
      <path d="M77.9 -58.15 L79.25 -59.2 Q81.2 -60.25 86.6 -60.4 L87.2 -60.4 87.4 -60.35 87.35 -59.3 Q87.35 -57.85 88.1 -55.0 L88.15 -54.7 84.25 -47.3 Q83.65 -46.2 79.85 -46.2 L76.5 -46.5 Q75.2 -41.0 74.75 -40.1 75.2 -41.0 76.5 -46.5 L79.85 -46.2 Q83.65 -46.2 84.25 -47.3 L88.15 -54.7 88.35 -55.05 96.15 -56.45 99.8 -53.85 103.5 -50.85 Q115.05 -41.15 121.75 -33.15 L129.1 -24.35 129.55 -23.8 129.2 -17.8 Q129.2 -15.75 130.15 -15.85 132.4 -16.05 134.55 -14.7 136.25 -13.65 136.75 -12.5 L137.75 -10.25 137.75 -10.2 Q138.2 -9.55 140.3 -8.85 L142.5 -8.3 144.65 -5.75 Q162.5 15.4 162.5 21.1 L162.5 21.15 Q162.45 24.2 154.55 24.75 L143.0 25.55 129.2 24.8 123.55 24.6 121.65 24.7 113.7 24.2 104.8 24.75 89.35 23.45 Q76.85 21.45 76.15 17.5 75.9 16.15 75.9 12.05 L76.8 11.3 Q77.5 10.85 79.85 9.95 83.95 8.45 84.35 7.5 L85.2 4.45 84.5 4.6 79.85 5.6 79.7 5.3 77.85 3.65 76.15 1.8 76.15 1.45 76.85 -13.8 Q75.2 -31.65 74.75 -40.1 L74.6 -46.2 74.85 -46.65 74.6 -46.85 74.85 -46.7 74.6 -46.85 74.95 -51.95 76.1 -55.1 76.55 -55.35 76.35 -55.65 Q77.0 -57.2 77.9 -58.15 M136.65 -3.45 Q137.4 -5.3 138.3 -6.4 L138.95 -7.4 138.3 -8.65 Q137.65 -9.6 137.75 -10.2 137.65 -9.6 138.3 -8.65 L138.95 -7.4 138.3 -6.4 Q137.4 -5.3 136.65 -3.45 M129.2 24.8 Q128.7 24.4 127.85 23.95 125.85 22.9 124.85 22.05 123.05 20.6 122.3 18.25 121.8 16.7 120.2 16.7 L114.75 17.0 105.5 16.6 96.05 15.35 Q95.15 15.15 95.25 13.4 L95.4 10.5 Q95.3 9.4 94.0 9.45 92.4 9.55 91.95 9.0 L90.7 6.45 Q89.45 4.1 88.3 4.1 L85.2 4.45 88.3 4.1 Q89.45 4.1 90.7 6.45 L91.95 9.0 Q92.4 9.55 94.0 9.45 95.3 9.4 95.4 10.5 L95.25 13.4 Q95.15 15.15 96.05 15.35 L105.5 16.6 114.75 17.0 120.2 16.7 Q121.8 16.7 122.3 18.25 123.05 20.6 124.85 22.05 125.85 22.9 127.85 23.95 128.7 24.4 129.2 24.8 M113.2 22.35 L113.2 22.4 113.6 22.3 113.15 22.2 113.2 22.35" fill="#cfab86" fill-rule="evenodd" stroke="none"/>
      <path d="M89.6 -62.35 L88.0 -62.5 Q82.6 -62.35 80.65 -61.3 78.95 -60.45 77.9 -58.15 L79.25 -59.2 Q81.2 -60.25 86.6 -60.4 L87.2 -60.4 87.4 -60.35 Q90.75 -60.05 96.15 -56.45 L99.8 -53.85 103.5 -50.85 Q115.05 -41.15 121.75 -33.15 L129.1 -24.35 129.55 -23.8 142.5 -8.3 144.65 -5.75 Q162.5 15.4 162.5 21.1 L162.5 21.15 Q162.45 24.2 154.55 24.75 L143.0 25.55 129.2 24.8 123.55 24.6 121.65 24.7 113.7 24.2 104.8 24.75 89.35 23.45 Q76.85 21.45 76.15 17.5 75.9 16.15 75.9 12.05 L76.0 5.4 79.7 5.3 77.85 3.65 76.15 1.8 76.15 1.45 76.85 -13.8 Q75.2 -31.65 74.75 -40.1 L74.6 -46.2 74.6 -46.85 74.95 -51.95 76.1 -55.1 76.35 -55.65 Q77.0 -57.2 77.9 -58.15 M89.6 -62.35 Q92.65 -61.75 97.25 -58.75 L104.9 -52.95 Q116.45 -43.25 123.15 -35.25 L130.9 -25.95 146.05 -7.85 Q163.9 13.3 163.9 19.0 163.9 20.3 162.55 21.15 L162.5 21.15" fill="none" stroke="#330101" stroke-linecap="round" stroke-linejoin="round" stroke-opacity="0.4" stroke-width="0.05"/>
      <path d="M87.2 -60.4 L87.45 -60.7 89.6 -62.35 M74.75 -40.1 Q75.2 -41.0 76.5 -46.5 L79.85 -46.2 Q83.65 -46.2 84.25 -47.3 L88.15 -54.7 88.1 -55.0 Q87.35 -57.85 87.35 -59.3 L87.4 -60.35 87.45 -60.7 M88.35 -55.05 L96.15 -56.45 96.7 -56.5 96.85 -56.8 97.0 -57.15 97.25 -58.75 M88.15 -54.7 L88.35 -55.05 M85.2 4.45 L88.3 4.1 Q89.45 4.1 90.7 6.45 L91.95 9.0 Q92.4 9.55 94.0 9.45 95.3 9.4 95.4 10.5 L95.25 13.4 Q95.15 15.15 96.05 15.35 L105.5 16.6 114.75 17.0 120.2 16.7 Q121.8 16.7 122.3 18.25 123.05 20.6 124.85 22.05 125.85 22.9 127.85 23.95 128.7 24.4 129.2 24.8 M79.85 5.6 L84.5 4.6 85.2 4.45 84.35 7.5 Q83.95 8.45 79.85 9.95 77.5 10.85 76.8 11.3 L75.9 12.05" fill="none" stroke="#330101" stroke-linecap="round" stroke-linejoin="round" stroke-opacity="0.2" stroke-width="0.05"/>
      <path d="M129.1 -24.35 L129.55 -24.5 130.2 -25.05 130.9 -25.95 M129.55 -23.8 L129.2 -17.8 Q129.2 -15.75 130.15 -15.85 132.4 -16.05 134.55 -14.7 136.25 -13.65 136.75 -12.5 L137.75 -10.25 137.75 -10.2 Q138.2 -9.55 140.3 -8.85 L142.5 -8.3 142.7 -8.3 Q143.35 -8.3 144.45 -8.85 M129.55 -23.8 L129.55 -24.5 M137.75 -10.25 L137.75 -10.2 Q137.65 -9.6 138.3 -8.65 L138.95 -7.4 138.3 -6.4 Q137.4 -5.3 136.65 -3.45" fill="none" stroke="#330101" stroke-linecap="round" stroke-linejoin="round" stroke-opacity="0.101960786" stroke-width="0.05"/>
      <path d="M95.7 -39.75 L96.3 -41.3 Q97.0 -42.55 98.05 -42.55 99.3 -42.55 99.2 -41.45 L98.25 -37.95 96.9 -33.6 96.9 -33.55 98.05 -35.95 Q99.3 -38.2 100.5 -38.2 101.6 -38.2 101.55 -36.95 101.55 -36.35 97.8 -25.2 93.95 -13.8 93.45 -13.8 92.65 -13.8 92.65 -14.8 92.65 -16.55 94.25 -21.15 L96.25 -26.6 96.25 -26.7 93.9 -20.55 Q92.15 -16.55 90.55 -16.55 89.75 -16.55 89.55 -17.1 89.45 -17.35 89.5 -17.65 89.5 -18.4 90.25 -20.7 L91.1 -23.4 Q88.4 -17.6 86.75 -17.6 85.85 -17.6 85.55 -18.4 85.4 -18.8 85.4 -19.3 85.4 -19.75 85.95 -21.15 84.5 -21.3 84.5 -22.2 L84.65 -23.75 84.7 -23.95 Q84.35 -23.6 83.85 -23.6 82.95 -23.6 82.95 -24.55 91.8 -42.75 92.8 -42.75 93.95 -42.75 93.5 -40.95 94.3 -42.8 95.25 -42.75 96.2 -42.75 96.2 -41.25 L96.0 -40.5 95.7 -39.75 M99.5 -18.8 L98.8 -16.85 97.7 -15.0 97.4 -15.7 97.45 -16.3 Q96.5 -16.05 96.25 -16.65 L96.15 -17.65 96.4 -19.75 Q96.75 -21.6 97.4 -21.6 97.9 -21.6 98.25 -20.85 L98.55 -21.5 99.05 -22.1 Q99.55 -21.65 99.55 -20.95 L98.9 -19.8 99.2 -19.3 99.5 -18.8 M128.05 -2.55 Q129.5 -2.05 129.65 -0.35 L129.7 2.45 Q130.95 2.55 131.05 3.1 L130.55 4.65 Q129.95 5.65 129.2 5.65 128.5 5.65 127.55 4.75 L126.65 3.5 Q126.35 4.05 126.0 5.9 125.8 7.15 125.15 7.15 124.4 7.15 124.25 6.45 L124.25 5.65 Q124.25 2.7 125.75 -2.45 127.35 -7.95 128.05 -2.55 M153.5 8.6 L153.9 12.65 154.5 10.85 Q155.0 9.3 156.15 9.3 157.1 9.3 157.4 12.9 L157.5 16.5 157.5 19.65 Q157.2 22.35 155.7 22.35 154.4 22.35 153.3 19.85 L152.1 16.6 Q151.95 19.85 150.5 19.85 149.15 19.85 148.65 18.2 L148.05 15.45 147.7 17.8 Q147.2 19.7 146.25 19.7 145.6 19.7 145.4 19.2 L145.3 18.65 145.65 16.5 145.85 12.5 Q146.45 9.05 148.5 9.25 L148.45 7.5 Q148.45 5.7 149.35 5.6 150.3 5.45 150.75 8.0 L150.8 8.0 150.85 6.8 Q151.05 5.85 152.05 5.85 153.1 5.85 153.5 8.6 M143.8 20.15 L144.45 20.9 143.7 22.75 Q142.85 24.25 142.4 24.25 141.3 24.25 140.7 22.25 L139.8 19.3 Q141.95 18.5 142.25 18.7 L142.3 20.15 Q142.3 20.65 142.65 21.45 L142.9 20.7 Q143.0 20.35 143.8 20.15" fill="#c6986c" fill-opacity="0.6" fill-rule="evenodd" stroke="none"/>
      <path d="M109.6 -30.7 Q111.0 -29.35 111.0 -27.2 111.0 -25.45 109.95 -23.95 108.4 -21.7 105.25 -21.7 103.2 -21.7 102.4 -23.4 L102.05 -25.1 Q102.05 -31.6 106.5 -31.85 108.3 -31.95 109.6 -30.7 M113.95 -25.0 Q113.55 -24.4 113.05 -24.4 112.45 -24.4 112.3 -24.9 L112.2 -25.4 Q112.2 -26.75 113.2 -26.9 114.15 -27.1 114.15 -25.95 L113.95 -25.0 M100.15 -24.85 Q99.5 -24.85 99.35 -25.85 L99.25 -26.95 Q99.25 -28.3 100.1 -27.95 100.95 -27.55 100.95 -26.25 L100.9 -25.45 Q100.75 -24.85 100.15 -24.85 M97.25 -14.8 Q94.4 -8.15 91.1 -7.6 L90.8 -7.55 90.65 -7.55 90.5 -7.55 Q89.25 -7.55 88.85 -8.55 L88.8 -8.65 88.65 -9.25 88.75 -9.45 88.75 -9.55 Q88.75 -12.1 93.0 -15.7 97.25 -19.35 97.25 -14.8 M98.65 -8.15 L98.85 -9.1 Q98.85 -12.85 99.3 -14.25 100.65 -18.3 105.55 -18.3 111.05 -18.3 111.95 -16.7 112.35 -16.05 112.35 -10.55 112.8 -8.75 112.35 -7.9 111.6 -6.3 107.15 -6.3 100.3 -6.3 99.05 -7.25 98.55 -7.65 98.65 -8.15 M113.05 -17.0 Q113.05 -19.05 118.0 -16.75 122.8 -14.6 122.95 -11.65 L123.4 -11.2 Q123.4 -10.5 123.05 -10.05 122.6 -9.4 121.8 -9.4 120.9 -9.4 119.4 -10.45 116.75 -11.1 114.9 -13.45 113.05 -15.8 113.05 -17.0 M112.65 -4.0 L112.85 -3.5 Q112.85 -2.95 109.6 0.55 106.25 4.2 105.25 4.2 104.15 4.2 101.6 0.6 99.25 -2.75 99.25 -3.1 99.25 -4.15 101.35 -4.35 L111.9 -4.5 Q112.4 -4.45 112.65 -4.0 M117.85 11.85 Q117.4 14.75 115.35 14.75 113.05 14.75 111.2 9.8 L109.85 4.9 Q109.85 2.25 110.95 1.6 112.05 0.85 114.05 2.45 116.1 3.95 117.0 6.35 117.9 8.75 117.85 11.85 M100.25 4.5 Q100.25 6.45 99.25 9.1 97.7 13.3 94.75 13.3 93.2 13.3 92.8 12.2 92.7 11.05 93.4 8.7 94.0 6.35 96.05 3.2 98.1 0.0 99.15 0.55 100.25 1.05 100.25 4.5" fill="#a56449" fill-rule="evenodd" stroke="none"/>
    </g>
  </defs>
</svg>
