<?xml version="1.0" encoding="UTF-8" standalone="no"?>
<svg xmlns:xlink="http://www.w3.org/1999/xlink" height="88.15px" width="88.6px" xmlns="http://www.w3.org/2000/svg">
  <g transform="matrix(1.0, 0.0, 0.0, 1.0, -61.3, 60.1)">
    <use height="88.15" transform="matrix(1.0, 0.0, 0.0, 1.0, 61.3, -60.1)" width="88.6" xlink:href="#shape0"/>
    <use height="41.85" transform="matrix(1.0, 0.0, 0.0, 1.0, 88.5, -29.2)" width="51.55" xlink:href="#sprite0"/>
  </g>
  <defs>
    <g id="shape0" transform="matrix(1.0, 0.0, 0.0, 1.0, -61.3, 60.1)">
      <path d="M147.95 7.9 L147.85 8.3 147.85 7.9 147.95 7.9 M148.5 5.4 L148.6 5.4 148.6 5.8 148.5 5.4 M134.6 25.8 L134.65 25.95 134.6 25.95 134.6 25.8 M61.35 23.6 L61.35 23.65 61.3 23.65 61.35 23.6 M81.65 28.0 L85.6 27.55 85.6 27.8 81.65 28.0" fill="#faf8c3" fill-rule="evenodd" stroke="none"/>
      <path d="M118.8 -45.85 L121.65 -48.15 129.15 -54.2 129.55 -54.5 128.65 -52.25 127.3 -50.25 Q125.75 -48.8 124.6 -46.8 123.8 -45.3 123.5 -44.05 L123.45 -43.9 123.4 -43.65 123.35 -43.9 Q123.05 -45.3 121.35 -45.6 L118.8 -45.85 M123.45 -43.9 L123.35 -43.9 123.45 -43.9 M88.45 -2.55 L88.45 -2.5 88.2 -2.45 88.45 -2.55" fill="#e2c9a5" fill-rule="evenodd" stroke="none"/>
      <path d="M147.95 7.9 L147.45 -1.7 147.35 -4.35 147.0 -11.3 Q149.45 -38.05 149.25 -43.7 L149.25 -44.35 148.9 -49.45 147.75 -52.6 147.5 -53.15 Q146.85 -54.7 145.95 -55.65 L144.6 -56.7 Q142.65 -57.75 138.2 -57.85 133.95 -58.0 129.55 -54.5 L129.15 -54.2 121.65 -48.15 118.8 -45.85 118.4 -45.55 115.4 -43.0 Q112.0 -40.1 104.85 -32.4 97.65 -24.7 86.5 -12.0 L84.25 -8.45 82.65 -10.2 84.25 -8.45 81.55 -4.95 80.55 -7.6 81.55 -4.95 74.4 3.4 Q64.95 14.0 62.0 20.85 61.25 15.4 71.75 2.9 L80.55 -7.6 82.65 -10.2 88.6 -17.65 Q94.85 -25.8 101.75 -32.55 L112.15 -42.85 116.95 -47.4 119.0 -49.2 127.55 -56.05 Q132.75 -60.0 138.05 -60.1 143.3 -60.25 145.25 -59.2 L146.6 -58.15 Q147.5 -57.2 148.15 -55.65 L148.4 -55.1 149.55 -51.95 149.9 -46.85 149.9 -46.2 Q150.1 -40.55 147.65 -13.8 L148.1 -4.35 148.6 5.4 148.5 5.4 148.6 14.45 148.35 17.5 147.85 18.65 148.0 14.45 147.85 8.3 147.95 7.9 M118.4 -45.55 Q117.8 -47.3 116.95 -47.4 117.8 -47.3 118.4 -45.55" fill="#ffd393" fill-rule="evenodd" stroke="none"/>
      <path d="M84.25 -8.45 L86.45 -5.65 88.45 -2.55 88.2 -2.45 86.5 -3.15 84.1 -3.65 82.85 -3.45 82.0 -3.3 81.55 -4.95 84.25 -8.45" fill="#ddbf95" fill-rule="evenodd" stroke="none"/>
      <path d="M129.55 -54.5 Q133.95 -58.0 138.2 -57.85 142.65 -57.75 144.6 -56.7 L145.95 -55.65 Q146.85 -54.7 147.5 -53.15 L147.75 -52.6 148.9 -49.45 149.25 -44.35 149.25 -43.7 Q149.45 -38.05 147.0 -11.3 L147.35 -4.35 147.45 -1.7 147.95 7.9 147.85 7.9 147.85 8.3 148.0 14.45 147.85 18.65 147.7 20.0 Q147.0 23.95 134.65 25.95 L134.6 25.8 130.5 25.95 128.0 26.35 Q126.4 24.6 122.55 22.2 L120.15 20.85 120.0 20.75 117.95 15.4 117.5 14.4 120.7 13.9 Q126.15 13.0 127.4 12.2 128.35 11.55 129.45 9.9 130.1 8.95 134.45 8.2 130.1 8.95 129.45 9.9 128.35 11.55 127.4 12.2 126.15 13.0 120.7 13.9 L117.5 14.4 Q116.7 14.4 116.15 15.0 115.6 15.6 115.6 16.45 L115.55 16.55 114.95 18.9 112.15 19.05 106.2 20.2 Q102.6 20.9 100.4 22.35 L99.95 22.65 97.1 24.35 95.5 25.35 92.85 27.2 85.65 27.55 85.6 27.55 81.65 28.0 80.85 28.05 69.3 27.25 Q61.4 26.7 61.35 23.65 L61.35 23.6 Q61.35 22.5 62.0 20.85 64.95 14.0 74.4 3.4 L81.55 -4.95 82.0 -3.3 82.85 -3.45 84.1 -3.65 86.5 -3.15 88.2 -2.45 88.45 -2.5 88.45 -2.55 86.45 -5.65 84.25 -8.45 86.5 -12.0 Q97.65 -24.7 104.85 -32.4 112.0 -40.1 115.4 -43.0 L118.4 -45.55 118.8 -45.85 121.35 -45.6 Q123.05 -45.3 123.35 -43.9 L123.4 -43.65 123.45 -43.9 123.5 -44.05 Q123.8 -45.3 124.6 -46.8 125.75 -48.8 127.3 -50.25 L128.65 -52.25 129.55 -54.5 M121.1 -37.4 Q120.6 -39.9 120.5 -42.05 L120.95 -42.45 Q122.4 -43.55 123.35 -43.9 122.4 -43.55 120.95 -42.45 L120.5 -42.05 Q120.6 -39.9 121.1 -37.4 M118.4 -39.85 Q119.0 -40.9 120.5 -42.05 119.0 -40.9 118.4 -39.85 M88.95 14.05 Q88.1 13.5 87.75 11.75 L86.9 8.95 86.5 7.35 Q86.5 5.1 88.7 -1.65 L88.45 -2.5 88.7 -1.65 Q86.5 5.1 86.5 7.35 L86.9 8.95 87.75 11.75 Q88.1 13.5 88.95 14.05 L89.15 14.2 89.85 15.3 91.75 18.45 Q92.45 19.65 92.85 19.75 L94.5 19.85 Q94.25 18.1 94.25 16.05 L94.35 13.1 94.25 16.05 Q94.25 18.1 94.5 19.85 L92.85 19.75 Q92.45 19.65 91.75 18.45 L89.85 15.3 89.15 14.2 88.95 14.05 M134.6 8.2 L136.35 5.7 138.3 2.45 Q140.0 -0.2 141.0 -0.5 L144.65 -1.15 144.9 -1.2 147.45 -1.7 144.9 -1.2 144.65 -1.15 141.0 -0.5 Q140.0 -0.2 138.3 2.45 L136.35 5.7 134.6 8.2 134.45 8.2 134.6 14.75 134.6 8.2 M94.55 19.85 L95.15 19.85 Q98.95 20.1 99.6 20.75 L100.4 22.35 99.6 20.75 Q98.95 20.1 95.15 19.85 L94.55 19.85 94.5 19.85 94.55 19.85" fill="#cfab86" fill-rule="evenodd" stroke="none"/>
      <path d="M129.55 -54.5 Q133.95 -58.0 138.2 -57.85 142.65 -57.75 144.6 -56.7 L145.95 -55.65 Q146.85 -54.7 147.5 -53.15 L147.75 -52.6 148.9 -49.45 149.25 -44.35 149.25 -43.7 Q149.45 -38.05 147.0 -11.3 L147.35 -4.35 147.45 -1.7 147.95 7.9 147.85 8.3 148.0 14.45 147.85 18.65 148.35 17.5 148.6 14.45 148.5 5.4 M148.6 5.4 L148.1 -4.35 147.65 -13.8 Q150.1 -40.55 149.9 -46.2 L149.9 -46.85 149.55 -51.95 148.4 -55.1 148.15 -55.65 Q147.5 -57.2 146.6 -58.15 L145.25 -59.2 Q143.3 -60.25 138.05 -60.1 132.75 -60.0 127.55 -56.05 L119.0 -49.2 116.95 -47.4 112.15 -42.85 101.75 -32.55 Q94.85 -25.8 88.6 -17.65 L82.65 -10.2 80.55 -7.6 71.75 2.9 Q61.25 15.4 62.0 20.85 61.35 22.5 61.35 23.6 L61.35 23.65 Q61.4 26.7 69.3 27.25 L80.85 28.05 81.65 28.0 85.6 27.55 85.65 27.55 92.85 27.2 95.5 25.35 97.1 24.35 99.95 22.65 100.4 22.35 Q102.6 20.9 106.2 20.2 L112.15 19.05 114.95 18.9 115.55 16.55 115.6 16.45 Q115.6 15.6 116.15 15.0 116.7 14.4 117.5 14.4 L117.95 15.4 120.0 20.75 120.15 20.85 122.55 22.2 Q126.4 24.6 128.0 26.35 L130.5 25.95 134.6 25.8 M118.4 -45.55 L118.8 -45.85 121.65 -48.15 129.15 -54.2 129.55 -54.5 M118.4 -45.55 L115.4 -43.0 Q112.0 -40.1 104.85 -32.4 97.65 -24.7 86.5 -12.0 L84.25 -8.45 81.55 -4.95 74.4 3.4 Q64.95 14.0 62.0 20.85 M134.65 25.95 Q147.0 23.95 147.7 20.0 L147.85 18.65 M94.55 19.85 L94.5 19.85 M147.85 8.3 L147.85 7.9 M148.6 5.8 L148.6 5.4 M134.6 25.95 L134.65 25.95 M61.35 23.65 L61.3 23.65" fill="none" stroke="#330101" stroke-linecap="round" stroke-linejoin="round" stroke-opacity="0.4" stroke-width="0.05"/>
      <path d="M148.5 5.4 L148.6 5.4 M88.95 14.05 L89.15 14.2 89.85 15.3 91.75 18.45 Q92.45 19.65 92.85 19.75 L94.5 19.85 Q94.25 18.1 94.25 16.05 L94.35 13.1 M147.45 -1.7 L144.9 -1.2 144.65 -1.15 141.0 -0.5 Q140.0 -0.2 138.3 2.45 L136.35 5.7 134.6 8.2 M134.45 8.2 Q130.1 8.95 129.45 9.9 128.35 11.55 127.4 12.2 126.15 13.0 120.7 13.9 L117.5 14.4 M100.4 22.35 L99.6 20.75 Q98.95 20.1 95.15 19.85 L94.55 19.85 M147.85 7.9 L147.95 7.9" fill="none" stroke="#330101" stroke-linecap="round" stroke-linejoin="round" stroke-opacity="0.2" stroke-width="0.05"/>
      <path d="M116.95 -47.4 Q117.8 -47.3 118.4 -45.55 M129.55 -54.5 L128.65 -52.25 127.3 -50.25 Q125.75 -48.8 124.6 -46.8 123.8 -45.3 123.5 -44.05 L123.45 -43.9 123.4 -43.65 123.35 -43.9 Q122.4 -43.55 120.95 -42.45 L120.5 -42.05 Q120.6 -39.9 121.1 -37.4 M118.8 -45.85 L121.35 -45.6 Q123.05 -45.3 123.35 -43.9 L123.45 -43.9 M120.5 -42.05 Q119.0 -40.9 118.4 -39.85 M84.25 -8.45 L86.45 -5.65 88.45 -2.55 88.45 -2.5 88.7 -1.65 Q86.5 5.1 86.5 7.35 L86.9 8.95 87.75 11.75 Q88.1 13.5 88.95 14.05 M82.65 -10.2 L84.25 -8.45 M81.55 -4.95 L82.0 -3.3 82.85 -3.45 84.1 -3.65 86.5 -3.15 88.2 -2.45 M80.55 -7.6 L81.55 -4.95" fill="none" stroke="#330101" stroke-linecap="round" stroke-linejoin="round" stroke-opacity="0.101960786" stroke-width="0.05"/>
      <path d="M133.75 -50.4 L134.75 -51.1 Q135.8 -49.65 135.8 -48.3 135.8 -47.75 134.65 -44.95 133.45 -42.2 133.05 -41.8 132.25 -42.2 132.4 -42.95 L132.65 -44.2 132.75 -44.65 132.15 -43.45 Q131.65 -42.45 130.8 -42.45 130.2 -42.45 129.85 -42.9 L129.65 -43.5 Q129.65 -44.55 130.2 -45.8 129.95 -46.2 129.95 -46.55 129.95 -47.65 130.55 -49.1 131.55 -51.4 133.5 -51.55 L133.65 -51.3 133.75 -50.65 133.75 -50.4 M90.9 -5.3 Q90.9 -7.5 93.9 -12.6 L94.4 -11.65 94.35 -11.05 94.5 -10.65 Q98.45 -17.45 98.45 -12.6 98.45 -11.5 96.55 -6.0 94.7 -0.5 93.9 0.6 92.6 0.0 92.85 -1.25 L93.2 -3.3 92.4 -3.2 Q91.1 -3.2 90.9 -4.2 90.75 -4.7 90.9 -5.3 M136.3 -39.95 Q136.3 -41.05 137.5 -42.9 138.65 -44.75 139.55 -44.95 139.75 -44.15 138.6 -42.4 L138.3 -41.45 137.2 -40.3 136.75 -39.45 136.55 -39.4 Q136.3 -39.4 136.3 -39.95 M139.85 -16.75 L137.65 -10.8 134.5 -2.8 137.55 -8.0 Q139.8 -11.9 140.5 -11.9 141.85 -11.9 141.95 -10.45 141.95 -9.6 141.25 -8.0 L140.1 -5.6 Q141.6 -4.8 141.6 -4.4 141.6 -2.6 140.5 -0.85 139.3 1.05 137.8 1.05 L131.75 4.9 Q130.35 4.9 129.95 1.35 129.75 -0.45 129.85 -2.35 129.85 -4.9 134.85 -13.4 139.85 -21.9 139.85 -16.75 M82.05 7.95 Q82.05 8.55 78.8 15.05 L80.2 15.9 80.3 16.4 79.8 18.05 Q79.0 19.6 77.5 20.1 77.2 20.25 76.0 22.45 75.0 24.3 73.4 24.3 72.35 24.3 72.0 23.55 L71.8 22.75 Q71.8 22.15 72.05 21.6 L72.55 20.45 72.65 20.2 71.6 21.15 Q70.85 21.75 70.25 21.75 68.8 21.75 68.45 20.95 L68.35 20.05 Q68.35 18.85 71.1 14.3 L73.95 9.85 75.3 6.75 Q76.05 5.15 77.5 5.35 78.25 5.45 78.45 5.95 78.6 6.35 79.55 6.3 80.9 5.95 81.6 6.8 L82.05 7.95 M83.45 17.95 L83.95 18.15 84.1 18.85 84.0 20.1 83.45 20.55 Q82.8 19.95 82.8 18.85 82.8 18.3 83.15 18.1 L83.45 17.95" fill="#c6986c" fill-opacity="0.6" fill-rule="evenodd" stroke="none"/>
    </g>
    <g id="sprite0" transform="matrix(1.0, 0.0, 0.0, 1.0, 32.15, 14.35)">
      <use height="41.85" transform="matrix(1.0, 0.0, 0.0, 1.0, -32.15, -14.35)" width="51.55" xlink:href="#shape1"/>
    </g>
    <g id="shape1" transform="matrix(1.0, 0.0, 0.0, 1.0, 32.15, 14.35)">
      <path d="M-19.45 -0.6 L-14.65 -5.1 Q-4.65 -14.1 -4.65 -10.05 -4.65 -9.6 -6.2 -7.85 L-7.95 -6.0 -7.95 -5.95 -5.55 -7.7 -3.25 -9.0 -2.5 -8.8 -9.15 -2.45 -12.45 0.95 -12.9 1.3 Q-13.5 1.55 -14.7 2.35 L-17.3 4.0 Q-16.1 2.9 -16.1 2.45 -16.1 2.3 -16.25 2.05 -16.5 1.7 -16.9 1.7 L-17.9 2.35 -18.75 3.1 -19.35 2.45 -20.15 2.15 Q-20.65 2.15 -21.7 2.85 L-21.7 2.8 -20.45 1.2 Q-19.45 -0.1 -19.45 -0.6" fill="#33cc00" fill-rule="evenodd" stroke="none"/>
      <path d="M-2.5 -8.8 Q2.1 -12.95 3.65 -12.95 3.9 -12.95 4.45 -12.4 L7.05 -13.4 Q8.35 -14.0 8.35 -12.55 8.35 -12.05 6.5 -10.2 L4.4 -8.25 6.1 -9.25 5.05 -8.15 Q5.05 -7.75 5.45 -7.45 L6.95 -7.35 6.95 -7.25 4.0 -4.3 1.9 -1.95 Q-0.8 -1.15 -6.45 4.2 L-8.0 5.65 -7.7 5.2 -7.85 4.85 Q-8.0 4.5 -8.4 4.5 L-9.2 4.8 Q-8.4 2.8 -9.75 2.8 -10.0 2.8 -10.75 3.35 L-8.4 1.05 -13.9 5.9 -14.6 6.5 -13.35 4.55 Q-11.85 2.35 -11.85 2.0 L-11.9 1.6 Q-12.05 1.25 -12.5 1.25 L-12.75 1.25 -12.45 0.95 -9.15 -2.45 -2.5 -8.8 M10.4 -11.6 L10.6 -11.65 Q11.25 -11.65 11.4 -11.25 L10.8 -11.05 10.4 -11.6 M8.2 -9.05 L8.2 -9.0 8.15 -9.0 8.2 -9.05" fill="#ffff00" fill-rule="evenodd" stroke="none"/>
      <path d="M-3.7 12.2 Q-5.95 14.55 -6.75 14.55 -7.5 14.55 -7.55 13.8 L-8.0 14.2 Q-9.3 15.2 -9.3 16.05 L-9.05 17.9 -8.75 19.8 Q-8.75 20.7 -9.6 21.85 L-10.45 23.0 -10.2 24.1 -9.95 25.25 Q-9.95 25.75 -10.35 26.2 -10.75 26.75 -11.5 26.75 -12.9 26.75 -13.3 25.85 L-13.45 24.9 Q-13.45 23.85 -12.1 21.9 L-10.75 19.85 -11.45 14.8 -11.45 14.65 -11.85 14.75 Q-12.65 14.75 -12.65 13.95 -12.65 13.15 -11.6 12.3 L-11.5 12.15 -11.95 12.25 Q-12.75 12.25 -12.8 11.45 L-11.05 9.35 -8.0 5.65 -6.45 4.2 Q-0.8 -1.15 1.9 -1.95 L1.75 -1.65 1.85 -1.3 Q1.95 -0.95 2.4 -0.95 L2.95 -1.1 3.6 -1.5 3.5 -1.35 Q1.5 0.7 1.5 1.65 L1.55 2.1 -0.55 3.95 1.75 2.5 2.55 2.8 3.7 2.45 0.75 5.1 Q-5.2 10.75 -5.2 11.5 L-4.95 11.75 Q-4.45 11.9 -3.7 12.2" fill="#ff9900" fill-rule="evenodd" stroke="none"/>
      <path d="M-12.8 11.45 L-14.7 13.35 -15.45 12.9 -15.8 13.3 -16.35 13.6 -16.7 13.5 -16.95 13.3 Q-17.75 13.3 -18.65 14.45 -19.55 15.55 -20.75 15.55 L-21.4 16.2 Q-22.1 16.75 -22.35 16.75 -23.1 16.75 -23.05 15.85 -23.05 15.45 -21.8 13.8 L-20.55 12.1 -20.55 12.0 -22.6 13.15 -24.15 13.6 Q-24.8 13.6 -24.9 13.3 L-24.9 12.8 Q-25.8 12.8 -25.8 12.0 -27.75 13.3 -28.35 13.3 L-28.65 13.5 -28.9 13.6 Q-29.2 13.6 -29.7 13.05 L-30.65 13.7 Q-31.45 13.7 -31.4 12.9 -31.4 12.45 -29.95 10.65 L-28.35 8.65 Q-29.85 8.2 -29.85 7.55 -29.85 6.3 -24.9 0.5 -19.95 -5.3 -19.95 -1.5 L-19.7 -1.1 -19.45 -0.7 -19.45 -0.6 Q-19.45 -0.1 -20.45 1.2 L-21.7 2.8 -21.7 2.85 Q-20.65 2.15 -20.15 2.15 L-19.35 2.45 -18.75 3.1 -17.9 2.35 -16.9 1.7 Q-16.5 1.7 -16.25 2.05 -16.1 2.3 -16.1 2.45 -16.1 2.9 -17.3 4.0 L-14.7 2.35 Q-13.5 1.55 -12.9 1.3 L-12.75 1.25 -12.5 1.25 Q-12.05 1.25 -11.9 1.6 L-11.85 2.0 Q-11.85 2.35 -13.35 4.55 L-14.6 6.5 -15.1 7.45 -12.4 4.8 -10.75 3.35 Q-10.0 2.8 -9.75 2.8 -8.4 2.8 -9.2 4.8 L-8.4 4.5 Q-8.0 4.5 -7.85 4.85 L-7.7 5.2 -8.0 5.65 -11.05 9.35 -12.8 11.45" fill="#0099ff" fill-rule="evenodd" stroke="none"/>
      <path d="M6.1 -9.25 L7.0 -9.95 Q9.05 -11.65 10.05 -11.65 L10.4 -11.6 10.8 -11.05 11.4 -11.25 13.4 -12.15 Q15.2 -12.7 14.8 -11.2 L16.3 -11.55 17.65 -12.15 18.1 -11.45 18.4 -10.7 18.25 -10.35 18.1 -10.05 Q18.1 -9.85 18.4 -9.6 L18.65 -9.2 Q18.65 -8.65 17.8 -7.65 L16.9 -6.55 17.3 -5.65 Q17.3 -5.0 16.75 -4.0 L14.95 -1.85 Q12.15 1.2 9.15 1.2 8.5 1.2 8.25 0.85 L7.9 0.5 Q7.5 0.5 5.25 1.65 L3.7 2.45 2.55 2.8 1.75 2.5 1.55 2.1 1.5 1.65 Q1.5 0.7 3.5 -1.35 L3.6 -1.5 2.95 -1.1 2.4 -0.95 Q1.95 -0.95 1.85 -1.3 L1.75 -1.65 1.9 -1.95 4.0 -4.3 6.95 -7.25 6.95 -7.35 5.45 -7.45 Q5.05 -7.75 5.05 -8.15 L6.1 -9.25 M8.2 -9.05 L8.15 -9.0 8.2 -9.0 8.2 -9.05 M16.4 -8.25 L16.3 -8.25 14.95 -6.95 15.7 -7.45 16.4 -8.25" fill="#cc00cc" fill-rule="evenodd" stroke="none"/>
      <path d="M16.75 -4.0 Q17.6 -4.0 17.6 -3.2 17.6 -2.55 15.7 -0.85 L13.3 1.25 Q14.0 1.35 14.0 2.2 14.0 3.35 8.85 8.35 L6.65 10.4 6.55 11.3 7.25 14.5 6.75 15.55 Q6.3 16.15 6.25 16.95 L6.25 18.25 Q6.15 19.3 5.35 19.3 L4.75 18.75 4.6 18.25 Q4.6 17.4 5.15 16.1 L5.75 14.8 5.45 14.15 Q5.1 13.5 5.1 13.05 L5.2 11.75 3.45 13.3 2.85 12.65 Q2.55 12.1 2.55 11.5 -0.1 13.9 -0.8 13.9 -1.75 13.9 -1.65 13.1 -3.25 13.1 -3.55 12.3 L-3.7 12.2 Q-4.45 11.9 -4.95 11.75 L-5.2 11.5 Q-5.2 10.75 0.75 5.1 L3.7 2.45 5.25 1.65 Q7.5 0.5 7.9 0.5 L8.25 0.85 Q8.5 1.2 9.15 1.2 12.15 1.2 14.95 -1.85 L16.75 -4.0 M10.35 4.75 L7.85 7.55 10.45 4.7 10.35 4.75" fill="#cc0000" fill-rule="evenodd" stroke="none"/>
      <path d="M-2.5 -8.8 Q2.1 -12.95 3.65 -12.95 3.9 -12.95 4.45 -12.4 L7.05 -13.4 Q8.35 -14.0 8.35 -12.55 8.35 -12.05 6.5 -10.2 L4.4 -8.25 6.1 -9.25 7.0 -9.95 Q9.05 -11.65 10.05 -11.65 L10.4 -11.6 10.6 -11.65 Q11.25 -11.65 11.4 -11.25 L13.4 -12.15 Q15.2 -12.7 14.8 -11.2 L16.3 -11.55 17.65 -12.15 18.1 -11.45 18.4 -10.7 18.25 -10.35 18.1 -10.05 Q18.1 -9.85 18.4 -9.6 L18.65 -9.2 Q18.65 -8.65 17.8 -7.65 L16.9 -6.55 17.3 -5.65 Q17.3 -5.0 16.75 -4.0 17.6 -4.0 17.6 -3.2 17.6 -2.55 15.7 -0.85 L13.3 1.25 Q14.0 1.35 14.0 2.2 14.0 3.35 8.85 8.35 L6.65 10.4 M5.2 11.75 L3.45 13.3 2.85 12.65 Q2.55 12.1 2.55 11.5 -0.1 13.9 -0.8 13.9 -1.75 13.9 -1.65 13.1 -3.25 13.1 -3.55 12.3 L-3.7 12.2 Q-5.95 14.55 -6.75 14.55 -7.5 14.55 -7.55 13.8 L-8.0 14.2 Q-9.3 15.2 -9.3 16.05 L-9.05 17.9 -8.75 19.8 Q-8.75 20.7 -9.6 21.85 L-10.45 23.0 -10.2 24.1 -9.95 25.25 Q-9.95 25.75 -10.35 26.2 -10.75 26.75 -11.5 26.75 -12.9 26.75 -13.3 25.85 L-13.45 24.9 Q-13.45 23.85 -12.1 21.9 L-10.75 19.85 -11.45 14.8 -11.45 14.65 -11.85 14.75 Q-12.65 14.75 -12.65 13.95 -12.65 13.15 -11.6 12.3 L-11.5 12.15 -11.95 12.25 Q-12.75 12.25 -12.8 11.45 L-14.7 13.35 -15.45 12.9 -15.8 13.3 -16.35 13.6 -16.7 13.5 -16.95 13.3 Q-17.75 13.3 -18.65 14.45 -19.55 15.55 -20.75 15.55 L-21.4 16.2 Q-22.1 16.75 -22.35 16.75 -23.1 16.75 -23.05 15.85 -23.05 15.45 -21.8 13.8 L-20.55 12.1 -20.55 12.0 -22.6 13.15 -24.15 13.6 Q-24.8 13.6 -24.9 13.3 L-24.9 12.8 Q-25.8 12.8 -25.8 12.0 -27.75 13.3 -28.35 13.3 L-28.65 13.5 -28.9 13.6 Q-29.2 13.6 -29.7 13.05 L-30.65 13.7 Q-31.45 13.7 -31.4 12.9 -31.4 12.45 -29.95 10.65 L-28.35 8.65 Q-29.85 8.2 -29.85 7.55 -29.85 6.3 -24.9 0.5 -19.95 -5.3 -19.95 -1.5 L-19.7 -1.1 -19.45 -0.7 -19.45 -0.6 -14.65 -5.1 Q-4.65 -14.1 -4.65 -10.05 -4.65 -9.6 -6.2 -7.85 L-7.95 -6.0 -7.95 -5.95 -5.55 -7.7 -3.25 -9.0 -2.5 -8.8 -9.15 -2.45 -12.45 0.95 -12.75 1.25 -12.5 1.25 Q-12.05 1.25 -11.9 1.6 L-11.85 2.0 Q-11.85 2.35 -13.35 4.55 L-14.6 6.5 -13.9 5.9 -8.4 1.05 -10.75 3.35 Q-10.0 2.8 -9.75 2.8 -8.4 2.8 -9.2 4.8 L-8.4 4.5 Q-8.0 4.5 -7.85 4.85 L-7.7 5.2 -8.0 5.65 -6.45 4.2 Q-0.8 -1.15 1.9 -1.95 L4.0 -4.3 6.95 -7.25 6.95 -7.35 5.45 -7.45 Q5.05 -7.75 5.05 -8.15 L6.1 -9.25 M1.55 2.1 L1.5 1.65 Q1.5 0.7 3.5 -1.35 L3.6 -1.5 2.95 -1.1 2.4 -0.95 Q1.95 -0.95 1.85 -1.3 L1.75 -1.65 1.9 -1.95 M16.4 -8.25 L16.3 -8.25 14.95 -6.95 15.7 -7.45 16.4 -8.25 M10.4 -11.6 L10.8 -11.05 11.4 -11.25 M16.75 -4.0 L14.95 -1.85 Q12.15 1.2 9.15 1.2 8.5 1.2 8.25 0.85 L7.9 0.5 Q7.5 0.5 5.25 1.65 L3.7 2.45 0.75 5.1 Q-5.2 10.75 -5.2 11.5 L-4.95 11.75 Q-4.45 11.9 -3.7 12.2 M-19.45 -0.6 Q-19.45 -0.1 -20.45 1.2 L-21.7 2.8 -21.7 2.85 Q-20.65 2.15 -20.15 2.15 L-19.35 2.45 -18.75 3.1 -17.9 2.35 -16.9 1.7 Q-16.5 1.7 -16.25 2.05 -16.1 2.3 -16.1 2.45 -16.1 2.9 -17.3 4.0 L-14.7 2.35 Q-13.5 1.55 -12.9 1.3 L-12.45 0.95 M-12.9 1.3 L-12.75 1.25 M-14.6 6.5 L-15.1 7.45 -12.4 4.8 -10.75 3.35 M-8.0 5.65 L-11.05 9.35 -12.8 11.45 M10.35 4.75 L7.85 7.55 10.45 4.7 10.35 4.75 M3.7 2.45 L2.55 2.8 1.75 2.5 -0.55 3.95 1.55 2.1 1.75 2.5" fill="none" stroke="#9c5916" stroke-linecap="round" stroke-linejoin="round" stroke-opacity="0.3019608" stroke-width="1.5"/>
    </g>
  </defs>
</svg>
