<?xml version="1.0" encoding="UTF-8" standalone="no"?>
<svg xmlns:xlink="http://www.w3.org/1999/xlink" height="50.1px" width="203.8px" xmlns="http://www.w3.org/2000/svg">
  <g transform="matrix(1.0, 0.0, 0.0, 1.0, -7.05, 28.95)">
    <use height="50.1" transform="matrix(1.0, 0.0, 0.0, 1.0, 7.05, -28.95)" width="203.8" xlink:href="#shape0"/>
  </g>
  <defs>
    <g id="shape0" transform="matrix(1.0, 0.0, 0.0, 1.0, -7.05, 28.95)">
      <path d="M14.8 16.2 Q12.25 16.25 12.0 12.95 L12.0 7.0 Q11.75 4.5 11.6 0.15 11.4 -4.2 11.9 -10.95 L12.7 -23.0 42.6 -25.1 51.95 -24.35 62.1 -23.65 64.55 -23.65 Q73.4 -23.65 83.35 -23.95 82.75 -21.95 81.05 -21.05 L79.45 -20.5 80.55 -19.6 79.45 -20.5 81.05 -21.05 Q82.75 -21.95 83.35 -23.95 L89.4 -24.2 92.55 -24.3 113.6 -24.4 150.15 -24.6 168.05 -23.65 187.6 -22.6 190.55 -22.65 196.25 -22.95 202.0 -22.6 Q204.5 -21.9 205.55 -18.4 L199.85 -18.75 191.2 -18.4 190.55 -18.4 176.1 -19.15 171.9 -19.4 171.65 -19.45 156.85 -20.25 153.75 -20.4 134.1 -20.2 133.25 -20.15 95.75 -20.0 92.55 -19.95 80.55 -19.6 76.5 -19.5 68.15 -19.45 62.1 -19.6 55.55 -20.15 46.2 -20.9 16.3 -18.8 15.9 -12.4 15.65 -8.85 15.5 -6.75 Q15.0 0.0 15.2 4.35 L15.6 11.2 15.65 16.45 15.15 16.4 14.8 16.2 M79.0 -21.0 L79.45 -20.5 76.5 -19.5 79.45 -20.5 79.0 -21.0" fill="#a68e8e" fill-rule="evenodd" stroke="none"/>
      <path d="M83.35 -23.95 Q73.4 -23.65 64.55 -23.65 L62.1 -23.65 51.95 -24.35 42.6 -25.1 12.7 -23.0 11.9 -10.95 Q11.4 -4.2 11.6 0.15 11.75 4.5 12.0 7.0 L12.0 12.95 Q12.25 16.25 14.8 16.2 L15.1 16.35 15.15 16.4 15.65 16.45 21.55 16.55 27.65 16.75 32.6 16.95 32.8 16.95 33.95 16.95 34.15 16.95 37.35 17.0 50.05 17.15 Q47.0 18.45 42.05 18.7 L25.8 20.15 27.05 20.15 25.5 20.75 Q22.75 21.55 19.85 20.7 17.95 20.1 15.95 18.8 L13.7 17.1 Q7.05 11.45 7.05 5.6 7.05 -9.6 7.75 -14.8 L8.45 -21.4 Q9.3 -24.3 13.35 -27.9 L39.45 -28.95 75.7 -28.25 83.25 -28.2 92.55 -28.25 113.6 -28.3 136.2 -28.65 150.15 -26.8 154.35 -26.5 Q157.25 -26.5 162.35 -27.55 L174.95 -28.6 185.4 -27.9 190.55 -27.55 198.1 -27.2 205.9 -26.25 Q210.85 -24.8 210.85 -21.55 L210.8 -9.2 210.55 -4.15 210.5 -3.15 209.75 3.85 Q209.7 10.45 208.5 14.85 207.25 19.25 205.45 19.8 203.65 20.35 190.9 19.7 L183.95 19.4 183.9 19.4 182.1 19.35 Q172.65 19.05 161.45 19.05 L138.15 19.85 133.25 20.1 92.55 20.35 88.6 20.5 Q70.4 20.5 64.0 18.05 L62.7 17.45 62.35 17.3 92.55 16.65 133.25 16.5 145.65 16.15 158.45 15.75 161.1 15.65 162.9 15.6 164.65 15.55 166.25 15.5 169.1 15.4 169.7 15.4 172.85 15.3 184.5 15.0 185.3 14.95 185.7 14.95 186.75 14.95 186.9 14.95 188.8 14.9 189.9 14.85 190.55 14.85 200.9 14.45 Q203.85 14.35 204.7 9.55 L205.5 2.45 205.55 0.95 205.55 0.3 205.6 -0.95 205.7 -3.95 206.25 -12.2 Q206.25 -16.0 205.55 -18.4 204.5 -21.9 202.0 -22.6 L196.25 -22.95 190.55 -22.65 187.6 -22.6 168.05 -23.65 150.15 -24.6 113.6 -24.4 92.55 -24.3 89.4 -24.2 83.35 -23.95 83.6 -26.2 Q83.6 -27.45 83.25 -28.2 83.6 -27.45 83.6 -26.2 L83.35 -23.95 M210.5 -3.15 Q209.2 -3.15 208.95 -2.6 L208.5 -2.1 207.15 -2.05 Q206.3 -1.85 205.6 -0.95 206.3 -1.85 207.15 -2.05 L208.5 -2.1 208.95 -2.6 Q209.2 -3.15 210.5 -3.15 M183.95 19.4 L184.05 18.4 Q184.15 17.45 184.8 17.35 185.85 17.1 186.15 16.35 L186.75 14.95 186.15 16.35 Q185.85 17.1 184.8 17.35 184.15 17.45 184.05 18.4 L183.95 19.4" fill="#d9c3a9" fill-rule="evenodd" stroke="none"/>
      <path d="M14.8 16.2 L15.15 16.4 15.1 16.35 14.8 16.2 M15.9 -12.4 L16.3 -18.8 46.2 -20.9 55.55 -20.15 62.1 -19.6 68.15 -19.45 76.5 -19.5 80.55 -19.6 92.55 -19.95 95.75 -20.0 133.25 -20.15 134.1 -20.2 153.75 -20.4 156.85 -20.25 Q157.35 -17.7 161.7 -14.25 167.15 -9.9 172.8 -9.9 176.8 -9.9 179.6 -11.3 182.1 -12.55 182.1 -13.95 182.1 -14.8 178.65 -17.45 177.35 -18.5 176.1 -19.15 L190.55 -18.4 191.2 -18.4 199.85 -18.75 205.55 -18.4 Q206.25 -16.0 206.25 -12.2 L205.7 -3.95 205.6 -0.95 205.55 0.3 205.55 0.95 205.5 2.45 204.7 9.55 Q203.85 14.35 200.9 14.45 L190.55 14.85 189.9 14.85 188.8 14.9 186.9 14.95 186.75 14.95 185.7 14.95 185.3 14.95 184.5 15.0 172.85 15.3 177.35 14.0 Q184.45 11.75 184.45 10.55 L184.35 9.85 184.2 9.65 Q180.15 9.8 172.5 11.5 L166.4 13.2 168.0 11.55 162.35 12.55 Q157.75 13.65 157.75 15.1 L158.45 15.75 145.65 16.15 133.25 16.5 92.55 16.65 62.35 17.3 62.1 17.2 Q60.8 16.6 59.9 16.3 57.45 15.55 53.2 15.55 L50.3 17.0 50.05 17.15 37.35 17.0 Q36.65 14.45 32.6 10.25 27.65 5.7 27.65 5.4 L29.05 2.9 Q30.45 0.25 30.45 -0.75 30.45 -1.4 29.2 -2.05 27.0 -3.15 25.65 -4.2 25.3 -4.45 24.7 -5.95 24.15 -7.3 23.0 -7.85 L15.9 -12.4 M32.8 16.95 L32.6 16.95 32.6 16.65 32.8 16.95 M85.1 -10.7 Q84.35 -11.0 83.85 -12.45 83.4 -13.95 83.6 -15.65 83.8 -17.1 81.9 -18.55 L80.55 -19.6 81.9 -18.55 Q83.8 -17.1 83.6 -15.65 83.4 -13.95 83.85 -12.45 84.35 -11.0 85.1 -10.7 M75.2 -11.85 Q73.25 -17.45 73.25 -18.35 L76.5 -19.5 73.25 -18.35 Q73.25 -17.45 75.2 -11.85 M196.6 -9.35 Q196.6 -10.35 196.4 -9.8 L194.3 -9.65 Q193.25 -9.35 193.25 -8.45 193.25 -7.8 193.4 -7.85 L193.55 -8.0 Q195.1 -8.0 195.9 -8.45 196.6 -8.8 196.6 -9.35 M193.05 -13.75 Q193.05 -14.75 192.75 -14.4 190.6 -15.3 187.8 -14.8 L186.5 -15.0 Q183.9 -15.15 183.75 -12.95 L183.6 -12.55 Q183.6 -12.05 183.75 -11.75 L183.7 -12.15 183.9 -11.3 Q184.4 -10.1 186.15 -10.1 187.35 -10.1 188.4 -11.35 L188.85 -11.85 Q193.05 -12.8 193.05 -13.75 M140.85 -0.7 L138.9 -1.05 128.25 0.75 118.3 2.3 Q114.6 2.7 114.6 4.1 L115.0 5.4 Q115.7 6.6 117.6 6.6 119.6 6.6 130.05 4.0 141.15 1.2 141.15 0.0 L140.85 -0.7 M89.4 -4.85 Q85.55 -2.75 83.9 -1.5 81.5 0.3 81.5 1.65 81.5 2.05 82.0 2.8 L82.5 3.6 83.7 5.2 Q85.2 6.8 86.7 6.8 89.6 6.8 92.65 5.65 97.1 3.95 99.15 3.5 102.5 2.75 103.55 0.5 104.5 -1.5 106.5 -1.55 L107.0 -0.35 Q107.7 0.8 108.8 0.8 L115.7 -0.05 Q121.5 -1.05 121.5 -1.95 L121.25 -2.75 116.7 -3.0 Q117.3 -3.7 117.3 -4.6 117.3 -5.6 116.85 -5.95 115.65 -7.05 111.35 -7.05 L103.1 -5.55 Q101.25 -5.55 99.8 -6.2 L97.7 -7.25 Q95.3 -8.1 89.4 -4.85 M189.9 14.85 L190.3 14.4 190.55 14.0 190.65 13.85 192.35 10.85 Q193.1 9.65 194.0 9.0 L194.9 8.4 Q197.2 7.35 200.8 4.3 203.75 1.8 205.55 0.95 203.75 1.8 200.8 4.3 197.2 7.35 194.9 8.4 L194.0 9.0 Q193.1 9.65 192.35 10.85 L190.65 13.85 190.55 14.0 190.3 14.4 189.9 14.85 M164.65 15.55 L162.9 15.6 161.1 15.65 164.35 14.55 164.55 15.4 164.65 15.55 M159.8 9.35 L159.65 8.65 159.5 8.55 153.95 9.8 Q149.05 11.1 149.05 11.65 149.05 12.65 149.15 12.3 L150.15 12.9 151.25 13.1 Q153.4 13.1 156.75 11.35 159.8 9.8 159.8 9.35" fill="#c7bbaa" fill-rule="evenodd" stroke="none"/>
      <path d="M15.65 16.45 L15.6 11.2 15.2 4.35 Q15.0 0.0 15.5 -6.75 L15.65 -8.85 15.9 -12.4 23.0 -7.85 Q24.15 -7.3 24.7 -5.95 25.3 -4.45 25.65 -4.2 27.0 -3.15 29.2 -2.05 30.45 -1.4 30.45 -0.75 30.45 0.25 29.05 2.9 L27.65 5.4 Q27.65 5.7 32.6 10.25 36.65 14.45 37.35 17.0 L34.15 16.95 33.95 16.95 32.8 16.95 32.6 16.65 32.6 16.95 27.65 16.75 21.55 16.55 15.65 16.45 M156.85 -20.25 L171.65 -19.45 171.9 -19.4 176.1 -19.15 Q177.35 -18.5 178.65 -17.45 182.1 -14.8 182.1 -13.95 182.1 -12.55 179.6 -11.3 176.8 -9.9 172.8 -9.9 167.15 -9.9 161.7 -14.25 157.35 -17.7 156.85 -20.25 M89.4 -4.85 Q95.3 -8.1 97.7 -7.25 L99.8 -6.2 Q101.25 -5.55 103.1 -5.55 L111.35 -7.05 Q115.65 -7.05 116.85 -5.95 117.3 -5.6 117.3 -4.6 117.3 -3.7 116.7 -3.0 L121.25 -2.75 121.5 -1.95 Q121.5 -1.05 115.7 -0.05 L108.8 0.8 Q107.7 0.8 107.0 -0.35 L106.5 -1.55 Q104.5 -1.5 103.55 0.5 102.5 2.75 99.15 3.5 97.1 3.95 92.65 5.65 89.6 6.8 86.7 6.8 85.2 6.8 83.7 5.2 L82.5 3.6 82.0 2.8 Q81.5 2.05 81.5 1.65 81.5 0.3 83.9 -1.5 85.55 -2.75 89.4 -4.85 M140.85 -0.7 L141.15 0.0 Q141.15 1.2 130.05 4.0 119.6 6.6 117.6 6.6 115.7 6.6 115.0 5.4 L114.6 4.1 Q114.6 2.7 118.3 2.3 L128.25 0.75 138.9 -1.05 140.85 -0.7 M193.05 -13.75 Q193.05 -12.8 188.85 -11.85 L188.4 -11.35 Q187.35 -10.1 186.15 -10.1 184.4 -10.1 183.9 -11.3 L183.7 -12.15 183.75 -11.75 Q183.6 -12.05 183.6 -12.55 L183.75 -12.95 Q183.9 -15.15 186.5 -15.0 L187.8 -14.8 Q190.6 -15.3 192.75 -14.4 193.05 -14.75 193.05 -13.75 M196.6 -9.35 Q196.6 -8.8 195.9 -8.45 195.1 -8.0 193.55 -8.0 L193.4 -7.85 Q193.25 -7.8 193.25 -8.45 193.25 -9.35 194.3 -9.65 L196.4 -9.8 Q196.6 -10.35 196.6 -9.35 M158.45 15.75 L157.75 15.1 Q157.75 13.65 162.35 12.55 L168.0 11.55 166.4 13.2 172.5 11.5 Q180.15 9.8 184.2 9.65 L184.35 9.85 184.45 10.55 Q184.45 11.75 177.35 14.0 L172.85 15.3 169.7 15.4 169.1 15.4 166.25 15.5 164.65 15.55 164.55 15.4 164.35 14.55 161.1 15.65 158.45 15.75 M159.8 9.35 Q159.8 9.8 156.75 11.35 153.4 13.1 151.25 13.1 L150.15 12.9 149.15 12.3 Q149.05 12.65 149.05 11.65 149.05 11.1 153.95 9.8 L159.5 8.55 159.65 8.65 159.8 9.35" fill="#c1b3a4" fill-rule="evenodd" stroke="none"/>
      <path d="M83.35 -23.95 Q73.4 -23.65 64.55 -23.65 L62.1 -23.65 51.95 -24.35 42.6 -25.1 12.7 -23.0 11.9 -10.95 Q11.4 -4.2 11.6 0.15 11.75 4.5 12.0 7.0 L12.0 12.95 Q12.25 16.25 14.8 16.2 L15.15 16.4 15.65 16.45 21.55 16.55 27.65 16.75 32.6 16.95 32.8 16.95 M76.5 -19.5 L79.45 -20.5 79.0 -21.0 M50.05 17.15 L37.35 17.0 M34.15 16.95 L33.95 16.95 M80.55 -19.6 L79.45 -20.5 81.05 -21.05 Q82.75 -21.95 83.35 -23.95 L83.6 -26.2 Q83.6 -27.45 83.25 -28.2 M205.55 -18.4 Q204.5 -21.9 202.0 -22.6 L196.25 -22.95 190.55 -22.65 187.6 -22.6 168.05 -23.65 150.15 -24.6 113.6 -24.4 92.55 -24.3 89.4 -24.2 83.35 -23.95 M76.5 -19.5 L73.25 -18.35 Q73.25 -17.45 75.2 -11.85 M80.55 -19.6 L81.9 -18.55 Q83.8 -17.1 83.6 -15.65 83.4 -13.95 83.85 -12.45 84.35 -11.0 85.1 -10.7 M205.6 -0.95 Q206.3 -1.85 207.15 -2.05 L208.5 -2.1 208.95 -2.6 Q209.2 -3.15 210.5 -3.15 M205.55 -18.4 Q206.25 -16.0 206.25 -12.2 L205.7 -3.95 205.6 -0.95 205.55 0.3 205.55 0.95 205.5 2.45 204.7 9.55 Q203.85 14.35 200.9 14.45 L190.55 14.85 189.9 14.85 188.8 14.9 186.9 14.95 186.75 14.95 186.15 16.35 Q185.85 17.1 184.8 17.35 184.15 17.45 184.05 18.4 L183.95 19.4 M205.55 0.95 Q203.75 1.8 200.8 4.3 197.2 7.35 194.9 8.4 L194.0 9.0 Q193.1 9.65 192.35 10.85 L190.65 13.85 190.55 14.0 190.3 14.4 189.9 14.85 M172.85 15.3 L184.5 15.0 185.3 14.95 185.7 14.95 186.75 14.95 M169.7 15.4 L172.85 15.3 M161.1 15.65 L162.9 15.6 164.65 15.55 166.25 15.5 169.1 15.4 M161.1 15.65 L158.45 15.75 145.65 16.15 133.25 16.5 92.55 16.65 62.35 17.3 M14.8 16.2 L15.1 16.35 15.15 16.4" fill="none" stroke="#330101" stroke-linecap="round" stroke-linejoin="round" stroke-opacity="0.2" stroke-width="0.05"/>
      <path d="M50.05 17.15 Q47.0 18.45 42.05 18.7 L25.8 20.15 27.05 20.15 25.5 20.75 Q22.75 21.55 19.85 20.7 17.95 20.1 15.95 18.8 L13.7 17.1 Q7.05 11.45 7.05 5.6 7.05 -9.6 7.75 -14.8 L8.45 -21.4 Q9.3 -24.3 13.35 -27.9 L39.45 -28.95 75.7 -28.25 83.25 -28.2 92.55 -28.25 113.6 -28.3 136.2 -28.65 150.15 -26.8 154.35 -26.5 Q157.25 -26.5 162.35 -27.55 L174.95 -28.6 185.4 -27.9 190.55 -27.55 198.1 -27.2 205.9 -26.25 Q210.85 -24.8 210.85 -21.55 L210.8 -9.2 210.55 -4.15 210.5 -3.15 209.75 3.85 Q209.7 10.45 208.5 14.85 207.25 19.25 205.45 19.8 203.65 20.35 190.9 19.7 L183.95 19.4 183.9 19.4 182.1 19.35 Q172.65 19.05 161.45 19.05 L138.15 19.85 133.25 20.1 92.55 20.35 88.6 20.5 Q70.4 20.5 64.0 18.05 L62.7 17.45 62.35 17.3 62.1 17.2 Q60.8 16.6 59.9 16.3 57.45 15.55 53.2 15.55 L50.3 17.0 50.05 17.15" fill="none" stroke="#330101" stroke-linecap="round" stroke-linejoin="round" stroke-opacity="0.4" stroke-width="0.05"/>
    </g>
  </defs>
</svg>
