<?xml version="1.0" encoding="UTF-8" standalone="no"?>
<svg xmlns:xlink="http://www.w3.org/1999/xlink" height="33.1px" width="33.65px" xmlns="http://www.w3.org/2000/svg">
  <g transform="matrix(1.0, 0.0, 0.0, 1.0, 15.35, 19.75)">
    <path d="M2.85 1.1 L1.65 0.75 0.4 -0.2 -0.45 -1.5 Q-0.85 -2.55 -0.75 -4.3 L-0.65 -5.45 -0.6 -5.65 -0.4 -6.65 -0.35 -6.9 0.0 -7.8 0.05 -8.0 0.2 -8.5 0.3 -8.7 0.35 -8.85 Q0.55 -9.5 0.9 -10.15 L2.8 -13.0 6.0 -16.0 6.55 -16.5 Q9.55 -19.35 10.85 -19.65 L11.2 -19.75 Q12.2 -19.85 11.8 -18.8 9.85 -17.5 7.85 -15.5 L4.75 -12.2 Q3.75 -11.05 2.85 -9.3 L1.5 -6.65 0.8 -4.8 0.8 -2.9 Q1.05 -2.2 1.7 -1.65 L1.85 -1.5 Q2.65 -0.85 3.35 -0.85 L3.9 -0.9 3.9 -0.75 Q3.9 0.5 2.85 1.1 M-8.95 -12.7 L-11.2 -9.8 -11.65 -9.05 -12.45 -7.4 Q-14.0 -3.75 -14.7 -3.75 L-15.05 -3.9 -15.15 -4.0 -15.35 -4.35 -15.2 -5.35 Q-14.8 -7.35 -12.85 -10.0 -9.05 -15.5 -5.3 -15.65 L-8.95 -12.7" fill="#dac594" fill-rule="evenodd" stroke="none"/>
    <path d="M3.9 -0.9 Q4.75 -1.05 5.2 -1.65 L5.2 -1.7 5.4 -2.1 Q7.1 -5.0 8.0 -7.35 L9.4 -10.75 Q9.85 -11.8 11.35 -13.55 12.8 -15.3 15.9 -17.95 16.5 -18.3 17.5 -18.3 18.45 -18.4 18.3 -15.55 17.5 -15.95 16.6 -15.3 L15.4 -14.25 14.3 -12.95 12.7 -10.9 Q12.0 -9.85 10.2 -5.6 L9.95 -4.95 Q8.9 -2.4 7.7 -0.95 6.7 0.25 5.6 0.65 L2.85 1.1 Q3.9 0.5 3.9 -0.75 L3.9 -0.9" fill="#c7a97c" fill-rule="evenodd" stroke="none"/>
    <path d="M-3.55 8.35 L-3.45 8.35 -3.5 8.45 -3.55 8.35" fill="#8d9b9c" fill-rule="evenodd" stroke="none"/>
    <path d="M-4.95 13.3 L-5.1 13.35 -5.0 13.25 -4.95 13.3" fill="#c6c7d2" fill-rule="evenodd" stroke="none"/>
    <path d="M3.9 -0.9 Q4.75 -1.05 5.2 -1.65 L5.2 -1.7 5.4 -2.1 Q7.1 -5.0 8.0 -7.35 L9.4 -10.75 Q9.85 -11.8 11.35 -13.55 12.8 -15.3 15.9 -17.95 16.5 -18.3 17.5 -18.3 18.45 -18.4 18.3 -15.55 17.5 -15.95 16.6 -15.3 L15.4 -14.25 14.3 -12.95 12.7 -10.9 Q12.0 -9.85 10.2 -5.6 L9.95 -4.95 Q8.9 -2.4 7.7 -0.95 6.7 0.25 5.6 0.65 L2.85 1.1 1.65 0.75 0.4 -0.2 -0.45 -1.5 Q-0.85 -2.55 -0.75 -4.3 L-0.65 -5.45 -0.6 -5.65 -0.4 -6.65 -0.35 -6.9 0.0 -7.8 0.05 -8.0 0.2 -8.5 0.3 -8.7 0.35 -8.85 Q0.55 -9.5 0.9 -10.15 L2.8 -13.0 6.0 -16.0 6.55 -16.5 Q9.55 -19.35 10.85 -19.65 L11.2 -19.75 Q12.2 -19.85 11.8 -18.8 9.85 -17.5 7.85 -15.5 L4.75 -12.2 Q3.75 -11.05 2.85 -9.3 L1.5 -6.65 0.8 -4.8 0.8 -2.9 Q1.05 -2.2 1.7 -1.65 L1.85 -1.5 Q2.65 -0.85 3.35 -0.85 L3.9 -0.9 M-8.95 -12.7 L-11.2 -9.8 -11.65 -9.05 -12.45 -7.4 Q-14.0 -3.75 -14.7 -3.75 L-15.05 -3.9 -15.15 -4.0 -15.35 -4.35 -15.2 -5.35 Q-14.8 -7.35 -12.85 -10.0 -9.05 -15.5 -5.3 -15.65 L-8.95 -12.7 M-4.95 13.3 L-5.1 13.35" fill="none" stroke="#000000" stroke-linecap="round" stroke-linejoin="round" stroke-opacity="0.3019608" stroke-width="0.05"/>
  </g>
</svg>
