<?xml version="1.0" encoding="UTF-8" standalone="no"?>
<svg xmlns:xlink="http://www.w3.org/1999/xlink" height="23.6px" width="34.6px" xmlns="http://www.w3.org/2000/svg">
  <g transform="matrix(1.0, 0.0, 0.0, 1.0, 15.65, 17.65)">
    <path d="M6.0 -7.65 L5.85 -7.8 Q4.7 -8.65 3.75 -8.65 L-0.55 -8.15 Q1.15 -11.2 5.3 -14.2 L5.65 -14.45 7.4 -13.85 10.05 -13.3 12.5 -12.15 9.95 -10.8 Q6.85 -8.8 6.0 -7.65 M8.3 -3.0 L9.35 -1.7 -0.3 5.95 -1.1 4.95 1.6 3.0 5.3 -0.25 8.3 -3.0 M-15.1 -8.65 Q-15.75 -9.3 -15.6 -9.55 L-13.4 -12.0 Q-11.4 -14.25 -9.9 -15.0 L-6.75 -16.75 Q-5.15 -17.65 -4.7 -17.65 -4.45 -17.65 -4.25 -16.5 -8.55 -14.65 -12.15 -11.1 L-10.9 -9.25 Q-11.65 -7.45 -12.45 -2.9 L-13.85 -3.05 Q-13.75 -6.1 -12.15 -11.1 L-12.15 -11.15 -12.65 -10.75 -12.8 -10.65 -15.1 -8.65 M-5.45 -7.85 L-2.8 -8.0 Q-5.45 -4.5 -6.75 -1.15 L-8.2 -1.7 Q-7.5 -4.2 -5.45 -7.85" fill="#ffffff" fill-rule="evenodd" stroke="none"/>
    <path d="M6.2 -14.8 L6.75 -15.15 6.85 -15.25 Q10.05 -17.3 12.1 -17.3 14.85 -17.3 16.7 -16.3 18.1 -15.55 18.65 -14.45 L18.95 -13.4 12.5 -10.55 Q7.85 -8.25 6.8 -6.15 L6.0 -7.65 Q6.85 -8.8 9.95 -10.8 L12.5 -12.15 10.05 -13.3 7.4 -13.85 5.65 -14.45 6.2 -14.8 5.65 -14.45 6.2 -14.8 M18.65 -14.45 L12.5 -12.15 18.65 -14.45" fill="#d6baba" fill-rule="evenodd" stroke="none"/>
    <path d="M6.2 -14.8 L6.75 -15.15 6.85 -15.25 Q10.05 -17.3 12.1 -17.3 14.85 -17.3 16.7 -16.3 18.1 -15.55 18.65 -14.45 L18.95 -13.4 12.5 -10.55 Q7.85 -8.25 6.8 -6.15 M-0.55 -8.15 Q1.15 -11.2 5.3 -14.2 L5.65 -14.45 M6.2 -14.8 L5.65 -14.45 M12.5 -12.15 L18.65 -14.45 M6.0 -7.65 Q6.85 -8.8 9.95 -10.8 L12.5 -12.15 M9.35 -1.7 L8.3 -3.0 M-15.1 -8.65 Q-15.75 -9.3 -15.6 -9.55 L-13.4 -12.0 Q-11.4 -14.25 -9.9 -15.0 L-6.75 -16.75 Q-5.15 -17.65 -4.7 -17.65 -4.45 -17.65 -4.25 -16.5 -8.55 -14.65 -12.15 -11.1 L-10.9 -9.25 M-12.15 -11.1 L-12.15 -11.15 -12.65 -10.75 M-2.8 -8.0 L-5.45 -7.85" fill="none" stroke="#000000" stroke-linecap="round" stroke-linejoin="round" stroke-opacity="0.3019608" stroke-width="0.05"/>
  </g>
</svg>
