<?xml version="1.0" encoding="UTF-8" standalone="no"?>
<svg xmlns:xlink="http://www.w3.org/1999/xlink" height="36.6px" width="36.95px" xmlns="http://www.w3.org/2000/svg">
  <g transform="matrix(1.0, 0.0, 0.0, 1.0, 18.45, 16.75)">
    <path d="M3.65 -3.65 L2.35 -4.15 0.15 -5.0 -2.55 -5.85 Q-1.7 -7.45 0.05 -9.25 L3.25 -12.1 3.65 -12.1 6.9 -11.15 Q8.35 -10.55 9.5 -10.25 L6.45 -7.0 2.55 -8.2 Q0.05 -9.0 0.05 -9.25 0.05 -9.0 2.55 -8.2 L6.45 -7.0 3.65 -3.65 M-7.7 -15.35 L-6.55 -13.5 -7.7 -15.35 Q-5.4 -16.8 -4.35 -16.75 L-2.85 -16.6 -2.1 -15.6 -2.1 -15.05 Q-4.45 -14.75 -6.55 -13.5 -8.6 -12.3 -10.4 -10.7 L-11.9 -12.15 -10.4 -10.7 -12.35 -8.95 -13.65 -9.75 -13.9 -9.65 -11.9 -12.15 -9.1 -14.4 -7.7 -15.35 M-6.9 7.2 L-6.75 8.45 Q-6.75 9.65 -7.65 10.55 L-8.35 11.15 -8.35 11.3 -8.25 11.45 -7.4 13.25 -7.35 13.7 Q-7.35 16.2 -9.05 17.75 -9.2 16.35 -9.65 14.9 L-9.9 14.15 Q-11.0 11.15 -12.5 10.6 L-13.2 10.5 -13.7 10.6 Q-14.65 11.05 -15.6 13.0 L-16.5 15.5 -15.6 13.0 Q-14.65 11.05 -13.7 10.6 L-13.2 10.5 -12.5 10.6 Q-11.0 11.15 -9.9 14.15 L-9.65 14.9 Q-9.2 16.35 -9.05 17.75 L-9.0 19.1 -11.65 18.25 -12.6 17.8 -14.65 16.75 -16.5 15.5 -16.85 15.2 -17.5 14.6 -18.45 13.6 -17.95 10.6 Q-17.2 6.75 -16.1 5.25 -14.6 3.2 -11.15 4.4 -8.45 5.4 -6.9 7.2 M-8.35 11.3 L-8.4 11.2 -8.75 10.6 Q-10.85 7.05 -13.1 7.05 -14.95 7.05 -16.2 9.8 L-16.55 10.6 Q-17.2 12.3 -17.5 14.6 -17.2 12.3 -16.55 10.6 L-16.2 9.8 Q-14.95 7.05 -13.1 7.05 -10.85 7.05 -8.75 10.6 L-8.4 11.2 -8.35 11.3 M-14.65 16.75 L-14.05 15.55 Q-13.55 14.75 -12.9 14.75 -11.65 14.75 -11.65 17.45 L-11.65 18.25 -11.65 17.45 Q-11.65 14.75 -12.9 14.75 -13.55 14.75 -14.05 15.55 L-14.65 16.75" fill="#ffffff" fill-opacity="0.8" fill-rule="evenodd" stroke="none"/>
    <path d="M6.45 -14.45 L8.55 -15.45 8.65 -15.45 15.6 -14.1 Q16.3 -13.8 16.9 -13.3 15.5 -13.85 13.8 -13.0 L13.7 -13.0 6.45 -14.45 13.7 -13.0 13.8 -13.0 Q15.5 -13.85 16.9 -13.3 17.9 -12.45 18.5 -10.9 L16.05 -10.95 14.4 -10.75 Q12.35 -10.35 10.35 -8.6 L10.0 -8.25 6.9 -5.2 5.15 -3.15 3.65 -3.65 6.45 -7.0 9.5 -10.25 Q9.45 -9.65 10.0 -8.25 9.45 -9.65 9.5 -10.25 8.35 -10.55 6.9 -11.15 L3.65 -12.1 3.25 -12.1 6.45 -14.45 M6.9 -5.2 L6.45 -7.0 6.9 -5.2 M13.7 -13.0 L10.75 -11.2 9.5 -10.25 10.75 -11.2 13.7 -13.0 M13.8 -13.0 Q13.75 -12.75 14.05 -11.8 L14.4 -10.75 14.05 -11.8 Q13.75 -12.75 13.8 -13.0 M-8.35 11.3 L-8.35 11.15 -7.65 10.55 Q-6.75 9.65 -6.75 8.45 L-6.9 7.2 -6.15 8.2 -5.05 10.6 Q-3.9 13.7 -2.55 19.65 L-5.95 19.85 Q-6.2 16.3 -7.4 13.25 -6.2 16.3 -5.95 19.85 L-7.8 19.5 -9.0 19.1 -9.05 17.75 Q-7.35 16.2 -7.35 13.7 L-7.4 13.25 -8.25 11.45 -8.35 11.3" fill="#d1b6b6" fill-rule="evenodd" stroke="none"/>
    <path d="M16.9 -13.3 Q16.3 -13.8 15.6 -14.1 L8.65 -15.45 8.55 -15.45 6.45 -14.45 13.7 -13.0 13.8 -13.0 Q15.5 -13.85 16.9 -13.3 17.9 -12.45 18.5 -10.9 L16.05 -10.95 14.4 -10.75 Q12.35 -10.35 10.35 -8.6 L10.0 -8.25 6.9 -5.2 5.15 -3.15 M-2.55 -5.85 Q-1.7 -7.45 0.05 -9.25 L3.25 -12.1 6.45 -14.45 M9.5 -10.25 L6.45 -7.0 6.9 -5.2 M10.0 -8.25 Q9.45 -9.65 9.5 -10.25 8.35 -10.55 6.9 -11.15 L3.65 -12.1 3.25 -12.1 M0.05 -9.25 Q0.05 -9.0 2.55 -8.2 L6.45 -7.0 3.65 -3.65 M14.4 -10.75 L14.05 -11.8 Q13.75 -12.75 13.8 -13.0 M9.5 -10.25 L10.75 -11.2 13.7 -13.0 M-6.55 -13.5 L-7.7 -15.35 -9.1 -14.4 -11.9 -12.15 -10.4 -10.7 Q-8.6 -12.3 -6.55 -13.5 -4.45 -14.75 -2.1 -15.05 L-2.1 -15.6 -2.85 -16.6 -4.35 -16.75 Q-5.4 -16.8 -7.7 -15.35 M-13.9 -9.65 L-11.9 -12.15 M-10.4 -10.7 L-12.35 -8.95 M-8.35 11.3 L-8.25 11.45 -7.4 13.25 Q-6.2 16.3 -5.95 19.85 L-2.55 19.65 M-18.45 13.6 L-17.5 14.6 Q-17.2 12.3 -16.55 10.6 L-16.2 9.8 Q-14.95 7.05 -13.1 7.05 -10.85 7.05 -8.75 10.6 L-8.4 11.2 -8.35 11.3 M-16.5 15.5 L-15.6 13.0 Q-14.65 11.05 -13.7 10.6 L-13.2 10.5 -12.5 10.6 Q-11.0 11.15 -9.9 14.15 L-9.65 14.9 Q-9.2 16.35 -9.05 17.75 M-11.65 18.25 L-11.65 17.45 Q-11.65 14.75 -12.9 14.75 -13.55 14.75 -14.05 15.55 L-14.65 16.75 -12.6 17.8 -11.65 18.25 -9.0 19.1 -9.05 17.75 M-17.5 14.6 L-16.85 15.2 -16.5 15.5 -14.65 16.75 M-9.0 19.1 L-7.8 19.5 -5.95 19.85" fill="none" stroke="#000000" stroke-linecap="round" stroke-linejoin="round" stroke-opacity="0.3019608" stroke-width="0.05"/>
  </g>
</svg>
