<?xml version="1.0" encoding="UTF-8" standalone="no"?>
<svg xmlns:xlink="http://www.w3.org/1999/xlink" height="32.1px" width="36.1px" xmlns="http://www.w3.org/2000/svg">
  <g transform="matrix(1.0, 0.0, 0.0, 1.0, 18.05, 16.05)">
    <path d="M-1.1 -15.25 L-0.25 -13.75 Q0.7 -11.8 2.35 -9.3 L6.8 -3.9 Q9.45 -0.9 11.6 0.55 13.9 2.05 16.35 2.7 L17.65 4.5 17.0 5.15 17.0 5.35 17.2 5.5 17.2 5.65 Q19.15 7.65 16.5 8.6 L16.35 8.3 15.55 7.8 15.35 7.8 15.05 7.65 14.55 7.45 Q12.9 7.15 11.25 8.3 11.1 8.3 11.1 8.45 11.25 8.45 11.4 8.6 11.25 8.45 11.1 8.45 11.1 8.3 11.25 8.3 12.9 7.15 14.55 7.45 L15.05 7.65 15.35 7.8 15.55 7.8 16.35 8.3 12.9 9.95 11.4 8.6 9.75 9.45 8.8 9.75 Q7.95 9.75 7.8 10.45 L7.65 10.6 Q7.65 10.95 8.15 11.4 L9.45 12.25 9.6 12.25 Q7.8 12.75 5.0 11.75 2.2 10.6 1.2 7.65 0.05 4.5 -0.75 3.35 -1.75 2.2 -4.7 2.2 L-8.15 2.2 -8.35 1.85 -8.65 1.4 -8.8 0.55 -9.5 -2.4 Q-9.8 -4.85 -9.5 -7.0 -8.8 -10.3 -8.65 -13.1 L-8.5 -16.05 -1.1 -15.25" fill="#ffffff" fill-rule="evenodd" stroke="none"/>
    <path d="M-8.5 -16.05 L-8.65 -13.1 Q-8.8 -10.3 -9.5 -7.0 -9.8 -4.85 -9.5 -2.4 L-8.8 0.55 -8.65 1.4 -8.35 1.85 -8.15 2.2 -4.7 2.2 Q-1.75 2.2 -0.75 3.35 0.05 4.5 1.2 7.65 2.2 10.6 5.0 11.75 7.8 12.75 9.6 12.25 L9.45 12.25 8.15 11.4 Q7.65 10.95 7.65 10.6 L7.8 10.45 Q7.95 9.75 8.8 9.75 L9.75 9.45 11.4 8.6 12.9 9.95 16.35 8.3 16.5 8.6 16.7 9.1 Q16.85 10.1 15.7 10.75 L14.05 12.1 13.55 14.4 11.25 16.05 5.15 15.05 3.2 14.55 Q1.4 12.9 0.9 11.25 L0.05 10.25 Q-1.25 8.6 -3.25 7.8 -4.85 7.0 -6.7 6.8 L-14.1 5.15 Q-14.25 5.0 -14.4 5.0 -15.25 5.0 -15.55 4.35 -17.4 3.5 -17.7 1.7 L-17.85 1.55 -18.05 0.55 Q-18.05 -1.4 -17.4 -4.05 -16.7 -6.35 -16.4 -9.3 L-15.9 -12.6 Q-14.25 -13.9 -12.45 -14.9 -10.45 -15.75 -8.5 -16.05 M14.05 12.1 L13.25 10.45 14.05 12.1 M13.25 10.45 L13.05 10.25 13.05 10.45 13.25 10.45 M12.9 9.95 L12.9 10.1 13.05 10.25 12.9 10.1 12.9 9.95 M11.75 11.4 Q10.25 12.4 9.6 12.25 10.25 12.4 11.75 11.4" fill="#d6baba" fill-rule="evenodd" stroke="none"/>
    <path d="M13.05 10.25 L13.25 10.45 13.05 10.45 13.05 10.25" fill="#f8d198" fill-rule="evenodd" stroke="none"/>
    <path d="M16.5 8.6 Q19.15 7.65 17.2 5.65 L17.2 5.5 17.0 5.35 17.0 5.15 17.65 4.5 16.35 2.7 Q13.9 2.05 11.6 0.55 9.45 -0.9 6.8 -3.9 L2.35 -9.3 Q0.7 -11.8 -0.25 -13.75 L-1.1 -15.25 M9.6 12.25 L9.45 12.25 8.15 11.4 Q7.65 10.95 7.65 10.6 L7.8 10.45 Q7.95 9.75 8.8 9.75 L9.75 9.45 11.4 8.6 Q11.25 8.45 11.1 8.45 11.1 8.3 11.25 8.3 12.9 7.15 14.55 7.45 L15.05 7.65 15.35 7.8 15.55 7.8 16.35 8.3 16.5 8.6 16.7 9.1 Q16.85 10.1 15.7 10.75 L14.05 12.1 13.55 14.4 11.25 16.05 5.15 15.05 3.2 14.55 Q1.4 12.9 0.9 11.25 L0.05 10.25 Q-1.25 8.6 -3.25 7.8 -4.85 7.0 -6.7 6.8 L-14.1 5.15 Q-14.25 5.0 -14.4 5.0 -15.25 5.0 -15.55 4.35 -17.4 3.5 -17.7 1.7 M-17.85 1.55 L-18.05 0.55 Q-18.05 -1.4 -17.4 -4.05 -16.7 -6.35 -16.4 -9.3 L-15.9 -12.6 M13.25 10.45 L14.05 12.1 M13.25 10.45 L13.05 10.25 12.9 10.1 12.9 9.95 11.4 8.6 M12.9 9.95 L16.35 8.3 M9.6 12.25 Q10.25 12.4 11.75 11.4" fill="none" stroke="#000000" stroke-linecap="round" stroke-linejoin="round" stroke-opacity="0.3019608" stroke-width="0.05"/>
  </g>
</svg>
