<?xml version="1.0" encoding="UTF-8" standalone="no"?>
<svg xmlns:xlink="http://www.w3.org/1999/xlink" height="27.4px" width="40.2px" xmlns="http://www.w3.org/2000/svg">
  <g transform="matrix(1.0, 0.0, 0.0, 1.0, 20.15, 13.4)">
    <path d="M-19.95 -6.75 Q-20.05 -7.15 -19.6 -8.55 -19.15 -10.35 -16.15 -11.85 -13.2 -13.4 -7.4 -13.4 L-3.15 -13.05 2.55 -11.15 Q6.25 -9.8 11.45 -6.6 16.65 -3.45 19.15 0.1 L19.0 2.7 18.8 3.05 18.2 4.1 17.55 5.1 16.25 6.5 Q15.05 7.65 13.5 8.25 15.05 7.65 16.25 6.5 L17.55 5.1 18.2 4.1 18.8 3.05 19.0 2.7 19.15 0.1 20.05 2.7 20.05 2.8 20.05 3.75 19.9 5.2 19.45 6.3 18.8 7.55 18.75 7.7 Q17.95 9.3 16.25 10.8 15.05 11.9 13.5 12.55 L13.45 12.25 13.5 8.25 13.05 8.4 11.5 9.05 6.35 9.55 Q2.45 9.55 -7.35 3.85 -17.15 -1.85 -18.65 -4.3 L-19.95 -6.75" fill="#996600" fill-rule="evenodd" stroke="none"/>
    <path d="M-19.95 -6.75 L-18.65 -4.3 Q-17.15 -1.85 -7.35 3.85 2.45 9.55 6.35 9.55 L11.5 9.05 13.05 8.4 13.5 8.25 13.45 12.25 13.5 12.55 11.65 13.35 6.2 14.0 Q2.2 13.95 -7.45 8.3 -17.15 2.6 -18.75 -0.4 -20.35 -3.4 -20.15 -4.5 L-19.95 -6.75" fill="#764701" fill-rule="evenodd" stroke="none"/>
    <path d="M19.15 0.1 Q16.65 -3.45 11.45 -6.6 6.25 -9.8 2.55 -11.15 L-3.15 -13.05 -7.4 -13.4 Q-13.2 -13.4 -16.15 -11.85 -19.15 -10.35 -19.6 -8.55 -20.05 -7.15 -19.95 -6.75 L-18.65 -4.3 Q-17.15 -1.85 -7.35 3.85 2.45 9.55 6.35 9.55 L11.5 9.05 13.05 8.4 13.5 8.25 Q15.05 7.65 16.25 6.5 L17.55 5.1 18.2 4.1 18.8 3.05 19.0 2.7 19.15 0.1 20.05 2.7 20.05 2.8 20.05 3.75 19.9 5.2 19.45 6.3 18.8 7.55 18.75 7.7 Q17.95 9.3 16.25 10.8 15.05 11.9 13.5 12.55 L11.65 13.35 6.2 14.0 Q2.2 13.95 -7.45 8.3 -17.15 2.6 -18.75 -0.4 -20.35 -3.4 -20.15 -4.5 L-19.95 -6.75" fill="none" stroke="#000000" stroke-linecap="round" stroke-linejoin="round" stroke-opacity="0.3019608" stroke-width="0.05"/>
  </g>
</svg>
