<?xml version="1.0" encoding="UTF-8" standalone="no"?>
<svg xmlns:xlink="http://www.w3.org/1999/xlink" height="33.25px" width="36.7px" xmlns="http://www.w3.org/2000/svg">
  <g transform="matrix(1.0, 0.0, 0.0, 1.0, 19.6, 17.85)">
    <path d="M-7.95 -17.7 L-2.55 -16.95 Q-0.65 -16.25 0.75 -12.95 2.05 -9.95 4.25 -7.45 L5.9 -6.1 6.45 -4.55 6.55 -3.05 Q6.55 -1.45 5.95 -0.05 L2.9 -1.75 0.95 -2.95 -1.4 -4.35 -1.65 -4.4 Q-4.85 -6.0 -5.0 -7.95 -5.15 -10.0 -5.85 -12.45 -6.65 -15.45 -7.95 -17.7 M2.75 -8.85 L4.25 -7.45 2.75 -8.85" fill="#996600" fill-rule="evenodd" stroke="none"/>
    <path d="M-7.95 -17.7 Q-6.65 -15.45 -5.85 -12.45 -5.15 -10.0 -5.0 -7.95 -4.85 -6.0 -1.65 -4.4 L-1.4 -4.35 0.95 -2.95 2.9 -1.75 5.95 -0.05 5.7 0.45 3.8 3.35 1.45 5.05 0.0 5.55 -0.1 5.55 -2.15 5.7 -2.6 5.8 -5.4 6.55 -6.25 6.4 -9.0 5.75 -9.5 5.6 -9.55 5.6 -11.55 5.1 -16.2 4.0 -16.25 3.95 Q-18.4 3.0 -19.15 1.45 L-19.3 1.05 -19.4 0.7 Q-19.9 -1.45 -18.5 -6.9 -17.1 -12.35 -17.15 -13.95 L-16.2 -15.4 -15.3 -16.2 -11.55 -17.85 -7.95 -17.7" fill="#764701" fill-rule="evenodd" stroke="none"/>
    <path d="M15.7 2.65 L16.15 3.0 Q16.8 3.55 16.8 4.25 L17.1 7.3 Q17.35 9.55 14.65 12.3 11.95 15.05 5.65 15.4 -0.7 15.7 -5.45 11.15 L-6.85 10.1 -8.9 8.45 -9.4 8.05 -9.55 5.6 -9.5 5.6 -9.0 5.75 -6.25 6.4 -5.4 6.55 -2.6 5.8 -2.15 5.7 -0.1 5.55 0.0 5.55 3.05 5.25 6.4 5.45 Q7.15 5.75 9.55 5.05 L13.35 3.8 15.7 2.65 M-19.15 1.45 Q-18.4 3.0 -16.25 3.95 L-16.2 4.0 -11.55 5.1 -9.55 5.6 Q-10.15 6.1 -10.6 6.9 -10.75 7.25 -11.65 7.25 -13.85 7.25 -16.2 6.1 L-16.8 5.75 Q-19.6 4.2 -19.6 2.6 L-19.15 1.45" fill="#cc9900" fill-rule="evenodd" stroke="none"/>
    <path d="M4.25 -7.45 Q2.05 -9.95 0.75 -12.95 -0.65 -16.25 -2.55 -16.95 L-7.95 -17.7 -11.55 -17.85 -15.3 -16.2 -16.2 -15.4 -17.15 -13.95 Q-17.1 -12.35 -18.5 -6.9 -19.9 -1.45 -19.4 0.7 L-19.3 1.05 -19.15 1.45 -19.6 2.6 Q-19.6 4.2 -16.8 5.75 L-16.2 6.1 Q-13.85 7.25 -11.65 7.25 -10.75 7.25 -10.6 6.9 -10.15 6.1 -9.55 5.6 L-9.4 8.05 -8.9 8.45 -6.85 10.1 -5.45 11.15 Q-0.7 15.7 5.65 15.4 11.95 15.05 14.65 12.3 17.35 9.55 17.1 7.3 L16.8 4.25 Q16.8 3.55 16.15 3.0 L15.7 2.65 M5.9 -6.1 L4.25 -7.45 2.75 -8.85 M-5.4 6.55 L-6.25 6.4 -9.0 5.75 -9.5 5.6 -9.55 5.6 -11.55 5.1 -16.2 4.0 -16.25 3.95 Q-18.4 3.0 -19.15 1.45" fill="none" stroke="#000000" stroke-linecap="round" stroke-linejoin="round" stroke-opacity="0.3019608" stroke-width="0.05"/>
  </g>
</svg>
