<?xml version="1.0" encoding="UTF-8" standalone="no"?>
<svg xmlns:xlink="http://www.w3.org/1999/xlink" height="34" width="34" xmlns="http://www.w3.org/2000/svg">
  <g transform="matrix(1.0, 0.0, 0.0, 1.0, 1, 1)">
    <use height="34.0" transform="matrix(1.0, 0.0, 0.0, 1.0, -1.0, -1.0)" width="34.0" xlink:href="#sprite0"/>
  </g>
  <defs>
    <g id="sprite0" transform="matrix(1.0, 0.0, 0.0, 1.0, 1.0, 1.0)">
      <use height="34.0" transform="matrix(1.0, 0.0, 0.0, 1.0, -1.0, -1.0)" width="34.0" xlink:href="#sprite1"/>
      <use height="29.9" transform="matrix(1.0, 0.0, 0.0, 1.0, -0.2, 0.75)" width="32.05" xlink:href="#shape1"/>
    </g>
    <g id="sprite1" transform="matrix(1.0, 0.0, 0.0, 1.0, 1.0, 1.0)">
      <use height="34.0" transform="matrix(1.0, 0.0, 0.0, 1.0, -1.0, -1.0)" width="34.0" xlink:href="#shape0"/>
    </g>
    <g id="shape0" transform="matrix(1.0, 0.0, 0.0, 1.0, 1.0, 1.0)">
      <path d="M0.0 32.0 L0.0 0.0 32.0 0.0 32.0 32.0 0.0 32.0" fill="#cccc00" fill-rule="evenodd" stroke="none"/>
      <path d="M0.0 32.0 L0.0 0.0 32.0 0.0 32.0 32.0 0.0 32.0 Z" fill="none" stroke="#733c2f" stroke-linecap="round" stroke-linejoin="round" stroke-width="2.0"/>
    </g>
    <g id="shape1" transform="matrix(1.0, 0.0, 0.0, 1.0, 0.2, -0.75)">
      <path d="M27.65 11.45 Q29.2 11.45 29.55 13.0 L29.7 15.05 29.85 18.25 29.65 19.6 29.5 20.45 29.75 21.75 Q29.8 22.95 28.25 25.2 26.35 27.95 24.05 27.95 21.95 27.95 19.9 26.75 L19.0 26.2 17.85 26.15 15.45 26.35 15.4 26.35 Q13.4 26.4 12.8 24.3 L12.8 24.25 12.8 24.15 Q12.75 22.95 15.05 22.25 L16.55 21.95 16.5 21.75 Q15.3 21.75 13.65 20.85 11.6 19.75 11.7 19.1 11.7 18.55 12.2 17.5 12.95 16.0 13.8 16.05 14.55 16.05 19.3 17.85 L19.35 17.8 17.25 16.0 Q16.2 15.1 16.2 13.8 16.2 13.15 16.5 12.45 17.05 11.15 18.2 11.15 19.7 11.15 21.8 13.8 L24.1 17.35 25.2 17.35 25.1 15.75 25.3 13.4 Q25.7 11.45 27.65 11.45 M26.85 14.05 Q26.75 14.7 26.8 15.45 L26.3 18.2 26.25 18.3 26.1 18.55 25.8 18.65 25.75 18.65 25.6 18.6 25.4 18.55 Q24.3 19.0 23.85 18.55 L22.95 18.2 Q22.75 18.2 22.65 18.05 L22.55 17.75 22.7 17.45 21.0 15.35 Q18.85 12.75 18.2 12.65 L17.8 13.1 17.75 13.2 17.65 13.8 Q17.65 14.55 19.0 15.55 20.65 16.9 20.75 17.75 L20.95 17.65 21.25 17.7 21.5 17.95 21.45 18.3 21.45 18.25 21.2 18.5 Q20.55 18.8 19.6 20.0 L19.35 20.2 19.0 20.15 18.85 19.95 18.85 19.6 19.0 19.2 16.8 18.5 16.7 18.4 13.9 17.5 13.45 18.05 13.5 18.05 13.15 18.9 Q14.85 19.95 16.45 20.15 17.8 20.35 17.8 21.6 L17.95 21.95 18.05 22.2 17.95 22.65 18.2 22.55 18.55 22.65 18.5 22.65 18.6 23.0 18.65 23.25 18.7 23.35 Q19.0 25.15 21.2 25.95 L21.25 25.95 23.85 26.5 Q26.7 26.45 28.3 21.75 28.3 20.9 27.25 19.15 L26.9 18.55 26.8 18.2 26.95 17.9 26.95 17.95 Q27.1 17.8 27.3 17.8 L27.55 17.95 28.45 18.9 28.45 18.75 28.25 15.65 Q27.9 13.15 27.5 13.0 26.95 13.1 26.85 14.05 M15.4 24.95 L17.7 24.75 17.6 24.05 17.7 22.9 17.75 22.85 15.8 23.6 Q14.3 23.95 14.15 24.15 L14.55 24.55 Q14.9 24.95 15.4 24.95" fill="#733c2f" fill-rule="evenodd" stroke="none"/>
      <path d="M26.4 13.95 Q26.6 12.55 27.5 12.55 28.3 12.55 28.7 15.6 L28.9 18.75 28.75 20.05 28.25 19.3 27.25 18.25 27.65 18.95 Q28.75 20.8 28.75 21.75 27.0 26.95 23.85 26.95 L21.15 26.4 Q18.55 25.5 18.25 23.45 L18.15 23.0 18.05 24.05 Q18.05 24.65 18.55 25.25 L17.85 25.2 15.4 25.4 Q14.7 25.4 14.2 24.85 13.7 24.4 13.7 24.15 13.7 23.55 15.7 23.15 17.6 22.7 17.6 22.2 L17.35 21.6 Q17.35 20.75 16.4 20.6 14.55 20.35 12.6 19.1 L13.05 17.85 Q13.45 17.05 13.85 17.05 L16.9 18.05 19.65 19.0 19.25 19.75 Q20.3 18.4 21.05 18.1 20.3 18.25 19.95 18.65 L20.05 18.5 20.3 17.85 Q20.3 17.15 18.7 15.95 17.2 14.7 17.2 13.8 L17.35 13.0 Q17.65 12.2 18.15 12.2 19.0 12.2 21.35 15.1 L23.45 17.8 23.0 17.8 Q23.9 17.95 24.15 18.2 L25.3 18.1 25.75 18.2 25.8 18.2 25.85 18.1 26.35 15.5 Q26.3 14.7 26.4 13.95" fill="#fcf9e0" fill-rule="evenodd" stroke="none"/>
      <path d="M-0.2 6.9 L-0.2 0.75 11.8 28.55 9.55 29.5 -0.2 6.9" fill="#fcf9e0" fill-rule="evenodd" stroke="none"/>
      <path d="M-0.2 6.9 L9.55 29.5 11.8 28.55 -0.2 0.75 0.9 0.75 12.85 28.55 12.9 28.75 12.9 28.8 12.85 29.1 12.6 29.25 9.5 30.6 9.25 30.65 9.0 30.55 8.85 30.35 -0.2 9.35 -0.2 6.9" fill="#733c2f" fill-rule="evenodd" stroke="none"/>
      <path d="M7.2 8.0 L11.25 11.5 10.05 12.95 6.0 9.45 7.2 8.0" fill="#733c2f" fill-rule="evenodd" stroke="none"/>
      <path d="M14.8 3.1 L16.6 8.15 14.8 8.75 13.0 3.7 14.8 3.1" fill="#733c2f" fill-rule="evenodd" stroke="none"/>
      <path d="M23.85 2.65 L22.85 7.9 21.0 7.55 22.0 2.3 23.85 2.65" fill="#733c2f" fill-rule="evenodd" stroke="none"/>
      <path d="M31.85 6.75 L28.35 10.8 26.9 9.6 30.4 5.55 31.85 6.75" fill="#733c2f" fill-rule="evenodd" stroke="none"/>
    </g>
  </defs>
</svg>
