<svg xmlns="http://www.w3.org/2000/svg" xmlns:xlink="http://www.w3.org/1999/xlink" width="34" height="34"><g transform="matrix(1.0, 0.0, 0.0, 1.0, 1, 1)"><use width="34" height="34" transform="matrix(1.0, 0.0, 0.0, 1.0, -1.0, -1.0)" xlink:href="#sprite0"/></g><defs><g id="sprite0" transform="matrix(1.0, 0.0, 0.0, 1.0, 1.0, 1.0)"><use width="34" height="34" transform="matrix(1.0, 0.0, 0.0, 1.0, -1.0, -1.0)" xlink:href="#sprite1"/><use width="18.9" height="25.4" transform="matrix(1.0, 0.0, 0.0, 1.0, 10.1, 6.15)" xlink:href="#shape1"/><use width="5.55" height="16.05" transform="matrix(-0.3959, 0.3703, -0.3703, -0.3959, 14.0, 7.95)" xlink:href="#sprite2"/><use width="5.55" height="16.05" transform="matrix(0.3504, 0.4135, -0.4135, 0.3504, 7.7, 1.2)" xlink:href="#sprite2"/><use width="5.55" height="16.05" transform="matrix(0.3834, 0.3586, 0.3586, -0.3834, 17.15, 7.75)" xlink:href="#sprite2"/><use width="5.55" height="16.05" transform="matrix(-0.3394, 0.4004, 0.4004, 0.3394, 23.3, 1.2)" xlink:href="#sprite2"/><use width="5.55" height="16.05" transform="matrix(-0.5483, 0.0697, -0.0697, -0.5483, 19.7, 21.65)" xlink:href="#sprite2"/><use width="27.75" height="7.8" transform="matrix(1.0, 0.0, 0.0, 1.0, 1.55, 3.1)" xlink:href="#shape3"/><use width="5.55" height="16.05" transform="matrix(-0.5512, 0.0405, -0.0405, -0.5512, 20.1, 28.95)" xlink:href="#sprite2"/><use width="1.9" height="16.15" transform="matrix(1.0, 0.0, 0.0, 1.0, 3.45, 11.15)" xlink:href="#shape4"/></g><g id="sprite1" transform="matrix(1.0, 0.0, 0.0, 1.0, 1.0, 1.0)"><use width="34" height="34" transform="matrix(1.0, 0.0, 0.0, 1.0, -1.0, -1.0)" xlink:href="#shape0"/></g><g id="shape0"><path fill="#cc0" fill-rule="evenodd" stroke="none" d="M0.0 32.0 L0.0 0.0 32.0 0.0 32.0 32.0 0.0 32.0" transform="matrix(1.0, 0.0, 0.0, 1.0, 1.0, 1.0)"/><path fill="none" stroke="#733c2f" stroke-linecap="round" stroke-linejoin="round" stroke-width="2" d="M0.0 32.0 L0.0 0.0 32.0 0.0 32.0 32.0 0.0 32.0 Z" transform="matrix(1.0, 0.0, 0.0, 1.0, 1.0, 1.0)"/></g><g id="shape1"><path fill="#fcf9e0" fill-rule="evenodd" stroke="none" d="M22.55 8.8 Q22.95 8.8 23.2 11.15 L23.5 16.9 23.2 22.6 Q22.95 24.95 22.55 24.95 22.15 24.95 21.85 22.6 21.6 20.25 21.6 16.9 21.6 13.55 21.85 11.15 22.15 8.8 22.55 8.8 M29.0 23.5 L28.7 29.2 Q28.45 31.55 28.05 31.55 27.65 31.55 27.35 29.2 27.1 26.85 27.1 23.5 27.1 20.15 27.35 17.75 27.65 15.4 28.05 15.4 28.45 15.4 28.7 17.75 L29.0 23.5 M11.05 15.15 Q11.45 15.15 11.7 17.5 L12.0 23.25 11.7 28.95 Q11.45 31.3 11.05 31.3 10.65 31.3 10.35 28.95 10.1 26.6 10.1 23.25 10.1 19.9 10.35 17.5 10.65 15.15 11.05 15.15" transform="matrix(1.0, 0.0, 0.0, 1.0, -10.1, -6.15)"/><path fill="#733c2f" fill-rule="evenodd" stroke="none" d="M14.15 13.0 L15.3 12.85 Q15.95 13.05 16.25 13.6 16.6 14.15 16.4 14.8 L15.15 19.3 16.2 22.95 15.95 23.85 15.0 24.45 Q14.35 24.65 13.85 24.45 13.35 24.25 13.2 23.75 L12.45 21.2 11.95 20.65 Q11.6 20.15 11.8 19.55 L13.4 13.95 Q13.6 13.3 14.15 13.0" transform="matrix(1.0, 0.0, 0.0, 1.0, -10.1, -6.15)"/><path fill="#733c2f" fill-rule="evenodd" stroke="none" d="M15.85 6.25 Q17.7 6.3 19.05 7.35 19.95 8.2 19.85 9.2 L19.8 9.6 18.05 16.1 17.2 16.75 15.55 17.0 13.95 16.65 Q13.15 16.35 13.1 15.95 L11.7 9.25 Q11.5 7.95 12.65 7.0 13.6 6.1 15.45 6.25 15.5 6.15 15.6 6.15 L15.85 6.25" transform="matrix(1.0, 0.0, 0.0, 1.0, -10.1, -6.15)"/></g><g id="sprite2" transform="matrix(1.0, 0.0, 0.0, 1.0, 0.0, 0.0)"><use width="5.55" height="16.05" transform="matrix(1.0, 0.0, 0.0, 1.0, 0.0, 0.0)" xlink:href="#shape2"/></g><g id="shape2"><path fill="#733c2f" fill-rule="evenodd" stroke="none" d="M0.0 2.75 Q0.0 1.6 0.8 0.8 1.65 0.0 2.8 0.0 3.95 0.0 4.75 0.8 5.55 1.6 5.55 2.75 L5.55 13.3 Q5.55 14.45 4.75 15.25 3.95 16.05 2.8 16.05 1.65 16.05 0.8 15.25 0.0 14.45 0.0 13.3 L0.0 2.75" transform="matrix(1.0, 0.0, 0.0, 1.0, 0.0, 0.0)"/></g><g id="shape3"><path fill="#733c2f" fill-rule="evenodd" stroke="none" d="M18.55 9.75 Q17.4 10.9 15.8 10.9 14.15 10.9 13.0 9.75 11.9 8.65 11.9 7.05 11.9 5.4 13.0 4.25 14.15 3.1 15.8 3.1 17.4 3.1 18.55 4.25 19.7 5.4 19.7 7.05 19.7 8.65 18.55 9.75" transform="matrix(1.0, 0.0, 0.0, 1.0, -1.55, -3.1)"/><path fill="#fcf9e0" fill-rule="evenodd" stroke="none" d="M14.05 7.5 Q14.8 7.7 14.8 8.1 14.8 8.65 14.05 8.65 13.3 8.65 13.3 7.95 13.3 7.25 14.05 7.5 M17.9 8.6 Q17.5 8.9 17.1 8.8 16.65 8.7 16.65 8.25 16.65 7.6 17.55 7.6 18.1 7.6 18.2 7.95 L17.9 8.6" transform="matrix(1.0, 0.0, 0.0, 1.0, -1.55, -3.1)"/><path fill="#733c2f" fill-rule="evenodd" stroke="none" d="M5.45 9.6 Q4.8 10.3 3.8 10.3 2.85 10.3 2.2 9.6 1.55 8.95 1.55 8.0 1.55 7.05 2.2 6.35 2.85 5.7 3.8 5.7 4.8 5.7 5.45 6.35 6.15 7.05 6.15 8.0 6.15 8.95 5.45 9.6" transform="matrix(1.0, 0.0, 0.0, 1.0, -1.55, -3.1)"/><path fill="#733c2f" fill-rule="evenodd" stroke="none" d="M28.65 9.8 Q28.0 10.45 27.1 10.45 26.15 10.45 25.5 9.8 24.85 9.15 24.85 8.25 24.85 7.3 25.5 6.65 26.15 6.0 27.1 6.0 28.0 6.0 28.65 6.65 29.3 7.3 29.3 8.25 29.3 9.15 28.65 9.8" transform="matrix(1.0, 0.0, 0.0, 1.0, -1.55, -3.1)"/></g><g id="shape4"><path fill="#fcf9e0" fill-rule="evenodd" stroke="none" d="M5.05 24.95 Q4.8 27.3 4.4 27.3 4.0 27.3 3.7 24.95 3.45 22.6 3.45 19.25 3.45 15.9 3.7 13.5 4.0 11.15 4.4 11.15 4.8 11.15 5.05 13.5 L5.35 19.25 5.05 24.95" transform="matrix(1.0, 0.0, 0.0, 1.0, -3.45, -11.15)"/></g></defs></svg>