<?xml version="1.0" encoding="UTF-8" standalone="no"?>
<svg xmlns:xlink="http://www.w3.org/1999/xlink" height="34" width="34" xmlns="http://www.w3.org/2000/svg">
  <g transform="matrix(1.0, 0.0, 0.0, 1.0, 1, 1)">
    <use height="36.65" transform="matrix(1.0, 0.0, 0.0, 1.0, -1.0, -1.0)" width="34.0" xlink:href="#sprite0"/>
  </g>
  <defs>
    <g id="sprite0" transform="matrix(1.0, 0.0, 0.0, 1.0, 1.0, 1.0)">
      <use height="34.0" transform="matrix(1.0, 0.0, 0.0, 0.9984, -1.0, -0.8484)" width="34.0" xlink:href="#sprite1"/>
      <clipPath id="clipPath0" transform="matrix(1.0, 0.0, 0.0, 0.9984, 0.0, 0.15)">
        <path d="M0.0 32.0 L0.0 0.0 32.0 0.0 32.0 32.0 0.0 32.0" fill="#ff0000" fill-rule="evenodd" stroke="none"/>
      </clipPath>
      <g clip-path="url(#clipPath0)">
        <use height="36.65" transform="matrix(1.0, 0.0, 0.0, 1.0, 3.7, -1.9)" width="25.65" xlink:href="#shape2"/>
      </g>
    </g>
    <g id="sprite1" transform="matrix(1.0, 0.0, 0.0, 1.0, 1.0, 1.0)">
      <use height="34.0" transform="matrix(1.0, 0.0, 0.0, 1.0, -1.0, -1.0)" width="34.0" xlink:href="#shape0"/>
    </g>
    <g id="shape0" transform="matrix(1.0, 0.0, 0.0, 1.0, 1.0, 1.0)">
      <path d="M0.0 32.0 L0.0 0.0 32.0 0.0 32.0 32.0 0.0 32.0" fill="#cccc00" fill-rule="evenodd" stroke="none"/>
      <path d="M0.0 32.0 L0.0 0.0 32.0 0.0 32.0 32.0 0.0 32.0 Z" fill="none" stroke="#733c2f" stroke-linecap="round" stroke-linejoin="round" stroke-width="2.0"/>
    </g>
    <g id="shape2" transform="matrix(1.0, 0.0, 0.0, 1.0, -3.7, 1.9)">
      <path d="M25.0 -1.9 L25.7 -1.6 26.4 -0.95 26.7 -0.35 26.55 0.3 Q24.5 3.45 21.5 5.35 L21.45 5.4 20.15 6.05 19.9 6.1 19.4 6.2 19.5 8.1 19.9 8.25 20.2 8.5 20.3 8.35 20.7 8.3 21.75 8.5 21.85 8.5 27.1 10.65 27.55 11.0 27.7 11.5 27.85 14.5 28.25 14.7 28.65 15.0 28.85 15.4 Q29.25 17.15 29.2 18.95 L29.2 19.0 29.2 20.05 29.35 24.7 29.25 25.2 28.85 25.55 27.4 26.45 27.2 29.0 27.05 29.5 26.65 29.8 Q24.6 30.75 22.45 31.95 L21.1 32.55 20.6 32.7 Q19.35 34.45 17.05 34.55 L16.9 34.6 16.6 34.7 Q14.9 34.9 13.9 33.8 L13.2 33.0 13.0 32.55 12.25 32.8 11.85 32.8 11.45 32.65 6.25 29.55 5.9 29.2 5.75 28.7 5.75 26.4 Q4.55 25.95 3.9 25.0 3.65 24.7 3.7 24.35 L4.05 19.4 4.0 18.8 Q3.75 17.15 4.25 15.7 L4.25 15.75 4.6 14.9 Q4.8 14.55 5.15 14.45 L5.25 14.45 Q5.25 12.75 5.65 11.15 L5.85 10.75 Q6.0 10.55 6.25 10.5 9.0 9.4 11.55 8.65 L11.5 8.65 12.8 8.35 12.65 5.95 Q10.4 5.2 8.65 3.45 L8.65 3.4 7.9 2.5 6.45 0.0 6.4 -0.1 Q6.0 -1.0 6.55 -1.4 6.8 -1.85 7.6 -1.85 L25.0 -1.9 M12.85 12.05 L12.95 12.05 12.95 12.0 12.85 12.05 M12.55 15.9 L12.6 15.8 12.5 15.85 12.55 15.9 M20.25 25.35 L20.2 25.35 20.25 25.4 20.25 25.35" fill="#733c2f" fill-rule="evenodd" stroke="none"/>
      <path d="M7.6 -0.9 L7.8 -0.55 9.4 1.75 Q11.8 4.65 16.45 4.65 19.0 4.65 21.1 3.4 L23.3 1.6 24.75 -0.4 25.0 -0.9 25.7 -0.25 24.4 1.55 23.8 2.3 23.15 2.95 21.8 4.05 Q20.25 5.2 18.35 5.35 L18.55 9.05 Q20.5 10.95 19.65 13.35 L20.4 14.35 19.55 21.4 Q20.4 23.25 19.35 25.0 L20.0 31.8 19.55 32.55 19.35 32.85 18.65 33.25 18.3 33.25 16.9 33.55 Q15.05 34.15 14.0 32.4 L13.95 31.8 13.95 31.4 13.95 30.95 13.95 29.85 13.95 29.35 Q14.05 23.05 13.4 16.85 13.25 15.1 14.4 13.65 13.2 11.55 14.15 9.35 L13.6 5.2 12.85 4.95 11.5 4.3 Q10.75 3.95 10.15 3.45 L8.75 1.95 8.15 1.1 7.2 -0.45 Q7.0 -0.9 7.6 -0.9 M16.95 32.9 Q18.05 32.7 18.85 32.1 L18.8 29.3 14.7 29.4 14.75 32.5 Q15.7 33.2 16.95 32.9 M18.5 25.55 L17.5 25.9 16.2 25.8 14.65 25.95 Q14.5 27.2 15.1 28.25 15.35 28.65 15.8 28.85 L17.45 29.0 Q18.3 28.95 18.8 28.25 L18.5 25.55 M19.15 17.45 L14.75 17.45 14.75 20.7 19.15 20.7 19.15 17.45 M14.7 21.6 L14.7 24.55 Q16.05 25.75 17.9 25.0 19.05 24.65 19.2 23.4 L19.2 23.2 18.9 21.75 18.8 21.5 14.7 21.6 M17.1 14.2 Q16.0 14.2 15.25 14.6 14.45 14.95 14.45 15.5 14.45 16.05 15.25 16.45 L17.1 16.8 19.0 16.45 Q19.75 16.05 19.75 15.5 19.75 14.95 19.0 14.6 L17.1 14.2 M17.85 5.45 L14.45 5.45 14.45 8.3 17.85 8.3 17.85 5.45 M19.1 11.2 Q18.75 9.9 17.55 9.75 L14.6 10.1 14.9 12.85 18.75 12.95 Q19.35 12.2 19.1 11.2" fill="#733c2f" fill-rule="evenodd" stroke="none"/>
      <path d="M25.0 -0.9 L24.75 -0.4 23.3 1.6 21.1 3.4 Q19.0 4.65 16.45 4.65 11.8 4.65 9.4 1.75 L7.8 -0.55 7.6 -0.9 25.0 -0.9 M19.1 11.2 Q19.35 12.2 18.75 12.95 L14.9 12.85 14.6 10.1 17.55 9.75 Q18.75 9.9 19.1 11.2 M17.85 5.45 L17.85 8.3 14.45 8.3 14.45 5.45 17.85 5.45 M17.1 14.2 L19.0 14.6 Q19.75 14.95 19.75 15.5 19.75 16.05 19.0 16.45 L17.1 16.8 15.25 16.45 Q14.45 16.05 14.45 15.5 14.45 14.95 15.25 14.6 16.0 14.2 17.1 14.2 M14.7 21.6 L18.8 21.5 18.9 21.75 19.2 23.2 19.2 23.4 Q19.05 24.65 17.9 25.0 16.05 25.75 14.7 24.55 L14.7 21.6 M19.15 17.45 L19.15 20.7 14.75 20.7 14.75 17.45 19.15 17.45 M18.5 25.55 L18.8 28.25 Q18.3 28.95 17.45 29.0 L15.8 28.85 Q15.35 28.65 15.1 28.25 14.5 27.2 14.65 25.95 L16.2 25.8 17.5 25.9 18.5 25.55 M16.95 32.9 Q15.7 33.2 14.75 32.5 L14.7 29.4 18.8 29.3 18.85 32.1 Q18.05 32.7 16.95 32.9" fill="#fcf9e0" fill-rule="evenodd" stroke="none"/>
      <path d="M16.15 30.0 L16.0 30.0 15.85 30.1 Q15.3 30.15 14.1 30.65 L11.95 31.35 10.8 30.4 Q9.5 29.25 7.8 28.8 7.3 28.65 7.35 28.15 L7.4 27.35 7.2 25.75 7.3 25.3 8.3 24.85 Q9.4 24.3 9.9 24.1 L12.05 23.55 13.35 23.2 13.4 23.1 13.45 23.05 13.45 23.0 13.4 22.95 13.35 22.85 Q13.45 22.6 13.65 22.75 L13.85 23.1 13.75 23.5 13.75 23.55 13.65 23.5 10.65 24.8 8.7 25.55 Q8.1 25.8 8.1 26.35 L8.15 27.55 Q8.1 28.2 8.55 28.2 L9.55 28.45 10.95 29.6 12.25 30.4 15.55 29.4 15.55 29.35 15.7 29.2 15.7 29.15 15.7 29.1 15.55 29.05 Q15.6 28.85 15.9 29.15 16.25 29.5 16.25 29.95 L16.25 30.0 16.15 30.0" fill="#fcf9e0" fill-rule="evenodd" stroke="none"/>
      <path d="M13.4 22.95 L13.45 23.0 13.45 23.05 13.4 23.1 13.35 23.2 12.05 23.55 9.9 24.1 Q9.4 24.3 8.3 24.85 L7.3 25.3 7.2 25.75 7.4 27.35 7.35 28.15 Q7.3 28.65 7.8 28.8 9.5 29.25 10.8 30.4 L11.95 31.35 14.1 30.65 Q15.3 30.15 15.85 30.1 L16.0 30.0 16.15 30.0 16.45 30.25 Q12.6 31.8 11.95 31.8 9.25 29.75 7.5 29.15 6.7 28.9 6.7 28.45 L6.8 27.55 6.8 26.55 6.7 25.85 Q6.75 24.9 7.05 24.8 7.95 24.55 9.05 23.95 10.9 22.85 13.2 22.85 L13.4 22.95 M15.7 29.1 L15.7 29.15 15.7 29.2 15.55 29.35 15.55 29.4 12.25 30.4 10.95 29.6 9.55 28.45 8.55 28.2 Q8.1 28.2 8.15 27.55 L8.1 26.35 Q8.1 25.8 8.7 25.55 L10.65 24.8 13.65 23.5 13.75 23.55 13.8 23.6 Q13.75 24.0 11.2 25.05 8.65 26.1 8.65 26.35 L8.65 27.8 Q10.0 27.95 11.1 28.95 12.0 29.9 12.3 29.9 L15.3 29.05 15.7 29.1" fill="#733c2f" fill-rule="evenodd" stroke="none"/>
      <path d="M13.25 17.35 L13.2 17.25 Q13.3 16.95 13.6 17.1 L13.85 17.6 13.75 18.05 13.75 18.15 13.6 18.05 9.8 19.7 7.25 20.65 Q6.55 21.0 6.5 21.7 L6.6 23.2 Q6.5 24.1 7.05 24.1 L8.35 24.4 10.15 25.85 11.85 26.85 16.0 25.6 16.0 25.5 16.2 25.35 16.2 25.25 16.2 25.2 16.0 25.1 Q16.05 24.9 16.45 25.25 16.95 25.75 16.9 26.3 L16.9 26.4 16.8 26.4 16.6 26.4 16.4 26.45 Q15.75 26.55 14.2 27.2 L11.5 28.05 9.95 26.85 Q8.3 25.45 6.15 24.8 5.55 24.65 5.55 24.0 L5.6 22.95 5.45 20.9 5.5 20.35 6.8 19.8 8.85 18.85 11.6 18.15 13.2 17.65 13.25 17.6 13.35 17.5 13.35 17.4 13.25 17.35" fill="#fcf9e0" fill-rule="evenodd" stroke="none"/>
      <path d="M16.8 26.4 Q17.2 26.4 17.2 26.7 12.3 28.7 11.45 28.7 8.0 26.05 5.8 25.25 4.75 24.95 4.7 24.4 L4.9 23.2 4.85 21.95 4.75 21.05 Q4.85 19.9 5.25 19.7 L7.75 18.6 Q10.1 17.25 13.0 17.25 L13.25 17.35 13.35 17.4 13.35 17.5 13.25 17.6 13.2 17.65 11.6 18.15 8.85 18.85 6.8 19.8 5.5 20.35 5.45 20.9 5.6 22.95 5.55 24.0 Q5.55 24.65 6.15 24.8 8.3 25.45 9.95 26.85 L11.5 28.05 14.2 27.2 Q15.75 26.55 16.4 26.45 L16.6 26.4 16.8 26.4 M13.75 18.15 L13.75 18.2 Q13.75 18.7 10.5 20.05 7.2 21.4 7.2 21.7 L7.25 23.55 Q9.0 23.75 10.35 25.05 11.5 26.25 11.9 26.25 L15.75 25.1 16.2 25.2 16.2 25.25 16.2 25.35 16.0 25.5 16.0 25.6 11.85 26.85 10.15 25.85 8.35 24.4 7.05 24.1 Q6.5 24.1 6.6 23.2 L6.5 21.7 Q6.55 21.0 7.25 20.65 L9.8 19.7 13.6 18.05 13.75 18.15" fill="#733c2f" fill-rule="evenodd" stroke="none"/>
      <path d="M17.0 22.1 L16.8 22.1 16.6 22.15 Q15.95 22.25 14.4 22.9 L11.7 23.75 10.15 22.55 Q8.5 21.15 6.35 20.5 5.75 20.35 5.75 19.7 L5.8 18.65 5.65 16.6 5.7 16.05 7.0 15.5 9.05 14.55 11.8 13.85 13.4 13.35 13.45 13.3 13.55 13.2 13.55 13.1 13.45 13.05 13.4 12.95 Q13.5 12.65 13.8 12.8 L14.05 13.3 13.95 13.75 13.95 13.85 13.8 13.75 10.0 15.4 7.45 16.35 Q6.75 16.7 6.7 17.4 L6.8 18.9 Q6.7 19.8 7.25 19.8 L8.55 20.1 10.35 21.55 12.05 22.55 16.2 21.3 16.2 21.2 16.4 21.05 16.4 20.95 16.4 20.9 16.2 20.8 Q16.25 20.6 16.65 20.95 17.15 21.45 17.1 22.0 L17.1 22.1 17.0 22.1" fill="#fcf9e0" fill-rule="evenodd" stroke="none"/>
      <path d="M13.45 13.05 L13.55 13.1 13.55 13.2 13.45 13.3 13.4 13.35 11.8 13.85 9.05 14.55 7.0 15.5 5.7 16.05 5.65 16.6 5.8 18.65 5.75 19.7 Q5.75 20.35 6.35 20.5 8.5 21.15 10.15 22.55 L11.7 23.75 14.4 22.9 Q15.95 22.25 16.6 22.15 L16.8 22.1 17.0 22.1 Q17.4 22.1 17.4 22.4 12.5 24.4 11.65 24.4 8.2 21.75 6.0 20.95 4.95 20.65 4.9 20.1 L5.1 18.9 5.05 17.65 4.95 16.75 Q5.05 15.6 5.45 15.4 L7.95 14.3 Q10.3 12.95 13.2 12.95 L13.45 13.05 M16.4 20.9 L16.4 20.95 16.4 21.05 16.2 21.2 16.2 21.3 12.05 22.55 10.35 21.55 8.55 20.1 7.25 19.8 Q6.7 19.8 6.8 18.9 L6.7 17.4 Q6.75 16.7 7.45 16.35 L10.0 15.4 13.8 13.75 13.95 13.85 13.95 13.9 Q13.95 14.4 10.7 15.75 7.4 17.1 7.4 17.4 L7.45 19.25 Q9.2 19.45 10.55 20.75 L12.1 21.95 15.95 20.8 16.4 20.9" fill="#733c2f" fill-rule="evenodd" stroke="none"/>
      <path d="M13.7 9.3 L13.65 9.25 Q13.7 8.95 13.9 9.1 L14.2 9.55 14.05 9.95 14.05 10.0 13.95 9.95 10.6 11.4 Q8.85 12.05 8.4 12.25 7.75 12.55 7.7 13.15 L7.85 14.5 Q7.75 15.25 8.25 15.25 L9.35 15.55 10.95 16.8 Q12.05 17.7 12.45 17.7 L16.05 16.6 16.05 16.5 16.25 16.35 16.25 16.3 16.25 16.25 16.1 16.15 Q16.15 15.95 16.5 16.3 16.9 16.7 16.9 17.2 L16.9 17.25 16.8 17.25 16.6 17.25 16.45 17.35 14.5 17.95 12.1 18.75 10.8 17.7 Q9.35 16.45 7.4 15.9 6.9 15.75 6.95 15.2 L7.0 14.25 Q6.75 13.0 6.8 12.45 L6.85 11.95 8.0 11.5 9.8 10.65 12.15 10.0 13.65 9.6 13.7 9.55 13.75 9.45 13.75 9.4 13.7 9.3" fill="#fcf9e0" fill-rule="evenodd" stroke="none"/>
      <path d="M16.8 17.25 Q17.15 17.25 17.1 17.55 12.85 19.3 12.1 19.3 9.05 17.0 7.1 16.3 6.2 16.0 6.15 15.55 L6.35 14.5 6.3 13.35 6.2 12.6 Q6.25 11.55 6.6 11.4 L8.85 10.45 Q10.9 9.25 13.45 9.25 L13.7 9.3 13.75 9.4 13.75 9.45 13.7 9.55 13.65 9.6 12.15 10.0 9.8 10.65 8.0 11.5 6.85 11.95 6.8 12.45 Q6.75 13.0 7.0 14.25 L6.95 15.2 Q6.9 15.75 7.4 15.9 9.35 16.45 10.8 17.7 L12.1 18.75 14.5 17.95 16.45 17.35 16.6 17.25 16.8 17.25 M14.05 10.0 L14.1 10.1 Q14.1 10.5 11.25 11.7 8.35 12.9 8.35 13.15 L8.35 14.75 Q9.9 14.95 11.1 16.1 L12.5 17.15 15.85 16.15 16.25 16.25 16.25 16.3 16.25 16.35 16.05 16.5 16.05 16.6 12.45 17.7 Q12.05 17.7 10.95 16.8 L9.35 15.55 8.25 15.25 Q7.75 15.25 7.85 14.5 L7.7 13.15 Q7.75 12.55 8.4 12.25 8.85 12.05 10.6 11.4 L13.95 9.95 14.05 10.0" fill="#733c2f" fill-rule="evenodd" stroke="none"/>
      <path d="M19.7 22.95 L19.75 22.85 19.45 22.75 19.25 23.1 19.35 23.5 19.35 23.55 19.45 23.5 22.45 24.8 24.4 25.55 Q25.0 25.8 25.0 26.35 L24.95 27.55 Q25.0 28.2 24.55 28.2 L23.55 28.45 22.15 29.6 Q21.2 30.4 20.85 30.4 L17.55 29.4 17.55 29.35 17.4 29.2 17.4 29.15 17.4 29.1 17.55 29.05 Q17.5 28.85 17.2 29.15 16.85 29.5 16.85 29.95 L16.85 30.0 16.95 30.0 17.1 30.0 17.25 30.1 Q17.8 30.15 19.0 30.65 L21.15 31.35 22.3 30.4 Q23.6 29.25 25.3 28.8 25.8 28.65 25.75 28.15 L25.7 27.35 25.9 25.75 25.8 25.3 24.8 24.85 23.2 24.1 21.05 23.55 19.75 23.2 19.7 23.1 19.65 23.05 19.65 23.0 19.7 22.95" fill="#fcf9e0" fill-rule="evenodd" stroke="none"/>
      <path d="M16.95 30.0 L16.65 30.25 Q20.5 31.8 21.15 31.8 23.85 29.75 25.6 29.15 26.4 28.9 26.4 28.45 L26.3 27.55 26.3 26.55 26.4 25.85 Q26.35 24.9 26.05 24.8 L24.05 23.95 Q22.2 22.85 19.9 22.85 L19.7 22.95 19.65 23.0 19.65 23.05 19.7 23.1 19.75 23.2 21.05 23.55 23.2 24.1 24.8 24.85 25.8 25.3 25.9 25.75 25.7 27.35 25.75 28.15 Q25.8 28.65 25.3 28.8 23.6 29.25 22.3 30.4 L21.15 31.35 19.0 30.65 Q17.8 30.15 17.25 30.1 L17.1 30.0 16.95 30.0 M19.35 23.55 L19.3 23.6 Q19.35 24.0 21.9 25.05 24.45 26.1 24.45 26.35 L24.45 27.8 Q23.1 27.95 22.0 28.95 L20.8 29.9 17.8 29.05 17.4 29.1 17.4 29.15 17.4 29.2 17.55 29.35 17.55 29.4 20.85 30.4 Q21.2 30.4 22.15 29.6 L23.55 28.45 24.55 28.2 Q25.0 28.2 24.95 27.55 L25.0 26.35 Q25.0 25.8 24.4 25.55 L22.45 24.8 19.45 23.5 19.35 23.55" fill="#733c2f" fill-rule="evenodd" stroke="none"/>
      <path d="M16.3 26.4 L16.5 26.4 16.7 26.45 18.9 27.2 21.6 28.05 23.15 26.85 Q24.8 25.45 26.95 24.8 27.55 24.65 27.55 24.0 L27.5 22.95 27.65 20.9 27.6 20.35 26.3 19.8 24.25 18.85 21.5 18.15 19.9 17.65 19.85 17.6 19.75 17.5 19.75 17.4 19.85 17.35 19.9 17.25 Q19.8 16.95 19.5 17.1 L19.25 17.6 19.35 18.05 19.35 18.15 19.5 18.05 23.3 19.7 25.85 20.65 Q26.55 21.0 26.6 21.7 L26.5 23.2 Q26.6 24.1 26.05 24.1 L24.75 24.4 22.95 25.85 Q21.7 26.85 21.25 26.85 L17.1 25.6 17.1 25.5 16.9 25.35 16.9 25.25 16.9 25.2 Q16.95 25.1 17.1 25.1 17.05 24.9 16.65 25.25 16.15 25.75 16.2 26.3 L16.2 26.4 16.3 26.4" fill="#fcf9e0" fill-rule="evenodd" stroke="none"/>
      <path d="M19.85 17.35 L19.75 17.4 19.75 17.5 19.85 17.6 19.9 17.65 21.5 18.15 24.25 18.85 26.3 19.8 27.6 20.35 27.65 20.9 27.5 22.95 27.55 24.0 Q27.55 24.65 26.95 24.8 24.8 25.45 23.15 26.85 L21.6 28.05 18.9 27.2 16.7 26.45 16.5 26.4 16.3 26.4 Q15.9 26.4 15.9 26.7 20.8 28.7 21.65 28.7 25.1 26.05 27.3 25.25 28.35 24.95 28.4 24.4 L28.2 23.2 Q28.15 22.4 28.25 21.95 L28.35 21.05 Q28.25 19.9 27.85 19.7 26.85 19.4 25.35 18.6 23.0 17.25 20.1 17.25 L19.85 17.35 M16.9 25.2 L16.9 25.25 16.9 25.35 17.1 25.5 17.1 25.6 21.25 26.85 Q21.7 26.85 22.95 25.85 L24.75 24.4 26.05 24.1 Q26.6 24.1 26.5 23.2 L26.6 21.7 Q26.55 21.0 25.85 20.65 L23.3 19.7 19.5 18.05 19.35 18.15 19.35 18.2 Q19.35 18.7 22.6 20.05 25.9 21.4 25.9 21.7 L25.85 23.55 Q24.1 23.75 22.75 25.05 L21.2 26.25 17.35 25.1 16.9 25.2" fill="#733c2f" fill-rule="evenodd" stroke="none"/>
      <path d="M19.65 13.05 L19.7 12.95 Q19.6 12.65 19.3 12.8 L19.05 13.3 19.15 13.75 19.15 13.85 19.3 13.75 23.1 15.4 25.65 16.35 Q26.35 16.7 26.4 17.4 L26.3 18.9 Q26.4 19.8 25.85 19.8 L24.55 20.1 22.75 21.55 Q21.5 22.55 21.05 22.55 L16.9 21.3 16.9 21.2 16.7 21.05 16.7 20.95 16.7 20.9 Q16.75 20.8 16.9 20.8 16.85 20.6 16.45 20.95 15.95 21.45 16.0 22.0 L16.0 22.1 16.1 22.1 16.3 22.1 16.5 22.15 18.7 22.9 21.4 23.75 22.95 22.55 Q24.6 21.15 26.75 20.5 27.35 20.35 27.35 19.7 L27.3 18.65 27.45 16.6 27.4 16.05 26.1 15.5 24.05 14.55 21.3 13.85 19.7 13.35 19.65 13.3 19.55 13.2 19.55 13.1 19.65 13.05" fill="#fcf9e0" fill-rule="evenodd" stroke="none"/>
      <path d="M16.1 22.1 Q15.7 22.1 15.7 22.4 20.6 24.4 21.45 24.4 24.9 21.75 27.1 20.95 28.15 20.65 28.2 20.1 L28.0 18.9 Q27.95 18.1 28.05 17.65 L28.15 16.75 Q28.05 15.6 27.65 15.4 L25.15 14.3 Q22.8 12.95 19.9 12.95 L19.65 13.05 19.55 13.1 19.55 13.2 19.65 13.3 19.7 13.35 21.3 13.85 24.05 14.55 26.1 15.5 27.4 16.05 27.45 16.6 27.3 18.65 27.35 19.7 Q27.35 20.35 26.75 20.5 24.6 21.15 22.95 22.55 L21.4 23.75 18.7 22.9 16.5 22.15 16.3 22.1 16.1 22.1 M19.15 13.85 L19.15 13.9 Q19.15 14.4 22.4 15.75 25.7 17.1 25.7 17.4 L25.65 19.25 Q23.9 19.45 22.55 20.75 21.4 21.95 21.0 21.95 L17.15 20.8 16.7 20.9 16.7 20.95 16.7 21.05 16.9 21.2 16.9 21.3 21.05 22.55 Q21.5 22.55 22.75 21.55 L24.55 20.1 25.85 19.8 Q26.4 19.8 26.3 18.9 L26.4 17.4 Q26.35 16.7 25.65 16.35 L23.1 15.4 19.3 13.75 19.15 13.85" fill="#733c2f" fill-rule="evenodd" stroke="none"/>
      <path d="M16.3 17.25 L16.5 17.25 16.65 17.35 Q17.25 17.4 18.6 17.95 L21.0 18.75 22.3 17.7 Q23.75 16.45 25.7 15.9 26.2 15.75 26.15 15.2 L26.1 14.25 26.3 12.45 26.25 11.95 25.1 11.5 23.3 10.65 20.95 10.0 19.45 9.6 19.4 9.55 19.35 9.45 19.35 9.4 19.4 9.3 19.45 9.25 Q19.4 8.95 19.2 9.1 L18.9 9.55 19.05 9.95 19.05 10.0 19.15 9.95 22.5 11.4 24.7 12.25 Q25.35 12.55 25.4 13.15 L25.25 14.5 Q25.35 15.25 24.85 15.25 L23.75 15.55 22.15 16.8 20.65 17.7 17.05 16.6 17.05 16.5 16.85 16.35 16.85 16.3 16.85 16.25 Q16.9 16.15 17.0 16.15 16.95 15.95 16.6 16.3 16.2 16.7 16.2 17.2 L16.2 17.25 16.3 17.25" fill="#fcf9e0" fill-rule="evenodd" stroke="none"/>
      <path d="M19.4 9.3 L19.35 9.4 19.35 9.45 19.4 9.55 19.45 9.6 20.95 10.0 23.3 10.65 25.1 11.5 26.25 11.95 26.3 12.45 26.1 14.25 26.15 15.2 Q26.2 15.75 25.7 15.9 23.75 16.45 22.3 17.7 L21.0 18.75 18.6 17.95 Q17.25 17.4 16.65 17.35 L16.5 17.25 16.3 17.25 Q15.95 17.25 16.0 17.55 20.25 19.3 21.0 19.3 24.05 17.0 26.0 16.3 L26.95 15.55 26.75 14.5 26.8 13.35 26.9 12.6 Q26.85 11.55 26.5 11.4 25.55 11.15 24.25 10.45 22.2 9.25 19.65 9.25 L19.4 9.3 M16.85 16.25 L16.85 16.3 16.85 16.35 17.05 16.5 17.05 16.6 20.65 17.7 22.15 16.8 23.75 15.55 24.85 15.25 Q25.35 15.25 25.25 14.5 L25.4 13.15 Q25.35 12.55 24.7 12.25 L22.5 11.4 19.15 9.95 19.05 10.0 19.0 10.1 Q19.0 10.5 21.85 11.7 24.75 12.9 24.75 13.15 L24.75 14.75 Q23.2 14.95 22.0 16.1 20.95 17.15 20.6 17.15 L17.25 16.15 16.85 16.25" fill="#733c2f" fill-rule="evenodd" stroke="none"/>
      <path d="M15.8 18.45 L16.5 17.05 18.15 19.05 18.25 19.35 Q18.75 23.15 17.9 26.8 L17.3 28.45 16.75 29.5 Q15.05 26.35 15.3 22.8 L15.6 19.35 15.8 18.45" fill="#fcf9e0" fill-rule="evenodd" stroke="none"/>
      <path d="M15.8 18.45 L15.6 19.35 15.3 22.8 Q15.05 26.35 16.75 29.5 L17.3 28.45 17.9 26.8 Q18.75 23.15 18.25 19.35 L18.15 19.05 16.5 17.05 15.8 18.45 M15.45 16.5 Q15.85 15.3 16.7 15.75 17.4 16.15 17.8 17.1 19.05 18.75 19.1 20.15 L19.2 23.05 Q19.2 26.1 18.75 27.2 L16.85 31.2 Q16.35 31.2 15.15 27.95 L14.65 26.1 14.65 24.8 14.45 21.7 14.25 19.5 15.45 16.5" fill="#733c2f" fill-rule="evenodd" stroke="none"/>
      <path d="M17.0 16.35 Q16.4 16.35 16.4 16.85 16.35 17.8 16.9 17.8 17.6 17.8 17.6 17.0 17.6 16.35 17.0 16.35 M15.7 17.7 L15.6 16.25 16.05 15.95 16.5 15.75 17.25 15.65 17.55 15.85 18.05 16.4 18.3 17.2 18.35 17.6 18.25 18.1 17.05 19.05 16.3 18.4 15.7 17.7" fill="#fcf9e0" fill-rule="evenodd" stroke="none"/>
      <path d="M15.7 17.7 L16.3 18.4 17.05 19.05 18.25 18.1 18.35 17.6 18.3 17.2 18.05 16.4 17.55 15.85 17.25 15.65 16.5 15.75 16.05 15.95 15.6 16.25 15.7 17.7 M17.0 16.35 Q17.6 16.35 17.6 17.0 17.6 17.8 16.9 17.8 16.35 17.8 16.4 16.85 16.4 16.35 17.0 16.35 M14.95 16.0 Q16.7 14.35 17.25 14.85 L18.6 15.6 18.9 16.1 18.95 16.55 18.9 18.2 Q18.85 18.65 17.0 19.65 L15.85 18.8 Q15.15 18.45 15.15 17.95 L15.1 16.95 14.95 16.0" fill="#733c2f" fill-rule="evenodd" stroke="none"/>
      <path d="M16.4 21.75 Q16.35 22.7 16.9 22.7 17.6 22.7 17.6 21.9 17.6 21.25 17.0 21.25 16.4 21.25 16.4 21.75 M16.3 23.3 L15.7 22.6 15.6 21.15 16.05 20.85 16.5 20.65 17.25 20.55 17.55 20.75 18.05 21.3 18.3 22.1 18.35 22.5 18.25 23.0 17.05 23.95 16.3 23.3" fill="#fcf9e0" fill-rule="evenodd" stroke="none"/>
      <path d="M14.95 20.9 Q16.7 19.25 17.25 19.75 L18.6 20.5 18.9 21.0 18.95 21.45 18.9 23.1 Q18.85 23.55 17.0 24.55 L15.85 23.7 Q15.15 23.35 15.15 22.85 L15.1 21.85 14.95 20.9 M16.3 23.3 L17.05 23.95 18.25 23.0 18.35 22.5 18.3 22.1 18.05 21.3 17.55 20.75 17.25 20.55 16.5 20.65 16.05 20.85 15.6 21.15 15.7 22.6 16.3 23.3 M16.4 21.75 Q16.4 21.25 17.0 21.25 17.6 21.25 17.6 21.9 17.6 22.7 16.9 22.7 16.35 22.7 16.4 21.75" fill="#733c2f" fill-rule="evenodd" stroke="none"/>
      <path d="M16.15 25.9 Q16.1 26.85 16.65 26.85 17.35 26.85 17.35 26.05 17.35 25.4 16.75 25.4 16.15 25.4 16.15 25.9 M15.8 25.0 L16.25 24.8 17.0 24.7 17.3 24.9 17.8 25.45 18.05 26.25 18.1 26.65 18.0 27.15 16.8 28.1 16.05 27.45 15.45 26.75 15.35 25.3 15.8 25.0" fill="#fcf9e0" fill-rule="evenodd" stroke="none"/>
      <path d="M16.15 25.9 Q16.15 25.4 16.75 25.4 17.35 25.4 17.35 26.05 17.35 26.85 16.65 26.85 16.1 26.85 16.15 25.9 M14.85 26.0 L14.7 25.05 Q16.45 23.4 17.0 23.9 L18.35 24.65 18.65 25.15 18.7 25.6 18.65 27.25 Q18.6 27.7 16.75 28.7 L15.6 27.85 Q14.9 27.5 14.9 27.0 L14.85 26.0 M15.8 25.0 L15.35 25.3 15.45 26.75 16.05 27.45 16.8 28.1 18.0 27.15 18.1 26.65 18.05 26.25 17.8 25.45 17.3 24.9 17.0 24.7 16.25 24.8 15.8 25.0" fill="#733c2f" fill-rule="evenodd" stroke="none"/>
      <path d="M16.75 28.8 Q16.15 28.8 16.15 29.3 16.1 30.25 16.65 30.25 17.35 30.25 17.35 29.45 17.35 28.8 16.75 28.8 M15.8 28.4 L16.25 28.2 17.0 28.1 17.3 28.3 17.8 28.85 18.05 29.65 18.1 30.05 18.0 30.55 16.8 31.5 16.05 30.85 15.45 30.15 15.35 28.7 15.8 28.4" fill="#fcf9e0" fill-rule="evenodd" stroke="none"/>
      <path d="M15.8 28.4 L15.35 28.7 15.45 30.15 16.05 30.85 16.8 31.5 18.0 30.55 18.1 30.05 18.05 29.65 17.8 28.85 17.3 28.3 17.0 28.1 16.25 28.2 15.8 28.4 M16.75 28.8 Q17.35 28.8 17.35 29.45 17.35 30.25 16.65 30.25 16.1 30.25 16.15 29.3 16.15 28.8 16.75 28.8 M14.7 28.45 Q16.45 26.8 17.0 27.3 L18.35 28.05 18.65 28.55 18.7 29.0 18.65 30.65 Q18.6 31.1 16.75 32.1 L15.6 31.25 Q14.9 30.9 14.9 30.4 L14.85 29.4 14.7 28.45" fill="#733c2f" fill-rule="evenodd" stroke="none"/>
    </g>
  </defs>
</svg>
