<?xml version="1.0" encoding="UTF-8" standalone="no"?>
<svg xmlns:xlink="http://www.w3.org/1999/xlink" height="34" width="34" xmlns="http://www.w3.org/2000/svg">
  <g transform="matrix(1.0, 0.0, 0.0, 1.0, 1, 1)">
    <use height="43.5" transform="matrix(1.0, 0.0, 0.0, 1.0, -1.0, -9.55)" width="70.85" xlink:href="#sprite0"/>
  </g>
  <defs>
    <g id="sprite0" transform="matrix(1.0, 0.0, 0.0, 1.0, 1.0, 9.4)">
      <use height="34.0" transform="matrix(1.0, 0.0, 0.0, 0.9984, -1.0, -0.8484)" width="34.0" xlink:href="#sprite1"/>
      <clipPath id="clipPath0" transform="matrix(1.0, 0.0, 0.0, 0.9984, 0.0, 0.15)">
        <path d="M0.0 32.0 L0.0 0.0 32.0 0.0 32.0 32.0 0.0 32.0" fill="#ff0000" fill-rule="evenodd" stroke="none"/>
      </clipPath>
      <g clip-path="url(#clipPath0)">
        <use height="43.5" transform="matrix(1.0, 0.0, 0.0, 1.0, 2.55, -9.4)" width="67.3" xlink:href="#shape2"/>
      </g>
    </g>
    <g id="sprite1" transform="matrix(1.0, 0.0, 0.0, 1.0, 1.0, 1.0)">
      <use height="34.0" transform="matrix(1.0, 0.0, 0.0, 1.0, -1.0, -1.0)" width="34.0" xlink:href="#shape0"/>
    </g>
    <g id="shape0" transform="matrix(1.0, 0.0, 0.0, 1.0, 1.0, 1.0)">
      <path d="M0.0 32.0 L0.0 0.0 32.0 0.0 32.0 32.0 0.0 32.0" fill="#cccc00" fill-rule="evenodd" stroke="none"/>
      <path d="M0.0 32.0 L0.0 0.0 32.0 0.0 32.0 32.0 0.0 32.0 Z" fill="none" stroke="#733c2f" stroke-linecap="round" stroke-linejoin="round" stroke-width="2.0"/>
    </g>
    <g id="shape2" transform="matrix(1.0, 0.0, 0.0, 1.0, -2.55, 9.4)">
      <path d="M28.75 30.0 L3.5 30.0 16.15 -5.55 28.75 30.0" fill="#fcf9e0" fill-rule="evenodd" stroke="none"/>
      <path d="M16.1 34.1 L7.0 33.35 Q2.3 32.35 2.55 30.5 2.3 28.7 7.0 27.75 L16.1 26.9 Q21.45 26.9 25.2 27.75 29.9 28.7 29.65 30.5 29.9 32.35 25.2 33.35 L16.1 34.1" fill="#cccc00" fill-rule="evenodd" stroke="none"/>
      <path d="M7.2 32.35 Q3.55 31.6 3.55 30.5 3.55 29.45 7.2 28.7 L16.1 27.9 25.0 28.7 Q28.65 29.45 28.65 30.5 28.65 31.6 25.0 32.35 L16.1 33.1 7.2 32.35" fill="#fcf9e0" fill-rule="evenodd" stroke="none"/>
      <path d="M49.15 -4.1 L48.4 -5.0 46.95 -7.5 46.9 -7.6 Q46.5 -8.5 47.05 -8.9 47.3 -9.35 48.1 -9.35 L65.5 -9.4 Q65.9 -9.4 66.2 -9.1 L66.9 -8.45 67.2 -7.85 67.05 -7.2 Q65.0 -4.05 62.0 -2.15 L61.95 -2.1 60.65 -1.45 60.4 -1.4 59.9 -1.3 60.0 0.6 60.4 0.75 60.7 1.0 60.8 0.85 61.2 0.8 62.25 1.0 62.35 1.0 Q65.05 1.95 67.6 3.15 L68.05 3.5 68.2 4.0 68.35 7.0 68.75 7.2 69.15 7.5 69.35 7.9 Q69.75 9.65 69.7 11.45 L69.7 11.5 69.7 12.55 69.85 17.2 69.75 17.7 69.35 18.05 67.9 18.95 67.7 21.5 67.55 22.0 67.15 22.3 62.95 24.45 61.6 25.05 61.1 25.2 Q59.85 26.95 57.55 27.05 L57.4 27.1 57.1 27.2 Q55.4 27.4 54.4 26.3 L53.7 25.5 53.5 25.05 52.75 25.3 52.35 25.3 51.95 25.15 46.75 22.05 46.4 21.7 46.25 21.2 46.25 18.9 Q45.05 18.45 44.4 17.5 44.15 17.2 44.2 16.85 L44.55 11.9 44.5 11.3 Q44.25 9.65 44.75 8.2 L44.75 8.25 45.1 7.4 Q45.3 7.05 45.65 6.95 L45.75 6.95 Q45.75 5.25 46.15 3.65 L46.35 3.25 Q46.5 3.05 46.75 3.0 L52.05 1.15 52.0 1.15 53.3 0.85 53.15 -1.55 Q50.9 -2.3 49.15 -4.05 L49.15 -4.1 M60.75 17.85 L60.7 17.85 60.75 17.9 60.75 17.85 M53.35 4.55 L53.45 4.55 53.45 4.5 53.35 4.55 M53.05 8.4 L53.1 8.3 53.0 8.35 53.05 8.4 M21.95 22.55 L21.85 22.4 20.1 21.75 20.05 21.7 19.6 21.65 19.25 21.25 Q18.4 19.9 18.4 19.1 18.4 17.0 21.05 18.25 23.75 19.5 23.75 21.8 23.75 23.1 22.4 23.1 L22.35 23.1 22.3 23.15 21.95 22.55 M13.15 22.85 L12.75 20.9 12.75 20.45 12.75 20.3 12.75 20.2 Q12.95 17.75 14.65 18.75 15.85 19.5 16.3 20.2 L16.35 20.3 16.45 20.45 16.6 21.15 16.45 23.15 Q16.2 23.95 15.75 24.35 16.5 25.1 16.85 26.45 L17.05 28.1 16.8 29.1 16.95 29.5 Q17.15 31.2 14.7 31.2 14.05 31.2 13.8 30.85 L13.7 30.4 Q13.6 29.6 15.0 29.15 L15.15 29.25 Q14.65 28.75 14.25 27.45 L13.85 25.35 13.85 24.2 13.15 22.85 M15.45 30.8 L16.35 30.5 16.75 29.95 16.55 29.75 15.45 30.25 Q15.4 29.95 14.85 29.95 L14.25 30.05 Q14.15 30.1 14.2 30.3 L14.25 30.55 14.65 30.8 14.95 30.8 15.45 30.8" fill="#733c2f" fill-rule="evenodd" stroke="none"/>
      <path d="M15.45 30.8 L14.95 30.8 14.65 30.8 14.25 30.55 14.2 30.3 Q14.15 30.1 14.25 30.05 L14.85 29.95 Q15.4 29.95 15.45 30.25 L16.55 29.75 16.75 29.95 16.35 30.5 15.45 30.8" fill="#fcf9e0" fill-rule="evenodd" stroke="none"/>
      <path d="M18.1 9.2 Q17.4 9.85 16.3 9.85 15.25 9.85 14.5 9.2 13.7 8.55 13.7 7.6 13.7 6.7 14.5 6.05 15.25 5.4 16.3 5.4 17.4 5.4 18.1 6.05 18.9 6.7 18.9 7.6 18.9 8.55 18.1 9.2" fill="#733c2f" fill-rule="evenodd" stroke="none"/>
      <path d="M21.75 10.5 Q22.4 10.8 22.4 11.45 L20.95 14.8 20.15 16.7 Q19.15 18.1 16.95 18.1 L16.7 18.1 16.7 18.15 16.4 18.15 Q14.25 18.15 13.25 16.75 L12.45 14.85 11.0 11.5 Q11.0 10.85 11.65 10.55 L14.4 9.5 16.7 9.2 16.7 9.15 19.0 9.45 21.75 10.5" fill="#733c2f" fill-rule="evenodd" stroke="none"/>
      <path d="M24.0 9.2 L24.05 9.9 Q24.05 10.75 23.7 11.45 22.95 12.7 21.25 12.7 20.4 12.7 19.9 11.75 L19.55 10.75 Q19.55 8.95 20.6 8.25 L20.6 8.1 20.65 6.85 Q19.3 6.45 18.35 5.0 17.4 3.6 17.4 2.85 17.4 0.65 20.35 2.2 21.85 3.0 22.6 3.95 24.55 4.45 24.55 7.3 L24.1 9.0 24.0 9.2" fill="#733c2f" fill-rule="evenodd" stroke="none"/>
      <path d="M8.8 9.2 L8.75 9.9 Q8.75 10.75 9.1 11.45 9.85 12.7 11.55 12.7 12.4 12.7 12.9 11.75 L13.25 10.75 Q13.25 8.95 12.2 8.25 L12.2 8.1 12.15 6.85 Q13.5 6.45 14.45 5.0 15.4 3.6 15.4 2.85 15.4 0.65 12.45 2.2 10.95 3.0 10.2 3.95 8.25 4.45 8.25 7.3 8.25 8.05 8.7 9.0 L8.8 9.2" fill="#733c2f" fill-rule="evenodd" stroke="none"/>
      <path d="M16.1 17.5 L15.55 17.8 16.65 18.05 17.5 17.4 16.1 17.5 M19.75 16.75 Q20.35 16.8 20.65 17.85 20.65 18.45 19.95 19.2 19.05 20.25 17.4 20.25 14.25 20.25 13.25 19.35 12.75 18.9 12.75 18.05 12.75 17.15 13.8 16.45 14.85 15.75 14.85 16.65 L14.75 16.85 16.85 16.4 Q19.0 16.15 19.75 16.75" fill="#733c2f" fill-rule="evenodd" stroke="none"/>
      <path d="M23.35 22.35 L23.4 23.05 Q19.55 24.9 18.45 24.5 L18.3 24.45 17.75 25.25 Q16.8 26.4 16.15 26.15 15.5 25.95 15.8 25.3 L16.55 23.6 16.5 23.8 16.9 22.95 Q17.25 22.2 18.15 22.5 L18.4 22.6 Q19.35 21.1 21.6 20.95 L21.55 20.85 21.9 21.0 21.95 21.05 23.35 22.2 23.35 22.35 M17.75 22.95 L17.7 22.8 17.35 23.05 16.6 24.5 16.45 25.0 16.3 25.15 Q16.2 25.35 16.35 25.55 L16.5 25.9 16.85 25.65 16.8 25.7 Q17.3 25.8 17.55 25.2 17.7 24.95 17.25 24.85 L16.8 24.95 16.75 24.95 17.55 23.5 17.6 23.05 17.75 22.95" fill="#733c2f" fill-rule="evenodd" stroke="none"/>
      <path d="M17.75 22.95 L17.6 23.05 17.55 23.5 16.75 24.95 16.8 24.95 17.25 24.85 Q17.7 24.95 17.55 25.2 17.3 25.8 16.8 25.7 L16.85 25.65 16.5 25.9 16.35 25.55 Q16.2 25.35 16.3 25.15 L16.45 25.0 16.6 24.5 17.35 23.05 17.7 22.8 17.75 22.95" fill="#fcf9e0" fill-rule="evenodd" stroke="none"/>
      <path d="M48.1 -8.4 L48.3 -8.05 49.9 -5.75 Q52.3 -2.85 56.95 -2.85 59.5 -2.85 61.6 -4.1 L63.8 -5.9 65.25 -7.9 65.5 -8.4 66.2 -7.75 64.9 -5.95 64.3 -5.2 63.65 -4.55 62.3 -3.45 Q60.75 -2.3 58.85 -2.15 L59.05 1.55 Q61.0 3.45 60.15 5.85 L60.9 6.85 60.05 13.9 Q60.9 15.75 59.85 17.5 L60.5 24.3 60.05 25.05 59.85 25.35 59.15 25.75 58.8 25.75 57.4 26.05 Q55.55 26.65 54.5 24.9 L54.45 24.3 54.45 23.9 54.45 23.45 54.45 22.35 54.45 21.85 Q54.55 15.55 53.9 9.35 53.75 7.6 54.9 6.15 53.7 4.05 54.65 1.85 L54.1 -2.3 53.35 -2.55 52.0 -3.2 Q51.25 -3.55 50.65 -4.05 L49.25 -5.55 48.65 -6.4 47.7 -7.95 Q47.5 -8.4 48.1 -8.4 M59.35 24.6 L59.3 21.8 55.2 21.9 55.25 25.0 Q56.2 25.7 57.45 25.4 58.55 25.2 59.35 24.6 M58.0 18.4 L56.7 18.3 55.15 18.45 Q55.0 19.7 55.6 20.75 55.85 21.15 56.3 21.35 L57.95 21.5 Q58.8 21.45 59.3 20.75 L59.0 18.05 58.0 18.4 M59.4 14.25 L59.3 14.0 55.2 14.1 55.2 17.05 Q56.55 18.25 58.4 17.5 59.55 17.15 59.7 15.9 L59.7 15.7 59.4 14.25 M59.65 9.95 L55.25 9.95 55.25 13.2 59.65 13.2 59.65 9.95 M57.6 9.3 L59.5 8.95 Q60.25 8.55 60.25 8.0 60.25 7.45 59.5 7.1 L57.6 6.7 Q56.5 6.7 55.75 7.1 54.95 7.45 54.95 8.0 54.95 8.55 55.75 8.95 L57.6 9.3 M59.6 3.7 Q59.25 2.4 58.05 2.25 L55.1 2.6 55.4 5.35 59.25 5.45 Q59.85 4.7 59.6 3.7 M58.35 -2.05 L54.95 -2.05 54.95 0.8 58.35 0.8 58.35 -2.05" fill="#733c2f" fill-rule="evenodd" stroke="none"/>
      <path d="M65.5 -8.4 L65.25 -7.9 63.8 -5.9 61.6 -4.1 Q59.5 -2.85 56.95 -2.85 52.3 -2.85 49.9 -5.75 L48.3 -8.05 48.1 -8.4 65.5 -8.4 M58.35 -2.05 L58.35 0.8 54.95 0.8 54.95 -2.05 58.35 -2.05 M59.6 3.7 Q59.85 4.7 59.25 5.45 L55.4 5.35 55.1 2.6 58.05 2.25 Q59.25 2.4 59.6 3.7 M57.6 9.3 L55.75 8.95 Q54.95 8.55 54.95 8.0 54.95 7.45 55.75 7.1 56.5 6.7 57.6 6.7 L59.5 7.1 Q60.25 7.45 60.25 8.0 60.25 8.55 59.5 8.95 L57.6 9.3 M59.65 9.95 L59.65 13.2 55.25 13.2 55.25 9.95 59.65 9.95 M59.4 14.25 L59.7 15.7 59.7 15.9 Q59.55 17.15 58.4 17.5 56.55 18.25 55.2 17.05 L55.2 14.1 59.3 14.0 59.4 14.25 M58.0 18.4 L59.0 18.05 59.3 20.75 Q58.8 21.45 57.95 21.5 L56.3 21.35 Q55.85 21.15 55.6 20.75 55.0 19.7 55.15 18.45 L56.7 18.3 58.0 18.4 M59.35 24.6 Q58.55 25.2 57.45 25.4 56.2 25.7 55.25 25.0 L55.2 21.9 59.3 21.8 59.35 24.6" fill="#fcf9e0" fill-rule="evenodd" stroke="none"/>
      <path d="M56.65 22.5 L56.5 22.5 56.35 22.6 54.6 23.15 52.45 23.85 51.3 22.9 Q50.0 21.75 48.3 21.3 47.8 21.15 47.85 20.65 L47.9 19.85 47.7 18.25 47.8 17.8 48.8 17.35 50.4 16.6 52.55 16.05 53.85 15.7 53.9 15.6 53.95 15.55 53.95 15.5 53.9 15.45 53.85 15.35 Q53.95 15.1 54.15 15.25 L54.35 15.6 54.25 16.0 54.25 16.05 54.15 16.0 51.15 17.3 49.2 18.05 Q48.6 18.3 48.6 18.85 L48.65 20.05 Q48.6 20.7 49.05 20.7 L50.05 20.95 51.45 22.1 Q52.4 22.9 52.75 22.9 L56.05 21.9 56.05 21.85 56.2 21.7 56.2 21.65 56.2 21.6 56.05 21.55 Q56.1 21.35 56.4 21.65 56.75 22.0 56.75 22.45 L56.75 22.5 56.65 22.5" fill="#fcf9e0" fill-rule="evenodd" stroke="none"/>
      <path d="M53.9 15.45 L53.95 15.5 53.95 15.55 53.9 15.6 53.85 15.7 52.55 16.05 50.4 16.6 48.8 17.35 47.8 17.8 47.7 18.25 47.9 19.85 47.85 20.65 Q47.8 21.15 48.3 21.3 50.0 21.75 51.3 22.9 L52.45 23.85 54.6 23.15 56.35 22.6 56.5 22.5 56.65 22.5 56.95 22.75 Q53.1 24.3 52.45 24.3 49.75 22.25 48.0 21.65 47.2 21.4 47.2 20.95 L47.3 20.05 47.3 19.05 47.2 18.35 Q47.25 17.4 47.55 17.3 48.45 17.05 49.55 16.45 51.4 15.35 53.7 15.35 L53.9 15.45 M56.2 21.6 L56.2 21.65 56.2 21.7 56.05 21.85 56.05 21.9 52.75 22.9 Q52.4 22.9 51.45 22.1 L50.05 20.95 49.05 20.7 Q48.6 20.7 48.65 20.05 L48.6 18.85 Q48.6 18.3 49.2 18.05 L51.15 17.3 54.15 16.0 54.25 16.05 54.3 16.1 Q54.25 16.5 51.7 17.55 49.15 18.6 49.15 18.85 L49.15 20.3 Q50.5 20.45 51.6 21.45 L52.8 22.4 55.8 21.55 56.2 21.6" fill="#733c2f" fill-rule="evenodd" stroke="none"/>
      <path d="M53.75 9.85 L53.7 9.75 Q53.8 9.45 54.1 9.6 L54.35 10.1 54.25 10.55 54.25 10.65 54.1 10.55 50.3 12.2 47.75 13.15 Q47.05 13.5 47.0 14.2 L47.1 15.7 Q47.0 16.6 47.55 16.6 L48.85 16.9 50.65 18.35 52.35 19.35 56.5 18.1 56.5 18.0 56.7 17.85 56.7 17.75 56.7 17.7 56.5 17.6 Q56.55 17.4 56.95 17.75 57.45 18.25 57.4 18.8 L57.4 18.9 57.3 18.9 57.1 18.9 56.9 18.95 Q56.25 19.05 54.7 19.7 L52.0 20.55 50.45 19.35 Q48.8 17.95 46.65 17.3 46.05 17.15 46.05 16.5 L46.1 15.45 45.95 13.4 46.0 12.85 47.3 12.3 49.35 11.35 52.1 10.65 53.7 10.15 53.75 10.1 53.85 10.0 53.85 9.9 53.75 9.85" fill="#fcf9e0" fill-rule="evenodd" stroke="none"/>
      <path d="M57.3 18.9 L57.7 19.2 Q52.8 21.2 51.95 21.2 48.5 18.55 46.3 17.75 45.25 17.45 45.2 16.9 L45.4 15.7 45.35 14.45 45.25 13.55 Q45.35 12.4 45.75 12.2 L48.25 11.1 Q50.6 9.75 53.5 9.75 L53.75 9.85 53.85 9.9 53.85 10.0 53.75 10.1 53.7 10.15 52.1 10.65 49.35 11.35 47.3 12.3 46.0 12.85 45.95 13.4 46.1 15.45 46.05 16.5 Q46.05 17.15 46.65 17.3 48.8 17.95 50.45 19.35 L52.0 20.55 54.7 19.7 Q56.25 19.05 56.9 18.95 L57.1 18.9 57.3 18.9 M54.25 10.65 L54.25 10.7 Q54.25 11.2 51.0 12.55 47.7 13.9 47.7 14.2 L47.75 16.05 Q49.5 16.25 50.85 17.55 L52.4 18.75 56.25 17.6 56.7 17.7 56.7 17.75 56.7 17.85 56.5 18.0 56.5 18.1 52.35 19.35 50.65 18.35 48.85 16.9 47.55 16.6 Q47.0 16.6 47.1 15.7 L47.0 14.2 Q47.05 13.5 47.75 13.15 L50.3 12.2 54.1 10.55 54.25 10.65" fill="#733c2f" fill-rule="evenodd" stroke="none"/>
      <path d="M57.5 14.6 L57.3 14.6 57.1 14.65 Q56.45 14.75 54.9 15.4 L52.2 16.25 50.65 15.05 Q49.0 13.65 46.85 13.0 46.25 12.85 46.25 12.2 L46.3 11.15 46.15 9.1 46.2 8.55 47.5 8.0 49.55 7.05 52.3 6.35 53.9 5.85 53.95 5.8 54.05 5.7 54.05 5.6 53.95 5.55 53.9 5.45 Q54.0 5.15 54.3 5.3 L54.55 5.8 54.45 6.25 54.45 6.35 54.3 6.25 50.5 7.9 47.95 8.85 Q47.25 9.2 47.2 9.9 L47.3 11.4 Q47.2 12.3 47.75 12.3 L49.05 12.6 50.85 14.05 52.55 15.05 56.7 13.8 56.7 13.7 56.9 13.55 56.9 13.45 56.9 13.4 56.7 13.3 Q56.75 13.1 57.15 13.45 57.65 13.95 57.6 14.5 L57.6 14.6 57.5 14.6" fill="#fcf9e0" fill-rule="evenodd" stroke="none"/>
      <path d="M53.95 5.55 L54.05 5.6 54.05 5.7 53.95 5.8 53.9 5.85 52.3 6.35 49.55 7.05 47.5 8.0 46.2 8.55 46.15 9.1 46.3 11.15 46.25 12.2 Q46.25 12.85 46.85 13.0 49.0 13.65 50.65 15.05 L52.2 16.25 54.9 15.4 Q56.45 14.75 57.1 14.65 L57.3 14.6 57.5 14.6 Q57.9 14.6 57.9 14.9 53.0 16.9 52.15 16.9 48.7 14.25 46.5 13.45 45.45 13.15 45.4 12.6 L45.6 11.4 45.55 10.15 45.45 9.25 Q45.55 8.1 45.95 7.9 L48.45 6.8 Q50.8 5.45 53.7 5.45 L53.95 5.55 M56.9 13.4 L56.9 13.45 56.9 13.55 56.7 13.7 56.7 13.8 52.55 15.05 50.85 14.05 49.05 12.6 47.75 12.3 Q47.2 12.3 47.3 11.4 L47.2 9.9 Q47.25 9.2 47.95 8.85 L50.5 7.9 54.3 6.25 54.45 6.35 54.45 6.4 Q54.45 6.9 51.2 8.25 47.9 9.6 47.9 9.9 L47.95 11.75 Q49.7 11.95 51.05 13.25 52.2 14.45 52.6 14.45 L56.45 13.3 56.9 13.4" fill="#733c2f" fill-rule="evenodd" stroke="none"/>
      <path d="M54.2 1.8 L54.15 1.75 Q54.2 1.45 54.4 1.6 L54.7 2.05 54.55 2.45 54.55 2.5 54.45 2.45 51.1 3.9 48.9 4.75 Q48.25 5.05 48.2 5.65 L48.35 7.0 Q48.25 7.75 48.75 7.75 L49.85 8.05 51.45 9.3 Q52.55 10.2 52.95 10.2 L56.55 9.1 56.55 9.0 56.75 8.85 56.75 8.8 56.75 8.75 56.6 8.65 Q56.65 8.45 57.0 8.8 57.4 9.2 57.4 9.7 L57.4 9.75 57.3 9.75 57.1 9.75 56.95 9.85 55.0 10.45 52.6 11.25 51.3 10.2 Q49.85 8.95 47.9 8.4 47.4 8.25 47.45 7.7 L47.5 6.75 Q47.25 5.5 47.3 4.95 L47.35 4.45 48.5 4.0 Q49.7 3.35 50.3 3.15 L52.65 2.5 54.15 2.1 54.2 2.05 54.25 1.95 54.25 1.9 54.2 1.8" fill="#fcf9e0" fill-rule="evenodd" stroke="none"/>
      <path d="M57.3 9.75 Q57.65 9.75 57.6 10.05 53.35 11.8 52.6 11.8 49.55 9.5 47.6 8.8 46.7 8.5 46.65 8.05 L46.85 7.0 46.8 5.85 46.7 5.1 Q46.75 4.05 47.1 3.9 L49.35 2.95 Q51.4 1.75 53.95 1.75 L54.2 1.8 54.25 1.9 54.25 1.95 54.2 2.05 54.15 2.1 52.65 2.5 50.3 3.15 Q49.7 3.35 48.5 4.0 L47.35 4.45 47.3 4.95 Q47.25 5.5 47.5 6.75 L47.45 7.7 Q47.4 8.25 47.9 8.4 49.85 8.95 51.3 10.2 L52.6 11.25 55.0 10.45 56.95 9.85 57.1 9.75 57.3 9.75 M54.55 2.5 L54.6 2.6 Q54.6 3.0 51.75 4.2 48.85 5.4 48.85 5.65 L48.85 7.25 Q50.4 7.45 51.6 8.6 L53.0 9.65 56.35 8.65 56.75 8.75 56.75 8.8 56.75 8.85 56.55 9.0 56.55 9.1 52.95 10.2 Q52.55 10.2 51.45 9.3 L49.85 8.05 48.75 7.75 Q48.25 7.75 48.35 7.0 L48.2 5.65 Q48.25 5.05 48.9 4.75 L51.1 3.9 54.45 2.45 54.55 2.5" fill="#733c2f" fill-rule="evenodd" stroke="none"/>
      <path d="M60.2 15.45 L60.25 15.35 59.95 15.25 59.75 15.6 59.85 16.0 59.85 16.05 59.95 16.0 62.95 17.3 64.9 18.05 Q65.5 18.3 65.5 18.85 L65.45 20.05 Q65.5 20.7 65.05 20.7 L64.05 20.95 62.65 22.1 61.35 22.9 58.05 21.9 58.05 21.85 57.9 21.7 57.9 21.65 57.9 21.6 58.05 21.55 Q58.0 21.35 57.7 21.65 57.35 22.0 57.35 22.45 L57.35 22.5 57.45 22.5 57.6 22.5 57.75 22.6 59.5 23.15 61.65 23.85 62.8 22.9 Q64.1 21.75 65.8 21.3 66.3 21.15 66.25 20.65 L66.2 19.85 66.4 18.25 66.3 17.8 65.3 17.35 63.7 16.6 61.55 16.05 60.25 15.7 60.2 15.6 60.15 15.55 60.15 15.5 60.2 15.45" fill="#fcf9e0" fill-rule="evenodd" stroke="none"/>
      <path d="M57.45 22.5 L57.15 22.75 Q61.0 24.3 61.65 24.3 64.35 22.25 66.1 21.65 66.9 21.4 66.9 20.95 L66.8 20.05 66.8 19.05 66.9 18.35 Q66.85 17.4 66.55 17.3 L64.55 16.45 Q62.7 15.35 60.4 15.35 L60.2 15.45 60.15 15.5 60.15 15.55 60.2 15.6 60.25 15.7 61.55 16.05 63.7 16.6 65.3 17.35 66.3 17.8 66.4 18.25 66.2 19.85 66.25 20.65 Q66.3 21.15 65.8 21.3 64.1 21.75 62.8 22.9 L61.65 23.85 59.5 23.15 57.75 22.6 57.6 22.5 57.45 22.5 M59.85 16.05 L59.8 16.1 Q59.85 16.5 62.4 17.55 64.95 18.6 64.95 18.85 L64.95 20.3 Q63.6 20.45 62.5 21.45 L61.3 22.4 58.3 21.55 57.9 21.6 57.9 21.65 57.9 21.7 58.05 21.85 58.05 21.9 61.35 22.9 62.65 22.1 64.05 20.95 65.05 20.7 Q65.5 20.7 65.45 20.05 L65.5 18.85 Q65.5 18.3 64.9 18.05 L62.95 17.3 59.95 16.0 59.85 16.05" fill="#733c2f" fill-rule="evenodd" stroke="none"/>
      <path d="M56.8 18.9 L57.0 18.9 57.2 18.95 59.4 19.7 62.1 20.55 63.65 19.35 Q65.3 17.95 67.45 17.3 68.05 17.15 68.05 16.5 L68.0 15.45 68.15 13.4 68.1 12.85 66.8 12.3 64.75 11.35 62.0 10.65 60.4 10.15 60.35 10.1 60.25 10.0 60.25 9.9 60.35 9.85 60.4 9.75 Q60.3 9.45 60.0 9.6 L59.75 10.1 59.85 10.55 59.85 10.65 60.0 10.55 63.8 12.2 66.35 13.15 Q67.05 13.5 67.1 14.2 L67.0 15.7 Q67.1 16.6 66.55 16.6 L65.25 16.9 63.45 18.35 Q62.2 19.35 61.75 19.35 L57.6 18.1 57.6 18.0 57.4 17.85 57.4 17.75 57.4 17.7 Q57.45 17.6 57.6 17.6 57.55 17.4 57.15 17.75 56.65 18.25 56.7 18.8 L56.7 18.9 56.8 18.9" fill="#fcf9e0" fill-rule="evenodd" stroke="none"/>
      <path d="M60.35 9.85 L60.25 9.9 60.25 10.0 60.35 10.1 60.4 10.15 62.0 10.65 64.75 11.35 66.8 12.3 68.1 12.85 68.15 13.4 68.0 15.45 68.05 16.5 Q68.05 17.15 67.45 17.3 65.3 17.95 63.65 19.35 L62.1 20.55 59.4 19.7 57.2 18.95 57.0 18.9 56.8 18.9 Q56.4 18.9 56.4 19.2 61.3 21.2 62.15 21.2 65.6 18.55 67.8 17.75 68.85 17.45 68.9 16.9 L68.7 15.7 Q68.65 14.9 68.75 14.45 L68.85 13.55 Q68.75 12.4 68.35 12.2 L65.85 11.1 Q63.5 9.75 60.6 9.75 L60.35 9.85 M57.4 17.7 L57.4 17.75 57.4 17.85 57.6 18.0 57.6 18.1 61.75 19.35 Q62.2 19.35 63.45 18.35 L65.25 16.9 66.55 16.6 Q67.1 16.6 67.0 15.7 L67.1 14.2 Q67.05 13.5 66.35 13.15 L63.8 12.2 60.0 10.55 59.85 10.65 59.85 10.7 Q59.85 11.2 63.1 12.55 66.4 13.9 66.4 14.2 L66.35 16.05 Q64.6 16.25 63.25 17.55 L61.7 18.75 57.85 17.6 57.4 17.7" fill="#733c2f" fill-rule="evenodd" stroke="none"/>
      <path d="M60.15 5.55 L60.2 5.45 Q60.1 5.15 59.8 5.3 L59.55 5.8 59.65 6.25 59.65 6.35 59.8 6.25 63.6 7.9 66.15 8.85 Q66.85 9.2 66.9 9.9 L66.8 11.4 Q66.9 12.3 66.35 12.3 L65.05 12.6 63.25 14.05 Q62.0 15.05 61.55 15.05 58.25 14.2 57.4 13.8 L57.4 13.7 57.2 13.55 57.2 13.45 57.2 13.4 Q57.25 13.3 57.4 13.3 57.35 13.1 56.95 13.45 56.45 13.95 56.5 14.5 L56.5 14.6 56.6 14.6 56.8 14.6 57.0 14.65 59.2 15.4 61.9 16.25 63.45 15.05 Q65.1 13.65 67.25 13.0 67.85 12.85 67.85 12.2 L67.8 11.15 67.95 9.1 67.9 8.55 66.6 8.0 64.55 7.05 61.8 6.35 60.2 5.85 60.15 5.8 60.05 5.7 60.05 5.6 60.15 5.55" fill="#fcf9e0" fill-rule="evenodd" stroke="none"/>
      <path d="M56.6 14.6 Q56.2 14.6 56.2 14.9 61.1 16.9 61.95 16.9 65.4 14.25 67.6 13.45 68.65 13.15 68.7 12.6 L68.5 11.4 Q68.45 10.6 68.55 10.15 L68.65 9.25 Q68.55 8.1 68.15 7.9 L65.65 6.8 Q63.3 5.45 60.4 5.45 L60.15 5.55 60.05 5.6 60.05 5.7 60.15 5.8 60.2 5.85 61.8 6.35 64.55 7.05 66.6 8.0 67.9 8.55 67.95 9.1 67.8 11.15 67.85 12.2 Q67.85 12.85 67.25 13.0 65.1 13.65 63.45 15.05 L61.9 16.25 59.2 15.4 57.0 14.65 56.8 14.6 56.6 14.6 M59.65 6.35 L59.65 6.4 Q59.65 6.9 62.9 8.25 66.2 9.6 66.2 9.9 L66.15 11.75 Q64.4 11.95 63.05 13.25 L61.5 14.45 57.65 13.3 57.2 13.4 57.2 13.45 57.2 13.55 57.4 13.7 57.4 13.8 Q58.25 14.2 61.55 15.05 62.0 15.05 63.25 14.05 L65.05 12.6 66.35 12.3 Q66.9 12.3 66.8 11.4 L66.9 9.9 Q66.85 9.2 66.15 8.85 L63.6 7.9 59.8 6.25 59.65 6.35" fill="#733c2f" fill-rule="evenodd" stroke="none"/>
      <path d="M56.8 9.75 L57.0 9.75 57.15 9.85 59.1 10.45 61.5 11.25 62.8 10.2 Q64.25 8.95 66.2 8.4 66.7 8.25 66.65 7.7 L66.6 6.75 66.8 4.95 66.75 4.45 65.6 4.0 63.8 3.15 61.45 2.5 59.95 2.1 59.9 2.05 59.85 1.95 59.85 1.9 59.9 1.8 59.95 1.75 Q59.9 1.45 59.7 1.6 L59.4 2.05 59.55 2.45 59.55 2.5 59.65 2.45 63.0 3.9 65.2 4.75 Q65.85 5.05 65.9 5.65 L65.75 7.0 Q65.85 7.75 65.35 7.75 L64.25 8.05 62.65 9.3 61.15 10.2 Q58.25 9.45 57.55 9.1 L57.55 9.0 57.35 8.85 57.35 8.8 57.35 8.75 Q57.4 8.65 57.5 8.65 57.45 8.45 57.1 8.8 56.7 9.2 56.7 9.7 L56.7 9.75 56.8 9.75" fill="#fcf9e0" fill-rule="evenodd" stroke="none"/>
      <path d="M59.9 1.8 L59.85 1.9 59.85 1.95 59.9 2.05 59.95 2.1 61.45 2.5 63.8 3.15 65.6 4.0 66.75 4.45 66.8 4.95 66.6 6.75 66.65 7.7 Q66.7 8.25 66.2 8.4 64.25 8.95 62.8 10.2 L61.5 11.25 59.1 10.45 57.15 9.85 57.0 9.75 56.8 9.75 Q56.45 9.75 56.5 10.05 60.75 11.8 61.5 11.8 64.55 9.5 66.5 8.8 67.4 8.5 67.45 8.05 L67.25 7.0 67.3 5.85 67.4 5.1 Q67.35 4.05 67.0 3.9 L64.75 2.95 Q62.7 1.75 60.15 1.75 L59.9 1.8 M57.35 8.75 L57.35 8.8 57.35 8.85 57.55 9.0 57.55 9.1 Q58.25 9.45 61.15 10.2 L62.65 9.3 64.25 8.05 65.35 7.75 Q65.85 7.75 65.75 7.0 L65.9 5.65 Q65.85 5.05 65.2 4.75 L63.0 3.9 59.65 2.45 59.55 2.5 59.5 2.6 Q59.5 3.0 62.35 4.2 65.25 5.4 65.25 5.65 L65.25 7.25 Q63.7 7.45 62.5 8.6 61.45 9.65 61.1 9.65 L57.75 8.65 57.35 8.75" fill="#733c2f" fill-rule="evenodd" stroke="none"/>
      <path d="M56.3 10.95 L57.0 9.55 58.65 11.55 58.75 11.85 Q59.25 15.65 58.4 19.3 L57.8 20.95 57.25 22.0 Q55.55 18.85 55.8 15.3 L56.1 11.85 56.3 10.95" fill="#fcf9e0" fill-rule="evenodd" stroke="none"/>
      <path d="M56.3 10.95 L56.1 11.85 55.8 15.3 Q55.55 18.85 57.25 22.0 L57.8 20.95 58.4 19.3 Q59.25 15.65 58.75 11.85 L58.65 11.55 57.0 9.55 56.3 10.95 M55.95 9.0 Q56.35 7.8 57.2 8.25 57.9 8.65 58.3 9.6 59.55 11.25 59.6 12.65 L59.7 15.55 Q59.7 18.6 59.25 19.7 L57.35 23.7 Q56.85 23.7 55.65 20.45 L55.15 18.6 55.15 17.3 54.95 14.2 54.75 12.0 55.95 9.0" fill="#733c2f" fill-rule="evenodd" stroke="none"/>
      <path d="M56.9 9.35 Q56.85 10.3 57.4 10.3 58.1 10.3 58.1 9.5 58.1 8.85 57.5 8.85 56.9 8.85 56.9 9.35 M56.55 8.45 L57.0 8.25 57.75 8.15 58.05 8.35 58.55 8.9 58.8 9.7 58.85 10.1 58.75 10.6 57.55 11.55 56.8 10.9 56.2 10.2 56.1 8.75 56.55 8.45" fill="#fcf9e0" fill-rule="evenodd" stroke="none"/>
      <path d="M56.9 9.35 Q56.9 8.85 57.5 8.85 58.1 8.85 58.1 9.5 58.1 10.3 57.4 10.3 56.85 10.3 56.9 9.35 M55.6 9.45 L55.45 8.5 Q57.2 6.85 57.75 7.35 L59.1 8.1 59.4 8.6 59.45 9.05 59.4 10.7 Q59.35 11.15 57.5 12.15 L56.35 11.3 Q55.65 10.95 55.65 10.45 L55.6 9.45 M56.55 8.45 L56.1 8.75 56.2 10.2 56.8 10.9 57.55 11.55 58.75 10.6 58.85 10.1 58.8 9.7 58.55 8.9 58.05 8.35 57.75 8.15 57.0 8.25 56.55 8.45" fill="#733c2f" fill-rule="evenodd" stroke="none"/>
      <path d="M57.5 13.75 Q56.9 13.75 56.9 14.25 56.85 15.2 57.4 15.2 58.1 15.2 58.1 14.4 58.1 13.75 57.5 13.75 M56.55 13.35 L57.0 13.15 57.75 13.05 58.05 13.25 58.55 13.8 58.8 14.6 58.85 15.0 58.75 15.5 57.55 16.45 56.8 15.8 56.2 15.1 56.1 13.65 56.55 13.35" fill="#fcf9e0" fill-rule="evenodd" stroke="none"/>
      <path d="M56.55 13.35 L56.1 13.65 56.2 15.1 56.8 15.8 57.55 16.45 58.75 15.5 58.85 15.0 58.8 14.6 58.55 13.8 58.05 13.25 57.75 13.05 57.0 13.15 56.55 13.35 M57.5 13.75 Q58.1 13.75 58.1 14.4 58.1 15.2 57.4 15.2 56.85 15.2 56.9 14.25 56.9 13.75 57.5 13.75 M55.45 13.4 Q57.2 11.75 57.75 12.25 L59.1 13.0 59.4 13.5 59.45 13.95 59.4 15.6 Q59.35 16.05 57.5 17.05 L56.35 16.2 Q55.65 15.85 55.65 15.35 L55.6 14.35 55.45 13.4" fill="#733c2f" fill-rule="evenodd" stroke="none"/>
      <path d="M56.65 18.4 Q56.6 19.35 57.15 19.35 57.85 19.35 57.85 18.55 57.85 17.9 57.25 17.9 56.65 17.9 56.65 18.4 M55.85 17.8 L56.3 17.5 56.75 17.3 57.5 17.2 57.8 17.4 58.3 17.95 58.55 18.75 58.6 19.15 58.5 19.65 57.3 20.6 56.55 19.95 Q55.95 19.5 55.95 19.25 L55.85 17.8" fill="#fcf9e0" fill-rule="evenodd" stroke="none"/>
      <path d="M55.2 17.55 Q56.95 15.9 57.5 16.4 L58.85 17.15 59.15 17.65 59.2 18.1 59.15 19.75 Q59.1 20.2 57.25 21.2 L56.1 20.35 Q55.4 20.0 55.4 19.5 L55.35 18.5 55.2 17.55 M55.85 17.8 L55.95 19.25 Q55.95 19.5 56.55 19.95 L57.3 20.6 58.5 19.65 58.6 19.15 58.55 18.75 58.3 17.95 57.8 17.4 57.5 17.2 56.75 17.3 56.3 17.5 55.85 17.8 M56.65 18.4 Q56.65 17.9 57.25 17.9 57.85 17.9 57.85 18.55 57.85 19.35 57.15 19.35 56.6 19.35 56.65 18.4" fill="#733c2f" fill-rule="evenodd" stroke="none"/>
      <path d="M56.65 21.8 Q56.6 22.75 57.15 22.75 57.85 22.75 57.85 21.95 57.85 21.3 57.25 21.3 56.65 21.3 56.65 21.8 M55.95 22.65 L55.85 21.2 56.3 20.9 56.75 20.7 57.5 20.6 57.8 20.8 58.3 21.35 58.55 22.15 58.6 22.55 58.5 23.05 57.3 24.0 56.55 23.35 Q55.95 22.9 55.95 22.65" fill="#fcf9e0" fill-rule="evenodd" stroke="none"/>
      <path d="M56.65 21.8 Q56.65 21.3 57.25 21.3 57.85 21.3 57.85 21.95 57.85 22.75 57.15 22.75 56.6 22.75 56.65 21.8 M55.35 21.9 L55.2 20.95 Q56.95 19.3 57.5 19.8 L58.85 20.55 59.15 21.05 59.2 21.5 59.15 23.15 Q59.1 23.6 57.25 24.6 L56.1 23.75 Q55.4 23.4 55.4 22.9 L55.35 21.9 M55.95 22.65 Q55.95 22.9 56.55 23.35 L57.3 24.0 58.5 23.05 58.6 22.55 58.55 22.15 58.3 21.35 57.8 20.8 57.5 20.6 56.75 20.7 56.3 20.9 55.85 21.2 55.95 22.65" fill="#733c2f" fill-rule="evenodd" stroke="none"/>
      <path d="M23.15 17.25 L10.65 17.25 16.9 12.25 23.15 17.25" fill="#733c2f" fill-rule="evenodd" stroke="none"/>
      <path d="M21.35 16.3 L20.7 15.85 19.95 15.25 19.95 15.0 20.05 15.0 21.8 16.5 21.35 16.3 M13.05 15.9 L12.15 16.45 12.05 16.45 13.05 15.55 Q13.5 15.1 13.85 15.0 L13.05 15.9 M16.9 13.15 L21.4 16.7 12.45 16.7 16.9 13.15" fill="#fcf9e0" fill-rule="evenodd" stroke="none"/>
      <path d="M14.3 10.55 L14.6 11.55 14.8 11.95 15.7 11.85 Q16.5 11.85 16.5 12.2 L13.6 12.5 14.0 12.3 14.35 12.15 Q14.2 12.0 14.2 11.7 L14.35 11.8 13.95 11.0 13.75 10.15 Q13.75 9.55 14.0 9.9 L14.3 10.55 M19.15 11.2 L18.7 12.15 18.5 12.1 18.5 11.8 Q18.65 10.75 19.0 10.05 19.3 9.35 19.3 10.0 L19.15 11.2 M16.5 12.85 L14.5 14.55 Q14.05 14.55 13.45 13.9 L12.9 13.2 13.45 12.85 15.8 12.65 Q16.5 12.65 16.5 12.85" fill="#fcf9e0" fill-rule="evenodd" stroke="none"/>
      <path d="M18.15 11.85 Q17.35 11.85 17.35 12.2 L20.25 12.5 19.85 12.3 Q18.95 11.8 18.15 11.85 M17.35 12.85 L19.35 14.55 20.4 13.9 20.95 13.2 Q20.95 13.0 20.4 12.85 L18.05 12.65 Q17.35 12.65 17.35 12.85" fill="#fcf9e0" fill-rule="evenodd" stroke="none"/>
    </g>
  </defs>
</svg>
