<?xml version="1.0" encoding="UTF-8" standalone="no"?>
<svg xmlns:xlink="http://www.w3.org/1999/xlink" height="34" width="34" xmlns="http://www.w3.org/2000/svg">
  <g transform="matrix(1.0, 0.0, 0.0, 1.0, 1, 1)">
    <use height="34.0" transform="matrix(1.0, 0.0, 0.0, 1.0, -1.0, -1.0)" width="34.0" xlink:href="#sprite0"/>
  </g>
  <defs>
    <g id="sprite0" transform="matrix(1.0, 0.0, 0.0, 1.0, 1.0, 1.0)">
      <use height="34.0" transform="matrix(1.0, 0.0, 0.0, 1.0, -1.0, -1.0)" width="34.0" xlink:href="#sprite1"/>
      <use height="31.55" transform="matrix(1.0, 0.0, 0.0, 1.0, 4.6, 0.35)" width="21.9" xlink:href="#shape1"/>
    </g>
    <g id="sprite1" transform="matrix(1.0, 0.0, 0.0, 1.0, 1.0, 1.0)">
      <use height="34.0" transform="matrix(1.0, 0.0, 0.0, 1.0, -1.0, -1.0)" width="34.0" xlink:href="#shape0"/>
    </g>
    <g id="shape0" transform="matrix(1.0, 0.0, 0.0, 1.0, 1.0, 1.0)">
      <path d="M0.0 32.0 L0.0 0.0 32.0 0.0 32.0 32.0 0.0 32.0" fill="#cccc00" fill-rule="evenodd" stroke="none"/>
      <path d="M0.0 32.0 L0.0 0.0 32.0 0.0 32.0 32.0 0.0 32.0 Z" fill="none" stroke="#733c2f" stroke-linecap="round" stroke-linejoin="round" stroke-width="2.0"/>
    </g>
    <g id="shape1" transform="matrix(1.0, 0.0, 0.0, 1.0, -4.6, -0.35)">
      <path d="M22.0 11.95 L21.35 12.7 20.45 13.5 20.15 14.2 Q23.3 14.95 24.35 18.15 L25.15 20.7 Q26.05 24.1 26.3 27.65 L26.5 29.8 Q26.55 30.95 26.15 31.85 L7.95 31.85 Q7.4 29.8 8.35 27.7 L8.65 26.2 8.35 24.15 7.95 22.65 Q7.4 20.4 8.4 18.4 9.45 16.25 11.35 15.3 L12.55 14.7 13.6 14.2 Q13.7 12.4 13.15 10.6 12.9 9.8 13.05 8.9 13.55 6.4 15.9 5.4 17.8 4.65 19.8 5.4 21.3 6.05 21.95 7.3 23.2 9.75 22.0 11.95" fill="#fcf9e0" fill-rule="evenodd" stroke="none"/>
      <path d="M20.95 9.8 L19.35 6.2 16.8 5.85 15.3 7.0 14.75 6.8 14.45 6.35 15.25 11.45 13.25 10.3 11.65 4.35 13.1 7.15 Q12.45 4.7 12.95 2.3 L13.1 1.6 Q15.8 2.65 17.8 4.95 L16.7 2.55 16.4 1.9 Q19.25 3.5 21.1 6.05 L22.05 7.4 20.95 9.8 M9.6 18.55 L9.1 19.05 8.1 18.55 Q7.05 18.0 6.95 16.75 L6.95 15.8 8.0 17.05 8.65 17.2 7.55 14.55 6.95 12.85 Q8.35 13.75 10.15 14.25 L11.8 14.75 10.95 12.45 12.15 13.2 Q13.0 13.8 13.6 14.7 L13.9 15.2 13.0 16.1 13.0 18.05 10.65 19.25 9.6 18.55 M9.2 7.35 L9.2 7.05 Q10.9 8.5 10.55 11.9 L9.25 10.7 9.6 9.65 9.2 8.7 9.35 7.8 9.2 7.35 M9.25 5.55 L8.1 5.4 7.4 4.6 7.9 3.4 7.6 2.25 8.65 3.6 8.05 4.5 8.55 4.65 9.15 5.15 9.25 5.55 M5.6 5.75 L6.1 5.3 6.0 6.3 6.5 7.2 Q7.65 9.35 7.85 11.85 7.15 12.35 6.5 11.65 4.3 9.3 5.25 6.35 L5.6 5.75 M11.75 0.35 Q12.85 1.8 11.8 3.25 L11.15 3.15 9.5 0.35 11.75 0.35" fill="#fcf9e0" fill-rule="evenodd" stroke="none"/>
      <path d="M6.55 19.95 L6.45 19.55 Q5.85 18.5 6.5 17.65 8.85 20.3 10.65 23.4 L10.45 23.95 11.1 24.95 8.65 25.0 6.55 19.95" fill="#fcf9e0" fill-rule="evenodd" stroke="none"/>
      <path d="M5.0 24.45 L4.75 23.85 Q4.4 23.35 4.85 22.7 5.95 23.35 6.15 24.7 L5.0 24.45" fill="#fcf9e0" fill-rule="evenodd" stroke="none"/>
      <path d="M9.55 29.5 L9.3 30.15 Q6.8 29.0 6.55 25.85 L7.0 25.5 Q8.95 26.8 9.15 29.05 L9.55 29.5" fill="#fcf9e0" fill-rule="evenodd" stroke="none"/>
      <path d="M20.5 12.8 Q19.3 14.05 17.55 14.05 15.85 14.05 14.65 12.8 13.4 11.6 13.4 9.85 13.4 8.15 14.65 6.9 15.85 5.7 17.55 5.7 19.3 5.7 20.5 6.9 21.75 8.15 21.75 9.85 21.75 11.6 20.5 12.8" fill="#733c2f" fill-rule="evenodd" stroke="none"/>
      <path d="M24.25 20.65 Q25.2 23.25 25.5 26.2 25.85 29.0 25.3 31.8 L25.3 31.9 19.6 31.9 19.3 31.65 17.8 30.1 17.65 30.05 17.3 30.35 16.9 31.9 12.4 31.9 Q13.25 29.8 13.45 27.5 L13.85 24.65 13.65 23.65 12.35 21.85 Q12.5 24.4 11.9 26.85 11.5 28.6 11.9 30.25 L12.3 31.9 9.35 31.9 9.1 31.8 Q7.85 30.15 8.5 27.95 L9.2 25.9 9.1 23.3 8.65 22.7 Q8.75 20.15 9.85 17.7 10.4 16.45 11.55 15.4 L13.9 14.75 14.65 10.2 Q14.95 12.65 15.3 12.15 15.75 11.3 16.35 11.0 L17.15 11.0 17.4 11.25 17.6 11.55 17.75 11.9 Q18.25 12.05 18.35 12.3 L19.05 14.65 Q20.9 14.45 22.15 16.25 23.4 18.1 24.25 20.65 M21.65 23.5 Q21.15 24.35 21.75 25.3 L22.35 27.1 23.15 25.45 22.55 24.8 21.9 23.5 21.65 23.5" fill="#733c2f" fill-rule="evenodd" stroke="none"/>
      <path d="M17.0 12.1 L17.0 11.2 18.4 11.75 18.75 12.3 17.0 12.1" fill="#fcf9e0" fill-rule="evenodd" stroke="none"/>
      <path d="M20.85 12.1 L20.35 12.3 20.55 11.75 21.4 11.2 20.85 12.1" fill="#fcf9e0" fill-rule="evenodd" stroke="none"/>
      <path d="M22.25 17.7 Q23.9 18.1 24.1 19.9 L23.5 20.0 Q22.35 19.6 22.25 18.3 L22.25 17.7 M21.9 19.55 Q22.8 22.6 21.4 24.85 22.4 20.45 19.15 18.05 L17.85 16.95 19.85 17.8 Q19.2 17.05 19.4 16.2 L20.45 17.4 Q20.9 16.75 21.3 17.2 21.55 18.0 21.35 19.0 L21.9 18.95 Q22.25 19.15 22.05 19.35 L21.9 19.55 M23.45 21.7 L24.05 21.2 Q24.9 21.5 25.2 22.4 L25.35 22.9 24.55 23.05 23.6 22.15 23.45 21.7 M25.2 24.45 L25.2 25.2 25.15 25.3 24.9 25.2 Q24.25 24.8 24.25 23.95 L25.2 24.45 M14.0 17.8 L13.65 18.55 Q12.35 17.5 12.05 15.95 13.45 16.45 14.6 17.2 14.1 17.45 14.0 17.8 M12.25 14.75 L12.55 14.4 13.65 14.85 13.8 15.45 13.65 15.95 13.2 15.85 Q12.4 15.55 12.25 14.75 M9.15 18.95 L9.55 19.75 9.9 20.1 10.25 20.6 9.85 20.75 Q8.55 20.2 8.95 18.85 L9.15 18.95 M9.4 16.95 L10.0 16.9 10.45 18.05 10.5 18.3 10.2 18.2 Q9.3 17.8 9.4 16.95 M10.6 15.5 L11.6 16.9 Q11.1 16.95 10.75 16.5 10.2 15.85 10.4 15.4 L10.6 15.5 M14.45 20.85 L14.5 20.9 14.5 21.05 14.55 21.1 14.55 21.15 14.6 21.2 14.6 21.25 14.65 21.25 14.65 21.3 14.7 21.35 14.7 21.4 14.75 21.45 14.8 21.55 14.85 21.65 14.9 21.7 14.9 21.75 14.95 21.8 14.95 22.0 14.9 22.05 14.85 22.1 14.75 22.15 14.65 22.1 14.6 22.05 14.5 22.0 14.45 21.95 14.4 21.9 14.4 21.8 14.35 21.75 14.35 21.7 14.3 21.65 14.25 21.6 14.2 21.5 14.15 21.4 14.15 21.35 14.05 21.3 14.0 21.25 13.95 21.25 13.9 21.2 13.9 20.85 13.95 20.8 13.9 20.75 13.9 20.7 13.85 20.65 13.85 20.55 13.9 20.5 13.95 20.45 14.05 20.4 14.15 20.4 14.25 20.45 14.3 20.5 14.35 20.5 14.4 20.55 14.4 20.6 14.45 20.65 14.45 20.85 M22.5 29.4 L21.75 29.55 19.75 27.7 21.95 28.25 20.65 26.55 19.2 23.45 Q23.15 26.5 23.25 28.4 L22.5 29.4 M22.55 30.2 L22.8 30.65 22.2 31.4 21.8 30.95 21.45 30.25 22.55 30.2" fill="#fcf9e0" fill-rule="evenodd" stroke="none"/>
    </g>
  </defs>
</svg>
