<?xml version="1.0" encoding="UTF-8" standalone="no"?>
<svg xmlns:xlink="http://www.w3.org/1999/xlink" height="34" width="34" xmlns="http://www.w3.org/2000/svg">
  <g transform="matrix(1.0, 0.0, 0.0, 1.0, 1, 1)">
    <use height="38.85" transform="matrix(1.0, 0.0, 0.0, 1.0, -6.35, -3.5)" width="40.2" xlink:href="#sprite0"/>
  </g>
  <defs>
    <g id="sprite0" transform="matrix(1.0, 0.0, 0.0, 1.0, 6.35, 3.5)">
      <use height="34.0" transform="matrix(1.0, 0.0, 0.0, 1.0, -1.0, -1.0)" width="34.0" xlink:href="#sprite1"/>
      <clipPath id="clipPath0" transform="matrix(0.9688, 0.0, 0.0, 0.9688, 0.5, 0.5)">
        <path d="M0.0 32.0 L0.0 0.0 32.0 0.0 32.0 32.0 0.0 32.0" fill="#ff0000" fill-rule="evenodd" stroke="none"/>
      </clipPath>
      <g clip-path="url(#clipPath0)">
        <use height="38.85" transform="matrix(1.0, 0.0, 0.0, 1.0, -6.35, -3.5)" width="40.2" xlink:href="#shape2"/>
      </g>
    </g>
    <g id="sprite1" transform="matrix(1.0, 0.0, 0.0, 1.0, 1.0, 1.0)">
      <use height="34.0" transform="matrix(1.0, 0.0, 0.0, 1.0, -1.0, -1.0)" width="34.0" xlink:href="#shape0"/>
    </g>
    <g id="shape0" transform="matrix(1.0, 0.0, 0.0, 1.0, 1.0, 1.0)">
      <path d="M0.0 32.0 L0.0 0.0 32.0 0.0 32.0 32.0 0.0 32.0" fill="#cccc00" fill-rule="evenodd" stroke="none"/>
      <path d="M0.0 32.0 L0.0 0.0 32.0 0.0 32.0 32.0 0.0 32.0 Z" fill="none" stroke="#733c2f" stroke-linecap="round" stroke-linejoin="round" stroke-width="2.0"/>
    </g>
    <g id="shape2" transform="matrix(1.0, 0.0, 0.0, 1.0, 6.35, 3.5)">
      <path d="M13.15 35.35 L21.25 27.1 21.3 23.85 28.85 17.3 Q30.75 19.6 31.5 22.9 L33.85 23.8 33.2 34.35 13.15 35.35" fill="#733c2f" fill-rule="evenodd" stroke="none"/>
      <path d="M26.45 22.95 Q22.4 26.15 19.45 26.8 16.5 27.45 13.65 23.6 10.8 19.75 10.7 15.65 10.55 11.5 13.45 8.55 16.4 5.65 20.5 5.65 24.65 5.65 27.55 8.55 30.5 11.5 30.5 15.6 30.5 19.75 26.45 22.95" fill="#733c2f" fill-rule="evenodd" stroke="none"/>
      <path d="M15.25 19.7 L18.45 15.9 18.55 18.4 16.95 19.9 15.25 19.7" fill="#fcf9e0" fill-rule="evenodd" stroke="none"/>
      <path d="M14.3 20.1 L14.1 21.4 12.8 21.55 11.95 20.75 11.6 20.05 14.3 20.1" fill="#fcf9e0" fill-rule="evenodd" stroke="none"/>
      <path d="M22.15 21.2 L22.45 21.4 22.15 21.85 18.05 23.75 22.15 21.2" fill="#733c2f" fill-rule="evenodd" stroke="none"/>
      <path d="M22.15 21.85 L20.65 24.3 16.85 25.0 Q15.5 24.45 15.0 23.85 L16.65 23.85 20.2 19.9 22.15 21.2 18.05 23.75 22.15 21.85" fill="#fcf9e0" fill-rule="evenodd" stroke="none"/>
      <path d="M18.1 0.45 L16.75 5.7 27.8 -3.5 18.5 7.45 22.8 6.65 17.75 10.1 19.3 12.25 15.55 12.55 11.85 17.3 11.85 14.65 1.55 22.8 8.65 14.7 1.9 15.45 12.5 9.05 18.1 0.45" fill="#fcf9e0" fill-rule="evenodd" stroke="none"/>
      <path d="M8.85 1.15 L15.85 -0.85 18.45 1.75 16.35 8.55 10.4 14.5 1.35 18.85 -3.75 23.95 -6.35 21.35 -2.95 17.95 2.05 7.95 8.85 1.15" fill="#733c2f" fill-rule="evenodd" stroke="none"/>
    </g>
  </defs>
</svg>
