<svg xmlns="http://www.w3.org/2000/svg" xmlns:xlink="http://www.w3.org/1999/xlink" width="34" height="34"><g transform="matrix(1.0, 0.0, 0.0, 1.0, 1, 1)"><use width="36.95" height="34" transform="matrix(1.0, 0.0, 0.0, 1.0, -3.95, -1.0)" xlink:href="#sprite0"/></g><defs><g id="sprite0" transform="matrix(1.0, 0.0, 0.0, 1.0, 3.95, 1.0)"><use width="34" height="34" transform="matrix(1.0, 0.0, 0.0, 1.0, -1.0, -1.0)" xlink:href="#sprite1"/><clipPath id="clipPath0" transform="matrix(1.0, 0.0, 0.0, 1.0, 0.0, 0.0)"><path fill="#0f0" fill-rule="evenodd" stroke="none" d="M31.9 32.0 L0.0 32.0 0.0 0.0 31.9 0.0 31.9 32.0"/></clipPath><g clip-path="url(#clipPath0)"><use width="18.4" height="10.85" transform="matrix(0.9949, 0.0, 0.0, 0.9949, -3.9474, 0.7526)" xlink:href="#sprite2"/><use width="18.4" height="10.85" transform="matrix(1.1572, 0.0, 0.0, 1.1572, -2.0786, 17.4214)" xlink:href="#sprite2"/><use width="18.4" height="10.85" transform="matrix(1.6396, 0.0, 0.0, 1.6396, -1.6698, 6.8802)" xlink:href="#sprite2"/></g><use width="34" height="34" transform="matrix(1.0, 0.0, 0.0, 1.0, -1.0, -1.0)" xlink:href="#shape3"/></g><g id="sprite1" transform="matrix(1.0, 0.0, 0.0, 1.0, 1.0, 1.0)"><use width="34" height="34" transform="matrix(1.0, 0.0, 0.0, 1.0, -1.0, -1.0)" xlink:href="#shape0"/></g><g id="shape0"><path fill="#cc0" fill-rule="evenodd" stroke="none" d="M0.0 32.0 L0.0 0.0 32.0 0.0 32.0 32.0 0.0 32.0" transform="matrix(1.0, 0.0, 0.0, 1.0, 1.0, 1.0)"/><path fill="none" stroke="#733c2f" stroke-linecap="round" stroke-linejoin="round" stroke-width="2" d="M0.0 32.0 L0.0 0.0 32.0 0.0 32.0 32.0 0.0 32.0 Z" transform="matrix(1.0, 0.0, 0.0, 1.0, 1.0, 1.0)"/></g><g id="sprite2" transform="matrix(1.0, 0.0, 0.0, 1.0, 0.5, 0.5)"><use width="18.4" height="10.85" transform="matrix(1.0, 0.0, 0.0, 1.0, -0.5, -0.5)" xlink:href="#shape2"/></g><g id="shape2"><path fill="#fcf9e0" fill-opacity=".576" fill-rule="evenodd" stroke="none" d="M0.4 0.3 L0.65 0.3 0.8 0.3 4.0 0.05 4.15 0.05 7.55 0.0 12.3 0.65 13.9 0.9 Q14.85 1.1 15.25 1.45 15.7 1.8 15.85 2.5 L16.25 3.8 16.75 6.35 14.6 8.25 14.45 8.4 13.8 9.2 13.8 9.25 13.2 9.7 11.75 9.8 Q11.2 9.7 11.0 9.45 L10.6 8.85 10.35 8.35 10.0 7.65 9.6 6.75 11.45 5.9 12.3 6.4 12.4 6.5 12.5 6.75 13.0 6.1 12.8 5.95 Q11.95 5.15 11.8 3.9 11.95 5.15 12.8 5.95 L13.0 6.1 12.5 6.75 12.4 6.5 12.3 6.4 11.45 5.9 9.6 6.75 10.0 7.65 10.35 8.35 10.6 8.85 Q9.15 9.9 8.3 9.3 7.45 8.7 7.05 7.25 L6.65 4.9 4.15 5.0 3.4 4.95 1.55 5.15 0.8 5.35 0.4 3.45 0.25 0.95 Q0.25 0.55 0.4 0.3 M7.1 3.55 L6.65 4.9 7.1 3.55 M10.3 4.3 Q11.1 4.8 12.3 6.4 11.1 4.8 10.3 4.3 M10.95 5.25 L10.3 5.5 10.35 5.1 9.7 6.1 10.2 4.55 9.7 6.1 10.35 5.1 10.3 5.5 10.95 5.25 M9.7 6.1 L9.55 6.4 9.6 6.3 9.7 6.1 9.6 6.3 9.55 6.4 9.7 6.1" transform="matrix(1.0, 0.0, 0.0, 1.0, 0.5, 0.5)"/><path fill="none" stroke="#733c2f" stroke-linecap="round" stroke-linejoin="round" stroke-opacity=".576" stroke-width="1" d="M10.6 8.85 L11.0 9.45 Q11.2 9.7 11.75 9.8 L13.2 9.7 13.8 9.25 13.8 9.2 14.45 8.4 14.6 8.25 16.75 6.35 16.25 3.8 15.85 2.5 Q15.7 1.8 15.25 1.45 14.85 1.1 13.9 0.9 L12.3 0.65 7.55 0.0 4.15 0.05 4.0 0.05 0.8 0.3 0.65 0.3 0.4 0.3 0.0 0.3 M0.8 5.35 L1.55 5.15 3.4 4.95 4.15 5.0 6.65 4.9 7.1 3.55 M16.25 2.75 Q16.65 3.4 17.05 5.6 L17.4 7.1 14.55 9.5 13.8 9.25 M11.8 3.9 Q11.95 5.15 12.8 5.95 L13.0 6.1 12.5 6.75 12.4 6.5 12.3 6.4 11.45 5.9 9.6 6.75 10.0 7.65 10.35 8.35 10.6 8.85 Q9.15 9.9 8.3 9.3 7.45 8.7 7.05 7.25 L6.65 4.9 M10.2 4.55 L9.7 6.1 10.35 5.1 10.3 5.5 10.95 5.25 M12.3 6.4 Q11.1 4.8 10.3 4.3 M9.7 6.1 L9.6 6.3 9.55 6.4 9.7 6.1" transform="matrix(1.0, 0.0, 0.0, 1.0, 0.5, 0.5)"/></g><g id="shape3"><path fill="none" stroke="#733c2f" stroke-linecap="round" stroke-linejoin="round" stroke-width="2" d="M32.0 32.0 L0.0 32.0 0.0 0.0 32.0 0.0 32.0 32.0 Z" transform="matrix(1.0, 0.0, 0.0, 1.0, 1.0, 1.0)"/><path fill="none" stroke="#fcf9e0" stroke-linecap="round" stroke-linejoin="round" stroke-width="1" d="M15.35 3.7 L27.55 3.7 M2.25 27.5 Q9.25 27.35 25.7 27.35 M1.5 22.0 L8.7 22.0" transform="matrix(1.0, 0.0, 0.0, 1.0, 1.0, 1.0)"/></g></defs></svg>