<?xml version="1.0" encoding="UTF-8" standalone="no"?>
<svg xmlns:xlink="http://www.w3.org/1999/xlink" height="34" width="34" xmlns="http://www.w3.org/2000/svg">
  <g transform="matrix(1.0, 0.0, 0.0, 1.0, 1, 1)">
    <use height="43.4" transform="matrix(1.0, 0.0, 0.0, 1.0, -2.45, -5.6)" width="38.75" xlink:href="#sprite0"/>
  </g>
  <defs>
    <g id="sprite0" transform="matrix(1.0, 0.0, 0.0, 1.0, 2.45, 5.45)">
      <use height="34.0" transform="matrix(1.0, 0.0, 0.0, 0.9984, -1.0, -0.8484)" width="34.0" xlink:href="#sprite1"/>
      <clipPath id="clipPath0" transform="matrix(1.0, 0.0, 0.0, 0.9984, 0.0, 0.15)">
        <path d="M0.0 32.0 L0.0 0.0 32.0 0.0 32.0 32.0 0.0 32.0" fill="#ff0000" fill-rule="evenodd" stroke="none"/>
      </clipPath>
      <g clip-path="url(#clipPath0)">
        <use height="22.65" transform="matrix(-1.0, 0.0, 0.0, 1.0, 28.8, 4.2)" width="26.9" xlink:href="#sprite2"/>
        <use height="22.65" transform="matrix(-0.6134, 0.0, 0.0, 0.6134, 26.9001, -3.0313)" width="26.9" xlink:href="#sprite2"/>
        <use height="22.65" transform="matrix(-0.5964, 0.0, 0.0, 0.5964, 28.0716, 24.4606)" width="26.9" xlink:href="#sprite2"/>
        <use height="22.65" transform="matrix(-0.35, 0.0, 0.0, 0.35, 17.9074, 16.9951)" width="26.9" xlink:href="#sprite2"/>
        <use height="22.65" transform="matrix(-0.35, 0.0, 0.0, 0.35, 6.9574, 16.9951)" width="26.9" xlink:href="#sprite2"/>
        <use height="22.65" transform="matrix(-0.35, 0.0, 0.0, 0.35, 36.3074, 13.9951)" width="26.9" xlink:href="#sprite2"/>
        <use height="22.65" transform="matrix(-0.35, 0.0, 0.0, 0.35, 30.4074, -3.0549)" width="26.9" xlink:href="#sprite2"/>
        <use height="22.65" transform="matrix(-0.35, 0.0, 0.0, 0.35, 6.9574, -5.4549)" width="26.9" xlink:href="#sprite2"/>
        <use height="22.65" transform="matrix(-0.35, 0.0, 0.0, 0.35, 6.9574, 27.9451)" width="26.9" xlink:href="#sprite2"/>
      </g>
    </g>
    <g id="sprite1" transform="matrix(1.0, 0.0, 0.0, 1.0, 1.0, 1.0)">
      <use height="34.0" transform="matrix(1.0, 0.0, 0.0, 1.0, -1.0, -1.0)" width="34.0" xlink:href="#shape0"/>
    </g>
    <g id="shape0" transform="matrix(1.0, 0.0, 0.0, 1.0, 1.0, 1.0)">
      <path d="M0.0 32.0 L0.0 0.0 32.0 0.0 32.0 32.0 0.0 32.0" fill="#cccc00" fill-rule="evenodd" stroke="none"/>
      <path d="M0.0 32.0 L0.0 0.0 32.0 0.0 32.0 32.0 0.0 32.0 Z" fill="none" stroke="#733c2f" stroke-linecap="round" stroke-linejoin="round" stroke-width="2.0"/>
    </g>
    <g id="sprite2" transform="matrix(1.0, 0.0, 0.0, 1.0, 13.45, 11.3)">
      <use height="22.65" transform="matrix(1.0, 0.0, 0.0, 1.0, -13.45, -11.3)" width="26.9" xlink:href="#shape2"/>
    </g>
    <g id="shape2" transform="matrix(1.0, 0.0, 0.0, 1.0, 13.45, 11.3)">
      <path d="M13.35 -6.55 L10.2 -3.95 10.05 -3.9 Q9.95 -3.85 9.95 -3.95 L9.9 -3.95 9.5 -4.4 5.4 -0.7 7.05 1.2 7.1 1.2 7.1 1.35 7.05 1.4 7.0 1.55 4.45 3.6 4.35 3.6 4.2 3.55 2.8 1.9 -7.25 11.2 -7.4 11.25 -13.25 11.35 -13.35 11.3 -13.4 11.25 -13.45 11.1 -12.0 5.6 -12.0 5.55 -11.9 5.45 -0.9 -2.6 -2.25 -4.2 -2.25 -4.25 -2.3 -4.4 -2.25 -4.55 0.25 -6.6 0.35 -6.65 0.4 -6.6 0.45 -6.65 0.5 -6.6 0.6 -6.5 0.55 -6.55 2.15 -4.55 6.55 -7.95 6.2 -8.35 6.2 -8.4 6.15 -8.55 6.2 -8.7 9.4 -11.25 9.45 -11.25 9.6 -11.3 9.75 -11.25 13.4 -6.85 13.45 -6.8 13.45 -6.75 13.4 -6.65 13.35 -6.55 M4.6 -1.65 L8.8 -5.3 7.3 -7.1 2.85 -3.75 4.6 -1.65 M-5.6 4.65 L-4.75 3.95 -4.55 3.7 0.7 -0.75 -0.2 -1.8 -10.45 5.9 -12.1 10.35 -7.5 9.65 2.15 1.05 1.3 0.0 -5.75 5.9 -5.8 5.9 -5.85 5.95 -8.4 7.55 -8.35 7.6 -8.5 7.65 -8.55 7.65 -8.65 7.6 -8.65 7.5 -8.7 7.4 -8.65 7.25 -6.4 5.35 -5.6 4.65" fill="#733c2f" fill-rule="evenodd" stroke="none"/>
      <path d="M-6.4 5.35 L-8.65 7.25 -8.7 7.4 -8.65 7.5 -8.65 7.6 -8.55 7.65 -8.5 7.65 -8.35 7.6 -8.4 7.55 -5.85 5.95 -5.8 5.9 -5.75 5.9 1.3 0.0 2.15 1.05 -7.5 9.65 -12.1 10.35 -10.45 5.9 -0.2 -1.8 0.7 -0.75 -4.55 3.7 -4.75 3.95 -5.6 4.65 -6.3 5.2 -6.4 5.35" fill="#fcf9e0" fill-rule="evenodd" stroke="none"/>
    </g>
  </defs>
</svg>
