<?xml version="1.0" encoding="UTF-8" standalone="no"?>
<svg xmlns:xlink="http://www.w3.org/1999/xlink" height="34" width="34" xmlns="http://www.w3.org/2000/svg">
  <g transform="matrix(1.0, 0.0, 0.0, 1.0, 1, 1)">
    <use height="34.0" transform="matrix(1.0, 0.0, 0.0, 1.0, -1.0, -1.0)" width="34.0" xlink:href="#sprite0"/>
  </g>
  <defs>
    <g id="sprite0" transform="matrix(1.0, 0.0, 0.0, 1.0, 1.0, 1.0)">
      <use height="34.0" transform="matrix(1.0, 0.0, 0.0, 1.0, -1.0, -1.0)" width="34.0" xlink:href="#sprite1"/>
      <use height="34.0" transform="matrix(1.0, 0.0, 0.0, 1.0, -1.0, -1.0)" width="34.0" xlink:href="#shape1"/>
    </g>
    <g id="sprite1" transform="matrix(1.0, 0.0, 0.0, 1.0, 1.0, 1.0)">
      <use height="34.0" transform="matrix(1.0, 0.0, 0.0, 1.0, -1.0, -1.0)" width="34.0" xlink:href="#shape0"/>
    </g>
    <g id="shape0" transform="matrix(1.0, 0.0, 0.0, 1.0, 1.0, 1.0)">
      <path d="M0.0 32.0 L0.0 0.0 32.0 0.0 32.0 32.0 0.0 32.0" fill="#cccc00" fill-rule="evenodd" stroke="none"/>
      <path d="M0.0 32.0 L0.0 0.0 32.0 0.0 32.0 32.0 0.0 32.0 Z" fill="none" stroke="#733c2f" stroke-linecap="round" stroke-linejoin="round" stroke-width="2.0"/>
    </g>
    <g id="shape1" transform="matrix(1.0, 0.0, 0.0, 1.0, 1.0, 1.0)">
      <path d="M31.9 11.7 L31.9 13.15 14.8 13.15 14.8 11.7 31.9 11.7" fill="#faf8c3" fill-rule="evenodd" stroke="none"/>
      <path d="M32.0 10.8 L32.0 11.45 14.9 11.45 14.9 10.8 32.0 10.8" fill="#faf8c3" fill-rule="evenodd" stroke="none"/>
      <path d="M31.95 13.6 L31.95 13.95 15.95 13.95 15.95 13.6 31.95 13.6" fill="#faf8c3" fill-rule="evenodd" stroke="none"/>
      <path d="M20.2 18.4 L20.2 18.9 20.2 19.25 20.2 19.55 20.15 19.65 20.15 19.7 20.1 19.8 20.05 19.9 20.0 20.0 19.9 20.1 19.9 20.2 19.85 20.3 19.8 20.4 19.5 20.75 18.85 21.4 18.35 21.8 18.2 21.9 18.1 21.95 17.95 22.05 17.85 22.15 17.65 22.2 17.5 22.3 17.35 22.4 17.2 22.45 17.1 22.55 16.9 22.6 16.75 22.7 16.65 22.75 16.45 22.8 15.85 22.8 15.45 22.75 15.3 22.65 15.2 22.55 15.1 22.45 15.05 22.4 14.95 22.3 14.9 22.2 14.9 22.1 14.8 22.0 14.75 21.9 14.7 21.8 14.65 21.65 14.65 21.45 14.65 21.05 14.7 20.8 14.7 20.7 14.75 20.6 14.8 20.5 14.8 20.4 14.8 20.3 14.8 20.2 14.85 20.15 14.9 20.05 14.9 19.95 14.9 19.85 14.9 19.75 14.95 19.65 15.0 19.55 15.0 19.45 15.05 19.4 15.05 19.3 15.05 19.1 15.05 18.9 15.05 18.65 15.05 18.35 15.05 18.25 15.1 18.15 15.15 18.05 15.15 17.95 15.15 17.9 15.2 17.7 15.25 17.6 15.3 17.5 15.4 17.4 15.4 17.3 15.5 17.2 15.55 17.15 15.8 16.95 15.9 16.9 16.05 16.85 16.25 16.8 16.25 16.7 16.25 16.6 16.25 16.5 16.25 16.3 16.25 16.05 16.25 15.85 16.3 15.75 16.4 15.65 16.45 15.55 16.55 15.45 16.75 15.4 16.9 15.3 17.1 15.3 17.3 15.3 17.45 15.4 17.65 15.45 17.8 15.55 17.9 15.65 17.95 15.75 18.0 15.85 18.05 15.95 18.15 16.05 18.2 16.1 18.45 16.2 18.9 16.35 19.4 16.65 19.5 16.7 19.7 16.9 19.85 17.1 20.05 17.45 20.15 17.65 20.2 17.95 20.2 18.4" fill="#733c2f" fill-rule="evenodd" stroke="none"/>
      <path d="M23.7 10.3 Q23.7 12.85 21.9 14.6 20.15 16.4 17.6 16.4 15.1 16.4 13.3 14.6 11.55 12.85 11.55 10.3 11.55 7.8 13.3 6.0 15.1 4.25 17.6 4.25 20.15 4.25 21.9 6.0 23.7 7.8 23.7 10.3 M15.7 12.6 Q15.7 13.15 16.1 13.55 16.5 13.95 17.05 13.95 17.65 13.95 18.05 13.55 L18.45 12.9 15.7 12.6" fill="#733c2f" fill-rule="evenodd" stroke="none"/>
      <path d="M15.7 12.6 L18.45 12.9 18.05 13.55 Q17.65 13.95 17.05 13.95 16.5 13.95 16.1 13.55 15.7 13.15 15.7 12.6" fill="#fcf9e0" fill-rule="evenodd" stroke="none"/>
      <path d="M22.3 11.75 Q22.3 12.35 21.85 12.75 21.45 13.15 20.8 13.15 L20.0 12.95 19.95 12.9 Q21.4 11.9 21.95 10.85 L22.3 11.75" fill="#fcf9e0" fill-rule="evenodd" stroke="none"/>
      <path d="M15.6 32.0 L0.0 32.0 0.0 0.0 15.6 0.0 15.6 32.0" fill="#733c2f" fill-rule="evenodd" stroke="none"/>
      <path d="M15.6 32.0 L15.6 0.0 16.6 0.0 16.6 32.0 15.6 32.0" fill="#cccc00" fill-rule="evenodd" stroke="none"/>
      <path d="M17.75 21.15 L17.9 21.45 18.2 22.2 18.25 22.55 18.15 23.15 18.1 23.25 17.85 23.7 18.05 24.0 18.15 24.45 Q18.05 26.05 16.7 26.65 L16.55 26.7 Q14.9 27.1 14.05 25.85 L13.9 25.45 13.9 25.0 13.95 24.75 13.9 24.7 13.5 24.4 12.9 23.6 Q12.65 23.25 12.7 22.85 L12.8 22.15 13.0 21.75 13.35 21.3 Q13.05 20.8 13.05 20.2 13.05 19.25 13.85 18.6 14.55 18.0 15.5 18.0 16.45 18.0 17.15 18.6 17.95 19.25 17.95 20.2 L17.75 21.15" fill="#cccc00" fill-rule="evenodd" stroke="none"/>
      <path d="M16.25 19.3 L16.35 19.3 16.55 19.35 16.7 19.45 16.75 19.55 16.8 19.6 16.85 19.7 16.9 19.8 16.95 19.9 16.95 20.0 16.95 20.1 16.95 20.2 16.9 20.3 16.9 20.4 16.9 20.45 16.85 20.55 16.8 20.65 16.75 20.75 16.7 20.85 16.6 20.95 16.3 21.2 16.05 21.4 15.9 21.45 15.8 21.5 14.9 21.45 14.4 21.25 14.3 21.15 14.25 21.05 14.15 20.95 14.15 20.9 14.1 20.8 14.1 20.7 14.1 20.5 14.05 20.4 14.05 20.3 14.05 20.15 14.1 20.05 14.15 19.95 14.2 19.85 14.25 19.75 14.4 19.55 14.5 19.45 14.55 19.4 14.75 19.3 14.9 19.2 15.1 19.2 15.85 19.2 16.25 19.3 M15.3 21.65 L15.5 21.6 16.1 21.6 16.55 21.7 16.75 21.75 16.9 21.85 16.95 21.95 17.05 22.05 17.1 22.15 17.15 22.2 17.15 22.3 17.2 22.5 17.25 22.6 17.25 22.7 17.25 22.8 17.25 22.85 17.25 22.95 17.2 23.05 17.15 23.15 17.15 23.25 17.1 23.35 16.95 23.6 16.75 23.8 16.35 24.05 16.5 24.05 16.75 24.1 16.9 24.2 17.0 24.3 17.05 24.35 17.1 24.45 17.15 24.55 17.15 24.65 17.15 24.75 17.1 24.85 17.1 25.05 17.05 25.15 17.0 25.2 16.9 25.4 16.5 25.75 16.4 25.85 16.3 25.85 16.1 25.9 16.0 25.9 15.5 25.85 15.25 25.8 15.05 25.7 15.0 25.6 14.9 25.5 14.85 25.4 14.85 25.3 14.8 25.2 14.8 25.15 14.85 25.05 14.85 24.95 14.9 24.85 14.95 24.75 15.0 24.65 15.0 24.55 15.05 24.45 15.1 24.4 15.15 24.3 15.25 24.2 15.35 24.15 14.45 24.05 14.3 23.95 14.2 23.9 14.0 23.7 13.85 23.5 13.75 23.3 13.7 23.2 13.7 23.15 13.7 23.05 13.7 22.95 13.7 22.85 13.7 22.75 13.75 22.65 13.75 22.55 13.8 22.45 13.8 22.4 13.9 22.3 14.4 21.9 15.2 21.65 15.3 21.65" fill="#733c2f" fill-rule="evenodd" stroke="none"/>
      <path d="M0.0 0.0 L32.0 0.0 32.0 32.0 0.0 32.0 0.0 0.0 Z" fill="none" stroke="#733c2f" stroke-linecap="round" stroke-linejoin="round" stroke-width="2.0"/>
    </g>
  </defs>
</svg>
