<?xml version="1.0" encoding="UTF-8" standalone="no"?>
<svg xmlns:xlink="http://www.w3.org/1999/xlink" height="34" width="34" xmlns="http://www.w3.org/2000/svg">
  <g transform="matrix(1.0, 0.0, 0.0, 1.0, 1, 1)">
    <use height="35.7" transform="matrix(1.0, 0.0, 0.0, 1.0, -1.5, -1.0)" width="34.5" xlink:href="#sprite0"/>
  </g>
  <defs>
    <g id="sprite0" transform="matrix(1.0, 0.0, 0.0, 1.0, 1.5, 1.0)">
      <use height="34.0" transform="matrix(1.0, 0.0, 0.0, 1.0, -1.0, -1.0)" width="34.0" xlink:href="#sprite1"/>
      <clipPath id="clipPath0" transform="matrix(0.9688, 0.0, 0.0, 0.9688, 0.5, 0.5)">
        <path d="M0.0 32.0 L0.0 0.0 32.0 0.0 32.0 32.0 0.0 32.0" fill="#ff0000" fill-rule="evenodd" stroke="none"/>
      </clipPath>
      <g clip-path="url(#clipPath0)">
        <use height="34.0" transform="matrix(1.0, 0.0, 0.0, 1.0, -1.0, -1.0)" width="34.0" xlink:href="#sprite1"/>
        <use height="33.35" transform="matrix(1.0, 0.0, 0.0, 1.0, -1.5, 1.35)" width="33.65" xlink:href="#shape2"/>
      </g>
    </g>
    <g id="sprite1" transform="matrix(1.0, 0.0, 0.0, 1.0, 1.0, 1.0)">
      <use height="34.0" transform="matrix(1.0, 0.0, 0.0, 1.0, -1.0, -1.0)" width="34.0" xlink:href="#shape0"/>
    </g>
    <g id="shape0" transform="matrix(1.0, 0.0, 0.0, 1.0, 1.0, 1.0)">
      <path d="M0.0 32.0 L0.0 0.0 32.0 0.0 32.0 32.0 0.0 32.0" fill="#cccc00" fill-rule="evenodd" stroke="none"/>
      <path d="M0.0 32.0 L0.0 0.0 32.0 0.0 32.0 32.0 0.0 32.0 Z" fill="none" stroke="#733c2f" stroke-linecap="round" stroke-linejoin="round" stroke-width="2.0"/>
    </g>
    <g id="shape2" transform="matrix(1.0, 0.0, 0.0, 1.0, 1.5, -1.35)">
      <path d="M20.65 6.85 Q20.6 5.85 20.15 6.85 19.85 7.5 20.4 7.25 L20.6 7.1 Q20.25 8.05 19.5 8.8 L18.5 9.6 18.55 9.75 18.95 11.2 20.9 11.6 Q21.6 12.15 21.7 12.9 L22.1 14.55 22.45 14.85 23.45 15.45 Q24.2 15.8 24.45 16.85 25.3 16.15 25.85 16.2 L27.45 16.25 27.9 16.4 28.45 16.4 Q29.1 16.4 29.8 17.0 L29.9 17.3 29.8 18.4 29.65 18.95 29.55 19.3 29.5 19.75 29.3 20.25 28.75 21.1 Q27.85 21.2 27.15 20.65 26.8 20.4 26.25 20.3 L25.85 20.45 Q24.85 21.0 23.75 20.85 L22.95 20.55 Q22.45 20.5 22.1 20.05 L21.4 19.4 20.55 18.25 20.35 18.55 20.2 18.95 20.0 19.8 19.7 20.05 Q19.3 20.4 19.2 20.8 L19.45 21.75 19.55 23.3 19.7 24.5 20.2 26.1 20.45 27.1 20.6 27.55 20.75 28.0 20.9 29.0 20.85 29.7 20.75 30.25 20.8 31.1 Q21.0 31.65 20.7 32.0 L17.35 31.9 17.05 31.35 15.95 30.85 15.7 29.0 15.6 28.45 15.5 28.1 15.4 27.75 15.25 27.35 15.15 27.05 14.7 26.15 Q14.35 25.95 14.35 26.4 L14.35 28.1 14.45 29.1 14.35 29.5 14.15 30.1 13.95 30.55 13.7 31.45 Q13.2 32.05 12.55 32.0 L11.3 31.65 Q10.55 31.7 9.9 31.15 L9.8 30.4 9.65 28.4 Q9.6 27.2 10.0 26.05 L10.15 25.45 10.55 23.6 10.6 23.2 Q10.45 21.8 10.65 20.35 L10.75 19.1 Q10.75 17.2 11.15 15.35 L11.3 15.05 11.45 14.65 11.55 14.15 11.75 13.8 11.95 13.4 12.9 11.75 Q12.85 11.0 13.05 10.2 L13.15 9.75 Q13.25 9.3 13.5 8.9 L13.4 8.8 Q12.15 7.5 12.15 5.7 12.15 3.9 13.4 2.6 14.65 1.35 16.45 1.35 18.25 1.35 19.5 2.6 20.8 3.9 20.8 5.7 L20.65 6.85 M17.3 7.15 Q17.2 7.6 17.65 7.75 L18.05 8.15 Q18.85 8.3 19.5 7.7 L19.6 7.7 17.75 7.15 Q17.55 7.0 17.3 7.15" fill="#733c2f" fill-rule="evenodd" stroke="none"/>
      <path d="M20.65 6.85 L20.6 7.1 20.4 7.25 Q19.85 7.5 20.15 6.85 20.6 5.85 20.65 6.85 M17.3 7.15 Q17.55 7.0 17.75 7.15 L19.6 7.7 19.5 7.7 Q18.85 8.3 18.05 8.15 L17.65 7.75 Q17.2 7.6 17.3 7.15" fill="#fcf9e0" fill-rule="evenodd" stroke="none"/>
      <path d="M31.6 5.35 L30.65 3.55 29.2 5.15 27.3 15.35 28.15 15.55 30.35 5.5 28.65 15.7 29.55 15.85 31.6 5.35 M31.1 2.4 L32.15 5.2 30.25 16.15 31.05 16.25 30.85 17.2 29.55 17.15 29.25 17.75 26.5 17.25 26.65 16.4 25.7 16.05 25.75 15.05 26.5 15.25 28.65 4.9 31.1 2.4" fill="#733c2f" fill-rule="evenodd" stroke="none"/>
      <path d="M31.6 5.35 L29.55 15.85 28.65 15.7 30.35 5.5 28.15 15.55 27.3 15.35 29.2 5.15 30.65 3.55 31.6 5.35" fill="#fcf9e0" fill-rule="evenodd" stroke="none"/>
      <path d="M26.35 21.15 L26.5 19.65 28.35 20.0 28.2 21.5 26.35 21.15" fill="#733c2f" fill-rule="evenodd" stroke="none"/>
      <path d="M19.75 14.45 L19.9 14.6 21.35 15.75 21.45 15.95 Q22.3 16.65 22.6 17.6 L22.7 17.9 22.75 18.1 22.8 18.75 22.8 18.8 22.15 20.5 22.15 20.45 21.75 21.0 21.2 21.6 21.2 23.0 21.15 23.05 21.15 23.25 21.1 23.65 20.8 24.1 Q20.5 24.45 20.0 24.65 L19.9 24.65 19.85 24.75 19.6 24.95 19.4 25.1 18.95 25.15 18.5 25.15 18.4 25.4 18.0 25.95 17.85 26.0 17.45 26.05 17.1 26.0 19.6 33.4 19.6 34.0 19.25 34.5 18.65 34.7 12.5 34.7 11.9 34.5 11.55 33.95 10.9 31.65 9.8 33.3 9.65 33.4 9.15 33.9 8.45 34.2 4.25 34.15 3.65 33.95 3.3 33.45 3.3 32.85 4.35 29.9 4.4 29.8 5.5 27.5 4.55 27.7 Q5.1 27.55 2.05 27.1 L1.95 27.05 1.6 26.75 1.35 26.15 1.55 25.6 3.15 22.8 1.8 21.95 1.7 21.95 Q0.3 21.95 -0.5 21.0 L-0.45 21.0 -0.5 20.95 -0.55 20.9 Q-1.15 20.1 -1.4 18.95 L-1.45 18.8 -1.45 18.1 -1.35 17.75 -1.2 17.5 0.7 14.5 Q0.8 14.25 1.05 14.15 L1.45 13.95 2.2 13.85 2.25 13.85 2.65 13.95 2.7 13.95 4.25 14.95 4.25 14.7 4.45 14.25 Q5.25 13.0 6.55 12.45 L6.45 12.4 5.8 11.8 5.7 11.7 Q4.25 10.15 4.25 8.0 4.25 5.8 5.8 4.2 7.35 2.65 9.55 2.65 11.75 2.65 13.3 4.2 14.9 5.8 14.9 8.0 L14.75 9.45 14.75 9.5 14.25 10.65 14.2 10.7 14.2 10.8 14.15 10.65 14.1 10.85 14.25 10.9 14.25 10.85 14.45 11.05 14.65 11.2 14.7 11.25 15.9 11.4 Q17.1 11.15 18.4 12.05 L19.25 12.95 19.4 13.2 19.75 14.45 M20.95 16.55 L20.9 16.5 20.85 16.45 20.75 16.4 20.7 16.35 20.6 16.3 20.55 16.25 20.5 16.15 20.25 16.0 20.05 15.9 19.9 15.8 19.8 15.75 19.6 15.5 19.25 15.2 19.15 15.05 19.0 14.9 18.8 14.65 18.75 14.6 18.75 14.5 18.75 14.15 18.7 14.1 18.7 14.05 18.7 13.95 18.7 13.9 18.65 13.85 18.65 13.8 18.55 13.7 18.5 13.65 18.5 13.6 18.45 13.55 18.45 13.5 18.45 13.4 18.4 13.35 18.35 13.3 18.35 13.25 18.3 13.2 18.3 13.15 18.25 13.1 18.2 13.05 18.15 13.0 18.05 12.95 17.95 12.85 17.85 12.75 17.8 12.7 17.7 12.65 17.6 12.6 17.5 12.55 17.45 12.5 17.35 12.45 17.25 12.4 16.9 12.35 16.2 12.35 16.15 12.3 16.05 12.3 15.9 12.25 15.8 12.25 15.7 12.2 15.55 12.15 14.9 12.15 14.9 12.2 14.8 12.2 14.75 12.2 14.7 12.25 14.1 12.0 14.0 11.95 13.95 11.85 13.8 11.8 13.65 11.75 13.6 11.65 13.55 11.6 13.55 11.5 13.45 11.45 13.45 11.35 13.4 11.3 13.4 11.25 13.4 11.15 13.4 11.1 13.35 11.0 13.35 10.95 13.3 10.85 13.25 10.8 13.25 10.75 13.2 10.6 13.15 10.45 13.8 9.1 13.95 7.9 Q13.95 6.1 12.65 4.8 11.4 3.55 9.6 3.55 7.8 3.55 6.55 4.8 5.3 6.1 5.3 7.9 5.3 9.65 6.45 10.9 L6.55 11.0 7.05 11.45 7.2 11.55 8.6 12.2 8.55 12.25 8.55 12.35 8.55 12.4 8.55 12.5 8.5 12.55 8.45 12.65 8.45 12.75 8.45 12.85 8.4 12.9 8.0 13.0 Q6.25 13.25 5.3 14.65 L4.9 16.7 4.4 17.05 4.35 17.15 4.1 16.35 Q3.6 15.3 2.35 14.75 L1.6 14.85 -0.4 18.1 -0.35 18.95 Q0.1 20.9 2.2 20.8 4.15 22.5 5.55 21.85 6.55 21.35 6.75 20.45 L6.95 20.55 7.95 20.15 7.75 20.0 7.7 19.95 7.7 19.9 7.5 19.8 7.4 19.75 7.35 19.7 7.25 19.65 7.2 19.6 7.2 19.55 7.1 19.55 7.0 19.5 6.9 19.4 6.85 19.35 6.75 19.3 6.7 19.3 6.65 19.25 6.65 19.0 6.65 18.7 6.65 18.5 6.65 18.45 6.7 18.4 6.7 18.35 6.8 18.35 6.8 18.3 6.95 18.45 6.95 18.6 6.95 18.8 6.95 18.95 6.95 19.05 7.0 19.1 7.15 19.15 7.2 19.2 7.25 19.25 7.3 19.3 7.35 19.35 7.4 19.35 7.45 19.4 7.5 19.4 7.6 19.45 7.6 19.5 7.65 19.55 7.7 19.55 7.75 19.6 7.85 19.65 7.9 19.7 7.95 19.75 8.05 19.8 8.1 19.8 8.15 19.85 8.2 19.85 8.3 19.85 8.35 19.9 8.4 19.95 8.4 20.0 8.45 20.05 8.6 20.1 8.65 20.15 8.7 20.2 8.7 20.3 8.75 20.35 8.75 20.45 8.75 20.55 8.7 20.55 8.65 20.6 8.7 20.65 8.65 20.85 8.65 20.95 8.65 21.45 14.45 20.1 15.45 19.6 15.9 19.65 16.15 19.2 16.55 17.95 16.55 17.85 16.1 17.15 14.8 16.7 15.45 16.65 16.7 17.0 16.95 17.4 17.45 17.4 16.8 18.6 17.4 19.25 17.6 19.45 17.35 19.4 16.5 19.8 14.75 20.45 8.65 21.85 8.65 21.9 4.0 23.2 2.4 26.0 5.35 27.1 16.75 24.35 17.5 24.95 18.1 23.7 18.15 23.75 18.2 23.85 18.25 23.95 18.3 24.0 18.55 24.1 19.0 24.05 19.3 23.85 19.45 23.7 19.55 23.6 19.6 23.55 19.7 23.5 19.9 23.45 20.0 23.4 20.05 23.4 20.15 23.3 20.2 23.2 20.25 23.15 20.3 23.1 20.3 22.8 20.25 22.8 20.25 22.65 20.3 22.65 20.3 22.6 20.35 22.55 20.35 22.5 20.35 22.4 20.35 22.2 20.3 22.0 20.3 21.75 20.25 21.55 20.2 21.45 20.2 21.4 20.15 21.35 20.15 21.3 20.1 21.2 20.0 21.0 20.0 20.95 20.15 20.9 20.25 20.9 20.3 20.85 20.35 20.8 20.65 20.7 20.75 20.65 20.8 20.6 20.85 20.55 20.9 20.5 20.95 20.45 21.05 20.25 21.15 20.15 21.2 20.05 21.85 18.3 21.15 16.85 21.1 16.75 21.05 16.65 21.0 16.6 20.95 16.55 M21.1 21.25 L20.8 21.8 21.2 21.6 21.15 21.45 21.1 21.2 21.1 21.25 M6.8 12.6 L6.85 12.65 6.85 12.6 6.8 12.6 M15.6 25.15 L6.45 27.3 4.05 33.05 8.25 33.1 8.75 32.6 11.1 29.15 12.3 33.6 18.45 33.6 15.6 25.15" fill="#cccc00" fill-rule="evenodd" stroke="none"/>
      <path d="M20.95 16.55 L21.0 16.6 21.05 16.65 21.1 16.75 21.15 16.85 21.85 18.3 21.2 20.05 21.15 20.15 21.05 20.25 20.95 20.45 20.9 20.5 20.85 20.55 20.8 20.6 20.75 20.65 20.65 20.7 20.35 20.8 20.3 20.85 20.25 20.9 20.15 20.9 20.0 20.95 20.0 21.0 20.1 21.2 20.15 21.3 20.15 21.35 20.2 21.4 20.2 21.45 20.25 21.55 20.3 21.75 20.3 22.0 20.35 22.2 20.35 22.4 20.35 22.5 20.35 22.55 20.3 22.6 20.3 22.65 20.25 22.65 20.25 22.8 20.3 22.8 20.3 23.1 20.25 23.15 20.2 23.2 20.15 23.3 20.05 23.4 20.0 23.4 19.9 23.45 19.7 23.5 19.6 23.55 19.55 23.6 19.45 23.7 19.3 23.85 19.0 24.05 18.55 24.1 18.3 24.0 18.25 23.95 18.2 23.85 18.15 23.75 18.1 23.7 17.5 24.95 16.75 24.35 5.35 27.1 2.4 26.0 4.0 23.2 8.65 21.9 8.65 21.85 14.75 20.45 16.5 19.8 17.35 19.4 17.6 19.45 17.4 19.25 16.8 18.6 17.45 17.4 16.95 17.4 16.7 17.0 15.45 16.65 14.8 16.7 16.1 17.15 16.55 17.85 16.55 17.95 16.15 19.2 15.9 19.65 15.45 19.6 14.45 20.1 8.65 21.45 8.65 20.95 8.65 20.85 8.7 20.65 8.65 20.6 8.7 20.55 8.75 20.55 8.75 20.45 8.75 20.35 8.7 20.3 8.7 20.2 8.65 20.15 8.6 20.1 8.45 20.05 8.4 20.0 8.4 19.95 8.35 19.9 8.3 19.85 8.2 19.85 8.15 19.85 8.1 19.8 8.05 19.8 7.95 19.75 7.9 19.7 7.85 19.65 7.75 19.6 7.7 19.55 7.65 19.55 7.6 19.5 7.6 19.45 7.5 19.4 7.45 19.4 7.4 19.35 7.35 19.35 7.3 19.3 7.25 19.25 7.2 19.2 7.15 19.15 7.0 19.1 6.95 19.05 6.95 18.95 6.95 18.8 6.95 18.6 6.95 18.45 6.8 18.3 6.8 18.35 6.7 18.35 6.7 18.4 6.65 18.45 6.65 18.5 6.65 18.7 6.65 19.0 6.65 19.25 6.7 19.3 6.75 19.3 6.85 19.35 6.9 19.4 7.0 19.5 7.1 19.55 7.2 19.55 7.2 19.6 7.25 19.65 7.35 19.7 7.4 19.75 7.5 19.8 7.7 19.9 7.7 19.95 7.75 20.0 7.95 20.15 6.95 20.55 6.75 20.45 Q6.55 21.35 5.55 21.85 4.15 22.5 2.2 20.8 0.1 20.9 -0.35 18.95 L-0.4 18.1 1.6 14.85 2.35 14.75 Q3.6 15.3 4.1 16.35 L4.35 17.15 4.4 17.05 4.9 16.7 5.3 14.65 Q6.25 13.25 8.0 13.0 L8.4 12.9 8.45 12.85 8.45 12.75 8.45 12.65 8.5 12.55 8.55 12.5 8.55 12.4 8.55 12.35 8.55 12.25 8.6 12.2 7.2 11.55 7.05 11.45 6.55 11.0 6.45 10.9 Q5.3 9.65 5.3 7.9 5.3 6.1 6.55 4.8 7.8 3.55 9.6 3.55 11.4 3.55 12.65 4.8 13.95 6.1 13.95 7.9 L13.8 9.1 13.15 10.45 13.2 10.6 13.25 10.75 13.25 10.8 13.3 10.85 13.35 10.95 13.35 11.0 13.4 11.1 13.4 11.15 13.4 11.25 13.4 11.3 13.45 11.35 13.45 11.45 13.55 11.5 13.55 11.6 13.6 11.65 13.65 11.75 13.8 11.8 13.95 11.85 14.0 11.95 14.1 12.0 14.7 12.25 14.75 12.2 14.8 12.2 14.9 12.2 14.9 12.15 15.55 12.15 15.7 12.2 15.8 12.25 15.9 12.25 16.05 12.3 16.15 12.3 16.2 12.35 16.9 12.35 17.25 12.4 17.35 12.45 17.45 12.5 17.5 12.55 17.6 12.6 17.7 12.65 17.8 12.7 17.85 12.75 17.95 12.85 18.05 12.95 18.15 13.0 18.2 13.05 18.25 13.1 18.3 13.15 18.3 13.2 18.35 13.25 18.35 13.3 18.4 13.35 18.45 13.4 18.45 13.5 18.45 13.55 18.5 13.6 18.5 13.65 18.55 13.7 18.65 13.8 18.65 13.85 18.7 13.9 18.7 13.95 18.7 14.05 18.7 14.1 18.75 14.15 18.75 14.5 18.75 14.6 18.8 14.65 19.0 14.9 19.15 15.05 19.25 15.2 19.6 15.5 19.8 15.75 19.9 15.8 20.05 15.9 20.25 16.0 20.5 16.15 20.55 16.25 20.6 16.3 20.7 16.35 20.75 16.4 20.85 16.45 20.9 16.5 20.95 16.55 M10.35 9.4 L8.9 10.45 8.8 10.6 10.35 10.7 11.15 9.65 11.1 9.2 10.45 9.3 10.35 9.4 M6.6 9.5 L6.4 9.25 Q5.8 9.65 6.4 10.25 L6.85 10.8 Q7.3 11.1 7.65 10.8 L7.7 10.7 Q7.65 10.25 7.15 9.95 L6.6 9.5 M5.7 23.3 L4.9 23.95 3.4 25.7 5.4 26.25 16.8 23.95 16.8 23.15 4.85 25.1 16.75 22.2 16.35 21.3 5.7 23.3 M18.0 17.75 L18.25 17.35 18.05 17.35 18.0 17.75 M15.6 25.15 L18.45 33.6 12.3 33.6 11.1 29.15 8.75 32.6 8.25 33.1 4.05 33.05 6.45 27.3 15.6 25.15" fill="#733c2f" fill-rule="evenodd" stroke="none"/>
      <path d="M6.6 9.5 L7.15 9.95 Q7.65 10.25 7.7 10.7 L7.65 10.8 Q7.3 11.1 6.85 10.8 L6.4 10.25 Q5.8 9.65 6.4 9.25 L6.6 9.5 M10.35 9.4 L10.45 9.3 11.1 9.2 11.15 9.65 10.35 10.7 8.8 10.6 8.9 10.45 10.35 9.4 M5.7 23.3 L16.35 21.3 16.75 22.2 4.85 25.1 16.8 23.15 16.8 23.95 5.4 26.25 3.4 25.7 4.9 23.95 5.7 23.3" fill="#fcf9e0" fill-rule="evenodd" stroke="none"/>
    </g>
  </defs>
</svg>
