<svg xmlns="http://www.w3.org/2000/svg" xmlns:xlink="http://www.w3.org/1999/xlink" width="34" height="34"><g transform="matrix(1.0, 0.0, 0.0, 1.0, 1, 1)"><use width="34" height="34" transform="matrix(1.0, 0.0, 0.0, 1.0, -1.0, -1.0)" xlink:href="#sprite0"/></g><defs><g id="sprite0" transform="matrix(1.0, 0.0, 0.0, 1.0, 1.0, 1.0)"><use width="34" height="34" transform="matrix(1.0, 0.0, 0.0, 1.0, -1.0, -1.0)" xlink:href="#sprite1"/><use width="34" height="34" transform="matrix(1.0, 0.0, 0.0, 1.0, -1.0, -1.0)" xlink:href="#shape1"/></g><g id="sprite1" transform="matrix(1.0, 0.0, 0.0, 1.0, 1.0, 1.0)"><use width="34" height="34" transform="matrix(1.0, 0.0, 0.0, 1.0, -1.0, -1.0)" xlink:href="#shape0"/></g><g id="shape0"><path fill="#cc0" fill-rule="evenodd" stroke="none" d="M0.0 32.0 L0.0 0.0 32.0 0.0 32.0 32.0 0.0 32.0" transform="matrix(1.0, 0.0, 0.0, 1.0, 1.0, 1.0)"/><path fill="none" stroke="#733c2f" stroke-linecap="round" stroke-linejoin="round" stroke-width="2" d="M0.0 32.0 L0.0 0.0 32.0 0.0 32.0 32.0 0.0 32.0 Z" transform="matrix(1.0, 0.0, 0.0, 1.0, 1.0, 1.0)"/></g><g id="shape1"><path fill="#fcf9e0" fill-rule="evenodd" stroke="none" d="M22.15 0.0 L32.0 0.0 32.0 32.0 29.25 32.0 17.15 16.45 22.15 0.0 M22.4 32.0 L15.35 32.0 14.75 21.9 13.3 19.75 12.45 0.0 17.3 0.0 16.95 4.15 16.65 7.95 16.3 12.05 Q15.95 15.95 17.65 19.85 L20.15 25.9 20.8 27.5 22.4 32.0" transform="matrix(1.0, 0.0, 0.0, 1.0, 1.0, 1.0)"/><path fill="none" stroke="#733c2f" stroke-linecap="round" stroke-linejoin="round" stroke-width="2" d="M22.15 0.0 L32.0 0.0 32.0 32.0 29.25 32.0 22.4 32.0 15.35 32.0 0.0 32.0 0.0 0.0 12.45 0.0 17.3 0.0 22.15 0.0 Z" transform="matrix(1.0, 0.0, 0.0, 1.0, 1.0, 1.0)"/><path fill="#733c2f" fill-rule="evenodd" stroke="none" d="M23.9 9.1 L23.95 9.1 23.8 9.0 23.9 9.1 M23.8 9.0 Q22.35 7.5 21.6 7.2 L20.45 7.1 Q20.0 7.35 19.95 8.15 L20.65 7.7 22.1 8.1 23.8 9.0 M25.05 7.25 Q24.55 7.9 24.55 8.4 L24.55 8.75 Q24.6 8.3 25.0 8.25 25.45 8.1 25.2 7.65 L25.05 7.25 M24.0 9.9 Q22.1 11.55 22.05 14.1 22.0 16.1 23.6 17.4 L24.75 18.15 27.0 18.2 Q28.05 17.65 28.35 16.9 28.7 13.75 27.15 11.35 25.65 8.95 24.0 9.9 M12.65 9.45 Q12.7 9.9 12.35 10.2 11.0 11.55 10.05 9.85 L10.1 9.8 Q10.25 8.8 11.25 8.65 12.05 8.8 12.65 9.45 M28.85 12.9 Q29.45 14.9 29.0 16.95 28.45 19.65 26.0 20.85 L25.15 21.1 Q22.15 21.4 19.55 19.9 L19.15 20.4 Q16.55 23.5 12.55 23.85 L12.05 23.85 10.65 23.8 Q9.15 23.55 7.85 22.7 L6.95 22.0 Q7.05 23.85 7.7 25.7 8.4 27.55 7.7 27.8 7.05 28.05 6.7 28.25 2.3 29.1 1.8 28.3 1.35 27.5 1.95 26.4 2.55 25.25 6.45 24.7 L6.4 24.55 6.35 24.0 Q6.1 21.8 5.4 19.75 L5.0 18.1 Q4.75 15.7 6.35 13.9 L7.0 13.25 5.4 10.25 5.1 10.45 Q2.75 11.15 2.25 8.8 1.85 6.8 3.7 6.4 L4.95 7.2 5.45 7.85 7.8 12.15 7.95 12.5 Q10.1 11.1 12.9 11.45 L13.8 9.8 Q15.9 6.1 19.9 5.0 L20.15 5.05 Q22.6 5.1 24.5 6.6 27.7 8.95 28.85 12.9 M9.8 24.25 L11.5 24.25 11.0 25.15 Q13.2 25.15 13.5 26.85 13.6 27.35 13.35 27.65 L9.6 27.65 9.3 27.25 Q9.0 25.75 9.7 24.4 L9.8 24.25" transform="matrix(1.0, 0.0, 0.0, 1.0, 1.0, 1.0)"/></g></defs></svg>