<?xml version="1.0" encoding="UTF-8" standalone="no"?>
<svg xmlns:xlink="http://www.w3.org/1999/xlink" height="34" width="34" xmlns="http://www.w3.org/2000/svg">
  <g transform="matrix(1.0, 0.0, 0.0, 1.0, 1, 1)">
    <use height="34.35" transform="matrix(1.0, 0.0, 0.0, 1.0, -1.0, -1.0)" width="34.0" xlink:href="#sprite0"/>
  </g>
  <defs>
    <g id="sprite0" transform="matrix(1.0, 0.0, 0.0, 1.0, 1.0, 1.0)">
      <use height="34.0" transform="matrix(1.0, 0.0, 0.0, 1.0, -1.0, -1.0)" width="34.0" xlink:href="#sprite1"/>
      <clipPath id="clipPath0" transform="matrix(0.9688, 0.0, 0.0, 0.9688, 0.5, 0.5)">
        <path d="M0.0 32.0 L0.0 0.0 32.0 0.0 32.0 32.0 0.0 32.0" fill="#ff0000" fill-rule="evenodd" stroke="none"/>
      </clipPath>
      <g clip-path="url(#clipPath0)">
        <use height="33.9" transform="matrix(1.0, 0.0, 0.0, 1.0, -0.25, -0.55)" width="33.05" xlink:href="#shape2"/>
        <use height="13.25" transform="matrix(1.0, 0.0, 0.0, 1.0, 13.75, 11.2)" width="18.1" xlink:href="#sprite2"/>
        <use height="20.75" transform="matrix(1.0, 0.0, 0.0, 1.0, 6.8, 3.1)" width="22.85" xlink:href="#shape4"/>
      </g>
    </g>
    <g id="sprite1" transform="matrix(1.0, 0.0, 0.0, 1.0, 1.0, 1.0)">
      <use height="34.0" transform="matrix(1.0, 0.0, 0.0, 1.0, -1.0, -1.0)" width="34.0" xlink:href="#shape0"/>
    </g>
    <g id="shape0" transform="matrix(1.0, 0.0, 0.0, 1.0, 1.0, 1.0)">
      <path d="M0.0 32.0 L0.0 0.0 32.0 0.0 32.0 32.0 0.0 32.0" fill="#cccc00" fill-rule="evenodd" stroke="none"/>
      <path d="M0.0 32.0 L0.0 0.0 32.0 0.0 32.0 32.0 0.0 32.0 Z" fill="none" stroke="#733c2f" stroke-linecap="round" stroke-linejoin="round" stroke-width="2.0"/>
    </g>
    <g id="shape2" transform="matrix(1.0, 0.0, 0.0, 1.0, 0.25, 0.55)">
      <path d="M21.05 -0.55 L32.8 15.5 -0.25 20.45 -0.25 10.85 32.8 15.5 4.6 -0.55 21.05 -0.55 M25.4 -0.55 L32.8 15.5 26.85 -0.55 29.6 -0.55 32.8 15.5 23.35 -0.55 25.4 -0.55 M32.8 15.55 L28.55 33.35 27.45 33.35 32.8 15.55 24.7 33.35 21.9 33.35 32.8 15.55 13.95 33.35 -0.25 33.35 -0.25 31.0 32.8 15.55" fill="#fcf9e0" fill-rule="evenodd" stroke="none"/>
      <path d="M7.45 14.15 L7.45 14.1 8.7 12.9 10.95 10.9 14.3 12.5 12.0 14.25 12.7 16.45 13.5 19.15 13.85 21.2 14.05 22.6 14.05 24.0 13.75 32.35 10.1 32.35 11.15 30.35 11.25 28.05 11.15 26.8 9.55 26.55 8.15 32.35 2.7 32.35 4.6 29.7 5.6 27.25 6.7 24.25 Q6.4 23.7 7.05 21.35 7.65 19.0 6.0 16.2 L5.9 16.05 6.35 15.55 7.45 14.15" fill="#733c2f" fill-rule="evenodd" stroke="none"/>
      <path d="M8.75 15.45 Q8.45 16.5 8.8 16.7 L9.2 17.0 11.05 19.95 3.75 19.6 Q2.9 18.35 4.8 15.9 5.5 13.85 7.35 13.8 9.2 13.8 8.75 15.45" fill="#733c2f" fill-rule="evenodd" stroke="none"/>
    </g>
    <g id="sprite2" transform="matrix(1.0, 0.0, 0.0, 1.0, 1.25, 0.25)">
      <use height="13.25" transform="matrix(1.0, 0.0, 0.0, 1.0, -1.25, -0.25)" width="18.1" xlink:href="#shape3"/>
    </g>
    <g id="shape3" transform="matrix(1.0, 0.0, 0.0, 1.0, 1.25, 0.25)">
      <path d="M16.4 2.6 L16.4 4.6 Q15.95 6.65 14.0 7.15 L12.15 7.25 11.5 6.8 10.95 6.4 Q10.7 5.95 10.35 6.05 L9.7 6.1 Q9.1 5.75 8.9 5.1 L8.7 3.85 Q8.3 2.35 9.75 1.35 11.2 0.3 13.35 0.2 14.95 0.1 15.7 1.1 L16.4 2.6" fill="#fcf9e0" fill-opacity="0.49803922" fill-rule="evenodd" stroke="none"/>
      <path d="M16.85 2.55 L16.85 2.65 16.85 4.65 16.85 4.75 Q16.35 7.1 14.1 7.7 L12.0 7.8 11.75 7.65 11.2 7.3 11.15 7.25 10.6 6.85 10.5 6.7 10.45 6.6 9.55 6.65 9.4 6.6 9.3 6.55 Q8.55 5.8 8.2 5.05 L-1.25 5.05 -1.25 2.5 8.4 2.5 9.3 1.4 Q10.1 0.6 11.25 0.1 L11.5 0.05 13.3 -0.25 Q15.15 -0.35 16.05 0.85 16.5 1.3 16.85 2.55 M16.4 2.6 L15.7 1.1 Q14.95 0.1 13.35 0.2 11.2 0.3 9.75 1.35 8.3 2.35 8.7 3.85 L8.9 5.1 Q9.1 5.75 9.7 6.1 L10.35 6.05 Q10.7 5.95 10.95 6.4 L11.5 6.8 12.15 7.25 14.0 7.15 Q15.95 6.65 16.4 4.6 L16.4 2.6" fill="#733c2f" fill-opacity="0.49803922" fill-rule="evenodd" stroke="none"/>
      <path d="M6.5 5.8 L10.2 5.6 Q11.8 5.95 12.3 7.05 L12.55 8.7 12.0 10.65 Q11.05 12.5 9.05 12.5 7.9 12.5 7.25 12.1 L6.7 11.55 6.3 10.95 Q6.15 10.5 5.8 10.5 L5.2 10.4 Q4.65 9.9 4.65 9.2 L4.75 7.95 Q4.75 6.45 6.5 5.8" fill="#fcf9e0" fill-opacity="0.49803922" fill-rule="evenodd" stroke="none"/>
      <path d="M6.5 5.8 Q4.75 6.45 4.75 7.95 L4.65 9.2 Q4.65 9.9 5.2 10.4 L5.8 10.5 Q6.15 10.5 6.3 10.95 L6.7 11.55 7.25 12.1 Q7.9 12.5 9.05 12.5 11.05 12.5 12.0 10.65 L12.55 8.7 12.3 7.05 Q11.8 5.95 10.2 5.6 L6.5 5.8 M12.65 6.85 L12.65 6.9 Q13.0 7.45 13.0 8.7 L12.95 8.6 12.45 10.75 12.45 10.9 Q11.35 13.05 9.0 13.0 L8.5 13.0 7.65 12.8 7.05 12.55 6.95 12.5 6.25 11.85 5.85 11.25 5.8 11.15 5.75 11.1 Q5.0 11.1 4.75 10.75 L4.8 10.75 Q4.1 10.1 4.1 9.25 L4.1 9.1 4.15 8.95 1.0 8.95 1.0 6.4 4.7 6.4 Q5.2 5.75 6.3 5.3 L10.3 5.15 Q12.1 5.5 12.65 6.85" fill="#733c2f" fill-opacity="0.49803922" fill-rule="evenodd" stroke="none"/>
    </g>
    <g id="shape4" transform="matrix(1.0, 0.0, 0.0, 1.0, -6.8, -3.1)">
      <path d="M14.65 3.1 Q17.0 3.1 18.6 4.7 20.25 6.4 20.25 8.7 20.25 11.0 18.6 12.6 17.0 14.3 14.65 14.3 12.35 14.3 10.7 12.6 9.1 11.0 9.1 8.65 9.1 6.4 10.7 4.7 12.35 3.1 14.65 3.1 M14.1 6.45 Q14.75 8.15 16.45 8.9 L16.95 8.4 15.1 5.8 14.1 6.45 M19.7 8.6 L18.2 9.25 Q18.35 9.85 18.9 9.85 L19.5 9.4 19.7 8.8 19.7 8.6 M18.1 11.5 Q18.1 10.85 17.5 11.1 16.8 11.4 16.8 11.9 L16.85 12.2 Q17.0 12.5 17.4 12.5 L17.85 12.1 18.1 11.5" fill="#733c2f" fill-rule="evenodd" stroke="none"/>
      <path d="M14.1 6.45 L15.1 5.8 16.95 8.4 16.45 8.9 Q14.75 8.15 14.1 6.45 M18.1 11.5 L17.85 12.1 17.4 12.5 Q17.0 12.5 16.85 12.2 L16.8 11.9 Q16.8 11.4 17.5 11.1 18.1 10.85 18.1 11.5 M19.7 8.6 L19.7 8.8 19.5 9.4 18.9 9.85 Q18.35 9.85 18.2 9.25 L19.7 8.6" fill="#fcf9e0" fill-rule="evenodd" stroke="none"/>
      <path d="M23.9 16.15 L11.3 16.15 11.3 13.6 23.9 13.6 23.9 16.15" fill="#733c2f" fill-rule="evenodd" stroke="none"/>
      <path d="M16.1 19.8 L6.8 19.8 6.8 17.25 16.1 17.25 16.1 19.8" fill="#733c2f" fill-rule="evenodd" stroke="none"/>
      <path d="M24.3 11.15 L26.1 10.85 Q27.95 10.75 28.85 11.95 29.3 12.4 29.65 13.65 L29.65 13.75 29.65 15.75 29.65 15.85 Q29.15 18.2 26.9 18.8 L24.8 18.9 24.55 18.75 24.0 18.4 23.95 18.35 23.4 17.95 23.3 17.8 23.25 17.7 22.35 17.75 22.2 17.7 22.1 17.65 Q19.4 14.95 22.1 12.5 22.9 11.7 24.05 11.2 L24.3 11.15" fill="#733c2f" fill-rule="evenodd" stroke="none"/>
      <path d="M26.15 11.3 Q24.0 11.4 22.55 12.45 21.1 13.45 21.5 14.95 L21.7 16.2 Q21.9 16.85 22.5 17.2 L23.15 17.15 Q23.5 17.05 23.75 17.5 L24.3 17.9 24.95 18.35 26.8 18.25 Q28.75 17.75 29.2 15.7 L29.2 13.7 Q28.9 12.6 28.5 12.2 27.75 11.2 26.15 11.3" fill="#fcf9e0" fill-rule="evenodd" stroke="none"/>
      <path d="M10.6 21.6 L10.55 21.6 Q10.8 21.95 11.55 21.95 L11.6 22.0 11.65 22.1 12.05 22.7 12.75 23.35 12.85 23.4 13.45 23.65 14.3 23.85 14.8 23.85 Q17.15 23.9 18.25 21.75 L18.25 21.6 18.75 19.45 18.8 19.55 Q18.8 18.3 18.45 17.75 L18.45 17.7 Q17.9 16.35 16.1 16.0 L12.1 16.15 Q9.95 17.0 10.05 18.8 L9.9 19.95 9.9 20.1 Q9.9 20.95 10.6 21.6" fill="#733c2f" fill-rule="evenodd" stroke="none"/>
      <path d="M16.0 16.45 L12.3 16.65 Q10.55 17.3 10.55 18.8 L10.45 20.05 Q10.45 20.75 11.0 21.25 L11.6 21.35 Q11.95 21.35 12.1 21.8 L12.5 22.4 13.05 22.95 Q13.7 23.35 14.85 23.35 16.85 23.35 17.8 21.5 L18.35 19.55 18.1 17.9 Q17.6 16.8 16.0 16.45" fill="#fcf9e0" fill-rule="evenodd" stroke="none"/>
    </g>
  </defs>
</svg>
