<?xml version="1.0" encoding="UTF-8" standalone="no"?>
<svg xmlns:xlink="http://www.w3.org/1999/xlink" height="34" width="34" xmlns="http://www.w3.org/2000/svg">
  <g transform="matrix(1.0, 0.0, 0.0, 1.0, 1, 1)">
    <use height="34.0" transform="matrix(1.0, 0.0, 0.0, 1.0, -1.0, -1.0)" width="34.0" xlink:href="#sprite0"/>
  </g>
  <defs>
    <g id="sprite0" transform="matrix(1.0, 0.0, 0.0, 1.0, 1.0, 1.0)">
      <use height="34.0" transform="matrix(1.0, 0.0, 0.0, 1.0, -1.0, -1.0)" width="34.0" xlink:href="#shape0"/>
    </g>
    <g id="shape0" transform="matrix(1.0, 0.0, 0.0, 1.0, 1.0, 1.0)">
      <path d="M0.0 0.0 L32.0 0.0 32.0 32.0 0.0 32.0 0.0 0.0" fill="#fcf9e0" fill-rule="evenodd" stroke="none"/>
      <path d="M0.0 0.0 L32.0 0.0 32.0 32.0 0.0 32.0 0.0 0.0 Z" fill="none" stroke="#733c2f" stroke-linecap="round" stroke-linejoin="round" stroke-width="2.0"/>
      <path d="M12.1 4.9 L12.15 4.95 11.85 5.65 11.75 6.25 11.05 5.4 10.95 5.3 Q9.8 4.2 8.15 4.2 6.45 4.2 5.2 5.4 4.0 6.6 4.0 8.3 4.0 9.75 4.8 10.8 L4.8 10.85 Q4.65 11.3 4.65 12.25 L4.4 12.0 3.75 11.25 3.1 12.35 Q2.25 13.7 2.25 14.95 L2.5 16.8 2.75 19.2 Q2.75 20.8 3.2 22.0 4.15 24.35 6.5 24.35 8.85 24.35 10.05 22.55 10.8 21.45 10.8 20.45 10.8 17.9 6.2 17.9 L6.15 17.45 6.25 17.05 7.25 16.85 8.85 17.0 9.2 15.7 8.9 14.35 8.65 13.6 8.6 13.6 8.7 12.6 8.65 12.55 10.25 11.95 10.95 12.75 10.8 12.85 11.55 14.25 Q12.15 15.55 13.5 16.1 L14.45 16.35 15.75 16.55 16.2 16.55 17.5 16.35 18.45 16.1 18.5 16.1 Q19.8 15.55 20.4 14.25 L21.15 12.85 21.0 12.75 21.7 11.95 23.3 12.55 23.25 12.6 23.35 13.6 23.3 13.6 23.05 14.35 22.75 15.7 Q22.75 16.2 23.1 17.0 L24.7 16.85 25.7 17.05 25.8 17.45 25.75 17.9 Q21.15 17.9 21.15 20.45 21.15 21.45 21.9 22.55 23.1 24.35 25.45 24.35 27.8 24.35 28.75 22.0 29.2 20.8 29.2 19.2 29.2 17.8 29.45 16.8 L29.7 14.95 Q29.7 13.7 28.85 12.35 L28.2 11.25 27.55 12.0 27.3 12.25 27.15 10.85 27.15 10.8 Q27.95 9.75 27.95 8.3 27.95 6.6 26.75 5.4 25.5 4.2 23.8 4.2 22.35 4.2 21.3 5.05 L20.9 5.4 20.35 6.1 20.2 6.25 20.2 6.15 20.15 5.85 20.1 5.65 19.9 5.15 19.8 4.95 20.15 4.6 Q21.65 3.1 23.8 3.1 25.95 3.1 27.55 4.6 29.05 6.15 29.05 8.3 29.05 9.45 28.65 10.4 L29.45 11.55 Q30.85 13.85 30.85 15.0 L30.75 17.15 Q30.4 18.4 30.15 20.3 29.9 22.45 29.45 23.3 28.35 25.4 25.5 25.4 L23.05 24.95 22.75 25.45 25.15 26.2 Q25.75 26.55 25.75 27.1 25.75 29.8 24.4 30.25 L20.35 30.4 20.0 30.4 19.25 30.45 Q17.7 30.45 16.6 29.3 L16.0 28.45 15.35 29.3 Q14.25 30.45 12.7 30.45 L11.95 30.4 11.6 30.4 7.55 30.25 Q6.2 29.8 6.2 27.1 6.2 26.55 6.8 26.2 L9.2 25.45 8.9 24.95 6.45 25.4 Q3.6 25.4 2.5 23.3 2.05 22.45 1.8 20.3 L1.2 17.15 1.1 15.0 Q1.1 13.85 2.5 11.55 L3.3 10.4 Q2.9 9.45 2.9 8.3 2.9 6.15 4.4 4.6 6.0 3.1 8.15 3.1 10.3 3.1 11.8 4.6 L12.1 4.9 M22.45 13.45 L22.0 13.3 Q21.8 14.2 20.85 15.5 L20.45 16.0 20.7 16.35 21.45 17.6 21.9 17.35 21.7 15.85 Q21.7 14.85 22.45 13.45 M22.05 24.35 L21.15 23.4 20.55 22.45 20.05 22.7 19.5 22.95 19.7 23.0 19.65 23.0 18.85 23.1 17.9 25.55 Q17.0 27.5 17.0 27.8 17.0 28.7 18.8 29.05 L19.75 29.3 19.8 29.3 23.55 29.15 23.85 28.45 Q24.15 27.55 24.4 27.2 L21.7 26.5 Q21.3 26.3 21.3 25.75 21.7 24.8 22.05 24.35 M9.5 13.45 Q10.25 14.85 10.25 15.85 L10.05 17.35 10.5 17.6 11.25 16.35 11.5 16.0 11.1 15.5 Q10.15 14.2 9.95 13.3 L9.5 13.45 M14.65 24.3 L16.0 27.2 Q16.3 26.2 17.3 24.3 L17.85 23.3 Q17.15 23.1 16.95 22.05 16.8 21.1 16.0 20.7 15.15 21.1 15.0 22.05 14.8 23.1 14.1 23.3 L14.65 24.3 M11.9 22.7 L11.4 22.45 10.8 23.4 9.9 24.35 10.65 25.75 Q10.65 26.3 10.25 26.5 L7.55 27.2 8.1 28.45 8.4 29.15 12.15 29.3 12.2 29.3 13.15 29.05 Q14.95 28.7 14.95 27.8 L14.05 25.55 Q13.15 23.8 13.1 23.1 L12.3 23.0 12.25 23.0 12.45 22.95 11.9 22.7" fill="#733c2f" fill-rule="evenodd" stroke="none"/>
      <path d="M20.2 6.15 L20.2 6.25 20.35 6.1 20.9 5.4 21.3 5.05 Q22.35 4.2 23.8 4.2 25.5 4.2 26.75 5.4 27.95 6.6 27.95 8.3 27.95 9.75 27.15 10.8 L27.15 10.85 27.3 12.25 27.55 12.0 28.2 11.25 28.85 12.35 Q29.7 13.7 29.7 14.95 L29.45 16.8 Q29.2 17.8 29.2 19.2 29.2 20.8 28.75 22.0 27.8 24.35 25.45 24.35 23.1 24.35 21.9 22.55 21.15 21.45 21.15 20.45 21.15 17.9 25.75 17.9 L25.8 17.45 25.7 17.05 24.7 16.85 23.1 17.0 Q22.75 16.2 22.75 15.7 L23.05 14.35 23.3 13.6 23.35 13.6 23.25 12.6 23.3 12.55 21.7 11.95 21.0 12.75 21.15 12.85 20.4 14.25 Q19.8 15.55 18.5 16.1 L18.45 16.1 17.5 16.35 16.2 16.55 15.75 16.55 14.45 16.35 13.5 16.1 Q12.15 15.55 11.55 14.25 L10.8 12.85 10.95 12.75 10.25 11.95 8.65 12.55 8.7 12.6 8.6 13.6 8.65 13.6 8.9 14.35 9.2 15.7 8.85 17.0 7.25 16.85 6.25 17.05 6.15 17.45 6.2 17.9 Q10.8 17.9 10.8 20.45 10.8 21.45 10.05 22.55 8.85 24.35 6.5 24.35 4.15 24.35 3.2 22.0 2.75 20.8 2.75 19.2 L2.5 16.8 2.25 14.95 Q2.25 13.7 3.1 12.35 L3.75 11.25 4.4 12.0 4.65 12.25 Q4.65 11.3 4.8 10.85 L4.8 10.8 Q4.0 9.75 4.0 8.3 4.0 6.6 5.2 5.4 6.45 4.2 8.15 4.2 9.8 4.2 10.95 5.3 L11.05 5.4 11.75 6.25 11.85 5.65 12.15 4.95 12.1 4.9 12.3 4.9 13.55 5.3 16.95 5.65 19.9 5.15 20.1 5.65 20.15 5.85 20.2 6.15 20.15 6.15 20.2 6.15 M22.05 24.35 Q21.7 24.8 21.3 25.75 21.3 26.3 21.7 26.5 L24.4 27.2 Q24.15 27.55 23.85 28.45 L23.55 29.15 19.8 29.3 19.75 29.3 18.8 29.05 Q17.0 28.7 17.0 27.8 17.0 27.5 17.9 25.55 L18.85 23.1 19.65 23.0 19.7 23.0 19.5 22.95 20.05 22.7 20.55 22.45 21.15 23.4 22.05 24.35 M11.9 22.7 L12.45 22.95 12.25 23.0 12.3 23.0 13.1 23.1 Q13.15 23.8 14.05 25.55 L14.95 27.8 Q14.95 28.7 13.15 29.05 L12.2 29.3 12.15 29.3 8.4 29.15 8.1 28.45 7.55 27.2 10.25 26.5 Q10.65 26.3 10.65 25.75 L9.9 24.35 10.8 23.4 11.4 22.45 11.9 22.7" fill="#cccc00" fill-rule="evenodd" stroke="none"/>
      <path d="M18.95 4.15 Q17.75 2.95 16.05 2.95 14.35 2.95 13.1 4.15 11.9 5.35 11.9 7.05 11.9 8.8 13.1 10.0 14.35 11.3 16.05 11.3 17.75 11.3 18.95 10.0 20.2 8.8 20.2 7.1 20.2 5.35 18.95 4.15 M19.7 3.35 Q21.3 4.9 21.3 7.1 21.3 9.25 19.7 10.75 18.2 12.35 16.05 12.35 13.9 12.35 12.3 10.75 10.8 9.25 10.8 7.05 10.8 4.9 12.3 3.35 13.9 1.85 16.05 1.85 18.2 1.85 19.7 3.35 M13.8 7.1 L14.35 6.9 Q15.1 6.9 15.1 7.75 15.1 8.5 14.35 8.5 L14.1 8.5 Q13.55 8.35 13.6 7.75 L13.8 7.1 M17.5 8.5 Q16.7 8.5 16.75 7.75 16.75 6.9 17.5 6.9 18.25 6.9 18.25 7.75 18.25 8.5 17.5 8.5" fill="#733c2f" fill-rule="evenodd" stroke="none"/>
      <path d="M18.95 4.15 Q20.2 5.35 20.2 7.1 20.2 8.8 18.95 10.0 17.75 11.3 16.05 11.3 14.35 11.3 13.1 10.0 11.9 8.8 11.9 7.05 11.9 5.35 13.1 4.15 14.35 2.95 16.05 2.95 17.75 2.95 18.95 4.15 M13.8 7.1 Q13.2 7.15 13.2 7.8 13.15 8.5 13.9 8.5 L14.1 8.5 14.35 8.5 Q15.1 8.5 15.1 7.75 15.1 6.9 14.35 6.9 L13.8 7.1 M17.5 8.5 Q18.25 8.5 18.25 7.75 18.25 6.9 17.5 6.9 16.75 6.9 16.75 7.75 16.7 8.5 17.5 8.5" fill="#cccc00" fill-rule="evenodd" stroke="none"/>
    </g>
  </defs>
</svg>
