<?xml version="1.0" encoding="UTF-8" standalone="no"?>
<svg xmlns:xlink="http://www.w3.org/1999/xlink" height="34" width="34" xmlns="http://www.w3.org/2000/svg">
  <g transform="matrix(1.0, 0.0, 0.0, 1.0, 1, 1)">
    <use height="86.5" transform="matrix(1.0, 0.0, 0.0, 1.0, -54.8, -53.55)" width="87.8" xlink:href="#sprite0"/>
  </g>
  <defs>
    <g id="sprite0" transform="matrix(1.0, 0.0, 0.0, 1.0, 54.8, 53.4)">
      <use height="34.0" transform="matrix(1.0, 0.0, 0.0, 0.9984, -1.0, -0.8484)" width="34.0" xlink:href="#sprite1"/>
      <clipPath id="clipPath0" transform="matrix(1.0, 0.0, 0.0, 0.9984, 0.0, 0.15)">
        <path d="M0.0 32.0 L0.0 0.0 32.0 0.0 32.0 32.0 0.0 32.0" fill="#ff0000" fill-rule="evenodd" stroke="none"/>
      </clipPath>
      <g clip-path="url(#clipPath0)">
        <use height="84.75" transform="matrix(1.0, 0.0, 0.0, 1.0, -54.8, -53.4)" width="85.9" xlink:href="#shape2"/>
      </g>
    </g>
    <g id="sprite1" transform="matrix(1.0, 0.0, 0.0, 1.0, 1.0, 1.0)">
      <use height="34.0" transform="matrix(1.0, 0.0, 0.0, 1.0, -1.0, -1.0)" width="34.0" xlink:href="#shape0"/>
    </g>
    <g id="shape0" transform="matrix(1.0, 0.0, 0.0, 1.0, 1.0, 1.0)">
      <path d="M0.0 32.0 L0.0 0.0 32.0 0.0 32.0 32.0 0.0 32.0" fill="#cccc00" fill-rule="evenodd" stroke="none"/>
      <path d="M0.0 32.0 L0.0 0.0 32.0 0.0 32.0 32.0 0.0 32.0 Z" fill="none" stroke="#733c2f" stroke-linecap="round" stroke-linejoin="round" stroke-width="2.0"/>
    </g>
    <g id="shape2" transform="matrix(1.0, 0.0, 0.0, 1.0, 54.8, 53.4)">
      <path d="M-32.8 -53.1 L-32.1 -52.45 -31.8 -51.85 Q-31.75 -51.5 -31.95 -51.2 -34.0 -48.05 -37.0 -46.15 L-37.05 -46.1 -38.35 -45.45 -38.6 -45.4 -39.1 -45.3 -39.0 -43.4 -38.6 -43.25 -38.3 -43.0 -38.2 -43.15 -37.8 -43.2 -36.75 -43.0 -36.65 -43.0 -31.4 -40.85 -30.95 -40.5 -30.8 -40.0 -30.65 -37.0 -30.25 -36.8 -29.85 -36.5 -29.65 -36.1 Q-29.25 -34.35 -29.3 -32.55 L-29.3 -32.5 -29.3 -31.45 -29.15 -26.8 -29.25 -26.3 -29.65 -25.95 -31.1 -25.05 -31.3 -22.5 Q-31.3 -22.25 -31.45 -22.0 L-31.85 -21.7 -36.05 -19.55 -37.4 -18.95 -37.9 -18.8 Q-39.15 -17.05 -41.45 -16.95 L-41.6 -16.9 -41.9 -16.8 Q-43.6 -16.6 -44.6 -17.7 L-45.3 -18.5 -45.5 -18.95 -46.25 -18.7 -46.65 -18.7 -47.05 -18.85 -52.25 -21.95 -52.6 -22.3 -52.75 -22.8 -52.75 -25.1 Q-53.95 -25.55 -54.6 -26.5 L-54.8 -27.15 -54.45 -32.1 -54.5 -32.7 Q-54.75 -34.35 -54.25 -35.8 L-54.25 -35.75 -53.9 -36.6 -53.35 -37.05 -53.25 -37.05 Q-53.25 -38.75 -52.85 -40.35 L-52.65 -40.75 -52.25 -41.0 -46.95 -42.85 -47.0 -42.85 -45.7 -43.15 -45.85 -45.55 Q-48.1 -46.3 -49.85 -48.05 L-49.85 -48.1 -50.6 -49.0 -52.05 -51.5 -52.1 -51.6 Q-52.5 -52.5 -51.95 -52.9 -51.7 -53.35 -50.9 -53.35 L-33.5 -53.4 Q-33.1 -53.4 -32.8 -53.1 M-45.55 -39.5 L-45.65 -39.45 -45.55 -39.45 -45.55 -39.5 M-45.95 -35.6 L-45.9 -35.7 -46.0 -35.65 -45.95 -35.6 M-38.25 -26.15 L-38.3 -26.15 -38.25 -26.1 -38.25 -26.15" fill="#733c2f" fill-rule="evenodd" stroke="none"/>
      <path d="M26.7 26.85 Q22.35 31.25 16.15 31.25 9.95 31.25 5.55 26.85 1.15 22.45 1.15 16.25 1.15 10.05 5.55 5.65 9.95 1.3 16.15 1.3 22.35 1.3 26.7 5.65 31.1 10.05 31.1 16.25 31.1 22.45 26.7 26.85" fill="#733c2f" fill-rule="evenodd" stroke="none"/>
      <path d="M25.95 26.1 Q21.9 30.2 16.15 30.2 10.35 30.2 6.25 26.1 2.2 22.05 2.2 16.25 2.2 10.5 6.25 6.4 10.35 2.35 16.15 2.35 21.9 2.35 25.95 6.4 30.05 10.5 30.05 16.25 30.05 22.05 25.95 26.1" fill="#fcf9e0" fill-rule="evenodd" stroke="none"/>
      <path d="M23.05 23.25 Q20.2 26.1 16.1 26.1 12.0 26.1 9.15 23.25 6.25 20.35 6.25 16.25 6.25 12.2 9.15 9.3 12.0 6.4 16.1 6.4 20.2 6.4 23.05 9.3 25.95 12.2 25.95 16.25 25.95 20.35 23.05 23.25" fill="#733c2f" fill-rule="evenodd" stroke="none"/>
      <path d="M20.2 20.35 Q18.5 22.05 16.15 22.05 13.75 22.05 12.05 20.35 10.4 18.7 10.4 16.3 10.4 13.95 12.05 12.25 13.75 10.55 16.15 10.55 18.5 10.55 20.2 12.25 21.9 13.95 21.9 16.3 21.9 18.7 20.2 20.35" fill="#fcf9e0" fill-rule="evenodd" stroke="none"/>
      <path d="M17.8 17.9 Q17.1 18.6 16.15 18.6 15.15 18.6 14.45 17.9 13.75 17.2 13.75 16.2 13.75 15.25 14.45 14.55 15.15 13.85 16.15 13.85 17.1 13.85 17.8 14.55 18.5 15.25 18.5 16.2 18.5 17.2 17.8 17.9" fill="#733c2f" fill-rule="evenodd" stroke="none"/>
      <path d="M7.05 8.35 L6.9 8.95 8.05 9.05 8.35 8.5 8.5 8.45 8.6 8.35 7.05 8.35 M7.65 7.3 L8.25 5.5 Q8.0 7.9 10.2 8.65 L9.65 9.05 8.65 8.8 7.95 10.75 7.55 10.8 7.45 9.4 5.2 9.5 6.8 8.2 5.9 6.2 Q6.9 6.15 7.45 6.95 L7.65 7.3" fill="#733c2f" fill-rule="evenodd" stroke="none"/>
      <path d="M7.05 8.35 L8.6 8.35 8.5 8.45 8.35 8.5 8.05 9.05 6.9 8.95 7.05 8.35" fill="#fcf9e0" fill-rule="evenodd" stroke="none"/>
      <path d="M9.1 19.3 L9.7 17.5 Q9.45 19.9 11.65 20.65 L11.1 21.05 10.1 20.8 9.4 22.75 9.0 22.8 8.9 21.4 6.65 21.5 8.25 20.2 7.35 18.2 Q8.35 18.15 8.9 18.95 L9.1 19.3 M8.5 20.35 L8.35 20.95 9.5 21.05 9.8 20.5 9.95 20.45 10.05 20.35 8.5 20.35" fill="#733c2f" fill-rule="evenodd" stroke="none"/>
      <path d="M8.5 20.35 L10.05 20.35 9.95 20.45 9.8 20.5 9.5 21.05 8.35 20.95 8.5 20.35" fill="#fcf9e0" fill-rule="evenodd" stroke="none"/>
      <path d="M23.5 23.8 L23.35 24.4 24.5 24.5 24.8 23.95 24.95 23.9 25.05 23.8 23.5 23.8 M24.1 22.75 L24.7 20.95 Q24.45 23.35 26.65 24.1 L26.1 24.5 25.1 24.25 24.4 26.2 24.0 26.25 23.9 24.85 21.65 24.95 23.25 23.65 22.35 21.65 Q23.35 21.6 23.9 22.4 L24.1 22.75" fill="#733c2f" fill-rule="evenodd" stroke="none"/>
      <path d="M23.5 23.8 L25.05 23.8 24.95 23.9 24.8 23.95 24.5 24.5 23.35 24.4 23.5 23.8" fill="#fcf9e0" fill-rule="evenodd" stroke="none"/>
      <path d="M26.15 16.8 L26.9 14.55 Q26.55 17.55 29.35 18.5 L28.65 19.0 27.4 18.7 26.5 21.15 26.0 21.2 25.85 19.4 23.05 19.6 25.1 17.95 23.95 15.45 Q25.2 15.35 25.85 16.35 L26.15 16.8 M25.4 18.1 L25.2 18.85 26.6 19.0 27.0 18.3 27.2 18.25 27.35 18.15 25.4 18.1" fill="#733c2f" fill-rule="evenodd" stroke="none"/>
      <path d="M25.4 18.1 L27.35 18.15 27.2 18.25 27.0 18.3 26.6 19.0 25.2 18.85 25.4 18.1" fill="#fcf9e0" fill-rule="evenodd" stroke="none"/>
      <path d="M28.15 21.9 L28.25 22.25 27.65 22.3 27.5 22.0 27.4 22.0 27.35 21.95 28.15 21.9 M27.85 21.4 L27.55 20.45 Q27.65 21.7 26.5 22.1 L26.8 22.3 27.3 22.2 27.7 23.2 27.9 23.2 27.95 22.45 29.15 22.55 28.3 21.85 28.75 20.8 Q28.25 20.8 27.95 21.2 L27.85 21.4" fill="#733c2f" fill-rule="evenodd" stroke="none"/>
      <path d="M28.15 21.9 L27.35 21.95 27.4 22.0 27.5 22.0 27.65 22.3 28.25 22.25 28.15 21.9" fill="#fcf9e0" fill-rule="evenodd" stroke="none"/>
      <path d="M8.2 13.4 L6.95 10.75 Q9.25 13.7 12.6 12.15 L12.4 13.15 11.0 14.0 12.35 17.05 11.95 17.5 10.3 15.95 7.9 18.65 8.25 15.35 5.05 14.1 Q6.1 12.9 7.6 13.25 L8.2 13.4 M8.7 15.25 L9.2 16.05 10.55 14.95 10.3 13.95 10.4 13.75 10.45 13.55 8.7 15.25" fill="#733c2f" fill-rule="evenodd" stroke="none"/>
      <path d="M8.7 15.25 L10.45 13.55 10.4 13.75 10.3 13.95 10.55 14.95 9.2 16.05 8.7 15.25" fill="#fcf9e0" fill-rule="evenodd" stroke="none"/>
      <path d="M15.6 22.25 L16.2 20.45 Q15.95 22.85 18.15 23.6 L17.6 24.0 16.6 23.75 15.9 25.7 15.5 25.75 15.4 24.35 13.15 24.45 14.75 23.15 13.85 21.15 Q14.85 21.1 15.4 21.9 L15.6 22.25 M15.0 23.3 L14.85 23.9 16.0 24.0 16.3 23.45 16.45 23.4 16.55 23.3 15.0 23.3" fill="#733c2f" fill-rule="evenodd" stroke="none"/>
      <path d="M15.0 23.3 L16.55 23.3 16.45 23.4 16.3 23.45 16.0 24.0 14.85 23.9 15.0 23.3" fill="#fcf9e0" fill-rule="evenodd" stroke="none"/>
      <path d="M9.45 27.25 L9.3 27.85 10.45 27.95 10.75 27.4 10.9 27.35 11.0 27.25 9.45 27.25 M10.05 26.2 L10.65 24.4 Q10.4 26.8 12.6 27.55 L12.05 27.95 11.05 27.7 10.35 29.65 9.95 29.7 9.85 28.3 7.6 28.4 9.2 27.1 8.3 25.1 Q9.3 25.05 9.85 25.85 L10.05 26.2" fill="#733c2f" fill-rule="evenodd" stroke="none"/>
      <path d="M9.45 27.25 L11.0 27.25 10.9 27.35 10.75 27.4 10.45 27.95 9.3 27.85 9.45 27.25" fill="#fcf9e0" fill-rule="evenodd" stroke="none"/>
      <path d="M20.65 4.65 L21.45 2.3 Q21.1 5.45 24.05 6.5 L23.35 7.0 22.0 6.7 21.0 9.3 20.5 9.35 20.35 7.45 17.35 7.65 19.55 5.9 18.3 3.2 Q19.65 3.15 20.35 4.2 L20.65 4.65 M19.85 6.05 L19.65 6.85 21.15 7.0 21.6 6.25 21.75 6.2 21.95 6.1 19.85 6.05" fill="#733c2f" fill-rule="evenodd" stroke="none"/>
      <path d="M19.85 6.05 L21.95 6.1 21.75 6.2 21.6 6.25 21.15 7.0 19.65 6.85 19.85 6.05" fill="#fcf9e0" fill-rule="evenodd" stroke="none"/>
      <path d="M11.3 6.45 L11.0 5.5 Q11.1 6.75 9.95 7.15 L10.25 7.35 10.75 7.25 11.15 8.25 11.35 8.25 11.4 7.5 12.6 7.6 11.75 6.9 12.2 5.85 Q11.7 5.85 11.4 6.25 L11.3 6.45 M11.6 6.95 L11.7 7.3 11.1 7.35 10.95 7.05 10.85 7.05 10.8 7.0 11.6 6.95" fill="#733c2f" fill-rule="evenodd" stroke="none"/>
      <path d="M11.6 6.95 L10.8 7.0 10.85 7.05 10.95 7.05 11.1 7.35 11.7 7.3 11.6 6.95" fill="#fcf9e0" fill-rule="evenodd" stroke="none"/>
      <path d="M29.0 11.85 L29.15 12.5 27.95 12.6 27.65 12.0 27.5 12.0 27.35 11.9 29.0 11.85 M28.35 10.75 L27.75 8.9 Q28.0 11.4 25.7 12.2 L26.25 12.6 27.3 12.4 28.05 14.45 28.45 14.45 28.6 12.95 30.95 13.1 29.25 11.7 30.2 9.65 Q29.15 9.55 28.6 10.4 L28.35 10.75" fill="#733c2f" fill-rule="evenodd" stroke="none"/>
      <path d="M29.0 11.85 L27.35 11.9 27.5 12.0 27.65 12.0 27.95 12.6 29.15 12.5 29.0 11.85" fill="#fcf9e0" fill-rule="evenodd" stroke="none"/>
      <path d="M14.6 29.25 L14.95 28.2 Q14.8 29.6 16.1 30.05 L15.8 30.3 15.2 30.15 14.75 31.3 14.55 31.35 14.5 30.5 13.15 30.6 14.1 29.8 13.55 28.6 Q14.15 28.55 14.5 29.05 L14.6 29.25 M14.25 29.85 L14.15 30.2 14.85 30.3 15.0 29.95 15.1 29.95 15.2 29.9 14.25 29.85" fill="#733c2f" fill-rule="evenodd" stroke="none"/>
      <path d="M14.25 29.85 L15.2 29.9 15.1 29.95 15.0 29.95 14.85 30.3 14.15 30.2 14.25 29.85" fill="#fcf9e0" fill-rule="evenodd" stroke="none"/>
      <path d="M4.25 11.95 L4.15 12.3 4.85 12.4 5.0 12.05 5.1 12.05 5.2 12.0 4.25 11.95 M4.6 11.35 L4.95 10.3 Q4.8 11.7 6.1 12.15 L5.8 12.4 5.2 12.25 4.75 13.4 4.55 13.45 4.5 12.6 3.15 12.7 4.1 11.9 3.55 10.7 Q4.15 10.65 4.5 11.15 L4.6 11.35" fill="#733c2f" fill-rule="evenodd" stroke="none"/>
      <path d="M4.25 11.95 L5.2 12.0 5.1 12.05 5.0 12.05 4.85 12.4 4.15 12.3 4.25 11.95" fill="#fcf9e0" fill-rule="evenodd" stroke="none"/>
      <path d="M6.1 18.35 L5.75 17.3 Q5.9 18.7 4.6 19.15 L4.9 19.4 5.5 19.25 5.95 20.4 6.15 20.45 6.2 19.6 7.55 19.7 6.6 18.9 7.15 17.7 Q6.55 17.65 6.2 18.15 L6.1 18.35 M6.45 18.95 L6.55 19.3 5.85 19.4 5.7 19.05 5.6 19.05 5.5 19.0 6.45 18.95" fill="#733c2f" fill-rule="evenodd" stroke="none"/>
      <path d="M6.45 18.95 L5.5 19.0 5.6 19.05 5.7 19.05 5.85 19.4 6.55 19.3 6.45 18.95" fill="#fcf9e0" fill-rule="evenodd" stroke="none"/>
      <path d="M22.55 21.15 L22.7 21.7 21.7 21.8 21.4 21.3 21.25 21.25 21.15 21.2 22.55 21.15 M22.0 20.2 L21.5 18.6 Q21.7 20.75 19.7 21.45 L20.2 21.8 21.1 21.6 21.75 23.4 22.1 23.4 22.2 22.1 24.25 22.25 22.8 21.05 23.6 19.2 Q22.7 19.15 22.2 19.9 L22.0 20.2" fill="#733c2f" fill-rule="evenodd" stroke="none"/>
      <path d="M22.55 21.15 L21.15 21.2 21.25 21.25 21.4 21.3 21.7 21.8 22.7 21.7 22.55 21.15" fill="#fcf9e0" fill-rule="evenodd" stroke="none"/>
      <path d="M23.3 9.65 L22.45 7.1 Q22.8 10.5 19.6 11.6 L20.35 12.15 21.85 11.85 22.9 14.65 23.45 14.7 23.6 12.65 26.85 12.85 24.5 10.95 25.8 8.1 Q24.35 8.0 23.6 9.15 L23.3 9.65 M24.15 11.15 L24.35 12.0 22.75 12.15 22.3 11.35 22.1 11.3 21.9 11.2 24.15 11.15" fill="#733c2f" fill-rule="evenodd" stroke="none"/>
      <path d="M24.15 11.15 L21.9 11.2 22.1 11.3 22.3 11.35 22.75 12.15 24.35 12.0 24.15 11.15" fill="#fcf9e0" fill-rule="evenodd" stroke="none"/>
      <path d="M11.2 8.3 L11.8 6.5 Q11.55 8.9 13.75 9.65 L13.2 10.05 12.2 9.8 11.5 11.75 11.1 11.8 11.0 10.4 8.75 10.5 10.35 9.2 9.45 7.2 Q10.45 7.15 11.0 7.95 L11.2 8.3 M10.6 9.35 L10.45 9.95 11.6 10.05 11.9 9.5 12.05 9.45 12.15 9.35 10.6 9.35" fill="#733c2f" fill-rule="evenodd" stroke="none"/>
      <path d="M10.6 9.35 L12.15 9.35 12.05 9.45 11.9 9.5 11.6 10.05 10.45 9.95 10.6 9.35" fill="#fcf9e0" fill-rule="evenodd" stroke="none"/>
      <path d="M16.75 3.4 L16.85 3.85 16.05 3.95 15.8 3.5 15.7 3.5 15.6 3.45 16.75 3.4 M16.3 2.65 L15.85 1.3 Q16.05 3.1 14.4 3.65 L14.8 3.95 15.55 3.8 16.1 5.25 16.4 5.25 16.45 4.2 18.15 4.3 16.95 3.3 17.6 1.85 Q16.85 1.75 16.45 2.35 L16.3 2.65" fill="#733c2f" fill-rule="evenodd" stroke="none"/>
      <path d="M16.75 3.4 L15.6 3.45 15.7 3.5 15.8 3.5 16.05 3.95 16.85 3.85 16.75 3.4" fill="#fcf9e0" fill-rule="evenodd" stroke="none"/>
      <path d="M19.65 25.45 L19.0 23.2 Q19.25 25.95 16.75 26.1 L17.35 26.75 18.5 26.85 19.35 29.35 19.8 29.5 19.9 27.9 22.5 28.8 20.6 26.75 21.65 24.75 Q20.5 24.4 19.9 25.1 L19.65 25.45 M20.35 26.85 L20.5 27.55 19.2 27.3 18.85 26.55 18.7 26.45 18.55 26.35 20.35 26.85" fill="#733c2f" fill-rule="evenodd" stroke="none"/>
      <path d="M20.35 26.85 L18.55 26.35 18.7 26.45 18.85 26.55 19.2 27.3 20.5 27.55 20.35 26.85" fill="#fcf9e0" fill-rule="evenodd" stroke="none"/>
      <path d="M16.55 9.8 L16.4 10.5 17.7 10.25 18.05 9.5 18.2 9.4 Q18.3 9.3 18.35 9.3 L16.55 9.8 M17.25 8.4 L17.9 6.15 Q17.65 8.9 20.15 9.05 L19.55 9.7 18.4 9.8 17.55 12.3 17.1 12.45 17.0 10.85 14.4 11.75 16.3 9.7 15.25 7.7 Q16.4 7.35 17.0 8.05 L17.25 8.4" fill="#733c2f" fill-rule="evenodd" stroke="none"/>
      <path d="M16.55 9.8 L18.35 9.3 Q18.3 9.3 18.2 9.4 L18.05 9.5 17.7 10.25 16.4 10.5 16.55 9.8" fill="#fcf9e0" fill-rule="evenodd" stroke="none"/>
      <path d="M-42.35 -21.5 L-42.5 -21.5 -42.65 -21.4 -44.4 -20.85 -46.55 -20.15 -47.7 -21.1 Q-49.0 -22.25 -50.7 -22.7 -51.2 -22.85 -51.15 -23.35 L-51.1 -24.15 -51.3 -25.75 -51.2 -26.2 Q-50.85 -26.35 -50.2 -26.65 L-48.6 -27.4 -46.45 -27.95 -45.15 -28.3 -45.1 -28.4 -45.05 -28.45 -45.05 -28.5 -45.1 -28.55 -45.15 -28.65 Q-45.05 -28.9 -44.85 -28.75 L-44.65 -28.4 -44.75 -28.0 -44.75 -27.95 -44.85 -28.0 -47.85 -26.7 -49.8 -25.95 Q-50.4 -25.7 -50.4 -25.15 L-50.35 -23.95 Q-50.4 -23.3 -49.95 -23.3 L-48.95 -23.05 -47.55 -21.9 -46.25 -21.1 -42.95 -22.1 -42.95 -22.15 -42.8 -22.3 -42.8 -22.35 -42.8 -22.4 -42.95 -22.45 -42.6 -22.35 Q-42.25 -22.0 -42.25 -21.55 L-42.25 -21.5 -42.35 -21.5" fill="#fcf9e0" fill-rule="evenodd" stroke="none"/>
      <path d="M-45.1 -28.55 L-45.05 -28.5 -45.05 -28.45 -45.1 -28.4 -45.15 -28.3 -46.45 -27.95 -48.6 -27.4 -50.2 -26.65 Q-50.85 -26.35 -51.2 -26.2 L-51.3 -25.75 -51.1 -24.15 -51.15 -23.35 Q-51.2 -22.85 -50.7 -22.7 -49.0 -22.25 -47.7 -21.1 L-46.55 -20.15 -44.4 -20.85 -42.65 -21.4 -42.5 -21.5 -42.35 -21.5 Q-42.05 -21.5 -42.05 -21.25 -45.9 -19.7 -46.55 -19.7 -49.25 -21.75 -51.0 -22.35 -51.8 -22.6 -51.8 -23.05 L-51.7 -23.95 -51.7 -24.95 -51.8 -25.65 Q-51.75 -26.6 -51.45 -26.7 L-49.45 -27.55 Q-47.6 -28.65 -45.3 -28.65 L-45.1 -28.55 M-42.8 -22.4 L-42.8 -22.35 -42.8 -22.3 -42.95 -22.15 -42.95 -22.1 -46.25 -21.1 -47.55 -21.9 -48.95 -23.05 -49.95 -23.3 Q-50.4 -23.3 -50.35 -23.95 L-50.4 -25.15 Q-50.4 -25.7 -49.8 -25.95 L-47.85 -26.7 -44.85 -28.0 -44.75 -27.95 -44.7 -27.9 Q-44.75 -27.5 -47.3 -26.45 -49.85 -25.4 -49.85 -25.15 L-49.85 -23.7 Q-48.5 -23.55 -47.4 -22.55 -46.5 -21.6 -46.2 -21.6 L-43.2 -22.45 -42.8 -22.4" fill="#733c2f" fill-rule="evenodd" stroke="none"/>
      <path d="M-45.25 -34.15 L-45.3 -34.25 Q-45.2 -34.55 -44.9 -34.4 L-44.65 -33.9 -44.75 -33.45 -44.75 -33.35 -44.9 -33.45 Q-46.75 -32.55 -48.7 -31.8 L-51.25 -30.85 Q-51.95 -30.5 -52.0 -29.8 L-51.9 -28.3 Q-52.0 -27.4 -51.45 -27.4 L-50.15 -27.1 -48.35 -25.65 Q-47.1 -24.65 -46.65 -24.65 -43.35 -25.5 -42.5 -25.9 L-42.5 -26.0 Q-42.3 -26.05 -42.3 -26.15 L-42.3 -26.25 -42.3 -26.3 -42.5 -26.4 Q-42.45 -26.6 -42.05 -26.25 -41.55 -25.75 -41.6 -25.2 L-41.6 -25.1 -41.7 -25.1 -41.9 -25.1 -42.1 -25.05 -44.3 -24.3 -47.0 -23.45 -48.55 -24.65 Q-50.2 -26.05 -52.35 -26.7 -52.95 -26.85 -52.95 -27.5 L-52.9 -28.55 -53.05 -30.6 -53.0 -31.15 -51.7 -31.7 -49.65 -32.65 -46.9 -33.35 -45.3 -33.85 -45.25 -33.9 -45.15 -34.0 -45.15 -34.1 -45.25 -34.15" fill="#fcf9e0" fill-rule="evenodd" stroke="none"/>
      <path d="M-41.7 -25.1 L-41.3 -24.8 Q-46.2 -22.8 -47.05 -22.8 -50.5 -25.45 -52.7 -26.25 -53.75 -26.55 -53.8 -27.1 L-53.6 -28.3 Q-53.55 -29.1 -53.65 -29.55 L-53.75 -30.45 Q-53.65 -31.6 -53.25 -31.8 -52.25 -32.1 -50.75 -32.9 -48.4 -34.25 -45.5 -34.25 L-45.25 -34.15 -45.15 -34.1 -45.15 -34.0 -45.25 -33.9 -45.3 -33.85 -46.9 -33.35 -49.65 -32.65 -51.7 -31.7 -53.0 -31.15 -53.05 -30.6 -52.9 -28.55 -52.95 -27.5 Q-52.95 -26.85 -52.35 -26.7 -50.2 -26.05 -48.55 -24.65 L-47.0 -23.45 -44.3 -24.3 -42.1 -25.05 -41.9 -25.1 -41.7 -25.1 M-44.75 -33.35 L-44.75 -33.3 Q-44.75 -32.8 -48.0 -31.45 -51.3 -30.1 -51.3 -29.8 L-51.25 -27.95 Q-49.5 -27.75 -48.15 -26.45 L-46.6 -25.25 -42.75 -26.4 -42.3 -26.3 -42.3 -26.25 -42.3 -26.15 Q-42.3 -26.05 -42.5 -26.0 L-42.5 -25.9 Q-43.35 -25.5 -46.65 -24.65 -47.1 -24.65 -48.35 -25.65 L-50.15 -27.1 -51.45 -27.4 Q-52.0 -27.4 -51.9 -28.3 L-52.0 -29.8 Q-51.95 -30.5 -51.25 -30.85 L-48.7 -31.8 Q-46.75 -32.55 -44.9 -33.45 L-44.75 -33.35" fill="#733c2f" fill-rule="evenodd" stroke="none"/>
      <path d="M-41.5 -29.4 L-41.7 -29.4 -41.9 -29.35 -44.1 -28.6 -46.8 -27.75 -48.35 -28.95 Q-50.0 -30.35 -52.15 -31.0 -52.75 -31.15 -52.75 -31.8 L-52.7 -32.85 -52.85 -34.9 -52.8 -35.45 -51.5 -36.0 -49.45 -36.95 -46.7 -37.65 -45.1 -38.15 -45.05 -38.2 -44.95 -38.3 -44.95 -38.4 -45.05 -38.45 -45.1 -38.55 Q-45.0 -38.85 -44.7 -38.7 L-44.45 -38.2 -44.55 -37.75 -44.55 -37.65 -44.7 -37.75 Q-46.55 -36.85 -48.5 -36.1 L-51.05 -35.15 Q-51.75 -34.8 -51.8 -34.1 L-51.7 -32.6 Q-51.8 -31.7 -51.25 -31.7 L-49.95 -31.4 -48.15 -29.95 Q-46.9 -28.95 -46.45 -28.95 -43.15 -29.8 -42.3 -30.2 L-42.3 -30.3 -42.1 -30.45 -42.1 -30.55 -42.1 -30.6 -42.3 -30.7 Q-42.25 -30.9 -41.85 -30.55 -41.35 -30.05 -41.4 -29.5 L-41.4 -29.4 -41.5 -29.4" fill="#fcf9e0" fill-rule="evenodd" stroke="none"/>
      <path d="M-45.05 -38.45 L-44.95 -38.4 -44.95 -38.3 -45.05 -38.2 -45.1 -38.15 -46.7 -37.65 -49.45 -36.95 -51.5 -36.0 -52.8 -35.45 -52.85 -34.9 -52.7 -32.85 -52.75 -31.8 Q-52.75 -31.15 -52.15 -31.0 -50.0 -30.35 -48.35 -28.95 L-46.8 -27.75 -44.1 -28.6 -41.9 -29.35 -41.7 -29.4 -41.5 -29.4 -41.1 -29.1 Q-46.0 -27.1 -46.85 -27.1 -50.3 -29.75 -52.5 -30.55 -53.55 -30.85 -53.6 -31.4 L-53.4 -32.6 Q-53.35 -33.4 -53.45 -33.85 L-53.55 -34.75 Q-53.45 -35.9 -53.05 -36.1 -52.05 -36.4 -50.55 -37.2 -48.2 -38.55 -45.3 -38.55 L-45.05 -38.45 M-42.1 -30.6 L-42.1 -30.55 -42.1 -30.45 -42.3 -30.3 -42.3 -30.2 Q-43.15 -29.8 -46.45 -28.95 -46.9 -28.95 -48.15 -29.95 L-49.95 -31.4 -51.25 -31.7 Q-51.8 -31.7 -51.7 -32.6 L-51.8 -34.1 Q-51.75 -34.8 -51.05 -35.15 L-48.5 -36.1 Q-46.55 -36.85 -44.7 -37.75 L-44.55 -37.65 -44.55 -37.6 Q-44.55 -37.1 -47.8 -35.75 -51.1 -34.4 -51.1 -34.1 L-51.05 -32.25 Q-49.3 -32.05 -47.95 -30.75 L-46.4 -29.55 -42.55 -30.7 -42.1 -30.6" fill="#733c2f" fill-rule="evenodd" stroke="none"/>
      <path d="M-44.8 -42.2 L-44.85 -42.25 Q-44.8 -42.55 -44.6 -42.4 L-44.3 -41.95 -44.45 -41.55 -44.45 -41.5 -44.55 -41.55 -47.9 -40.1 -50.1 -39.25 Q-50.75 -38.95 -50.8 -38.35 L-50.65 -37.0 Q-50.75 -36.25 -50.25 -36.25 L-49.15 -35.95 -47.55 -34.7 -46.05 -33.8 -42.45 -34.9 -42.45 -35.0 -42.25 -35.15 -42.25 -35.2 -42.25 -35.25 -42.4 -35.35 Q-42.35 -35.55 -42.0 -35.2 -41.6 -34.8 -41.6 -34.3 L-41.6 -34.25 -41.7 -34.25 -41.9 -34.25 -42.05 -34.15 -44.0 -33.55 -46.4 -32.75 -47.7 -33.8 Q-49.15 -35.05 -51.1 -35.6 -51.6 -35.75 -51.55 -36.3 L-51.5 -37.25 -51.7 -39.05 -51.65 -39.55 -50.5 -40.0 -48.7 -40.85 -46.35 -41.5 -44.85 -41.9 -44.8 -41.95 -44.75 -42.05 -44.75 -42.1 -44.8 -42.2" fill="#fcf9e0" fill-rule="evenodd" stroke="none"/>
      <path d="M-41.7 -34.25 Q-41.35 -34.25 -41.4 -33.95 -45.65 -32.2 -46.4 -32.2 -49.45 -34.5 -51.4 -35.2 -52.3 -35.5 -52.35 -35.95 L-52.15 -37.0 -52.2 -38.15 -52.3 -38.9 Q-52.25 -39.95 -51.9 -40.1 -50.95 -40.35 -49.65 -41.05 -47.6 -42.25 -45.05 -42.25 L-44.8 -42.2 -44.75 -42.1 -44.75 -42.05 -44.8 -41.95 -44.85 -41.9 -46.35 -41.5 -48.7 -40.85 -50.5 -40.0 -51.65 -39.55 -51.7 -39.05 -51.5 -37.25 -51.55 -36.3 Q-51.6 -35.75 -51.1 -35.6 -49.15 -35.05 -47.7 -33.8 L-46.4 -32.75 -44.0 -33.55 -42.05 -34.15 -41.9 -34.25 -41.7 -34.25 M-44.45 -41.5 L-44.4 -41.4 Q-44.4 -41.0 -47.25 -39.8 L-50.15 -38.35 -50.15 -36.75 Q-48.6 -36.55 -47.4 -35.4 L-46.0 -34.35 -42.65 -35.35 -42.25 -35.25 -42.25 -35.2 -42.25 -35.15 -42.45 -35.0 -42.45 -34.9 -46.05 -33.8 -47.55 -34.7 -49.15 -35.95 -50.25 -36.25 Q-50.75 -36.25 -50.65 -37.0 L-50.8 -38.35 Q-50.75 -38.95 -50.1 -39.25 L-47.9 -40.1 -44.55 -41.55 -44.45 -41.5" fill="#733c2f" fill-rule="evenodd" stroke="none"/>
      <path d="M-38.8 -28.55 L-38.75 -28.65 Q-38.85 -28.9 -39.05 -28.75 L-39.25 -28.4 -39.15 -28.0 -39.15 -27.95 -39.05 -28.0 Q-37.55 -27.3 -36.05 -26.7 L-34.1 -25.95 Q-33.5 -25.7 -33.5 -25.15 L-33.55 -23.95 Q-33.5 -23.3 -33.95 -23.3 L-34.95 -23.05 -36.35 -21.9 Q-37.3 -21.1 -37.65 -21.1 L-40.95 -22.1 -40.95 -22.15 -41.1 -22.3 -41.1 -22.35 -41.1 -22.4 -40.95 -22.45 -41.3 -22.35 -41.65 -21.55 -41.65 -21.5 -41.55 -21.5 -41.4 -21.5 -41.25 -21.4 -39.5 -20.85 -37.35 -20.15 -36.2 -21.1 Q-34.9 -22.25 -33.2 -22.7 -32.7 -22.85 -32.75 -23.35 L-32.8 -24.15 -32.6 -25.75 -32.7 -26.2 -33.7 -26.65 -35.3 -27.4 -37.45 -27.95 -38.75 -28.3 -38.8 -28.4 -38.85 -28.45 -38.85 -28.5 -38.8 -28.55" fill="#fcf9e0" fill-rule="evenodd" stroke="none"/>
      <path d="M-41.55 -21.5 L-41.85 -21.25 Q-38.0 -19.7 -37.35 -19.7 -34.65 -21.75 -32.9 -22.35 -32.1 -22.6 -32.1 -23.05 L-32.2 -23.95 -32.2 -24.95 -32.1 -25.65 Q-32.15 -26.6 -32.45 -26.7 -33.35 -26.95 -34.45 -27.55 -36.3 -28.65 -38.6 -28.65 L-38.8 -28.55 -38.85 -28.5 -38.85 -28.45 -38.8 -28.4 -38.75 -28.3 -37.45 -27.95 -35.3 -27.4 -33.7 -26.65 -32.7 -26.2 -32.6 -25.75 -32.8 -24.15 -32.75 -23.35 Q-32.7 -22.85 -33.2 -22.7 -34.9 -22.25 -36.2 -21.1 L-37.35 -20.15 -39.5 -20.85 -41.25 -21.4 -41.4 -21.5 -41.55 -21.5 M-39.15 -27.95 L-39.2 -27.9 Q-39.15 -27.5 -36.6 -26.45 -34.05 -25.4 -34.05 -25.15 L-34.05 -23.7 Q-35.4 -23.55 -36.5 -22.55 -37.4 -21.6 -37.7 -21.6 L-40.7 -22.45 -41.1 -22.4 -41.1 -22.35 -41.1 -22.3 -40.95 -22.15 -40.95 -22.1 -37.65 -21.1 Q-37.3 -21.1 -36.35 -21.9 L-34.95 -23.05 -33.95 -23.3 Q-33.5 -23.3 -33.55 -23.95 L-33.5 -25.15 Q-33.5 -25.7 -34.1 -25.95 L-36.05 -26.7 Q-37.55 -27.3 -39.05 -28.0 L-39.15 -27.95" fill="#733c2f" fill-rule="evenodd" stroke="none"/>
      <path d="M-42.2 -25.1 L-42.0 -25.1 -41.8 -25.05 -39.6 -24.3 -36.9 -23.45 -35.35 -24.65 Q-33.7 -26.05 -31.55 -26.7 -30.95 -26.85 -30.95 -27.5 L-31.0 -28.55 -30.85 -30.6 -30.9 -31.15 -32.2 -31.7 -34.25 -32.65 -37.0 -33.35 -38.6 -33.85 -38.65 -33.9 -38.75 -34.0 -38.75 -34.1 -38.65 -34.15 -38.6 -34.25 Q-38.7 -34.55 -39.0 -34.4 L-39.25 -33.9 -39.15 -33.45 -39.15 -33.35 -39.0 -33.45 -35.2 -31.8 -32.65 -30.85 Q-31.95 -30.5 -31.9 -29.8 L-32.0 -28.3 Q-31.9 -27.4 -32.45 -27.4 L-33.75 -27.1 -35.55 -25.65 Q-36.8 -24.65 -37.25 -24.65 -40.55 -25.5 -41.4 -25.9 L-41.4 -26.0 -41.6 -26.15 -41.6 -26.25 -41.6 -26.3 -41.4 -26.4 -41.85 -26.25 Q-42.35 -25.75 -42.3 -25.2 L-42.3 -25.1 -42.2 -25.1" fill="#fcf9e0" fill-rule="evenodd" stroke="none"/>
      <path d="M-38.65 -34.15 L-38.75 -34.1 -38.75 -34.0 -38.65 -33.9 -38.6 -33.85 -37.0 -33.35 -34.25 -32.65 -32.2 -31.7 -30.9 -31.15 -30.85 -30.6 -31.0 -28.55 -30.95 -27.5 Q-30.95 -26.85 -31.55 -26.7 -33.7 -26.05 -35.35 -24.65 L-36.9 -23.45 -39.6 -24.3 -41.8 -25.05 -42.0 -25.1 -42.2 -25.1 -42.6 -24.8 Q-37.7 -22.8 -36.85 -22.8 -33.4 -25.45 -31.2 -26.25 -30.15 -26.55 -30.1 -27.1 L-30.3 -28.3 -30.25 -29.55 -30.15 -30.45 Q-30.25 -31.6 -30.65 -31.8 -31.65 -32.1 -33.15 -32.9 -35.5 -34.25 -38.4 -34.25 L-38.65 -34.15 M-41.6 -26.3 L-41.6 -26.25 -41.6 -26.15 -41.4 -26.0 -41.4 -25.9 Q-40.55 -25.5 -37.25 -24.65 -36.8 -24.65 -35.55 -25.65 L-33.75 -27.1 -32.45 -27.4 Q-31.9 -27.4 -32.0 -28.3 L-31.9 -29.8 Q-31.95 -30.5 -32.65 -30.85 L-35.2 -31.8 -39.0 -33.45 -39.15 -33.35 -39.15 -33.3 Q-39.15 -32.8 -35.9 -31.45 -32.6 -30.1 -32.6 -29.8 L-32.65 -27.95 Q-34.4 -27.75 -35.75 -26.45 -36.9 -25.25 -37.3 -25.25 L-41.15 -26.4 -41.6 -26.3" fill="#733c2f" fill-rule="evenodd" stroke="none"/>
      <path d="M-38.85 -38.45 L-38.8 -38.55 Q-38.9 -38.85 -39.2 -38.7 L-39.45 -38.2 -39.35 -37.75 -39.35 -37.65 -39.2 -37.75 Q-37.35 -36.85 -35.4 -36.1 L-32.85 -35.15 Q-32.15 -34.8 -32.1 -34.1 L-32.2 -32.6 Q-32.1 -31.7 -32.65 -31.7 L-33.95 -31.4 -35.75 -29.95 Q-37.0 -28.95 -37.45 -28.95 L-41.6 -30.2 -41.6 -30.3 -41.8 -30.45 -41.8 -30.55 -41.8 -30.6 -41.6 -30.7 Q-41.65 -30.9 -42.05 -30.55 -42.55 -30.05 -42.5 -29.5 L-42.5 -29.4 -42.4 -29.4 -42.2 -29.4 -42.0 -29.35 -39.8 -28.6 -37.1 -27.75 -35.55 -28.95 Q-33.9 -30.35 -31.75 -31.0 -31.15 -31.15 -31.15 -31.8 L-31.2 -32.85 -31.05 -34.9 -31.1 -35.45 -32.4 -36.0 -34.45 -36.95 -37.2 -37.65 -38.8 -38.15 -38.85 -38.2 -38.95 -38.3 -38.95 -38.4 -38.85 -38.45" fill="#fcf9e0" fill-rule="evenodd" stroke="none"/>
      <path d="M-42.4 -29.4 Q-42.8 -29.4 -42.8 -29.1 -37.9 -27.1 -37.05 -27.1 -33.6 -29.75 -31.4 -30.55 -30.35 -30.85 -30.3 -31.4 L-30.5 -32.6 -30.45 -33.85 -30.35 -34.75 Q-30.45 -35.9 -30.85 -36.1 -31.85 -36.4 -33.35 -37.2 -35.7 -38.55 -38.6 -38.55 L-38.85 -38.45 -38.95 -38.4 -38.95 -38.3 -38.85 -38.2 -38.8 -38.15 -37.2 -37.65 -34.45 -36.95 -32.4 -36.0 -31.1 -35.45 -31.05 -34.9 -31.2 -32.85 -31.15 -31.8 Q-31.15 -31.15 -31.75 -31.0 -33.9 -30.35 -35.55 -28.95 L-37.1 -27.75 -39.8 -28.6 -42.0 -29.35 -42.2 -29.4 -42.4 -29.4 M-39.35 -37.65 L-39.35 -37.6 Q-39.35 -37.1 -36.1 -35.75 -32.8 -34.4 -32.8 -34.1 L-32.85 -32.25 Q-34.6 -32.05 -35.95 -30.75 -37.1 -29.55 -37.5 -29.55 L-41.35 -30.7 -41.8 -30.6 -41.8 -30.55 -41.8 -30.45 -41.6 -30.3 -41.6 -30.2 -37.45 -28.95 Q-37.0 -28.95 -35.75 -29.95 L-33.95 -31.4 -32.65 -31.7 Q-32.1 -31.7 -32.2 -32.6 L-32.1 -34.1 Q-32.15 -34.8 -32.85 -35.15 L-35.4 -36.1 Q-37.35 -36.85 -39.2 -37.75 L-39.35 -37.65" fill="#733c2f" fill-rule="evenodd" stroke="none"/>
      <path d="M-42.2 -34.25 L-42.0 -34.25 -41.85 -34.15 -39.9 -33.55 -37.5 -32.75 -36.2 -33.8 Q-34.75 -35.05 -32.8 -35.6 -32.3 -35.75 -32.35 -36.3 L-32.4 -37.25 Q-32.15 -38.5 -32.2 -39.05 L-32.25 -39.55 -33.4 -40.0 -35.2 -40.85 -37.55 -41.5 -39.05 -41.9 -39.1 -41.95 -39.15 -42.05 -39.15 -42.1 -39.1 -42.2 -39.05 -42.25 Q-39.1 -42.55 -39.3 -42.4 L-39.6 -41.95 -39.45 -41.55 -39.45 -41.5 -39.35 -41.55 -36.0 -40.1 -33.8 -39.25 Q-33.15 -38.95 -33.1 -38.35 L-33.25 -37.0 Q-33.15 -36.25 -33.65 -36.25 L-34.75 -35.95 -36.35 -34.7 -37.85 -33.8 Q-40.75 -34.55 -41.45 -34.9 L-41.45 -35.0 -41.65 -35.15 -41.65 -35.2 -41.65 -35.25 -41.5 -35.35 Q-41.55 -35.55 -41.9 -35.2 -42.3 -34.8 -42.3 -34.3 L-42.3 -34.25 -42.2 -34.25" fill="#fcf9e0" fill-rule="evenodd" stroke="none"/>
      <path d="M-39.1 -42.2 L-39.15 -42.1 -39.15 -42.05 -39.1 -41.95 -39.05 -41.9 -37.55 -41.5 -35.2 -40.85 -33.4 -40.0 -32.25 -39.55 -32.2 -39.05 Q-32.15 -38.5 -32.4 -37.25 L-32.35 -36.3 Q-32.3 -35.75 -32.8 -35.6 -34.75 -35.05 -36.2 -33.8 L-37.5 -32.75 -39.9 -33.55 -41.85 -34.15 -42.0 -34.25 -42.2 -34.25 -42.5 -33.95 Q-38.25 -32.2 -37.5 -32.2 -34.45 -34.5 -32.5 -35.2 -31.6 -35.5 -31.55 -35.95 L-31.75 -37.0 -31.7 -38.15 -31.6 -38.9 Q-31.65 -39.95 -32.0 -40.1 -32.95 -40.35 -34.25 -41.05 -36.3 -42.25 -38.85 -42.25 L-39.1 -42.2 M-41.65 -35.25 L-41.65 -35.2 -41.65 -35.15 -41.45 -35.0 -41.45 -34.9 Q-40.75 -34.55 -37.85 -33.8 L-36.35 -34.7 -34.75 -35.95 -33.65 -36.25 Q-33.15 -36.25 -33.25 -37.0 L-33.1 -38.35 Q-33.15 -38.95 -33.8 -39.25 L-36.0 -40.1 -39.35 -41.55 -39.45 -41.5 -39.5 -41.4 Q-39.5 -41.0 -36.65 -39.8 -33.75 -38.6 -33.75 -38.35 L-33.75 -36.75 Q-35.3 -36.55 -36.5 -35.4 -37.55 -34.35 -37.9 -34.35 L-41.25 -35.35 -41.65 -35.25" fill="#733c2f" fill-rule="evenodd" stroke="none"/>
      <path d="M-42.7 -33.05 L-42.0 -34.45 -40.35 -32.45 -40.25 -32.15 Q-39.75 -28.35 -40.6 -24.7 L-41.2 -23.05 -41.75 -22.0 Q-43.45 -25.15 -43.2 -28.7 L-42.9 -32.15 -42.7 -33.05" fill="#fcf9e0" fill-rule="evenodd" stroke="none"/>
      <path d="M-42.7 -33.05 L-42.9 -32.15 -43.2 -28.7 Q-43.45 -25.15 -41.75 -22.0 L-41.2 -23.05 -40.6 -24.7 Q-39.75 -28.35 -40.25 -32.15 L-40.35 -32.45 -42.0 -34.45 -42.7 -33.05 M-43.05 -35.0 Q-42.65 -36.2 -41.8 -35.75 -41.1 -35.35 -40.7 -34.4 -39.45 -32.75 -39.4 -31.35 L-39.3 -28.45 Q-39.3 -25.4 -39.75 -24.3 L-41.65 -20.3 Q-42.15 -20.3 -43.35 -23.55 L-43.85 -25.4 -43.85 -26.7 -44.05 -29.8 -44.25 -32.0 -43.05 -35.0" fill="#733c2f" fill-rule="evenodd" stroke="none"/>
      <path d="M-42.1 -34.65 Q-42.15 -33.7 -41.6 -33.7 -40.9 -33.7 -40.9 -34.5 -40.9 -35.15 -41.5 -35.15 -42.1 -35.15 -42.1 -34.65 M-42.45 -35.55 L-42.0 -35.75 -41.25 -35.85 -40.95 -35.65 -40.45 -35.1 -40.2 -34.3 -40.15 -33.9 -40.25 -33.4 -41.45 -32.45 -42.2 -33.1 -42.8 -33.8 -42.9 -35.25 -42.45 -35.55" fill="#fcf9e0" fill-rule="evenodd" stroke="none"/>
      <path d="M-42.1 -34.65 Q-42.1 -35.15 -41.5 -35.15 -40.9 -35.15 -40.9 -34.5 -40.9 -33.7 -41.6 -33.7 -42.15 -33.7 -42.1 -34.65 M-43.4 -34.55 L-43.55 -35.5 Q-41.8 -37.15 -41.25 -36.65 L-39.9 -35.9 -39.6 -35.4 -39.55 -34.95 -39.6 -33.3 Q-39.65 -32.85 -41.5 -31.85 L-42.65 -32.7 Q-43.35 -33.05 -43.35 -33.55 L-43.4 -34.55 M-42.45 -35.55 L-42.9 -35.25 -42.8 -33.8 -42.2 -33.1 -41.45 -32.45 -40.25 -33.4 -40.15 -33.9 -40.2 -34.3 -40.45 -35.1 -40.95 -35.65 -41.25 -35.85 -42.0 -35.75 -42.45 -35.55" fill="#733c2f" fill-rule="evenodd" stroke="none"/>
      <path d="M-41.5 -30.25 Q-42.1 -30.25 -42.1 -29.75 -42.15 -28.8 -41.6 -28.8 -40.9 -28.8 -40.9 -29.6 -40.9 -30.25 -41.5 -30.25 M-42.45 -30.65 L-42.0 -30.85 -41.25 -30.95 -40.95 -30.75 -40.45 -30.2 -40.2 -29.4 -40.15 -29.0 -40.25 -28.5 -41.45 -27.55 -42.2 -28.2 -42.8 -28.9 -42.9 -30.35 -42.45 -30.65" fill="#fcf9e0" fill-rule="evenodd" stroke="none"/>
      <path d="M-42.45 -30.65 L-42.9 -30.35 -42.8 -28.9 -42.2 -28.2 -41.45 -27.55 -40.25 -28.5 -40.15 -29.0 -40.2 -29.4 -40.45 -30.2 -40.95 -30.75 -41.25 -30.95 -42.0 -30.85 -42.45 -30.65 M-41.5 -30.25 Q-40.9 -30.25 -40.9 -29.6 -40.9 -28.8 -41.6 -28.8 -42.15 -28.8 -42.1 -29.75 -42.1 -30.25 -41.5 -30.25 M-43.55 -30.6 Q-41.8 -32.25 -41.25 -31.75 L-39.9 -31.0 -39.6 -30.5 -39.55 -30.05 -39.6 -28.4 Q-39.65 -27.95 -41.5 -26.95 L-42.65 -27.8 Q-43.35 -28.15 -43.35 -28.65 L-43.4 -29.65 -43.55 -30.6" fill="#733c2f" fill-rule="evenodd" stroke="none"/>
      <path d="M-42.35 -25.6 Q-42.4 -24.65 -41.85 -24.65 -41.15 -24.65 -41.15 -25.45 -41.15 -26.1 -41.75 -26.1 -42.35 -26.1 -42.35 -25.6 M-43.15 -26.2 L-42.7 -26.5 -42.25 -26.7 -41.5 -26.8 -41.2 -26.6 -40.7 -26.05 -40.45 -25.25 -40.4 -24.85 -40.5 -24.35 Q-40.75 -24.0 -41.7 -23.4 L-42.45 -24.05 -43.05 -24.75 -43.15 -26.2" fill="#fcf9e0" fill-rule="evenodd" stroke="none"/>
      <path d="M-43.8 -26.45 Q-42.05 -28.1 -41.5 -27.6 L-40.15 -26.85 -39.85 -26.35 -39.8 -25.9 -39.85 -24.25 Q-39.9 -23.8 -41.75 -22.8 L-42.9 -23.65 Q-43.6 -24.0 -43.6 -24.5 L-43.65 -25.5 -43.8 -26.45 M-43.15 -26.2 L-43.05 -24.75 -42.45 -24.05 -41.7 -23.4 Q-40.75 -24.0 -40.5 -24.35 L-40.4 -24.85 -40.45 -25.25 -40.7 -26.05 -41.2 -26.6 -41.5 -26.8 -42.25 -26.7 -42.7 -26.5 -43.15 -26.2 M-42.35 -25.6 Q-42.35 -26.1 -41.75 -26.1 -41.15 -26.1 -41.15 -25.45 -41.15 -24.65 -41.85 -24.65 -42.4 -24.65 -42.35 -25.6" fill="#733c2f" fill-rule="evenodd" stroke="none"/>
      <path d="M-42.35 -22.2 Q-42.4 -21.25 -41.85 -21.25 -41.15 -21.25 -41.15 -22.05 -41.15 -22.7 -41.75 -22.7 -42.35 -22.7 -42.35 -22.2 M-43.05 -21.35 L-43.15 -22.8 -42.7 -23.1 -42.25 -23.3 -41.5 -23.4 -41.2 -23.2 -40.7 -22.65 -40.45 -21.85 -40.4 -21.45 -40.5 -20.95 Q-40.75 -20.6 -41.7 -20.0 L-42.45 -20.65 -43.05 -21.35" fill="#fcf9e0" fill-rule="evenodd" stroke="none"/>
      <path d="M-42.35 -22.2 Q-42.35 -22.7 -41.75 -22.7 -41.15 -22.7 -41.15 -22.05 -41.15 -21.25 -41.85 -21.25 -42.4 -21.25 -42.35 -22.2 M-43.65 -22.1 L-43.8 -23.05 Q-42.05 -24.7 -41.5 -24.2 L-40.15 -23.45 -39.85 -22.95 -39.8 -22.5 -39.85 -20.85 Q-39.9 -20.4 -41.75 -19.4 L-42.9 -20.25 Q-43.6 -20.6 -43.6 -21.1 L-43.65 -22.1 M-43.05 -21.35 L-42.45 -20.65 -41.7 -20.0 Q-40.75 -20.6 -40.5 -20.95 L-40.4 -21.45 -40.45 -21.85 -40.7 -22.65 -41.2 -23.2 -41.5 -23.4 -42.25 -23.3 -42.7 -23.1 -43.15 -22.8 -43.05 -21.35" fill="#733c2f" fill-rule="evenodd" stroke="none"/>
    </g>
  </defs>
</svg>
