<svg xmlns="http://www.w3.org/2000/svg" xmlns:xlink="http://www.w3.org/1999/xlink" width="34" height="34"><g transform="matrix(1.0, 0.0, 0.0, 1.0, 1, 1)"><use width="34" height="34" transform="matrix(1.0, 0.0, 0.0, 1.0, -1.0, -1.0)" xlink:href="#sprite0"/></g><defs><g id="sprite0" transform="matrix(1.0, 0.0, 0.0, 1.0, 1.0, 1.0)"><use width="34" height="34" transform="matrix(1.0, 0.0, 0.0, 1.0, -1.0, -1.0)" xlink:href="#sprite1"/><use width="31.95" height="33.4" transform="matrix(1.0, 0.0, 0.0, 1.0, 0.0, -0.45)" xlink:href="#shape1"/></g><g id="sprite1" transform="matrix(1.0, 0.0, 0.0, 1.0, 1.0, 1.0)"><use width="34" height="34" transform="matrix(1.0, 0.0, 0.0, 1.0, -1.0, -1.0)" xlink:href="#shape0"/></g><g id="shape0"><path fill="#cc0" fill-rule="evenodd" stroke="none" d="M0.0 32.0 L0.0 0.0 32.0 0.0 32.0 32.0 0.0 32.0" transform="matrix(1.0, 0.0, 0.0, 1.0, 1.0, 1.0)"/><path fill="none" stroke="#733c2f" stroke-linecap="round" stroke-linejoin="round" stroke-width="2" d="M0.0 32.0 L0.0 0.0 32.0 0.0 32.0 32.0 0.0 32.0 Z" transform="matrix(1.0, 0.0, 0.0, 1.0, 1.0, 1.0)"/></g><g id="shape1"><path fill="#733c2f" fill-rule="evenodd" stroke="none" d="M22.85 8.65 Q22.7 10.3 23.3 11.9 24.05 14.1 26.3 15.25 L29.15 15.0 28.4 12.85 Q26.9 8.5 27.45 3.95 L22.85 8.65 M21.25 15.85 L24.4 15.5 23.15 13.95 Q21.7 12.05 21.85 9.7 L19.25 12.45 Q19.15 14.95 21.25 15.85 M29.8 15.7 L27.5 16.2 Q26.05 17.9 25.8 19.95 25.55 22.25 26.45 24.55 L26.3 24.95 29.65 28.05 29.25 26.55 Q28.05 21.15 29.8 15.7 M21.75 17.4 L21.25 18.2 20.7 19.75 Q22.2 22.35 24.95 23.8 24.0 19.8 26.0 16.45 L21.75 17.4 M31.5 0.15 Q30.35 1.7 28.5 2.9 27.2 9.75 31.3 15.4 28.05 23.25 31.65 31.1 L31.35 31.7 29.4 30.45 Q23.1 27.55 17.1 32.1 L17.05 32.85 16.4 32.95 16.25 32.15 Q10.75 28.1 4.05 30.15 3.2 31.6 1.95 32.25 L1.55 31.9 1.1 32.15 0.55 32.05 Q4.0 24.85 1.45 17.05 L0.25 16.85 1.85 11.75 Q3.45 6.1 0.05 2.0 L0.0 1.15 Q2.65 3.2 5.05 5.7 9.75 4.3 13.9 1.6 L14.2 -0.05 15.0 0.9 15.4 1.8 16.95 2.3 Q24.75 4.6 31.95 -0.45 L31.5 0.15 M16.9 9.15 L15.95 8.8 16.25 14.0 20.4 9.4 16.9 9.15 M4.6 7.0 L2.65 4.5 Q3.7 10.35 1.05 15.7 L3.0 15.75 3.7 14.65 Q6.35 10.9 4.6 7.0 M10.9 10.8 L11.8 10.6 Q16.4 8.25 14.25 2.85 L5.95 6.55 10.9 10.8 M14.8 9.65 L11.8 11.65 15.05 14.7 14.8 9.65 M15.85 6.9 Q17.0 7.55 18.2 7.7 24.0 8.2 27.35 3.05 21.05 6.1 15.25 2.85 L15.85 6.9 M9.95 11.6 L6.35 8.3 6.15 10.55 Q5.8 13.25 4.3 15.8 L6.65 15.7 Q8.6 14.55 9.6 12.5 L9.95 11.6 M9.75 19.15 Q8.6 17.45 6.7 17.1 L4.95 16.85 Q6.85 20.6 7.1 24.85 L10.5 20.45 9.75 19.15 M3.65 17.0 L2.2 17.05 Q2.7 19.05 2.8 21.15 3.05 26.8 2.3 31.15 3.65 29.65 4.5 27.85 7.25 22.35 3.65 17.0 M10.05 14.15 L9.6 14.8 9.0 15.3 8.3 15.7 14.55 16.0 10.95 12.55 10.5 13.45 10.05 14.15 M17.0 14.95 L16.35 16.1 19.45 16.0 18.05 13.9 17.0 14.95 M12.15 20.6 L14.9 21.0 15.4 21.35 14.95 17.35 12.15 20.6 M16.75 21.05 L18.45 19.95 16.5 18.1 16.75 21.05 M11.1 19.2 L11.3 19.8 13.45 17.25 9.7 17.0 11.1 19.2 M14.5 22.3 Q12.6 20.9 10.95 22.35 L8.0 25.45 Q11.95 25.35 15.65 27.15 L15.5 23.0 14.5 22.3 M20.0 25.6 Q18.65 26.0 17.8 27.3 L17.4 28.1 17.8 30.55 19.0 30.0 Q23.25 28.0 27.85 28.4 26.05 26.25 23.55 24.9 L20.0 25.6 M15.9 30.85 L15.8 28.7 Q11.65 26.15 6.8 26.85 L4.7 29.35 6.15 29.0 Q11.45 27.85 15.9 30.85 M19.8 19.45 L19.9 18.0 20.25 17.15 17.45 17.35 19.8 19.45 M19.35 20.8 L18.7 21.0 Q16.5 21.95 16.95 24.3 L17.1 25.7 Q19.85 24.1 22.8 23.85 L19.35 20.8" transform="matrix(1.0, 0.0, 0.0, 1.0, 0.0, 0.45)"/><path fill="#fcf9e0" fill-rule="evenodd" stroke="none" d="M22.85 8.65 L27.45 3.95 Q26.9 8.5 28.4 12.85 L29.15 15.0 26.3 15.25 Q24.05 14.1 23.3 11.9 22.7 10.3 22.85 8.65 M21.75 17.4 L26.0 16.45 Q24.0 19.8 24.95 23.8 22.2 22.35 20.7 19.75 L21.25 18.2 21.75 17.4 M16.9 9.15 L20.4 9.4 16.25 14.0 15.95 8.8 16.9 9.15 M9.95 11.6 L9.6 12.5 Q8.6 14.55 6.65 15.7 L4.3 15.8 Q5.8 13.25 6.15 10.55 L6.35 8.3 9.95 11.6 M17.0 14.95 L18.05 13.9 19.45 16.0 16.35 16.1 17.0 14.95 M14.5 22.3 L15.5 23.0 15.65 27.15 Q11.95 25.35 8.0 25.45 L10.95 22.35 Q12.6 20.9 14.5 22.3 M11.1 19.2 L9.7 17.0 13.45 17.25 11.3 19.8 11.1 19.2 M16.75 21.05 L16.5 18.1 18.45 19.95 16.75 21.05" transform="matrix(1.0, 0.0, 0.0, 1.0, 0.0, 0.45)"/></g></defs></svg>