<?xml version="1.0" encoding="UTF-8" standalone="no"?>
<svg xmlns:xlink="http://www.w3.org/1999/xlink" height="34" width="34" xmlns="http://www.w3.org/2000/svg">
  <g transform="matrix(1.0, 0.0, 0.0, 1.0, 1, 1)">
    <use height="34.0" transform="matrix(1.0, 0.0, 0.0, 1.0, -1.0, -1.0)" width="34.0" xlink:href="#sprite0"/>
  </g>
  <defs>
    <g id="sprite0" transform="matrix(1.0, 0.0, 0.0, 1.0, 1.0, 1.0)">
      <use height="34.0" transform="matrix(1.0, 0.0, 0.0, 1.0, -1.0, -1.0)" width="34.0" xlink:href="#sprite1"/>
      <use height="23.85" transform="matrix(1.0, 0.0, 0.0, 1.0, 5.55, 4.75)" width="19.35" xlink:href="#shape1"/>
    </g>
    <g id="sprite1" transform="matrix(1.0, 0.0, 0.0, 1.0, 1.0, 1.0)">
      <use height="34.0" transform="matrix(1.0, 0.0, 0.0, 1.0, -1.0, -1.0)" width="34.0" xlink:href="#shape0"/>
    </g>
    <g id="shape0" transform="matrix(1.0, 0.0, 0.0, 1.0, 1.0, 1.0)">
      <path d="M0.0 32.0 L0.0 0.0 32.0 0.0 32.0 32.0 0.0 32.0" fill="#cccc00" fill-rule="evenodd" stroke="none"/>
      <path d="M0.0 32.0 L0.0 0.0 32.0 0.0 32.0 32.0 0.0 32.0 Z" fill="none" stroke="#733c2f" stroke-linecap="round" stroke-linejoin="round" stroke-width="2.0"/>
    </g>
    <g id="shape1" transform="matrix(1.0, 0.0, 0.0, 1.0, -5.55, -4.75)">
      <path d="M21.65 23.3 Q18.95 24.2 15.25 22.55 11.55 24.1 9.0 23.25 6.5 22.35 6.5 20.7 6.5 19.1 9.05 17.9 11.7 16.8 15.4 16.8 19.15 16.8 21.75 17.9 24.35 19.1 24.35 20.7 24.35 22.35 21.65 23.3" fill="#733c2f" fill-rule="evenodd" stroke="none"/>
      <path d="M24.9 15.95 Q24.95 17.3 22.3 18.35 19.6 19.4 15.75 19.4 L15.3 19.4 14.9 19.4 Q11.0 19.4 8.3 18.15 5.6 16.95 5.55 16.0 5.45 15.05 6.55 13.65 7.7 12.25 8.7 11.6 L9.4 10.8 Q11.5 8.8 12.9 9.65 L13.9 10.15 Q13.9 11.15 14.9 11.15 L15.3 11.15 15.75 11.15 Q16.75 11.15 16.7 10.15 L17.7 9.65 Q19.1 8.8 21.25 10.8 L21.9 11.6 Q22.9 11.95 23.9 13.3 24.85 14.65 24.9 15.95 M14.85 16.4 Q14.75 17.35 14.9 17.35 L15.3 17.35 14.85 16.4 M15.75 12.7 L15.3 12.7 14.9 12.7 Q12.45 12.7 10.8 13.35 9.05 14.1 9.05 15.0 9.05 15.95 12.1 16.65 15.6 13.8 15.1 14.8 18.35 17.25 19.85 16.65 21.55 15.95 21.55 15.0 21.55 14.1 19.85 13.35 18.15 12.7 15.75 12.7" fill="#733c2f" fill-rule="evenodd" stroke="none"/>
      <path d="M19.05 10.3 Q19.75 11.25 19.4 13.45 19.05 15.65 18.15 17.2 17.25 18.75 15.35 18.75 13.45 18.75 12.5 16.9 11.55 15.05 11.2 13.1 10.85 11.15 12.9 10.05 13.1 9.4 12.75 7.65 L15.15 7.35 Q16.8 6.55 17.3 9.8 18.3 9.3 19.05 10.3" fill="#733c2f" fill-rule="evenodd" stroke="none"/>
      <path d="M14.1 9.55 Q14.5 9.55 14.5 9.2 L14.0 8.7 Q13.4 8.65 13.4 9.05 13.4 9.55 14.1 9.55 M15.25 9.2 L15.65 9.45 15.95 9.35 16.3 9.2 16.5 8.9 16.45 8.7 16.35 8.75 Q16.25 8.5 15.85 8.6 15.25 8.7 15.25 9.2 M16.9 9.45 Q16.1 10.25 14.95 10.25 13.85 10.25 13.0 9.45 12.2 8.65 12.2 7.5 12.2 6.4 13.0 5.55 13.85 4.75 14.95 4.75 16.1 4.75 16.9 5.55 17.7 6.4 17.7 7.5 17.7 8.65 16.9 9.45" fill="#733c2f" fill-rule="evenodd" stroke="none"/>
      <path d="M15.25 9.2 Q15.25 8.7 15.85 8.6 16.25 8.5 16.35 8.75 L16.45 8.7 16.5 8.9 16.3 9.2 15.95 9.35 15.65 9.45 15.25 9.2 M14.1 9.55 Q13.4 9.55 13.4 9.05 13.4 8.65 14.0 8.7 L14.5 9.2 Q14.5 9.55 14.1 9.55" fill="#fcf9e0" fill-rule="evenodd" stroke="none"/>
      <path d="M18.1 25.4 L18.2 25.45 18.25 25.5 18.25 25.55 18.3 25.6 18.35 25.65 18.35 25.7 18.35 25.8 18.35 25.95 18.3 26.1 18.3 26.15 18.25 26.2 18.25 26.25 18.2 26.3 18.25 26.35 18.25 26.4 18.2 26.45 18.15 26.45 18.1 26.55 18.1 26.6 18.05 26.65 18.0 26.7 17.9 26.75 17.9 26.8 17.8 26.9 17.8 26.95 17.85 26.9 17.9 26.85 17.95 26.8 18.05 26.75 18.15 26.75 18.25 26.75 18.35 26.8 18.5 26.8 18.6 26.75 18.65 26.75 18.8 26.75 18.85 26.8 18.9 26.9 18.95 26.95 19.0 26.9 19.1 26.8 19.15 26.75 19.2 26.7 19.25 26.65 19.25 26.6 19.35 26.5 19.45 26.45 19.5 26.45 19.5 26.4 19.6 26.45 19.7 26.45 19.8 26.45 19.85 26.55 19.8 26.55 19.75 26.65 19.7 26.7 19.7 26.8 19.65 26.85 19.65 26.9 19.6 26.95 19.6 27.0 19.5 27.2 19.4 27.3 19.3 27.4 19.3 27.5 19.35 27.55 19.35 27.4 19.4 27.35 19.5 27.3 19.5 27.25 19.55 27.15 19.65 27.05 19.7 27.0 19.8 26.9 19.85 26.9 20.1 26.8 20.2 26.85 20.25 26.9 20.25 26.95 20.3 27.0 20.25 27.05 20.25 27.1 20.2 27.15 20.15 27.2 20.1 27.25 20.1 27.4 20.05 27.45 20.05 27.5 20.0 27.55 19.95 27.65 19.85 27.75 19.8 27.85 19.75 27.85 19.7 27.9 19.6 27.9 19.5 27.85 19.45 27.8 19.4 27.75 19.35 27.7 19.35 27.6 19.3 27.65 19.3 27.7 19.2 27.8 18.95 27.85 18.9 27.9 18.8 27.9 18.65 27.9 18.6 27.85 18.55 27.8 18.45 27.85 18.35 27.9 18.25 27.95 18.1 27.9 18.0 27.85 17.95 27.8 17.9 27.75 17.9 27.7 17.85 27.7 17.75 27.7 17.5 27.85 17.45 27.9 17.4 27.95 17.35 28.0 17.35 28.1 17.3 28.15 17.2 28.2 17.15 28.25 17.05 28.25 16.9 28.25 16.85 28.2 16.8 28.25 16.75 28.25 16.65 28.25 16.5 28.25 16.4 28.2 16.35 28.15 16.3 28.05 16.3 27.75 16.35 27.7 16.35 27.65 16.4 27.6 16.45 27.55 16.45 27.45 16.5 27.4 16.5 27.35 16.55 27.35 16.65 27.3 16.7 27.25 16.75 27.2 16.7 27.15 16.65 27.2 16.6 27.25 16.55 27.3 16.45 27.35 16.35 27.35 16.25 27.4 16.2 27.45 16.15 27.5 16.05 27.6 15.95 27.75 15.9 27.8 15.9 27.85 15.8 28.0 15.4 28.3 15.05 28.45 14.95 28.4 14.85 28.35 14.8 28.3 14.75 28.25 14.7 28.25 14.7 28.15 14.7 28.05 14.7 27.85 14.5 28.2 14.15 28.55 14.1 28.55 14.05 28.6 13.95 28.6 13.9 28.6 13.8 28.6 13.7 28.55 13.6 28.5 13.55 28.45 13.5 28.4 13.5 28.35 13.45 28.3 13.45 28.1 13.5 28.0 13.5 27.95 13.9 27.55 14.25 26.95 14.45 26.7 13.5 27.5 12.55 28.35 12.45 28.45 12.4 28.5 12.4 28.55 12.3 28.55 12.2 28.6 12.1 28.55 12.0 28.55 11.9 28.5 11.85 28.45 11.8 28.35 11.8 28.3 11.75 28.25 11.75 28.05 11.8 28.0 11.8 27.9 11.85 27.85 11.9 27.8 11.95 27.75 12.05 27.65 12.15 27.55 12.2 27.5 12.2 27.45 12.25 27.4 12.9 26.5 13.5 25.75 13.85 25.4 13.95 25.35 14.0 25.3 14.05 25.25 14.2 25.15 14.2 25.1 14.35 25.05 14.4 25.0 14.5 24.95 14.6 24.9 14.7 24.95 14.8 25.0 14.85 25.05 14.9 25.1 14.9 25.25 14.85 25.3 14.8 25.4 14.7 25.5 14.55 25.65 14.35 25.8 14.35 25.85 14.4 25.85 14.45 25.8 14.6 25.7 14.75 25.6 15.3 25.25 15.9 24.9 15.95 24.9 15.95 24.85 16.1 24.9 16.15 24.95 16.2 25.0 16.25 25.05 16.25 25.15 16.3 25.2 16.3 25.25 16.25 25.3 16.25 25.35 16.25 25.45 16.25 25.6 16.3 25.6 16.35 25.6 16.35 25.65 16.3 25.7 16.25 25.75 16.15 25.8 15.9 26.1 15.5 26.6 15.35 26.95 15.15 27.15 15.25 27.1 15.4 27.05 15.6 26.95 15.65 26.9 15.65 26.85 15.75 26.8 15.85 26.75 16.0 26.5 16.5 26.0 16.75 25.75 16.8 25.7 16.8 25.6 16.85 25.6 16.85 25.55 16.9 25.5 16.95 25.45 17.05 25.45 17.2 25.45 17.25 25.5 17.3 25.55 17.35 25.6 17.45 25.6 17.5 25.55 17.55 25.5 17.55 25.45 17.65 25.4 17.7 25.35 17.8 25.35 17.95 25.35 18.1 25.4 M15.1 27.25 L15.15 27.2 15.15 27.15 15.1 27.25 M13.05 25.65 L13.1 25.7 13.1 25.8 13.1 25.9 13.05 25.95 13.05 26.0 12.95 26.0 12.95 26.05 12.85 26.1 12.8 26.1 12.35 26.7 11.7 27.35 11.4 27.65 11.25 27.75 11.0 27.95 10.85 28.05 10.8 28.05 10.7 28.1 10.6 28.05 10.5 28.0 10.45 27.95 10.45 27.9 10.4 27.85 10.4 27.7 10.45 27.65 10.45 27.55 10.5 27.5 11.35 26.8 12.1 26.05 12.4 25.75 12.45 25.7 12.55 25.65 12.6 25.6 12.65 25.6 12.75 25.6 12.85 25.6 12.95 25.6 13.05 25.6 13.05 25.65 M11.4 25.65 L11.4 25.7 11.45 25.8 11.45 25.85 11.5 25.9 11.5 25.95 11.45 26.0 11.45 26.05 11.3 26.2 11.25 26.25 11.1 26.3 11.0 26.35 10.9 26.4 10.85 26.45 10.8 26.5 10.75 26.55 10.65 26.65 10.45 26.85 10.3 27.05 10.3 27.1 10.35 27.15 10.35 27.35 10.3 27.35 10.2 27.35 9.95 27.4 9.85 27.45 9.8 27.5 9.75 27.5 9.6 27.5 9.5 27.45 9.45 27.4 9.45 27.35 9.4 27.35 9.4 27.25 9.4 27.15 9.45 27.1 9.85 26.55 10.25 26.2 10.65 25.8 10.8 25.75 11.0 25.65 11.05 25.6 11.1 25.6 11.2 25.6 11.3 25.6 11.4 25.65" fill="#733c2f" fill-rule="evenodd" stroke="none"/>
    </g>
  </defs>
</svg>
