<?xml version="1.0" encoding="UTF-8" standalone="no"?>
<svg xmlns:xlink="http://www.w3.org/1999/xlink" height="34" width="34" xmlns="http://www.w3.org/2000/svg">
  <g transform="matrix(1.0, 0.0, 0.0, 1.0, 1, 1)">
    <use height="34.0" transform="matrix(1.0, 0.0, 0.0, 1.0, -1.0, -1.0)" width="34.0" xlink:href="#sprite0"/>
  </g>
  <defs>
    <g id="sprite0" transform="matrix(1.0, 0.0, 0.0, 1.0, 1.0, 1.0)">
      <use height="34.0" transform="matrix(1.0, 0.0, 0.0, 1.0, -1.0, -1.0)" width="34.0" xlink:href="#sprite1"/>
      <use height="28.95" transform="matrix(1.0, 0.0, 0.0, 1.0, 2.65, 0.95)" width="27.75" xlink:href="#shape1"/>
    </g>
    <g id="sprite1" transform="matrix(1.0, 0.0, 0.0, 1.0, 1.0, 1.0)">
      <use height="34.0" transform="matrix(1.0, 0.0, 0.0, 1.0, -1.0, -1.0)" width="34.0" xlink:href="#shape0"/>
    </g>
    <g id="shape0" transform="matrix(1.0, 0.0, 0.0, 1.0, 1.0, 1.0)">
      <path d="M0.0 32.0 L0.0 0.0 32.0 0.0 32.0 32.0 0.0 32.0" fill="#cccc00" fill-rule="evenodd" stroke="none"/>
      <path d="M0.0 32.0 L0.0 0.0 32.0 0.0 32.0 32.0 0.0 32.0 Z" fill="none" stroke="#733c2f" stroke-linecap="round" stroke-linejoin="round" stroke-width="2.0"/>
    </g>
    <g id="shape1" transform="matrix(1.0, 0.0, 0.0, 1.0, -2.65, -0.95)">
      <path d="M29.95 3.2 Q30.25 2.65 30.4 3.2 L30.2 3.4 Q29.7 3.6 29.95 3.2 M28.5 3.75 L29.05 4.75 27.95 4.2 27.65 5.3 27.35 4.8 26.55 4.05 26.25 3.6 27.35 3.65 Q28.0 2.1 27.75 3.15 L28.7 3.0 28.5 3.75 M25.45 3.75 Q25.4 4.05 25.15 3.75 24.7 3.5 25.35 3.6 L25.45 3.75 M27.55 1.4 L27.55 1.55 27.45 2.1 Q27.15 2.0 27.15 1.75 L27.25 1.2 Q27.45 0.6 27.55 1.4 M29.25 5.5 Q29.7 5.45 29.85 5.75 30.5 6.2 29.85 6.4 L29.65 6.3 Q29.15 6.0 29.25 5.5" fill="#fcf9e0" fill-rule="evenodd" stroke="none"/>
      <path d="M26.0 4.5 L26.0 4.45 Q26.4 3.75 27.1 3.9 27.5 3.9 27.25 4.0 26.8 4.05 26.7 4.3 L26.65 4.35 26.65 5.6 26.0 6.3 24.5 6.65 24.5 6.85 Q25.55 8.0 25.4 9.45 L19.15 15.95 21.15 18.0 18.85 20.45 17.15 18.95 8.5 29.2 2.65 29.9 3.35 24.3 13.1 15.05 11.5 13.45 13.95 11.1 15.8 13.0 22.1 6.05 23.95 6.5 Q24.25 6.05 24.8 5.95 25.7 5.95 26.05 5.3 L26.0 4.5 M23.85 7.05 L23.05 6.55 Q21.85 6.35 22.6 7.7 23.15 8.7 24.05 9.05 L24.85 9.1 Q25.1 8.2 24.4 7.9 L24.25 8.0 24.0 8.15 23.9 8.05 23.7 8.05 23.6 8.1 23.45 7.85 23.4 7.8 23.4 7.65 23.45 7.6 23.7 7.4 23.85 7.5 23.85 7.05 M9.5 22.45 L14.7 16.75 13.75 15.8 4.85 24.4 3.75 28.9 8.2 27.7 16.4 18.2 15.5 17.25 9.35 23.9 6.9 25.9 6.85 25.8 6.85 25.65 8.65 23.45 9.5 22.45" fill="#733c2f" fill-rule="evenodd" stroke="none"/>
      <path d="M8.65 23.45 L6.85 25.65 6.85 25.8 6.9 25.9 9.35 23.9 15.5 17.25 16.4 18.2 8.2 27.7 3.75 28.9 4.85 24.4 13.75 15.8 14.7 16.75 9.5 22.45 8.85 23.2 8.65 23.45" fill="#fcf9e0" fill-rule="evenodd" stroke="none"/>
      <path d="M30.05 4.7 L30.1 4.7 29.95 4.85 29.85 4.9 29.8 4.8 29.6 4.65 29.55 4.6 29.45 4.6 29.4 4.6 29.4 4.65 29.35 4.55 29.2 4.55 29.2 4.5 29.15 4.5 29.1 4.45 29.05 4.5 28.95 4.45 28.9 4.4 28.8 4.4 28.75 4.35 28.75 4.25 28.7 4.2 28.7 4.15 28.65 4.15 28.75 4.1 28.8 4.1 28.85 4.05 28.9 4.1 28.95 4.1 29.0 4.05 29.0 4.1 29.1 4.1 29.15 4.15 29.25 4.15 29.25 4.2 29.4 4.15 29.45 4.25 29.55 4.25 29.6 4.3 29.7 4.3 29.8 4.35 29.85 4.4 30.0 4.55 30.05 4.65 30.05 4.7 M28.8 2.2 L28.85 2.15 28.85 2.25 28.9 2.3 28.9 2.4 28.85 2.45 28.75 2.55 28.65 2.75 28.35 2.9 28.2 3.1 28.15 3.15 28.05 3.1 27.95 3.1 27.95 3.0 28.0 3.0 28.05 2.8 28.25 2.65 28.45 2.45 28.4 2.4 28.45 2.3 28.45 2.25 28.55 2.1 28.6 2.15 28.65 2.15 28.75 2.15 28.8 2.2 M28.25 5.4 L28.3 5.45 28.4 5.5 28.4 5.55 28.4 5.6 28.35 5.65 28.35 5.7 28.45 5.8 28.45 5.85 28.45 5.9 28.4 5.9 28.45 6.0 28.4 6.05 28.45 6.1 28.45 6.15 28.4 6.2 28.35 6.35 28.4 6.4 28.3 6.45 28.2 6.5 28.1 6.5 28.05 6.4 28.05 6.3 28.0 6.3 28.0 6.15 28.05 6.05 28.0 6.0 28.1 5.85 28.1 5.8 28.05 5.75 28.05 5.7 28.1 5.6 28.15 5.55 28.25 5.4 M26.95 3.05 L26.85 2.95 26.8 2.95 26.7 2.9 26.6 2.85 26.4 2.75 26.1 2.4 26.0 2.4 25.95 2.4 25.9 2.3 25.95 2.25 25.9 2.2 25.95 2.15 26.05 2.0 26.15 2.0 26.2 1.95 26.25 2.0 26.7 2.4 26.85 2.55 26.9 2.65 27.0 2.7 27.0 2.8 27.1 2.9 26.95 3.05" fill="#733c2f" fill-rule="evenodd" stroke="none"/>
    </g>
  </defs>
</svg>
