<?xml version="1.0" encoding="UTF-8" standalone="no"?>
<svg xmlns:xlink="http://www.w3.org/1999/xlink" height="34" width="34" xmlns="http://www.w3.org/2000/svg">
  <g transform="matrix(1.0, 0.0, 0.0, 1.0, 1, 1)">
    <use height="34.0" transform="matrix(1.0, 0.0, 0.0, 1.0, -1.0, -1.0)" width="34.0" xlink:href="#sprite0"/>
  </g>
  <defs>
    <g id="sprite0" transform="matrix(1.0, 0.0, 0.0, 1.0, 1.0, 1.0)">
      <use height="34.0" transform="matrix(1.0, 0.0, 0.0, 1.0, -1.0, -1.0)" width="34.0" xlink:href="#shape0"/>
    </g>
    <g id="shape0" transform="matrix(1.0, 0.0, 0.0, 1.0, 1.0, 1.0)">
      <path d="M32.0 12.0 L32.0 14.7 15.2 28.8 32.0 12.0 M32.0 17.05 L32.0 20.95 15.2 28.8 32.0 17.05 M32.0 24.3 L32.0 25.85 15.2 28.8 32.0 24.3 M32.0 30.3 L32.0 31.8 15.2 28.8 32.0 30.3 M27.15 32.0 L24.0 32.0 15.2 28.8 27.15 32.0 M22.05 32.0 L19.8 32.0 15.2 28.8 0.0 27.5 0.0 23.3 15.2 28.8 22.05 32.0 M17.9 32.0 L17.45 32.0 15.2 28.8 17.9 32.0 M17.05 32.0 L16.7 32.0 15.2 28.8 17.05 32.0 M16.4 32.0 L15.5 32.0 15.2 28.8 16.4 32.0 M15.2 32.0 L14.65 32.0 15.2 28.8 15.2 32.0 M14.35 32.0 L14.05 32.0 15.2 28.8 14.35 32.0 M13.7 32.0 L12.95 32.0 15.2 28.8 13.7 32.0 M12.0 32.0 L11.4 32.0 15.2 28.8 12.0 32.0 M10.65 32.0 L9.65 32.0 15.2 28.8 10.65 32.0 M6.4 32.0 L3.3 32.0 15.2 28.8 6.4 32.0 M0.0 30.15 L0.0 28.8 15.2 28.8 0.0 30.15 M0.0 21.7 L0.0 20.05 15.2 28.8 0.0 21.7 M0.0 10.7 L0.0 7.1 15.2 28.8 0.0 10.7 M0.0 2.5 L0.0 0.0 1.75 0.0 15.2 28.8 0.0 2.5 M7.5 0.0 L12.7 0.0 15.2 28.8 7.5 0.0 M17.7 0.0 L20.3 0.0 15.2 28.8 28.65 0.0 31.85 0.0 15.2 28.8 17.7 0.0 M22.95 0.0 L25.7 0.0 15.2 28.8 22.95 0.0" fill="#cccc00" fill-rule="evenodd" stroke="none"/>
      <path d="M31.85 0.0 L32.0 0.0 32.0 12.0 15.2 28.8 31.85 0.0 M32.0 14.7 L32.0 17.05 15.2 28.8 32.0 20.95 32.0 24.3 15.2 28.8 32.0 25.85 32.0 30.3 15.2 28.8 32.0 31.8 32.0 32.0 27.15 32.0 15.2 28.8 24.0 32.0 22.05 32.0 15.2 28.8 0.0 23.3 0.0 21.7 15.2 28.8 0.0 20.05 0.0 10.7 15.2 28.8 0.0 7.1 0.0 2.5 15.2 28.8 1.75 0.0 7.5 0.0 15.2 28.8 12.7 0.0 17.7 0.0 15.2 28.8 9.65 32.0 6.4 32.0 15.2 28.8 3.3 32.0 0.0 32.0 0.0 30.15 15.2 28.8 0.0 28.8 0.0 27.5 15.2 28.8 19.8 32.0 17.9 32.0 15.2 28.8 17.45 32.0 17.05 32.0 15.2 28.8 16.7 32.0 16.4 32.0 15.2 28.8 15.5 32.0 15.2 32.0 15.2 28.8 14.65 32.0 14.35 32.0 15.2 28.8 14.05 32.0 13.7 32.0 15.2 28.8 12.95 32.0 12.0 32.0 15.2 28.8 11.4 32.0 10.65 32.0 15.2 28.8 32.0 14.7 M20.3 0.0 L22.95 0.0 15.2 28.8 25.7 0.0 28.65 0.0 15.2 28.8 20.3 0.0" fill="#faf8c3" fill-rule="evenodd" stroke="none"/>
      <path d="M31.85 0.0 L32.0 0.0 32.0 12.0 32.0 14.7 32.0 17.05 32.0 20.95 32.0 24.3 32.0 25.85 32.0 30.3 32.0 31.8 32.0 32.0 27.15 32.0 24.0 32.0 22.05 32.0 19.8 32.0 17.9 32.0 17.45 32.0 17.05 32.0 16.7 32.0 16.4 32.0 15.5 32.0 15.2 32.0 14.65 32.0 14.35 32.0 14.05 32.0 13.7 32.0 12.95 32.0 12.0 32.0 11.4 32.0 10.65 32.0 9.65 32.0 6.4 32.0 3.3 32.0 0.0 32.0 0.0 30.15 0.0 28.8 0.0 27.5 0.0 23.3 0.0 21.7 0.0 20.05 0.0 10.7 0.0 7.1 0.0 2.5 0.0 0.0 1.75 0.0 7.5 0.0 12.7 0.0 17.7 0.0 20.3 0.0 22.95 0.0 25.7 0.0 28.65 0.0 31.85 0.0 Z" fill="none" stroke="#733c2f" stroke-linecap="round" stroke-linejoin="round" stroke-width="2.0"/>
      <path d="M18.95 7.3 L19.2 7.3 22.2 9.05 23.5 11.9 24.1 14.15 23.35 15.9 20.2 15.9 20.2 14.35 20.95 13.4 19.2 11.5 18.25 15.95 18.25 18.45 20.6 26.65 24.6 29.2 24.6 30.2 21.25 31.0 16.6 29.5 16.6 27.4 15.25 18.6 14.1 27.15 14.1 30.15 9.35 31.35 6.4 30.4 6.4 29.6 10.55 26.7 12.15 16.9 12.15 16.85 12.1 16.65 18.95 7.3 M10.75 16.05 L10.1 16.5 8.45 17.0 6.95 13.05 7.7 8.85 9.8 7.3 13.15 7.3 13.15 6.9 13.25 6.05 12.6 5.5 Q12.25 5.05 12.25 3.95 12.25 1.1 14.4 0.95 16.55 0.8 17.45 1.3 18.35 1.8 18.4 3.0 18.45 4.2 17.85 5.9 16.75 6.05 17.2 6.9 17.2 7.2 17.6 7.3 L8.9 15.05 10.75 16.05" fill="#733c2f" fill-rule="evenodd" stroke="none"/>
      <path d="M12.1 16.65 L11.85 15.3 10.75 16.05 8.9 15.05 17.6 7.3 17.65 7.3 18.95 7.3 12.1 16.65" fill="#fcf9e0" fill-rule="evenodd" stroke="none"/>
      <path d="M17.1 3.4 L17.35 3.85 Q17.35 4.4 16.6 4.4 L15.7 4.2 15.65 4.2 15.65 4.15 Q16.8 3.3 16.95 3.3 L17.0 3.35 17.1 3.4" fill="#fcf9e0" fill-rule="evenodd" stroke="none"/>
      <path d="M13.65 3.4 L13.75 3.35 13.8 3.3 15.1 4.15 15.1 4.2 15.05 4.2 14.15 4.4 Q13.4 4.4 13.4 3.85 L13.65 3.4" fill="#fcf9e0" fill-rule="evenodd" stroke="none"/>
      <path d="M19.05 19.95 L19.05 20.05 19.05 19.95" fill="#ffffff" fill-rule="evenodd" stroke="none"/>
      <path d="M19.05 19.95 L19.05 17.5 20.2 17.5 20.2 15.9 23.35 15.9 21.55 20.05 19.85 20.05 19.05 20.05 19.05 19.95" fill="#733c2f" fill-rule="evenodd" stroke="none"/>
      <path d="M19.85 20.05 L20.9 26.85 21.8 27.1 Q23.35 27.5 24.1 28.0 L24.75 28.7 Q25.0 31.7 20.3 31.55 L16.0 29.9 16.0 28.4 14.9 20.55 19.05 19.95 19.05 20.05 19.85 20.05 M8.45 13.65 L16.4 13.65 16.4 17.0 8.45 17.0 8.45 13.65" fill="#fcf9e0" fill-rule="evenodd" stroke="none"/>
      <path d="M19.85 20.05 L20.9 26.85 21.8 27.1 Q23.35 27.5 24.1 28.0 L24.75 28.7 Q25.0 31.7 20.3 31.55 L16.0 29.9 16.0 28.4 14.9 20.55 19.05 19.95 M8.45 13.65 L16.4 13.65 16.4 17.0 8.45 17.0 8.45 13.65" fill="none" stroke="#733c2f" stroke-linecap="round" stroke-linejoin="round" stroke-width="1.0"/>
    </g>
  </defs>
</svg>
