<svg xmlns="http://www.w3.org/2000/svg" xmlns:xlink="http://www.w3.org/1999/xlink" width="34" height="34"><g transform="matrix(1.0, 0.0, 0.0, 1.0, 1, 1)"><use width="38.1" height="37.65" transform="matrix(1.0, 0.0, 0.0, 1.0, -5.1, -2.55)" xlink:href="#sprite0"/></g><defs><g id="sprite0" transform="matrix(1.0, 0.0, 0.0, 1.0, 5.1, 2.55)"><use width="34" height="34" transform="matrix(1.0, 0.0, 0.0, 1.0, -1.0, -1.0)" xlink:href="#sprite1"/><clipPath id="clipPath0" transform="matrix(1.0, 0.0, 0.0, 1.0, 0.0, 0.0)"><path fill="red" fill-rule="evenodd" stroke="none" d="M0.0 32.0 L0.0 0.0 32.0 0.0 32.0 32.0 0.0 32.0"/></clipPath><g clip-path="url(#clipPath0)"><use width="35.8" height="37.65" transform="matrix(1.0, 0.0, 0.0, 1.0, -5.1, -2.55)" xlink:href="#shape2"/></g><use width="34" height="34" transform="matrix(1.0, 0.0, 0.0, 1.0, -1.0, -1.0)" xlink:href="#shape3"/></g><g id="sprite1" transform="matrix(1.0, 0.0, 0.0, 1.0, 1.0, 1.0)"><use width="34" height="34" transform="matrix(1.0, 0.0, 0.0, 1.0, -1.0, -1.0)" xlink:href="#shape0"/></g><g id="shape0"><path fill="#cc0" fill-rule="evenodd" stroke="none" d="M0.0 32.0 L0.0 0.0 32.0 0.0 32.0 32.0 0.0 32.0" transform="matrix(1.0, 0.0, 0.0, 1.0, 1.0, 1.0)"/><path fill="none" stroke="#733c2f" stroke-linecap="round" stroke-linejoin="round" stroke-width="2" d="M0.0 32.0 L0.0 0.0 32.0 0.0 32.0 32.0 0.0 32.0 Z" transform="matrix(1.0, 0.0, 0.0, 1.0, 1.0, 1.0)"/></g><g id="shape2"><path fill="#733c2f" fill-rule="evenodd" stroke="none" d="M4.3 -1.55 L6.0 0.55 6.4 1.15 6.45 1.2 7.2 2.55 7.15 2.45 7.45 3.1 7.5 3.1 8.05 4.85 9.3 4.85 11.65 4.55 Q12.25 4.25 12.5 4.3 L14.45 4.05 14.6 4.0 18.35 4.7 18.9 4.8 18.95 4.85 Q19.6 4.95 20.0 5.6 L21.4 7.8 22.55 9.15 23.05 9.95 Q23.55 10.2 23.95 11.0 L24.05 11.25 24.3 11.65 24.3 11.7 24.8 12.75 24.8 12.8 24.9 15.9 Q25.0 16.7 24.75 17.15 L24.7 17.25 Q26.4 18.65 27.6 20.3 L29.1 21.85 29.25 22.1 Q30.3 24.95 30.25 26.25 L30.2 26.9 30.45 28.9 30.65 29.45 30.55 31.3 30.25 33.7 30.0 34.2 29.45 34.45 28.95 34.55 26.95 34.7 24.3 34.35 24.3 34.3 23.9 34.2 23.1 34.05 23.05 34.05 22.3 33.95 20.6 33.95 17.95 34.05 17.25 33.9 16.5 33.85 13.2 34.2 13.15 34.2 12.8 34.25 12.4 34.15 12.0 33.95 11.7 33.6 11.75 33.65 9.75 31.3 8.35 28.85 6.9 30.55 2.95 34.15 2.55 34.4 1.9 34.6 1.85 34.65 0.0 35.1 Q-1.85 35.1 -1.95 33.25 L-1.95 33.2 -1.95 32.15 -1.95 32.1 Q-2.75 30.7 -2.7 29.75 -2.7 28.7 -2.3 28.25 L-2.1 28.0 -2.15 27.55 -2.15 27.2 Q-4.0 26.55 -4.7 22.0 L-4.7 21.95 -5.1 17.3 Q-5.1 15.6 -4.5 13.35 L-3.8 11.4 Q-3.8 10.3 -3.05 10.05 L-2.8 10.0 -2.8 9.95 -2.75 9.9 -2.4 9.55 -2.4 5.7 -2.6 3.0 -3.05 2.7 Q-3.7 2.2 -3.45 1.35 -3.45 0.5 -2.8 -0.2 -2.8 -1.9 -2.15 -2.15 L-1.55 -2.4 -0.7 -2.55 0.35 -2.5 3.85 -1.8 4.3 -1.55" transform="matrix(1.0, 0.0, 0.0, 1.0, 5.1, 2.55)"/><path fill="#733c2f" fill-rule="evenodd" stroke="none" d="M-0.7 -1.45 L-0.95 -1.45 Q-0.95 -1.9 3.6 -0.85 L5.15 1.1 6.55 3.5 7.15 5.35 Q7.65 6.1 9.45 5.8 L14.2 5.6 Q16.55 5.8 18.6 7.0 20.65 8.15 21.75 9.7 22.8 11.25 23.15 13.1 L23.25 15.8 Q23.25 17.4 23.75 17.8 26.2 19.7 27.55 22.15 29.55 25.75 29.55 31.15 L29.3 33.5 28.8 33.55 26.95 33.7 24.55 33.35 22.3 32.95 16.4 32.85 13.1 33.2 12.75 33.25 12.45 32.95 10.55 30.7 Q8.95 28.4 8.5 26.2 L7.85 27.65 Q7.4 28.55 6.15 29.85 L2.3 33.4 1.45 33.7 0.0 34.1 Q-0.9 34.1 -0.95 33.2 L-1.15 27.45 -1.4 19.9 -1.5 10.8 Q-1.25 7.2 -1.4 5.6 L-1.8 -0.15 -1.55 -1.4 -0.7 -1.45" transform="matrix(1.0, 0.0, 0.0, 1.0, 5.1, 2.55)"/><path fill="#fcf9e0" fill-rule="evenodd" stroke="none" d="M22.25 10.8 Q22.7 10.75 23.05 11.45 L23.45 12.2 23.8 12.95 23.9 15.9 Q24.1 17.0 23.3 17.0 22.35 17.0 22.3 15.5 L22.4 13.9 22.15 12.45 21.85 11.4 Q21.85 10.85 22.25 10.8 M21.4 11.25 Q21.9 16.7 20.8 18.8 L19.4 21.3 18.7 21.4 Q18.6 17.55 17.8 13.85 L17.75 12.8 Q19.0 10.8 20.9 10.3 L21.4 11.25 M20.4 23.05 L21.3 22.45 21.3 22.3 23.05 23.4 24.35 23.1 Q24.9 23.1 25.05 23.4 L25.05 23.75 Q25.6 26.85 24.1 27.3 23.45 27.45 22.55 26.75 L22.6 26.6 20.55 23.1 20.45 23.1 20.4 23.05 M22.85 19.4 L22.85 19.25 22.75 18.6 23.15 18.75 Q24.2 19.35 24.2 20.05 23.15 22.7 22.9 22.7 L21.4 21.8 21.4 21.7 Q21.9 20.35 22.85 19.4 M24.65 21.85 Q24.65 20.35 25.8 20.55 26.95 20.75 28.3 22.45 29.25 25.05 29.25 26.25 29.25 27.95 27.45 27.95 26.35 27.95 25.9 25.6 L25.65 23.2 25.15 22.6 Q24.65 22.3 24.65 21.85 M24.35 23.85 L24.35 23.9 24.35 23.85 M18.75 5.8 L19.15 6.1 20.75 8.65 19.9 9.85 Q19.0 10.85 18.55 10.85 17.05 10.85 15.8 9.7 L14.15 7.8 Q13.45 7.1 12.1 6.95 10.75 6.75 10.85 6.5 L11.6 5.8 Q12.3 5.3 12.5 5.3 L14.7 5.0 Q15.65 4.9 18.05 5.65 L18.75 5.8 M13.75 8.6 L16.3 12.55 Q16.9 13.6 16.9 15.7 16.9 15.9 15.2 16.5 L12.95 17.05 6.75 13.85 4.95 12.15 Q3.95 10.95 3.95 10.45 3.95 8.75 6.8 7.2 L10.7 7.05 Q12.4 7.55 13.75 8.6 M6.8 5.8 L6.2 6.8 Q5.5 7.6 4.95 7.6 4.5 7.6 2.75 4.85 L1.1 2.25 Q1.1 1.0 2.25 0.45 3.65 -0.2 5.65 1.8 6.25 2.55 6.5 3.85 L6.8 5.8 M2.0 10.25 Q-0.05 10.25 -0.7 8.8 L-1.0 7.1 -1.25 3.8 Q-1.25 1.1 1.15 3.45 3.55 5.8 3.55 8.7 3.55 10.25 2.0 10.25 M2.5 11.65 L3.1 13.0 Q3.1 13.85 4.15 16.15 L5.2 18.65 4.4 22.6 1.4 24.85 Q-0.9 26.3 -1.35 26.3 -3.0 26.3 -3.7 21.85 L-4.1 17.3 Q-4.1 15.7 -3.55 13.6 L-2.75 11.6 -2.8 11.4 Q-2.8 11.05 -2.6 10.95 L-2.25 10.85 -2.05 10.6 Q-1.2 9.7 -1.15 10.75 L-0.35 10.7 2.75 11.2 2.85 11.4 2.5 11.65 M6.35 14.45 Q7.8 14.9 8.25 15.5 L9.25 16.85 Q9.75 17.6 9.75 18.2 L9.75 18.5 Q9.6 19.5 8.5 19.5 L6.8 19.05 6.75 18.8 6.5 17.6 Q6.15 16.25 5.4 15.15 L4.95 14.1 4.5 12.75 5.55 13.5 6.35 14.45 M9.85 20.5 L10.15 20.25 10.25 20.2 12.3 20.5 13.35 21.25 13.35 21.55 13.4 22.2 13.35 25.8 Q13.35 27.15 14.5 29.55 L15.65 32.05 Q15.65 32.95 14.6 32.95 12.95 32.95 10.95 29.65 L9.25 26.25 9.45 24.3 9.55 22.35 Q9.45 21.2 9.6 20.7 L9.85 20.5 M5.8 23.85 L6.7 21.95 6.95 20.75 Q8.3 21.95 8.3 23.3 8.3 25.0 6.9 27.35 5.45 29.7 4.35 29.7 3.65 29.7 2.8 28.0 L3.4 27.6 3.85 25.75 4.35 25.1 4.8 24.95 5.8 23.85 M10.3 17.45 Q10.3 16.75 11.7 17.25 13.1 17.7 13.1 18.4 13.1 18.9 11.55 18.9 L11.45 18.95 Q11.35 18.95 11.3 19.05 L11.05 19.2 10.7 18.7 10.65 18.5 10.55 17.7 10.3 17.45 M10.85 17.65 L10.9 17.6 10.85 17.6 10.85 17.65 M14.4 19.9 L13.8 19.5 13.8 19.25 Q13.8 18.25 15.55 17.6 17.25 16.95 17.25 19.8 L17.15 20.65 17.05 21.0 17.0 20.95 14.75 20.25 14.4 19.9 M16.3 22.55 Q17.7 22.25 18.55 23.1 L19.1 23.95 19.45 24.6 19.55 24.7 20.55 26.5 21.15 27.85 21.2 29.85 Q21.2 32.45 20.7 32.85 L17.95 33.05 Q17.1 33.05 15.35 29.0 L14.55 26.85 14.35 24.9 Q14.35 23.7 14.65 23.3 14.95 22.85 16.1 22.6 L16.3 22.55 M1.4 29.15 L1.5 29.0 1.95 28.45 2.1 28.65 2.7 29.85 3.2 31.4 Q2.35 33.3 1.7 33.3 -0.15 33.3 -1.1 31.6 -1.7 30.5 -1.7 29.75 L-1.5 28.8 Q-1.4 28.65 -1.15 28.55 L-1.1 28.75 Q0.0 29.4 1.4 29.15 M25.8 30.65 Q25.25 33.25 24.55 33.25 22.95 33.25 22.25 32.35 22.6 31.15 22.35 29.7 L22.25 28.5 22.75 28.15 Q24.05 27.45 24.7 28.3 L25.45 29.45 25.8 30.65 M29.65 29.6 L29.55 31.4 Q29.3 32.55 28.35 32.55 L27.15 32.05 26.5 31.5 26.65 29.05 Q26.55 28.25 28.05 28.6 29.55 28.95 29.65 29.6 M0.0 2.3 L-0.6 2.05 -0.75 1.75 -1.75 2.1 Q-2.7 2.1 -2.45 1.45 -2.45 0.25 -0.5 -0.65 1.4 -1.55 1.4 -0.25 1.05 2.3 0.0 2.3" transform="matrix(1.0, 0.0, 0.0, 1.0, 5.1, 2.55)"/></g><g id="shape3"><path fill="none" stroke="#733c2f" stroke-linecap="round" stroke-linejoin="round" stroke-width="2" d="M0.0 32.0 L0.0 0.0 32.0 0.0 32.0 32.0 0.0 32.0 Z" transform="matrix(1.0, 0.0, 0.0, 1.0, 1.0, 1.0)"/></g></defs></svg>