<svg xmlns="http://www.w3.org/2000/svg" xmlns:svg="http://www.w3.org/2000/svg" id="svg1" width="34" height="34" version="1.1" viewBox="0 0 8.996 8.996" xml:space="preserve"><g id="layer1" transform="translate(-196.28793,-165.83455)"><g id="use302-0" transform="matrix(0.26458333,0,0,0.26458333,196.55251,166.09913)" style="fill:maroon"><g id="use586-6"><g id="use608-8" transform="translate(-1,-1)"><path id="path612-7" fill="#cc0" fill-rule="evenodd" stroke="none" d="M 0,32 V 0 H 32 V 32 H 0" transform="translate(1,1)"/><path id="path614-5" fill="none" stroke="#733c2f" stroke-linecap="round" stroke-linejoin="round" stroke-width="2" d="M 0,32 V 0 h 32 v 32 z" transform="translate(1,1)"/></g></g></g><path style="fill:#fff;fill-opacity:1;stroke-width:.407613;stroke-linecap:round" id="path889" d="m 202.60465,171.48099 c 0.048,0.14811 0.34214,0.66821 0.46785,0.66898 0.0985,6e-4 0.19534,-0.15004 0.28387,-0.16728 0.20947,-0.0408 0.45171,-0.0184 0.56066,0.20581 0.12,0.24706 0.35656,0.53885 0.18181,0.81178 -0.12838,0.20047 -0.497,0.22344 -0.57824,0.36934 0.0876,0.28228 -0.23276,0.4896 -0.46244,0.55916 -0.24614,0.0745 -0.47766,-0.024 -0.70187,-0.14644 -0.21425,-0.11703 0.009,-0.4651 0.0418,-0.67606 0.0326,-0.20888 -0.56504,-0.54725 -0.71594,-0.80288 -0.23036,-0.70716 -0.14018,-1.15625 0.9225,-0.82241 z"/><path id="path891" style="opacity:1;fill:#733c2f;fill-opacity:1;stroke-width:.407613;stroke-linecap:round" d="M 199.23865 166.82674 C 198.74637 166.826 198.27687 167.00771 197.90489 167.46132 C 196.74147 168.88005 197.48389 171.0953 199.19525 171.62696 C 199.9783 171.87022 200.88286 172.3266 201.66641 172.30392 A 0.61973119 0.72789186 46.717377 0 1 201.91704 171.69156 A 0.61973119 0.72789186 46.717377 0 1 202.59659 171.48899 L 202.60486 171.48123 C 201.91807 170.11933 202.39373 169.03022 201.90981 168.36463 C 201.35069 167.59559 200.24666 166.82825 199.23865 166.82674 z"/><path id="rect945" style="opacity:1;fill:#fff;stroke-width:.407613;stroke-linecap:round" d="m 199.95051,167.5028 c 1.30391,0.61292 1.54627,1.31661 1.57496,2.22656 0.003,0.0901 0.0382,0.17384 -0.0344,0.22728 l -0.15085,0.11126 c -0.0724,0.0535 -0.20709,0.0535 -0.22729,-0.0343 -0.18305,-0.79631 -0.18395,-1.65589 -1.57495,-2.22656 -0.0833,-0.0342 -0.0382,-0.17384 0.0344,-0.2273 l 0.15085,-0.11125 c 0.0725,-0.0535 0.14583,-0.004 0.22729,0.0344 z"/><path style="opacity:1;fill:#cc0;fill-opacity:1;stroke-width:.423333;stroke-linecap:round" id="path2017" d="m 203.82471,173.20154 c -0.0962,9e-4 -0.16199,0.0908 -0.25726,0.0988 -0.0881,0.007 -0.18669,0.0297 -0.26643,-0.0206 -0.036,-0.0183 -0.10118,-0.0618 -0.12155,-0.064 0.0511,0.0835 0.12978,0.15434 0.22901,0.17117 0.0832,0.0191 0.17341,0.008 0.24391,-0.0423 0.06,-0.0306 0.10418,-0.0839 0.15845,-0.12347 -0.009,-0.006 0.0206,-0.0152 0.0139,-0.0196 z"/></g></svg>