<svg xmlns="http://www.w3.org/2000/svg" xmlns:svg="http://www.w3.org/2000/svg" id="svg1" width="34" height="34" version="1.1" viewBox="0 0 8.996 8.996" xml:space="preserve"><rect style="fill:#cc0;fill-opacity:1;stroke:#733c2f;stroke-width:.529176;stroke-dasharray:none;stroke-opacity:1" id="rect1" width="8.465" height="8.467" x="196.554" y="166.1" ry=".087" transform="translate(-196.28793,-165.83455)"/><g id="layer1" transform="translate(-196.28793,-165.83455)"><path style="opacity:1;fill:#733c2f;fill-opacity:1;stroke-width:.536112;stroke-linecap:round" id="path2467" d="m 196.73682,169.40075 c 1.0849,-0.82597 2.35704,-1.13428 3.91614,-0.64921 1.11134,-0.595 2.53503,-0.5236 4.06271,-0.23037 -0.58158,0.74928 -0.81091,1.89267 -1.10991,2.15702 -0.41416,0.66223 -0.9083,1.02503 -1.52877,1.23556 -1.03818,0.35227 -2.29946,0.39053 -3.28786,-0.0838 -0.95573,-0.4586 -1.42038,-2.36165 -2.05231,-2.4293 z"/><path style="opacity:1;fill:#fff;fill-opacity:1;stroke-width:.423333;stroke-linecap:round" id="path2879" d="m 208.3182,169.66274 c 0.0634,0 0.12678,0 0.19017,0"/><path style="opacity:1;fill:#733c2f;fill-opacity:1;stroke-width:.454034;stroke-linecap:round" id="path3273" d="m 203.12276,171.85461 c -0.0505,0.42498 0.0301,0.34158 -0.0533,0.53268 -0.0751,0.30826 0.31864,0.29003 0.32057,-0.0259 0.0692,-0.23254 -0.16088,-0.41186 -0.11414,-0.64264 0.006,-0.0788 0.0471,-0.23726 0.0432,-0.31636"/><path style="opacity:1;fill:#fff;fill-opacity:1;stroke-width:.536112;stroke-linecap:round" id="path2883" d="m 197.8147,169.39479 c 2.92215,0.0937 4.96938,-0.0762 6.08361,-0.58638 -0.11315,0.70346 -0.48448,2.65615 -0.77555,3.0462 l 0.0948,-2.42841 -0.0504,0.006 c 0.0346,0.16308 0.006,0.34644 -0.0709,0.48162 -0.15692,0.0979 -0.47261,0.13621 -0.85223,0.067 -0.0862,-0.10554 -0.11955,-0.2506 -0.0943,-0.43981 l -0.12563,0.42932 c -0.32727,0.25628 -0.69574,0.2654 -1.07854,0.18847 l -0.0838,-0.34553 c -0.01,-0.0869 0.0807,0.41102 -0.21994,0.41883 -0.17324,0.006 -0.58572,0.13603 -0.90051,-0.0208 0,0 -0.11423,-0.10081 -0.14658,-0.16758 -0.0417,-0.0862 -0.0523,-0.28272 -0.0523,-0.28272 0,0 -0.0556,0.21202 -0.10468,0.27224 -0.049,0.0603 -0.0824,0.09 -0.14663,0.0943 -0.0642,0.004 -0.38873,0.008 -0.53401,2e-5 -0.14529,-0.008 -0.18295,-0.10339 -0.23036,-0.19894 -0.0473,-0.0956 -0.0208,-0.3351 -0.0208,-0.3351 l -0.0797,2.62379 c -0.18752,-0.38189 -0.53852,-2.20508 -0.61148,-2.82272 z"/><path id="path2948" style="opacity:1;fill:#fff;fill-opacity:1;stroke-width:.536112;stroke-linecap:round" d="m 202.69904,170.3329 c -0.18387,-3.6e-4 -0.42048,0.0858 -0.6623,0.18062 v 0.16753 h -0.14789 v -0.14137 c -0.48555,-0.0699 -0.74868,-0.0287 -0.92536,0.0556 v 0.15247 h -0.0962 v -0.1492 c -0.27337,-0.13707 -0.5544,-0.14485 -0.8442,-0.003 v 0.15182 h -0.12566 v -0.15771 c -0.17935,-0.0621 -0.33033,-0.18036 -0.59228,-0.0772 v 0.12433 h -0.10402 v -0.14726 c -0.63998,-0.19947 -0.52397,-0.0107 -0.61451,0.0726 1.57623,0.84281 3.0826,0.61883 4.39844,-0.0883 -0.0621,-0.10169 -0.16218,-0.14114 -0.28599,-0.14137 z"/><path style="opacity:1;fill:#733c2f;fill-opacity:1;stroke-width:.454034;stroke-linecap:round" id="path3273-9" d="m 198.27974,171.79661 c 0.10554,0.2443 0.0311,0.41686 -0.071,0.62554 -0.0751,0.30827 0.37184,0.36099 0.37376,0.0449 0.0692,-0.23256 -0.18303,-0.37195 -0.1363,-0.60274 0.006,-0.0788 -0.055,-0.42792 -0.0587,-0.50701"/></g></svg>