<?xml version="1.0" encoding="UTF-8" standalone="no"?>
<svg xmlns:xlink="http://www.w3.org/1999/xlink" height="34" width="34" xmlns="http://www.w3.org/2000/svg">
  <g transform="matrix(1.0, 0.0, 0.0, 1.0, 1, 1)">
    <use height="35.75" transform="matrix(1.0, 0.0, 0.0, 1.0, -1.7, -1.0)" width="34.7" xlink:href="#sprite0"/>
  </g>
  <defs>
    <g id="sprite0" transform="matrix(1.0, 0.0, 0.0, 1.0, 1.7, 1.0)">
      <use height="34.0" transform="matrix(1.0, 0.0, 0.0, 1.0, -1.0, -1.0)" width="34.0" xlink:href="#sprite1"/>
      <clipPath id="clipPath0" transform="matrix(1.0, 0.0, 0.0, 1.0, 0.0, 0.0)">
        <path d="M0.0 32.0 L0.0 0.0 32.0 0.0 32.0 32.0 0.0 32.0" fill="#ff0000" fill-rule="evenodd" stroke="none"/>
      </clipPath>
      <g clip-path="url(#clipPath0)">
        <use height="35.55" transform="matrix(1.0, 0.0, 0.0, 1.0, -1.7, -0.8)" width="32.35" xlink:href="#shape2"/>
      </g>
      <use height="34.0" transform="matrix(1.0, 0.0, 0.0, 1.0, -1.0, -1.0)" width="34.0" xlink:href="#shape3"/>
    </g>
    <g id="sprite1" transform="matrix(1.0, 0.0, 0.0, 1.0, 1.0, 1.0)">
      <use height="34.0" transform="matrix(1.0, 0.0, 0.0, 1.0, -1.0, -1.0)" width="34.0" xlink:href="#shape0"/>
    </g>
    <g id="shape0" transform="matrix(1.0, 0.0, 0.0, 1.0, 1.0, 1.0)">
      <path d="M0.0 32.0 L0.0 0.0 32.0 0.0 32.0 32.0 0.0 32.0" fill="#cccc00" fill-rule="evenodd" stroke="none"/>
      <path d="M0.0 32.0 L0.0 0.0 32.0 0.0 32.0 32.0 0.0 32.0 Z" fill="none" stroke="#733c2f" stroke-linecap="round" stroke-linejoin="round" stroke-width="2.0"/>
    </g>
    <g id="shape2" transform="matrix(1.0, 0.0, 0.0, 1.0, 1.7, 0.8)">
      <path d="M6.0 -0.65 L8.6 0.5 9.25 1.05 9.4 1.35 9.6 1.6 9.65 1.9 9.45 2.2 6.4 4.55 6.1 4.65 5.8 4.55 5.6 4.25 5.45 4.15 5.25 3.95 5.0 3.3 4.6 0.5 Q4.45 0.05 4.75 -0.35 L4.8 -0.4 5.25 -0.7 6.0 -0.65 M5.55 5.15 L7.05 8.65 7.1 9.0 6.9 9.25 6.6 9.35 6.5 9.35 6.2 9.6 6.25 9.6 5.55 9.75 5.5 9.75 2.55 9.4 Q2.2 9.4 1.9 9.1 L1.85 9.05 1.65 8.6 1.6 8.45 Q1.6 8.1 1.85 7.8 L3.65 5.5 Q3.9 5.2 4.3 5.05 L4.35 5.0 4.8 5.0 5.0 4.85 5.35 4.9 5.55 5.15" fill="#733c2f" fill-rule="evenodd" stroke="none"/>
      <path d="M2.6 8.9 L2.25 8.75 2.1 8.45 2.25 8.1 4.05 5.8 4.45 5.5 4.85 5.55 5.15 5.8 6.25 8.45 6.25 8.8 5.95 9.15 5.55 9.25 2.6 8.9" fill="#733c2f" fill-rule="evenodd" stroke="none"/>
      <path d="M5.1 5.35 L6.6 8.85 2.65 8.5 5.1 5.35" fill="#fcf9e0" fill-rule="evenodd" stroke="none"/>
      <path d="M5.1 0.35 Q5.0 0.15 5.15 -0.05 L5.45 -0.25 5.8 -0.2 8.45 0.95 8.8 1.3 8.9 1.7 8.7 2.0 6.45 3.75 6.05 3.85 5.65 3.7 5.5 3.2 5.1 0.35" fill="#733c2f" fill-rule="evenodd" stroke="none"/>
      <path d="M9.15 1.8 L6.1 4.15 5.55 0.2 9.15 1.8" fill="#fcf9e0" fill-rule="evenodd" stroke="none"/>
      <path d="M21.1 6.75 L21.25 6.7 21.8 6.85 Q22.2 7.0 22.5 7.25 L22.55 7.3 23.8 8.5 Q24.6 9.05 25.75 10.95 L26.7 12.8 Q28.5 16.35 29.3 19.0 L30.0 22.25 30.0 22.3 30.25 24.5 30.25 25.3 30.6 26.75 30.65 27.3 30.55 27.65 30.0 28.75 29.95 28.75 Q29.35 29.6 28.7 29.8 L28.0 30.3 25.85 30.85 25.25 30.95 23.95 31.15 22.5 31.65 18.2 31.95 16.75 31.6 15.65 31.35 13.6 31.25 12.95 31.3 11.85 32.75 Q10.4 34.6 9.8 34.5 9.0 34.5 8.9 33.95 L7.15 34.0 7.1 34.0 5.9 34.0 5.05 34.15 4.35 34.25 3.95 34.6 3.65 34.75 3.35 34.7 2.85 34.4 2.7 34.25 2.6 34.25 Q-0.65 34.25 -1.0 33.0 L-1.05 32.85 -1.45 29.65 -1.7 25.3 -1.55 21.95 Q-1.55 20.4 -1.15 19.55 L-1.2 19.2 Q-1.35 18.45 1.0 18.0 L5.15 17.85 7.3 18.4 Q7.9 18.6 8.4 18.95 L8.35 18.95 9.45 19.6 9.7 19.7 10.25 19.2 Q11.1 18.5 12.55 18.3 13.75 18.1 15.4 18.3 17.05 18.65 18.45 19.45 L18.4 19.4 18.75 19.55 18.85 18.75 18.95 18.4 18.25 17.65 18.2 17.6 17.9 17.05 16.65 17.2 Q14.25 17.25 12.5 14.65 11.3 12.9 11.2 11.85 L10.55 12.9 10.0 13.35 9.4 13.35 9.35 13.35 8.85 12.95 7.5 11.4 Q6.4 11.0 5.55 10.1 3.95 8.45 3.95 6.15 3.95 5.35 4.2 4.65 L4.45 3.85 5.55 2.25 Q7.2 0.7 9.45 0.7 10.7 0.7 11.8 1.2 11.95 1.05 12.15 1.05 L15.05 0.5 15.75 0.55 Q16.15 0.65 16.25 1.2 L16.2 1.9 15.15 4.6 15.15 4.55 14.85 5.0 14.95 6.2 14.95 6.45 17.55 6.3 20.3 6.65 21.1 6.75" fill="#733c2f" fill-rule="evenodd" stroke="none"/>
      <path d="M3.15 33.75 L3.25 33.25 3.35 33.15 3.45 32.95 4.1 31.95 4.1 31.9 4.25 31.75 5.05 30.95 7.1 29.45 Q8.15 28.9 9.05 28.85 L7.1 30.55 6.65 31.0 7.1 30.9 7.5 30.75 9.35 30.4 10.5 30.1 13.6 29.8 15.7 29.9 17.2 30.15 19.45 30.5 22.6 30.05 25.15 29.7 26.2 29.65 Q27.25 29.65 27.75 28.65 L28.1 28.75 28.4 28.45 29.2 27.7 29.3 27.4 29.1 27.4 29.05 27.35 Q29.25 26.75 29.05 26.2 L28.95 25.1 29.0 24.5 28.95 23.9 28.6 21.85 28.1 19.4 Q27.4 17.15 25.7 13.65 L24.45 11.2 23.3 9.55 22.5 8.8 21.45 8.0 19.7 7.75 17.55 7.6 15.95 7.3 Q14.8 7.85 13.6 9.45 L13.3 9.95 Q12.5 11.2 12.5 11.8 12.5 12.6 13.75 14.1 15.2 15.9 16.8 15.9 17.65 15.9 18.6 15.3 L19.85 14.4 20.05 14.6 21.0 13.2 21.05 13.2 21.2 13.45 Q21.2 14.1 20.5 14.8 L20.4 14.95 21.15 15.65 21.6 16.15 21.75 16.6 21.75 17.0 Q21.25 18.55 20.75 18.55 L20.25 18.5 20.2 18.8 Q19.7 21.75 21.4 24.3 L21.7 24.65 Q19.65 23.5 19.25 21.35 16.65 18.85 12.9 19.75 L12.6 19.8 Q12.0 19.95 11.5 20.3 L10.5 21.0 10.0 21.4 9.35 21.05 8.5 20.5 Q7.85 20.1 7.1 19.85 L5.3 19.35 2.05 19.45 0.35 19.7 0.1 19.7 -0.55 19.5 -0.7 19.2 Q-0.7 18.85 1.1 18.5 L5.05 18.35 7.1 18.85 8.1 19.35 9.35 20.1 9.8 20.45 10.5 19.6 Q11.3 19.0 12.6 18.8 13.75 18.6 15.3 18.8 16.85 19.1 18.2 19.85 L19.15 20.35 19.35 18.8 19.5 18.2 18.65 17.35 18.15 16.4 16.65 16.7 Q14.5 16.7 12.9 14.35 11.7 12.6 11.7 11.65 11.7 11.25 12.0 10.6 10.85 11.25 9.45 11.25 7.4 11.25 5.9 9.75 4.45 8.25 4.45 6.15 L4.65 4.8 4.9 4.05 Q5.25 3.25 5.9 2.6 7.4 1.2 9.45 1.2 11.55 1.2 13.0 2.6 L13.55 3.25 14.1 4.2 Q14.45 5.1 14.45 6.2 L14.4 7.15 14.35 7.4 15.15 6.9 17.45 6.8 20.25 7.15 21.25 7.2 21.6 7.3 22.2 7.65 23.5 8.9 Q24.25 9.4 25.3 11.2 L26.25 13.0 Q28.05 16.55 28.8 19.15 L29.5 22.35 29.75 24.5 29.75 25.3 30.1 26.85 30.15 27.3 30.05 27.35 29.55 28.45 28.45 29.35 27.75 29.85 25.75 30.35 25.15 30.45 23.8 30.65 22.4 31.15 18.2 31.45 16.85 31.1 15.7 30.85 13.6 30.75 12.65 30.8 11.45 32.45 Q10.25 34.0 9.8 34.0 L9.35 33.65 9.35 33.6 9.55 33.25 9.55 33.2 9.55 33.15 9.65 32.9 9.75 32.7 10.25 31.85 10.5 31.55 11.1 30.95 10.5 31.05 9.35 31.3 8.2 31.5 7.1 31.75 5.6 32.1 5.05 32.85 4.75 33.1 4.7 33.15 4.65 33.25 4.5 33.4 4.3 33.6 3.6 34.25 3.1 33.95 3.15 33.75" fill="#733c2f" fill-rule="evenodd" stroke="none"/>
      <path d="M-0.55 19.5 L0.1 19.7 0.35 19.7 2.05 19.45 5.3 19.35 7.1 19.85 Q7.85 20.1 8.5 20.5 L9.35 21.05 10.0 21.4 10.5 21.0 11.5 20.3 Q12.0 19.95 12.6 19.8 L12.9 19.75 Q16.65 18.85 19.25 21.35 19.65 23.5 21.7 24.65 L21.4 24.3 Q19.7 21.75 20.2 18.8 L20.25 18.5 20.75 18.55 Q21.25 18.55 21.75 17.0 L21.75 16.6 21.6 16.15 21.15 15.65 20.4 14.95 20.5 14.8 Q21.2 14.1 21.2 13.45 L21.05 13.2 21.0 13.2 20.05 14.6 19.85 14.4 18.6 15.3 Q17.65 15.9 16.8 15.9 15.2 15.9 13.75 14.1 12.5 12.6 12.5 11.8 12.5 11.2 13.3 9.95 L13.6 9.45 Q14.8 7.85 15.95 7.3 L17.55 7.6 19.7 7.75 21.45 8.0 22.5 8.8 23.3 9.55 24.45 11.2 25.7 13.65 Q27.4 17.15 28.1 19.4 L28.6 21.85 28.95 23.9 29.0 24.5 28.95 25.1 29.05 26.2 Q29.25 26.75 29.05 27.35 L29.1 27.4 29.3 27.4 29.2 27.7 28.4 28.45 28.1 28.75 27.75 28.65 Q27.25 29.65 26.2 29.65 L25.15 29.7 22.6 30.05 19.45 30.5 17.2 30.15 15.7 29.9 13.6 29.8 10.5 30.1 9.35 30.4 7.5 30.75 7.1 30.9 6.65 31.0 7.1 30.55 9.05 28.85 Q8.15 28.9 7.1 29.45 L5.05 30.95 4.25 31.75 4.1 31.9 4.1 31.95 3.45 32.95 3.35 33.15 3.25 33.25 3.15 33.75 2.6 33.75 Q-0.2 33.75 -0.55 32.8 L-0.95 29.55 -1.2 25.3 -1.05 21.95 Q-1.05 20.3 -0.55 19.5 M4.3 33.6 L4.5 33.4 4.65 33.25 4.7 33.15 4.75 33.1 5.05 32.85 5.6 32.1 7.1 31.75 8.2 31.5 9.35 31.3 10.5 31.05 11.1 30.95 10.5 31.55 10.25 31.85 9.75 32.7 9.65 32.9 9.55 33.15 9.55 33.2 9.55 33.25 9.4 33.4 9.35 33.4 7.1 33.5 5.9 33.5 4.95 33.65 4.2 33.75 4.3 33.6" fill="#fcf9e0" fill-rule="evenodd" stroke="none"/>
      <path d="M13.95 4.8 L15.3 1.35 11.7 2.05 11.85 1.7 Q12.05 1.55 12.25 1.55 L15.15 1.0 15.55 1.0 15.75 1.3 15.7 1.7 14.65 4.4 14.35 4.7 13.95 4.8" fill="#733c2f" fill-rule="evenodd" stroke="none"/>
      <path d="M11.7 2.05 L15.3 1.35 13.95 4.8 13.85 5.05 Q11.1 4.75 11.4 2.1 L11.7 2.05" fill="#fcf9e0" fill-rule="evenodd" stroke="none"/>
      <path d="M7.7 10.25 Q7.8 10.1 8.0 10.1 L10.85 9.9 11.25 10.0 11.4 10.3 11.35 10.65 10.1 12.65 9.85 12.85 9.5 12.85 9.25 12.65 7.65 10.85 7.5 10.55 7.7 10.25" fill="#733c2f" fill-rule="evenodd" stroke="none"/>
      <path d="M11.4 9.85 L9.75 12.55 7.55 10.1 Q9.4 7.6 11.4 9.85" fill="#fcf9e0" fill-rule="evenodd" stroke="none"/>
      <path d="M8.6 3.55 L8.55 3.9 7.3 6.45 7.0 6.7 6.65 6.7 6.4 6.45 5.3 4.35 5.3 4.05 5.5 3.75 5.75 3.6 8.15 3.2 8.5 3.25 8.6 3.55" fill="#733c2f" fill-rule="evenodd" stroke="none"/>
      <path d="M7.05 6.9 L5.6 4.1 8.8 3.5 Q10.0 6.4 7.05 6.9" fill="#fcf9e0" fill-rule="evenodd" stroke="none"/>
    </g>
    <g id="shape3" transform="matrix(1.0, 0.0, 0.0, 1.0, 1.0, 1.0)">
      <path d="M0.0 32.0 L0.0 0.0 32.0 0.0 32.0 32.0 0.0 32.0 Z" fill="none" stroke="#733c2f" stroke-linecap="round" stroke-linejoin="round" stroke-width="2.0"/>
    </g>
  </defs>
</svg>
