<svg xmlns="http://www.w3.org/2000/svg" xmlns:xlink="http://www.w3.org/1999/xlink" width="34" height="34"><g transform="matrix(1.0, 0.0, 0.0, 1.0, 1, 1)"><use width="42" height="60.25" transform="matrix(1.0, 0.0, 0.0, 1.0, -5.05, -1.0)" xlink:href="#sprite0"/></g><defs><g id="sprite0" transform="matrix(1.0, 0.0, 0.0, 1.0, 5.05, 1.0)"><use width="34" height="34" transform="matrix(1.0, 0.0, 0.0, 1.0, -1.0, -1.0)" xlink:href="#sprite1"/><clipPath id="clipPath0" transform="matrix(1.0, 0.0, 0.0, 1.0, 0.0, -0.05)"><path fill="#cc0" fill-rule="evenodd" stroke="none" d="M32.0 32.05 L0.0 32.05 0.0 0.05 32.0 0.05 32.0 32.05"/></clipPath><g clip-path="url(#clipPath0)"><use width="42" height="57.25" transform="matrix(1.0, 0.0, 0.0, 1.0, -5.05, 2.0)" xlink:href="#shape2"/></g><use width="34" height="34" transform="matrix(1.0, 0.0, 0.0, 1.0, -1.0, -1.0)" xlink:href="#shape3"/></g><g id="sprite1" transform="matrix(1.0, 0.0, 0.0, 1.0, 1.0, 1.0)"><use width="34" height="34" transform="matrix(1.0, 0.0, 0.0, 1.0, -1.0, -1.0)" xlink:href="#shape0"/></g><g id="shape0"><path fill="#cc0" fill-rule="evenodd" stroke="none" d="M0.0 32.0 L0.0 0.0 32.0 0.0 32.0 32.0 0.0 32.0" transform="matrix(1.0, 0.0, 0.0, 1.0, 1.0, 1.0)"/><path fill="none" stroke="#733c2f" stroke-linecap="round" stroke-linejoin="round" stroke-width="2" d="M0.0 32.0 L0.0 0.0 32.0 0.0 32.0 32.0 0.0 32.0 Z" transform="matrix(1.0, 0.0, 0.0, 1.0, 1.0, 1.0)"/></g><g id="shape2"><path fill="#fcf9e0" fill-rule="evenodd" stroke="none" d="M21.6 7.7 Q20.85 9.05 19.1 9.8 20.2 9.1 20.6 8.1 21.2 6.4 19.8 5.05 18.35 3.55 15.65 3.55 13.05 3.55 11.65 5.05 L11.6 5.05 Q10.1 6.4 10.75 8.05 11.1 9.1 12.25 9.8 10.45 9.05 9.7 7.65 8.8 5.85 10.1 4.2 L10.1 4.25 Q11.9 2.0 15.65 2.0 19.45 2.0 21.2 4.2 22.5 5.85 21.6 7.7" transform="matrix(1.0, 0.0, 0.0, 1.0, 5.05, -2.0)"/><path fill="#733c2f" fill-rule="evenodd" stroke="none" d="M5.1 17.1 Q5.75 16.5 6.65 16.5 L9.9 16.5 Q9.0 14.75 9.2 12.65 9.5 10.05 11.5 8.3 13.35 6.65 15.85 6.65 18.35 6.65 20.25 8.3 22.25 10.05 22.5 12.65 22.7 14.75 21.85 16.5 L25.3 16.5 Q26.1 16.5 26.8 17.1 L26.85 17.1 Q27.55 17.65 27.75 18.55 L36.55 52.45 Q37.25 55.05 36.7 57.05 L36.6 57.2 Q36.0 59.25 34.4 59.25 L-2.4 59.25 Q-4.1 59.25 -4.65 57.2 L-4.65 57.05 Q-5.4 55.05 -4.7 52.45 L4.05 18.55 Q4.3 17.65 5.1 17.1" transform="matrix(1.0, 0.0, 0.0, 1.0, 5.05, -2.0)"/><path fill="#fcf9e0" fill-rule="evenodd" stroke="none" d="M11.95 10.45 L11.85 10.2 Q11.85 9.5 13.1 9.05 14.3 8.65 14.3 9.4 14.3 9.75 13.7 10.2 13.05 10.7 12.45 10.7 12.1 10.7 11.95 10.45 M19.75 10.1 Q19.75 10.6 18.8 10.6 L17.8 10.15 17.2 9.6 Q17.2 8.5 18.5 9.05 19.75 9.6 19.75 10.1" transform="matrix(1.0, 0.0, 0.0, 1.0, 5.05, -2.0)"/></g><g id="shape3"><path fill="none" stroke="#733c2f" stroke-linecap="round" stroke-linejoin="round" stroke-width="2" d="M0.0 32.0 L0.0 0.0 32.0 0.0 32.0 32.0 0.0 32.0 Z" transform="matrix(1.0, 0.0, 0.0, 1.0, 1.0, 1.0)"/></g></defs></svg>