<svg xmlns="http://www.w3.org/2000/svg" xmlns:xlink="http://www.w3.org/1999/xlink" width="34" height="34"><g transform="matrix(1.0, 0.0, 0.0, 1.0, 1, 1)"><use width="42.85" height="46.75" transform="matrix(1.0, 0.0, 0.0, 1.0, -3.6, -2.8)" xlink:href="#sprite0"/></g><defs><g id="sprite0" transform="matrix(1.0, 0.0, 0.0, 1.0, 3.6, 2.8)"><use width="34" height="34" transform="matrix(1.0, 0.0, 0.0, 1.0, -1.0, -1.0)" xlink:href="#sprite1"/><clipPath id="clipPath0" transform="matrix(1.0, 0.0, 0.0, 1.0, 0.0, 0.0)"><path fill="#cc0" fill-rule="evenodd" stroke="none" d="M32.0 32.05 L0.0 32.05 0.0 0.05 32.0 0.05 32.0 32.05"/></clipPath><g clip-path="url(#clipPath0)"><use width="42.85" height="46.75" transform="matrix(1.0, 0.0, 0.0, 1.0, -3.6, -2.8)" xlink:href="#shape2"/></g><use width="34" height="34" transform="matrix(1.0, 0.0, 0.0, 1.0, -1.0, -1.0)" xlink:href="#shape3"/></g><g id="sprite1" transform="matrix(1.0, 0.0, 0.0, 1.0, 1.0, 1.0)"><use width="34" height="34" transform="matrix(1.0, 0.0, 0.0, 1.0, -1.0, -1.0)" xlink:href="#shape0"/></g><g id="shape0"><path fill="#cc0" fill-rule="evenodd" stroke="none" d="M0.0 32.0 L0.0 0.0 32.0 0.0 32.0 32.0 0.0 32.0" transform="matrix(1.0, 0.0, 0.0, 1.0, 1.0, 1.0)"/><path fill="none" stroke="#733c2f" stroke-linecap="round" stroke-linejoin="round" stroke-width="2" d="M0.0 32.0 L0.0 0.0 32.0 0.0 32.0 32.0 0.0 32.0 Z" transform="matrix(1.0, 0.0, 0.0, 1.0, 1.0, 1.0)"/></g><g id="shape2"><path fill="#fcf9e0" fill-rule="evenodd" stroke="none" d="M7.3 -2.8 L11.15 1.75 12.45 -0.35 13.4 2.65 13.0 2.9 Q11.2 4.25 10.0 5.95 8.05 8.6 8.2 12.05 L8.45 14.95 8.5 15.1 8.5 15.15 8.85 16.2 1.65 18.4 5.0 13.9 -0.5 10.0 4.45 8.6 -1.55 -0.55 -1.55 -0.75 7.5 2.1 6.9 -2.8 7.3 -2.8 M-3.45 -0.75 L-3.45 -0.55 -3.6 -0.8 -3.45 -0.75" transform="matrix(1.0, 0.0, 0.0, 1.0, 3.6, 2.8)"/><path fill="#733c2f" fill-rule="evenodd" stroke="none" d="M21.7 43.95 Q17.0 43.95 15.85 37.85 21.25 35.2 13.3 24.9 12.5 21.3 15.9 21.3 L26.4 21.3 Q29.8 21.3 31.7 24.9 L38.1 37.85 Q41.1 43.95 36.35 43.95 L21.7 43.95" transform="matrix(1.0, 0.0, 0.0, 1.0, 3.6, 2.8)"/><path fill="#733c2f" fill-rule="evenodd" stroke="none" d="M12.55 18.55 Q9.8 15.85 9.8 12.0 9.8 8.2 12.55 5.5 15.25 2.8 19.05 2.8 22.9 2.8 25.6 5.5 28.3 8.2 28.3 12.0 28.3 15.85 25.6 18.55 22.9 21.25 19.05 21.25 15.25 21.25 12.55 18.55" transform="matrix(1.0, 0.0, 0.0, 1.0, 3.6, 2.8)"/><path fill="#733c2f" fill-rule="evenodd" stroke="none" d="M11.6 23.35 Q12.2 22.1 13.4 21.55 14.6 21.05 15.75 21.55 16.85 22.1 17.15 23.35 17.55 24.65 16.95 25.85 L11.45 37.6 Q10.85 38.85 9.65 39.35 8.45 39.9 7.35 39.35 6.2 38.85 5.9 37.55 5.5 36.35 6.1 35.1 L11.6 23.35" transform="matrix(1.0, 0.0, 0.0, 1.0, 3.6, 2.8)"/><path fill="#733c2f" fill-rule="evenodd" stroke="none" d="M16.35 15.9 Q15.9 14.75 16.8 13.9 17.65 13.15 19.4 13.15 21.05 13.2 22.55 14.1 24.05 15.05 24.5 16.2 L28.3 27.3 Q28.75 28.45 27.8 29.25 26.85 30.05 25.25 30.0 23.5 29.95 22.05 29.0 20.55 28.15 20.15 27.0 L16.35 15.9" transform="matrix(1.0, 0.0, 0.0, 1.0, 3.6, 2.8)"/><path fill="#fcf9e0" fill-rule="evenodd" stroke="none" d="M23.2 11.8 Q21.25 15.8 19.8 15.8 18.6 15.8 17.95 14.95 17.5 14.4 17.5 14.0 L17.95 13.75 19.45 13.6 20.75 13.0 23.05 11.65 23.2 11.8 M11.6 14.55 Q10.9 13.65 10.9 13.3 10.9 10.0 12.45 11.7 13.7 13.15 13.7 14.55 13.85 15.65 13.15 15.65 12.35 15.65 11.6 14.55" transform="matrix(1.0, 0.0, 0.0, 1.0, 3.6, 2.8)"/></g><g id="shape3"><path fill="none" stroke="#733c2f" stroke-linecap="round" stroke-linejoin="round" stroke-width="2" d="M0.0 32.0 L0.0 0.0 32.0 0.0 32.0 32.0 0.0 32.0 Z" transform="matrix(1.0, 0.0, 0.0, 1.0, 1.0, 1.0)"/></g></defs></svg>