<?xml version="1.0" encoding="UTF-8" standalone="no"?>
<svg xmlns:xlink="http://www.w3.org/1999/xlink" height="17.0px" width="29.1px" xmlns="http://www.w3.org/2000/svg">
  <g transform="matrix(1.0, 0.0, 0.0, 1.0, 14.55, 8.5)">
    <path d="M11.3 -7.45 L11.4 -8.5 12.5 -7.8 12.95 -3.9 Q13.05 -3.15 13.45 -2.5 L14.4 -0.15 Q15.0 2.1 13.35 3.75 L12.75 4.2 12.3 4.55 10.2 5.9 9.9 6.1 8.2 6.95 6.0 7.65 5.95 7.65 3.6 8.2 3.3 8.25 -0.4 8.5 -0.75 8.5 -4.3 8.15 -4.55 8.1 -4.2 8.1 -3.5 8.1 -0.45 8.05 0.15 8.0 Q2.8 7.75 2.8 6.8 L2.85 6.4 2.4 5.55 Q1.9 4.9 1.9 4.35 L1.95 3.25 1.75 2.0 1.55 0.95 1.35 -0.3 Q1.35 -1.05 2.3 -1.95 3.25 -2.85 3.25 -3.4 L3.0 -4.25 3.05 -4.25 5.0 -4.6 5.1 -4.65 7.05 -5.2 7.25 -5.25 7.3 -5.3 8.95 -5.9 Q9.7 -6.2 10.25 -6.55 L11.1 -7.15 11.25 -7.3 11.3 -7.45 Q12.3 -7.35 12.3 -4.75 L12.2 -3.45 Q12.2 -1.35 12.95 -0.25 13.7 0.85 13.7 2.35 13.7 3.15 13.35 3.75 13.7 3.15 13.7 2.35 13.7 0.85 12.95 -0.25 12.2 -1.35 12.2 -3.45 L12.3 -4.75 Q12.3 -7.35 11.3 -7.45 M-14.4 -0.9 L-13.8 -3.65 -13.75 -5.2 -12.3 -3.95 -11.1 -3.3 -10.15 -2.9 -7.65 -2.15 -6.65 -1.95 -5.0 -1.7 -3.05 -1.7 -5.1 -1.2 -5.0 -1.7 -5.1 -1.2 -6.15 -0.95 -7.55 -0.8 -7.55 -1.25 -7.65 -2.15 -7.55 -1.25 -7.55 -0.8 -10.25 -0.8 -10.2 -1.3 -10.15 -2.45 -10.15 -2.9 -10.15 -2.45 -10.2 -1.3 -10.25 -0.8 -11.1 -0.85 -12.75 -0.9 -14.4 -0.9 M3.05 -4.25 L3.35 -3.55 3.55 -2.55 3.1 -0.3 Q2.6 1.65 2.6 2.85 2.6 4.15 3.25 5.2 3.9 6.25 3.9 6.95 L3.6 8.2 3.9 6.95 Q3.9 6.25 3.25 5.2 2.6 4.15 2.6 2.85 2.6 1.65 3.1 -0.3 L3.55 -2.55 3.35 -3.55 3.05 -4.25 M5.1 -4.65 L5.65 -3.9 5.9 -2.6 5.85 -1.35 5.5 0.35 5.1 2.0 Q5.1 3.65 5.65 4.75 6.2 5.8 6.2 6.45 L5.95 7.65 6.2 6.45 Q6.2 5.8 5.65 4.75 5.1 3.65 5.1 2.0 L5.5 0.35 5.85 -1.35 5.9 -2.6 5.65 -3.9 5.1 -4.65 M10.25 -6.55 Q10.9 -6.4 11.15 -5.85 L11.4 -4.05 11.25 -1.5 11.05 0.15 Q11.05 1.05 11.75 2.2 L12.4 3.8 12.3 4.55 12.4 3.8 11.75 2.2 Q11.05 1.05 11.05 0.15 L11.25 -1.5 11.4 -4.05 11.15 -5.85 Q10.9 -6.4 10.25 -6.55 M9.9 6.1 L10.15 5.0 9.65 3.55 Q9.15 2.55 9.15 0.8 L9.3 -1.25 9.55 -3.15 9.6 -4.4 Q9.6 -5.5 8.95 -5.9 9.6 -5.5 9.6 -4.4 L9.55 -3.15 9.3 -1.25 9.15 0.8 Q9.15 2.55 9.65 3.55 L10.15 5.0 9.9 6.1 M8.2 6.95 L8.4 6.55 8.5 5.95 Q8.5 5.1 7.85 4.05 7.2 2.95 7.2 1.9 7.2 0.95 7.6 -0.45 L7.95 -2.9 7.8 -4.6 7.25 -5.25 7.8 -4.6 7.95 -2.9 7.6 -0.45 Q7.2 0.95 7.2 1.9 7.2 2.95 7.85 4.05 8.5 5.1 8.5 5.95 L8.4 6.55 8.2 6.95 M-0.75 8.5 L-0.45 8.05 -0.75 8.5 M-12.75 -0.9 L-12.65 -1.35 -12.4 -2.2 -12.2 -3.1 -12.3 -3.95 -12.2 -3.1 -12.4 -2.2 -12.65 -1.35 -12.75 -0.9" fill="#d6baba" fill-rule="evenodd" stroke="none"/>
    <path d="M-4.55 8.1 L-6.1 7.75 -7.35 7.35 -9.05 6.8 Q-10.55 6.25 -11.55 5.5 L-11.85 5.3 -12.8 4.4 -13.15 4.0 -14.0 2.65 Q-14.6 1.3 -14.55 0.4 L-14.4 -0.9 -12.75 -0.9 -11.1 -0.85 -10.25 -0.8 -7.55 -0.8 -6.15 -0.95 -5.1 -1.2 -3.05 -1.7 -5.0 -1.7 -4.85 -3.1 -4.65 -4.35 -4.85 -3.1 -5.0 -1.7 -6.65 -1.95 -7.65 -2.15 -7.7 -2.2 -7.85 -3.3 -7.55 -4.3 -7.2 -4.9 -4.65 -4.35 -2.4 -4.05 -0.65 -4.0 -0.1 -4.0 3.0 -4.25 3.25 -3.4 Q3.25 -2.85 2.3 -1.95 1.35 -1.05 1.35 -0.3 L1.55 0.95 1.75 2.0 1.95 3.25 1.9 4.35 Q1.9 4.9 2.4 5.55 L2.85 6.4 2.8 6.8 Q2.8 7.75 0.15 8.0 L-0.45 8.05 -0.25 7.4 -0.5 5.55 -0.8 3.8 -0.15 0.4 0.3 -2.5 0.15 -3.25 -0.1 -4.0 0.15 -3.25 0.3 -2.5 -0.15 0.4 -0.8 3.8 -0.5 5.55 -0.25 7.4 -0.45 8.05 -3.5 8.1 -4.2 8.1 -4.55 8.1 M-13.75 -5.2 L-13.75 -6.5 Q-13.75 -7.25 -13.25 -7.65 -12.8 -8.05 -12.05 -8.15 L-12.25 -7.5 -12.3 -7.1 -11.85 -6.8 Q-10.85 -6.2 -9.55 -5.7 L-7.45 -5.0 -7.2 -4.9 -7.55 -4.3 -7.85 -3.3 -7.7 -2.2 -7.65 -2.15 -10.15 -2.9 -11.1 -3.3 -12.3 -3.95 -12.45 -4.5 -12.75 -5.8 -12.7 -6.35 -12.25 -6.8 -11.85 -6.8 -12.25 -6.8 -12.7 -6.35 -12.75 -5.8 -12.45 -4.5 -12.3 -3.95 -13.75 -5.2 M-6.1 7.75 L-6.2 7.15 -5.95 5.65 -5.8 4.7 -5.5 2.9 -5.3 1.2 -5.1 -1.15 -5.1 -1.2 -5.1 -1.15 -5.3 1.2 -5.5 2.9 -5.8 4.7 -5.95 5.65 -6.2 7.15 -6.1 7.75 M-9.05 6.8 L-9.3 5.35 -8.4 2.25 Q-7.7 0.2 -7.55 -0.8 -7.7 0.2 -8.4 2.25 L-9.3 5.35 -9.05 6.8 M-2.4 -4.05 L-2.35 -2.65 Q-2.35 -1.05 -2.7 0.4 L-3.2 3.0 -3.3 5.2 -3.35 6.7 -3.5 8.1 -3.35 6.7 -3.3 5.2 -3.2 3.0 -2.7 0.4 Q-2.35 -1.05 -2.35 -2.65 L-2.4 -4.05 M-9.55 -5.7 L-10.0 -5.05 -10.25 -3.7 -10.15 -2.9 -10.25 -3.7 -10.0 -5.05 -9.55 -5.7 M-12.75 -0.9 L-13.1 0.1 Q-13.6 1.45 -13.6 2.4 -13.6 3.35 -13.15 4.0 -13.6 3.35 -13.6 2.4 -13.6 1.45 -13.1 0.1 L-12.75 -0.9 M-11.55 5.5 L-11.85 4.75 -11.85 4.2 -11.0 1.7 -10.25 -0.8 -11.0 1.7 -11.85 4.2 -11.85 4.75 -11.55 5.5" fill="#ffffff" fill-rule="evenodd" stroke="none"/>
    <path d="M5.0 -4.6 L5.1 -4.65 M7.05 -5.2 L7.25 -5.25 7.8 -4.6 7.95 -2.9 7.6 -0.45 Q7.2 0.95 7.2 1.9 7.2 2.95 7.85 4.05 8.5 5.1 8.5 5.95 L8.4 6.55 8.2 6.95 M11.1 -7.15 L11.2 -7.45 11.3 -7.45 Q12.3 -7.35 12.3 -4.75 L12.2 -3.45 Q12.2 -1.35 12.95 -0.25 13.7 0.85 13.7 2.35 13.7 3.15 13.35 3.75 M12.3 4.55 L12.4 3.8 11.75 2.2 Q11.05 1.05 11.05 0.15 L11.25 -1.5 11.4 -4.05 11.15 -5.85 Q10.9 -6.4 10.25 -6.55 M5.95 7.65 L6.2 6.45 Q6.2 5.8 5.65 4.75 5.1 3.65 5.1 2.0 L5.5 0.35 5.85 -1.35 5.9 -2.6 5.65 -3.9 5.1 -4.65 M3.6 8.2 L3.9 6.95 Q3.9 6.25 3.25 5.2 2.6 4.15 2.6 2.85 2.6 1.65 3.1 -0.3 L3.55 -2.55 3.35 -3.55 3.05 -4.25 M-0.45 8.05 L-0.75 8.5 M8.95 -5.9 Q9.6 -5.5 9.6 -4.4 L9.55 -3.15 9.3 -1.25 9.15 0.8 Q9.15 2.55 9.65 3.55 L10.15 5.0 9.9 6.1 M-4.65 -4.35 L-4.85 -3.1 -5.0 -1.7 -5.1 -1.2 -5.1 -1.15 -5.3 1.2 -5.5 2.9 -5.8 4.7 -5.95 5.65 -6.2 7.15 -6.1 7.75 M-7.2 -4.9 L-7.55 -4.3 -7.85 -3.3 -7.7 -2.2 -7.65 -2.15 M-7.55 -0.8 Q-7.7 0.2 -8.4 2.25 L-9.3 5.35 -9.05 6.8 M-7.55 -0.8 L-7.55 -1.25 -7.65 -2.15 M-10.15 -2.9 L-10.15 -2.45 -10.2 -1.3 -10.25 -0.8 -11.0 1.7 -11.85 4.2 -11.85 4.75 -11.55 5.5 M-0.1 -4.0 L0.15 -3.25 0.3 -2.5 -0.15 0.4 -0.8 3.8 -0.5 5.55 -0.25 7.4 -0.45 8.05 M-3.5 8.1 L-3.35 6.7 -3.3 5.2 -3.2 3.0 -2.7 0.4 Q-2.35 -1.05 -2.35 -2.65 L-2.4 -4.05 M-11.85 -6.8 L-12.25 -6.8 -12.7 -6.35 -12.75 -5.8 -12.45 -4.5 -12.3 -3.95 -12.2 -3.1 -12.4 -2.2 -12.65 -1.35 -12.75 -0.9 M-10.15 -2.9 L-10.25 -3.7 -10.0 -5.05 -9.55 -5.7 M-13.15 4.0 Q-13.6 3.35 -13.6 2.4 -13.6 1.45 -13.1 0.1 L-12.75 -0.9" fill="none" stroke="#000000" stroke-linecap="round" stroke-linejoin="round" stroke-opacity="0.15294118" stroke-width="0.05"/>
    <path d="M11.3 -7.45 L11.4 -8.5 12.5 -7.8 12.95 -3.9 Q13.05 -3.15 13.45 -2.5 L14.4 -0.15 Q15.0 2.1 13.35 3.75 L12.75 4.2 12.3 4.55 10.2 5.9 9.9 6.1 8.2 6.95 6.0 7.65 5.95 7.65 3.6 8.2 3.3 8.25 -0.4 8.5 -0.75 8.5 -4.3 8.15 -4.55 8.1 -6.1 7.75 -7.35 7.35 -9.05 6.8 Q-10.55 6.25 -11.55 5.5 L-11.85 5.3 -12.8 4.4 -13.15 4.0 -14.0 2.65 Q-14.6 1.3 -14.55 0.4 L-14.4 -0.9 -13.8 -3.65 -13.75 -5.2 -13.75 -6.5 Q-13.75 -7.25 -13.25 -7.65 -12.8 -8.05 -12.05 -8.15 L-12.25 -7.5 -12.3 -7.1 -11.85 -6.8 Q-10.85 -6.2 -9.55 -5.7 L-7.45 -5.0 -7.2 -4.9 -4.65 -4.35 -2.4 -4.05 -0.65 -4.0 -0.1 -4.0 3.0 -4.25 3.05 -4.25 5.0 -4.6 M5.1 -4.65 L7.05 -5.2 M7.25 -5.25 L7.3 -5.3 8.95 -5.9 Q9.7 -6.2 10.25 -6.55 L11.1 -7.15 11.25 -7.3 11.3 -7.45" fill="none" stroke="#000000" stroke-linecap="round" stroke-linejoin="round" stroke-opacity="0.3019608" stroke-width="0.05"/>
  </g>
</svg>
