<?xml version="1.0" encoding="UTF-8" standalone="no"?>
<svg xmlns:xlink="http://www.w3.org/1999/xlink" height="26.45px" width="23.2px" xmlns="http://www.w3.org/2000/svg">
  <g transform="matrix(1.0, 0.0, 0.0, 1.0, 11.4, 15.1)">
    <use height="21.45" id="_p1" transform="matrix(1.0, 0.0, 0.0, 1.0, -11.2, -11.5)" width="22.55" xlink:href="#sprite0"/>
  </g>
  <defs>
    <g id="sprite0" transform="matrix(1.0, 0.0, 0.0, 1.0, 11.25, 10.75)">
      <use height="21.45" transform="matrix(1.0, 0.0, 0.0, 1.0, -11.25, -10.75)" width="22.55" xlink:href="#shape0"/>
    </g>
    <g id="shape0" transform="matrix(1.0, 0.0, 0.0, 1.0, 11.25, 10.75)">
      <path d="M4.55 -10.4 L9.25 -10.25 9.4 -9.75 9.9 -7.75 10.1 -6.9 10.2 -6.2 8.75 -7.3 7.3 -8.2 5.8 -8.95 4.25 -9.45 5.8 -8.95 7.3 -8.2 8.75 -7.3 10.2 -6.2 10.65 -5.25 11.1 -3.9 11.25 -3.0 11.3 -1.05 Q11.35 0.0 10.75 0.75 L10.8 3.45 10.65 4.05 9.75 5.0 8.35 6.3 8.0 6.6 7.1 7.35 5.65 8.4 5.55 8.45 4.85 8.8 3.8 9.15 3.4 9.0 2.9 8.8 2.05 9.15 Q1.4 9.3 0.6 9.85 L-0.95 10.45 -1.75 10.45 -2.8 10.65 Q-3.75 10.8 -4.5 10.3 -4.75 10.1 -4.95 10.0 L-3.4 9.5 -2.95 9.3 -2.45 9.1 -1.25 8.55 0.1 7.25 0.45 7.15 1.0 6.85 Q1.7 6.4 1.7 5.2 L1.3 3.9 1.1 3.5 1.2 3.45 Q1.7 3.05 2.2 1.85 L2.65 0.05 2.7 -0.45 2.95 -0.85 3.1 -0.95 4.2 -2.2 4.4 -3.15 4.0 -5.6 4.15 -5.7 4.45 -6.45 4.7 -7.8 4.55 -8.35 4.15 -9.25 4.25 -9.45 4.5 -10.0 4.55 -10.4 M-6.6 3.5 L-6.75 3.4 Q-7.75 2.9 -8.6 2.7 L-8.6 1.95 -8.1 0.5 -7.85 0.05 -7.8 -0.1 -7.3 0.25 -7.15 0.4 -7.05 0.65 -6.6 3.5 M10.75 0.75 L10.65 0.05 9.7 -1.1 8.35 -2.7 6.85 -4.0 5.25 -5.1 4.15 -5.7 5.25 -5.1 6.85 -4.0 8.35 -2.7 9.7 -1.1 10.65 0.05 10.75 0.75 M10.8 3.45 L10.0 2.55 9.2 1.75 7.7 0.55 6.8 0.05 5.15 -0.5 3.3 -0.95 3.1 -0.95 3.3 -0.95 5.15 -0.5 6.8 0.05 7.7 0.55 9.2 1.75 10.0 2.55 10.8 3.45 M5.55 8.45 L4.35 6.7 3.3 5.4 2.05 4.2 1.9 4.1 1.2 3.45 1.9 4.1 2.05 4.2 3.3 5.4 4.35 6.7 5.55 8.45 M2.05 9.15 L0.95 7.75 0.45 7.15 0.95 7.75 2.05 9.15 M-1.75 10.45 L-2.95 9.3 -1.75 10.45" fill="#dbc7c6" fill-rule="evenodd" stroke="none"/>
      <path d="M4.55 -10.4 L4.5 -10.0 4.25 -9.45 4.15 -9.25 4.55 -8.35 4.7 -7.8 4.45 -6.45 4.15 -5.7 3.7 -6.0 2.2 -6.65 0.3 -7.15 -0.85 -7.25 -2.0 -7.25 -6.7 -7.55 -2.0 -7.25 -0.85 -7.25 0.3 -7.15 2.2 -6.65 3.7 -6.0 4.15 -5.7 4.0 -5.6 4.4 -3.15 4.2 -2.2 3.1 -0.95 2.25 -1.1 0.35 -1.3 -1.35 -1.3 -3.3 -1.75 -4.7 -1.8 -8.05 -1.75 -9.65 -1.4 -10.5 -1.3 -10.35 -2.5 -10.0 -3.7 -9.1 -5.15 -9.05 -5.4 -8.35 -6.15 -7.0 -7.5 -6.85 -8.05 Q-6.35 -8.65 -5.55 -9.05 L-3.7 -10.1 -2.85 -10.5 -1.5 -10.7 0.85 -10.55 4.55 -10.4 M-4.95 10.0 L-6.5 8.7 -7.25 7.5 Q-7.5 6.65 -7.05 5.9 -6.6 5.1 -6.6 4.0 L-6.6 3.5 -7.05 0.65 -7.15 0.4 -7.3 0.25 -7.8 -0.1 -7.85 0.05 -8.1 0.5 -8.6 1.95 -8.6 2.7 -8.85 2.65 -10.95 2.6 -11.2 1.8 -11.1 -0.1 -10.65 -1.1 -10.5 -1.3 -9.65 -1.4 -8.05 -1.75 -4.7 -1.8 -3.3 -1.75 -1.35 -1.3 0.35 -1.3 2.25 -1.1 3.1 -0.95 2.95 -0.85 2.7 -0.45 2.65 0.05 2.2 1.85 Q1.7 3.05 1.2 3.45 L0.9 3.2 0.05 2.5 -1.3 1.7 Q-2.0 1.3 -2.8 1.15 L-4.6 0.75 -6.05 0.8 -6.4 0.8 -7.15 0.4 -6.4 0.8 -6.05 0.8 -4.6 0.75 -2.8 1.15 Q-2.0 1.3 -1.3 1.7 L0.05 2.5 0.9 3.2 1.2 3.45 1.1 3.5 1.3 3.9 1.7 5.2 Q1.7 6.4 1.0 6.85 L0.45 7.15 0.1 7.25 -1.25 8.55 -2.45 9.1 -2.95 9.3 -3.15 9.1 -4.1 7.85 -5.0 6.65 -6.05 5.05 -6.6 4.0 -6.05 5.05 -5.0 6.65 -4.1 7.85 -3.15 9.1 -2.95 9.3 -3.4 9.5 -4.95 10.0 M0.85 -10.55 L2.4 -10.0 4.0 -9.5 4.25 -9.45 4.0 -9.5 2.4 -10.0 0.85 -10.55 M-6.4 0.8 L-5.05 1.8 -4.2 2.5 -2.8 3.75 -1.7 4.9 -0.4 6.15 0.25 6.9 0.45 7.15 0.25 6.9 -0.4 6.15 -1.7 4.9 -2.8 3.75 -4.2 2.5 -5.05 1.8 -6.4 0.8 M-9.1 -5.15 L-4.85 -6.9 -3.9 -7.1 -2.0 -7.25 -3.9 -7.1 -4.85 -6.9 -9.1 -5.15 M-6.7 -7.55 L-7.0 -7.5 -7.05 -7.4 -6.7 -7.55 M-7.8 -0.1 L-8.5 -0.6 -9.25 -0.9 -10.65 -1.1 -9.25 -0.9 -8.5 -0.6 -7.8 -0.1" fill="#ffffff" fill-rule="evenodd" stroke="none"/>
      <path d="M10.2 -6.2 L10.1 -6.9 9.9 -7.75 9.4 -9.75 9.25 -10.25 4.55 -10.4 M4.25 -9.45 L5.8 -8.95 7.3 -8.2 8.75 -7.3 10.2 -6.2 10.65 -5.25 11.1 -3.9 11.25 -3.0 11.3 -1.05 Q11.35 0.0 10.75 0.75 L10.8 3.45 10.65 4.05 9.75 5.0 8.35 6.3 8.0 6.6 7.1 7.35 5.65 8.4 5.55 8.45 4.85 8.8 3.8 9.15 3.4 9.0 2.9 8.8 2.05 9.15 Q1.4 9.3 0.6 9.85 L-0.95 10.45 -1.75 10.45 -2.8 10.65 Q-3.75 10.8 -4.5 10.3 -4.75 10.1 -4.95 10.0 L-6.5 8.7 -7.25 7.5 Q-7.5 6.65 -7.05 5.9 -6.6 5.1 -6.6 4.0 L-6.6 3.5 -6.75 3.4 Q-7.75 2.9 -8.6 2.7 L-8.85 2.65 -10.95 2.6 -11.2 1.8 -11.1 -0.1 -10.65 -1.1 -10.5 -1.3 -10.35 -2.5 -10.0 -3.7 -9.1 -5.15 -9.05 -5.4 -8.35 -6.15 -7.0 -7.5 -6.85 -8.05 Q-6.35 -8.65 -5.55 -9.05 L-3.7 -10.1 -2.85 -10.5 -1.5 -10.7 0.85 -10.55 4.55 -10.4 M4.25 -9.45 L4.0 -9.5 2.4 -10.0 0.85 -10.55 M-6.7 -7.55 L-2.0 -7.25 -0.85 -7.25 0.3 -7.15 2.2 -6.65 3.7 -6.0 4.15 -5.7 5.25 -5.1 6.85 -4.0 8.35 -2.7 9.7 -1.1 10.65 0.05 10.75 0.75 M3.1 -0.95 L3.3 -0.95 5.15 -0.5 6.8 0.05 7.7 0.55 9.2 1.75 10.0 2.55 10.8 3.45 M3.1 -0.95 L2.25 -1.1 0.35 -1.3 -1.35 -1.3 -3.3 -1.75 -4.7 -1.8 -8.05 -1.75 -9.65 -1.4 -10.5 -1.3 M-7.15 0.4 L-6.4 0.8 -6.05 0.8 -4.6 0.75 -2.8 1.15 Q-2.0 1.3 -1.3 1.7 L0.05 2.5 0.9 3.2 1.2 3.45 1.9 4.1 2.05 4.2 3.3 5.4 4.35 6.7 5.55 8.45 M0.45 7.15 L0.25 6.9 -0.4 6.15 -1.7 4.9 -2.8 3.75 -4.2 2.5 -5.05 1.8 -6.4 0.8 M0.45 7.15 L0.95 7.75 2.05 9.15 M-2.0 -7.25 L-3.9 -7.1 -4.85 -6.9 -9.1 -5.15 M-6.7 -7.55 L-7.0 -7.5 -7.05 -7.4 -6.7 -7.55 M-10.65 -1.1 L-9.25 -0.9 -8.5 -0.6 -7.8 -0.1 -7.3 0.25 -7.15 0.4 -7.05 0.65 -6.6 3.5 M-6.6 4.0 L-6.05 5.05 -5.0 6.65 -4.1 7.85 -3.15 9.1 -2.95 9.3 -1.75 10.45" fill="none" stroke="#000000" stroke-linecap="round" stroke-linejoin="round" stroke-opacity="0.3019608" stroke-width="0.05"/>
    </g>
  </defs>
</svg>
