<?xml version="1.0" encoding="UTF-8" standalone="no"?>
<svg xmlns:xlink="http://www.w3.org/1999/xlink" height="26.45px" width="23.2px" xmlns="http://www.w3.org/2000/svg">
  <g transform="matrix(1.0, 0.0, 0.0, 1.0, 11.6, 13.25)">
    <use height="26.45" id="_col2" transform="matrix(1.0, 0.0, 0.0, 1.0, -11.6, -13.25)" width="23.2" xlink:href="#sprite0"/>
  </g>
  <defs>
    <g id="sprite0" transform="matrix(1.0, 0.0, 0.0, 1.0, 14.15, 7.5)">
      <use height="26.45" transform="matrix(1.0, 0.0, 0.0, 1.0, -14.15, -7.5)" width="23.2" xlink:href="#shape0"/>
    </g>
    <g id="shape0" transform="matrix(1.0, 0.0, 0.0, 1.0, 14.15, 7.5)">
      <path d="M-10.4 8.55 L-10.65 8.55 -14.15 8.55 -13.85 7.3 -12.85 4.35 -11.7 1.35 -9.9 -0.45 -8.6 -1.5 -7.8 -2.25 -7.0 -2.75 -8.25 -5.8 -4.45 -7.0 -2.85 -7.3 -2.35 -7.35 -0.9 -5.45 -0.15 -4.1 -0.1 -4.0 0.9 -5.7 1.65 -7.35 2.0 -7.5 2.45 -7.45 3.4 -7.3 3.1 -7.35 Q2.2 -6.7 0.65 -3.7 L0.3 -3.8 -2.15 -4.1 -3.0 -3.85 -2.95 -3.7 -2.1 -3.55 -1.05 -3.35 -0.55 -3.25 -1.1 -3.1 -1.3 -3.05 -2.9 -2.65 -4.55 -1.95 -4.05 -1.95 -1.2 -2.65 0.15 -2.9 0.8 -3.0 0.95 -3.0 1.25 0.05 1.2 7.3 1.05 9.1 0.65 12.3 Q0.35 12.65 0.35 12.95 L-1.45 14.6 -3.3 14.1 Q-5.8 13.1 -6.45 15.45 L-10.75 15.3 -10.75 14.95 Q-10.75 14.45 -10.4 14.1 -10.25 13.45 -9.9 13.1 L-9.6 12.0 Q-9.25 10.5 -9.45 8.9 L-9.75 7.65 -10.35 8.5 -10.4 8.55 M-2.65 10.0 L-3.3 11.3 -3.4 12.2 Q-3.4 12.65 -2.85 13.1 L-2.7 13.2 Q-2.2 13.55 -1.5 13.55 -0.8 13.55 -0.4 12.8 -0.05 12.15 -0.05 11.5 -0.05 10.0 -1.75 10.0 L-2.65 10.0" fill="#c6886a" fill-rule="evenodd" stroke="none"/>
      <path d="M3.4 -7.3 L3.7 -7.25 4.15 -7.15 6.9 -6.2 Q9.05 -5.25 9.05 -5.0 L8.55 -4.55 7.55 -3.9 6.55 -2.95 6.7 -2.35 6.8 -1.8 Q8.8 6.0 7.65 11.3 L4.35 14.3 Q2.5 15.8 0.65 15.8 L0.2 15.6 Q-0.15 15.6 -0.3 15.95 L-2.5 17.6 -4.95 17.75 -7.6 18.95 Q-8.95 18.25 -9.9 17.1 L-10.05 16.95 Q-10.75 16.1 -10.75 15.3 L-6.45 15.45 Q-5.8 13.1 -3.3 14.1 L-1.45 14.6 0.35 12.95 Q0.35 12.65 0.65 12.3 L1.05 9.1 1.2 7.3 1.25 0.05 0.95 -3.0 0.8 -3.0 0.15 -2.9 -1.2 -2.65 -4.05 -1.95 -4.55 -1.95 -2.9 -2.65 -1.3 -3.05 -1.1 -3.1 -0.55 -3.25 -1.05 -3.35 -2.1 -3.55 -2.95 -3.7 -3.0 -3.85 -2.15 -4.1 0.3 -3.8 0.65 -3.7 Q2.2 -6.7 3.1 -7.35 L3.4 -7.3 M-9.45 8.9 L-9.5 8.9 -9.95 8.6 -10.35 8.55 -10.4 8.55 -10.35 8.5 -9.75 7.65 -9.45 8.9 M6.35 -2.65 L6.55 -2.95 6.35 -2.65 M-0.3 15.95 L-1.15 16.25 Q-2.8 17.1 -4.45 17.25 L-6.45 15.45 -4.45 17.25 Q-2.8 17.1 -1.15 16.25 L-0.3 15.95 M1.45 10.75 L1.6 11.55 1.9 12.15 Q2.3 12.8 2.6 12.8 4.5 11.8 4.5 10.6 4.5 9.2 3.0 9.25 2.15 9.3 1.75 9.75 1.45 10.1 1.45 10.75 M5.8 10.2 Q5.8 10.6 6.15 11.0 6.45 11.35 6.75 11.35 7.1 11.35 7.45 10.8 L7.75 9.85 Q7.75 9.55 7.35 9.2 L6.15 9.35 5.8 10.2 M-4.45 17.25 L-4.95 17.75 -4.45 17.25" fill="#975133" fill-rule="evenodd" stroke="none"/>
      <path d="M-10.4 8.55 L-10.65 8.55 -14.15 8.55 -13.85 7.3 -12.85 4.35 -11.7 1.35 -9.9 -0.45 -8.6 -1.5 -7.8 -2.25 -7.0 -2.75 -8.25 -5.8 -4.45 -7.0 -2.85 -7.3 -2.35 -7.35 -0.9 -5.45 -0.15 -4.1 -0.1 -4.0 0.9 -5.7 1.65 -7.35 2.0 -7.5 2.45 -7.45 3.4 -7.3 3.7 -7.25 4.15 -7.15 6.9 -6.2 Q9.05 -5.25 9.05 -5.0 L8.55 -4.55 7.55 -3.9 6.55 -2.95 6.7 -2.35 6.8 -1.8 Q8.8 6.0 7.65 11.3 L4.35 14.3 Q2.5 15.8 0.65 15.8 L0.2 15.6 Q-0.15 15.6 -0.3 15.95 L-2.5 17.6 -4.95 17.75 -7.6 18.95 Q-8.95 18.25 -9.9 17.1 L-10.05 16.95 Q-10.75 16.1 -10.75 15.3 L-10.75 14.95 Q-10.75 14.45 -10.4 14.1 -10.25 13.45 -9.9 13.1 L-9.6 12.0 Q-9.25 10.5 -9.45 8.9 L-9.5 8.9 -9.95 8.6 -10.35 8.55 -10.4 8.55 M-9.75 7.65 L-9.45 8.9 M-6.45 15.45 L-4.45 17.25 Q-2.8 17.1 -1.15 16.25 L-0.3 15.95 M6.55 -2.95 L6.35 -2.65 M1.45 10.75 L1.6 11.55 1.9 12.15 Q2.3 12.8 2.6 12.8 4.5 11.8 4.5 10.6 4.5 9.2 3.0 9.25 2.15 9.3 1.75 9.75 1.45 10.1 1.45 10.75 M5.8 10.2 Q5.8 10.6 6.15 11.0 6.45 11.35 6.75 11.35 7.1 11.35 7.45 10.8 L7.75 9.85 Q7.75 9.55 7.35 9.2 L6.15 9.35 5.8 10.2 M-2.65 10.0 L-3.3 11.3 -3.4 12.2 Q-3.4 12.65 -2.85 13.1 L-2.7 13.2 Q-2.2 13.55 -1.5 13.55 -0.8 13.55 -0.4 12.8 -0.05 12.15 -0.05 11.5 -0.05 10.0 -1.75 10.0 L-2.65 10.0 M-4.95 17.75 L-4.45 17.25" fill="none" stroke="#000000" stroke-linecap="round" stroke-linejoin="round" stroke-opacity="0.3019608" stroke-width="0.05"/>
    </g>
  </defs>
</svg>
