<?xml version="1.0" encoding="UTF-8" standalone="no"?>
<svg xmlns:xlink="http://www.w3.org/1999/xlink" height="26.45px" width="23.2px" xmlns="http://www.w3.org/2000/svg">
  <g transform="matrix(1.0, 0.0, 0.0, 1.0, 14.9, 4.35)">
    <use height="26.45" id="_p5" transform="matrix(1.0, 0.0, 0.0, 1.0, -14.9, -4.35)" width="23.2" xlink:href="#sprite0"/>
  </g>
  <defs>
    <g id="sprite0" transform="matrix(1.0, 0.0, 0.0, 1.0, 14.15, 7.5)">
      <use height="22.7" id="_col0" transform="matrix(1.0, 0.0, 0.0, 1.0, -13.6, -3.75)" width="21.65" xlink:href="#sprite1"/>
      <use height="26.45" id="_p7" transform="matrix(1.0, 0.0, 0.0, 1.0, -14.15, -7.5)" width="23.2" xlink:href="#sprite2"/>
    </g>
    <g id="sprite1" transform="matrix(1.0, 0.0, 0.0, 1.0, 13.6, 3.75)">
      <use height="22.7" transform="matrix(1.0, 0.0, 0.0, 1.0, -13.6, -3.75)" width="21.65" xlink:href="#shape0"/>
    </g>
    <g id="shape0" transform="matrix(1.0, 0.0, 0.0, 1.0, 13.6, 3.75)">
      <path d="M-10.75 15.3 L-10.75 14.95 Q-10.75 14.45 -10.4 14.1 -10.25 13.45 -9.9 13.1 L-9.6 12.0 Q-9.1 9.95 -9.75 7.65 -11.1 9.15 -10.9 10.65 L-11.55 10.65 -13.55 10.65 Q-13.75 7.2 -12.75 4.2 L-11.7 1.35 -9.9 -0.45 -8.6 -1.5 -7.8 -2.25 -7.0 -2.8 -5.15 -3.5 -4.8 -3.75 0.85 -3.6 1.25 0.05 Q1.6 6.15 0.65 12.3 0.35 12.65 0.35 12.95 L-1.45 14.6 -3.3 14.1 Q-5.8 13.1 -6.45 15.45 L-10.75 15.3" fill="#efcdaf" fill-rule="evenodd" stroke="none"/>
      <path d="M6.5 -3.15 L6.7 -2.35 6.8 -1.8 Q8.8 6.0 7.65 11.3 L4.35 14.3 Q2.5 15.8 0.65 15.8 L0.2 15.6 Q-0.15 15.6 -0.3 15.95 L-2.5 17.6 -4.95 17.75 -7.6 18.95 Q-8.95 18.25 -9.9 17.1 L-10.05 16.95 Q-10.75 16.1 -10.75 15.3 L-6.45 15.45 Q-5.8 13.1 -3.3 14.1 L-1.45 14.6 0.35 12.95 Q0.35 12.65 0.65 12.3 1.6 6.15 1.25 0.05 L0.85 -3.6 6.5 -3.15 M-10.4 14.1 L-13.55 12.0 -13.55 11.6 -13.55 10.65 -11.55 10.65 -10.9 10.65 Q-11.1 9.15 -9.75 7.65 -9.1 9.95 -9.6 12.0 L-9.9 13.1 Q-10.25 13.45 -10.4 14.1 M-0.3 15.95 L-1.15 16.25 Q-2.8 17.1 -4.45 17.25 L-6.45 15.45 -4.45 17.25 Q-2.8 17.1 -1.15 16.25 L-0.3 15.95 M-4.45 17.25 L-4.95 17.75 -4.45 17.25" fill="#c6886a" fill-rule="evenodd" stroke="none"/>
      <path d="M6.5 -3.15 L6.7 -2.35 6.8 -1.8 Q8.8 6.0 7.65 11.3 L4.35 14.3 Q2.5 15.8 0.65 15.8 L0.2 15.6 Q-0.15 15.6 -0.3 15.95 L-2.5 17.6 -4.95 17.75 -7.6 18.95 Q-8.95 18.25 -9.9 17.1 L-10.05 16.95 Q-10.75 16.1 -10.75 15.3 L-10.75 14.95 Q-10.75 14.45 -10.4 14.1 L-13.55 12.0 -13.55 11.6 -13.55 10.65 Q-13.75 7.2 -12.75 4.2 L-11.7 1.35 -9.9 -0.45 -8.6 -1.5 -7.8 -2.25 -7.0 -2.8 M-6.45 15.45 L-4.45 17.25 Q-2.8 17.1 -1.15 16.25 L-0.3 15.95 M-9.75 7.65 Q-9.1 9.95 -9.6 12.0 L-9.9 13.1 Q-10.25 13.45 -10.4 14.1 M-4.95 17.75 L-4.45 17.25" fill="none" stroke="#000000" stroke-linecap="round" stroke-linejoin="round" stroke-opacity="0.3019608" stroke-width="0.05"/>
    </g>
  </defs>
</svg>
