<?xml version="1.0" encoding="UTF-8" standalone="no"?>
<svg xmlns:xlink="http://www.w3.org/1999/xlink" height="3.3px" width="6.4px" xmlns="http://www.w3.org/2000/svg">
  <g transform="matrix(1.0, 0.0, 0.0, 1.0, 3.2, 1.65)">
    <path d="M0.7 1.3 L0.35 1.4 -0.9 1.65 -1.05 1.55 -1.5 1.2 -1.65 0.9 -1.75 0.6 -1.8 0.25 -1.75 0.1 Q-1.05 -0.35 -0.3 -0.75 L0.4 -0.35 0.55 -0.1 0.7 1.15 0.7 1.3 M0.15 0.65 L0.1 0.6 -1.2 0.75 -1.3 0.95 Q-1.05 1.55 -0.35 1.3 L0.15 0.65 M-0.3 -0.25 L-0.6 -0.1 -1.05 0.45 -0.9 0.45 Q-0.45 0.5 -0.15 0.2 L-0.15 0.15 -0.2 -0.05 -0.3 -0.25" fill="#096f6f" fill-rule="evenodd" stroke="none"/>
    <path d="M1.35 -1.6 Q2.2 -0.9 1.9 0.0 L1.5 0.9 0.7 1.3 0.7 1.15 0.55 -0.1 0.4 -0.35 -0.3 -0.75 1.35 -1.6 M-0.9 1.65 L-2.4 1.55 -2.6 1.35 -2.7 0.45 -1.75 0.1 -1.8 0.25 -1.75 0.6 -1.65 0.9 -1.5 1.2 -1.05 1.55 -0.9 1.65" fill="#fbfbfb" fill-rule="evenodd" stroke="none"/>
    <path d="M0.15 0.65 L-0.35 1.3 Q-1.05 1.55 -1.3 0.95 L-1.2 0.75 0.1 0.6 0.15 0.65" fill="#00ffff" fill-rule="evenodd" stroke="none"/>
    <path d="M-0.3 -0.25 L-0.2 -0.05 -0.15 0.15 -0.15 0.2 Q-0.45 0.5 -0.9 0.45 L-1.05 0.45 -0.6 -0.1 -0.3 -0.25" fill="#054746" fill-rule="evenodd" stroke="none"/>
    <path d="M3.2 -1.6 L2.3 -1.65 1.35 -1.6 Q2.2 -0.9 1.9 0.0 L1.5 0.9 M-2.7 0.45 L-2.85 0.35 -3.2 0.2 M-0.3 -0.75 Q-1.05 -0.35 -1.75 0.1 L-2.7 0.45 M1.35 -1.6 L-0.3 -0.75" fill="none" stroke="#000000" stroke-linecap="round" stroke-linejoin="round" stroke-opacity="0.2509804" stroke-width="0.05"/>
    <path d="M0.7 1.3 L0.7 1.15 0.55 -0.1 0.4 -0.35 -0.3 -0.75 M-1.75 0.1 L-1.8 0.25 -1.75 0.6 -1.65 0.9 -1.5 1.2 -1.05 1.55 -0.9 1.65" fill="none" stroke="#000000" stroke-linecap="round" stroke-linejoin="round" stroke-opacity="0.4" stroke-width="0.05"/>
  </g>
</svg>
