<?xml version="1.0" encoding="UTF-8" standalone="no"?>
<svg xmlns:xlink="http://www.w3.org/1999/xlink" height="144.75px" width="140.45px" xmlns="http://www.w3.org/2000/svg">
  <g transform="matrix(1.0, 0.0, 0.0, 1.0, 70.2, 72.35)">
    <use height="144.75" transform="matrix(1.0, 0.0, 0.0, 1.0, -70.2, -72.35)" width="140.45" xlink:href="#shape0"/>
  </g>
  <defs>
    <g id="shape0" transform="matrix(1.0, 0.0, 0.0, 1.0, 70.2, 72.35)">
      <path d="M67.55 -22.95 L67.5 -21.25 68.3 -20.5 4.5 6.9 -11.35 13.7 -19.6 8.85 -15.15 7.7 -11.6 9.8 41.4 -12.15 45.85 -14.0 67.55 -22.95 M-65.3 15.5 L-66.3 11.85 -66.15 11.4 -63.0 8.45 -56.55 7.7 -53.15 10.85 -51.85 8.3 -51.65 10.0 -51.4 12.4 -53.15 14.7 -53.15 10.85 -53.15 14.7 -51.4 12.4 -49.0 14.65 -45.95 24.8 -52.9 23.45 -53.3 20.65 -54.35 18.9 -56.15 18.9 -63.0 8.45 -56.15 18.9 -57.7 20.6 -65.3 15.5 M-68.25 -19.95 L-67.3 -20.85 -66.35 -21.8 -49.15 -11.9 -53.4 -11.15 -49.15 -11.9 -26.2 1.35 -31.45 1.85 -26.2 1.35 -15.15 7.7 -19.6 8.85 -29.0 3.3 -31.45 4.15 -31.45 1.85 -53.4 -11.15 -56.6 -13.05 -62.3 -17.8 -63.8 -17.3 -62.3 -17.8 -56.6 -13.05 -63.8 -17.3 -66.45 -18.9 -68.25 -19.95 M4.5 -30.05 L10.6 -28.7 4.55 -23.7 Q3.9 -24.25 3.2 -24.85 L2.15 -24.35 1.0 -22.3 -4.55 -23.5 -4.55 -24.95 -3.1 -26.8 -1.6 -28.7 4.5 -30.05 3.2 -24.85 4.5 -30.05 M-66.45 -18.9 L-67.3 -20.85 -66.45 -18.9 M-12.85 28.7 L-10.3 31.15 -4.45 23.55 -9.95 36.7 -10.15 33.95 -12.85 28.7 M-26.2 1.35 L-29.0 3.3 -26.2 1.35 M-56.55 7.7 L-54.35 18.9 -56.55 7.7 M-52.7 21.35 L-53.3 20.65 -49.0 14.65 -53.3 20.65 -52.7 21.35 M-1.6 -28.7 L2.15 -24.35 -1.6 -28.7" fill="#d9cd9e" fill-rule="evenodd" stroke="none"/>
      <path d="M66.35 -47.85 L67.55 -47.35 67.55 -43.0 70.25 -41.85 68.5 -23.35 67.55 -22.95 45.85 -14.0 43.85 -14.55 41.2 -15.4 39.85 -14.35 41.2 -15.4 43.3 -17.05 37.3 -17.05 31.55 -15.95 29.5 -14.35 27.0 -12.4 29.5 -14.35 31.55 -15.95 37.3 -17.05 43.3 -17.05 41.2 -15.4 43.85 -14.55 45.85 -14.0 41.4 -12.15 43.85 -14.55 41.4 -12.15 -11.6 9.8 -12.75 -9.9 -12.8 -11.05 -13.35 -20.5 -4.55 -23.5 -4.55 -22.3 -3.15 -18.3 -2.65 -18.1 -0.65 -17.45 3.6 -16.1 11.55 -18.4 12.2 -20.05 13.75 -24.2 10.6 -28.7 46.85 -41.2 57.7 -41.25 46.85 -41.2 66.35 -47.85 M68.3 -20.5 L63.55 31.3 -7.9 72.4 -9.75 40.85 -9.95 36.7 -4.45 23.55 -1.55 19.75 0.8 23.0 -1.55 19.75 -4.45 23.55 -10.3 31.15 -11.35 13.7 4.5 6.9 68.3 -20.5 M-65.25 28.25 L-64.45 23.95 -57.7 22.85 -56.2 24.85 -65.25 28.25 M17.25 -19.85 L18.6 -18.45 12.2 -20.05 18.6 -18.45 17.25 -19.85 M-1.9 -14.55 L-4.0 -14.85 -0.65 -17.45 -4.0 -14.85 -1.9 -14.55 M67.55 -43.0 L65.45 -43.9 64.8 -44.15 65.45 -43.9 67.55 -43.0 M13.75 -24.2 L14.45 -26.15 13.75 -24.2 M18.6 -18.45 L22.6 -14.35 29.5 -14.35 22.6 -14.35 21.45 -14.35 22.6 -14.35 18.6 -18.45 M31.55 -15.95 L32.95 -17.05 37.3 -17.05 32.95 -17.05 31.55 -15.95 M59.2 -38.85 L57.7 -41.25 57.1 -42.2 57.7 -41.25 59.2 -38.85 65.45 -43.9 59.2 -38.85 60.35 -37.0 59.2 -38.85 M43.3 -17.05 L45.25 -18.55 43.3 -17.05 M-7.3 -15.45 L-6.35 -16.2 -7.3 -15.45 -4.0 -14.85 -5.8 -13.55 -4.0 -14.85 -7.3 -15.45 -8.7 -15.65 -7.3 -15.45 M4.5 6.9 L-3.6 16.85 -5.05 14.9 -3.6 16.85 4.5 6.9 M-5.9 19.65 L-3.6 16.85 -1.55 19.75 -3.6 16.85 -5.9 19.65 M-54.7 25.1 L-50.1 34.05 -59.65 34.05 -54.7 25.1 M-1.55 19.75 L0.25 17.4 -1.55 19.75" fill="#f2eec4" fill-rule="evenodd" stroke="none"/>
      <path d="M54.0 -52.2 L53.05 -53.2 56.25 -54.25 53.05 -53.2 54.0 -52.2 55.2 -50.95 58.45 -51.15 61.45 -49.9 58.45 -51.15 55.2 -50.95 54.0 -52.2 50.4 -52.3 44.65 -50.4 45.5 -46.15 45.8 -44.45 45.5 -46.15 44.65 -50.4 50.4 -52.3 54.0 -52.2 M-51.7 -56.6 L1.25 -72.35 56.25 -54.25 60.6 -52.85 61.05 -51.3 61.45 -49.9 66.35 -47.85 46.85 -41.2 10.6 -28.7 4.5 -30.05 -1.6 -28.7 -3.1 -26.8 -4.55 -24.95 -4.55 -23.5 1.0 -22.3 -4.55 -22.3 -4.55 -23.5 -13.35 -20.5 -32.25 -30.65 -33.05 -32.4 -37.15 -33.35 -42.9 -36.4 -49.55 -41.75 -52.8 -41.75 -67.7 -49.75 -68.35 -51.65 -64.25 -52.85 -61.2 -52.55 -60.15 -52.35 -56.4 -51.9 -60.25 -54.1 -54.25 -55.8 -51.7 -56.6 -49.7 -55.7 -46.8 -55.65 -49.7 -55.7 -51.7 -56.6 M53.05 -53.2 L50.4 -52.3 53.05 -53.2 M39.15 -48.55 L36.25 -49.05 35.6 -48.5 34.4 -49.55 30.1 -49.55 30.4 -50.9 16.85 -51.7 30.4 -50.9 30.65 -51.85 30.4 -50.9 30.1 -49.55 34.4 -49.55 35.6 -48.5 36.25 -49.05 39.15 -48.55 39.25 -48.45 39.3 -48.5 39.4 -48.6 39.15 -48.55 M61.05 -51.3 L58.45 -51.15 61.05 -51.3 M44.65 -50.4 L39.4 -48.6 44.65 -50.4 M37.95 -47.1 L35.1 -48.1 35.6 -48.5 35.1 -48.1 37.95 -47.1 39.25 -48.45 37.95 -47.1 38.65 -46.85 37.95 -47.1 M38.5 -42.3 L41.2 -43.75 46.85 -41.2 41.2 -43.75 38.5 -42.3 M13.75 -24.2 L12.2 -20.05 11.55 -18.4 9.45 -19.45 4.5 -22.0 13.75 -24.2 M3.6 -16.1 L-0.65 -17.45 -2.65 -18.1 2.6 -20.95 3.6 -16.1 M9.45 -19.45 L12.2 -20.05 9.45 -19.45 M41.2 -43.75 L45.5 -46.15 41.2 -43.75 M-15.4 -51.75 L-20.95 -52.95 -32.3 -50.0 -41.55 -53.25 -43.55 -54.0 -41.55 -53.25 -32.3 -50.0 -20.95 -52.95 -17.05 -54.0 -20.95 -52.95 -15.4 -51.75 M-17.05 -28.9 L-14.8 -28.3 -12.0 -26.05 -6.9 -26.5 -3.1 -26.8 -6.9 -26.5 -12.0 -26.05 -14.8 -28.3 -17.05 -28.9 M-49.7 -55.7 L-54.25 -55.8 -49.7 -55.7 M-41.55 -53.25 L-48.1 -50.85 -56.4 -51.9 -48.1 -50.85 -41.55 -53.25 M-6.9 -26.5 L-14.8 -28.3 -6.9 -26.5 M-37.15 -33.35 L-34.5 -31.25 -32.25 -30.65 -35.2 -30.65 -37.15 -33.35 M-56.2 24.85 L-54.7 25.1 -59.65 34.05 -65.25 28.3 -65.25 28.25 -56.2 24.85 M-0.65 -17.45 L0.25 -18.15 -0.65 -17.45" fill="#faf8c3" fill-rule="evenodd" stroke="none"/>
      <path d="M-7.9 72.4 L-65.0 32.65 -65.25 28.3 -65.25 28.25 -65.25 28.3 -65.25 28.25 -65.25 28.3 -59.65 34.05 -50.1 34.05 -54.7 25.1 -56.2 24.85 -57.7 22.85 -57.7 20.6 -57.7 22.85 -64.45 23.95 -64.3 22.9 -64.3 19.15 -65.3 15.5 -57.7 20.6 -56.15 18.9 -54.35 18.9 -53.3 20.65 -52.9 23.45 -54.7 25.1 -52.9 23.45 -45.95 24.8 -49.0 14.65 -51.4 12.4 -51.65 10.0 -51.85 8.3 -53.15 10.85 -56.55 7.7 -57.05 7.2 -56.55 7.7 -63.0 8.45 -66.15 11.4 -66.3 11.85 -66.3 11.55 -67.2 -2.55 -65.55 -5.8 -67.7 -10.9 -68.05 -17.15 -68.25 -19.95 -66.45 -18.9 -63.8 -17.3 -62.9 -15.5 -63.45 -15.9 -62.9 -15.5 -63.8 -17.3 -56.6 -13.05 -53.4 -11.15 -53.15 -7.85 -59.2 -13.05 -56.6 -13.05 -59.2 -13.05 -53.15 -7.85 -53.4 -11.15 -31.45 1.85 -31.45 4.15 -29.0 3.3 -19.6 8.85 -11.35 13.7 -10.3 31.15 -12.85 28.7 -16.4 21.7 -16.2 16.7 -15.1 19.35 -16.2 16.7 -16.4 21.7 -12.85 28.7 -9.95 38.9 -12.85 28.7 -10.15 33.95 -9.95 36.7 -9.75 40.85 -7.9 72.4 M-66.35 -21.8 L-68.5 -23.0 -70.05 -48.35 -70.2 -51.15 -67.7 -49.75 -52.8 -41.75 -49.55 -41.75 -42.9 -36.4 -37.15 -33.35 -33.05 -32.4 -32.25 -30.65 -13.35 -20.5 -12.8 -11.05 -12.75 -9.9 -13.45 -10.5 -13.85 -10.2 -13.45 -10.5 -12.75 -9.9 -11.6 9.8 -15.15 7.7 -26.2 1.35 -49.15 -11.9 -66.35 -21.8 M-60.15 -52.4 L-60.25 -54.1 -56.4 -51.9 -60.15 -52.35 -60.15 -52.4 M3.2 -24.85 Q3.9 -24.25 4.55 -23.7 L10.6 -28.7 13.75 -24.2 4.5 -22.0 2.6 -20.95 1.0 -22.3 2.6 -20.95 -2.65 -18.1 -3.15 -18.3 -4.55 -22.3 1.0 -22.3 2.15 -24.35 3.2 -24.85 M4.5 -22.0 L4.55 -23.7 5.85 -23.8 4.55 -23.7 4.5 -22.0 M-70.05 -48.35 L-67.7 -48.35 -67.7 -49.75 -67.7 -48.35 -70.05 -48.35 M-42.9 -36.4 L-49.3 -36.25 -49.8 -37.75 -51.6 -37.75 -52.8 -41.75 -51.6 -37.75 -49.8 -37.75 -49.3 -36.25 -42.9 -36.4 M-59.2 -13.05 L-62.9 -15.5 -59.2 -13.05 M-53.15 -7.85 L-52.75 -2.85 -53.55 -3.9 -52.75 -2.85 -53.15 -7.85 M-63.9 -1.9 L-65.55 -5.8 -63.9 -1.9 M-68.05 -17.15 L-66.45 -18.9 -68.05 -17.15 M-37.15 -33.35 L-35.2 -30.65 -32.25 -30.65 -34.5 -31.25 -37.15 -33.35 M-16.65 -19.65 L-17.45 -17.8 -17.05 -17.15 -17.45 -17.8 -16.65 -19.65 M-13.45 -10.5 L-12.8 -11.05 -13.45 -10.5 M-16.2 16.7 L-19.6 8.85 -16.2 16.7 M-31.45 4.15 L-32.35 4.45 -36.85 4.45 Q-38.75 3.35 -40.6 2.3 L-38.2 0.7 -40.6 2.3 Q-38.75 3.35 -36.85 4.45 L-32.35 4.45 -31.45 4.15 M-9.75 40.85 L-9.95 38.9 -9.95 36.7 -9.95 38.9 -9.75 40.85 M-45.6 5.5 L-48.5 4.95 -51.65 10.0 -48.5 4.95 -45.6 5.5 -40.6 2.3 -45.6 5.5 -42.4 6.1 -45.6 5.5 M-52.45 2.45 L-52.2 5.0 -51.85 8.3 -52.2 5.0 -52.45 2.45 M-57.7 20.6 L-58.2 21.1 -57.7 20.6 M-52.2 5.0 L-50.6 0.0 -49.95 -2.15 -50.6 0.0 -52.2 5.0 M-49.55 12.8 L-49.0 14.65 -49.55 12.8 M-66.15 11.4 L-66.3 11.55 -66.15 11.4 M-48.55 34.05 L-50.1 34.05 -45.95 24.8 -45.3 27.05 -45.95 24.8 -50.1 34.05 -48.55 34.05 M-50.6 0.0 L-52.75 -2.85 -50.6 0.0" fill="#e3deb2" fill-rule="evenodd" stroke="none"/>
      <path d="M11.55 -18.4 L3.6 -16.1 2.6 -20.95 4.5 -22.0 9.45 -19.45 11.55 -18.4" fill="#fbf8d9" fill-rule="evenodd" stroke="none"/>
      <path d="M61.45 -49.9 L58.45 -51.15 55.2 -50.95 54.0 -52.2 50.4 -52.3 44.65 -50.4 45.5 -46.15 45.8 -44.45 M56.25 -54.25 L53.05 -53.2 54.0 -52.2 M61.05 -51.3 L60.6 -52.85 56.25 -54.25 1.25 -72.35 -51.7 -56.6 -49.7 -55.7 -46.8 -55.65 M50.4 -52.3 L53.05 -53.2 M61.05 -51.3 L61.45 -49.9 66.35 -47.85 67.55 -47.35 67.55 -43.0 70.25 -41.85 68.5 -23.35 67.55 -22.95 67.5 -21.25 68.3 -20.5 63.55 31.3 -7.9 72.4 -65.0 32.65 -65.25 28.3 -65.25 28.25 -64.45 23.95 -64.3 22.9 -64.3 19.15 -65.3 15.5 -66.3 11.85 -66.3 11.55 -67.2 -2.55 -65.55 -5.8 -67.7 -10.9 -68.05 -17.15 -68.25 -19.95 -67.3 -20.85 -66.35 -21.8 -68.5 -23.0 -70.05 -48.35 -70.2 -51.15 -68.35 -51.65 -64.25 -52.85 -61.2 -52.55 -60.15 -52.4 -60.25 -54.1 -54.25 -55.8 -51.7 -56.6 M58.45 -51.15 L61.05 -51.3 M16.85 -51.7 L30.4 -50.9 30.65 -51.85 M30.4 -50.9 L30.1 -49.55 34.4 -49.55 35.6 -48.5 36.25 -49.05 39.15 -48.55 39.4 -48.6 44.65 -50.4 M39.3 -48.5 L39.4 -48.6 M39.25 -48.45 L39.3 -48.5 39.15 -48.55 M39.25 -48.45 L37.95 -47.1 38.65 -46.85 M35.6 -48.5 L35.1 -48.1 37.95 -47.1 M10.6 -28.7 L4.5 -30.05 3.2 -24.85 Q3.9 -24.25 4.55 -23.7 L10.6 -28.7 46.85 -41.2 41.2 -43.75 38.5 -42.3 M12.2 -20.05 L18.6 -18.45 17.25 -19.85 M13.75 -24.2 L12.2 -20.05 11.55 -18.4 3.6 -16.1 -0.65 -17.45 -4.0 -14.85 -1.9 -14.55 M2.6 -20.95 L3.6 -16.1 M11.55 -18.4 L9.45 -19.45 4.5 -22.0 2.6 -20.95 1.0 -22.3 -4.55 -22.3 -3.15 -18.3 -2.65 -18.1 2.6 -20.95 M5.85 -23.8 L4.55 -23.7 4.5 -22.0 13.75 -24.2 10.6 -28.7 M3.2 -24.85 L2.15 -24.35 1.0 -22.3 -4.55 -23.5 -4.55 -22.3 M12.2 -20.05 L9.45 -19.45 M39.85 -14.35 L41.2 -15.4 43.3 -17.05 37.3 -17.05 31.55 -15.95 29.5 -14.35 27.0 -12.4 M29.5 -14.35 L22.6 -14.35 21.45 -14.35 M37.3 -17.05 L32.95 -17.05 31.55 -15.95 M22.6 -14.35 L18.6 -18.45 M14.45 -26.15 L13.75 -24.2 M64.8 -44.15 L65.45 -43.9 67.55 -43.0 M45.5 -46.15 L41.2 -43.75 M65.45 -43.9 L59.2 -38.85 60.35 -37.0 M57.1 -42.2 L57.7 -41.25 59.2 -38.85 M46.85 -41.2 L57.7 -41.25 M41.2 -15.4 L43.85 -14.55 45.85 -14.0 67.55 -22.95 M45.25 -18.55 L43.3 -17.05 M43.85 -14.55 L41.4 -12.15 45.85 -14.0 M46.85 -41.2 L66.35 -47.85 M-11.35 13.7 L4.5 6.9 68.3 -20.5 M-43.55 -54.0 L-41.55 -53.25 -32.3 -50.0 -20.95 -52.95 -17.05 -54.0 M-20.95 -52.95 L-15.4 -51.75 M-68.35 -51.65 L-67.7 -49.75 -52.8 -41.75 -49.55 -41.75 -42.9 -36.4 -37.15 -33.35 -33.05 -32.4 -32.25 -30.65 -13.35 -20.5 -4.55 -23.5 -4.55 -24.95 -3.1 -26.8 -6.9 -26.5 -12.0 -26.05 -14.8 -28.3 -17.05 -28.9 M-67.7 -49.75 L-70.2 -51.15 M-60.15 -52.35 L-56.4 -51.9 -60.25 -54.1 M-56.4 -51.9 L-48.1 -50.85 -41.55 -53.25 M-54.25 -55.8 L-49.7 -55.7 M-61.2 -52.55 L-60.15 -52.35 M-52.8 -41.75 L-51.6 -37.75 -49.8 -37.75 -49.3 -36.25 -42.9 -36.4 M-67.7 -49.75 L-67.7 -48.35 -70.05 -48.35 M-67.3 -20.85 L-66.45 -18.9 -63.8 -17.3 -62.3 -17.8 -56.6 -13.05 -53.4 -11.15 -49.15 -11.9 -66.35 -21.8 M-66.45 -18.9 L-68.25 -19.95 M-63.45 -15.9 L-62.9 -15.5 -63.8 -17.3 -56.6 -13.05 -59.2 -13.05 -53.15 -7.85 -53.4 -11.15 -31.45 1.85 -26.2 1.35 -49.15 -11.9 M-66.45 -18.9 L-68.05 -17.15 M-65.55 -5.8 L-63.9 -1.9 M-53.55 -3.9 L-52.75 -2.85 -53.15 -7.85 M-62.9 -15.5 L-59.2 -13.05 M-14.8 -28.3 L-6.9 -26.5 M-3.1 -26.8 L-1.6 -28.7 4.5 -30.05 M-37.15 -33.35 L-35.2 -30.65 -32.25 -30.65 -34.5 -31.25 -37.15 -33.35 M-5.8 -13.55 L-4.0 -14.85 -7.3 -15.45 -8.7 -15.65 M-6.35 -16.2 L-7.3 -15.45 M-0.65 -17.45 L-2.65 -18.1 M-17.05 -17.15 L-17.45 -17.8 -16.65 -19.65 M-12.75 -9.9 L-13.45 -10.5 -13.85 -10.2 M-12.75 -9.9 L-12.8 -11.05 -13.45 -10.5 M-13.35 -20.5 L-12.8 -11.05 M-26.2 1.35 L-15.15 7.7 -11.6 9.8 -12.75 -9.9 M-19.6 8.85 L-15.15 7.7 M-15.1 19.35 L-16.2 16.7 -16.4 21.7 -12.85 28.7 -10.3 31.15 -11.35 13.7 -19.6 8.85 -16.2 16.7 M-5.05 14.9 L-3.6 16.85 4.5 6.9 M0.8 23.0 L-1.55 19.75 -4.45 23.55 -9.95 36.7 -9.75 40.85 -7.9 72.4 M-1.55 19.75 L-3.6 16.85 -5.9 19.65 M-38.2 0.7 L-40.6 2.3 Q-38.75 3.35 -36.85 4.45 L-32.35 4.45 -31.45 4.15 -31.45 1.85 M-31.45 4.15 L-29.0 3.3 -26.2 1.35 M-9.95 36.7 L-9.95 38.9 -9.75 40.85 M-12.85 28.7 L-9.95 38.9 M-9.95 36.7 L-10.15 33.95 -12.85 28.7 M-10.3 31.15 L-4.45 23.55 M-29.0 3.3 L-19.6 8.85 M-40.6 2.3 L-45.6 5.5 -42.4 6.1 M-51.65 10.0 L-48.5 4.95 -45.6 5.5 M-57.05 7.2 L-56.55 7.7 -53.15 10.85 -51.85 8.3 -52.2 5.0 -52.45 2.45 M-51.4 12.4 L-51.65 10.0 -51.85 8.3 M-56.15 18.9 L-54.35 18.9 -56.55 7.7 -63.0 8.45 -56.15 18.9 -57.7 20.6 -57.7 22.85 -56.2 24.85 -54.7 25.1 -52.9 23.45 -53.3 20.65 -54.35 18.9 M-49.0 14.65 L-53.3 20.65 -52.7 21.35 M-58.2 21.1 L-57.7 20.6 -65.3 15.5 M-53.15 10.85 L-53.15 14.7 -51.4 12.4 -49.0 14.65 -49.55 12.8 M-49.95 -2.15 L-50.6 0.0 -52.2 5.0 M-63.0 8.45 L-66.15 11.4 -66.3 11.85 M-66.3 11.55 L-66.15 11.4 M-65.25 28.3 L-65.25 28.25 -56.2 24.85 M-59.65 34.05 L-50.1 34.05 -54.7 25.1 -59.65 34.05 -65.25 28.3 M-45.3 27.05 L-45.95 24.8 -50.1 34.05 -48.55 34.05 M-57.7 22.85 L-64.45 23.95 M-52.9 23.45 L-45.95 24.8 -49.0 14.65 M-52.75 -2.85 L-50.6 0.0 M0.25 -18.15 L-0.65 -17.45 M0.25 17.4 L-1.55 19.75 M2.15 -24.35 L-1.6 -28.7 M-11.6 9.8 L41.4 -12.15" fill="none" stroke="#330101" stroke-linecap="round" stroke-linejoin="round" stroke-opacity="0.3019608" stroke-width="0.05"/>
      <path d="M19.4 -13.75 L21.95 -14.75 25.25 -16.0 23.6 -14.35 21.95 -14.75 23.6 -14.35 25.25 -16.0 59.6 -29.05 58.6 -13.35 Q56.55 -12.45 56.6 -10.4 56.6 -8.5 58.3 -8.5 L56.5 17.75 14.65 38.85 14.35 7.8 Q16.35 7.95 16.5 5.65 16.0 3.5 14.3 4.05 L14.15 -11.8 19.4 -13.75" fill="#f2eec4" fill-rule="evenodd" stroke="none"/>
      <path d="M8.45 -14.85 L14.15 -11.8 14.3 4.05 8.8 1.4 8.45 -14.85 M14.65 38.85 L9.45 35.35 8.85 5.3 14.35 7.8 14.65 38.85" fill="#e3deb2" fill-rule="evenodd" stroke="none"/>
      <path d="M19.4 -13.75 L20.1 -14.75 21.95 -14.75 20.1 -14.75 19.4 -13.75 14.15 -11.8 8.45 -14.85 18.55 -18.55 26.4 -18.55 25.25 -16.0 26.4 -18.55 18.55 -18.55 52.65 -31.1 59.6 -29.05 25.25 -16.0 21.95 -14.75 19.4 -13.75 M27.05 -18.55 L26.4 -18.55 27.05 -18.55 M18.8 -14.75 L20.1 -14.75 18.8 -14.75" fill="#faf8c3" fill-rule="evenodd" stroke="none"/>
      <path d="M8.85 5.3 L8.8 1.4 14.3 4.05 Q16.0 3.5 16.5 5.65 16.35 7.95 14.35 7.8 L8.85 5.3" fill="#d9cd9e" fill-rule="evenodd" stroke="none"/>
      <path d="M21.95 -14.75 L20.1 -14.75 19.4 -13.75 21.95 -14.75 25.25 -16.0 26.4 -18.55 18.55 -18.55 8.45 -14.85 14.15 -11.8 19.4 -13.75 M20.1 -14.75 L18.8 -14.75 M26.4 -18.55 L27.05 -18.55 M25.25 -16.0 L23.6 -14.35 21.95 -14.75 M59.6 -29.05 L58.6 -13.35 Q56.55 -12.45 56.6 -10.4 56.6 -8.5 58.3 -8.5 L56.5 17.75 14.65 38.85 9.45 35.35 8.85 5.3 14.35 7.8 Q16.35 7.95 16.5 5.65 16.0 3.5 14.3 4.05 L14.15 -11.8 M8.8 1.4 L8.45 -14.85 M18.55 -18.55 L52.65 -31.1 59.6 -29.05 25.25 -16.0 M14.65 38.85 L14.35 7.8 M14.3 4.05 L8.8 1.4" fill="none" stroke="#330101" stroke-linecap="round" stroke-linejoin="round" stroke-opacity="0.3019608" stroke-width="0.05"/>
    </g>
  </defs>
</svg>
