<?xml version="1.0" encoding="UTF-8" standalone="no"?>
<svg xmlns:xlink="http://www.w3.org/1999/xlink" height="48.7px" width="50.75px" xmlns="http://www.w3.org/2000/svg">
  <g transform="matrix(1.0, 0.0, 0.0, 1.0, 26.85, 23.2)">
    <use height="48.7" transform="matrix(1.0, 0.0, 0.0, 1.0, -26.85, -23.2)" width="50.75" xlink:href="#shape0"/>
    <use height="199.15" transform="matrix(0.1672, 0.0, 0.0, 0.1672, -23.6109, -15.547)" width="249.45" xlink:href="#sprite0"/>
  </g>
  <defs>
    <g id="shape0" transform="matrix(1.0, 0.0, 0.0, 1.0, 26.85, 23.2)">
      <path d="M-0.65 -23.2 Q9.35 -22.9 16.45 -16.1 23.9 -8.95 23.9 1.15 23.9 11.2 16.45 18.35 9.35 25.2 -0.65 25.5 L-1.5 25.5 Q-12.0 25.5 -19.45 18.35 -26.85 11.2 -26.85 1.1 -26.85 -8.95 -19.45 -16.1 -12.0 -23.2 -1.5 -23.2 L-0.65 -23.2" fill="#990000" fill-opacity="0.0" fill-rule="evenodd" stroke="none"/>
    </g>
    <g id="sprite0" transform="matrix(1.0, 0.0, 0.0, 1.0, 969.95, 345.9)">
      <use height="199.15" transform="matrix(1.0, 0.0, 0.0, 1.0, -969.95, -345.9)" width="249.45" xlink:href="#shape1"/>
    </g>
    <g id="shape1" transform="matrix(1.0, 0.0, 0.0, 1.0, 969.95, 345.9)">
      <path d="M-743.3 -322.65 Q-740.45 -320.6 -737.9 -318.05 L-737.5 -317.65 Q-733.05 -313.0 -729.75 -306.8 -724.35 -291.5 -721.85 -285.7 -719.6 -279.9 -721.05 -272.85 L-724.35 -257.1 -752.9 -254.9 -752.95 -254.95 -752.95 -255.0 -753.0 -255.0 -753.05 -255.0 -754.2 -254.95 -753.8 -256.25 Q-748.1 -276.25 -756.55 -287.8 L-756.6 -287.85 -767.6 -289.95 -767.65 -289.95 -767.75 -289.95 -771.7 -285.75 -772.75 -284.4 -772.75 -284.45 -772.8 -284.3 -772.85 -284.25 Q-774.3 -282.15 -774.8 -280.1 L-775.05 -278.8 -775.0 -278.9 -774.9 -278.9 -774.95 -278.8 -775.95 -273.65 -777.6 -265.8 Q-779.25 -247.6 -756.6 -241.1 L-756.05 -240.95 -743.4 -235.15 Q-739.0 -231.9 -735.3 -227.25 L-734.75 -226.4 Q-732.55 -223.5 -730.55 -220.05 -728.85 -217.2 -727.35 -213.95 L-726.75 -194.35 Q-732.3 -172.9 -742.0 -169.55 L-742.05 -169.5 Q-745.1 -164.8 -750.65 -163.55 L-759.35 -161.3 -759.4 -161.3 Q-762.95 -160.1 -767.65 -159.0 -772.2 -157.8 -777.2 -157.75 -794.95 -157.55 -807.75 -165.65 L-807.85 -165.65 -807.9 -165.65 -807.95 -165.55 -811.45 -150.5 -836.7 -147.05 -827.2 -201.85 -810.55 -204.35 -801.05 -198.6 -792.55 -191.75 Q-788.85 -188.65 -784.25 -186.7 -781.25 -185.3 -777.15 -185.9 L-775.0 -186.35 -773.2 -186.95 Q-770.6 -186.8 -768.4 -187.05 -763.45 -187.85 -760.45 -191.25 L-759.5 -192.55 Q-756.9 -196.55 -756.3 -203.25 L-756.3 -203.3 -759.4 -211.8 -759.45 -211.85 Q-765.45 -217.55 -774.35 -221.4 L-774.65 -221.55 Q-784.15 -225.75 -793.7 -228.2 -802.8 -230.7 -811.25 -236.7 -814.8 -239.35 -817.6 -243.25 L-817.65 -243.3 Q-820.4 -247.1 -822.45 -252.05 L-824.05 -256.3 -824.15 -257.8 -824.2 -257.9 -824.3 -257.9 -825.45 -272.0 -823.0 -280.0 Q-819.7 -290.0 -815.9 -296.05 -810.3 -304.35 -795.4 -314.5 -790.45 -316.75 -785.25 -319.85 -780.1 -323.2 -774.7 -325.65 -769.7 -327.95 -763.9 -327.95 L-757.2 -327.95 -753.55 -327.95 Q-748.0 -325.95 -743.3 -322.65 M-769.3 -295.6 L-769.3 -295.5 -769.2 -295.45 -769.15 -295.45 -769.05 -295.5 -769.0 -295.5 -768.95 -295.5 -768.9 -295.5 -767.0 -295.65 -766.95 -295.65 -766.85 -295.65 -766.75 -295.6 -766.7 -295.6 -766.65 -295.6 -766.55 -295.55 -766.45 -295.55 -757.85 -293.9 -757.75 -293.9 -755.45 -293.45 Q-753.4 -293.1 -752.1 -291.4 L-752.05 -291.35 -751.95 -291.25 -751.95 -291.2 -751.9 -291.15 Q-743.9 -280.6 -746.2 -263.95 L-746.65 -261.4 -746.65 -261.35 -746.6 -261.3 -746.55 -261.25 -729.3 -262.65 -729.2 -262.7 -729.15 -262.75 -726.75 -274.0 Q-725.75 -279.1 -727.25 -283.35 L-727.25 -283.45 Q-729.9 -289.4 -735.25 -304.75 L-735.35 -304.95 -735.35 -304.9 Q-738.1 -309.75 -741.7 -313.5 L-741.7 -313.55 -741.85 -313.7 -742.0 -313.95 -742.05 -314.0 -742.1 -314.05 -746.65 -317.8 Q-750.4 -320.4 -754.8 -322.05 L-754.85 -322.05 -757.2 -322.05 -763.9 -322.05 -767.6 -321.75 -767.65 -321.75 Q-770.05 -321.35 -772.2 -320.35 -777.2 -318.05 -781.85 -314.95 L-782.05 -314.9 -782.05 -314.85 -782.2 -314.8 -782.2 -314.75 -783.05 -314.35 Q-787.65 -311.65 -792.1 -309.6 L-792.15 -309.55 Q-805.6 -300.45 -810.85 -293.0 L-810.85 -293.05 -810.9 -292.8 Q-814.35 -287.3 -817.35 -278.2 L-817.4 -278.05 -819.5 -271.5 -818.45 -259.0 -818.45 -258.95 -818.3 -257.35 -818.3 -257.3 -818.05 -256.65 -817.25 -254.45 -817.25 -254.4 -817.2 -254.35 -817.2 -254.25 -817.15 -254.2 -817.15 -254.15 -817.1 -254.1 Q-815.3 -249.85 -813.0 -246.6 L-812.8 -246.3 -812.8 -246.25 Q-810.6 -243.4 -807.9 -241.4 L-807.95 -241.4 -807.85 -241.3 -807.8 -241.3 Q-800.3 -236.05 -792.2 -233.8 L-792.1 -233.75 -791.85 -233.7 -791.8 -233.65 Q-782.15 -231.1 -772.45 -226.85 L-772.4 -226.85 -772.35 -226.85 -772.25 -226.8 -772.15 -226.75 -772.1 -226.7 -772.0 -226.65 -771.85 -226.65 -771.85 -226.6 Q-763.7 -223.05 -757.75 -218.05 L-757.75 -218.15 -757.75 -218.2 -757.65 -218.15 -755.35 -216.05 -754.95 -215.6 -754.3 -214.7 -754.3 -214.65 -754.1 -214.3 -753.85 -213.85 -750.75 -205.35 -750.7 -205.2 -750.7 -205.15 -750.65 -205.05 -750.65 -204.95 -750.6 -204.8 -750.45 -203.3 -750.45 -203.25 -750.45 -203.2 -750.45 -203.1 -750.45 -203.0 -750.45 -202.95 -750.45 -202.7 Q-751.4 -191.4 -757.15 -186.2 L-757.15 -186.15 -757.35 -186.05 Q-762.8 -180.65 -772.5 -181.0 -777.0 -179.65 -780.75 -179.85 -783.55 -180.0 -785.9 -181.0 L-786.55 -181.3 -786.65 -181.35 -786.7 -181.4 -786.7 -181.35 -786.85 -181.45 -787.1 -181.6 -791.25 -183.65 -793.2 -184.85 Q-794.85 -185.95 -796.4 -187.2 L-796.45 -187.3 -796.5 -187.35 -796.55 -187.4 -797.05 -187.95 -797.1 -188.0 -801.45 -191.5 -804.3 -193.7 -804.35 -193.7 -804.5 -193.85 -804.5 -193.8 -811.7 -198.2 -822.2 -196.6 -828.35 -160.95 -828.4 -160.95 -828.45 -160.95 -828.5 -160.9 -828.5 -160.85 -829.7 -153.95 -829.7 -153.9 -829.65 -153.85 -829.55 -153.8 -816.2 -155.65 -816.15 -155.7 -816.1 -155.75 -813.5 -166.85 Q-813.15 -168.7 -811.8 -169.9 L-811.7 -170.0 -811.65 -170.05 -811.6 -170.05 -811.55 -170.1 -811.55 -170.25 -811.5 -170.1 -811.45 -170.15 Q-810.1 -171.25 -808.35 -171.4 L-808.15 -171.4 -807.9 -171.4 Q-806.2 -171.5 -804.7 -170.55 L-804.75 -170.55 -804.7 -170.5 -804.6 -170.45 -804.55 -170.4 -804.45 -170.35 -804.35 -170.4 -804.3 -170.45 Q-792.9 -163.5 -777.2 -163.65 -773.15 -163.65 -769.4 -164.65 L-769.4 -164.6 -769.3 -164.55 -769.25 -164.55 -769.25 -164.7 -769.25 -164.75 -769.2 -164.6 -769.1 -164.6 -768.75 -164.65 -768.65 -164.7 -768.6 -164.7 -768.55 -164.7 -768.45 -164.75 -768.35 -164.7 Q-764.35 -165.65 -761.25 -166.75 L-761.2 -166.75 -761.1 -166.8 -761.05 -166.8 -760.1 -167.0 -752.05 -169.1 -752.0 -169.15 -751.95 -169.15 -751.9 -169.15 Q-748.95 -169.9 -747.1 -172.25 L-747.05 -172.3 -746.95 -172.5 -746.9 -172.6 Q-745.8 -174.35 -743.95 -175.0 L-743.8 -175.0 -743.75 -175.05 Q-736.95 -178.45 -732.5 -194.95 L-733.1 -212.65 -735.4 -216.95 -735.4 -217.0 -735.55 -217.15 -735.65 -217.35 Q-737.25 -220.1 -738.95 -222.45 L-739.0 -222.5 -739.0 -222.55 -739.3 -222.85 -739.3 -222.9 -739.35 -222.95 -739.35 -222.9 Q-742.65 -227.2 -746.5 -230.2 L-746.55 -230.2 -757.9 -235.35 -757.95 -235.4 -758.05 -235.4 -758.15 -235.4 -759.05 -235.75 Q-772.35 -239.7 -778.45 -247.15 L-778.45 -247.2 Q-784.75 -254.9 -783.45 -266.3 L-783.45 -266.4 -783.45 -266.45 -783.4 -266.55 -783.4 -266.75 -783.35 -266.9 -783.3 -267.0 -783.35 -267.15 -783.3 -267.15 -781.65 -274.9 -781.65 -275.0 -781.65 -275.05 -781.6 -275.15 -781.6 -275.2 -781.55 -275.3 -781.55 -275.35 -780.75 -279.3 -780.75 -279.45 -780.8 -279.5 -780.75 -279.55 -780.75 -279.7 -780.4 -281.2 -780.45 -281.3 -780.4 -281.35 Q-779.8 -284.4 -777.6 -287.5 L-777.55 -287.55 -777.5 -287.7 -777.5 -287.75 -777.35 -287.9 -777.35 -287.95 -777.25 -288.05 -777.2 -288.05 -777.15 -288.15 -777.1 -288.2 -777.15 -288.1 -776.25 -289.25 -776.25 -289.3 -776.15 -289.4 -776.15 -289.45 -776.05 -289.55 -776.0 -289.6 -775.4 -290.15 -772.15 -293.55 -772.15 -293.6 -771.85 -293.9 -771.85 -293.95 -771.8 -293.95 -771.75 -293.95 -771.7 -294.0 -771.65 -294.05 Q-770.75 -295.0 -769.45 -295.35 L-769.4 -295.4 -769.35 -295.5 -769.4 -295.55 -769.3 -295.6 M-734.45 -305.1 L-734.45 -305.05 -734.4 -305.0 -734.45 -305.1 M-752.05 -255.8 L-752.05 -255.75 -752.0 -255.75 -752.05 -255.8 M-734.6 -226.4 L-734.65 -226.35 -734.75 -226.4 -734.75 -226.5 -734.75 -226.55 -734.65 -226.5 -734.6 -226.4 M-757.65 -236.25 L-757.7 -236.25 -757.75 -236.25 -757.55 -236.2 -757.65 -236.25 M-831.3 -309.6 L-831.35 -309.5 -831.4 -309.7 -831.3 -309.6 M-871.5 -303.7 Q-870.55 -306.3 -868.45 -308.35 -864.9 -311.8 -858.1 -313.3 L-836.45 -315.55 -831.35 -309.45 Q-837.0 -286.5 -842.1 -268.05 -846.95 -249.65 -847.9 -231.0 -848.6 -212.15 -852.7 -193.5 -856.6 -174.7 -861.4 -152.8 L-875.8 -148.85 -890.3 -149.5 Q-893.6 -149.5 -899.35 -152.4 -904.7 -155.05 -906.1 -159.95 L-906.15 -160.0 -914.8 -171.2 Q-915.85 -186.7 -921.6 -199.75 -927.7 -212.8 -936.35 -240.95 -945.1 -268.95 -964.15 -289.25 L-969.7 -299.5 Q-960.35 -305.9 -939.8 -306.25 L-927.2 -306.55 -910.45 -306.85 -900.95 -287.1 Q-896.25 -276.75 -893.05 -265.75 -890.0 -254.55 -886.65 -244.8 -883.4 -235.15 -883.95 -225.4 L-883.95 -225.3 -883.85 -225.25 -883.75 -225.3 -883.7 -225.35 -883.7 -225.4 -882.25 -232.0 -874.8 -286.45 Q-873.8 -290.8 -872.3 -300.75 L-871.75 -303.05 -871.55 -303.6 -871.5 -303.7 M-853.7 -233.0 L-853.6 -233.05 -853.55 -233.15 -853.4 -234.7 -853.4 -234.75 -852.7 -242.6 -851.55 -251.3 Q-850.05 -260.4 -847.7 -269.4 L-847.7 -269.5 -847.75 -269.65 -847.7 -269.65 Q-842.9 -286.8 -837.7 -307.9 L-837.7 -307.95 -837.75 -308.0 -838.9 -309.45 -838.95 -309.5 -839.05 -309.5 -856.8 -307.6 -857.4 -307.55 -858.35 -307.3 -861.6 -306.05 -861.65 -306.05 -861.7 -306.0 -864.1 -304.5 -864.05 -304.5 -864.1 -304.45 -864.2 -304.45 -864.45 -304.2 -864.6 -304.05 -864.55 -304.05 Q-865.6 -303.1 -866.1 -301.85 L-866.15 -301.6 -866.3 -301.25 -866.3 -301.15 -866.55 -299.95 -866.55 -299.9 Q-868.05 -290.3 -869.05 -285.75 L-876.5 -231.3 -876.5 -231.2 -876.55 -231.15 -876.55 -230.95 -876.5 -230.9 -876.5 -230.85 -876.55 -230.7 -876.55 -230.65 -877.6 -225.75 -877.75 -225.55 -877.75 -225.45 -877.7 -225.4 -878.0 -224.05 Q-878.5 -221.8 -880.4 -220.45 -882.35 -219.1 -884.6 -219.4 L-884.9 -219.45 -885.15 -219.55 -885.25 -219.55 Q-887.2 -220.0 -888.5 -221.6 L-888.5 -221.65 Q-889.9 -223.35 -889.85 -225.55 L-889.85 -225.7 Q-889.35 -234.35 -892.25 -242.9 -895.65 -252.8 -898.8 -264.15 L-898.8 -264.2 -898.85 -264.45 -898.9 -265.2 Q-901.9 -275.2 -906.25 -284.6 L-914.15 -301.0 -927.05 -300.7 -939.65 -300.4 -949.05 -299.8 Q-956.45 -298.95 -961.65 -296.95 L-959.3 -292.65 Q-939.8 -271.55 -930.8 -242.75 -922.4 -215.55 -916.55 -202.7 L-916.4 -202.45 -916.25 -202.2 -916.2 -202.1 Q-910.35 -189.0 -909.1 -173.55 L-901.45 -163.7 -901.4 -163.65 -901.2 -163.25 -901.25 -163.4 -901.0 -162.9 -900.95 -162.8 -900.45 -161.55 -900.45 -161.5 Q-899.55 -159.05 -896.7 -157.7 -892.5 -155.55 -890.15 -155.4 L-876.65 -154.75 -866.4 -157.65 -864.9 -164.35 -864.9 -164.45 -864.85 -164.45 -864.8 -164.4 -864.75 -164.35 -864.75 -164.3 -858.45 -193.95 -858.45 -194.0 -858.4 -194.25 -858.4 -194.3 -858.3 -194.85 Q-856.0 -205.25 -854.8 -215.7 L-854.35 -220.15 Q-853.85 -225.65 -853.65 -231.15 L-853.55 -232.85 -853.6 -232.9 -853.7 -232.95 -853.7 -233.0 M-876.6 -230.9 L-876.6 -230.85 -876.6 -230.95 -876.6 -230.9 M-877.35 -231.05 L-877.4 -231.15 -877.5 -231.15 -877.6 -231.15 -877.6 -231.05 -877.6 -230.9 -877.6 -230.8 -877.5 -230.75 -877.4 -230.8 -877.35 -230.9 -877.35 -231.05" fill="#d9c3a9" fill-rule="evenodd" stroke="none"/>
      <path d="M-757.7 -218.25 L-757.65 -218.25 -757.55 -218.25 -757.55 -218.2 -757.75 -218.5 -757.9 -218.8 -757.9 -218.85 -757.95 -218.9 -758.55 -219.75 -758.95 -220.25 Q-765.3 -226.35 -774.75 -230.5 L-774.9 -230.55 -775.0 -230.65 -775.05 -230.65 -775.15 -230.7 -775.35 -230.75 Q-784.6 -234.8 -793.9 -237.25 L-794.15 -237.35 -794.3 -237.4 Q-802.05 -239.5 -809.15 -244.55 L-809.25 -244.65 Q-811.8 -246.55 -813.9 -249.25 L-814.1 -249.6 -814.1 -249.55 Q-815.55 -251.55 -816.75 -253.9 L-816.85 -254.2 -816.9 -254.3 -816.9 -254.35 -816.95 -254.45 -817.0 -254.55 -817.05 -254.6 -817.8 -256.7 -817.8 -256.75 -817.85 -256.85 Q-817.35 -256.35 -816.35 -256.35 L-815.45 -256.5 -815.05 -256.55 -815.15 -254.6 Q-814.9 -253.25 -813.05 -253.25 -811.1 -253.25 -810.35 -254.45 L-809.45 -256.2 -809.45 -255.85 Q-810.3 -251.4 -810.3 -249.15 -810.3 -245.05 -806.85 -245.05 -804.0 -245.05 -800.5 -252.5 L-799.35 -247.3 Q-798.65 -243.95 -798.6 -242.2 L-798.35 -242.2 Q-798.25 -243.75 -797.4 -247.0 -796.6 -250.3 -796.45 -252.15 -796.15 -255.5 -796.4 -262.65 L-796.4 -264.55 Q-796.75 -266.35 -798.45 -266.35 -799.45 -266.35 -801.95 -260.4 -805.0 -253.0 -805.6 -252.05 L-805.6 -252.4 Q-804.7 -258.4 -800.65 -271.85 L-796.85 -284.65 Q-796.85 -285.2 -797.15 -285.75 -797.65 -286.75 -798.8 -286.75 L-799.0 -286.7 -798.3 -288.65 Q-796.95 -292.6 -796.95 -293.4 -796.95 -293.95 -797.15 -294.05 L-797.7 -294.1 Q-799.9 -291.05 -805.1 -278.85 L-808.4 -270.7 -810.15 -263.35 -810.05 -263.2 -810.25 -262.85 -810.25 -262.95 Q-808.0 -273.2 -806.0 -279.3 -803.05 -288.35 -798.7 -295.75 -801.5 -294.8 -803.3 -292.1 L-804.6 -289.55 Q-812.15 -289.55 -818.25 -259.4 L-819.25 -271.45 -817.15 -277.95 -817.15 -278.0 -817.15 -278.05 -817.1 -278.1 Q-814.15 -287.2 -810.7 -292.7 L-810.65 -292.8 -810.65 -292.85 Q-805.4 -300.25 -792.05 -309.3 L-791.95 -309.4 Q-787.5 -311.45 -782.9 -314.15 L-782.95 -314.1 -782.1 -314.55 -782.05 -314.55 -781.95 -314.6 -781.85 -314.7 -781.75 -314.75 Q-777.1 -317.85 -772.1 -320.1 -769.95 -321.1 -767.6 -321.5 L-767.55 -321.5 -767.25 -321.5 -760.8 -321.5 -758.6 -321.5 Q-754.4 -320.0 -750.85 -317.5 -748.6 -315.9 -746.5 -313.9 L-746.55 -313.9 -746.5 -313.85 -746.3 -313.55 -746.15 -313.4 Q-742.7 -309.85 -740.05 -305.2 L-740.05 -305.15 -740.0 -305.15 -740.0 -305.1 Q-734.85 -290.35 -732.35 -284.65 L-732.35 -284.55 Q-730.95 -280.6 -731.85 -275.75 L-734.15 -265.05 -745.95 -264.05 Q-743.65 -280.7 -751.65 -291.3 L-751.7 -291.35 -751.75 -291.45 -751.85 -291.55 -751.9 -291.6 -751.9 -291.55 Q-753.3 -293.3 -755.4 -293.7 L-757.7 -294.15 -757.75 -294.15 -759.1 -294.6 -764.05 -295.55 -762.4 -296.25 Q-761.4 -294.95 -760.35 -294.95 -758.6 -294.95 -757.85 -297.15 L-757.65 -295.2 Q-757.45 -293.85 -755.5 -293.85 -753.2 -293.85 -752.95 -298.0 L-753.0 -303.85 Q-752.0 -295.8 -749.55 -295.8 L-748.6 -296.05 -748.05 -296.45 -747.85 -296.0 Q-747.7 -294.4 -747.05 -292.65 L-745.35 -288.5 Q-743.75 -289.6 -743.75 -290.9 L-744.3 -300.1 Q-745.25 -308.7 -747.15 -308.7 -748.25 -308.7 -748.8 -307.7 L-749.25 -306.35 -749.25 -306.45 Q-749.0 -307.4 -749.65 -310.45 -750.35 -313.6 -751.35 -315.85 -754.25 -322.15 -756.15 -313.6 L-756.35 -313.6 Q-756.65 -314.3 -757.5 -314.8 L-758.85 -315.2 Q-760.75 -315.2 -761.4 -312.8 L-761.95 -309.75 -763.25 -309.8 -763.25 -310.0 Q-763.0 -311.25 -764.05 -312.65 -765.05 -314.1 -766.35 -314.1 -767.85 -314.1 -773.75 -295.9 L-773.85 -295.85 -774.85 -295.1 -774.9 -295.0 -775.05 -294.9 -775.35 -294.6 -775.35 -294.65 -778.45 -291.3 -779.05 -290.8 -778.95 -290.85 -779.0 -290.8 -779.05 -290.8 -779.1 -290.8 -779.1 -290.7 -779.15 -290.6 -779.15 -290.65 -779.25 -290.45 -779.25 -290.5 -780.15 -289.35 -780.05 -289.4 -780.1 -289.35 -780.15 -289.35 -780.2 -289.35 -780.3 -289.15 -780.3 -289.2 -780.45 -289.05 -780.55 -288.8 Q-782.65 -285.75 -783.3 -282.9 L-783.3 -282.65 -783.65 -281.15 -783.65 -281.1 -783.7 -280.95 -783.65 -280.75 -784.4 -277.0 -784.45 -276.85 -784.5 -276.65 -784.5 -276.6 -786.1 -269.2 -786.1 -268.95 -786.15 -268.8 -786.15 -268.75 -786.15 -268.6 -786.2 -268.4 -786.2 -268.35 Q-787.7 -255.1 -778.65 -247.0 L-778.6 -247.0 Q-772.45 -239.5 -759.1 -235.5 L-759.15 -235.5 -758.25 -235.15 -758.15 -235.15 -758.1 -235.1 -753.25 -232.95 Q-753.65 -232.5 -753.65 -231.7 L-752.15 -223.85 Q-750.45 -216.1 -749.15 -216.1 L-747.45 -215.8 Q-746.15 -215.65 -744.6 -216.4 -748.15 -219.45 -749.15 -224.5 L-744.85 -219.45 -742.45 -216.4 Q-741.65 -216.4 -741.2 -217.6 -740.85 -218.5 -740.85 -219.6 -740.85 -220.05 -742.8 -223.95 -744.95 -228.2 -745.85 -228.2 L-748.05 -228.4 -749.55 -231.2 -749.6 -231.3 -746.9 -230.05 -743.9 -226.55 -743.85 -226.5 -743.85 -226.55 -743.55 -226.2 -743.55 -226.1 -740.35 -221.25 -740.35 -221.3 -740.25 -221.1 -740.1 -220.85 Q-738.95 -218.95 -737.95 -216.8 L-737.35 -199.95 Q-741.6 -184.35 -747.95 -181.0 L-748.1 -181.0 -748.2 -181.0 Q-749.55 -180.5 -750.5 -179.4 -749.6 -181.45 -749.6 -183.9 L-749.6 -184.45 -749.8 -184.55 -750.45 -184.45 Q-750.35 -183.75 -751.6 -181.25 -752.85 -178.7 -752.85 -177.8 L-752.75 -176.85 Q-754.1 -175.85 -755.75 -175.4 L-756.0 -175.35 -763.65 -173.35 -764.6 -173.15 -764.7 -173.1 -764.8 -173.1 Q-767.75 -172.1 -771.55 -171.15 L-771.75 -171.15 -771.95 -171.1 -772.25 -171.05 -772.3 -171.05 -772.5 -171.0 Q-776.1 -170.05 -780.0 -170.0 -787.55 -169.95 -794.0 -171.55 L-787.4 -177.3 -787.5 -177.0 Q-788.0 -175.7 -787.85 -174.55 -787.6 -172.9 -785.75 -172.9 -784.55 -172.9 -782.0 -177.45 L-780.75 -179.85 Q-777.0 -179.65 -772.5 -181.0 -762.8 -180.65 -757.35 -186.05 L-757.15 -186.15 -757.15 -186.2 Q-751.4 -191.4 -750.45 -202.7 L-750.45 -202.95 -750.45 -203.0 -750.45 -203.1 -750.45 -203.2 -750.45 -203.25 -750.45 -203.3 -750.6 -204.8 -750.65 -204.95 -750.65 -205.05 -750.7 -205.15 -750.7 -205.2 -750.75 -205.35 -753.85 -213.85 -754.1 -214.3 -754.3 -214.65 -754.3 -214.7 -754.95 -215.6 -755.35 -216.05 -757.65 -218.15 -757.7 -218.25 M-815.05 -173.0 L-815.05 -172.95 -817.5 -162.45 -828.35 -160.95 -822.2 -196.6 -811.7 -198.2 -804.5 -193.8 -804.5 -193.85 -804.35 -193.7 -804.3 -193.7 -801.45 -191.5 Q-804.25 -190.45 -808.7 -187.7 -813.3 -184.85 -817.1 -181.65 -820.9 -178.4 -820.9 -177.35 L-820.75 -176.3 Q-820.35 -175.35 -819.0 -175.35 L-817.75 -175.8 -816.45 -176.4 -816.45 -176.05 -816.55 -175.9 Q-816.8 -175.2 -816.55 -174.35 -816.2 -173.3 -815.05 -173.0 M-790.1 -248.5 Q-790.1 -257.1 -791.85 -253.2 -793.65 -249.3 -793.65 -245.2 L-793.5 -243.35 -792.9 -243.05 -792.1 -242.9 Q-791.6 -242.9 -790.4 -244.85 -789.3 -246.65 -789.3 -247.1 -789.3 -247.55 -789.7 -247.8 -790.1 -248.1 -790.1 -248.5 M-757.65 -236.25 L-757.55 -236.2 -757.75 -236.25 -757.7 -236.25 -757.65 -236.25 M-741.75 -198.05 Q-743.05 -201.05 -743.55 -201.45 L-744.1 -201.35 -744.7 -194.65 -744.95 -190.15 -744.7 -188.65 -744.3 -187.25 Q-743.35 -189.6 -741.7 -192.05 -740.45 -193.9 -740.45 -194.45 -740.45 -195.1 -741.75 -198.05 M-876.5 -230.9 L-876.45 -230.9 -876.35 -230.95 -876.3 -231.0 -876.3 -231.05 -876.3 -231.1 -876.25 -231.2 -876.25 -231.25 -868.8 -285.7 Q-867.8 -290.25 -866.3 -299.85 L-866.3 -299.9 -866.05 -301.1 -866.05 -301.15 -866.05 -301.2 -865.95 -301.5 -865.9 -301.6 -865.9 -301.65 -865.85 -301.7 Q-865.4 -302.9 -864.4 -303.85 L-864.25 -304.0 -865.2 -302.4 -865.25 -302.15 -865.4 -301.8 -865.4 -301.7 -865.65 -300.55 -867.1 -291.75 -867.55 -289.2 -867.8 -288.1 -868.0 -287.1 -868.05 -286.95 -872.8 -252.15 -872.8 -252.05 -872.7 -252.0 -872.75 -251.75 -872.8 -251.75 -872.85 -251.65 -875.2 -234.75 -875.2 -234.7 -875.25 -234.5 -875.25 -234.45 -875.3 -234.45 -875.35 -234.2 -875.35 -234.15 -876.7 -227.8 Q-877.0 -226.65 -877.6 -225.75 L-876.55 -230.65 -876.55 -230.7 -876.5 -230.85 -876.5 -230.9 M-866.9 -291.6 L-866.85 -291.7 -865.4 -300.5 -865.15 -301.65 -865.15 -301.7 -865.15 -301.75 -865.05 -302.05 -865.0 -302.15 -865.0 -302.2 -864.95 -302.25 Q-864.55 -303.4 -863.6 -304.3 L-863.45 -304.45 -863.2 -304.7 -863.3 -304.65 -863.25 -304.7 -863.15 -304.75 -861.6 -305.8 -861.55 -305.85 -861.5 -305.85 -858.25 -307.05 -858.15 -307.1 -856.8 -307.35 -856.75 -307.35 -841.7 -308.95 Q-844.55 -305.1 -848.75 -297.75 L-848.15 -300.85 Q-847.6 -303.8 -847.6 -304.55 L-847.8 -305.65 Q-848.2 -306.6 -849.2 -306.6 -852.45 -306.6 -855.65 -291.45 L-855.55 -290.5 -855.45 -290.0 Q-854.95 -289.55 -854.05 -289.55 -852.75 -289.55 -852.45 -290.25 L-852.1 -291.7 Q-851.25 -290.85 -849.95 -290.85 -849.2 -290.85 -842.95 -300.85 L-838.3 -308.3 -838.0 -307.9 Q-843.2 -286.85 -847.95 -269.7 L-847.95 -269.75 -847.95 -269.45 Q-850.35 -260.45 -851.8 -251.35 L-852.95 -242.65 -853.65 -234.75 -853.8 -233.15 -853.8 -233.05 -853.95 -232.9 Q-855.75 -230.9 -856.3 -228.7 -856.6 -227.5 -857.6 -224.95 L-858.8 -221.6 -858.8 -223.5 Q-857.35 -232.6 -860.0 -232.6 -860.3 -232.6 -864.05 -196.1 -864.05 -193.1 -863.5 -189.5 L-862.95 -189.2 -862.25 -189.05 Q-862.1 -189.05 -859.1 -198.95 -856.05 -208.95 -855.9 -210.05 L-855.3 -213.6 Q-856.5 -204.25 -858.55 -194.95 L-858.65 -194.35 -858.7 -194.0 -865.0 -164.45 -864.9 -164.45 -864.9 -164.35 -875.35 -161.35 -888.25 -162.0 Q-890.55 -162.15 -894.55 -164.2 -897.3 -165.5 -898.15 -167.85 L-898.15 -167.9 -898.65 -169.1 -898.65 -169.2 -898.9 -169.65 -898.85 -169.5 -899.05 -169.9 -899.1 -169.95 -906.45 -179.4 Q-907.65 -194.2 -913.25 -206.75 L-913.3 -206.85 -913.45 -207.1 -913.6 -207.35 Q-915.5 -211.5 -917.6 -217.15 -916.5 -218.25 -916.45 -220.95 -916.4 -227.1 -915.95 -227.85 L-912.1 -234.1 Q-910.4 -237.35 -910.4 -239.9 -910.4 -242.95 -913.9 -249.9 -917.3 -256.75 -919.55 -258.4 -925.65 -262.85 -925.8 -267.6 -926.0 -271.05 -926.85 -272.45 -928.8 -275.5 -934.7 -276.3 L-941.05 -276.3 -941.25 -276.3 Q-947.1 -285.55 -954.55 -293.6 L-956.8 -297.7 Q-953.4 -299.0 -949.05 -299.8 L-939.65 -300.4 -927.05 -300.7 -914.15 -301.0 -906.25 -284.6 Q-901.9 -275.2 -898.9 -265.2 L-898.85 -264.45 -898.8 -264.2 -898.8 -264.15 Q-895.65 -252.8 -892.25 -242.9 -889.35 -234.35 -889.85 -225.7 L-889.85 -225.55 Q-889.9 -223.35 -888.5 -221.65 L-888.5 -221.6 Q-887.2 -220.0 -885.25 -219.55 L-885.15 -219.55 -884.9 -219.45 -884.6 -219.4 Q-882.35 -219.1 -880.4 -220.45 -878.5 -221.8 -878.0 -224.05 L-877.7 -225.4 -877.6 -225.35 -877.55 -225.4 Q-876.8 -226.45 -876.45 -227.75 L-875.1 -234.1 -875.1 -234.2 -875.1 -234.25 -875.05 -234.3 -875.0 -234.4 -875.0 -234.5 -875.0 -234.55 -874.95 -234.65 -874.95 -234.7 -874.95 -234.75 -872.7 -251.0 Q-872.1 -245.8 -870.1 -245.8 -868.3 -245.8 -868.0 -247.3 -867.85 -248.1 -867.85 -249.35 L-866.0 -250.7 Q-864.85 -251.4 -864.7 -251.85 -863.8 -254.15 -862.8 -259.15 L-862.65 -258.65 -862.9 -255.5 Q-862.8 -253.15 -860.75 -253.15 -859.35 -253.15 -859.0 -255.85 -858.8 -257.25 -858.9 -258.8 L-859.3 -267.0 Q-860.05 -275.1 -861.5 -275.1 -863.6 -275.1 -864.3 -272.9 L-864.85 -269.3 -864.9 -269.3 -864.9 -276.55 Q-864.9 -281.2 -865.45 -283.85 L-865.75 -287.8 Q-865.9 -290.15 -866.6 -291.2 L-866.9 -291.6 M-863.95 -304.3 L-864.0 -304.25 -864.1 -304.2 -864.05 -304.25 -863.95 -304.3 M-903.0 -231.75 Q-903.0 -229.95 -903.5 -226.35 -903.8 -224.0 -903.8 -218.3 L-903.45 -214.6 Q-902.8 -211.05 -901.45 -211.05 -901.05 -211.05 -900.45 -211.5 L-899.85 -212.0 Q-895.95 -212.0 -895.95 -214.2 L-896.3 -216.3 Q-896.5 -217.7 -896.15 -218.6 L-896.05 -218.6 Q-895.2 -216.05 -894.2 -210.55 L-892.5 -201.1 Q-890.25 -189.9 -886.9 -189.9 -886.4 -189.9 -886.1 -190.15 L-885.85 -190.4 -885.7 -191.1 -890.65 -211.45 Q-896.15 -231.7 -898.85 -231.7 L-903.0 -231.75 M-876.35 -230.9 L-876.45 -230.8 -876.35 -230.8 -876.35 -230.9 M-881.1 -202.45 L-881.1 -201.15 Q-880.9 -199.85 -879.8 -199.85 -878.75 -199.85 -878.5 -201.0 L-878.5 -202.4 Q-878.5 -206.3 -879.8 -206.15 -881.1 -206.0 -881.1 -202.45 M-880.0 -179.25 Q-882.35 -178.4 -883.55 -175.9 -884.65 -173.7 -884.3 -171.95 L-883.9 -171.85 Q-879.55 -177.55 -879.55 -178.4 L-879.65 -179.05 -880.0 -179.25 M-870.55 -173.35 Q-869.55 -177.2 -869.55 -178.25 -869.55 -182.05 -871.65 -178.1 -873.75 -174.15 -873.75 -170.65 L-873.65 -169.9 Q-873.4 -169.15 -872.35 -169.15 -871.7 -169.15 -870.55 -173.35 M-793.2 -184.85 L-791.25 -183.65 -791.8 -183.95 -794.35 -182.4 -798.6 -179.25 -798.45 -179.45 -793.7 -184.3 -793.2 -184.85" fill="#c7bbaa" fill-rule="evenodd" stroke="none"/>
      <path d="M-824.35 -257.9 L-829.3 -289.35 Q-829.05 -290.8 -829.35 -291.65 L-830.3 -303.6 Q-827.0 -315.5 -823.05 -321.75 -818.85 -328.05 -807.55 -335.75 L-799.9 -339.75 Q-796.0 -342.3 -791.9 -344.15 -788.1 -345.9 -783.75 -345.9 L-775.9 -345.9 Q-771.3 -344.25 -767.55 -341.4 L-766.7 -340.75 -743.3 -322.65 Q-748.0 -325.95 -753.55 -327.95 L-757.2 -327.95 -763.9 -327.95 Q-769.7 -327.95 -774.7 -325.65 -780.1 -323.2 -785.25 -319.85 -790.45 -316.75 -795.4 -314.5 -810.3 -304.35 -815.9 -296.05 -819.7 -290.0 -823.0 -280.0 L-825.45 -272.0 -824.3 -257.9 -824.35 -257.9 M-757.75 -218.2 L-757.7 -218.25 -757.65 -218.15 -757.75 -218.2 M-804.3 -170.45 L-804.3 -170.5 -804.35 -170.6 -804.4 -170.65 -804.5 -170.7 -804.55 -170.75 Q-806.1 -171.7 -807.9 -171.65 L-808.15 -171.65 -808.35 -171.65 -808.4 -171.65 Q-810.2 -171.5 -811.6 -170.35 L-811.8 -170.15 -812.0 -170.1 -811.95 -170.1 Q-813.35 -168.8 -813.75 -166.9 L-816.35 -155.9 -829.45 -154.1 -828.3 -160.7 -817.35 -162.2 -817.3 -162.25 -817.25 -162.3 -814.8 -172.9 Q-814.45 -174.75 -813.15 -175.9 L-813.05 -176.0 -813.0 -176.05 -812.95 -176.05 -812.9 -176.1 -812.9 -176.2 -812.85 -176.1 -812.8 -176.15 Q-811.5 -177.2 -809.9 -177.3 L-809.85 -177.3 -809.65 -177.3 -809.4 -177.3 Q-807.8 -177.4 -806.35 -176.5 L-806.4 -176.5 -806.35 -176.45 -806.25 -176.4 -806.2 -176.4 Q-800.7 -173.0 -794.1 -171.3 -787.6 -169.65 -780.0 -169.75 -776.0 -169.75 -772.3 -170.75 L-772.25 -170.8 -772.2 -170.8 -771.9 -170.85 -771.8 -170.9 -771.75 -170.9 -771.7 -170.9 -771.6 -170.95 -771.5 -170.9 Q-767.65 -171.8 -764.7 -172.85 L-764.65 -172.85 -764.55 -172.9 -764.5 -172.9 -763.6 -173.1 -755.85 -175.1 -755.8 -175.15 -755.75 -175.15 -755.7 -175.15 Q-754.0 -175.65 -752.6 -176.65 L-751.1 -178.15 -751.05 -178.2 -751.0 -178.45 -750.95 -178.45 -750.55 -178.95 Q-749.55 -180.25 -748.1 -180.75 L-747.95 -180.75 -747.9 -180.8 Q-741.4 -184.1 -737.1 -199.9 L-737.7 -216.9 -739.9 -221.0 -739.9 -221.05 -740.05 -221.2 -740.15 -221.4 -743.3 -226.25 -743.35 -226.3 -743.35 -226.35 -743.65 -226.65 -743.65 -226.7 -743.7 -226.75 -743.7 -226.7 -745.9 -229.4 Q-742.5 -226.6 -739.55 -222.75 L-739.5 -222.7 -739.5 -222.75 -739.2 -222.4 -739.2 -222.3 Q-737.45 -219.95 -735.85 -217.2 L-735.85 -217.25 -735.75 -217.05 -735.6 -216.8 -733.35 -212.55 -732.75 -195.0 Q-737.15 -178.7 -743.8 -175.25 L-743.95 -175.25 -744.05 -175.25 Q-746.0 -174.55 -747.1 -172.75 L-747.1 -172.8 -747.15 -172.65 -747.3 -172.4 Q-749.1 -170.1 -751.95 -169.4 L-752.2 -169.35 -760.15 -167.25 -761.15 -167.05 -761.25 -167.0 -761.35 -167.0 Q-764.45 -165.95 -768.4 -164.95 L-768.6 -164.95 -768.8 -164.9 -769.15 -164.85 -769.2 -164.85 -769.4 -164.8 -769.4 -164.7 -769.4 -164.65 Q-773.15 -163.65 -777.2 -163.65 -792.9 -163.5 -804.3 -170.45 M-769.4 -295.55 L-769.4 -295.6 -769.5 -295.6 -769.55 -295.6 -769.65 -295.55 Q-770.9 -295.15 -771.85 -294.25 L-771.85 -294.2 -771.95 -294.2 -772.0 -294.15 -772.05 -294.05 -772.35 -293.7 -772.35 -293.75 -775.55 -290.35 -776.2 -289.75 -776.2 -289.8 -776.25 -289.75 -776.35 -289.55 -776.35 -289.6 -776.45 -289.4 -777.35 -288.25 -777.55 -288.05 -777.55 -288.1 -777.7 -287.85 -777.7 -287.9 -777.8 -287.65 Q-780.0 -284.5 -780.65 -281.5 L-780.65 -281.25 -781.0 -279.7 -781.0 -279.65 -781.05 -279.5 -781.0 -279.35 -781.8 -275.35 -781.8 -275.3 -781.85 -275.25 -781.85 -275.2 -781.9 -275.0 -781.9 -274.95 -783.55 -267.2 -783.55 -267.25 -783.55 -266.9 -783.65 -266.8 -783.65 -266.75 -783.65 -266.6 -783.7 -266.4 -783.7 -266.35 Q-784.9 -255.7 -779.6 -248.25 -787.4 -256.05 -785.95 -268.3 L-785.95 -268.4 -785.95 -268.45 -785.9 -268.55 -785.9 -268.75 -785.85 -268.95 -785.85 -269.15 -784.25 -276.55 -784.25 -276.65 -784.25 -276.8 -784.2 -276.85 -784.15 -276.95 -783.4 -280.75 -783.4 -280.9 -783.45 -280.95 -783.4 -281.0 -783.4 -281.1 -783.05 -282.6 -783.1 -282.7 -783.05 -282.75 Q-782.45 -285.65 -780.35 -288.65 L-780.3 -288.7 -780.25 -288.85 -780.1 -289.0 -780.1 -289.05 -780.0 -289.15 -780.1 -289.1 -780.05 -289.15 -780.0 -289.2 -779.95 -289.2 -779.05 -290.3 -779.05 -290.35 -778.95 -290.45 -778.95 -290.5 -778.9 -290.6 -778.85 -290.65 -778.3 -291.15 -778.25 -291.15 -775.15 -294.45 -775.15 -294.5 -774.9 -294.75 -774.85 -294.75 -774.8 -294.8 -774.7 -294.85 -774.65 -294.9 -773.7 -295.65 -772.55 -296.15 -772.5 -296.2 -772.3 -296.25 -772.2 -296.3 -772.05 -296.3 -772.0 -296.3 -770.2 -296.45 -770.15 -296.45 -770.05 -296.45 -769.95 -296.4 -769.9 -296.4 -769.85 -296.4 -769.75 -296.35 -769.7 -296.35 -767.5 -295.95 -768.95 -295.75 -769.1 -295.75 -769.25 -295.7 -769.3 -295.7 -769.3 -295.6 -769.4 -295.55 M-765.4 -321.75 L-763.9 -321.8 -757.2 -321.8 -754.9 -321.8 Q-750.5 -320.2 -746.8 -317.6 -744.45 -315.95 -742.25 -313.85 L-742.3 -313.85 -742.25 -313.8 -742.05 -313.5 -741.9 -313.35 Q-738.3 -309.65 -735.55 -304.8 L-735.55 -304.75 -735.5 -304.7 -735.5 -304.65 Q-730.1 -289.3 -727.5 -283.35 L-727.5 -283.25 Q-726.05 -279.1 -727.0 -274.05 L-729.4 -262.9 -746.4 -261.55 -746.0 -263.8 -734.05 -264.8 -733.95 -264.85 -733.9 -264.9 -731.6 -275.7 Q-730.65 -280.6 -732.1 -284.65 L-732.1 -284.75 Q-734.65 -290.45 -739.75 -305.2 L-739.85 -305.35 -739.85 -305.3 Q-742.5 -309.95 -745.95 -313.55 L-745.95 -313.6 -746.1 -313.75 -746.25 -314.0 -746.3 -314.05 -746.35 -314.1 Q-748.4 -316.1 -750.7 -317.7 -754.3 -320.2 -758.5 -321.75 L-758.55 -321.75 -760.8 -321.75 -765.4 -321.75 M-777.35 -288.2 L-777.4 -288.15 -777.35 -288.2 M-775.35 -230.5 L-775.25 -230.45 -775.15 -230.4 -775.1 -230.35 -775.0 -230.3 -774.85 -230.3 -774.85 -230.25 Q-765.4 -226.15 -759.1 -220.05 L-759.15 -220.05 -758.75 -219.6 -758.15 -218.85 -758.15 -218.8 -758.15 -218.7 Q-763.95 -223.45 -771.75 -226.85 L-771.9 -226.9 -772.0 -227.0 -772.05 -227.0 -772.15 -227.05 -772.35 -227.1 Q-782.05 -231.35 -791.75 -233.9 L-792.0 -234.0 -792.15 -234.05 Q-800.2 -236.25 -807.65 -241.5 L-807.75 -241.6 Q-810.4 -243.6 -812.6 -246.4 L-812.8 -246.75 -815.45 -251.15 -814.3 -249.4 -814.1 -249.15 -814.1 -249.1 Q-812.0 -246.35 -809.4 -244.45 L-809.45 -244.45 -809.35 -244.35 -809.3 -244.35 Q-802.15 -239.3 -794.35 -237.15 L-794.25 -237.1 -794.1 -237.05 -794.0 -237.0 Q-784.75 -234.55 -775.45 -230.5 L-775.4 -230.5 -775.35 -230.5 M-831.25 -309.6 L-831.3 -309.6 -831.4 -309.7 -831.45 -309.9 -836.3 -315.75 -836.35 -315.8 -836.4 -315.8 -858.15 -313.55 Q-865.0 -312.0 -868.6 -308.55 -870.15 -307.05 -871.1 -305.25 L-865.7 -325.3 -865.75 -325.4 -865.8 -325.45 -864.25 -329.55 Q-861.6 -333.45 -855.0 -334.95 L-838.55 -336.65 -834.65 -331.95 -831.25 -309.6 M-864.9 -164.35 L-866.4 -157.65 -876.65 -154.75 -890.15 -155.4 Q-892.5 -155.55 -896.7 -157.7 -899.55 -159.05 -900.45 -161.5 L-900.45 -161.55 -900.95 -162.8 -901.0 -162.9 -901.25 -163.4 -901.2 -163.25 -901.4 -163.65 -901.45 -163.7 -909.1 -173.55 Q-910.35 -189.0 -916.2 -202.1 L-916.25 -202.2 -916.4 -202.45 -916.55 -202.7 Q-922.4 -215.55 -930.8 -242.75 -939.8 -271.55 -959.3 -292.65 L-961.65 -296.95 Q-956.45 -298.95 -949.05 -299.8 -953.4 -299.0 -956.8 -297.7 L-954.55 -293.6 Q-947.1 -285.55 -941.25 -276.3 L-938.0 -270.9 Q-931.45 -259.2 -927.25 -245.75 -923.65 -234.15 -920.55 -225.25 L-917.75 -217.55 -917.6 -217.15 Q-915.5 -211.5 -913.6 -207.35 L-913.45 -207.1 -913.3 -206.85 -913.25 -206.75 Q-907.65 -194.2 -906.45 -179.4 L-899.1 -169.95 -899.05 -169.9 -898.85 -169.5 -898.9 -169.65 -898.65 -169.2 -898.65 -169.1 -898.15 -167.9 -898.15 -167.85 Q-897.3 -165.5 -894.55 -164.2 -890.55 -162.15 -888.25 -162.0 L-875.35 -161.35 -864.9 -164.35 M-894.85 -329.75 L-910.45 -307.1 -927.2 -306.8 -939.8 -306.5 Q-958.75 -306.15 -968.2 -300.7 L-939.4 -324.3 Q-932.4 -329.2 -916.75 -329.45 L-894.85 -329.9 -894.85 -329.75" fill="#a68e8e" fill-rule="evenodd" stroke="none"/>
      <path d="M-817.85 -256.85 L-818.05 -257.4 -818.25 -259.4 Q-812.15 -289.55 -804.6 -289.55 L-803.3 -292.1 Q-801.5 -294.8 -798.7 -295.75 -803.05 -288.35 -806.0 -279.3 -808.0 -273.2 -810.25 -262.95 L-810.25 -262.85 -810.05 -263.2 -810.15 -263.35 -808.4 -270.7 -805.1 -278.85 Q-799.9 -291.05 -797.7 -294.1 L-797.15 -294.05 Q-796.95 -293.95 -796.95 -293.4 -796.95 -292.6 -798.3 -288.65 L-799.0 -286.7 -798.8 -286.75 Q-797.65 -286.75 -797.15 -285.75 -796.85 -285.2 -796.85 -284.65 L-800.65 -271.85 Q-804.7 -258.4 -805.6 -252.4 L-805.6 -252.05 Q-805.0 -253.0 -801.95 -260.4 -799.45 -266.35 -798.45 -266.35 -796.75 -266.35 -796.4 -264.55 L-796.4 -262.65 Q-796.15 -255.5 -796.45 -252.15 -796.6 -250.3 -797.4 -247.0 -798.25 -243.75 -798.35 -242.2 L-798.6 -242.2 Q-798.65 -243.95 -799.35 -247.3 L-800.5 -252.5 Q-804.0 -245.05 -806.85 -245.05 -810.3 -245.05 -810.3 -249.15 -810.3 -251.4 -809.45 -255.85 L-809.45 -256.2 -810.35 -254.45 Q-811.1 -253.25 -813.05 -253.25 -814.9 -253.25 -815.15 -254.6 L-815.05 -256.55 -815.45 -256.5 -816.35 -256.35 Q-817.35 -256.35 -817.85 -256.85 M-764.05 -295.55 L-769.6 -296.6 -769.65 -296.6 -769.7 -296.65 -769.8 -296.65 -770.05 -296.7 -770.15 -296.7 -770.2 -296.7 -772.05 -296.55 -772.2 -296.55 -772.35 -296.5 -772.6 -296.45 -772.75 -296.4 -772.75 -296.35 -773.75 -295.9 Q-767.85 -314.1 -766.35 -314.1 -765.05 -314.1 -764.05 -312.65 -763.0 -311.25 -763.25 -310.0 L-763.25 -309.8 -761.95 -309.75 -761.4 -312.8 Q-760.75 -315.2 -758.85 -315.2 L-757.5 -314.8 Q-756.65 -314.3 -756.35 -313.6 L-756.15 -313.6 Q-754.25 -322.15 -751.35 -315.85 -750.35 -313.6 -749.65 -310.45 -749.0 -307.4 -749.25 -306.45 L-749.25 -306.35 -748.8 -307.7 Q-748.25 -308.7 -747.15 -308.7 -745.25 -308.7 -744.3 -300.1 L-743.75 -290.9 Q-743.75 -289.6 -745.35 -288.5 L-747.05 -292.65 Q-747.7 -294.4 -747.85 -296.0 L-748.05 -296.45 -748.6 -296.05 -749.55 -295.8 Q-752.0 -295.8 -753.0 -303.85 L-752.95 -298.0 Q-753.2 -293.85 -755.5 -293.85 -757.45 -293.85 -757.65 -295.2 L-757.85 -297.15 Q-758.6 -294.95 -760.35 -294.95 -761.4 -294.95 -762.4 -296.25 L-764.05 -295.55 M-753.25 -232.95 L-749.6 -231.3 -749.55 -231.2 -748.05 -228.4 -745.85 -228.2 Q-744.95 -228.2 -742.8 -223.95 -740.85 -220.05 -740.85 -219.6 -740.85 -218.5 -741.2 -217.6 -741.65 -216.4 -742.45 -216.4 L-744.85 -219.45 -749.15 -224.5 Q-748.15 -219.45 -744.6 -216.4 -746.15 -215.65 -747.45 -215.8 L-749.15 -216.1 Q-750.45 -216.1 -752.15 -223.85 L-753.65 -231.7 Q-753.65 -232.5 -753.25 -232.95 M-750.5 -179.4 L-750.75 -179.1 -750.75 -179.15 -751.1 -178.65 -751.2 -178.5 -751.3 -178.3 Q-751.95 -177.5 -752.75 -176.85 L-752.85 -177.8 Q-752.85 -178.7 -751.6 -181.25 -750.35 -183.75 -750.45 -184.45 L-749.8 -184.55 -749.6 -184.45 -749.6 -183.9 Q-749.6 -181.45 -750.5 -179.4 M-794.0 -171.55 L-794.05 -171.55 Q-800.6 -173.2 -806.05 -176.6 L-806.15 -176.65 -806.2 -176.7 Q-807.7 -177.6 -809.4 -177.55 L-809.65 -177.55 -809.85 -177.55 -809.9 -177.55 Q-811.6 -177.45 -812.95 -176.35 L-813.15 -176.15 -813.35 -176.1 -813.3 -176.1 Q-814.65 -174.9 -815.05 -173.0 -816.2 -173.3 -816.55 -174.35 -816.8 -175.2 -816.55 -175.9 L-816.45 -176.05 -816.45 -176.4 -817.75 -175.8 -819.0 -175.35 Q-820.35 -175.35 -820.75 -176.3 L-820.9 -177.35 Q-820.9 -178.4 -817.1 -181.65 -813.3 -184.85 -808.7 -187.7 -804.25 -190.45 -801.45 -191.5 L-797.1 -188.0 -797.05 -187.95 -796.55 -187.4 -796.5 -187.35 -796.45 -187.3 -796.4 -187.2 Q-794.85 -185.95 -793.2 -184.85 L-793.7 -184.3 -798.45 -179.45 -798.6 -179.25 -794.35 -182.4 -791.8 -183.95 -791.25 -183.65 -787.1 -181.6 -786.85 -181.45 -786.7 -181.35 -786.7 -181.4 -786.65 -181.35 -786.55 -181.3 -785.9 -181.0 Q-783.55 -180.0 -780.75 -179.85 L-782.0 -177.45 Q-784.55 -172.9 -785.75 -172.9 -787.6 -172.9 -787.85 -174.55 -788.0 -175.7 -787.5 -177.0 L-787.4 -177.3 -794.0 -171.55 M-790.1 -248.5 Q-790.1 -248.1 -789.7 -247.8 -789.3 -247.55 -789.3 -247.1 -789.3 -246.65 -790.4 -244.85 -791.6 -242.9 -792.1 -242.9 L-792.9 -243.05 -793.5 -243.35 -793.65 -245.2 Q-793.65 -249.3 -791.85 -253.2 -790.1 -257.1 -790.1 -248.5 M-741.75 -198.05 Q-740.45 -195.1 -740.45 -194.45 -740.45 -193.9 -741.7 -192.05 -743.35 -189.6 -744.3 -187.25 L-744.7 -188.65 -744.95 -190.15 -744.7 -194.65 -744.1 -201.35 -743.55 -201.45 Q-743.05 -201.05 -741.75 -198.05 M-872.7 -252.0 L-872.6 -252.05 -872.55 -252.1 -867.8 -286.9 -867.8 -286.95 -867.75 -287.0 -867.55 -288.05 -867.3 -289.15 -866.9 -291.6 -866.6 -291.2 Q-865.9 -290.15 -865.75 -287.8 L-865.45 -283.85 Q-864.9 -281.2 -864.9 -276.55 L-864.9 -269.3 -864.85 -269.3 -864.3 -272.9 Q-863.6 -275.1 -861.5 -275.1 -860.05 -275.1 -859.3 -267.0 L-858.9 -258.8 Q-858.8 -257.25 -859.0 -255.85 -859.35 -253.15 -860.75 -253.15 -862.8 -253.15 -862.9 -255.5 L-862.65 -258.65 -862.8 -259.15 Q-863.8 -254.15 -864.7 -251.85 -864.85 -251.4 -866.0 -250.7 L-867.85 -249.35 Q-867.85 -248.1 -868.0 -247.3 -868.3 -245.8 -870.1 -245.8 -872.1 -245.8 -872.7 -251.0 L-872.6 -251.6 -872.65 -251.7 -872.7 -251.75 -872.75 -251.75 -872.7 -252.0 M-841.7 -308.95 L-839.05 -309.25 -838.3 -308.3 -842.95 -300.85 Q-849.2 -290.85 -849.95 -290.85 -851.25 -290.85 -852.1 -291.7 L-852.45 -290.25 Q-852.75 -289.55 -854.05 -289.55 -854.95 -289.55 -855.45 -290.0 L-855.55 -290.5 -855.65 -291.45 Q-852.45 -306.6 -849.2 -306.6 -848.2 -306.6 -847.8 -305.65 L-847.6 -304.55 Q-847.6 -303.8 -848.15 -300.85 L-848.75 -297.75 Q-844.55 -305.1 -841.7 -308.95 M-853.8 -233.05 L-853.7 -233.0 -853.7 -232.95 -853.75 -232.95 -853.8 -232.85 -853.9 -231.15 -854.6 -220.15 -855.05 -215.75 -855.3 -213.6 -855.9 -210.05 Q-856.05 -208.95 -859.1 -198.95 -862.1 -189.05 -862.25 -189.05 L-862.95 -189.2 -863.5 -189.5 Q-864.05 -193.1 -864.05 -196.1 -860.3 -232.6 -860.0 -232.6 -857.35 -232.6 -858.8 -223.5 L-858.8 -221.6 -857.6 -224.95 Q-856.6 -227.5 -856.3 -228.7 -855.75 -230.9 -853.95 -232.9 L-853.8 -233.05 M-941.25 -276.3 L-941.05 -276.3 -934.7 -276.3 Q-928.8 -275.5 -926.85 -272.45 -926.0 -271.05 -925.8 -267.6 -925.65 -262.85 -919.55 -258.4 -917.3 -256.75 -913.9 -249.9 -910.4 -242.95 -910.4 -239.9 -910.4 -237.35 -912.1 -234.1 L-915.95 -227.85 Q-916.4 -227.1 -916.45 -220.95 -916.5 -218.25 -917.6 -217.15 L-917.75 -217.55 -920.55 -225.25 Q-923.65 -234.15 -927.25 -245.75 -931.45 -259.2 -938.0 -270.9 L-941.25 -276.3 M-903.0 -231.75 L-898.85 -231.7 Q-896.15 -231.7 -890.65 -211.45 L-885.7 -191.1 -885.85 -190.4 -886.1 -190.15 Q-886.4 -189.9 -886.9 -189.9 -890.25 -189.9 -892.5 -201.1 L-894.2 -210.55 Q-895.2 -216.05 -896.05 -218.6 L-896.15 -218.6 Q-896.5 -217.7 -896.3 -216.3 L-895.95 -214.2 Q-895.95 -212.0 -899.85 -212.0 L-900.45 -211.5 Q-901.05 -211.05 -901.45 -211.05 -902.8 -211.05 -903.45 -214.6 L-903.8 -218.3 Q-903.8 -224.0 -903.5 -226.35 -903.0 -229.95 -903.0 -231.75 M-881.1 -202.45 Q-881.1 -206.0 -879.8 -206.15 -878.5 -206.3 -878.5 -202.4 L-878.5 -201.0 Q-878.75 -199.85 -879.8 -199.85 -880.9 -199.85 -881.1 -201.15 L-881.1 -202.45 M-870.55 -173.35 Q-871.7 -169.15 -872.35 -169.15 -873.4 -169.15 -873.65 -169.9 L-873.75 -170.65 Q-873.75 -174.15 -871.65 -178.1 -869.55 -182.05 -869.55 -178.25 -869.55 -177.2 -870.55 -173.35 M-880.0 -179.25 L-879.65 -179.05 -879.55 -178.4 Q-879.55 -177.55 -883.9 -171.85 L-884.3 -171.95 Q-884.65 -173.7 -883.55 -175.9 -882.35 -178.4 -880.0 -179.25" fill="#c1b3a4" fill-rule="evenodd" stroke="none"/>
      <path d="M-767.0 -274.7 L-766.25 -273.5 -754.5 -254.7 -754.45 -254.65 -754.35 -254.65 -753.1 -254.75 -735.3 -227.25 Q-739.0 -231.9 -743.4 -235.15 L-756.05 -240.95 -756.6 -241.1 Q-779.25 -247.6 -777.6 -265.8 L-775.95 -273.65 -774.95 -278.8 -768.25 -275.7 -767.0 -274.7 M-766.6 -274.55 L-766.65 -274.6 -772.6 -284.2 -772.55 -284.25 -771.5 -285.6 -767.6 -289.7 -756.7 -287.6 Q-748.4 -276.1 -754.05 -256.3 L-754.45 -255.1 -766.05 -273.65 -766.6 -274.55 M-774.4 -221.15 Q-765.6 -217.35 -759.65 -211.7 L-756.55 -203.2 Q-757.15 -196.65 -759.7 -192.7 L-760.65 -191.4 Q-763.55 -188.05 -768.45 -187.3 -770.65 -187.05 -773.25 -187.2 L-773.3 -187.2 -775.1 -186.6 -777.2 -186.15 Q-781.25 -185.6 -784.15 -186.95 -788.75 -188.85 -792.4 -191.95 L-800.9 -198.8 -810.4 -204.55 -813.45 -221.0 Q-804.9 -216.85 -793.8 -216.95 -790.0 -216.95 -786.5 -217.9 -782.95 -218.7 -780.25 -219.65 L-774.45 -221.15 -774.4 -221.15 M-734.65 -226.5 L-734.75 -226.55 -734.7 -226.6 -734.65 -226.5 M-894.2 -329.1 L-894.1 -328.9 -887.4 -315.0 Q-884.9 -309.5 -882.95 -303.75 L-881.45 -298.85 Q-879.15 -290.35 -876.6 -283.0 L-875.85 -280.6 -875.85 -280.55 -882.5 -232.05 -883.65 -226.9 Q-883.35 -235.9 -886.4 -244.9 -889.7 -254.65 -892.8 -265.8 -895.95 -276.85 -900.7 -287.2 L-910.25 -306.95 -894.8 -329.45 -894.2 -329.1 M-822.7 -251.85 Q-820.6 -246.9 -817.85 -243.15 L-813.75 -221.15 -810.7 -204.6 -827.2 -202.15 -831.55 -250.5 -822.7 -251.85 M-827.4 -201.95 L-836.75 -148.15 -838.75 -208.9 -831.75 -249.7 -827.4 -202.0 -827.4 -201.95" fill="url(#gradient0)" fill-rule="evenodd" stroke="none"/>
      <path d="M-752.9 -254.9 L-734.55 -226.55 Q-732.35 -223.7 -730.35 -220.2 -728.65 -217.3 -727.1 -214.05 L-726.5 -194.3 Q-732.1 -172.7 -741.85 -169.3 -745.0 -164.6 -750.6 -163.3 L-759.3 -161.05 Q-762.85 -159.8 -767.6 -158.75 -772.2 -157.5 -777.2 -157.5 -794.95 -157.35 -807.75 -165.35 L-811.2 -150.35 -811.25 -150.3 -811.3 -150.25 -836.8 -146.75 -836.85 -146.75 -836.9 -146.8 -836.95 -146.8 -836.95 -146.85 -839.0 -208.95 -831.8 -250.65 -831.8 -250.7 -831.75 -250.75 -831.7 -250.75 -822.75 -252.1 -824.3 -256.2 -824.3 -256.25 -824.4 -257.8 -824.4 -257.85 -824.35 -257.9 -824.3 -257.9 -824.2 -257.9 -824.15 -257.8 -824.05 -256.3 -822.45 -252.05 Q-820.4 -247.1 -817.65 -243.3 L-817.6 -243.25 Q-814.8 -239.35 -811.25 -236.7 -802.8 -230.7 -793.7 -228.2 -784.15 -225.75 -774.65 -221.55 L-774.35 -221.4 Q-765.45 -217.55 -759.45 -211.85 L-759.4 -211.8 -756.3 -203.3 -756.3 -203.25 Q-756.9 -196.55 -759.5 -192.55 L-760.45 -191.25 Q-763.45 -187.85 -768.4 -187.05 -770.6 -186.8 -773.2 -186.95 L-775.0 -186.35 -777.15 -185.9 Q-781.25 -185.3 -784.25 -186.7 -788.85 -188.65 -792.55 -191.75 L-801.05 -198.6 -810.55 -204.35 -827.2 -201.85 -836.7 -147.05 -811.45 -150.5 -807.95 -165.55 -807.9 -165.65 -807.85 -165.65 -807.75 -165.65 Q-794.95 -157.55 -777.2 -157.75 -772.2 -157.8 -767.65 -159.0 -762.95 -160.1 -759.4 -161.3 L-759.35 -161.3 -750.65 -163.55 Q-745.1 -164.8 -742.05 -169.5 L-742.0 -169.55 Q-732.3 -172.9 -726.75 -194.35 L-727.35 -213.95 Q-728.85 -217.2 -730.55 -220.05 -732.55 -223.5 -734.75 -226.4 L-735.3 -227.25 -753.1 -254.75 -754.35 -254.65 -754.45 -254.65 -754.5 -254.7 -766.25 -273.5 -767.0 -274.7 -772.75 -283.95 Q-774.1 -282.0 -774.55 -280.05 L-774.8 -278.75 -774.85 -278.85 -774.9 -278.9 -775.0 -278.9 -775.05 -278.8 -774.8 -280.1 Q-774.3 -282.15 -772.85 -284.25 L-772.8 -284.3 -772.75 -284.45 -772.75 -284.4 -771.7 -285.75 -767.75 -289.95 -767.65 -289.95 -767.6 -289.95 -756.6 -287.85 -756.55 -287.8 Q-748.1 -276.25 -753.8 -256.25 L-754.2 -254.95 -753.05 -255.0 -753.0 -255.0 -752.95 -255.0 -752.95 -254.95 -752.9 -254.9 M-757.75 -218.2 L-757.75 -218.15 -757.75 -218.05 Q-763.7 -223.05 -771.85 -226.6 L-771.85 -226.65 -772.0 -226.65 -772.1 -226.7 -772.15 -226.75 -772.25 -226.8 -772.35 -226.85 -772.4 -226.85 -772.45 -226.85 Q-782.15 -231.1 -791.8 -233.65 L-791.85 -233.7 -792.1 -233.75 -792.2 -233.8 Q-800.3 -236.05 -807.8 -241.3 L-807.85 -241.3 -807.95 -241.4 -807.9 -241.4 Q-810.6 -243.4 -812.8 -246.25 L-812.8 -246.3 -813.0 -246.6 Q-815.3 -249.85 -817.1 -254.1 L-817.15 -254.15 -817.15 -254.2 -817.2 -254.25 -817.2 -254.35 -817.25 -254.4 -817.25 -254.45 -818.05 -256.65 -818.3 -257.3 -818.3 -257.35 -818.45 -258.95 -818.45 -259.0 -819.5 -271.5 -817.4 -278.05 -817.35 -278.2 Q-814.35 -287.3 -810.9 -292.8 L-810.85 -293.05 -810.85 -293.0 Q-805.6 -300.45 -792.15 -309.55 L-792.1 -309.6 Q-787.65 -311.65 -783.05 -314.35 L-782.2 -314.75 -782.2 -314.8 -782.05 -314.85 -782.05 -314.9 -781.85 -314.95 Q-777.2 -318.05 -772.2 -320.35 -770.05 -321.35 -767.65 -321.75 L-767.6 -321.75 -763.9 -322.05 -757.2 -322.05 -754.85 -322.05 -754.8 -322.05 Q-750.4 -320.4 -746.65 -317.8 L-742.1 -314.05 -742.05 -314.0 -742.0 -313.95 -741.85 -313.7 -741.7 -313.55 -741.7 -313.5 Q-738.1 -309.75 -735.35 -304.9 L-735.35 -304.95 -735.25 -304.75 Q-729.9 -289.4 -727.25 -283.45 L-727.25 -283.35 Q-725.75 -279.1 -726.75 -274.0 L-729.15 -262.75 -729.2 -262.7 -729.3 -262.65 -746.55 -261.25 -746.6 -261.3 -746.65 -261.35 -746.65 -261.4 -746.2 -263.95 Q-743.9 -280.6 -751.9 -291.15 L-751.95 -291.2 -751.95 -291.25 -752.05 -291.35 -752.1 -291.4 Q-753.4 -293.1 -755.45 -293.45 L-757.75 -293.9 -757.85 -293.9 -766.45 -295.55 -766.55 -295.55 -766.65 -295.6 -766.7 -295.6 -766.75 -295.6 -766.85 -295.65 -766.95 -295.65 -767.0 -295.65 -768.9 -295.5 -768.95 -295.5 -769.0 -295.5 -769.05 -295.5 -769.15 -295.45 -769.2 -295.45 -769.3 -295.5 -769.3 -295.6 -769.3 -295.7 -769.25 -295.7 -769.1 -295.75 -768.95 -295.75 -767.5 -295.95 -769.7 -296.35 -769.75 -296.35 -769.85 -296.4 -769.9 -296.4 -769.95 -296.4 -770.05 -296.45 -770.15 -296.45 -770.2 -296.45 -772.0 -296.3 -772.05 -296.3 -772.2 -296.3 -772.3 -296.25 -772.5 -296.2 -772.55 -296.15 -773.7 -295.65 -774.65 -294.9 -774.7 -294.85 -774.8 -294.8 -774.85 -294.75 -774.9 -294.75 -775.15 -294.5 -775.15 -294.45 -778.25 -291.15 -778.3 -291.15 -778.85 -290.65 -778.9 -290.6 -778.95 -290.5 -778.95 -290.45 -779.05 -290.35 -779.05 -290.3 -779.95 -289.2 -780.0 -289.2 -780.05 -289.15 -780.1 -289.1 -780.0 -289.15 -780.1 -289.05 -780.1 -289.0 -780.25 -288.85 -780.3 -288.7 -780.35 -288.65 Q-782.45 -285.65 -783.05 -282.75 L-783.1 -282.7 -783.05 -282.6 -783.4 -281.1 -783.4 -281.0 -783.45 -280.95 -783.4 -280.9 -783.4 -280.75 -784.15 -276.95 -784.2 -276.85 -784.25 -276.8 -784.25 -276.65 -784.25 -276.55 -785.85 -269.15 -785.85 -268.95 -785.9 -268.75 -785.9 -268.55 -785.95 -268.45 -785.95 -268.4 -785.95 -268.3 Q-787.4 -256.05 -779.6 -248.25 -784.9 -255.7 -783.7 -266.35 L-783.7 -266.4 -783.65 -266.6 -783.65 -266.75 -783.65 -266.8 -783.55 -266.9 -783.55 -267.25 -783.55 -267.2 -781.9 -274.95 -781.9 -275.0 -781.85 -275.2 -781.85 -275.25 -781.8 -275.3 -781.8 -275.35 -781.0 -279.35 -781.05 -279.5 -781.0 -279.65 -781.0 -279.7 -780.65 -281.25 -780.65 -281.5 Q-780.0 -284.5 -777.8 -287.65 L-777.7 -287.9 -777.7 -287.85 -777.55 -288.1 -777.55 -288.05 -777.35 -288.25 -776.45 -289.4 -776.35 -289.6 -776.35 -289.55 -776.25 -289.75 -776.2 -289.8 -776.2 -289.75 -775.55 -290.35 -772.35 -293.75 -772.35 -293.7 -772.05 -294.05 -772.0 -294.15 -771.95 -294.2 -771.85 -294.2 -771.85 -294.25 Q-770.9 -295.15 -769.65 -295.55 L-769.55 -295.6 -769.5 -295.6 -769.4 -295.6 -769.4 -295.55 -769.35 -295.5 -769.4 -295.4 -769.45 -295.35 Q-770.75 -295.0 -771.65 -294.05 L-771.7 -294.0 -771.75 -293.95 -771.8 -293.95 -771.85 -293.95 -771.85 -293.9 -772.15 -293.6 -772.15 -293.55 -775.4 -290.15 -776.0 -289.6 -776.05 -289.55 -776.15 -289.45 -776.15 -289.4 -776.25 -289.3 -776.25 -289.25 -777.15 -288.1 -777.1 -288.2 -777.15 -288.15 -777.2 -288.05 -777.25 -288.05 -777.35 -287.95 -777.35 -287.9 -777.5 -287.75 -777.5 -287.7 -777.55 -287.55 -777.6 -287.5 Q-779.8 -284.4 -780.4 -281.35 L-780.45 -281.3 -780.4 -281.2 -780.75 -279.7 -780.75 -279.55 -780.8 -279.5 -780.75 -279.45 -780.75 -279.3 -781.55 -275.35 -781.55 -275.3 -781.6 -275.2 -781.6 -275.15 -781.65 -275.05 -781.65 -275.0 -781.65 -274.9 -783.3 -267.15 -783.35 -267.15 -783.3 -267.0 -783.35 -266.9 -783.4 -266.75 -783.4 -266.55 -783.45 -266.45 -783.45 -266.4 -783.45 -266.3 Q-784.75 -254.9 -778.45 -247.2 L-778.45 -247.15 Q-772.35 -239.7 -759.05 -235.75 L-758.15 -235.4 -758.05 -235.4 -757.95 -235.4 -757.9 -235.35 -746.55 -230.2 -746.5 -230.2 Q-742.65 -227.2 -739.35 -222.9 L-739.35 -222.95 -739.3 -222.9 -739.3 -222.85 -739.0 -222.55 -739.0 -222.5 -738.95 -222.45 Q-737.25 -220.1 -735.65 -217.35 L-735.55 -217.15 -735.4 -217.0 -735.4 -216.95 -733.1 -212.65 -732.5 -194.95 Q-736.95 -178.45 -743.75 -175.05 L-743.8 -175.0 -743.95 -175.0 Q-745.8 -174.35 -746.9 -172.6 L-746.95 -172.5 -747.05 -172.3 -747.1 -172.25 Q-748.95 -169.9 -751.9 -169.15 L-751.95 -169.15 -752.0 -169.15 -752.05 -169.1 -760.1 -167.0 -761.05 -166.8 -761.1 -166.8 -761.2 -166.75 -761.25 -166.75 Q-764.35 -165.65 -768.35 -164.7 L-768.45 -164.75 -768.55 -164.7 -768.6 -164.7 -768.65 -164.7 -768.75 -164.65 -769.1 -164.6 -769.2 -164.6 -769.25 -164.75 -769.25 -164.7 -769.25 -164.55 -769.3 -164.55 -769.4 -164.6 -769.4 -164.65 -769.4 -164.7 -769.4 -164.8 -769.2 -164.85 -769.15 -164.85 -768.8 -164.9 -768.6 -164.95 -768.4 -164.95 Q-764.45 -165.95 -761.35 -167.0 L-761.25 -167.0 -761.15 -167.05 -760.15 -167.25 -752.2 -169.35 -751.95 -169.4 Q-749.1 -170.1 -747.3 -172.4 L-747.15 -172.65 -747.1 -172.8 -747.1 -172.75 Q-746.0 -174.55 -744.05 -175.25 L-743.95 -175.25 -743.8 -175.25 Q-737.15 -178.7 -732.75 -195.0 L-733.35 -212.55 -735.6 -216.8 -735.75 -217.05 -735.85 -217.25 -735.85 -217.2 Q-737.45 -219.95 -739.2 -222.3 L-739.2 -222.4 -739.5 -222.75 -739.5 -222.7 -739.55 -222.75 Q-742.5 -226.6 -745.9 -229.4 L-743.7 -226.7 -743.7 -226.75 -743.65 -226.7 -743.65 -226.65 -743.35 -226.35 -743.35 -226.3 -743.3 -226.25 -740.15 -221.4 -740.05 -221.2 -739.9 -221.05 -739.9 -221.0 -737.7 -216.9 -737.1 -199.9 Q-741.4 -184.1 -747.9 -180.8 L-747.95 -180.75 -748.1 -180.75 Q-749.55 -180.25 -750.55 -178.95 L-750.95 -178.45 -751.0 -178.45 -751.05 -178.2 -751.1 -178.15 -752.6 -176.65 Q-754.0 -175.65 -755.7 -175.15 L-755.75 -175.15 -755.8 -175.15 -755.85 -175.1 -763.6 -173.1 -764.5 -172.9 -764.55 -172.9 -764.65 -172.85 -764.7 -172.85 Q-767.65 -171.8 -771.5 -170.9 L-771.6 -170.95 -771.7 -170.9 -771.75 -170.9 -771.8 -170.9 -771.9 -170.85 -772.2 -170.8 -772.25 -170.8 -772.3 -170.75 Q-776.0 -169.75 -780.0 -169.75 -787.6 -169.65 -794.1 -171.3 -800.7 -173.0 -806.2 -176.4 L-806.25 -176.4 -806.35 -176.45 -806.4 -176.5 -806.35 -176.5 Q-807.8 -177.4 -809.4 -177.3 L-809.65 -177.3 -809.85 -177.3 -809.9 -177.3 Q-811.5 -177.2 -812.8 -176.15 L-812.85 -176.1 -812.9 -176.2 -812.9 -176.1 -812.95 -176.05 -813.0 -176.05 -813.05 -176.0 -813.15 -175.9 Q-814.45 -174.75 -814.8 -172.9 L-817.25 -162.3 -817.3 -162.25 -817.35 -162.2 -828.3 -160.7 -829.45 -154.1 -816.35 -155.9 -813.75 -166.9 Q-813.35 -168.8 -811.95 -170.1 L-812.0 -170.1 -811.8 -170.15 -811.6 -170.35 Q-810.2 -171.5 -808.4 -171.65 L-808.35 -171.65 -808.15 -171.65 -807.9 -171.65 Q-806.1 -171.7 -804.55 -170.75 L-804.5 -170.7 -804.4 -170.65 -804.35 -170.6 -804.3 -170.5 -804.3 -170.45 -804.35 -170.4 -804.45 -170.35 -804.55 -170.4 -804.6 -170.45 -804.7 -170.5 -804.75 -170.55 -804.7 -170.55 Q-806.2 -171.5 -807.9 -171.4 L-808.15 -171.4 -808.35 -171.4 Q-810.1 -171.25 -811.45 -170.15 L-811.5 -170.1 -811.55 -170.25 -811.55 -170.1 -811.6 -170.05 -811.65 -170.05 -811.7 -170.0 -811.8 -169.9 Q-813.15 -168.7 -813.5 -166.85 L-816.1 -155.75 -816.15 -155.7 -816.2 -155.65 -829.55 -153.8 -829.65 -153.85 -829.7 -153.9 -829.7 -153.95 -828.5 -160.85 -828.5 -160.9 -828.45 -160.95 -828.4 -160.95 -828.35 -160.95 -817.5 -162.45 -815.05 -172.95 -815.05 -173.0 Q-814.65 -174.9 -813.3 -176.1 L-813.35 -176.1 -813.15 -176.15 -812.95 -176.35 Q-811.6 -177.45 -809.9 -177.55 L-809.85 -177.55 -809.65 -177.55 -809.4 -177.55 Q-807.7 -177.6 -806.2 -176.7 L-806.15 -176.65 -806.05 -176.6 Q-800.6 -173.2 -794.05 -171.55 L-794.0 -171.55 Q-787.55 -169.95 -780.0 -170.0 -776.1 -170.05 -772.5 -171.0 L-772.3 -171.05 -772.25 -171.05 -771.95 -171.1 -771.75 -171.15 -771.55 -171.15 Q-767.75 -172.1 -764.8 -173.1 L-764.7 -173.1 -764.6 -173.15 -763.65 -173.35 -756.0 -175.35 -755.75 -175.4 Q-754.1 -175.85 -752.75 -176.85 -751.95 -177.5 -751.3 -178.3 L-751.2 -178.5 -751.1 -178.65 -750.75 -179.15 -750.75 -179.1 -750.5 -179.4 Q-749.55 -180.5 -748.2 -181.0 L-748.1 -181.0 -747.95 -181.0 Q-741.6 -184.35 -737.35 -199.95 L-737.95 -216.8 Q-738.95 -218.95 -740.1 -220.85 L-740.25 -221.1 -740.35 -221.3 -740.35 -221.25 -743.55 -226.1 -743.55 -226.2 -743.85 -226.55 -743.85 -226.5 -743.9 -226.55 -746.9 -230.05 -749.6 -231.3 -753.25 -232.95 -758.1 -235.1 -758.15 -235.15 -758.25 -235.15 -759.15 -235.5 -759.1 -235.5 Q-772.45 -239.5 -778.6 -247.0 L-778.65 -247.0 Q-787.7 -255.1 -786.2 -268.35 L-786.2 -268.4 -786.15 -268.6 -786.15 -268.75 -786.15 -268.8 -786.1 -268.95 -786.1 -269.2 -784.5 -276.6 -784.5 -276.65 -784.45 -276.85 -784.4 -277.0 -783.65 -280.75 -783.7 -280.95 -783.65 -281.1 -783.65 -281.15 -783.3 -282.65 -783.3 -282.9 Q-782.65 -285.75 -780.55 -288.8 L-780.45 -289.05 -780.3 -289.2 -780.3 -289.15 -780.2 -289.35 -780.15 -289.35 -780.1 -289.35 -780.05 -289.4 -780.15 -289.35 -779.25 -290.5 -779.25 -290.45 -779.15 -290.65 -779.15 -290.6 -779.1 -290.7 -779.1 -290.8 -779.05 -290.8 -779.0 -290.8 -778.95 -290.85 -779.05 -290.8 -778.45 -291.3 -775.35 -294.65 -775.35 -294.6 -775.05 -294.9 -774.9 -295.0 -774.85 -295.1 -773.85 -295.85 -773.75 -295.9 -772.75 -296.35 -772.75 -296.4 -772.6 -296.45 -772.35 -296.5 -772.2 -296.55 -772.05 -296.55 -770.2 -296.7 -770.15 -296.7 -770.05 -296.7 -769.8 -296.65 -769.7 -296.65 -769.65 -296.6 -769.6 -296.6 -764.05 -295.55 -759.1 -294.6 -757.75 -294.15 -757.7 -294.15 -755.4 -293.7 Q-753.3 -293.3 -751.9 -291.55 L-751.9 -291.6 -751.85 -291.55 -751.75 -291.45 -751.7 -291.35 -751.65 -291.3 Q-743.65 -280.7 -745.95 -264.05 L-734.15 -265.05 -731.85 -275.75 Q-730.95 -280.6 -732.35 -284.55 L-732.35 -284.65 Q-734.85 -290.35 -740.0 -305.1 L-740.0 -305.15 -740.05 -305.15 -740.05 -305.2 Q-742.7 -309.85 -746.15 -313.4 L-746.3 -313.55 -746.5 -313.85 -746.55 -313.9 -746.5 -313.9 Q-748.6 -315.9 -750.85 -317.5 -754.4 -320.0 -758.6 -321.5 L-760.8 -321.5 -767.25 -321.5 -767.55 -321.5 -767.6 -321.5 Q-769.95 -321.1 -772.1 -320.1 -777.1 -317.85 -781.75 -314.75 L-781.85 -314.7 -781.95 -314.6 -782.05 -314.55 -782.1 -314.55 -782.95 -314.1 -782.9 -314.15 Q-787.5 -311.45 -791.95 -309.4 L-792.05 -309.3 Q-805.4 -300.25 -810.65 -292.85 L-810.65 -292.8 -810.7 -292.7 Q-814.15 -287.2 -817.1 -278.1 L-817.15 -278.05 -817.15 -278.0 -817.15 -277.95 -819.25 -271.45 -818.25 -259.4 -818.05 -257.4 -817.85 -256.85 -817.8 -256.75 -817.8 -256.7 -817.05 -254.6 -817.0 -254.55 -816.95 -254.45 -816.9 -254.35 -816.9 -254.3 -816.85 -254.2 -816.75 -253.9 Q-815.55 -251.55 -814.1 -249.55 L-814.1 -249.6 -813.9 -249.25 Q-811.8 -246.55 -809.25 -244.65 L-809.15 -244.55 Q-802.05 -239.5 -794.3 -237.4 L-794.15 -237.35 -793.9 -237.25 Q-784.6 -234.8 -775.35 -230.75 L-775.15 -230.7 -775.05 -230.65 -775.0 -230.65 -774.9 -230.55 -774.75 -230.5 Q-765.3 -226.35 -758.95 -220.25 L-758.55 -219.75 -757.95 -218.9 -757.9 -218.85 -757.9 -218.8 -757.75 -218.5 -757.55 -218.2 -757.55 -218.25 -757.65 -218.25 -757.7 -218.25 -757.75 -218.2 M-765.4 -321.75 L-760.8 -321.75 -758.55 -321.75 -758.5 -321.75 Q-754.3 -320.2 -750.7 -317.7 -748.4 -316.1 -746.35 -314.1 L-746.3 -314.05 -746.25 -314.0 -746.1 -313.75 -745.95 -313.6 -745.95 -313.55 Q-742.5 -309.95 -739.85 -305.3 L-739.85 -305.35 -739.75 -305.2 Q-734.65 -290.45 -732.1 -284.75 L-732.1 -284.65 Q-730.65 -280.6 -731.6 -275.7 L-733.9 -264.9 -733.95 -264.85 -734.05 -264.8 -746.0 -263.8 -746.4 -261.55 -729.4 -262.9 -727.0 -274.05 Q-726.05 -279.1 -727.5 -283.25 L-727.5 -283.35 Q-730.1 -289.3 -735.5 -304.65 L-735.5 -304.7 -735.55 -304.75 -735.55 -304.8 Q-738.3 -309.65 -741.9 -313.35 L-742.05 -313.5 -742.25 -313.8 -742.3 -313.85 -742.25 -313.85 Q-744.45 -315.95 -746.8 -317.6 -750.5 -320.2 -754.9 -321.8 L-757.2 -321.8 -763.9 -321.8 -765.4 -321.75 M-766.6 -274.55 L-766.05 -273.65 -754.45 -255.1 -754.05 -256.3 Q-748.4 -276.1 -756.7 -287.6 L-767.6 -289.7 -771.5 -285.6 -772.55 -284.25 -772.6 -284.2 -766.65 -274.6 -766.6 -274.55 M-777.35 -288.2 L-777.4 -288.15 -777.35 -288.2 M-775.35 -230.5 L-775.4 -230.5 -775.45 -230.5 Q-784.75 -234.55 -794.0 -237.0 L-794.1 -237.05 -794.25 -237.1 -794.35 -237.15 Q-802.15 -239.3 -809.3 -244.35 L-809.35 -244.35 -809.45 -244.45 -809.4 -244.45 Q-812.0 -246.35 -814.1 -249.1 L-814.1 -249.15 -814.3 -249.4 -815.45 -251.15 -812.8 -246.75 -812.6 -246.4 Q-810.4 -243.6 -807.75 -241.6 L-807.65 -241.5 Q-800.2 -236.25 -792.15 -234.05 L-792.0 -234.0 -791.75 -233.9 Q-782.05 -231.35 -772.35 -227.1 L-772.15 -227.05 -772.05 -227.0 -772.0 -227.0 -771.9 -226.9 -771.75 -226.85 Q-763.95 -223.45 -758.15 -218.7 L-758.15 -218.8 -758.15 -218.85 -758.75 -219.6 -759.15 -220.05 -759.1 -220.05 Q-765.4 -226.15 -774.85 -230.25 L-774.85 -230.3 -775.0 -230.3 -775.1 -230.35 -775.15 -230.4 -775.25 -230.45 -775.35 -230.5 M-774.4 -221.15 L-774.45 -221.15 -780.25 -219.65 Q-782.95 -218.7 -786.5 -217.9 -790.0 -216.95 -793.8 -216.95 -804.9 -216.85 -813.45 -221.0 L-810.4 -204.55 -800.9 -198.8 -792.4 -191.95 Q-788.75 -188.85 -784.15 -186.95 -781.25 -185.6 -777.2 -186.15 L-775.1 -186.6 -773.3 -187.2 -773.25 -187.2 Q-770.65 -187.05 -768.45 -187.3 -763.55 -188.05 -760.65 -191.4 L-759.7 -192.7 Q-757.15 -196.65 -756.55 -203.2 L-759.65 -211.7 Q-765.6 -217.35 -774.4 -221.15 M-780.35 -219.9 L-780.3 -219.9 -774.8 -221.35 Q-784.25 -225.5 -793.75 -227.95 -802.9 -230.5 -811.4 -236.5 -814.8 -239.0 -817.5 -242.65 L-813.5 -221.25 Q-804.95 -217.05 -793.8 -217.2 -790.0 -217.25 -786.55 -218.15 L-780.35 -219.9 M-734.75 -226.55 L-734.75 -226.5 -734.75 -226.4 -734.65 -226.35 -734.6 -226.4 -734.55 -226.4 -734.5 -226.45 -734.55 -226.55 -734.6 -226.6 -734.7 -226.6 -734.75 -226.55 M-831.25 -309.6 L-831.2 -309.6 -831.15 -309.55 -831.1 -309.45 Q-836.7 -286.45 -841.85 -268.0 -846.65 -249.65 -847.65 -231.0 -848.3 -212.15 -852.45 -193.45 -856.35 -174.6 -861.15 -152.65 L-861.2 -152.6 -861.25 -152.55 -875.75 -148.6 -875.8 -148.6 -890.3 -149.25 Q-893.6 -149.3 -899.45 -152.2 -904.9 -154.85 -906.35 -159.9 L-915.05 -171.05 -915.05 -171.15 Q-916.1 -186.6 -921.85 -199.65 -927.9 -212.7 -936.6 -240.9 -945.3 -268.85 -964.35 -289.1 L-964.35 -289.15 -969.9 -299.45 -969.95 -299.45 -969.95 -299.55 -969.9 -299.65 -939.55 -324.5 Q-932.5 -329.4 -916.75 -329.7 L-894.85 -330.15 -894.55 -330.15 -894.5 -330.15 -894.45 -330.15 -894.4 -330.05 -893.85 -329.0 -893.9 -329.0 -887.15 -315.1 Q-884.6 -309.6 -882.7 -303.85 L-881.2 -298.9 Q-878.85 -290.45 -876.35 -283.1 L-875.8 -281.2 -875.05 -286.5 Q-874.0 -290.9 -872.55 -300.8 L-872.0 -303.15 -872.0 -303.1 -871.75 -303.7 -871.75 -303.8 -871.75 -303.85 -865.95 -325.35 -865.9 -325.45 -865.8 -325.45 -865.75 -325.4 -865.7 -325.3 -871.1 -305.25 Q-870.15 -307.05 -868.6 -308.55 -865.0 -312.0 -858.15 -313.55 L-836.4 -315.8 -836.35 -315.8 -836.3 -315.75 -831.45 -309.9 -831.4 -309.7 -831.35 -309.5 -831.3 -309.6 -831.25 -309.6 M-894.8 -329.45 L-910.25 -306.95 -900.7 -287.2 Q-895.95 -276.85 -892.8 -265.8 -889.7 -254.65 -886.4 -244.9 -883.35 -235.9 -883.65 -226.9 L-882.5 -232.05 -875.85 -280.55 -875.85 -280.6 -876.6 -283.0 Q-879.15 -290.35 -881.45 -298.85 L-882.95 -303.75 Q-884.9 -309.5 -887.4 -315.0 L-894.1 -328.9 -894.2 -329.1 -894.55 -329.8 -894.8 -329.45 M-876.5 -230.9 L-876.55 -230.95 -876.55 -231.15 -876.5 -231.2 -876.5 -231.3 -869.05 -285.75 Q-868.05 -290.3 -866.55 -299.9 L-866.55 -299.95 -866.3 -301.15 -866.3 -301.25 -866.15 -301.6 -866.1 -301.85 Q-865.6 -303.1 -864.55 -304.05 L-864.6 -304.05 -864.45 -304.2 -864.2 -304.45 -864.1 -304.45 -864.05 -304.5 -864.1 -304.5 -861.7 -306.0 -861.65 -306.05 -861.6 -306.05 -858.35 -307.3 -857.4 -307.55 -856.8 -307.6 -839.05 -309.5 -838.95 -309.5 -838.9 -309.45 -837.75 -308.0 -837.7 -307.95 -837.7 -307.9 Q-842.9 -286.8 -847.7 -269.65 L-847.75 -269.65 -847.7 -269.5 -847.7 -269.4 Q-850.05 -260.4 -851.55 -251.3 L-852.7 -242.6 -853.4 -234.75 -853.4 -234.7 -853.55 -233.15 -853.6 -233.05 -853.7 -233.0 -853.8 -233.05 -853.8 -233.15 -853.65 -234.75 -852.95 -242.65 -851.8 -251.35 Q-850.35 -260.45 -847.95 -269.45 L-847.95 -269.75 -847.95 -269.7 Q-843.2 -286.85 -838.0 -307.9 L-838.3 -308.3 -839.05 -309.25 -841.7 -308.95 -856.75 -307.35 -856.8 -307.35 -858.15 -307.1 -858.25 -307.05 -861.5 -305.85 -861.55 -305.85 -861.6 -305.8 -863.15 -304.75 -863.25 -304.7 -863.3 -304.65 -863.2 -304.7 -863.45 -304.45 -863.6 -304.3 Q-864.55 -303.4 -864.95 -302.25 L-865.0 -302.2 -865.0 -302.15 -865.05 -302.05 -865.15 -301.75 -865.15 -301.7 -865.15 -301.65 -865.4 -300.5 -866.85 -291.7 -866.9 -291.6 -867.3 -289.15 -867.55 -288.05 -867.75 -287.0 -867.8 -286.95 -867.8 -286.9 -872.55 -252.1 -872.6 -252.05 -872.7 -252.0 -872.8 -252.05 -872.8 -252.15 -868.05 -286.95 -868.0 -287.1 -867.8 -288.1 -867.55 -289.2 -867.1 -291.75 -865.65 -300.55 -865.4 -301.7 -865.4 -301.8 -865.25 -302.15 -865.2 -302.4 -864.25 -304.0 -864.4 -303.85 Q-865.4 -302.9 -865.85 -301.7 L-865.9 -301.65 -865.9 -301.6 -865.95 -301.5 -866.05 -301.2 -866.05 -301.15 -866.05 -301.1 -866.3 -299.9 -866.3 -299.85 Q-867.8 -290.25 -868.8 -285.7 L-876.25 -231.25 -876.25 -231.2 -876.3 -231.1 -876.3 -231.05 -876.3 -231.0 -876.35 -230.95 -876.45 -230.9 -876.5 -230.9 M-871.5 -303.7 L-871.55 -303.6 -871.75 -303.05 -872.3 -300.75 Q-873.8 -290.8 -874.8 -286.45 L-882.25 -232.0 -883.7 -225.4 -883.7 -225.35 -883.75 -225.3 -883.85 -225.25 -883.95 -225.3 -883.95 -225.4 Q-883.4 -235.15 -886.65 -244.8 -890.0 -254.55 -893.05 -265.75 -896.25 -276.75 -900.95 -287.1 L-910.45 -306.85 -927.2 -306.55 -939.8 -306.25 Q-960.35 -305.9 -969.7 -299.5 L-964.15 -289.25 Q-945.1 -268.95 -936.35 -240.95 -927.7 -212.8 -921.6 -199.75 -915.85 -186.7 -914.8 -171.2 L-906.15 -160.0 -906.1 -159.95 Q-904.7 -155.05 -899.35 -152.4 -893.6 -149.5 -890.3 -149.5 L-875.8 -148.85 -861.4 -152.8 Q-856.6 -174.7 -852.7 -193.5 -848.6 -212.15 -847.9 -231.0 -846.95 -249.65 -842.1 -268.05 -837.0 -286.5 -831.35 -309.45 L-836.45 -315.55 -858.1 -313.3 Q-864.9 -311.8 -868.45 -308.35 -870.55 -306.3 -871.5 -303.7 M-853.7 -232.95 L-853.6 -232.9 -853.55 -232.85 -853.65 -231.15 Q-853.85 -225.65 -854.35 -220.15 L-854.8 -215.7 Q-856.0 -205.25 -858.3 -194.85 L-858.4 -194.3 -858.4 -194.25 -858.45 -194.0 -858.45 -193.95 -864.75 -164.3 -864.75 -164.35 -864.8 -164.4 -864.85 -164.45 -864.9 -164.45 -865.0 -164.45 -858.7 -194.0 -858.65 -194.35 -858.55 -194.95 Q-856.5 -204.25 -855.3 -213.6 L-855.05 -215.75 -854.6 -220.15 -853.9 -231.15 -853.8 -232.85 -853.75 -232.95 -853.7 -232.95 M-877.7 -225.4 L-877.75 -225.45 -877.75 -225.55 -877.6 -225.75 Q-877.0 -226.65 -876.7 -227.8 L-875.35 -234.15 -875.35 -234.2 -875.3 -234.45 -875.25 -234.45 -875.25 -234.5 -875.2 -234.7 -875.2 -234.75 -872.85 -251.65 -872.8 -251.75 -872.75 -251.75 -872.7 -251.75 -872.65 -251.7 -872.6 -251.6 -872.7 -251.0 -874.95 -234.75 -874.95 -234.7 -874.95 -234.65 -875.0 -234.55 -875.0 -234.5 -875.0 -234.4 -875.05 -234.3 -875.1 -234.25 -875.1 -234.2 -875.1 -234.1 -876.45 -227.75 Q-876.8 -226.45 -877.55 -225.4 L-877.6 -225.35 -877.7 -225.4 M-863.95 -304.3 L-864.05 -304.25 -864.1 -304.2 -864.0 -304.25 -863.95 -304.3 M-894.85 -329.9 L-916.75 -329.45 Q-932.4 -329.2 -939.4 -324.3 L-968.2 -300.7 Q-958.75 -306.15 -939.8 -306.5 L-927.2 -306.8 -910.45 -307.1 -894.85 -329.75 -894.75 -329.9 -894.85 -329.9 M-822.7 -251.85 L-831.55 -250.5 -827.2 -202.15 -810.7 -204.6 -813.75 -221.15 -817.85 -243.15 Q-820.6 -246.9 -822.7 -251.85 M-876.6 -230.9 L-876.6 -230.95 -876.6 -230.85 -876.6 -230.9 M-876.35 -230.9 L-876.35 -230.8 -876.45 -230.8 -876.35 -230.9 M-877.35 -231.05 L-877.35 -230.9 -877.4 -230.8 -877.5 -230.75 -877.6 -230.8 -877.6 -230.9 -877.6 -231.05 -877.6 -231.15 -877.5 -231.15 -877.4 -231.15 -877.35 -231.05 M-827.4 -201.95 L-827.4 -202.0 -831.75 -249.7 -838.75 -208.9 -836.75 -148.15 -827.4 -201.95" fill="#330101" fill-opacity="0.4" fill-rule="evenodd" stroke="none"/>
      <path d="M-828.5 -213.0 L-828.45 -213.1 -828.35 -213.1 -828.3 -213.05 -828.25 -212.95 -829.9 -206.35 Q-830.65 -202.25 -830.65 -197.1 L-830.7 -197.0 -830.8 -196.95 -830.9 -197.0 -830.9 -197.1 Q-830.95 -202.25 -830.15 -206.4 -829.8 -208.65 -828.5 -213.0 M-814.4 -217.35 L-814.35 -217.3 -814.35 -217.2 -814.4 -217.15 -814.5 -217.1 -815.5 -217.1 -815.6 -217.15 -815.6 -217.25 -815.6 -217.35 -815.5 -217.35 -814.95 -217.35 -816.9 -218.55 -819.75 -220.45 Q-823.4 -216.75 -828.8 -213.8 L-828.85 -213.75 -828.95 -213.85 -828.95 -213.9 -828.9 -214.0 Q-823.5 -217.0 -819.85 -220.7 L-819.75 -220.75 -819.7 -220.75 -819.65 -220.7 -816.75 -218.75 -814.4 -217.35 M-864.15 -222.95 L-864.15 -223.05 -864.05 -223.1 -863.95 -223.1 -863.9 -223.0 Q-863.65 -221.9 -861.4 -218.55 L-859.2 -215.1 -859.2 -215.05 -865.75 -195.35 -865.85 -195.3 -865.95 -195.25 -866.0 -195.35 -866.0 -195.45 -859.45 -215.1 -861.6 -218.4 Q-863.85 -221.8 -864.15 -222.95 M-852.9 -245.95 L-852.85 -246.0 -852.75 -246.0 -852.7 -245.95 -852.65 -245.85 -854.35 -239.8 -855.45 -235.2 Q-855.45 -234.7 -855.05 -233.95 -854.55 -233.25 -854.55 -232.65 -854.55 -231.95 -859.35 -227.95 L-865.8 -222.45 -868.45 -218.55 Q-871.05 -214.2 -873.3 -208.45 L-873.4 -208.35 -873.5 -208.35 -873.55 -208.45 -873.55 -208.55 Q-871.25 -214.3 -868.65 -218.7 L-866.0 -222.6 -866.0 -222.65 -859.5 -228.15 Q-854.85 -232.05 -854.8 -232.65 -854.85 -233.15 -855.25 -233.8 -855.75 -234.6 -855.7 -235.2 -855.75 -235.8 -854.6 -239.85 L-852.9 -245.95 M-852.45 -294.45 L-852.45 -294.55 -852.45 -294.65 -852.35 -294.65 -851.9 -294.65 -851.8 -294.65 -851.75 -294.55 -851.8 -294.45 -851.9 -294.4 -852.35 -294.4 -852.45 -294.45 M-902.0 -242.65 L-902.0 -242.75 -901.9 -242.75 -901.8 -242.75 -901.75 -242.65 Q-901.75 -240.0 -902.7 -234.65 L-902.75 -234.6 -902.85 -234.55 -902.95 -234.6 -902.95 -234.7 Q-902.05 -240.0 -902.0 -242.65 M-899.2 -238.5 L-899.2 -238.6 -899.1 -238.6 -899.0 -238.6 -898.95 -238.5 -898.95 -235.65 -899.0 -235.55 -899.1 -235.5 -899.2 -235.55 -899.2 -235.65 -899.2 -238.5 M-923.45 -248.65 L-923.5 -248.7 -923.5 -248.8 Q-922.95 -249.85 -921.75 -250.75 -919.55 -252.45 -914.55 -253.95 L-914.5 -253.95 -914.4 -253.85 -914.45 -253.8 -914.5 -253.7 Q-919.45 -252.25 -921.6 -250.55 -922.75 -249.65 -923.3 -248.7 L-923.35 -248.6 -923.45 -248.65 M-923.5 -275.0 L-923.4 -275.05 -923.35 -275.05 -923.25 -274.95 -923.3 -274.9 -924.45 -273.4 Q-925.2 -272.15 -925.15 -269.6 -925.15 -267.7 -924.2 -262.5 -923.25 -257.3 -923.25 -256.2 -923.25 -253.0 -924.4 -247.6 -925.6 -242.3 -925.6 -240.8 L-925.65 -240.7 -925.75 -240.65 -925.85 -240.7 -925.85 -240.8 Q-925.9 -242.3 -924.65 -247.65 -923.55 -253.0 -923.5 -256.2 L-924.45 -262.45 Q-925.45 -267.7 -925.4 -269.6 -925.4 -272.25 -924.65 -273.55 L-923.5 -275.0 M-849.1 -307.85 L-849.1 -307.95 -849.0 -307.95 -848.9 -307.95 -848.85 -307.85 -848.85 -307.4 -849.35 -305.95 -849.35 -302.75 Q-845.95 -302.8 -844.7 -298.65 -843.3 -293.8 -841.3 -292.7 L-841.2 -292.6 -841.25 -292.55 -841.3 -292.45 -841.4 -292.5 Q-843.5 -293.6 -844.95 -298.6 -846.15 -302.6 -849.5 -302.5 L-849.55 -302.55 -849.6 -302.55 -849.6 -302.65 -849.6 -306.05 -849.2 -307.25 -849.4 -306.95 Q-849.7 -306.35 -850.0 -306.35 L-850.1 -306.4 -850.1 -306.5 -850.1 -306.6 -850.0 -306.6 -849.6 -307.05 -849.1 -307.6 -849.1 -307.85 M-748.1 -238.05 L-748.05 -238.05 -747.95 -238.0 -747.9 -237.95 -747.95 -237.85 -753.5 -232.3 -753.1 -229.9 Q-752.8 -227.7 -752.2 -226.85 L-752.15 -226.8 -752.2 -226.7 Q-753.0 -225.9 -756.2 -224.25 L-759.7 -222.45 -759.75 -222.4 -759.85 -222.5 -759.85 -222.55 -759.8 -222.65 -756.3 -224.45 Q-753.3 -226.05 -752.45 -226.8 -753.05 -227.7 -753.35 -229.85 L-753.75 -232.2 -753.85 -232.25 -753.85 -232.35 -753.8 -232.55 -752.85 -235.5 -751.9 -238.95 -751.9 -239.05 -751.8 -239.05 -751.35 -239.05 -751.25 -239.05 -751.2 -238.95 -751.25 -238.85 -751.35 -238.8 -751.65 -238.8 -752.6 -235.45 -753.5 -232.7 -748.1 -238.05 M-796.35 -215.75 L-796.35 -215.85 -796.3 -215.95 -796.25 -215.95 -796.15 -215.9 -792.65 -211.95 -792.65 -211.85 -792.75 -210.35 -792.75 -209.4 -792.1 -211.75 -792.1 -211.8 Q-791.25 -214.15 -789.6 -214.95 L-789.5 -214.95 -789.45 -214.9 -789.4 -214.8 -789.5 -214.75 Q-791.05 -213.95 -791.85 -211.7 L-792.75 -208.6 -792.85 -208.55 -792.9 -208.5 -793.0 -208.55 -793.0 -208.65 -793.0 -210.35 -792.9 -211.85 -796.35 -215.75 M-800.95 -269.4 L-800.85 -269.4 -800.8 -269.35 -800.75 -269.25 -800.8 -269.2 Q-805.45 -266.1 -809.2 -263.9 -810.6 -262.95 -810.6 -261.6 -810.0 -257.65 -808.75 -255.8 L-808.7 -255.75 -808.7 -254.6 -805.25 -254.8 -799.0 -254.45 -798.95 -254.4 -798.9 -254.3 -798.95 -254.25 -799.05 -254.2 -805.25 -254.55 -808.7 -254.35 -808.7 -253.4 -808.75 -253.3 -808.85 -253.25 Q-812.7 -253.3 -815.35 -251.9 L-815.4 -251.85 -815.5 -251.95 -815.5 -252.0 -815.45 -252.1 Q-812.8 -253.5 -808.95 -253.5 L-808.95 -254.3 -809.3 -254.2 -809.4 -254.25 -809.45 -254.3 -809.45 -254.4 -809.35 -254.45 -808.95 -254.55 -808.95 -255.7 Q-810.2 -257.6 -810.85 -261.55 L-810.85 -261.6 Q-810.9 -263.05 -809.35 -264.1 -805.55 -266.3 -800.95 -269.4 M-742.9 -309.0 L-742.85 -308.9 -742.9 -308.8 -743.0 -308.75 -743.85 -308.75 -743.85 -304.6 Q-742.35 -301.0 -742.35 -299.8 L-742.4 -299.7 -742.45 -299.7 -742.5 -299.65 Q-747.35 -299.9 -749.35 -296.9 L-750.7 -294.6 -750.7 -294.55 Q-751.5 -293.3 -752.55 -292.9 L-752.65 -292.9 -752.7 -293.0 -752.7 -293.1 -752.65 -293.15 Q-751.7 -293.5 -750.9 -294.7 L-749.55 -297.05 Q-747.55 -300.15 -742.6 -299.9 -742.7 -301.15 -744.1 -304.5 L-744.1 -308.9 -744.1 -309.0 -744.0 -309.0 -743.0 -309.0 -742.9 -309.0 M-780.9 -328.9 L-781.0 -328.95 -781.0 -329.05 -781.0 -329.15 -780.9 -329.15 -780.4 -329.15 -780.3 -329.15 -780.25 -329.05 -780.25 -326.65 -780.3 -326.55 -783.2 -322.7 -783.25 -322.65 -783.35 -322.7 -783.4 -322.75 -783.4 -322.85 -780.5 -326.7 -780.5 -328.9 -780.9 -328.9 M-780.9 -334.4 L-780.8 -334.4 -780.75 -334.35 Q-780.45 -333.5 -780.55 -331.9 L-780.55 -331.85 -780.75 -329.6 -775.4 -329.85 Q-771.0 -329.85 -768.85 -328.65 L-768.75 -328.55 -768.8 -328.5 -768.85 -328.4 -768.95 -328.45 Q-771.1 -329.65 -775.4 -329.6 L-780.9 -329.35 -780.95 -329.4 -781.0 -329.4 -781.0 -329.5 -780.8 -331.9 Q-780.75 -333.35 -781.0 -334.15 L-792.05 -334.65 -792.1 -334.75 -792.1 -334.85 -792.05 -334.9 -791.95 -334.9 -780.9 -334.4" fill="#330101" fill-opacity="0.2" fill-rule="evenodd" stroke="none"/>
    </g>
    <linearGradient gradientTransform="matrix(0.033, -0.0051, 0.0096, 0.0625, -904.55, -263.75)" gradientUnits="userSpaceOnUse" id="gradient0" spreadMethod="pad" x1="-819.2" x2="819.2">
      <stop offset="0.0" stop-color="#a68e8e"/>
      <stop offset="1.0" stop-color="#9a7e7e"/>
    </linearGradient>
  </defs>
</svg>
