<?xml version="1.0" encoding="UTF-8" standalone="no"?>
<svg xmlns:xlink="http://www.w3.org/1999/xlink" height="20.7px" width="21.15px" xmlns="http://www.w3.org/2000/svg">
  <g transform="matrix(1.0, 0.0, 0.0, 1.0, 18.95, 3.05)">
    <path d="M-16.7 -1.25 Q-16.85 -2.15 -16.1 -2.75 L-15.45 -2.95 -15.3 -2.95 -11.35 -1.45 -8.45 -0.5 -6.65 0.2 Q-5.95 0.6 -5.5 1.55 L-5.45 1.65 -6.15 3.15 -7.7 7.8 -8.25 12.4 -8.05 15.75 -7.9 17.4 -10.15 16.9 -13.35 15.65 -16.65 14.0 -17.9 13.15 Q-18.75 12.5 -18.85 11.75 L-18.95 10.55 -18.4 8.6 Q-17.9 6.75 -17.65 3.6 -17.4 0.4 -16.7 -1.25 M-5.3 17.65 L-6.35 17.55 Q-6.45 11.7 -5.95 7.5 -5.7 4.95 -4.6 3.4 -4.25 4.35 -4.25 4.9 L-4.7 11.1 -5.3 17.65 M-13.35 15.65 Q-13.35 10.2 -12.95 7.0 L-12.1 1.4 -11.35 -1.45 -12.1 1.4 -12.95 7.0 Q-13.35 10.2 -13.35 15.65 M-8.85 11.55 Q-8.85 11.0 -9.3 10.55 -9.65 10.2 -10.2 10.2 -10.75 10.2 -11.2 10.55 -11.55 11.0 -11.55 11.55 -11.55 12.1 -11.2 12.45 L-10.2 12.9 Q-9.65 12.9 -9.3 12.45 -8.85 12.1 -8.85 11.55 M-7.95 4.5 Q-7.95 3.95 -8.4 3.5 -8.75 3.15 -9.3 3.15 -9.85 3.15 -10.3 3.5 L-10.65 4.5 Q-10.65 5.05 -10.3 5.4 L-9.3 5.85 Q-8.75 5.85 -8.4 5.4 -7.95 5.05 -7.95 4.5 M-15.55 8.25 Q-15.95 8.25 -16.25 8.6 L-16.5 9.5 -16.25 10.35 -15.55 10.75 -14.95 10.35 Q-14.65 10.0 -14.65 9.5 -14.65 9.0 -14.95 8.6 -15.2 8.25 -15.55 8.25 M-13.9 1.4 Q-14.15 1.05 -14.5 1.05 -14.9 1.05 -15.2 1.4 L-15.45 2.3 -15.2 3.15 Q-14.9 3.55 -14.5 3.55 L-13.9 3.15 Q-13.6 2.8 -13.6 2.3 -13.6 1.8 -13.9 1.4 M-17.9 13.15 Q-17.85 9.95 -16.9 5.0 L-15.45 -2.95 -16.9 5.0 Q-17.85 9.95 -17.9 13.15" fill="#ffffff" fill-rule="evenodd" stroke="none"/>
    <path d="M-15.3 -2.95 L-13.85 -3.05 -12.45 -2.9 -10.9 -2.55 -9.0 -1.95 -8.2 -1.7 -6.75 -1.15 Q-3.95 0.0 -3.4 0.85 L-2.85 1.7 -1.55 4.15 -1.1 4.95 -0.3 5.95 1.95 7.45 2.2 7.55 Q1.7 8.2 1.7 10.0 L1.7 16.7 Q-2.5 17.75 -5.3 17.65 L-4.7 11.1 -4.25 4.9 Q-4.25 4.35 -4.6 3.4 -5.7 4.95 -5.95 7.5 -6.45 11.7 -6.35 17.55 L-7.9 17.4 -8.05 15.75 -8.25 12.4 -7.7 7.8 -6.15 3.15 -5.45 1.65 -5.5 1.55 Q-5.95 0.6 -6.65 0.2 L-8.45 -0.5 -11.35 -1.45 -10.9 -2.55 -11.35 -1.45 -15.3 -2.95 M-4.6 3.4 Q-3.9 2.3 -2.85 1.7 -3.9 2.3 -4.6 3.4" fill="#d6baba" fill-rule="evenodd" stroke="none"/>
    <path d="M-7.95 4.5 Q-7.95 5.05 -8.4 5.4 -8.75 5.85 -9.3 5.85 L-10.3 5.4 Q-10.65 5.05 -10.65 4.5 L-10.3 3.5 Q-9.85 3.15 -9.3 3.15 -8.75 3.15 -8.4 3.5 -7.95 3.95 -7.95 4.5 M-8.85 11.55 Q-8.85 12.1 -9.3 12.45 -9.65 12.9 -10.2 12.9 L-11.2 12.45 Q-11.55 12.1 -11.55 11.55 -11.55 11.0 -11.2 10.55 -10.75 10.2 -10.2 10.2 -9.65 10.2 -9.3 10.55 -8.85 11.0 -8.85 11.55 M-13.9 1.4 Q-13.6 1.8 -13.6 2.3 -13.6 2.8 -13.9 3.15 L-14.5 3.55 Q-14.9 3.55 -15.2 3.15 L-15.45 2.3 -15.2 1.4 Q-14.9 1.05 -14.5 1.05 -14.15 1.05 -13.9 1.4 M-15.55 8.25 Q-15.2 8.25 -14.95 8.6 -14.65 9.0 -14.65 9.5 -14.65 10.0 -14.95 10.35 L-15.55 10.75 -16.25 10.35 -16.5 9.5 -16.25 8.6 Q-15.95 8.25 -15.55 8.25" fill="#a78383" fill-rule="evenodd" stroke="none"/>
    <path d="M-13.85 -3.05 L-12.45 -2.9 M-8.2 -1.7 L-6.75 -1.15 M-1.1 4.95 L-0.3 5.95 M2.2 7.55 Q1.7 8.2 1.7 10.0 L1.7 16.7 Q-2.5 17.75 -5.3 17.65 L-6.35 17.55 -7.9 17.4 -10.15 16.9 -13.35 15.65 -16.65 14.0 -17.9 13.15 Q-18.75 12.5 -18.85 11.75 L-18.95 10.55 -18.4 8.6 Q-17.9 6.75 -17.65 3.6 -17.4 0.4 -16.7 -1.25 M-11.35 -1.45 L-10.9 -2.55 M-11.35 -1.45 L-12.1 1.4 -12.95 7.0 Q-13.35 10.2 -13.35 15.65 M-2.85 1.7 Q-3.9 2.3 -4.6 3.4 -5.7 4.95 -5.95 7.5 -6.45 11.7 -6.35 17.55 M-7.95 4.5 Q-7.95 5.05 -8.4 5.4 -8.75 5.85 -9.3 5.85 L-10.3 5.4 Q-10.65 5.05 -10.65 4.5 L-10.3 3.5 Q-9.85 3.15 -9.3 3.15 -8.75 3.15 -8.4 3.5 -7.95 3.95 -7.95 4.5 M-8.85 11.55 Q-8.85 12.1 -9.3 12.45 -9.65 12.9 -10.2 12.9 L-11.2 12.45 Q-11.55 12.1 -11.55 11.55 -11.55 11.0 -11.2 10.55 -10.75 10.2 -10.2 10.2 -9.65 10.2 -9.3 10.55 -8.85 11.0 -8.85 11.55 M-13.9 1.4 Q-13.6 1.8 -13.6 2.3 -13.6 2.8 -13.9 3.15 L-14.5 3.55 Q-14.9 3.55 -15.2 3.15 L-15.45 2.3 -15.2 1.4 Q-14.9 1.05 -14.5 1.05 -14.15 1.05 -13.9 1.4 M-15.55 8.25 Q-15.2 8.25 -14.95 8.6 -14.65 9.0 -14.65 9.5 -14.65 10.0 -14.95 10.35 L-15.55 10.75 -16.25 10.35 -16.5 9.5 -16.25 8.6 Q-15.95 8.25 -15.55 8.25 M-15.45 -2.95 L-16.9 5.0 Q-17.85 9.95 -17.9 13.15" fill="none" stroke="#000000" stroke-linecap="round" stroke-linejoin="round" stroke-opacity="0.3019608" stroke-width="0.05"/>
  </g>
</svg>
