<?xml version="1.0" encoding="UTF-8" standalone="no"?>
<svg xmlns:xlink="http://www.w3.org/1999/xlink" height="31.35px" width="33.2px" xmlns="http://www.w3.org/2000/svg">
  <g transform="matrix(1.0, 0.0, 0.0, 1.0, 15.95, 13.2)">
    <path d="M-15.1 12.0 L-15.15 11.95 -15.75 11.2 -15.8 11.15 Q-16.2 11.35 -15.35 6.85 L-13.95 -0.25 -14.0 -0.3 -13.3 -0.9 -11.45 -2.0 -8.9 -1.85 -8.45 -4.75 -7.15 -8.4 -7.95 -8.55 -9.25 -5.75 -10.3 -3.45 Q-11.45 -2.0 -13.3 -2.0 L-14.55 -2.3 -14.55 -2.5 Q-14.55 -6.25 -13.75 -8.2 -12.7 -10.95 -11.6 -11.3 L-11.6 -11.85 -11.15 -12.85 -9.9 -13.2 -8.85 -12.65 Q-8.35 -12.4 -8.65 -11.85 L-8.75 -11.35 Q-8.95 -10.45 -6.15 -9.45 -3.35 -8.55 -2.25 -8.75 -1.15 -8.95 -0.35 -9.3 L0.45 -9.7 Q0.85 -9.45 1.2 -9.3 L3.9 -8.45 4.55 -8.2 4.55 -8.0 Q4.55 -7.55 3.9 -7.1 L3.4 -6.75 0.1 -8.05 -1.05 -7.7 -2.35 -7.4 -4.6 -7.6 -2.35 -7.4 -1.05 -7.7 0.1 -8.05 3.4 -6.75 3.65 -5.35 Q3.65 -1.5 1.7 0.45 0.25 1.95 -1.45 1.8 -2.1 1.0 -3.3 0.2 -4.85 -0.85 -6.45 -1.25 L-6.4 -1.5 -6.45 -1.25 Q-4.85 -0.85 -3.3 0.2 -2.1 1.0 -1.45 1.8 L-1.35 1.95 Q-0.95 2.7 -0.5 4.25 L-0.5 4.3 Q-0.65 4.8 -1.25 5.1 L-1.45 5.2 Q-2.15 2.95 -4.55 1.35 -6.95 -0.25 -9.2 -0.35 -11.5 -0.45 -12.4 0.5 -13.35 1.45 -13.35 3.7 L-13.3 3.95 -13.85 5.3 Q-14.45 7.1 -14.85 10.05 L-12.05 12.65 -6.8 15.1 -2.7 16.15 -2.1 16.25 -2.0 16.75 -2.3 16.9 -3.1 16.95 -5.7 16.35 -8.1 15.7 -9.65 15.05 -10.9 14.5 -13.9 12.75 -15.1 12.0 M-6.4 -1.5 L-5.95 -4.2 Q-5.6 -6.3 -4.8 -7.7 L-4.6 -7.6 Q-4.75 -7.8 -5.0 -7.8 -6.3 -7.8 -7.0 -2.7 -7.0 -1.7 -6.4 -1.5 M-11.6 -11.3 L-10.1 -11.1 Q-10.1 -10.4 -9.6 -9.6 L-8.75 -8.75 -7.95 -8.55 -8.75 -8.75 -9.6 -9.6 Q-10.1 -10.4 -10.1 -11.1 L-11.6 -11.3" fill="#ffffff" fill-rule="evenodd" stroke="none"/>
    <path d="M4.55 -8.2 L6.1 -7.6 7.4 -7.1 8.9 -6.6 8.95 -6.6 Q9.55 -6.3 9.55 -5.2 9.55 -1.45 12.45 0.3 15.3 2.0 17.05 -0.95 17.6 0.6 16.55 2.6 L15.85 3.75 Q13.9 6.45 13.0 8.5 12.1 10.55 11.95 11.3 L11.85 12.25 12.4 12.45 12.5 13.25 Q12.4 13.95 11.5 15.0 10.55 16.0 6.8 17.1 2.95 18.2 0.2 18.15 L-4.95 17.45 Q-7.4 16.85 -10.8 15.1 -13.55 13.7 -15.1 12.0 L-13.9 12.75 -10.9 14.5 -9.65 15.05 -8.1 15.7 -5.7 16.35 -3.1 16.95 -2.3 16.9 -2.0 16.75 -2.1 16.25 1.2 16.35 Q-0.3 8.9 -2.05 5.4 L-2.05 5.35 Q-2.45 4.6 -3.55 3.4 -4.65 2.2 -7.6 1.1 -10.6 -0.05 -11.8 1.4 -12.65 2.4 -13.3 3.95 L-13.35 3.7 Q-13.35 1.45 -12.4 0.5 -11.5 -0.45 -9.2 -0.35 -6.95 -0.25 -4.55 1.35 -2.15 2.95 -1.45 5.2 L-1.25 5.1 Q-0.65 4.8 -0.5 4.3 L-0.5 4.25 Q-0.95 2.7 -1.35 1.95 L-1.45 1.8 Q0.25 1.95 1.7 0.45 3.65 -1.5 3.65 -5.35 L3.4 -6.75 3.9 -7.1 Q4.55 -7.55 4.55 -8.0 L4.55 -8.2 M-14.0 -0.3 Q-14.6 -1.15 -14.55 -2.3 L-13.3 -2.0 Q-11.45 -2.0 -10.3 -3.45 L-9.25 -5.75 -7.95 -8.55 -7.15 -8.4 -8.45 -4.75 -8.9 -1.85 -11.45 -2.0 -13.3 -0.9 -14.0 -0.3 M16.55 2.6 L13.65 3.0 12.25 2.65 11.45 2.15 Q9.9 4.95 7.85 6.5 5.8 8.0 4.15 8.0 L1.95 7.95 Q1.4 7.95 0.8 7.4 L-0.2 4.95 0.2 5.35 0.3 5.45 3.2 6.0 5.0 5.8 6.4 5.35 7.2 4.9 8.5 3.2 9.65 1.4 8.3 -1.8 8.05 -3.5 Q7.95 -4.6 7.3 -5.0 L3.45 -6.75 3.4 -6.75 3.45 -6.75 7.3 -5.0 Q7.95 -4.6 8.05 -3.5 L8.3 -1.8 9.65 1.4 8.5 3.2 7.2 4.9 6.4 5.35 5.0 5.8 3.2 6.0 0.3 5.45 0.2 5.35 -0.2 4.95 0.8 7.4 Q1.4 7.95 1.95 7.95 L4.15 8.0 Q5.8 8.0 7.85 6.5 9.9 4.95 11.45 2.15 L12.25 2.65 13.65 3.0 16.55 2.6 M-4.6 -7.6 L-4.8 -7.7 Q-5.6 -6.3 -5.95 -4.2 L-6.4 -1.5 Q-7.0 -1.7 -7.0 -2.7 -6.3 -7.8 -5.0 -7.8 -4.75 -7.8 -4.6 -7.6 M11.85 12.25 L11.85 12.3 10.8 13.6 Q9.65 14.7 7.65 15.35 L3.45 16.25 Q2.9 13.25 1.85 10.15 L0.8 7.4 1.85 10.15 Q2.9 13.25 3.45 16.25 L7.65 15.35 Q9.65 14.7 10.8 13.6 L11.85 12.3 11.85 12.25 M-0.2 4.95 L-0.5 4.3 -0.2 4.95" fill="#d1b6b6" fill-rule="evenodd" stroke="none"/>
    <path d="M4.55 -8.2 L6.1 -7.6 7.4 -7.1 8.9 -6.6 8.95 -6.6 Q9.55 -6.3 9.55 -5.2 9.55 -1.45 12.45 0.3 15.3 2.0 17.05 -0.95 17.6 0.6 16.55 2.6 L15.85 3.75 Q13.9 6.45 13.0 8.5 12.1 10.55 11.95 11.3 L11.85 12.25 12.4 12.45 12.5 13.25 Q12.4 13.95 11.5 15.0 10.55 16.0 6.8 17.1 2.95 18.2 0.2 18.15 L-4.95 17.45 Q-7.4 16.85 -10.8 15.1 -13.55 13.7 -15.1 12.0 L-15.15 11.95 -15.75 11.2 -15.8 11.15 Q-16.2 11.35 -15.35 6.85 L-13.95 -0.25 -14.0 -0.3 Q-14.6 -1.15 -14.55 -2.3 L-14.55 -2.5 Q-14.55 -6.25 -13.75 -8.2 -12.7 -10.95 -11.6 -11.3 L-11.6 -11.85 -11.15 -12.85 -9.9 -13.2 -8.85 -12.65 Q-8.35 -12.4 -8.65 -11.85 L-8.75 -11.35 Q-8.95 -10.45 -6.15 -9.45 -3.35 -8.55 -2.25 -8.75 -1.15 -8.95 -0.35 -9.3 L0.45 -9.7 Q0.85 -9.45 1.2 -9.3 L3.9 -8.45 4.55 -8.2 M3.4 -6.75 L3.45 -6.75 7.3 -5.0 Q7.95 -4.6 8.05 -3.5 L8.3 -1.8 9.65 1.4 8.5 3.2 7.2 4.9 6.4 5.35 5.0 5.8 3.2 6.0 0.3 5.45 0.2 5.35 -0.2 4.95 0.8 7.4 Q1.4 7.95 1.95 7.95 L4.15 8.0 Q5.8 8.0 7.85 6.5 9.9 4.95 11.45 2.15 L12.25 2.65 13.65 3.0 16.55 2.6 M3.4 -6.75 L0.1 -8.05 -1.05 -7.7 -2.35 -7.4 -4.6 -7.6 -4.8 -7.7 Q-5.6 -6.3 -5.95 -4.2 L-6.4 -1.5 -6.45 -1.25 Q-4.85 -0.85 -3.3 0.2 -2.1 1.0 -1.45 1.8 L-1.35 1.95 Q-0.95 2.7 -0.5 4.25 L-0.5 4.3 -0.2 4.95 M0.8 7.4 L1.85 10.15 Q2.9 13.25 3.45 16.25 L7.65 15.35 Q9.65 14.7 10.8 13.6 L11.85 12.3 11.85 12.25 M-14.0 -0.3 L-13.3 -0.9 -11.45 -2.0 -8.9 -1.85 -8.45 -4.75 -7.15 -8.4 -7.95 -8.55 -8.75 -8.75 -9.6 -9.6 Q-10.1 -10.4 -10.1 -11.1 L-11.6 -11.3 M-13.3 3.95 Q-12.65 2.4 -11.8 1.4 -10.6 -0.05 -7.6 1.1 -4.65 2.2 -3.55 3.4 -2.45 4.6 -2.05 5.35 L-2.05 5.4 Q-0.3 8.9 1.2 16.35 L-2.1 16.25 M-13.3 3.95 L-13.85 5.3 Q-14.45 7.1 -14.85 10.05 L-12.05 12.65 -6.8 15.1 -2.7 16.15 -2.1 16.25" fill="none" stroke="#000000" stroke-linecap="round" stroke-linejoin="round" stroke-opacity="0.3019608" stroke-width="0.05"/>
  </g>
</svg>
