<?xml version="1.0" encoding="UTF-8" standalone="no"?>
<svg xmlns:xlink="http://www.w3.org/1999/xlink" height="35.9px" width="40.4px" xmlns="http://www.w3.org/2000/svg">
  <g transform="matrix(1.0, 0.0, 0.0, 1.0, 20.2, 17.95)">
    <path d="M10.95 -17.3 L10.8 -15.0 Q10.55 -12.7 9.7 -12.1 L9.6 -12.0 8.0 -10.75 7.65 -11.15 7.1 -11.7 5.45 -13.3 Q6.05 -14.25 9.0 -16.15 L10.95 -17.3 M-16.9 15.2 L-19.55 13.6 Q-20.2 12.95 -20.2 11.05 L-20.15 9.1 Q-19.95 8.15 -18.95 7.5 L-18.65 9.25 Q-18.0 10.5 -15.5 11.5 -12.05 12.8 -7.25 13.15 L-3.85 13.25 Q-4.0 13.85 -4.35 14.1 L-6.05 14.4 -9.05 14.15 -10.7 13.9 -14.25 13.4 -15.4 13.55 Q-16.15 13.9 -16.9 15.2 M-18.0 -2.7 L-17.6 -6.85 -17.3 -7.15 -16.2 -8.2 -15.1 -9.2 -12.8 -11.15 -11.5 -12.2 -11.05 -12.45 -9.25 -13.05 -7.25 -13.25 0.25 -12.75 2.3 -12.5 2.7 -12.35 3.15 -10.0 3.15 -7.2 3.0 -4.85 2.15 -2.3 Q1.05 -0.1 -0.6 -0.1 L-3.6 -0.15 Q-9.35 -0.35 -12.85 -1.3 L-18.0 -2.7 M-10.6 -13.65 L-10.95 -13.5 -14.1 -11.9 -11.05 -14.7 -10.55 -15.1 -9.9 -15.55 -10.05 -15.1 -10.6 -13.65 M-2.0 4.6 L-2.1 4.6 -10.7 3.7 Q-17.6 2.65 -17.6 1.6 -17.6 0.6 -16.25 0.7 L-15.4 0.8 -10.6 1.65 -3.8 2.3 Q-0.85 2.65 -0.85 3.65 -0.85 4.55 -2.0 4.6 M-2.45 7.85 Q-2.45 8.85 -4.7 8.85 L-12.75 7.9 -16.65 7.15 -17.0 7.1 Q-17.85 6.95 -17.85 6.35 -17.85 5.4 -16.35 5.4 L-11.4 6.05 -10.7 6.25 -10.6 6.25 -4.05 7.1 -2.8 7.35 Q-2.45 7.5 -2.45 7.85" fill="#ffffff" fill-rule="evenodd" stroke="none"/>
    <path d="M10.95 -17.3 L12.3 -17.95 Q14.55 -17.95 17.35 -16.8 20.2 -15.6 20.2 -14.55 L16.35 -12.45 12.8 -10.3 Q11.2 -9.2 10.15 -8.0 L9.75 -8.6 8.9 -9.75 8.65 -10.05 8.0 -10.75 9.6 -12.0 9.7 -12.1 Q10.55 -12.7 10.8 -15.0 L10.95 -17.3 M2.7 -12.35 L3.15 -12.15 3.4 -11.95 4.15 -11.15 4.15 -11.1 6.45 -7.1 6.8 -6.45 Q7.85 -4.2 7.9 -2.85 L7.9 -2.65 Q7.9 -1.4 6.85 1.75 L6.85 1.8 6.6 2.45 4.4 8.4 4.1 9.45 5.0 12.1 Q5.0 13.2 4.1 14.6 3.25 15.95 2.4 16.4 -4.05 18.05 -5.85 17.95 L-5.95 17.95 -10.4 17.45 -14.0 16.6 -14.8 16.3 -16.9 15.2 Q-16.15 13.9 -15.4 13.55 L-14.25 13.4 -10.7 13.9 -9.05 14.15 -6.05 14.4 -4.35 14.1 Q-4.0 13.85 -3.85 13.25 L-3.8 13.25 -0.45 12.6 Q2.45 11.85 3.1 11.35 L3.65 10.7 3.9 10.05 4.1 9.45 3.9 10.05 3.65 10.7 3.1 11.35 Q2.45 11.85 -0.45 12.6 L-3.8 13.25 -3.85 13.25 -7.25 13.15 Q-12.05 12.8 -15.5 11.5 -18.0 10.5 -18.65 9.25 L-18.95 7.5 -18.75 3.9 -18.05 -2.35 -18.0 -2.7 -12.85 -1.3 Q-9.35 -0.35 -3.6 -0.15 L-0.6 -0.1 Q1.05 -0.1 2.15 -2.3 L3.0 -4.85 3.15 -7.2 3.15 -10.0 2.7 -12.35 M-9.9 -15.55 Q-8.2 -16.9 -7.75 -16.9 L-6.1 -16.45 -7.55 -15.15 -8.25 -14.55 -9.5 -13.8 -9.7 -13.95 -10.6 -13.65 -10.05 -15.1 -9.9 -15.55 M-2.45 7.85 Q-2.45 7.5 -2.8 7.35 L-4.05 7.1 -10.6 6.25 -10.7 6.25 -11.4 6.05 -16.35 5.4 Q-17.85 5.4 -17.85 6.35 -17.85 6.95 -17.0 7.1 L-16.65 7.15 -12.75 7.9 -4.7 8.85 Q-2.45 8.85 -2.45 7.85 M-2.0 4.6 Q-0.85 4.55 -0.85 3.65 -0.85 2.65 -3.8 2.3 L-10.6 1.65 -15.4 0.8 -16.25 0.7 Q-17.6 0.6 -17.6 1.6 -17.6 2.65 -10.7 3.7 L-2.1 4.6 -2.0 4.6" fill="#d1b6b6" fill-rule="evenodd" stroke="none"/>
    <path d="M10.15 -8.0 Q11.2 -9.2 12.8 -10.3 L16.35 -12.45 20.2 -14.55 Q20.2 -15.6 17.35 -16.8 14.55 -17.95 12.3 -17.95 L10.95 -17.3 M5.45 -13.3 Q6.05 -14.25 9.0 -16.15 L10.95 -17.3 M2.7 -12.35 L3.15 -12.15 M7.9 -2.85 L7.9 -2.65 Q7.9 -1.4 6.85 1.75 L6.85 1.8 6.6 2.45 4.4 8.4 4.1 9.45 5.0 12.1 Q5.0 13.2 4.1 14.6 3.25 15.95 2.4 16.4 -4.05 18.05 -5.85 17.95 L-5.95 17.95 -10.4 17.45 -14.0 16.6 -14.8 16.3 -16.9 15.2 -19.55 13.6 Q-20.2 12.95 -20.2 11.05 L-20.15 9.1 Q-19.95 8.15 -18.95 7.5 L-18.75 3.9 -18.05 -2.35 -18.0 -2.7 -17.6 -6.85 -17.3 -7.15 -16.2 -8.2 M-9.25 -13.05 L-7.25 -13.25 0.25 -12.75 2.3 -12.5 2.7 -12.35 M4.1 9.45 L3.9 10.05 3.65 10.7 3.1 11.35 Q2.45 11.85 -0.45 12.6 L-3.8 13.25 -3.85 13.25 -7.25 13.15 Q-12.05 12.8 -15.5 11.5 -18.0 10.5 -18.65 9.25 L-18.95 7.5 M-9.9 -15.55 Q-8.2 -16.9 -7.75 -16.9 L-6.1 -16.45 -7.55 -15.15 -8.25 -14.55 -9.5 -13.8 M-14.1 -11.9 L-11.05 -14.7 -10.55 -15.1 -9.9 -15.55" fill="none" stroke="#000000" stroke-linecap="round" stroke-linejoin="round" stroke-opacity="0.3019608" stroke-width="0.05"/>
  </g>
</svg>
