<?xml version="1.0" encoding="UTF-8" standalone="no"?>
<svg xmlns:xlink="http://www.w3.org/1999/xlink" height="31.7px" width="38.65px" xmlns="http://www.w3.org/2000/svg">
  <g transform="matrix(1.0, 0.0, 0.0, 1.0, 19.3, 15.85)">
    <path d="M-13.2 4.25 L-14.8 2.9 Q-16.3 0.7 -16.05 -2.3 -15.8 -5.35 -13.65 -7.35 -11.55 -9.45 -8.85 -9.4 -6.2 -9.4 -4.5 -7.35 -4.6 -5.5 -5.0 -3.75 -6.1 2.95 -13.2 4.25 M-4.85 2.2 L-5.5 3.0 Q-6.15 3.4 -6.65 3.95 L-4.85 2.2 M-10.85 -5.35 L-9.8 -5.7 Q-9.95 -6.7 -11.4 -6.5 L-12.75 -5.85 Q-15.7 -2.8 -13.4 -0.15 -12.9 0.35 -12.45 0.05 -12.3 0.05 -12.3 0.2 -11.6 1.2 -10.2 1.2 -9.1 1.25 -7.95 0.35 -7.0 -0.7 -6.8 -2.1 -6.7 -3.7 -7.4 -4.6 L-7.7 -4.85 Q-8.4 -5.6 -9.55 -5.65 L-10.85 -5.35" fill="#ffcc00" fill-rule="evenodd" stroke="none"/>
    <path d="M-4.5 -7.35 L-3.4 -5.15 Q-3.05 -3.7 -3.25 -2.2 -3.45 0.2 -4.65 1.95 L-4.85 2.2 -6.65 3.95 Q-8.35 4.95 -10.3 5.0 -11.95 4.85 -13.2 4.25 -6.1 2.95 -5.0 -3.75 -4.6 -5.5 -4.5 -7.35 M-12.45 0.05 Q-12.9 0.35 -13.4 -0.15 -15.7 -2.8 -12.75 -5.85 L-11.4 -6.5 Q-9.95 -6.7 -9.8 -5.7 L-10.85 -5.35 -11.3 -5.05 -11.6 -4.85 -11.75 -4.85 -11.8 -4.7 Q-12.75 -3.75 -12.85 -2.25 -13.0 -1.0 -12.45 0.05" fill="#e6941a" fill-rule="evenodd" stroke="none"/>
    <path d="M-13.2 4.25 L-14.8 2.9 Q-16.3 0.7 -16.05 -2.3 -15.8 -5.35 -13.65 -7.35 -11.55 -9.45 -8.85 -9.4 -6.2 -9.4 -4.5 -7.35 L-3.4 -5.15 Q-3.05 -3.7 -3.25 -2.2 -3.45 0.2 -4.65 1.95 L-4.85 2.2 -5.5 3.0 Q-6.15 3.4 -6.65 3.95 -8.35 4.95 -10.3 5.0 -11.95 4.85 -13.2 4.25 M-10.85 -5.35 L-9.55 -5.65 Q-8.4 -5.6 -7.7 -4.85 L-7.4 -4.6 Q-6.7 -3.7 -6.8 -2.1 -7.0 -0.7 -7.95 0.35 -9.1 1.25 -10.2 1.2 -11.6 1.2 -12.3 0.2 -12.3 0.05 -12.45 0.05 -13.0 -1.0 -12.85 -2.25 -12.75 -3.75 -11.8 -4.7 L-11.75 -4.85 -11.6 -4.85 -11.3 -5.05 -10.85 -5.35" fill="none" stroke="#000000" stroke-linecap="round" stroke-linejoin="round" stroke-opacity="0.2" stroke-width="0.05"/>
    <path d="M-7.45 -2.2 L-10.05 -2.55 -10.2 -4.3 Q-13.1 -6.4 -2.8 -10.45 5.95 -13.85 10.95 -15.3 L11.25 -14.8 11.75 -13.85 Q9.95 -13.2 8.35 -12.25 2.55 -9.0 -2.8 -4.95 L-4.1 -6.25 -5.05 -5.45 -6.0 -4.15 -7.45 -2.2 M-17.95 7.0 L-19.25 5.55 Q-19.75 2.3 -16.5 0.2 L-14.75 -0.6 -13.9 -0.3 Q-14.55 -0.1 -14.9 0.5 -17.15 3.1 -17.8 6.5 L-17.95 7.0 M-5.35 12.65 Q-8.6 10.35 -10.35 6.8 -12.65 2.45 -11.35 -1.25 L-10.2 -2.2 -8.25 -0.95 -8.45 -0.95 Q-5.35 5.7 -0.7 7.45 L-0.5 7.6 Q-1.65 8.45 -3.45 8.1 L-3.75 8.1 Q-5.2 8.9 -5.35 10.85 L-5.35 12.65" fill="#996600" fill-rule="evenodd" stroke="none"/>
    <path d="M10.95 -15.3 L12.4 -15.6 Q13.85 -16.1 15.8 -15.6 17.55 -15.3 19.35 -12.25 12.85 -11.9 9.65 -10.45 L8.7 -10.15 8.5 -9.95 Q5.15 -8.35 0.45 -5.15 L-1.65 -3.85 Q-4.7 -2.2 -7.0 -2.2 L-7.45 -2.2 -6.0 -4.15 -5.05 -5.45 -4.1 -6.25 -2.8 -4.95 Q2.55 -9.0 8.35 -12.25 9.95 -13.2 11.75 -13.85 L11.25 -14.8 10.95 -15.3 M-13.9 -0.3 L-13.45 -0.1 -13.45 0.05 Q-13.1 -0.1 -12.95 0.2 -16.2 4.05 -15.85 9.4 L-17.95 7.0 -17.8 6.5 Q-17.15 3.1 -14.9 0.5 -14.55 -0.1 -13.9 -0.3 M-0.5 7.6 L0.45 7.95 0.75 8.1 Q4.5 9.4 6.75 9.4 9.15 9.25 10.45 10.2 L10.8 14.4 2.85 15.85 Q-1.15 15.05 -4.1 13.45 L-5.35 12.65 -5.35 10.85 Q-5.2 8.9 -3.75 8.1 L-3.45 8.1 Q-1.65 8.45 -0.5 7.6" fill="#764701" fill-rule="evenodd" stroke="none"/>
    <path d="M10.95 -15.3 L12.4 -15.6 Q13.85 -16.1 15.8 -15.6 17.55 -15.3 19.35 -12.25 12.85 -11.9 9.65 -10.45 L8.7 -10.15 8.5 -9.95 Q5.15 -8.35 0.45 -5.15 L-1.65 -3.85 Q-4.7 -2.2 -7.0 -2.2 L-7.45 -2.2 -10.05 -2.55 -10.2 -4.3 Q-13.1 -6.4 -2.8 -10.45 5.95 -13.85 10.95 -15.3 M-17.95 7.0 L-19.25 5.55 Q-19.75 2.3 -16.5 0.2 L-14.75 -0.6 -13.9 -0.3 -13.45 -0.1 -13.45 0.05 Q-13.1 -0.1 -12.95 0.2 -16.2 4.05 -15.85 9.4 L-17.95 7.0 M-5.35 12.65 Q-8.6 10.35 -10.35 6.8 -12.65 2.45 -11.35 -1.25 L-10.2 -2.2 -8.25 -0.95 M-8.45 -0.95 Q-5.35 5.7 -0.7 7.45 L-0.5 7.6 0.45 7.95 0.75 8.1 Q4.5 9.4 6.75 9.4 9.15 9.25 10.45 10.2 L10.8 14.4 2.85 15.85 Q-1.15 15.05 -4.1 13.45 L-5.35 12.65" fill="none" stroke="#000000" stroke-linecap="round" stroke-linejoin="round" stroke-opacity="0.4" stroke-width="0.05"/>
    <path d="M-13.05 -6.95 Q-11.05 -6.15 -13.35 -4.65 -14.8 -3.8 -14.9 -4.8 -15.25 -6.3 -13.05 -6.95 M-10.9 -7.8 Q-10.95 -8.0 -9.85 -8.3 L-9.15 -8.65 -7.65 -8.65 Q-7.1 -8.65 -7.4 -8.3 L-7.6 -8.15 -8.45 -7.8 -10.7 -7.65 -10.9 -7.8" fill="#ffffff" fill-rule="evenodd" stroke="none"/>
  </g>
</svg>
