<?xml version="1.0" encoding="UTF-8" standalone="no"?>
<svg xmlns:xlink="http://www.w3.org/1999/xlink" height="30.85px" width="40.9px" xmlns="http://www.w3.org/2000/svg">
  <g transform="matrix(1.0, 0.0, 0.0, 1.0, 19.35, 13.1)">
    <path d="M-13.2 6.45 L-15.1 4.95 Q-16.8 2.6 -16.1 -0.55 -15.35 -3.85 -12.45 -6.0 -9.5 -8.3 -6.15 -8.25 -2.75 -8.25 -0.9 -6.0 -1.25 -4.05 -1.95 -2.1 -4.15 5.1 -13.2 6.45 M-2.5 4.25 L-3.45 5.1 -4.95 6.1 -2.5 4.25 M-9.15 -3.85 L-7.75 -4.25 Q-7.8 -5.3 -9.65 -5.1 L-11.45 -4.45 Q-15.55 -1.15 -12.95 1.75 -12.4 2.2 -11.8 1.95 -11.6 1.95 -11.65 2.1 -10.9 3.2 -9.1 3.15 -7.7 3.2 -6.2 2.25 -4.8 1.1 -4.4 -0.4 -4.1 -2.05 -4.9 -3.0 L-5.15 -3.35 Q-6.0 -4.15 -7.4 -4.2 L-9.15 -3.85" fill="#ffcc00" fill-rule="evenodd" stroke="none"/>
    <path d="M-0.9 -6.0 Q-0.1 -4.9 0.25 -3.65 0.55 -2.15 0.1 -0.5 -0.5 2.1 -2.2 3.95 L-2.5 4.25 -4.95 6.1 Q-7.2 7.2 -9.7 7.25 -11.8 7.1 -13.2 6.45 -4.15 5.1 -1.95 -2.1 -1.25 -4.05 -0.9 -6.0 M-11.8 1.95 Q-12.4 2.2 -12.95 1.75 -15.55 -1.15 -11.45 -4.45 L-9.65 -5.1 Q-7.8 -5.3 -7.75 -4.25 L-9.15 -3.85 -9.7 -3.6 Q-10.1 -3.45 -10.15 -3.3 L-10.35 -3.3 -10.4 -3.15 Q-11.75 -2.15 -12.0 -0.5 -12.35 0.85 -11.8 1.95" fill="#e6941a" fill-rule="evenodd" stroke="none"/>
    <path d="M-13.2 6.45 L-15.1 4.95 Q-16.8 2.6 -16.1 -0.55 -15.35 -3.85 -12.45 -6.0 -9.5 -8.3 -6.15 -8.25 -2.75 -8.25 -0.9 -6.0 -0.1 -4.9 0.25 -3.65 0.55 -2.15 0.1 -0.5 -0.5 2.1 -2.2 3.95 L-2.5 4.25 -3.45 5.1 -4.95 6.1 Q-7.2 7.2 -9.7 7.25 -11.8 7.1 -13.2 6.45 M-9.15 -3.85 L-7.4 -4.2 Q-6.0 -4.15 -5.15 -3.35 L-4.9 -3.0 Q-4.1 -2.05 -4.4 -0.4 -4.8 1.1 -6.2 2.25 -7.7 3.2 -9.1 3.15 -10.9 3.2 -11.65 2.1 -11.6 1.95 -11.8 1.95 -12.35 0.85 -12.0 -0.5 -11.75 -2.15 -10.4 -3.15 L-10.35 -3.3 -10.15 -3.3 Q-10.1 -3.45 -9.7 -3.6 L-9.15 -3.85" fill="none" stroke="#000000" stroke-linecap="round" stroke-linejoin="round" stroke-opacity="0.2" stroke-width="0.05"/>
    <path d="M-14.25 -3.3 Q-14.55 -4.9 -11.7 -5.65 -9.35 -4.75 -12.35 -3.1 -14.25 -2.2 -14.25 -3.3 M-4.65 -7.45 Q-3.95 -7.45 -4.4 -7.05 L-4.65 -6.9 -5.85 -6.55 -8.65 -6.35 -8.9 -6.55 -7.5 -7.05 -6.55 -7.45 -4.65 -7.45" fill="#ffffff" fill-rule="evenodd" stroke="none"/>
    <path d="M13.15 -12.55 L14.6 -12.85 Q16.05 -13.35 18.0 -12.85 19.75 -12.55 21.55 -9.5 15.05 -9.15 11.85 -7.7 L10.9 -7.4 10.7 -7.2 Q7.35 -5.6 2.65 -2.4 L0.55 -1.1 Q-2.5 0.55 -4.8 0.55 L-5.25 0.55 Q-4.8 -0.45 -3.8 -1.4 L-2.85 -2.7 -1.9 -3.5 -0.6 -2.2 Q4.75 -6.25 10.55 -9.5 L13.95 -11.1 13.45 -12.05 13.15 -12.55" fill="#764701" fill-rule="evenodd" stroke="none"/>
    <path d="M13.15 -12.55 L13.45 -12.05 13.95 -11.1 10.55 -9.5 Q4.75 -6.25 -0.6 -2.2 L-1.9 -3.5 -2.85 -2.7 -3.8 -1.4 Q-4.8 -0.45 -5.25 0.55 L-7.85 0.2 -8.0 -1.55 Q-10.9 -3.65 -0.6 -7.7 8.15 -11.1 13.15 -12.55" fill="#996600" fill-rule="evenodd" stroke="none"/>
    <path d="M-5.25 0.55 L-4.8 0.55 Q-2.5 0.55 0.55 -1.1 L2.65 -2.4 Q7.35 -5.6 10.7 -7.2 L10.9 -7.4 11.85 -7.7 Q15.05 -9.15 21.55 -9.5 19.75 -12.55 18.0 -12.85 16.05 -13.35 14.6 -12.85 L13.15 -12.55 M-5.25 0.55 L-7.85 0.2 -8.0 -1.55 Q-10.9 -3.65 -0.6 -7.7 8.15 -11.1 13.15 -12.55" fill="none" stroke="#000000" stroke-linecap="round" stroke-linejoin="round" stroke-opacity="0.4" stroke-width="0.05"/>
    <path d="M0.15 9.9 L1.1 10.25 Q1.2 10.25 1.35 10.4 4.95 11.6 7.1 11.6 9.35 11.5 10.6 12.4 L10.95 16.4 3.35 17.75 Q-0.45 17.0 -3.25 15.5 L-4.45 14.7 -4.45 13.0 Q-4.3 11.15 -2.95 10.4 L-2.65 10.4 Q-0.95 10.7 0.15 9.9" fill="#764701" fill-rule="evenodd" stroke="none"/>
    <path d="M-4.45 14.7 Q-7.55 12.5 -9.2 9.15 -11.4 5.0 -10.2 1.45 L-9.1 0.55 -7.2 1.75 -7.4 1.75 Q-4.45 8.1 0.0 9.75 L0.15 9.9 Q-0.95 10.7 -2.65 10.4 L-2.95 10.4 Q-4.3 11.15 -4.45 13.0 L-4.45 14.7" fill="#996600" fill-rule="evenodd" stroke="none"/>
    <path d="M0.15 9.9 L1.1 10.25 Q1.2 10.25 1.35 10.4 4.95 11.6 7.1 11.6 9.35 11.5 10.6 12.4 L10.95 16.4 3.35 17.75 Q-0.45 17.0 -3.25 15.5 L-4.45 14.7 Q-7.55 12.5 -9.2 9.15 -11.4 5.0 -10.2 1.45 L-9.1 0.55 -7.2 1.75 M-7.4 1.75 Q-4.45 8.1 0.0 9.75 L0.15 9.9 Z" fill="none" stroke="#000000" stroke-linecap="round" stroke-linejoin="round" stroke-opacity="0.4" stroke-width="0.05"/>
    <path d="M-12.8 0.9 L-12.25 1.15 -12.25 1.35 Q-11.85 1.15 -11.65 1.5 -15.6 6.15 -15.15 12.6 L-17.7 9.7 -17.5 9.1 Q-16.75 5.0 -14.0 1.9 -13.6 1.15 -12.8 0.9" fill="#764701" fill-rule="evenodd" stroke="none"/>
    <path d="M-17.7 9.7 L-19.25 7.95 Q-19.85 4.05 -15.95 1.5 L-13.85 0.55 Q-13.4 0.55 -12.8 0.9 -13.6 1.15 -14.0 1.9 -16.75 5.0 -17.5 9.1 L-17.7 9.7" fill="#996600" fill-rule="evenodd" stroke="none"/>
    <path d="M-12.8 0.9 L-12.25 1.15 -12.25 1.35 Q-11.85 1.15 -11.65 1.5 -15.6 6.15 -15.15 12.6 L-17.7 9.7 -19.25 7.95 Q-19.85 4.05 -15.95 1.5 L-13.85 0.55 Q-13.4 0.55 -12.8 0.9 Z" fill="none" stroke="#000000" stroke-linecap="round" stroke-linejoin="round" stroke-opacity="0.4" stroke-width="0.05"/>
    <path d="M-11.65 -2.45 L-11.05 -2.3 -10.95 -2.45 Q-10.75 -2.05 -10.4 -2.2 -10.6 -8.25 -6.3 -13.1 L-10.05 -12.35 -10.3 -11.8 Q-12.2 -8.05 -12.0 -3.95 -12.1 -3.15 -11.65 -2.45" fill="#764701" fill-rule="evenodd" stroke="none"/>
    <path d="M-11.65 -2.45 Q-12.1 -3.15 -12.0 -3.95 -12.2 -8.05 -10.3 -11.8 L-10.05 -12.35 -12.4 -12.0 Q-15.3 -9.25 -13.75 -4.85 L-12.7 -2.8 -11.65 -2.45" fill="#996600" fill-rule="evenodd" stroke="none"/>
    <path d="M-10.05 -12.35 L-6.3 -13.1 Q-10.6 -8.25 -10.4 -2.2 -10.75 -2.05 -10.95 -2.45 L-11.05 -2.3 -11.65 -2.45 M-10.05 -12.35 L-12.4 -12.0 Q-15.3 -9.25 -13.75 -4.85 L-12.7 -2.8 -11.65 -2.45" fill="none" stroke="#000000" stroke-linecap="round" stroke-linejoin="round" stroke-opacity="0.4" stroke-width="0.05"/>
  </g>
</svg>
