<?xml version="1.0" encoding="UTF-8" standalone="no"?>
<svg xmlns:xlink="http://www.w3.org/1999/xlink" height="27.8px" width="30.7px" xmlns="http://www.w3.org/2000/svg">
  <g transform="matrix(1.0, 0.0, 0.0, 1.0, 15.35, 13.9)">
    <path d="M5.4 -11.45 L5.7 -11.45 5.9 -11.45 Q6.75 -11.35 7.8 -10.6 L7.95 -10.45 8.75 -8.95 8.75 -8.9 10.2 -5.9 10.25 -5.8 7.25 -3.05 3.55 0.2 0.85 2.15 0.4 1.35 -0.9 -1.1 -1.3 -1.7 5.4 -11.45 M4.15 4.75 L3.9 4.65 1.65 3.15 Q9.05 -2.45 11.3 -4.5 13.7 -1.85 15.35 -2.6 L14.4 -0.05 Q13.7 1.75 9.2 5.3 L9.05 5.75 8.9 6.95 8.9 7.05 Q8.85 8.05 9.1 9.0 L9.15 9.25 9.55 10.35 3.65 13.9 3.65 11.1 3.65 8.25 3.65 7.2 Q3.65 5.4 4.15 4.75 6.05 5.5 9.2 5.3 6.05 5.5 4.15 4.75 M8.9 7.05 Q5.85 8.35 4.0 8.35 L3.65 8.25 4.0 8.35 Q5.85 8.35 8.9 7.05 M9.1 9.0 Q8.6 9.45 7.4 9.9 L4.8 11.0 3.65 11.1 4.8 11.0 7.4 9.9 Q8.6 9.45 9.1 9.0" fill="#a78383" fill-rule="evenodd" stroke="none"/>
    <path d="M-1.3 -1.7 L-1.45 -1.95 Q-2.0 -2.8 -4.8 -3.95 -3.5 -7.3 -0.85 -10.8 L0.8 -10.9 1.4 -10.95 5.4 -11.45 -1.3 -1.7 M-10.7 -13.55 L-10.2 -13.9 Q-11.8 -8.9 -11.9 -5.85 L-13.5 -5.75 -14.15 -5.55 Q-14.9 -4.95 -14.75 -4.05 -15.45 -5.75 -15.35 -6.5 -15.1 -8.15 -14.25 -9.9 L-13.15 -11.45 -10.85 -13.45 -10.7 -13.55 M-8.95 -12.05 L-5.4 -10.95 -3.5 -10.65 Q-5.55 -7.0 -6.25 -4.5 L-7.05 -4.75 -8.95 -5.35 -10.5 -5.7 Q-9.7 -10.25 -8.95 -12.05" fill="#d6baba" fill-rule="evenodd" stroke="none"/>
    <path d="M5.4 -11.45 L5.7 -11.45 5.9 -11.45 Q6.75 -11.35 7.8 -10.6 L7.95 -10.45 8.75 -8.95 8.75 -8.9 10.2 -5.9 10.25 -5.8 7.25 -3.05 3.55 0.2 0.85 2.15 0.4 1.35 -0.9 -1.1 -1.3 -1.7 -1.45 -1.95 Q-2.0 -2.8 -4.8 -3.95 -3.5 -7.3 -0.85 -10.8 L0.8 -10.9 1.4 -10.95 5.4 -11.45 M4.15 4.75 L3.9 4.65 1.65 3.15 Q9.05 -2.45 11.3 -4.5 13.7 -1.85 15.35 -2.6 L14.4 -0.05 Q13.7 1.75 9.2 5.3 M9.05 5.75 L8.9 6.95 8.9 7.05 Q8.85 8.05 9.1 9.0 L9.15 9.25 9.55 10.35 3.65 13.9 M4.15 4.75 Q6.05 5.5 9.2 5.3 M-10.7 -13.55 L-10.2 -13.9 Q-11.8 -8.9 -11.9 -5.85 L-13.5 -5.75 -14.15 -5.55 Q-14.9 -4.95 -14.75 -4.05 -15.45 -5.75 -15.35 -6.5 -15.1 -8.15 -14.25 -9.9 L-13.15 -11.45 -10.85 -13.45 -10.7 -13.55 M-8.95 -12.05 Q-9.7 -10.25 -10.5 -5.7 L-8.95 -5.35 -7.05 -4.75 -6.25 -4.5 Q-5.55 -7.0 -3.5 -10.65 L-5.4 -10.95 -8.95 -12.05 M3.65 11.1 L4.8 11.0 7.4 9.9 Q8.6 9.45 9.1 9.0 M3.65 8.25 L4.0 8.35 Q5.85 8.35 8.9 7.05" fill="none" stroke="#000000" stroke-linecap="round" stroke-linejoin="round" stroke-opacity="0.3019608" stroke-width="0.05"/>
  </g>
</svg>
