<?xml version="1.0" encoding="UTF-8" standalone="no"?>
<svg xmlns:xlink="http://www.w3.org/1999/xlink" height="25.05px" width="43.2px" xmlns="http://www.w3.org/2000/svg">
  <g transform="matrix(1.0, 0.0, 0.0, 1.0, 21.6, 15.75)">
    <path d="M-8.6 2.45 L3.65 -1.4 Q5.6 -1.85 6.1 -2.85 L7.7 -6.7 6.5 -6.7 Q4.5 -5.85 0.6 -5.15 L0.0 -5.0 -7.35 -3.45 -6.4 -6.6 -1.45 -7.85 5.85 -9.7 13.85 -11.65 5.85 -9.7 -1.45 -7.85 -6.4 -6.6 Q-5.4 -7.55 -3.6 -8.9 -1.3 -10.65 -0.45 -10.95 L20.25 -14.65 18.05 -13.2 Q16.35 -11.95 13.85 -11.65 L13.85 -9.9 Q10.35 0.4 9.25 4.85 5.85 6.4 1.05 6.85 L-10.05 7.55 1.05 6.85 Q5.85 6.4 9.25 4.85 8.9 5.9 8.65 7.45 L7.8 7.45 0.6 8.85 -10.35 9.25 -10.05 7.55 -8.9 2.7 -8.6 2.45 M6.25 3.25 Q6.25 3.95 5.3 5.0 4.25 6.1 3.2 6.05 2.4 6.05 1.65 5.35 0.85 4.55 0.85 3.6 0.8 2.75 1.5 2.0 2.2 1.3 3.0 1.3 L4.95 1.45 Q6.2 1.75 6.25 3.25 6.2 1.75 4.95 1.45 L3.0 1.3 Q2.2 1.3 1.5 2.0 0.8 2.75 0.85 3.6 0.85 4.55 1.65 5.35 2.4 6.05 3.2 6.05 4.25 6.1 5.3 5.0 6.25 3.95 6.25 3.25 M-21.6 -0.3 L-21.55 -0.35 -21.6 -0.35 Q-21.6 -2.85 -20.9 -8.05 L-20.35 -10.75 -19.9 -13.2 Q-19.75 -14.15 -19.2 -13.9 L-16.85 -14.55 -16.45 -14.7 -13.4 -15.75 Q-12.7 -14.75 -10.65 -13.1 -8.7 -11.4 -7.45 -10.85 L-7.45 -10.75 Q-7.65 -9.05 -7.95 -8.3 -10.35 -5.7 -11.75 -4.75 L-12.0 -4.6 -11.25 -7.3 -11.1 -7.6 -7.45 -10.75 -11.1 -7.6 -11.25 -7.3 -12.0 -4.6 -12.05 -4.55 -15.95 -7.95 -18.5 -10.45 -18.9 -7.05 -18.9 -6.55 Q-18.3 -4.05 -13.7 1.35 L-13.75 1.5 -13.65 1.45 Q-11.4 -0.05 -9.9 -0.65 L-10.65 1.3 -11.85 4.9 -15.1 7.15 -21.4 1.0 -21.6 -0.3 M-21.55 -0.35 L-14.8 5.45 -15.1 7.15 -14.8 5.45 -21.55 -0.35 M-11.25 -7.3 L-13.75 -8.8 Q-14.6 -9.15 -16.85 -11.6 L-19.2 -13.9 -16.85 -11.6 Q-14.6 -9.15 -13.75 -8.8 L-11.25 -7.3 M-19.6 -2.3 L-19.2 -2.2 Q-17.9 -1.95 -17.9 -0.55 -17.9 0.9 -19.2 0.9 -19.65 0.9 -20.0 0.45 L-20.3 -0.6 -20.1 -1.65 -19.6 -2.3 -20.1 -1.65 -20.3 -0.6 -20.0 0.45 Q-19.65 0.9 -19.2 0.9 -17.9 0.9 -17.9 -0.55 -17.9 -1.95 -19.2 -2.2 L-19.6 -2.3 M-14.8 5.45 L-13.75 1.5 -14.8 5.45" fill="#ffffff" fill-rule="evenodd" stroke="none"/>
    <path d="M0.0 -5.0 L0.6 -5.15 Q4.5 -5.85 6.5 -6.7 L7.7 -6.7 6.1 -2.85 Q5.6 -1.85 3.65 -1.4 L-8.6 2.45 0.0 -5.0 M9.25 4.85 Q10.35 0.4 13.85 -9.9 L13.85 -11.65 Q16.35 -11.95 18.05 -13.2 L20.25 -14.65 20.55 -14.65 21.6 -8.2 Q21.6 -6.8 20.4 -5.2 L17.85 -2.1 Q17.2 -1.35 16.8 0.25 L16.2 2.7 Q15.3 5.45 13.95 6.3 12.3 7.3 8.65 7.45 8.9 5.9 9.25 4.85 M-11.75 -4.75 L-9.9 -0.75 -9.9 -0.65 Q-11.4 -0.05 -13.65 1.45 L-13.7 1.35 Q-18.3 -4.05 -18.9 -6.55 L-18.9 -7.05 -18.5 -10.45 -15.95 -7.95 -12.05 -4.55 -12.0 -4.5 -12.0 -4.6 -11.75 -4.75 M-18.9 -6.55 L-15.95 -7.95 -18.9 -6.55" fill="#d1b6b6" fill-rule="evenodd" stroke="none"/>
    <path d="M0.0 -5.0 L0.6 -5.15 Q4.5 -5.85 6.5 -6.7 L7.7 -6.7 6.1 -2.85 Q5.6 -1.85 3.65 -1.4 L-8.6 2.45 -8.9 2.7 -10.05 7.55 1.05 6.85 Q5.85 6.4 9.25 4.85 10.35 0.4 13.85 -9.9 L13.85 -11.65 5.85 -9.7 -1.45 -7.85 -6.4 -6.6 -7.35 -3.45 0.0 -5.0 -8.6 2.45 -8.9 2.6 -8.9 2.7 M13.85 -11.65 Q16.35 -11.95 18.05 -13.2 L20.25 -14.65 -0.45 -10.95 Q-1.3 -10.65 -3.6 -8.9 -5.4 -7.55 -6.4 -6.6 M20.25 -14.65 L20.55 -14.65 21.6 -8.2 Q21.6 -6.8 20.4 -5.2 L17.85 -2.1 Q17.2 -1.35 16.8 0.25 L16.2 2.7 Q15.3 5.45 13.95 6.3 12.3 7.3 8.65 7.45 L7.8 7.45 0.6 8.85 -10.35 9.25 -10.05 7.55 M6.25 3.25 Q6.2 1.75 4.95 1.45 L3.0 1.3 Q2.2 1.3 1.5 2.0 0.8 2.75 0.85 3.6 0.85 4.55 1.65 5.35 2.4 6.05 3.2 6.05 4.25 6.1 5.3 5.0 6.25 3.95 6.25 3.25 M8.65 7.45 Q8.9 5.9 9.25 4.85 M-21.55 -0.35 L-21.6 -0.35 -21.6 -0.3 -21.4 1.0 -15.1 7.15 -14.8 5.45 -21.55 -0.35 M-21.6 -0.35 Q-21.6 -2.85 -20.9 -8.05 L-20.35 -10.75 -19.9 -13.2 Q-19.75 -14.15 -19.2 -13.9 L-16.85 -14.55 -16.45 -14.7 -13.4 -15.75 Q-12.7 -14.75 -10.65 -13.1 -8.7 -11.4 -7.45 -10.85 L-7.45 -10.75 Q-7.65 -9.05 -7.95 -8.3 -10.35 -5.7 -11.75 -4.75 L-9.9 -0.75 -9.9 -0.65 -10.65 1.3 -11.85 4.9 -15.1 7.15 M-7.45 -10.75 L-11.1 -7.6 -11.25 -7.3 -12.0 -4.6 -11.75 -4.75 M-19.2 -13.9 L-16.85 -11.6 Q-14.6 -9.15 -13.75 -8.8 L-11.25 -7.3 M-15.95 -7.95 L-18.9 -6.55 Q-18.3 -4.05 -13.7 1.35 M-13.65 1.45 Q-11.4 -0.05 -9.9 -0.65 M-18.9 -6.55 L-18.9 -7.05 -18.5 -10.45 -15.95 -7.95 -12.05 -4.55 M-12.0 -4.6 L-12.0 -4.5 -12.05 -4.55 M-19.6 -2.3 L-20.1 -1.65 -20.3 -0.6 -20.0 0.45 Q-19.65 0.9 -19.2 0.9 -17.9 0.9 -17.9 -0.55 -17.9 -1.95 -19.2 -2.2 L-19.6 -2.3 M-13.65 1.45 L-13.75 1.5 -14.8 5.45 M-13.75 1.5 L-13.7 1.35" fill="none" stroke="#000000" stroke-linecap="round" stroke-linejoin="round" stroke-opacity="0.3019608" stroke-width="0.05"/>
  </g>
</svg>
