<?xml version="1.0" encoding="UTF-8" standalone="no"?>
<svg xmlns:xlink="http://www.w3.org/1999/xlink" height="23.95px" width="38.55px" xmlns="http://www.w3.org/2000/svg">
  <g transform="matrix(1.0, 0.0, 0.0, 1.0, 19.65, 14.95)">
    <path d="M-19.65 0.5 Q-19.65 -2.0 -18.95 -7.2 L-18.4 -9.9 -17.95 -12.35 Q-17.8 -13.3 -17.25 -13.05 L-14.9 -13.7 -14.5 -13.85 -11.45 -14.9 Q-10.75 -13.9 -8.7 -12.25 -6.75 -10.55 -5.5 -10.0 L-5.5 -9.9 Q-5.7 -8.2 -6.0 -7.45 -8.4 -4.85 -9.8 -3.9 -9.95 -3.85 -10.05 -3.75 L-10.1 -3.7 -14.0 -7.1 -16.55 -9.6 -16.95 -6.2 -16.95 -5.7 Q-16.35 -3.2 -11.75 2.2 L-11.8 2.35 -12.85 6.3 -19.6 0.5 -12.85 6.3 -11.8 2.35 -11.7 2.3 Q-9.45 0.8 -7.95 0.2 L-8.7 2.15 -9.9 5.75 -13.15 8.0 -19.45 1.85 Q-19.65 1.5 -19.65 0.55 L-19.6 0.5 -19.65 0.5 M-18.15 -0.8 L-17.65 -1.45 -17.25 -1.35 Q-15.95 -1.1 -15.95 0.3 -15.95 1.75 -17.25 1.75 L-18.05 1.3 -18.35 0.25 -18.15 -0.8 -18.35 0.25 -18.05 1.3 -17.25 1.75 Q-15.95 1.75 -15.95 0.3 -15.95 -1.1 -17.25 -1.35 L-17.65 -1.45 -18.15 -0.8 M-17.25 -13.05 L-14.9 -10.75 Q-12.65 -8.3 -11.8 -7.95 L-9.3 -6.45 -10.05 -3.75 -9.3 -6.45 -11.8 -7.95 Q-12.65 -8.3 -14.9 -10.75 L-17.25 -13.05 M-9.3 -6.45 L-9.15 -6.75 -5.5 -9.9 -9.15 -6.75 -9.3 -6.45 M-13.15 8.0 L-12.85 6.3 -13.15 8.0" fill="#ffffff" fill-rule="evenodd" stroke="none"/>
    <path d="M-9.8 -3.9 L-7.95 0.1 -7.95 0.2 Q-9.45 0.8 -11.7 2.3 L-11.75 2.2 Q-16.35 -3.2 -16.95 -5.7 L-16.95 -6.2 -16.55 -9.6 -14.0 -7.1 -10.1 -3.7 -10.05 -3.65 -10.05 -3.75 Q-9.95 -3.85 -9.8 -3.9 M-14.0 -7.1 L-16.95 -5.7 -14.0 -7.1" fill="#d1b6b6" fill-rule="evenodd" stroke="none"/>
    <path d="M-19.65 0.5 Q-19.65 -2.0 -18.95 -7.2 L-18.4 -9.9 -17.95 -12.35 Q-17.8 -13.3 -17.25 -13.05 L-14.9 -13.7 -14.5 -13.85 -11.45 -14.9 Q-10.75 -13.9 -8.7 -12.25 -6.75 -10.55 -5.5 -10.0 L-5.5 -9.9 Q-5.7 -8.2 -6.0 -7.45 -8.4 -4.85 -9.8 -3.9 L-7.95 0.1 -7.95 0.2 -8.7 2.15 -9.9 5.75 -13.15 8.0 -19.45 1.85 Q-19.65 1.5 -19.65 0.55 L-19.65 0.5 -19.6 0.5 -12.85 6.3 -11.8 2.35 -11.75 2.2 Q-16.35 -3.2 -16.95 -5.7 L-16.95 -6.2 -16.55 -9.6 -14.0 -7.1 -10.1 -3.7 M-10.05 -3.75 L-9.3 -6.45 -11.8 -7.95 Q-12.65 -8.3 -14.9 -10.75 L-17.25 -13.05 M-18.15 -0.8 L-18.35 0.25 -18.05 1.3 -17.25 1.75 Q-15.95 1.75 -15.95 0.3 -15.95 -1.1 -17.25 -1.35 L-17.65 -1.45 -18.15 -0.8 M-16.95 -5.7 L-14.0 -7.1 M-5.5 -9.9 L-9.15 -6.75 -9.3 -6.45 M-10.05 -3.75 L-10.05 -3.65 -10.1 -3.7 M-9.8 -3.9 Q-9.95 -3.85 -10.05 -3.75 M-11.7 2.3 Q-9.45 0.8 -7.95 0.2 M-11.7 2.3 L-11.8 2.35 M-12.85 6.3 L-13.15 8.0" fill="none" stroke="#000000" stroke-linecap="round" stroke-linejoin="round" stroke-opacity="0.3019608" stroke-width="0.05"/>
    <path d="M-11.3 2.15 L0.95 -1.7 Q2.9 -2.15 3.4 -3.15 L5.0 -7.0 3.8 -7.0 Q1.8 -6.15 -2.1 -5.45 L-2.7 -5.3 -10.05 -3.75 -9.1 -6.9 -4.15 -8.15 3.15 -10.0 11.15 -11.95 3.15 -10.0 -4.15 -8.15 -9.1 -6.9 -6.3 -9.2 Q-4.0 -10.95 -3.15 -11.25 14.7 -14.85 17.55 -14.95 L15.35 -13.5 Q13.65 -12.25 11.15 -11.95 L11.15 -10.2 Q7.65 0.1 6.55 4.55 3.15 6.1 -1.65 6.55 L-12.75 7.25 -1.65 6.55 Q3.15 6.1 6.55 4.55 6.2 5.6 5.95 7.15 L5.1 7.15 -2.1 8.55 -13.05 8.95 -12.75 7.25 -11.6 2.4 -11.3 2.15 M2.25 1.15 Q3.5 1.45 3.55 2.95 3.55 3.65 2.6 4.7 1.55 5.8 0.5 5.75 -0.3 5.75 -1.05 5.05 -1.85 4.25 -1.85 3.3 -1.9 2.45 -1.2 1.7 -0.5 1.0 0.3 1.0 L2.25 1.15 0.3 1.0 Q-0.5 1.0 -1.2 1.7 -1.9 2.45 -1.85 3.3 -1.85 4.25 -1.05 5.05 -0.3 5.75 0.5 5.75 1.55 5.8 2.6 4.7 3.55 3.65 3.55 2.95 3.5 1.45 2.25 1.15" fill="#ffffff" fill-rule="evenodd" stroke="none"/>
    <path d="M-2.7 -5.3 L-2.1 -5.45 Q1.8 -6.15 3.8 -7.0 L5.0 -7.0 3.4 -3.15 Q2.9 -2.15 0.95 -1.7 L-11.3 2.15 -2.7 -5.3 M6.55 4.55 Q7.65 0.1 11.15 -10.2 L11.15 -11.95 Q13.65 -12.25 15.35 -13.5 L17.55 -14.95 17.85 -14.95 18.9 -8.5 Q18.9 -7.1 17.7 -5.5 L15.15 -2.4 Q14.5 -1.65 14.1 -0.05 L13.5 2.4 Q12.6 5.15 11.25 6.0 9.6 7.0 5.95 7.15 6.2 5.6 6.55 4.55" fill="#d1b6b6" fill-rule="evenodd" stroke="none"/>
    <path d="M-2.7 -5.3 L-2.1 -5.45 Q1.8 -6.15 3.8 -7.0 L5.0 -7.0 3.4 -3.15 Q2.9 -2.15 0.95 -1.7 L-11.3 2.15 -11.6 2.4 -12.75 7.25 -1.65 6.55 Q3.15 6.1 6.55 4.55 7.65 0.1 11.15 -10.2 L11.15 -11.95 3.15 -10.0 -4.15 -8.15 -9.1 -6.9 -10.05 -3.75 -2.7 -5.3 -11.3 2.15 -11.6 2.3 -11.6 2.4 M17.55 -14.95 L15.35 -13.5 Q13.65 -12.25 11.15 -11.95 M17.55 -14.95 L17.85 -14.95 18.9 -8.5 Q18.9 -7.1 17.7 -5.5 L15.15 -2.4 Q14.5 -1.65 14.1 -0.05 L13.5 2.4 Q12.6 5.15 11.25 6.0 9.6 7.0 5.95 7.15 L5.1 7.15 -2.1 8.55 -13.05 8.95 -12.75 7.25 M-9.1 -6.9 L-6.3 -9.2 Q-4.0 -10.95 -3.15 -11.25 14.7 -14.85 17.55 -14.95 M5.95 7.15 Q6.2 5.6 6.55 4.55 M2.25 1.15 L0.3 1.0 Q-0.5 1.0 -1.2 1.7 -1.9 2.45 -1.85 3.3 -1.85 4.25 -1.05 5.05 -0.3 5.75 0.5 5.75 1.55 5.8 2.6 4.7 3.55 3.65 3.55 2.95 3.5 1.45 2.25 1.15" fill="none" stroke="#000000" stroke-linecap="round" stroke-linejoin="round" stroke-opacity="0.3019608" stroke-width="0.05"/>
  </g>
</svg>
