<svg xmlns="http://www.w3.org/2000/svg" width="34" height="34" shape-rendering="geometricPrecision" viewBox="0 0 34 34"><path fill="#ff9400" fill-rule="evenodd" d="M0.5166,0.3875 L0.5166,32.5470 L32.9022,32.5470 L32.9022,0.3875 Z"/><path fill="#FBF3DE" fill-rule="evenodd" d="M1.0655,28.6724 L1.0655,28.8338 L1.0978,28.8661 L1.0978,29.0275 L1.1301,29.0598 L1.1301,29.2213 L1.1624,29.2536 L1.1624,29.4150 L1.1947,29.4473 L1.1947,29.6087 L1.2915,30.0285 L1.2915,30.2222 L1.3884,30.2868 L2.0019,30.5128 L2.3894,30.7066 L2.6154,30.7711 L2.7768,30.8680 L3.0028,30.9326 L3.3903,31.1263 L3.6163,31.1909 L3.7778,31.2877 L4.0038,31.3523 L4.3913,31.5461 L4.6173,31.6106 L4.7787,31.7075 L5.0047,31.7721 L5.1662,31.8689 L5.3922,31.9335 L5.5537,32.0304 L5.6182,32.0304 L6.6515,32.4824 L7.0389,32.4824 L7.0712,32.4501 L7.4264,32.4501 L7.4587,32.4179 L7.8139,32.4179 L7.8462,32.3856 L8.2013,32.3856 L8.2336,32.3533 L8.5888,32.3533 L8.6211,32.3210 Z M33.2574,20.0190 L24.4425,27.7683 L24.5717,27.9620 L25.1529,28.5755 L25.3466,28.4786 L32.8053,23.0541 L32.8053,22.8604 L32.9022,22.4406 L32.9022,22.2469 L32.9991,21.8272 L32.9991,21.6334 L33.0959,21.2137 L33.0959,21.0199 L33.1928,20.6002 Z M1.9696,11.9468 L1.6467,14.0779 L7.1681,18.1140 L7.2327,17.9848 L7.9430,17.0807 L7.9430,17.0161 Z M5.5537,1.1947 L5.5214,1.2593 L5.5859,1.3884 L5.6505,1.4530 L5.8120,1.8082 L5.8765,1.8727 L6.0380,2.2279 L6.1026,2.2925 L6.2640,2.6477 L6.3286,2.7123 L6.7160,3.4872 L6.9744,3.9069 L7.1358,4.2621 L7.2004,4.3267 L7.3618,4.6819 L7.4264,4.7464 L7.5878,5.1016 L7.6524,5.1662 L7.8139,5.5214 L7.8784,5.5859 L8.0399,5.9411 L8.1045,6.0057 L8.2659,6.3609 L8.3305,6.4255 L8.4919,6.7806 L8.5565,6.8452 L9.9449,9.4606 L10.7521,9.1377 L10.7198,8.9763 L10.3647,8.2336 L10.1709,7.7170 L9.8158,6.9744 L9.6220,6.4577 L9.0408,5.1985 L8.8471,4.6819 L8.7179,4.4558 L8.7179,4.3913 L8.4919,3.9392 L8.4919,3.8746 L7.9430,2.6800 L7.9430,2.6154 L7.2650,1.0655 L6.9421,1.0655 L6.9098,1.0978 L6.2317,1.1301 L6.1994,1.1624 L5.9088,1.1624 L5.8765,1.1947 Z M0.9687,0.8718 L0.9687,1.2270 L1.0009,1.2593 L1.0655,2.0019 L1.0978,2.0342 L1.1947,2.9706 L1.2270,3.0028 L1.2270,3.1966 L1.2593,3.2289 L1.2593,3.4226 L1.3238,3.6809 L1.3238,3.9069 L8.3628,12.3989 L8.4596,12.4634 L8.5888,12.0437 L8.7502,11.6885 L8.7502,11.5594 L6.9744,8.7825 L6.6192,8.1690 L6.4255,7.9107 L5.3599,6.1671 L5.1662,5.9088 L4.1007,4.1652 L3.9069,3.9069 L2.8414,2.1633 L2.6477,1.9050 L1.9373,0.7426 L1.3884,0.7749 Z M32.8376,0.6458 L31.7721,0.4520 L28.6078,5.9734 L28.5755,6.1026 L29.6410,7.0066 L29.7702,6.9098 L32.7730,3.3257 L32.8053,3.1966 L32.8053,1.9050 L32.8376,1.8727 Z M21.5689,0.4843 L20.6648,0.4843 L20.6325,0.4520 L19.7930,0.4520 L19.7607,0.4843 L19.6315,1.7113 L19.5992,1.7436 L19.5992,1.9696 L19.5670,2.0019 L19.5670,2.2279 L19.5024,2.4862 L19.3409,4.0038 L19.2764,4.2621 L19.1149,5.7797 L19.0826,5.8120 L18.9535,7.0389 L18.9212,7.0712 L18.9212,7.2972 L18.8889,7.3295 L18.8889,7.5556 L18.8566,7.5878 L18.8566,7.7816 L18.8889,7.8139 L19.7607,7.8784 L20.7939,3.6809 L20.8585,3.5518 L21.4074,1.2593 L21.4720,1.1301 L21.6011,0.6135 Z"/><path fill="#733C2F" fill-rule="evenodd" d="M12.5280,1.3561 L10.8167,3.7778 L10.6553,4.0684 L10.6553,4.1975 L10.3970,5.2308 L10.3647,5.5214 L10.3970,5.5537 L10.3970,5.7474 L10.4615,5.9734 L10.4938,6.3932 L10.5584,6.6192 L10.5584,6.8129 L10.5907,6.8452 L10.5907,7.0389 L10.6553,7.2650 L10.6553,7.4587 L10.6876,7.4910 L10.6876,7.6847 L10.7198,7.7170 L10.8490,8.6534 L9.5575,9.4606 L8.4274,12.2051 L8.0076,14.7236 L8.7502,15.8860 L7.3941,18.2108 L7.3618,19.3409 L5.0693,21.3751 L4.8756,22.4084 L3.7132,23.1833 L3.3903,24.4748 L3.3257,24.6040 L3.2612,24.9592 L3.1966,25.0883 L3.2289,26.8642 L4.5850,28.4141 L6.3932,29.6410 L8.9117,28.9953 L10.0741,27.7037 L10.0095,26.9611 L9.9772,26.9288 L9.9772,26.6382 L9.9449,26.6059 L10.0095,25.3789 L9.3314,24.3780 L11.1396,22.7635 L11.2688,22.7312 L12.8832,24.0874 L12.9478,24.7331 L12.8509,24.9592 L12.8509,25.0560 L12.7540,25.2821 L12.7540,25.3789 L12.6572,25.6049 L12.6572,25.7018 L12.5603,25.9278 L12.4634,26.3476 L12.3343,26.6705 L12.3343,26.7673 L12.2051,27.0902 L10.6876,29.1567 L9.7189,32.1918 L26.8965,32.1273 L25.1206,28.3495 L24.0551,26.7673 L23.4739,24.8300 L22.8604,24.3457 L22.7958,22.4729 L24.0874,21.0845 L24.1842,20.4387 L24.2488,20.2450 L24.2488,20.0836 L24.3134,19.8898 L24.3134,19.7284 L24.3780,19.5347 L24.3780,19.3732 L24.4425,19.1795 L24.4748,18.8243 L24.5394,18.7597 L28.3818,19.7284 L29.5119,19.5670 L30.1899,18.5014 L31.6106,17.1130 L31.7075,16.5964 L31.7721,16.4349 L31.7721,16.3058 L31.8367,16.1443 L31.8367,16.0152 L31.9012,15.8538 L31.9012,15.7246 L31.9658,15.5632 L31.9658,15.4340 L32.0304,15.2726 L32.0304,15.1434 L32.0950,14.9820 L32.0950,14.8528 L32.1595,14.6914 L32.1595,14.5622 L32.2241,14.4008 L32.2241,14.2716 L32.2887,14.1102 L32.2887,13.9810 L32.3210,13.9487 L32.2564,13.0769 L32.2241,13.0446 L32.2241,12.7217 L32.1918,12.6895 L32.1918,12.3666 L32.1595,12.3343 L32.1595,12.1406 L31.8367,11.3333 L31.8044,11.1719 L30.7388,8.8794 L30.7388,8.8148 L30.5774,8.5242 L30.5774,8.4596 L30.2868,7.8784 L30.2868,7.8139 L30.1899,7.6201 L29.0275,6.3932 L28.1880,6.1026 L25.3466,6.8452 L25.2498,7.3618 L25.1852,7.5233 L25.1852,7.6524 L25.1206,7.8139 L25.1206,7.9430 L25.0560,8.1045 L25.0560,8.2336 L24.9915,8.3951 L24.9915,8.5242 L24.8300,8.6857 L24.1519,9.0731 L24.0874,9.5897 L24.0551,9.6220 L24.0551,9.8158 L23.9905,10.0418 L24.0228,10.2032 L25.3789,12.3020 L24.7654,13.1092 L24.7009,13.1092 L24.6686,13.0769 L24.5071,13.0769 L24.2488,13.0123 L23.4416,12.3020 L22.6667,12.1083 L22.5375,12.0437 L22.3115,12.0114 L22.1823,11.9468 L20.0836,12.4311 L19.3086,11.7854 L19.3732,11.7208 L19.4378,11.7208 L19.7284,11.5594 L19.7930,11.5594 L20.6971,11.1396 L20.8908,10.1064 L21.1168,9.8158 L21.5043,9.4283 L21.6980,8.0076 L20.4065,7.9753 L20.3742,7.9430 L19.5670,7.9430 L19.5347,7.9107 L18.3400,7.9430 L17.2745,7.0066 L16.6610,6.6515 L16.5641,6.1349 L16.4995,5.9734 L16.4027,5.3599 L16.3381,5.1985 L16.2089,4.4236 L16.1443,4.2621 L16.0475,3.6486 L15.9829,3.4872 L15.8538,2.7123 L15.7892,2.5508 L15.8538,1.3561 L14.3685,1.4530 L13.8841,2.6800 L13.7873,2.8414 L13.7873,2.9383 L13.1738,4.8433 L13.1415,4.8110 L13.1415,4.4236 L13.1092,4.3913 L13.1092,4.0361 L13.0769,4.0038 L13.0769,3.6486 L13.0446,3.6163 L13.0446,3.2289 L13.0123,3.1966 L13.0123,2.8414 L12.9801,2.8091 L12.8832,1.3884 Z"/><path fill="#FFF" fill-rule="evenodd" d="M16.4027,27.5745 L16.4027,27.6714 L16.1121,28.5109 L16.1121,28.6078 L15.8215,29.4473 L15.8215,29.5442 L15.5309,30.3837 L15.5309,30.4805 L15.4017,30.8034 L15.4017,30.9003 L15.2403,31.3200 L15.2403,31.4169 L15.0788,31.8367 L15.0788,31.9335 L14.9497,32.2564 L14.9497,32.3533 L14.7882,32.7730 L14.7236,33.0636 L18.8889,32.9668 L18.9212,32.9345 L19.9544,32.9345 L19.9867,32.9022 L21.0199,32.9022 L21.0522,32.8699 L22.0855,32.8699 L22.1178,32.8376 L21.9886,32.0950 L21.9240,31.9335 L21.8594,31.4815 L21.6980,30.8357 L21.6980,30.7066 L21.6334,30.5451 L21.5689,30.0931 L21.5043,29.9316 L21.4397,29.4796 L21.3751,29.3181 L21.2783,28.7047 L21.2137,28.5432 L21.1491,28.0912 L21.0199,27.6068 L19.8575,27.6068 L18.7274,28.6724 L17.5328,27.5745 L17.4359,27.5423 L16.4349,27.5423 Z M12.6572,24.6363 L12.7863,26.7028 L12.8509,26.7673 L14.3362,26.8319 L14.3685,26.8642 L14.9174,26.8642 L14.9497,26.8965 L15.5309,26.8965 L15.5632,26.9288 L16.2412,26.9288 L16.2735,26.9611 L17.2099,26.9611 L15.8215,25.4435 L16.4027,24.7331 Z M23.5708,24.6363 L23.5385,24.6040 L22.5698,24.6040 L22.5375,24.6363 L20.9231,24.6686 L21.5366,25.3789 L21.6334,25.5404 L20.2773,26.9934 L21.5043,26.9934 L21.5366,26.9611 L22.2469,26.9288 L22.2792,26.8965 L22.5375,26.8965 L22.5698,26.8642 L22.8281,26.8642 L22.8604,26.8319 L23.7645,26.7350 L23.7645,26.4444 L23.7322,26.4122 L23.7322,26.1538 L23.6999,26.1216 L23.6999,25.8310 L23.6676,25.7987 L23.6676,25.5404 L23.6353,25.5081 Z M20.5356,13.7550 L20.3419,13.0446 L20.3096,12.7863 L19.3732,11.7208 L19.2764,11.7208 L18.5660,11.9468 L18.4691,11.9468 L18.2431,12.0437 L17.9202,12.1083 L17.9202,12.1728 L18.7920,13.9164 L18.7920,13.9810 L18.0494,14.7559 L16.7901,15.1757 L16.5964,15.2726 L16.4995,15.2726 L16.2412,15.3694 L16.1121,15.3694 L16.0798,15.3371 L15.8860,15.3371 L15.2403,15.1757 L14.6591,14.8851 L14.5945,14.8851 L14.1425,14.6591 L13.6904,14.1425 L13.5935,14.1425 L13.2707,14.2716 L13.1738,14.2716 L12.6572,14.4653 L12.5603,14.4653 L12.0437,14.6591 L11.7531,14.7236 L11.7531,14.7882 L12.3343,15.8215 L12.4957,15.9183 L12.5603,15.9183 L14.6268,16.8870 L14.8205,16.8870 L14.8528,16.9193 L15.6600,17.0161 L15.8860,17.0807 L16.0798,17.0807 L16.1121,17.1130 L16.6933,17.1776 L16.7255,17.2099 L16.9839,17.2099 L18.5660,16.6933 L18.7597,16.5641 L20.0190,15.3371 L20.3742,14.3039 L20.5356,13.9487 Z"/><path fill="#ff9400" fill-rule="evenodd" d="M18.6952,23.0864 L16.5964,25.3143 L16.4349,25.5404 L18.7274,27.8329 L20.3096,26.3153 L21.0199,25.5726 L18.9535,23.3124 Z M17.8234,19.8253 L17.3390,20.0190 L16.0475,20.4387 L15.4017,20.6002 L14.7559,20.6971 L14.7236,20.7293 L14.4976,20.7293 L14.4653,20.7616 L13.8196,20.7616 L13.7873,20.7293 L13.5613,20.7293 L13.5290,20.6971 L13.2707,20.6648 L12.7217,20.4710 L12.2697,20.2450 L11.8177,19.9221 L11.8177,20.0513 L12.0114,20.4710 L12.1728,20.6971 L12.3666,20.8908 L12.6895,21.1168 L13.0123,21.2783 L13.5613,21.4397 L13.8841,21.4720 L13.9164,21.5043 L14.5945,21.5366 L14.6268,21.5043 L15.1111,21.4720 L15.4986,21.3751 L15.9506,21.2137 L16.4027,20.9877 L17.2422,20.4065 Z M22.9896,17.3713 L22.8604,17.9202 L22.6344,18.4368 L22.5052,18.6306 L21.8917,19.2441 L21.6980,19.3732 L21.1814,19.5670 L20.7293,19.6315 L20.6971,19.6638 L20.2127,19.6961 L20.1804,19.7284 L19.0826,19.7607 L19.4701,19.9544 L19.8575,20.0836 L20.2773,20.1804 L20.5356,20.1804 L20.5679,20.2127 L21.0522,20.2127 L21.0845,20.1804 L21.4720,20.1481 L21.7303,20.0836 L22.2469,19.8575 L22.6667,19.4701 L22.8927,19.0826 L22.9896,18.7920 L23.0218,18.5014 L23.0541,18.4691 L23.0541,17.6296 Z M14.5945,8.6211 L14.7559,8.8471 L15.1111,9.1700 L15.3694,9.2991 L15.6600,9.3314 L15.6923,9.3637 L16.1121,9.3314 L16.4672,9.2346 L16.7901,9.1054 L17.0807,8.8794 L16.8870,8.7825 L16.5318,8.7502 L16.4995,8.7179 L15.7892,8.6857 L15.7569,8.6534 L15.2726,8.6534 L15.2403,8.6211 Z M12.4311,1.0655 L12.2051,1.1947 L11.7854,1.6144 L11.4948,2.0019 L10.8167,3.1320 L10.3647,4.1652 L10.2678,4.5850 L10.2355,5.1339 L10.2032,5.1662 L10.2032,6.6515 L10.2355,6.6838 L10.2678,7.5556 L10.3001,7.5878 L10.3001,7.8784 L10.3324,7.9107 L10.3970,8.7179 L9.5575,9.2669 L9.2346,9.5897 L8.8794,10.2678 L8.2659,11.7854 L8.0399,12.5926 L8.0399,12.7217 L7.8784,13.3675 L7.7816,14.1425 L7.7493,14.1747 L7.7493,14.3685 L7.7170,14.4008 L7.7170,14.5945 L7.6847,14.6268 L7.6524,15.1434 L8.2982,15.8215 L8.1045,16.0152 L7.6524,16.5964 L7.2972,17.2422 L7.0712,18.0494 L7.0066,18.6306 L6.9744,18.6629 L6.9744,18.8889 L6.9421,18.9212 L6.9421,19.2118 L5.7797,19.9544 L5.3922,20.3096 L5.0693,20.7939 L4.8433,21.2460 L4.5850,21.8917 L4.5850,21.9886 L4.4881,22.2469 L3.9392,22.5052 L3.5195,22.8281 L3.3257,23.0218 L3.1643,23.3124 L2.7445,24.8946 L2.6800,25.3789 L2.6477,25.4112 L2.6477,25.6372 L2.6154,25.6695 L2.6477,26.1861 L2.9706,27.0579 L3.3257,27.7037 L3.5840,28.0589 L4.1330,28.6078 L4.5850,28.9953 L5.3922,29.5764 L5.8443,29.8025 L6.1349,29.8993 L6.4900,29.9316 L6.5223,29.9639 L7.0389,29.9316 L7.0712,29.8993 L7.2650,29.8993 L7.6847,29.8025 L8.4596,29.5119 L9.1377,29.0921 L9.8803,28.4786 L10.2355,28.0589 L10.3970,27.7683 L10.4615,27.5423 L10.4615,26.9934 L10.3324,26.5090 L10.1709,26.2184 L10.1709,26.0893 L10.2678,25.8632 L10.3001,25.4435 L10.2355,25.1852 L10.0741,24.8623 L9.8481,24.5394 L10.4938,24.1197 L11.3010,23.3447 L12.0114,23.8936 L12.6895,24.2165 L12.6895,24.4748 L12.7217,24.5071 L12.4634,24.8623 L12.2374,25.4112 L12.1728,26.1216 L12.1406,26.1538 L12.1406,26.4444 L11.2688,27.5423 L10.5584,28.6724 L9.9126,30.0608 L9.2669,31.8044 L9.2991,31.9012 L10.0418,31.9012 L10.3970,30.8034 L10.9782,29.4796 L11.4302,28.7047 L12.0114,27.8329 L12.7863,26.7996 L12.8186,25.9278 L12.8509,25.8955 L12.8832,25.6372 L13.0446,25.1852 L13.4321,24.6686 L13.3675,24.1842 L13.6258,23.8936 L13.8196,23.6030 L13.8519,23.4416 L13.2384,23.6030 L12.9801,23.6030 L12.4957,23.3770 L12.0760,23.0541 L11.6885,22.6667 L11.3979,22.3115 L11.2365,22.0209 L11.2042,22.0209 L11.1073,22.3115 L10.8490,22.7958 L10.3970,23.2802 L9.6220,23.7968 L9.1377,24.0551 L8.7825,23.4093 L8.3951,23.0218 L8.0076,22.7312 L7.6524,22.6344 L7.0066,22.7312 L6.5869,22.1500 L6.3932,21.9563 L6.1671,21.8594 L5.7797,21.8594 L5.3599,21.9886 L5.3276,21.9563 L5.6182,21.3105 L6.0703,20.6971 L6.6515,20.1481 L6.9421,19.9544 L7.4910,19.6961 L8.7825,19.3086 L8.7502,19.2441 L8.3951,19.1149 L8.2013,19.1149 L8.1690,19.0826 L7.7816,19.1149 L7.7493,19.1472 L7.6201,19.1149 L7.6524,18.7920 L7.7170,18.6306 L7.7170,18.5014 L7.9753,17.4682 L8.2336,16.9193 L8.8471,16.3058 L9.6866,15.7569 L10.8167,15.2403 L11.4625,15.0788 L12.0114,15.8215 L12.4957,16.2735 L13.2707,16.7901 L14.2070,17.1776 L14.8528,17.3390 L15.2403,17.3713 L15.2726,17.4036 L15.5309,17.4036 L15.5632,17.4359 L16.8870,17.4359 L16.9193,17.4036 L17.1453,17.4036 L17.1776,17.3713 L17.6942,17.3067 L18.3400,17.1130 L19.0180,16.7901 L19.6961,16.3058 L20.2773,15.6600 L20.4710,15.3694 L20.7293,14.8528 L20.9231,14.2070 L20.9231,13.7550 L20.6648,13.1738 L20.2450,12.6249 L20.3419,12.5603 L20.4387,12.5603 L20.6648,12.4634 L21.2137,12.3666 L21.2460,12.3343 L21.4397,12.3343 L21.4720,12.3020 L22.2469,12.3020 L22.2792,12.3343 L22.4729,12.3343 L22.7312,12.3989 L23.2479,12.6249 L23.5708,12.8509 L23.8291,13.1092 L23.8613,13.2061 L23.6353,13.3675 L23.3447,13.6904 L23.2479,13.8841 L23.2479,13.9810 L23.9582,13.6581 L24.4425,13.4967 L24.9915,13.3675 L25.4758,13.3352 L25.5081,13.3029 L26.0247,13.3029 L26.0570,13.3352 L26.4122,13.3675 L26.4444,13.3998 L26.1861,13.8519 L25.9924,14.5299 L25.9601,15.2080 L25.9924,15.2403 L25.9924,15.4663 L26.0893,15.8860 L26.1216,15.8538 L26.1538,15.4340 L26.3153,14.9174 L26.7350,14.0456 L26.9611,13.6904 L27.0902,13.5935 L27.3162,13.7227 L27.6391,13.8196 L28.0266,13.8196 L28.2849,13.6904 L28.2849,13.6581 L27.9297,13.5613 L27.4777,13.3352 L27.1871,13.1415 L26.6705,12.6249 L26.5736,12.4957 L26.4767,12.2374 L26.7996,11.9791 L27.0902,12.2051 L27.3808,12.3343 L27.7037,12.3343 L27.8006,12.3020 L28.4141,11.9468 L28.7047,11.6562 L28.9307,11.2688 L28.9630,11.0427 L28.8984,11.0427 L28.6724,11.2042 L27.6068,11.7854 L27.3485,11.7854 L27.2840,11.7531 L27.0579,11.4948 L26.8319,11.0750 L26.8642,10.8490 L27.6391,10.1064 L28.5109,9.3314 L28.5109,9.2023 L28.4141,9.2023 L28.2526,9.2991 L28.1880,9.2991 L27.4131,9.6866 L26.8965,10.0418 L26.5413,10.4292 L26.4767,10.4292 L26.3153,10.2678 L25.9601,9.7189 L25.9278,9.3314 L25.9924,9.2023 L26.9288,8.2982 L27.5100,7.8784 L27.5423,7.7493 L27.4131,7.7493 L27.1225,7.8462 L26.3799,8.2013 L26.0247,8.4596 L25.6695,8.8471 L25.5404,8.7502 L25.2821,8.3305 L25.2821,8.2336 L25.5404,7.3941 L25.6695,7.2004 L26.1216,7.0066 L27.5423,6.5546 L27.6391,6.5546 L28.0266,6.4255 L28.3172,6.4255 L28.6401,6.5546 L28.9307,6.7806 L29.4473,7.2972 L30.0285,7.9753 L30.1899,8.2659 L30.5128,9.0731 L30.9326,10.3970 L30.9972,10.7198 L31.3846,11.3010 L31.7075,12.0114 L31.8689,12.4957 L31.9658,13.0446 L31.9981,13.0769 L32.0304,13.6904 L32.0627,13.7227 L32.0627,14.1425 L32.0304,14.1747 L32.0304,14.5945 L31.9981,14.6268 L31.9981,14.8528 L31.9658,14.8851 L31.9335,15.1757 L31.6429,16.0798 L31.3523,16.6610 L30.9649,17.2422 L30.6743,17.5973 L30.1254,18.1140 L29.6087,19.2441 L29.4473,19.3086 L28.9953,19.3409 L28.9630,19.3732 L27.9943,19.3409 L27.9620,19.3086 L27.7360,19.3086 L27.7037,19.2764 L27.0579,19.1795 L26.4122,19.0180 L26.2830,18.9535 L26.1861,18.9535 L24.6686,18.4368 L24.0551,17.6942 L24.0228,19.0503 L23.9905,19.0826 L23.9905,19.3732 L23.9582,19.4055 L23.9582,19.6315 L23.9259,19.6638 L23.8613,20.1804 L23.5708,21.1168 L23.3124,21.6011 L23.0218,21.9240 L22.7958,21.4397 L22.6667,21.2460 L22.4729,21.0522 L22.3438,20.9877 L22.4406,21.2137 L22.4406,21.3428 L22.5052,21.5366 L22.5052,21.7626 L22.5375,21.7949 L22.5375,22.0855 L22.5698,22.1178 L22.5698,22.6990 L22.6021,22.7312 L22.6021,24.6363 L23.1833,25.1852 L23.3124,25.4435 L23.4093,25.9924 L23.4416,26.0247 L23.5385,26.7673 L24.9915,28.7047 L25.2175,29.0598 L25.7341,30.1899 L26.1861,31.3200 L26.3153,31.7398 L26.3799,31.8367 L26.5090,32.5147 L26.5413,32.5470 L26.5413,32.6762 L26.5736,32.7085 L26.5736,32.8376 L26.6059,32.8699 L26.6059,32.9991 L26.6382,33.0313 L26.6382,33.1605 L26.8965,33.1282 L27.0256,33.0636 L27.2194,32.8699 L27.3162,32.6762 L27.3162,32.5470 L27.3485,32.5147 L27.3162,32.0627 L27.0902,31.3200 L26.7996,30.6743 L26.7996,30.6097 L26.6705,30.3837 L26.6705,30.3191 L25.8310,28.6724 L25.4435,28.0912 L24.1519,26.4122 L24.1519,25.8310 L24.0874,25.5726 L23.9905,25.3789 L23.9582,25.2175 L23.6999,24.7009 L23.5708,24.5717 L23.2802,24.4748 L23.3124,24.4425 L23.3124,23.2479 L23.2802,23.2156 L23.2802,22.9896 L23.2479,22.9573 L23.2479,22.6990 L23.6999,22.2146 L23.9905,21.8272 L24.3134,21.2460 L24.5394,20.4387 L24.6040,19.7284 L24.6363,19.6961 L24.6363,19.2764 L24.6686,19.2441 L26.5090,19.8253 L27.2840,20.0190 L27.6068,20.0513 L27.6391,20.0836 L27.8974,20.0836 L27.9297,20.1159 L29.0275,20.1159 L29.0598,20.0836 L29.2536,20.0836 L29.2858,20.0513 L29.5442,20.0190 L30.0285,19.8253 L30.2545,19.5992 L30.6743,18.5983 L31.2555,18.0494 L31.5783,17.6296 L31.9658,16.9839 L32.2241,16.4027 L32.4179,15.8215 L32.5793,15.1757 L32.6439,14.5945 L32.6762,14.5622 L32.6762,14.2716 L32.7085,14.2393 L32.7085,12.9478 L32.6762,12.9155 L32.6439,12.4957 L32.5147,12.1083 L32.5147,12.0114 L32.2564,11.4302 L31.6429,10.4292 L31.3846,9.3637 L31.0294,8.4274 L30.5774,7.5556 L30.1576,6.9421 L29.7379,6.4900 L29.3504,6.1671 L28.9630,5.9088 L28.6724,5.7797 L28.0589,5.7474 L28.0266,5.7797 L27.5423,5.8120 L26.7673,6.0057 L25.8955,6.3286 L25.3789,6.5869 L25.0237,6.8775 L24.7654,7.4264 L24.7009,7.8462 L24.6686,7.8784 L24.6363,8.2982 L23.9905,8.6211 L23.7322,8.8794 L23.6030,9.2023 L23.6030,9.3960 L23.5708,9.4283 L23.5708,10.2678 L23.6030,10.3001 L23.6030,10.4292 L24.0551,11.2688 L24.8300,12.2697 L24.8300,12.3343 L24.6040,12.7540 L24.4748,12.7863 L24.0228,12.3343 L23.4739,12.0114 L22.8927,11.7854 L22.1178,11.5916 L21.8594,11.5916 L21.8272,11.5594 L21.2137,11.5916 L20.5356,11.7531 L20.1159,11.9145 L20.0190,11.8177 L20.0836,11.7208 L20.1481,11.7208 L20.7616,11.3979 L20.8262,11.3979 L20.9877,11.2688 L21.2137,10.7198 L21.3428,10.1064 L21.8594,9.7189 L21.9563,9.3314 L21.9886,8.8471 L22.0209,8.8148 L22.0532,7.7816 L21.9240,7.6847 L21.5689,7.6524 L21.5366,7.6201 L21.2783,7.6201 L21.2460,7.5878 L20.9554,7.5878 L20.9231,7.5556 L19.9221,7.5556 L19.8898,7.5878 L18.8566,7.6524 L18.5983,7.7170 L18.5014,7.5556 L17.8234,6.9421 L17.5651,6.7483 L16.9839,6.4900 L16.8224,6.1994 L16.6610,5.7151 L16.5318,5.1985 L16.4672,4.7464 L16.4349,4.7142 L16.4349,4.5527 L16.4027,4.5204 L16.4027,4.3590 L16.3058,3.9392 L16.3058,3.7455 L16.2735,3.7132 L16.2735,3.5195 L16.2412,3.4872 L16.1766,2.7445 L16.1443,2.7123 L16.0475,1.5176 L16.0152,1.4853 L16.0152,1.1301 L15.9829,1.0978 L15.9829,0.7426 L15.9183,0.6458 L15.7569,0.5812 L15.4017,0.5812 L15.3048,0.6135 L14.8205,0.9041 L14.3039,1.4207 L13.9487,1.9050 L13.7550,2.2602 L13.5613,2.7445 L13.3352,3.6486 L13.3029,3.6163 L13.3029,3.0997 L13.2707,3.0674 L13.2707,1.0332 L13.1738,1.0009 L12.7217,1.0009 L12.6895,1.0332 Z M5.6828,22.5698 L6.0057,22.5698 L6.0703,22.6021 L6.2640,22.7958 L6.4577,23.1510 L5.8765,23.6353 L5.5859,23.9582 L5.3599,24.3457 L5.3276,24.5394 L5.8120,24.2488 L5.9411,24.1197 L6.4577,23.7645 L7.0066,23.4739 L7.4587,23.3124 L7.6524,23.3124 L7.9107,23.4739 L8.2659,23.8291 L8.3951,24.0228 L8.3951,24.1519 L8.3305,24.2488 L7.5233,25.0237 L7.0389,25.6049 L6.8452,25.9278 L6.9098,25.9278 L7.3295,25.7018 L8.0722,25.2175 L8.8148,24.6040 L8.9763,24.6040 L9.2346,24.8623 L9.5252,25.2498 L9.6543,25.5404 L9.5575,25.7664 L7.9430,27.2840 L8.2982,27.1871 L8.8794,26.9288 L9.4606,26.4767 L9.5252,26.4767 L9.7189,26.7673 L9.8481,27.1225 L9.8158,27.3485 L9.6866,27.5745 L9.4929,27.8329 L9.0408,28.2849 L8.8148,28.4463 L7.8784,28.9630 L7.1358,29.2213 L6.6515,29.2536 L6.6192,29.2213 L6.4577,29.2213 L6.1994,29.1567 L5.8120,28.9953 L5.2953,28.6401 L4.3913,27.7683 L3.9715,27.2840 L3.6809,26.8965 L3.3903,26.3153 L3.3580,25.8955 L3.3903,25.8632 L3.3903,25.6049 L3.4226,25.5726 L3.4872,24.9915 L3.5195,24.9592 L3.5195,24.8300 L3.5518,24.7977 L3.6809,24.1197 L3.7778,23.8291 L3.9392,23.5385 L4.2944,23.2156 L5.0370,22.8281 Z M12.6895,12.6249 L12.7863,13.1738 L12.8832,13.4967 L12.8832,13.6258 L12.9155,13.6581 L12.9155,13.8196 L12.6895,14.1102 L12.5280,14.1102 L12.4957,14.1425 L12.3343,14.1425 L12.3020,14.1747 L12.1406,14.1747 L11.6562,14.3039 L11.5271,14.3039 L10.4292,14.6268 L9.2023,15.2080 L8.9763,15.3694 L8.9117,15.3694 L8.3951,14.8851 L8.3951,14.5622 L8.3628,14.5299 L9.4606,13.7550 L10.1064,13.3675 L10.8167,13.0769 L11.6885,12.7863 L12.4957,12.5926 L12.6572,12.5926 Z M20.3419,13.9487 L20.2773,14.4008 L20.1804,14.6914 L19.9867,15.0788 L19.7607,15.4017 L19.2441,15.9183 L18.8243,16.2089 L18.3077,16.4672 L17.5651,16.6933 L17.2422,16.7255 L17.2099,16.7578 L16.9839,16.7578 L16.9516,16.7901 L16.4027,16.7901 L16.3704,16.8224 L15.5954,16.7901 L15.5632,16.7578 L14.9497,16.6933 L14.1747,16.4672 L13.4967,16.1443 L13.0123,15.8215 L12.3343,15.1757 L12.1728,14.9497 L12.2374,14.8851 L12.6895,14.7882 L12.8186,14.7236 L12.9478,14.7236 L13.7227,14.5299 L13.7873,14.6591 L13.9810,14.8528 L14.4008,15.0788 L15.1111,15.3371 L15.4986,15.4340 L15.8860,15.4663 L15.9183,15.4986 L16.6287,15.4986 L16.6610,15.4663 L16.8224,15.4663 L16.8547,15.4340 L17.1130,15.4017 L17.9525,15.1111 L18.3723,14.8528 L18.6629,14.5622 L18.8243,14.3362 L18.9858,13.9810 L18.9535,13.7550 L18.8566,13.4967 L18.5983,12.9801 L18.2431,12.3989 L18.3400,12.3343 L19.0826,12.1083 L19.1795,12.0437 L19.2441,12.0437 L19.3732,12.1728 L19.9221,12.9155 L20.2127,13.4644 Z M12.1083,10.6876 L12.4634,11.7531 L12.4311,11.8500 L11.6885,11.9468 L10.7521,12.2051 L9.7512,12.6895 L8.5888,13.3675 L8.5565,13.3352 L8.7502,12.5603 L8.7502,12.4311 L8.8794,12.0114 L9.8481,11.4302 L10.6553,11.0427 L11.9791,10.6553 Z M11.8177,9.9126 L11.7854,10.0418 L11.3333,10.1064 L10.6876,10.2678 L10.1064,10.4938 L9.3637,10.8813 L9.2991,10.8490 L9.5897,10.3324 L9.9449,9.8158 L10.1709,9.5897 L10.7521,9.2669 L11.0427,9.1700 L11.3010,9.2023 L11.5916,9.4606 Z M24.8300,8.9440 L25.0883,8.9117 L25.3789,9.1700 L25.3789,9.6543 L25.5404,10.1387 L25.6695,10.3324 L26.0893,10.7521 L26.2830,10.8813 L26.2507,10.9136 L26.2830,11.1396 L26.4767,11.5594 L26.3153,11.6885 L25.7987,11.9468 L25.6049,11.9791 L25.3143,11.7531 L24.7331,11.0104 L24.3457,10.4292 L24.2488,10.2032 L24.2165,9.7189 L24.2488,9.6866 L24.2811,9.3314 L24.4425,9.1377 Z M21.4074,8.2659 L21.4397,8.2982 L21.4074,8.8794 L21.3105,9.2669 L21.1491,9.4606 L20.7616,9.7189 L20.7616,9.8481 L20.6002,10.4292 L20.4710,10.7198 L20.3742,10.8167 L18.6952,11.3979 L17.2745,12.0760 L17.2745,12.1406 L17.9848,13.2707 L18.3077,13.9164 L18.3400,14.0779 L18.0817,14.3362 L17.7911,14.5299 L17.3390,14.7559 L16.9516,14.8851 L16.5641,14.9174 L16.5318,14.9497 L15.7892,14.9497 L15.7569,14.9174 L15.4663,14.9174 L15.4340,14.8851 L15.1111,14.8528 L14.7236,14.6914 L14.4976,14.4976 L14.2070,13.9810 L14.2070,13.9164 L13.9487,13.4321 L13.9487,13.3675 L13.7873,13.0769 L13.7873,13.0123 L13.3352,12.0437 L13.0446,10.8813 L12.6572,9.7189 L12.2051,8.9440 L11.9791,8.7179 L12.1728,8.5888 L12.2374,8.5888 L13.2061,8.1368 L14.9174,7.4910 L15.5632,7.3295 L16.3704,7.2327 L16.4027,7.2004 L16.6933,7.2004 L16.7255,7.1681 L17.0807,7.3618 L17.5328,7.6847 L18.3077,8.3951 L19.3409,8.2982 L19.3732,8.2659 L19.9867,8.2659 L20.0190,8.2336 L20.3096,8.2336 L20.3419,8.2659 Z M12.5926,1.6790 L12.6249,1.7113 L12.6249,2.6800 L12.6572,2.7123 L12.6895,3.7778 L12.7217,3.8101 L12.7217,4.1652 L12.7540,4.1975 L12.7540,4.4881 L12.7863,4.5204 L12.8509,5.2308 L12.8832,5.2631 L12.9155,5.6182 L13.1092,6.4577 L13.2707,6.9098 L13.4644,7.2327 L13.2061,7.3941 L13.1415,7.3941 L12.5926,7.6847 L12.5280,7.6847 L11.9791,7.9753 L11.9145,7.9753 L11.1073,8.3628 L11.0427,8.2659 L10.9459,7.7170 L10.9136,7.6847 L10.9136,7.5233 L10.8490,7.2972 L10.8490,7.0389 L10.8167,7.0066 L10.8167,6.6515 L10.7844,6.6192 L10.7844,5.7474 L10.8167,5.7151 L10.8167,5.3599 L10.8490,5.3276 L10.8490,5.1016 L10.8813,5.0693 L10.9459,4.5850 L11.1396,3.9069 L11.5271,3.0351 L11.9468,2.3894 Z M15.4017,1.2915 L15.4340,1.3238 L15.4340,1.8082 L15.4663,1.8405 L15.4663,2.2602 L15.4986,2.2925 L15.5309,2.9383 L15.5632,2.9706 L15.5632,3.2289 L15.5954,3.2612 L15.5954,3.4872 L15.6277,3.5195 L15.7246,4.3267 L15.7569,4.3590 L15.7569,4.4881 L15.7892,4.5204 L15.7892,4.6496 L15.9829,5.4891 L16.0475,5.6182 L16.0475,5.7151 L16.3058,6.5546 L16.2735,6.5869 L15.6923,6.6192 L15.6600,6.6515 L15.1434,6.7160 L14.7559,6.8129 L14.2716,6.9744 L14.1747,7.0389 L14.0779,7.0389 L13.8841,6.6838 L13.7873,6.2963 L13.7873,6.1026 L13.7550,6.0703 L13.7873,4.7464 L13.8196,4.7142 L13.8196,4.4236 L13.8519,4.3913 L13.8519,4.1652 L13.8841,4.1330 L13.9487,3.6163 L14.2070,2.7445 L14.4653,2.1956 L14.7882,1.7436 L15.0142,1.5176 L15.2403,1.3561 Z"/><path fill="#733C2F" fill-rule="evenodd" d="M0.4198,0.1614 L0.1614,0.4198 L0.0000,0.7749 L0.0000,33.1928 L0.1614,33.5480 L0.4198,33.8063 L0.7749,33.9677 L33.1928,33.9677 L33.5480,33.8063 L33.8063,33.5480 L33.9677,33.1928 L33.9677,0.7749 L33.8063,0.4198 L33.5480,0.1614 L33.1928,0.0000 L0.7749,0.0000 Z M1.9696,2.0019 L2.0019,1.9696 L31.9658,1.9696 L31.9981,2.0019 L31.9981,31.9658 L31.9658,31.9981 L2.0019,31.9981 L1.9696,31.9658 Z"/><path fill="#ff9400" fill-rule="evenodd" d="M18.6952,23.0864 L16.5964,25.3143 L16.4349,25.5404 L18.7274,27.8329 L20.3096,26.3153 L21.0199,25.5726 L18.9535,23.3124 Z M31.4815,10.0741 L31.3846,10.0741 L31.2555,10.2032 L31.0940,10.4938 L31.0294,10.7521 L31.3846,11.3010 L31.5461,11.6239 L31.8689,12.4957 L31.9658,13.0446 L31.9981,13.0769 L31.9981,13.2707 L32.0304,13.3029 L32.0304,13.6904 L32.0627,13.7227 L32.0304,14.5945 L31.9981,14.6268 L31.9981,14.8528 L31.9658,14.8851 L31.8689,15.4340 L31.6429,16.0798 L31.3523,16.6610 L30.9649,17.2422 L30.6743,17.5973 L30.1576,18.0817 L30.2868,18.2431 L30.6743,18.5660 L30.8034,18.5014 L31.2555,18.0494 L31.7075,17.4359 L31.9981,16.9193 L31.9981,16.8547 L32.2241,16.4027 L32.4824,15.5954 L32.5147,15.3371 L32.5793,15.1757 L32.6439,14.5945 L32.6762,14.5622 L32.6762,14.2716 L32.7085,14.2393 L32.7085,12.9478 L32.6762,12.9155 L32.6439,12.4957 L32.5147,12.1083 L32.5147,12.0114 L32.2564,11.4302 L31.7075,10.5584 L31.5783,10.1709 Z M15.9506,0.6781 L15.7569,0.5812 L15.4017,0.5812 L15.3048,0.6135 L14.8205,0.9041 L14.3039,1.4207 L13.9487,1.9050 L13.7550,2.2602 L13.5613,2.7445 L13.3352,3.6809 L13.3029,3.6486 L13.3029,3.0997 L13.2707,3.0674 L13.2707,1.0332 L13.1738,1.0009 L12.7217,1.0009 L12.6895,1.0332 L12.5280,1.0332 L12.3020,1.1301 L11.7854,1.6144 L11.3010,2.2925 L10.8167,3.1320 L10.4938,3.8101 L10.4615,3.9715 L10.8167,4.0038 L11.1719,3.8746 L11.3333,3.4226 L11.7208,2.7123 L12.2374,2.0342 L12.5926,1.6790 L12.6249,1.7113 L12.6249,2.6800 L12.6572,2.7123 L12.6895,3.6809 L12.8509,3.7455 L12.9801,3.7455 L13.2061,3.6486 L13.3352,3.6809 L13.3998,4.1330 L13.4967,4.4881 L13.4967,4.6496 L13.5613,4.8433 L13.5613,5.0047 L13.6581,5.3599 L13.6581,5.5214 L13.7550,5.8765 L13.7550,6.0380 L13.7550,5.3276 L13.7873,5.2953 L13.7873,4.7464 L13.8196,4.7142 L13.8519,4.1652 L13.8841,4.1330 L13.9487,3.6163 L14.2070,2.7445 L14.4653,2.1956 L14.6591,1.9050 L15.0142,1.5176 L15.3694,1.2915 L15.4340,1.3238 L15.4986,2.6154 L15.5309,2.6477 L15.5309,2.9383 L15.5632,2.9706 L15.5632,3.2289 L15.5954,3.2612 L15.5954,3.4872 L15.6277,3.5195 L15.6923,4.1330 L15.7246,4.1975 L15.8538,4.2298 L16.1443,4.2298 L16.3381,4.1007 L16.2735,3.5195 L16.2412,3.4872 L16.2412,3.2612 L16.2089,3.2289 L16.2089,3.0028 L16.1766,2.9706 L16.1766,2.7445 L16.1443,2.7123 L16.0798,1.8405 L16.0475,1.8082 L16.0475,1.4853 L16.0152,1.4530 L16.0152,1.1301 L15.9829,1.0978 L15.9829,0.7426 Z"/><path fill="#FFF" fill-rule="evenodd" d="M14.5945,8.6211 L14.7559,8.8471 L15.1111,9.1700 L15.3694,9.2991 L15.6600,9.3314 L15.6923,9.3637 L16.1121,9.3314 L16.4672,9.2346 L16.7901,9.1054 L17.0807,8.8794 L16.8870,8.7825 L16.5318,8.7502 L16.4995,8.7179 L15.7892,8.6857 L15.7569,8.6534 L15.2726,8.6534 L15.2403,8.6211 Z"/></svg>