<?xml version="1.0" encoding="UTF-8" standalone="no"?>
<!-- Created with Inkscape (http://www.inkscape.org/) -->

<svg
   viewBox="0 -0.4 9 9"
   version="1.1"
   id="svg1"
   xml:space="preserve"
   inkscape:version="1.3.2 (091e20e, 2023-11-25)"
   sodipodi:docname="bear.svg"
   xmlns:inkscape="http://www.inkscape.org/namespaces/inkscape"
   xmlns:sodipodi="http://sodipodi.sourceforge.net/DTD/sodipodi-0.dtd"
   xmlns:xlink="http://www.w3.org/1999/xlink"
   xmlns="http://www.w3.org/2000/svg"
   xmlns:svg="http://www.w3.org/2000/svg"><sodipodi:namedview
     id="namedview1"
     pagecolor="#ffffff"
     bordercolor="#000000"
     borderopacity="0.25"
     inkscape:showpageshadow="2"
     inkscape:pageopacity="0.0"
     inkscape:pagecheckerboard="0"
     inkscape:deskcolor="#d1d1d1"
     inkscape:document-units="mm"
     inkscape:zoom="17.163317"
     inkscape:cx="15.993412"
     inkscape:cy="13.80852"
     inkscape:window-width="1264"
     inkscape:window-height="957"
     inkscape:window-x="37"
     inkscape:window-y="39"
     inkscape:window-maximized="0"
     inkscape:current-layer="layer1"
     showguides="true" /><defs
     id="defs1"><g
       id="sprite0"
       transform="matrix(1.0, 0.0, 0.0, 1.0, 1.0, 1.0)"><use
         height="34.0"
         transform="matrix(1.0, 0.0, 0.0, 1.0, -1.0, -1.0)"
         width="34.0"
         xlink:href="#sprite1"
         id="use2" /><use
         height="29.2"
         transform="matrix(1.0, 0.0, 0.0, 1.0, 5.7, 1.3)"
         width="21.35"
         xlink:href="#shape1"
         id="use3" /></g><g
       id="sprite1"
       transform="matrix(1.0, 0.0, 0.0, 1.0, 1.0, 1.0)"><use
         height="34.0"
         transform="matrix(1.0, 0.0, 0.0, 1.0, -1.0, -1.0)"
         width="34.0"
         xlink:href="#shape0"
         id="use4" /></g><g
       id="shape0"
       transform="matrix(1.0, 0.0, 0.0, 1.0, 1.0, 1.0)"><path
         d="M0.0 32.0 L0.0 0.0 32.0 0.0 32.0 32.0 0.0 32.0"
         fill="#cccc00"
         fill-rule="evenodd"
         stroke="none"
         id="path4" /><path
         d="M0.0 32.0 L0.0 0.0 32.0 0.0 32.0 32.0 0.0 32.0 Z"
         fill="none"
         stroke="#733c2f"
         stroke-linecap="round"
         stroke-linejoin="round"
         stroke-width="2.0"
         id="path5" /></g><g
       id="shape1"
       transform="matrix(1.0, 0.0, 0.0, 1.0, -5.7, -1.3)"><path
         d="M18.0 11.45 L17.0 6.5 16.5 6.65 16.45 6.6 16.35 6.6 16.25 6.5 15.45 2.9 15.45 2.85 15.5 2.7 15.6 2.6 20.65 1.35 20.7 1.3 20.7 1.35 20.85 1.4 20.9 1.55 21.7 5.15 21.7 5.3 21.65 5.35 21.6 5.4 21.05 5.55 22.45 10.4 24.65 9.85 24.7 9.8 24.75 9.8 24.8 9.85 24.9 9.95 25.55 12.85 25.5 13.0 25.4 13.1 23.5 13.5 27.05 25.45 27.0 25.6 24.8 30.4 24.7 30.5 24.6 30.5 24.5 30.5 20.55 27.1 20.5 26.95 18.35 14.75 16.5 15.25 16.45 15.2 16.35 15.2 16.25 15.1 15.55 12.2 15.55 12.1 15.6 12.1 15.6 12.05 15.65 12.0 15.75 11.95 15.7 11.95 18.0 11.45 M22.05 20.25 L20.5 14.2 19.25 14.5 21.5 25.95 24.4 29.1 25.7 25.05 22.55 13.75 21.35 14.0 23.35 22.15 23.3 22.15 23.35 22.15 23.65 24.95 23.7 24.95 23.7 25.05 23.65 25.1 23.6 25.15 23.5 25.1 23.4 25.15 23.3 25.05 22.65 22.4 22.05 20.25 M18.0 6.25 L18.9 11.25 21.35 10.65 20.1 5.75 18.0 6.25"
         fill="#733c2f"
         fill-rule="evenodd"
         stroke="none"
         id="path6" /><path
         d="M22.65 22.4 L23.3 25.05 23.4 25.15 23.5 25.1 23.6 25.15 23.65 25.1 23.7 25.05 23.7 24.95 23.65 24.95 23.35 22.15 23.3 22.15 23.35 22.15 21.35 14.0 22.55 13.75 25.7 25.05 24.4 29.1 21.5 25.95 19.25 14.5 20.5 14.2 22.05 20.25 22.15 20.55 22.6 22.3 22.65 22.4"
         fill="#fcf9e0"
         fill-rule="evenodd"
         stroke="none"
         id="path7" /><path
         d="M7.15 18.55 Q7.7 9.65 5.7 2.0 12.65 4.15 10.9 18.5 L7.15 18.55 M10.1 17.55 Q11.2 6.85 7.1 3.75 8.5 10.2 8.15 17.55 L10.1 17.55"
         fill="#733c2f"
         fill-rule="evenodd"
         stroke="none"
         id="path8" /><path
         d="M10.1 17.55 L8.15 17.55 Q8.5 10.2 7.1 3.75 11.2 6.85 10.1 17.55"
         fill="#fcf9e0"
         fill-rule="evenodd"
         stroke="none"
         id="path9" /><path
         d="M11.3 20.9 L11.7 22.25 12.1 25.0 11.65 28.05 11.25 29.4 7.45 29.45 7.25 18.2 12.25 18.1 12.3 19.55 11.85 20.0 Q11.3 20.7 11.3 20.9"
         fill="#733c2f"
         fill-rule="evenodd"
         stroke="none"
         id="path10" /><path
         d="M10.0 21.2 L9.75 21.75 9.25 22.0 Q8.95 22.0 8.75 21.8 L8.55 21.25 8.75 20.7 9.25 20.5 9.75 20.65 10.0 21.2"
         fill="#fcf9e0"
         fill-rule="evenodd"
         stroke="none"
         id="path11" /><path
         d="M10.05 27.1 L9.8 27.65 9.3 27.9 8.8 27.7 8.6 27.15 8.8 26.6 9.3 26.4 9.8 26.55 10.05 27.1"
         fill="#fcf9e0"
         fill-rule="evenodd"
         stroke="none"
         id="path12" /></g></defs><g
     inkscape:label="Calque 1"
     inkscape:groupmode="layer"
     id="layer1"><path
       style="fill:#713835;fill-opacity:1;stroke-width:0.0495326"
       d="m 3.5392375,3.8237243 c -0.283238,-0.07471 -0.522046,-0.313631 -0.522046,-0.522333 0,-0.269082 0.377969,-0.559725 0.648429,-0.498615 0.175957,0.03976 0.50007,0.368282 0.50007,0.506885 0,0.247208 -0.398466,0.574185 -0.626453,0.514063 z m 0.304004,-0.452396 c 0.01146,-0.05282 -0.01845,-0.07835 -0.09135,-0.07835 -0.05953,0 -0.108247,0.02821 -0.108247,0.06267 0,0.143941 0.169101,0.157233 0.199595,0.01574 z"
       id="path21-0" /><path
       style="fill:#713835;fill-opacity:1;stroke-width:0.0495326"
       d="m 5.6275265,2.9152623 c 0.263757,-0.127428 0.600543,-0.101213 0.736258,0.05734 0.174979,0.20442 0.07684,0.671005 -0.168368,0.800455 -0.159528,0.08422 -0.619387,0.0454 -0.709517,-0.05989 -0.160755,-0.187803 -0.07067,-0.69532 0.141627,-0.797901 z m 0.06323,0.54137 c 0.02564,0.04758 0.06497,0.04753 0.120348,1.19e-4 0.04522,-0.03871 0.06389,-0.09182 0.04148,-0.118001 -0.0936,-0.109351 -0.23071,-0.0095 -0.161866,0.117835 z"
       id="path21-0-5" /><path
       style="fill:#5b1006;fill-opacity:1;stroke-width:0.0357435"
       d="m 5.0156145,4.2203533 c 0.176028,0.08719 0.369976,0.411168 0.335246,0.560029 -0.01014,0.04325 -0.05433,0.116376 -0.09833,0.162517 -0.07181,0.07532 -0.125589,0.08468 -0.526622,0.09173 -0.40433,0.0072 -0.45456,-2.8e-5 -0.530224,-0.07503 -0.173751,-0.172319 -0.06766,-0.529987 0.206912,-0.697573 0.139186,-0.08496 0.478992,-0.108053 0.613015,-0.04169 z m -0.577267,0.333721 c 3.29e-4,0.03139 0.02538,0.06283 0.05567,0.06986 0.05424,0.0126 0.07571,-0.07419 0.032,-0.129349 -0.03336,-0.0421 -0.08834,-0.005 -0.08766,0.05949 z m 0.486678,0.0089 c 3.51e-4,0.03357 0.02183,0.06067 0.04772,0.06022 0.0259,-4.55e-4 0.04679,-0.0283 0.04644,-0.06186 -3.51e-4,-0.03357 -0.02183,-0.06067 -0.04772,-0.06022 -0.02589,4.56e-4 -0.04679,0.0283 -0.04644,0.06187 z"
       id="path24-2" /><path
       style="fill:#5b1006;fill-opacity:1;stroke-width:0.120508"
       d="m 5.6206265,5.1460393 c 0.57931,0.301143 1.217595,1.42012 1.103298,1.934267 -0.03337,0.149379 -0.178801,0.401947 -0.323605,0.561312 -0.236328,0.260145 -0.413315,0.292473 -1.733119,0.316823 -1.330654,0.02487 -1.495961,-9.6e-5 -1.744972,-0.259143 -0.571816,-0.595168 -0.22267,-1.830506 0.680949,-2.409326 0.458063,-0.293441 1.576368,-0.373201 2.017439,-0.143992 z m -1.899792,1.152628 c 0.0011,0.108417 0.08353,0.217007 0.183211,0.241288 0.178504,0.04352 0.249162,-0.256243 0.105312,-0.446755 -0.109788,-0.145408 -0.290728,-0.01727 -0.28849,0.205471 z m 1.601662,0.03074 c 0.0012,0.115946 0.07184,0.209546 0.157047,0.207992 0.08524,-0.0016 0.153987,-0.09774 0.152835,-0.213656 -0.0012,-0.115947 -0.07184,-0.209547 -0.157047,-0.207992 -0.0852,0.0016 -0.153986,0.09774 -0.152835,0.21369 z"
       id="path24-2-6" /><path
       style="fill:#000000;fill-opacity:1;stroke-width:0.0635357"
       d="m 5.2322745,5.3098293 c 0.311793,0.155533 0.655328,0.733455 0.593811,0.998999 -0.01796,0.07715 -0.09623,0.207595 -0.174169,0.289903 -0.127195,0.134357 -0.222452,0.151055 -0.93279,0.163631 -0.716177,0.01284 -0.805148,-4.9e-5 -0.939169,-0.13384 -0.30776,-0.307389 -0.119844,-0.94541 0.366497,-1.244354 0.246536,-0.151556 0.848424,-0.192749 1.085815,-0.07437 z m -1.022496,0.595303 c 5.92e-4,0.056 0.04496,0.112078 0.09861,0.124618 0.09607,0.02248 0.134103,-0.132343 0.05668,-0.230737 -0.05909,-0.0751 -0.156474,-0.0089 -0.15527,0.106121 z m 0.862038,0.01588 c 6.46e-4,0.05988 0.03867,0.108225 0.08452,0.107423 0.04588,-8.22e-4 0.08288,-0.05048 0.08226,-0.110348 -6.46e-4,-0.05988 -0.03866,-0.108225 -0.08452,-0.107422 -0.04586,8.22e-4 -0.08288,0.05048 -0.08226,0.110365 z"
       id="path24-2-6-3" /><path
       style="fill:#000000;fill-opacity:1;stroke-width:0.0486638"
       d="m 5.0359415,5.1911693 c 0.217473,0.130816 0.457085,0.616897 0.414177,0.840242 -0.01253,0.06489 -0.06712,0.174605 -0.121481,0.243833 -0.08872,0.113005 -0.155158,0.12705 -0.650612,0.137627 -0.499526,0.0108 -0.561582,-4.1e-5 -0.65506,-0.112571 -0.21466,-0.258539 -0.08359,-0.795169 0.255627,-1.046605 0.171957,-0.127472 0.591768,-0.162119 0.757346,-0.06255 z m -0.713181,0.5007 c 4.13e-4,0.0471 0.03136,0.09427 0.06878,0.104814 0.06701,0.01891 0.09354,-0.111312 0.03953,-0.194069 -0.04122,-0.06316 -0.109139,-0.0075 -0.1083,0.08926 z m 0.601263,0.01336 c 4.51e-4,0.05036 0.02697,0.09103 0.05895,0.09035 0.032,-6.91e-4 0.05781,-0.04246 0.05738,-0.09281 -4.51e-4,-0.05036 -0.02696,-0.09103 -0.05895,-0.09035 -0.03199,6.92e-4 -0.05781,0.04246 -0.05738,0.09283 z"
       id="path24-2-6-3-0" /><path
       fill="#000000"
       d="m 1.0158145,0.18606732 c -1.72198205,0.498904 -0.77073505,3.13981398 -0.04089,3.20335098 -0.16501103,0.835393 -0.25839903,1.67492 -0.24524703,2.529327 0.0068,0.448586 0.99662205,1.15607 2.04372005,1.702425 0.613329,0.916897 1.631795,0.918659 1.961971,0.926969 0.330177,-0.0083 1.348642,-0.01011 1.96199,-0.926969 1.04708,-0.546335 2.036814,-1.25382 2.04372,-1.702425 0.01313,-0.854407 -0.08025,-1.693934 -0.245265,-2.529327 0.72986,-0.06354 1.6810885,-2.70444698 -0.0409,-3.20335098 -0.551582,0.02893 -1.078719,0.319609 -1.594083,0.736553 -0.929693,-0.389697 -1.404511,-0.408237 -2.125468,-0.408237 -0.720937,0 -1.195755,0.01854 -2.125469,0.408217 -0.515362,-0.416924 -1.042501,-0.707604 -1.594081,-0.736533 z m 0.09558,0.98795398 c 0.117502,-0.0019 0.334387,0.111306 0.520078,0.290165 0.06522,0.06282 -0.444556,1.010156 -0.520252,0.992506 -0.08904,-0.02078 -0.29070007,-0.955444 -0.07226,-1.25291 0.01446,-0.01967 0.03955,-0.02923 0.07244,-0.02976 z m 7.24794,0 c 0.03289,5.18e-4 0.058,0.01011 0.07244,0.02976 0.218436,0.297466 0.01678,1.232133 -0.07227,1.252909 -0.07569,0.01767 -0.585472,-0.929679 -0.520251,-0.992504 0.18569,-0.17888 0.402574,-0.292066 0.520076,-0.290166 z m -5.060316,1.624322 c 0.338655,-0.006 0.595288,0.483708 0.815567,0.882052 -1.039221,0.314187 -1.601899,-0.338566 -1.12035,-0.747515 0.108695,-0.09231 0.209959,-0.132854 0.304783,-0.134556 z m 2.872693,0 c 0.09483,0.0017 0.196087,0.04223 0.304782,0.134537 0.48155,0.408949 -0.08111,1.061702 -1.12035,0.747515 0.220279,-0.398324 0.476914,-0.888066 0.815568,-0.882052 z m -1.436346,1.480666 c 0.335996,0.0044 0.7144,0.189307 0.585802,0.722582 -0.02802,0.116194 -0.242803,0.170511 -0.411208,0.19194 v 0.177534 c 1.937683,0.813784 1.543507,2.741747 -0.174594,2.741747 -1.718103,0 -2.112277,-1.927963 -0.174595,-2.741747 v -0.177534 c -0.168385,-0.02143 -0.383195,-0.07575 -0.411207,-0.19194 -0.128598,-0.533275 0.249805,-0.718169 0.585802,-0.722582 z"
       id="path1"
       style="stroke-width:0.0195925" /><path
       fill="#000000"
       d="m 6.8987555,1.0319113 c -0.410257,0.103477 -0.183626,0.651247 -0.0097,0.664425 -0.03931,0.173274 -0.06157,0.347405 -0.05843,0.524623 0.0017,0.09305 0.237441,0.239787 0.486908,0.353109 0.146124,0.190179 0.388769,0.190545 0.467433,0.192268 0.07867,-0.0018 0.321308,-0.0021 0.467435,-0.192268 0.249463,-0.113318 0.485264,-0.260062 0.48691,-0.353109 0.0031,-0.177218 -0.01912,-0.351349 -0.05843,-0.524623 0.173887,-0.01317 0.400513,-0.560944 -0.0097,-0.664425 -0.131412,0.006 -0.257001,0.0663 -0.379784,0.152773 -0.221496,-0.08083 -0.334619,-0.08468 -0.506385,-0.08468 -0.171761,0 -0.284884,0.0038 -0.506385,0.08467 -0.122783,-0.08648 -0.248372,-0.146768 -0.379784,-0.152769 z m 0.02277,0.204917 c 0.02799,-3.93e-4 0.07967,0.02309 0.123906,0.06019 0.01553,0.01303 -0.105918,0.209521 -0.123948,0.20586 -0.02122,-0.0043 -0.06925,-0.198173 -0.01721,-0.259872 0.0034,-0.004 0.0094,-0.0061 0.01726,-0.0062 z m 1.726795,0 c 0.0078,1.08e-4 0.01381,0.0021 0.01726,0.0062 0.05204,0.0617 0.004,0.255564 -0.01722,0.259874 -0.01803,0.0036 -0.139486,-0.192831 -0.123948,-0.205861 0.04424,-0.0371 0.09591,-0.06058 0.123907,-0.06018 z m -1.205602,0.336911 c 0.08069,-0.0012 0.141825,0.100328 0.194306,0.182951 -0.247591,0.06517 -0.381646,-0.07022 -0.266919,-0.155046 0.0259,-0.01915 0.05003,-0.02756 0.07261,-0.02791 z m 0.684408,0 c 0.0226,3.52e-4 0.04671,0.0088 0.07261,0.0279 0.114727,0.08482 -0.01932,0.220214 -0.26692,0.155047 0.05249,-0.08262 0.113623,-0.184199 0.194306,-0.182951 z m -0.342203,0.307112 c 0.08005,9.14e-4 0.170202,0.03926 0.139565,0.149875 -0.0067,0.0241 -0.05785,0.03537 -0.09796,0.03981 v 0.03682 c 0.461645,0.168791 0.367734,0.568682 -0.0416,0.568682 -0.409331,0 -0.503242,-0.399891 -0.04159,-0.568682 v -0.03682 c -0.04012,-0.0045 -0.0913,-0.01571 -0.09798,-0.03981 -0.03064,-0.110609 0.05951,-0.148959 0.139566,-0.149875 z"
       id="path1-4"
       style="fill:#5b1006;fill-opacity:1;stroke-width:0.00435536" /><path
       fill="#000000"
       d="m 6.7852235,0.77145432 c -0.432504,0.108564 -0.193583,0.68326098 -0.01023,0.69708698 -0.04144,0.181792 -0.06491,0.364483 -0.0616,0.550412 0.0018,0.09762 0.250317,0.251575 0.513311,0.370468 0.154048,0.199527 0.40985,0.199911 0.49278,0.201719 0.08294,-0.0019 0.338731,-0.0022 0.492782,-0.201719 0.26299,-0.118889 0.511577,-0.272847 0.513313,-0.370468 0.0033,-0.185929 -0.02016,-0.36862 -0.0616,-0.550412 0.183316,-0.01382 0.422231,-0.58851898 -0.01023,-0.69708698 -0.138538,0.0063 -0.270937,0.06956 -0.400378,0.160283 -0.233506,-0.0848 -0.352763,-0.08884 -0.533844,-0.08884 -0.181074,0 -0.300332,0.004 -0.533844,0.08883 -0.12944,-0.09073 -0.26184,-0.153983 -0.400377,-0.160279 z m 0.024,0.214991 c 0.02951,-4.13e-4 0.08399,0.02422 0.130625,0.06315 0.01637,0.01367 -0.111661,0.219821 -0.130669,0.21598 -0.02237,-0.0045 -0.073,-0.207915 -0.01814,-0.27264695 0.0036,-0.0042 0.0099,-0.0064 0.0182,-0.0065 z m 1.820432,0 c 0.0082,1.13e-4 0.01456,0.0022 0.0182,0.0065 0.05486,0.06473 0.0042,0.26812698 -0.01815,0.27264898 -0.01901,0.0038 -0.14705,-0.20231 -0.130669,-0.21598 0.04664,-0.03892 0.10111,-0.06356 0.130626,-0.06314 z M 7.3586785,1.3399173 c 0.08507,-0.0013 0.149516,0.10526 0.204843,0.191945 -0.261017,0.06837 -0.402341,-0.07367 -0.281393,-0.162668 0.0273,-0.02009 0.05274,-0.02892 0.07655,-0.02928 z m 0.721521,0 c 0.02383,3.7e-4 0.04924,0.0092 0.07655,0.02927 0.120948,0.08899 -0.02037,0.231039 -0.281394,0.162669 0.05534,-0.08668 0.119784,-0.193254 0.204842,-0.191945 z m -0.360759,0.322209 c 0.08439,9.59e-4 0.179431,0.04119 0.147133,0.157243 -0.0071,0.02529 -0.06099,0.03711 -0.103272,0.04177 v 0.03863 c 0.486678,0.177088 0.387674,0.596637 -0.04386,0.596637 -0.431527,0 -0.530531,-0.419549 -0.04385,-0.596637 v -0.03863 c -0.0423,-0.0047 -0.09625,-0.01648 -0.103293,-0.04177 -0.0323,-0.116046 0.06274,-0.156282 0.147134,-0.157243 z"
       id="path1-4-3"
       style="fill:#5b1006;fill-opacity:1;stroke-width:0.00458048" /><path
       fill="#000000"
       d="m 0.81842245,0.89975632 c -0.410258,0.10347698 -0.183626,0.65124698 -0.0097,0.66442498 -0.03931,0.173274 -0.06157,0.347405 -0.05843,0.524623 0.0017,0.09305 0.23744103,0.239787 0.48690805,0.353109 0.146124,0.190179 0.388769,0.190545 0.467433,0.192268 0.07867,-0.0018 0.321308,-0.0021 0.467435,-0.192268 0.249463,-0.113318 0.485264,-0.260062 0.48691,-0.353109 0.0031,-0.177218 -0.01912,-0.351349 -0.05843,-0.524623 0.173887,-0.01317 0.400513,-0.560944 -0.0097,-0.66442498 -0.131412,0.006 -0.257001,0.0663 -0.379784,0.15277298 -0.221496,-0.08083 -0.334619,-0.08468 -0.506385,-0.08468 -0.171761,0 -0.284884,0.0038 -0.506385,0.08467 -0.122783,-0.08648 -0.24837205,-0.14676798 -0.37978405,-0.15276898 z m 0.02277,0.20491698 c 0.02799,-3.93e-4 0.07967,0.02309 0.123906,0.06019 0.01553,0.01303 -0.105918,0.209521 -0.123948,0.20586 -0.02122,-0.0043 -0.06925,-0.198173 -0.01721,-0.259872 0.0034,-0.004 0.0094,-0.0061 0.01726,-0.0062 z m 1.72679505,0 c 0.0078,1.08e-4 0.01381,0.0021 0.01726,0.0062 0.05204,0.0617 0.004,0.255564 -0.01722,0.259874 -0.01803,0.0036 -0.139486,-0.192831 -0.123948,-0.205861 0.04424,-0.0371 0.09591,-0.06058 0.123907,-0.06018 z m -1.205602,0.336911 c 0.08069,-0.0012 0.141825,0.100328 0.194306,0.182951 -0.247591,0.06517 -0.381646,-0.07022 -0.266919,-0.155046 0.0259,-0.01915 0.05003,-0.02756 0.07261,-0.02791 z m 0.684408,0 c 0.0226,3.52e-4 0.04671,0.0088 0.07261,0.0279 0.114727,0.08482 -0.01932,0.220214 -0.26692,0.155047 0.05249,-0.08262 0.113623,-0.184199 0.194306,-0.182951 z m -0.342203,0.307112 c 0.08005,9.14e-4 0.170202,0.03926 0.139565,0.149875 -0.0067,0.0241 -0.05785,0.03537 -0.09796,0.03981 v 0.03682 c 0.461645,0.168791 0.367734,0.568682 -0.0416,0.568682 -0.409331,0 -0.503242,-0.399891 -0.04159,-0.568682 v -0.03682 c -0.04012,-0.0045 -0.0913,-0.01571 -0.09798,-0.03981 -0.03064,-0.110609 0.05951,-0.148959 0.139565,-0.149875 z"
       id="path1-4-3-8"
       style="fill:#5b1006;fill-opacity:1;stroke-width:0.00435536" /><path
       fill="#000000"
       d="M 1.1323105,0.94860732 C 0.72205245,1.0520843 0.94868445,1.5998543 1.1226105,1.6130323 c -0.03931,0.173274 -0.06157,0.347405 -0.05843,0.524623 0.0017,0.09305 0.237441,0.239787 0.486908,0.353109 0.146124,0.190179 0.388769,0.190545 0.467433,0.192268 0.07867,-0.0018 0.321308,-0.0021 0.467435,-0.192268 0.249463,-0.113318 0.485264,-0.260062 0.48691,-0.353109 0.0031,-0.177218 -0.01912,-0.351349 -0.05843,-0.524623 0.173887,-0.01317 0.400513,-0.560944 -0.0097,-0.66442498 -0.131412,0.006 -0.257001,0.0663 -0.379784,0.15277298 -0.221496,-0.08083 -0.334619,-0.08468 -0.506385,-0.08468 -0.171761,0 -0.284884,0.0038 -0.506385,0.08467 -0.122783,-0.08648 -0.248372,-0.14676798 -0.379784,-0.15276898 z m 0.02277,0.20491698 c 0.02799,-3.93e-4 0.07967,0.02309 0.123906,0.06019 0.01553,0.01303 -0.105918,0.209521 -0.123948,0.20586 -0.02122,-0.0043 -0.06925,-0.198173 -0.01721,-0.259872 0.0034,-0.004 0.0094,-0.0061 0.01726,-0.0062 z m 1.726795,0 c 0.0078,1.08e-4 0.01381,0.0021 0.01726,0.0062 0.05204,0.0617 0.004,0.255564 -0.01722,0.259874 -0.01803,0.0036 -0.139486,-0.192831 -0.123948,-0.205861 0.04424,-0.0371 0.09591,-0.06058 0.123907,-0.06018 z m -1.205602,0.336911 c 0.08069,-0.0012 0.141825,0.100328 0.194306,0.182951 -0.247591,0.06517 -0.381646,-0.07022 -0.266919,-0.155046 0.0259,-0.01915 0.05003,-0.02756 0.07261,-0.02791 z m 0.684408,0 c 0.0226,3.52e-4 0.04671,0.0088 0.07261,0.0279 0.114727,0.08482 -0.01932,0.220214 -0.26692,0.155047 0.05249,-0.08262 0.113623,-0.184199 0.194306,-0.182951 z m -0.342203,0.307112 c 0.08005,9.14e-4 0.170202,0.03926 0.139565,0.149875 -0.0067,0.0241 -0.05785,0.03537 -0.09796,0.03981 v 0.03682 c 0.461645,0.168791 0.367734,0.568682 -0.0416,0.568682 -0.409331,0 -0.503242,-0.399891 -0.04159,-0.568682 v -0.03682 c -0.04012,-0.0045 -0.0913,-0.01571 -0.09798,-0.03981 -0.03064,-0.110609 0.05951,-0.148959 0.139565,-0.149875 z"
       id="path1-4-3-8-3"
       style="fill:#5b1006;fill-opacity:1;stroke-width:0.00435536" /><path
       style="fill:#9c6b5c;fill-opacity:1;stroke-width:0.070544"
       d="m 3.9843925,8.2072093 c -0.393696,-0.111175 -0.783776,-0.346273 -0.999059,-0.602123 -0.08909,-0.105873 -0.433091,-0.356256 -0.764455,-0.556411 -0.703518,-0.424944 -1.22626402,-0.865727 -1.38055505,-1.164095 -0.121445,-0.234849 -0.09098,-1.061409 0.0787,-2.135457 0.04904,-0.310394 0.0628,-0.574403 0.03058,-0.586687 -0.573327,-0.218597 -1.026955,-1.600913 -0.775449,-2.36298298 0.09528,-0.28869 0.481103,-0.658676 0.759827,-0.728631 0.28726605,-0.0721 0.78639205,0.08894 1.24495005,0.401681 l 0.413185,0.281793 0.53916,-0.19278 c 0.496525,-0.177537 0.622837,-0.192764 1.597322,-0.192565 0.968836,1.99e-4 1.104627,0.0164 1.6086,0.191884 l 0.550439,0.191666 0.226058,-0.172422 c 0.355797,-0.27138 0.976105,-0.53307701 1.265356,-0.53383101 0.328499,-8.47e-4 0.779454,0.37585701 0.904883,0.75591001 0.115804,0.35088698 0.09898,0.93975298 -0.0387,1.35424898 -0.136375,0.410588 -0.468491,0.893233 -0.655489,0.952583 -0.124753,0.0396 -0.12728,0.07349 -0.04383,0.58798 0.0487,0.300279 0.11101,0.900246 0.138462,1.333259 l 0.04991,0.787298 -0.357915,0.376679 c -0.196852,0.207174 -0.637833,0.548913 -0.979955,0.75942 -0.342124,0.210508 -0.764894,0.518541 -0.93949,0.684517 -0.452693,0.430345 -0.901605,0.610664 -1.587242,0.637559 -0.317898,0.01246 -0.704507,-0.01744 -0.885289,-0.06849 z m 1.64922,-0.496824 c 0.617929,-0.36213 0.776659,-1.129377 0.362974,-1.754494 -0.18059,-0.272892 -0.774151,-0.755717 -0.932909,-0.758865 -0.123436,-0.0024 -0.110984,-0.213381 0.0126,-0.213381 0.156763,0 0.322487,-0.203624 0.322487,-0.396238 0,-0.09599 -0.07792,-0.252447 -0.173153,-0.347682 -0.325613,-0.325612 -1.065808,-0.181114 -1.100519,0.214839 -0.03316,0.378279 0.0025,0.461793 0.215511,0.504391 0.282532,0.05651 0.266684,0.134826 -0.06112,0.30206 -1.036885,0.528979 -1.364417,1.598457 -0.689787,2.252332 0.335702,0.325377 0.691119,0.440984 1.257077,0.408898 0.347025,-0.01969 0.554005,-0.07541 0.786845,-0.21186 z m -1.586172,-4.199885 c 0.11308,-0.07167 -0.0072,-0.345249 -0.310174,-0.705265 -0.226273,-0.26891 -0.541617,-0.295694 -0.785365,-0.0667 -0.260083,0.244336 -0.195073,0.561747 0.154177,0.752773 0.167636,0.09169 0.806426,0.104716 0.941362,0.01919 z m 2.391847,-0.07805 c 0.548572,-0.334471 0.02674,-1.083661 -0.54258,-0.778972 -0.07022,0.03758 -0.232014,0.230927 -0.359539,0.429657 -0.189256,0.294931 -0.213554,0.372917 -0.132227,0.424398 0.184516,0.116802 0.791951,0.07271 1.034346,-0.07508 z m -4.989416,-1.626414 c 0.11553,-0.228863 0.210054,-0.460986 0.210054,-0.515829 0,-0.133888 -0.306721,-0.32757298 -0.518748,-0.32757298 -0.138644,0 -0.17951305,0.04542 -0.21603505,0.24010498 -0.0797,0.424821 0.0902599,1.158109 0.24609205,1.061797 0.03772,-0.02331 0.163108,-0.229638 0.278637,-0.4585 z m 7.044456,0.183521 c 0.14486,-0.57529 0.07991,-1.02692298 -0.147693,-1.02692298 -0.189154,0 -0.549374,0.21996398 -0.549374,0.33546898 0,0.180086 0.462999,1.004869 0.564091,1.004869 0.02973,0 0.08957,-0.141037 0.132976,-0.313415 z"
       id="path29" /><path
       style="fill:#5b1006;fill-opacity:1;stroke-width:0.0128159"
       d="M 3.4664935,3.5575144 C 3.3193852,3.5426951 3.2048849,3.5219579 3.143627,3.4990384 3.0548606,3.4658265 3.0315079,3.4249791 3.031218,3.3024172 c -1.847e-4,-0.078004 0.00551,-0.1002916 0.04362,-0.1707893 0.076276,-0.141087 0.2980134,-0.3120133 0.3785457,-0.291801 0.050172,0.012592 0.1808067,0.1177099 0.2511756,0.2021125 0.1068858,0.1282023 0.3195219,0.4632979 0.3039001,0.4789194 -0.024117,0.024117 -0.4084153,0.050109 -0.5419664,0.036656 z M 3.804871,3.4530035 c 0.033558,-0.027642 0.052448,-0.090095 0.038585,-0.1275696 -0.014023,-0.037906 -0.087,-0.051183 -0.150032,-0.027295 -0.041594,0.015764 -0.048003,0.023908 -0.051476,0.065429 -0.00748,0.089422 0.094785,0.1455608 0.162923,0.089436 z"
       id="path30" /><path
       style="fill:#5b1006;fill-opacity:1;stroke-width:0.0128159"
       d="M 5.581112,3.556831 C 5.567015,3.553891 5.53144,3.545295 5.502056,3.53772 L 5.448632,3.523949 5.51376,3.4131836 c 0.1558745,-0.2651035 0.2930736,-0.4385842 0.4112013,-0.519942 0.070236,-0.048373 0.073969,-0.049372 0.1559523,-0.041716 0.2545078,0.023767 0.3938942,0.213388 0.3594579,0.4890076 -0.00523,0.041896 -0.018629,0.082445 -0.031478,0.095294 C 6.3767775,3.4679432 6.1917836,3.5234742 6.0424834,3.545815 5.9260334,3.56324 5.6441977,3.569971 5.581112,3.556831 Z M 5.8107389,3.461826 c 0.073043,-0.064133 0.075747,-0.1241002 0.00719,-0.1595498 -0.052988,-0.027401 -0.086008,-0.02368 -0.1236184,0.01393 -0.027796,0.027796 -0.031927,0.041119 -0.026135,0.084298 0.0077,0.057442 0.039721,0.1005581 0.074671,0.1005581 0.012761,0 0.043309,-0.017656 0.067888,-0.039237 z"
       id="path31" /><path
       id="path1-33"
       style="fill:#ffffff;fill-opacity:1;stroke-width:0.00669665"
       class="cls-2"
       d="m 4.4263055,5.1881793 c -0.01402,0 -0.02534,0.0046 -0.03204,0.01447 -0.120654,0.179329 0.07855,0.597379 0.07855,0.597379 0,0 0.198087,-0.211413 0.180867,-0.38809 -0.01039,-0.10659 -0.155967,-0.223759 -0.227377,-0.223759 z m 0.58601,5.17e-4 c -0.07145,0 -0.216984,0.117192 -0.227376,0.223759 -0.01723,0.175958 0.180351,0.38809 0.180351,0.38809 0,0 0.199088,-0.418379 0.07855,-0.59738 -0.0067,-0.0099 -0.01753,-0.01447 -0.03152,-0.01447 z m 0.227894,0.08527 c -0.0097,0.01969 -0.01723,0.03964 -0.01912,0.05943 -0.01803,0.185151 0.189653,0.407727 0.189653,0.407727 0,0 0.06056,-0.128102 0.09663,-0.275435 -1.52e-4,-1.73e-4 -3.74e-4,-3.33e-4 -5.17e-4,-5.17e-4 -2.79e-4,-3.46e-4 -7.23e-4,-6.43e-4 -0.001,-10e-4 v -5.16e-4 l -5.16e-4,-5.17e-4 c -3.31e-4,-6.5e-4 -7.4e-4,-0.0014 -10e-4,-0.0021 -7.65e-4,-0.0013 -0.001,-0.0022 -0.0016,-0.0036 l -5.17e-4,-5.16e-4 c -8.5e-5,-8.7e-5 8.6e-5,-4.3e-4 0,-5.17e-4 l -5.17e-4,-5.17e-4 c -3.37e-4,-3.41e-4 -6.9e-4,-6.89e-4 -0.001,-10e-4 -0.0049,-0.0049 -0.01028,-0.0098 -0.01344,-0.0155 l -5.17e-4,-5.17e-4 c -3.88e-4,-3.25e-4 -0.001,-1.42e-4 -0.001,-5.17e-4 -0.0046,-0.004 -0.0094,-0.0083 -0.01395,-0.0124 -0.01029,-0.0085 -0.01996,-0.01747 -0.02946,-0.02687 -0.0034,-0.0033 -0.0069,-0.0065 -0.01033,-0.0098 -0.0054,-0.0035 -0.01063,-0.0073 -0.01654,-0.0098 -0.01017,-0.0044 -0.02007,-0.0096 -0.02997,-0.01447 -0.0089,-0.0046 -0.01794,-0.0088 -0.02584,-0.01499 -0.0067,-0.0046 -0.01345,-0.0094 -0.02015,-0.01395 -0.0078,-0.0055 -0.01545,-0.01104 -0.02325,-0.01654 -0.0041,-0.0033 -0.0084,-0.0065 -0.01292,-0.0093 -0.0065,-0.0043 4.4e-4,6e-5 -0.0078,-0.0052 -7.67e-4,-5.12e-4 -0.0013,-8e-4 -0.0021,-0.0016 h -5.17e-4 c -3.08e-4,-1.62e-4 -7.14e-4,-2.59e-4 -0.001,-5.17e-4 l -5.17e-4,-5.17e-4 c -7.95e-4,-3.19e-4 -0.0017,-6.9e-4 -0.0021,-0.001 -0.0044,-0.0025 -0.0085,-0.0051 -0.0124,-0.0083 -0.0017,-0.0015 -0.0039,-0.0028 -0.0057,-0.0041 l -5.16e-4,-5.16e-4 h -5.17e-4 c -4.5e-4,-3.1e-4 -0.0011,-8.09e-4 -0.0015,-0.001 -0.0015,-7.34e-4 -0.0031,-0.0015 -0.0021,-0.0016 -8.57e-4,-3.91e-4 -0.0016,-7.7e-4 -0.0026,-0.0016 h -5.17e-4 l -5.17e-4,-5.16e-4 h -5.17e-4 c -9.55e-4,-3.45e-4 -0.0018,-8.7e-4 -0.0021,-0.001 -0.0022,-6.23e-4 -0.0044,-0.0011 -0.0057,-0.0015 -0.0012,-5.72e-4 -0.0044,-0.0022 -0.0057,-0.0031 l -5.17e-4,-5.17e-4 c -0.0027,-10e-4 -0.0056,-0.0022 -0.0083,-0.0036 z m -1.029912,0.02842 c -0.01302,0.0073 -0.02595,0.01455 -0.03876,0.02222 -0.01752,0.01096 -0.0359,0.02109 -0.05374,0.03152 -0.01518,0.0092 -0.03,0.01892 -0.04496,0.02842 -0.01793,0.01215 -0.03634,0.02378 -0.05478,0.03514 -0.02013,0.01409 -0.04027,0.02763 -0.05994,0.04237 -0.0078,0.0056 -0.01549,0.01136 -0.02325,0.01705 0.03641,0.141424 0.09302,0.261999 0.09302,0.261999 0,0 0.207685,-0.222136 0.189653,-0.407727 -0.001,-0.01038 -0.0038,-0.02057 -0.0072,-0.03101 z m 1.433504,0.276469 c 0.08342,0.717767 -0.0015,1.742013 -0.0015,1.742013 0.09003,-0.07549 0.292627,-0.7127 0.38809,-1.305347 -2.15e-4,-5.3e-4 -3.38e-4,-0.0011 -5.17e-4,-0.0015 -0.0018,-0.0049 -0.0028,-0.0097 -0.0046,-0.01447 -0.0022,-0.0056 -0.0038,-0.01094 -0.0062,-0.01654 -0.0014,-0.0041 -0.0023,-0.0069 -0.0047,-0.01085 -5.1e-4,-10e-4 -6.5e-4,-0.0021 -0.0016,-0.0031 -0.0017,-0.0025 -0.0036,-0.0052 -0.0047,-0.0072 -0.0026,-0.0044 -0.0046,-0.009 -0.0072,-0.01344 -0.0028,-0.005 -0.0054,-0.01009 -0.0083,-0.01499 -0.003,-0.0055 -0.0041,-0.008 -0.0072,-0.01344 -0.0036,-0.0064 -0.0068,-0.01272 -0.01034,-0.01912 -4.14e-4,-8.15e-4 -8.87e-4,-0.0018 -10e-4,-0.0026 l -5.17e-4,-5.16e-4 c -0.0043,-0.0066 -0.008,-0.01344 -0.01292,-0.01964 -0.005,-0.0065 -0.01006,-0.01305 -0.01499,-0.01964 -0.0048,-0.0016 -0.0098,-0.0051 -0.01447,-0.01137 -0.0014,-0.0019 -0.0032,-0.0034 -0.0047,-0.0052 -0.0015,-0.0018 -8.19e-4,-0.0017 -0.0026,-0.0031 -0.0025,-0.0018 -0.0024,-0.0019 -0.0047,-0.0036 -0.0023,-0.0017 -0.0046,-0.0033 -0.0067,-0.0052 -0.0036,-0.0033 -0.007,-0.0069 -0.0098,-0.01085 -0.002,-0.0031 -0.0044,-0.0061 -0.0062,-0.0093 -0.0013,-0.0029 -0.0045,-0.0045 -0.0062,-0.0072 -0.0027,-0.0031 -0.006,-0.0058 -0.0088,-0.0088 -0.0032,-0.0035 -0.0063,-0.007 -0.0098,-0.01034 -0.0035,-0.0034 -0.0069,-0.0064 -0.01034,-0.0098 -0.0034,-0.0034 -0.0067,-0.0073 -0.0098,-0.01085 -8.54e-4,-0.0011 -0.0017,-0.0021 -0.0026,-0.0031 -5.96e-4,-5.94e-4 -6.68e-4,-0.0015 -0.0016,-0.0021 h -5.17e-4 c -0.0016,-0.0016 -0.0026,-0.0036 -0.0041,-0.0052 -0.0035,-0.0041 -0.0072,-0.0079 -0.01085,-0.01189 -0.0033,-0.0038 -0.0065,-0.0076 -0.01034,-0.01085 -0.0042,-0.0038 -0.0087,-0.0076 -0.01292,-0.01137 -0.0041,-0.0038 -0.0078,-0.0076 -0.01188,-0.01137 -0.0043,-0.0037 -0.0088,-0.0075 -0.01292,-0.01137 -0.004,-0.0036 -0.0083,-0.0069 -0.0124,-0.01034 -0.004,-0.0034 -0.0077,-0.0067 -0.01188,-0.0098 -0.0039,-0.0029 -0.0078,-0.0061 -0.01189,-0.0088 -0.0039,-0.0026 -0.0076,-0.0059 -0.01137,-0.0088 -0.003,-0.0025 -0.0058,-0.0048 -0.0088,-0.0072 -0.0031,-0.0026 -0.0063,-0.0052 -0.0093,-0.0078 -0.0018,-0.0016 -0.0034,-0.0035 -0.0052,-0.0052 -0.005,-5.44e-4 -0.01065,-0.0031 -0.01654,-0.0083 -0.0011,-9.17e-4 -0.0021,-0.0021 -0.0031,-0.0031 -0.0022,-0.002 -0.0043,-0.0039 -0.0062,-0.0062 -0.0012,-0.0014 -0.0038,-0.0046 -0.0047,-0.0062 -0.0014,-0.0019 -0.0027,-0.0038 -0.0041,-0.0057 -2e-4,-2.5e-4 -6.43e-4,-0.0017 -0.0016,-0.0026 l -5.16e-4,-5.17e-4 c -3.13e-4,-3.75e-4 -6.64e-4,-0.0015 -0.0016,-0.0021 0.0015,0.0014 -7.39e-4,-3.13e-4 -0.0015,-0.001 2.46e-4,1.85e-4 -8.18e-4,-2.9e-4 -0.001,-5.16e-4 l -5.17e-4,-5.17e-4 -5.17e-4,-5.17e-4 c -4.44e-4,-2.97e-4 -0.0011,-5.18e-4 -0.001,-5.17e-4 -0.0023,-0.0011 -0.0045,-0.0024 -0.0067,-0.0036 -0.0031,-0.0019 -0.006,-0.0038 -0.0088,-0.0062 -0.003,-0.0023 -0.0059,-0.0053 -0.0083,-0.0083 -8.89e-4,-0.001 -0.0018,-0.0021 -0.0026,-0.0031 z m -1.852083,0.01654 c -0.0048,0.0042 -0.0097,0.0082 -0.01447,0.0124 -0.01898,0.01503 -0.03556,0.03208 -0.05219,0.04961 -0.0225,0.02311 -0.0453,0.04663 -0.06666,0.0708 -0.01712,0.01888 -0.03266,0.03915 -0.04806,0.05943 -0.01643,0.02111 -0.03319,0.0413 -0.05013,0.06201 -0.01742,0.02355 -0.03587,0.04696 -0.05426,0.06976 -0.02003,0.02595 -0.0387,0.05221 -0.05891,0.07803 -0.01154,0.01654 -0.02282,0.03338 -0.03411,0.05013 0.09774,0.583293 0.29517,1.199135 0.383439,1.273308 0,0 -0.08349,-1.008605 -0.0047,-1.725476 z m 2.278414,0.07493 c 0.0011,0.0013 0.0025,0.0024 0.0036,0.0036 5.4e-5,-6.73e-4 -5.6e-5,-0.0014 0,-0.0021 -0.0013,-5.84e-4 -0.0023,-2.88e-4 -0.0036,-0.0016 z m -1.978691,1.124996 c -0.08783,0.09124 -0.256993,1.063501 0.01499,1.063501 a 0.1742894,0.23188215 0 0 0 0.02842,-0.0031 c 0.02682,-0.0058 0.06091,-0.03314 0.08733,-0.07131 0.03446,-0.04966 0.05506,-0.117026 0.02791,-0.178283 v -5.17e-4 c -0.07005,-0.159814 -0.111502,-0.393958 -0.134359,-0.569475 -0.01797,-0.138751 -0.02429,-0.240812 -0.02429,-0.240812 z m 1.255221,0 c 0,0 -0.0061,0.09316 -0.02222,0.222209 -0.02212,0.177389 -0.06383,0.422799 -0.136426,0.588595 -0.02185,0.04995 -0.01216,0.103361 0.01034,0.148311 0.02682,0.05297 0.07113,0.09397 0.104386,0.101286 a 0.1748932,0.23268547 0 0 0 0.02894,0.0031 c 0.272109,-2.62e-4 0.102698,-0.97062 0.01499,-1.063501 z m -0.896586,0.725537 c 0,0 -0.119616,0.185086 -0.118339,0.26045 0,0.01659 -0.0066,0.178558 0.01188,0.201021 0.0167,0.02044 0.07448,0.03101 0.131259,0.03101 0.05497,0 0.108888,-0.01 0.123506,-0.03101 0.01341,-0.01908 0.002,-0.175951 0,-0.188619 -0.01178,-0.08784 -0.148311,-0.272852 -0.148311,-0.272852 z m 0.537952,5.17e-4 c 0,0 -0.136781,0.184496 -0.148312,0.272335 -0.0014,0.01121 -0.01488,0.16704 0,0.188619 0.01489,0.0216 0.06861,0.03101 0.123507,0.03101 0.05678,0 0.114561,-0.01054 0.131258,-0.03101 0.02547,-0.03157 0.01177,-0.195492 0.01189,-0.201021 l -5.17e-4,5.16e-4 c 0.0012,-0.07537 -0.117822,-0.260449 -0.117822,-0.260449 z m -0.715202,0.30024 -10e-4,0.0026 10e-4,5.17e-4 z" /></g><style
     type="text/css"
     id="style1">
<![CDATA[
	.st0{fill:#000000;}
]]>
</style><style
     type="text/css"
     id="style1-8">
	.st0{fill:#000000;}
</style><style
     type="text/css"
     id="style1-3">
<![CDATA[
	.st0{fill:#000000;}
]]>
</style></svg>
