<?xml version="1.0" encoding="UTF-8" standalone="no"?>
<!-- Created with Inkscape (http://www.inkscape.org/) -->

<svg
   viewBox="0 0 9 9"
   version="1.1"
   id="svg1"
   xml:space="preserve"
   inkscape:version="1.3.2 (091e20e, 2023-11-25)"
   sodipodi:docname="panther.svg"
   xmlns:inkscape="http://www.inkscape.org/namespaces/inkscape"
   xmlns:sodipodi="http://sodipodi.sourceforge.net/DTD/sodipodi-0.dtd"
   xmlns:xlink="http://www.w3.org/1999/xlink"
   xmlns="http://www.w3.org/2000/svg"
   xmlns:svg="http://www.w3.org/2000/svg"><sodipodi:namedview
     id="namedview1"
     pagecolor="#ffffff"
     bordercolor="#000000"
     borderopacity="0.25"
     inkscape:showpageshadow="2"
     inkscape:pageopacity="0.0"
     inkscape:pagecheckerboard="0"
     inkscape:deskcolor="#d1d1d1"
     inkscape:document-units="mm"
     inkscape:zoom="4.0875983"
     inkscape:cx="32.415122"
     inkscape:cy="58.469541"
     inkscape:window-width="1264"
     inkscape:window-height="957"
     inkscape:window-x="37"
     inkscape:window-y="39"
     inkscape:window-maximized="0"
     inkscape:current-layer="layer1"
     showguides="true" /><defs
     id="defs1"><g
       id="sprite0"
       transform="matrix(1.0, 0.0, 0.0, 1.0, 1.0, 1.0)"><use
         height="34.0"
         transform="matrix(1.0, 0.0, 0.0, 1.0, -1.0, -1.0)"
         width="34.0"
         xlink:href="#sprite1"
         id="use2" /><use
         height="29.2"
         transform="matrix(1.0, 0.0, 0.0, 1.0, 5.7, 1.3)"
         width="21.35"
         xlink:href="#shape1"
         id="use3" /></g><g
       id="sprite1"
       transform="matrix(1.0, 0.0, 0.0, 1.0, 1.0, 1.0)"><use
         height="34.0"
         transform="matrix(1.0, 0.0, 0.0, 1.0, -1.0, -1.0)"
         width="34.0"
         xlink:href="#shape0"
         id="use4" /></g><g
       id="shape0"
       transform="matrix(1.0, 0.0, 0.0, 1.0, 1.0, 1.0)"><path
         d="M0.0 32.0 L0.0 0.0 32.0 0.0 32.0 32.0 0.0 32.0"
         fill="#cccc00"
         fill-rule="evenodd"
         stroke="none"
         id="path4" /><path
         d="M0.0 32.0 L0.0 0.0 32.0 0.0 32.0 32.0 0.0 32.0 Z"
         fill="none"
         stroke="#733c2f"
         stroke-linecap="round"
         stroke-linejoin="round"
         stroke-width="2.0"
         id="path5" /></g><g
       id="shape1"
       transform="matrix(1.0, 0.0, 0.0, 1.0, -5.7, -1.3)"><path
         d="M18.0 11.45 L17.0 6.5 16.5 6.65 16.45 6.6 16.35 6.6 16.25 6.5 15.45 2.9 15.45 2.85 15.5 2.7 15.6 2.6 20.65 1.35 20.7 1.3 20.7 1.35 20.85 1.4 20.9 1.55 21.7 5.15 21.7 5.3 21.65 5.35 21.6 5.4 21.05 5.55 22.45 10.4 24.65 9.85 24.7 9.8 24.75 9.8 24.8 9.85 24.9 9.95 25.55 12.85 25.5 13.0 25.4 13.1 23.5 13.5 27.05 25.45 27.0 25.6 24.8 30.4 24.7 30.5 24.6 30.5 24.5 30.5 20.55 27.1 20.5 26.95 18.35 14.75 16.5 15.25 16.45 15.2 16.35 15.2 16.25 15.1 15.55 12.2 15.55 12.1 15.6 12.1 15.6 12.05 15.65 12.0 15.75 11.95 15.7 11.95 18.0 11.45 M22.05 20.25 L20.5 14.2 19.25 14.5 21.5 25.95 24.4 29.1 25.7 25.05 22.55 13.75 21.35 14.0 23.35 22.15 23.3 22.15 23.35 22.15 23.65 24.95 23.7 24.95 23.7 25.05 23.65 25.1 23.6 25.15 23.5 25.1 23.4 25.15 23.3 25.05 22.65 22.4 22.05 20.25 M18.0 6.25 L18.9 11.25 21.35 10.65 20.1 5.75 18.0 6.25"
         fill="#733c2f"
         fill-rule="evenodd"
         stroke="none"
         id="path6" /><path
         d="M22.65 22.4 L23.3 25.05 23.4 25.15 23.5 25.1 23.6 25.15 23.65 25.1 23.7 25.05 23.7 24.95 23.65 24.95 23.35 22.15 23.3 22.15 23.35 22.15 21.35 14.0 22.55 13.75 25.7 25.05 24.4 29.1 21.5 25.95 19.25 14.5 20.5 14.2 22.05 20.25 22.15 20.55 22.6 22.3 22.65 22.4"
         fill="#fcf9e0"
         fill-rule="evenodd"
         stroke="none"
         id="path7" /><path
         d="M7.15 18.55 Q7.7 9.65 5.7 2.0 12.65 4.15 10.9 18.5 L7.15 18.55 M10.1 17.55 Q11.2 6.85 7.1 3.75 8.5 10.2 8.15 17.55 L10.1 17.55"
         fill="#733c2f"
         fill-rule="evenodd"
         stroke="none"
         id="path8" /><path
         d="M10.1 17.55 L8.15 17.55 Q8.5 10.2 7.1 3.75 11.2 6.85 10.1 17.55"
         fill="#fcf9e0"
         fill-rule="evenodd"
         stroke="none"
         id="path9" /><path
         d="M11.3 20.9 L11.7 22.25 12.1 25.0 11.65 28.05 11.25 29.4 7.45 29.45 7.25 18.2 12.25 18.1 12.3 19.55 11.85 20.0 Q11.3 20.7 11.3 20.9"
         fill="#733c2f"
         fill-rule="evenodd"
         stroke="none"
         id="path10" /><path
         d="M10.0 21.2 L9.75 21.75 9.25 22.0 Q8.95 22.0 8.75 21.8 L8.55 21.25 8.75 20.7 9.25 20.5 9.75 20.65 10.0 21.2"
         fill="#fcf9e0"
         fill-rule="evenodd"
         stroke="none"
         id="path11" /><path
         d="M10.05 27.1 L9.8 27.65 9.3 27.9 8.8 27.7 8.6 27.15 8.8 26.6 9.3 26.4 9.8 26.55 10.05 27.1"
         fill="#fcf9e0"
         fill-rule="evenodd"
         stroke="none"
         id="path12" /></g></defs><g
     inkscape:label="Calque 1"
     inkscape:groupmode="layer"
     id="layer1"><g
       id="g3-0-2-4-0-3"
       transform="matrix(0.00259993,0,0,0.00263442,3.8329639,7.0863135)">
	<path
   class="st0"
   d="m 280.75,477.146 c -0.359,0.281 -0.734,0.547 -1.109,0.797 -3.953,2.719 -8.328,4.969 -13.016,6.516 -4.688,1.531 -9.719,2.359 -14.922,2.266 -5.203,-0.109 -10.188,-1.156 -14.813,-2.891 -4.609,-1.734 -8.906,-4.172 -12.734,-7.047 -0.375,-0.281 -0.719,-0.547 -1.078,-0.844 -2.688,0.109 -5.328,0.125 -7.859,0.063 -14.547,-0.281 -26.219,-2.922 -35.094,-6.141 1.203,2.609 2.438,5.188 3.766,7.781 17.094,45.375 41.594,25.297 67.453,25.844 25.875,0.531 49.531,21.625 68.5,-23 1.406,-2.547 2.781,-5.063 4.094,-7.609 -9.031,2.828 -20.781,4.984 -35.344,4.672 -2.531,-0.063 -5.141,-0.188 -7.844,-0.407 z"
   id="path1-3-3-7-4-9"
   style="fill:#000000" />
	<path
   class="st0"
   d="m 251.906,476.35 c 22.016,0.469 40.281,-20.297 40.641,-36.547 0.328,-16.234 -17.391,-21.813 -39.391,-22.281 -22,-0.453 -39.938,4.391 -40.281,20.625 -0.344,16.249 17.031,37.749 39.031,38.203 z"
   id="path2-9-6-1-6-7"
   style="fill:#000000" />
	<path
   class="st0"
   d="M 477.328,283.943 512,276.053 431.578,134.444 c 0,0 4.047,-101.5 -15.594,-124.922 C 375.75,8.678 303.531,70.443 303.531,70.443 l -43.109,-0.906 -43.109,-0.906 c 0,0 -69.578,-64.719 -109.813,-65.563 C 86.906,25.646 86.688,127.24 86.688,127.24 L 0.438,265.365 34.735,274.693 0,331.475 57.203,338.444 44,381.287 93.75,378.49 84.953,419.021 c 0,0 48.547,-7.609 61.484,-7.344 10.25,0.219 17.969,20.766 28.469,44.688 0.313,0.141 0.641,0.313 0.969,0.469 8.281,3.969 20.938,8.094 38.531,8.609 -3.063,-3.734 -5.578,-7.797 -7.469,-11.953 -2.375,-5.359 -3.719,-10.938 -3.625,-16.391 0.094,-4.625 1.281,-8.859 3.484,-12.422 2.172,-3.563 5.266,-6.375 8.828,-8.531 2.406,-1.438 5,-2.578 7.766,-3.516 3.688,-1.25 7.672,-2.094 11.922,-2.672 5.641,-0.75 11.719,-1 18,-0.859 6.313,0.125 12.375,0.625 17.984,1.609 4.172,0.75 8.156,1.766 11.797,3.172 2.719,1.047 5.281,2.297 7.594,3.828 3.469,2.297 6.453,5.25 8.469,8.906 2.047,3.641 3.063,7.938 2.953,12.547 -0.109,5.453 -1.703,10.984 -4.297,16.219 -2.063,4.078 -4.75,8.031 -7.938,11.656 17.578,0.203 30.406,-3.391 38.828,-7 0.359,-0.156 0.672,-0.297 1,-0.453 11.484,-23.438 20.063,-43.656 30.297,-43.438 12.922,0.266 61.125,9.906 61.125,9.906 l -7.094,-40.875 49.594,4.859 -11.422,-43.344 57.453,-4.563 z M 131.375,91.787 c 0,0 -2.094,8.578 -6.094,16.156 -15.688,-29.063 -1.438,-69.016 -1.438,-69.016 23.844,5.281 51.844,41.328 51.844,41.328 l -18.219,0.563 -6.094,16.188 z m 37.422,208.281 c -9.016,-0.188 -16.172,-7.656 -15.984,-16.688 0.188,-9.016 7.656,-16.172 16.656,-15.984 9.063,0.188 16.203,7.656 16.031,16.672 -0.187,9.032 -7.656,16.188 -16.703,16 z m 173.516,3.625 c -9,-0.188 -16.172,-7.656 -15.984,-16.688 0.172,-9.016 7.656,-16.172 16.672,-15.984 9.047,0.172 16.188,7.656 16,16.672 -0.188,9.032 -7.626,16.172 -16.688,16 z m 51.5,-190.14 c -3.656,-7.734 -5.375,-16.391 -5.375,-16.391 l -20.234,4.359 -5.406,-16.406 -18.172,-1.328 c 0,0 29.469,-34.844 53.531,-39.141 -10e-4,0 12.562,40.516 -4.344,68.907 z"
   id="path3-9-5-3-0-3"
   style="fill:#000000" />
</g><g
       id="g3-0-2-4-0-3-9"
       transform="matrix(0.00259993,0,0,0.00391881,6.0899539,1.1796947)">
	<path
   class="st0"
   d="m 280.75,477.146 c -0.359,0.281 -0.734,0.547 -1.109,0.797 -3.953,2.719 -8.328,4.969 -13.016,6.516 -4.688,1.531 -9.719,2.359 -14.922,2.266 -5.203,-0.109 -10.188,-1.156 -14.813,-2.891 -4.609,-1.734 -8.906,-4.172 -12.734,-7.047 -0.375,-0.281 -0.719,-0.547 -1.078,-0.844 -2.688,0.109 -5.328,0.125 -7.859,0.063 -14.547,-0.281 -26.219,-2.922 -35.094,-6.141 1.203,2.609 2.438,5.188 3.766,7.781 17.094,45.375 41.594,25.297 67.453,25.844 25.875,0.531 49.531,21.625 68.5,-23 1.406,-2.547 2.781,-5.063 4.094,-7.609 -9.031,2.828 -20.781,4.984 -35.344,4.672 -2.531,-0.063 -5.141,-0.188 -7.844,-0.407 z"
   id="path1-3-3-7-4-9-4"
   style="fill:#000000" />
	<path
   class="st0"
   d="m 251.906,476.35 c 22.016,0.469 40.281,-20.297 40.641,-36.547 0.328,-16.234 -17.391,-21.813 -39.391,-22.281 -22,-0.453 -39.938,4.391 -40.281,20.625 -0.344,16.249 17.031,37.749 39.031,38.203 z"
   id="path2-9-6-1-6-7-1"
   style="fill:#000000" />
	<path
   class="st0"
   d="M 477.328,283.943 512,276.053 431.578,134.444 c 0,0 4.047,-101.5 -15.594,-124.922 C 375.75,8.678 303.531,70.443 303.531,70.443 l -43.109,-0.906 -43.109,-0.906 c 0,0 -69.578,-64.719 -109.813,-65.563 C 86.906,25.646 86.688,127.24 86.688,127.24 L 0.438,265.365 34.735,274.693 0,331.475 57.203,338.444 44,381.287 93.75,378.49 84.953,419.021 c 0,0 48.547,-7.609 61.484,-7.344 10.25,0.219 17.969,20.766 28.469,44.688 0.313,0.141 0.641,0.313 0.969,0.469 8.281,3.969 20.938,8.094 38.531,8.609 -3.063,-3.734 -5.578,-7.797 -7.469,-11.953 -2.375,-5.359 -3.719,-10.938 -3.625,-16.391 0.094,-4.625 1.281,-8.859 3.484,-12.422 2.172,-3.563 5.266,-6.375 8.828,-8.531 2.406,-1.438 5,-2.578 7.766,-3.516 3.688,-1.25 7.672,-2.094 11.922,-2.672 5.641,-0.75 11.719,-1 18,-0.859 6.313,0.125 12.375,0.625 17.984,1.609 4.172,0.75 8.156,1.766 11.797,3.172 2.719,1.047 5.281,2.297 7.594,3.828 3.469,2.297 6.453,5.25 8.469,8.906 2.047,3.641 3.063,7.938 2.953,12.547 -0.109,5.453 -1.703,10.984 -4.297,16.219 -2.063,4.078 -4.75,8.031 -7.938,11.656 17.578,0.203 30.406,-3.391 38.828,-7 0.359,-0.156 0.672,-0.297 1,-0.453 11.484,-23.438 20.063,-43.656 30.297,-43.438 12.922,0.266 61.125,9.906 61.125,9.906 l -7.094,-40.875 49.594,4.859 -11.422,-43.344 57.453,-4.563 z M 131.375,91.787 c 0,0 -2.094,8.578 -6.094,16.156 -15.688,-29.063 -1.438,-69.016 -1.438,-69.016 23.844,5.281 51.844,41.328 51.844,41.328 l -18.219,0.563 -6.094,16.188 z m 37.422,208.281 c -9.016,-0.188 -16.172,-7.656 -15.984,-16.688 0.188,-9.016 7.656,-16.172 16.656,-15.984 9.063,0.188 16.203,7.656 16.031,16.672 -0.187,9.032 -7.656,16.188 -16.703,16 z m 173.516,3.625 c -9,-0.188 -16.172,-7.656 -15.984,-16.688 0.172,-9.016 7.656,-16.172 16.672,-15.984 9.047,0.172 16.188,7.656 16,16.672 -0.188,9.032 -7.626,16.172 -16.688,16 z m 51.5,-190.14 c -3.656,-7.734 -5.375,-16.391 -5.375,-16.391 l -20.234,4.359 -5.406,-16.406 -18.172,-1.328 c 0,0 29.469,-34.844 53.531,-39.141 -10e-4,0 12.562,40.516 -4.344,68.907 z"
   id="path3-9-5-3-0-3-6"
   style="fill:#000000" />
</g><g
       id="g3-0-2-4-0-3-9-5"
       transform="matrix(0.00259993,0,0,0.00391881,6.1220849,1.0204915)">
	<path
   class="st0"
   d="m 280.75,477.146 c -0.359,0.281 -0.734,0.547 -1.109,0.797 -3.953,2.719 -8.328,4.969 -13.016,6.516 -4.688,1.531 -9.719,2.359 -14.922,2.266 -5.203,-0.109 -10.188,-1.156 -14.813,-2.891 -4.609,-1.734 -8.906,-4.172 -12.734,-7.047 -0.375,-0.281 -0.719,-0.547 -1.078,-0.844 -2.688,0.109 -5.328,0.125 -7.859,0.063 -14.547,-0.281 -26.219,-2.922 -35.094,-6.141 1.203,2.609 2.438,5.188 3.766,7.781 17.094,45.375 41.594,25.297 67.453,25.844 25.875,0.531 49.531,21.625 68.5,-23 1.406,-2.547 2.781,-5.063 4.094,-7.609 -9.031,2.828 -20.781,4.984 -35.344,4.672 -2.531,-0.063 -5.141,-0.188 -7.844,-0.407 z"
   id="path1-3-3-7-4-9-4-56"
   style="fill:#000000" />
	<path
   class="st0"
   d="m 251.906,476.35 c 22.016,0.469 40.281,-20.297 40.641,-36.547 0.328,-16.234 -17.391,-21.813 -39.391,-22.281 -22,-0.453 -39.938,4.391 -40.281,20.625 -0.344,16.249 17.031,37.749 39.031,38.203 z"
   id="path2-9-6-1-6-7-1-3"
   style="fill:#000000" />
	<path
   class="st0"
   d="M 477.328,283.943 512,276.053 431.578,134.444 c 0,0 4.047,-101.5 -15.594,-124.922 C 375.75,8.678 303.531,70.443 303.531,70.443 l -43.109,-0.906 -43.109,-0.906 c 0,0 -69.578,-64.719 -109.813,-65.563 C 86.906,25.646 86.688,127.24 86.688,127.24 L 0.438,265.365 34.735,274.693 0,331.475 57.203,338.444 44,381.287 93.75,378.49 84.953,419.021 c 0,0 48.547,-7.609 61.484,-7.344 10.25,0.219 17.969,20.766 28.469,44.688 0.313,0.141 0.641,0.313 0.969,0.469 8.281,3.969 20.938,8.094 38.531,8.609 -3.063,-3.734 -5.578,-7.797 -7.469,-11.953 -2.375,-5.359 -3.719,-10.938 -3.625,-16.391 0.094,-4.625 1.281,-8.859 3.484,-12.422 2.172,-3.563 5.266,-6.375 8.828,-8.531 2.406,-1.438 5,-2.578 7.766,-3.516 3.688,-1.25 7.672,-2.094 11.922,-2.672 5.641,-0.75 11.719,-1 18,-0.859 6.313,0.125 12.375,0.625 17.984,1.609 4.172,0.75 8.156,1.766 11.797,3.172 2.719,1.047 5.281,2.297 7.594,3.828 3.469,2.297 6.453,5.25 8.469,8.906 2.047,3.641 3.063,7.938 2.953,12.547 -0.109,5.453 -1.703,10.984 -4.297,16.219 -2.063,4.078 -4.75,8.031 -7.938,11.656 17.578,0.203 30.406,-3.391 38.828,-7 0.359,-0.156 0.672,-0.297 1,-0.453 11.484,-23.438 20.063,-43.656 30.297,-43.438 12.922,0.266 61.125,9.906 61.125,9.906 l -7.094,-40.875 49.594,4.859 -11.422,-43.344 57.453,-4.563 z M 131.375,91.787 c 0,0 -2.094,8.578 -6.094,16.156 -15.688,-29.063 -1.438,-69.016 -1.438,-69.016 23.844,5.281 51.844,41.328 51.844,41.328 l -18.219,0.563 -6.094,16.188 z m 37.422,208.281 c -9.016,-0.188 -16.172,-7.656 -15.984,-16.688 0.188,-9.016 7.656,-16.172 16.656,-15.984 9.063,0.188 16.203,7.656 16.031,16.672 -0.187,9.032 -7.656,16.188 -16.703,16 z m 173.516,3.625 c -9,-0.188 -16.172,-7.656 -15.984,-16.688 0.172,-9.016 7.656,-16.172 16.672,-15.984 9.047,0.172 16.188,7.656 16,16.672 -0.188,9.032 -7.626,16.172 -16.688,16 z m 51.5,-190.14 c -3.656,-7.734 -5.375,-16.391 -5.375,-16.391 l -20.234,4.359 -5.406,-16.406 -18.172,-1.328 c 0,0 29.469,-34.844 53.531,-39.141 -10e-4,0 12.562,40.516 -4.344,68.907 z"
   id="path3-9-5-3-0-3-6-2"
   style="fill:#000000" />
</g><g
       id="g3-0-2-4-0-3-9-5-4"
       transform="matrix(0.00259993,0,0,0.00391881,1.7277749,1.3798265)">
	<path
   class="st0"
   d="m 280.75,477.146 c -0.359,0.281 -0.734,0.547 -1.109,0.797 -3.953,2.719 -8.328,4.969 -13.016,6.516 -4.688,1.531 -9.719,2.359 -14.922,2.266 -5.203,-0.109 -10.188,-1.156 -14.813,-2.891 -4.609,-1.734 -8.906,-4.172 -12.734,-7.047 -0.375,-0.281 -0.719,-0.547 -1.078,-0.844 -2.688,0.109 -5.328,0.125 -7.859,0.063 -14.547,-0.281 -26.219,-2.922 -35.094,-6.141 1.203,2.609 2.438,5.188 3.766,7.781 17.094,45.375 41.594,25.297 67.453,25.844 25.875,0.531 49.531,21.625 68.5,-23 1.406,-2.547 2.781,-5.063 4.094,-7.609 -9.031,2.828 -20.781,4.984 -35.344,4.672 -2.531,-0.063 -5.141,-0.188 -7.844,-0.407 z"
   id="path1-3-3-7-4-9-4-56-8"
   style="fill:#000000" />
	<path
   class="st0"
   d="m 251.906,476.35 c 22.016,0.469 40.281,-20.297 40.641,-36.547 0.328,-16.234 -17.391,-21.813 -39.391,-22.281 -22,-0.453 -39.938,4.391 -40.281,20.625 -0.344,16.249 17.031,37.749 39.031,38.203 z"
   id="path2-9-6-1-6-7-1-3-8"
   style="fill:#000000" />
	<path
   class="st0"
   d="M 477.328,283.943 512,276.053 431.578,134.444 c 0,0 4.047,-101.5 -15.594,-124.922 C 375.75,8.678 303.531,70.443 303.531,70.443 l -43.109,-0.906 -43.109,-0.906 c 0,0 -69.578,-64.719 -109.813,-65.563 C 86.906,25.646 86.688,127.24 86.688,127.24 L 0.438,265.365 34.735,274.693 0,331.475 57.203,338.444 44,381.287 93.75,378.49 84.953,419.021 c 0,0 48.547,-7.609 61.484,-7.344 10.25,0.219 17.969,20.766 28.469,44.688 0.313,0.141 0.641,0.313 0.969,0.469 8.281,3.969 20.938,8.094 38.531,8.609 -3.063,-3.734 -5.578,-7.797 -7.469,-11.953 -2.375,-5.359 -3.719,-10.938 -3.625,-16.391 0.094,-4.625 1.281,-8.859 3.484,-12.422 2.172,-3.563 5.266,-6.375 8.828,-8.531 2.406,-1.438 5,-2.578 7.766,-3.516 3.688,-1.25 7.672,-2.094 11.922,-2.672 5.641,-0.75 11.719,-1 18,-0.859 6.313,0.125 12.375,0.625 17.984,1.609 4.172,0.75 8.156,1.766 11.797,3.172 2.719,1.047 5.281,2.297 7.594,3.828 3.469,2.297 6.453,5.25 8.469,8.906 2.047,3.641 3.063,7.938 2.953,12.547 -0.109,5.453 -1.703,10.984 -4.297,16.219 -2.063,4.078 -4.75,8.031 -7.938,11.656 17.578,0.203 30.406,-3.391 38.828,-7 0.359,-0.156 0.672,-0.297 1,-0.453 11.484,-23.438 20.063,-43.656 30.297,-43.438 12.922,0.266 61.125,9.906 61.125,9.906 l -7.094,-40.875 49.594,4.859 -11.422,-43.344 57.453,-4.563 z M 131.375,91.787 c 0,0 -2.094,8.578 -6.094,16.156 -15.688,-29.063 -1.438,-69.016 -1.438,-69.016 23.844,5.281 51.844,41.328 51.844,41.328 l -18.219,0.563 -6.094,16.188 z m 37.422,208.281 c -9.016,-0.188 -16.172,-7.656 -15.984,-16.688 0.188,-9.016 7.656,-16.172 16.656,-15.984 9.063,0.188 16.203,7.656 16.031,16.672 -0.187,9.032 -7.656,16.188 -16.703,16 z m 173.516,3.625 c -9,-0.188 -16.172,-7.656 -15.984,-16.688 0.172,-9.016 7.656,-16.172 16.672,-15.984 9.047,0.172 16.188,7.656 16,16.672 -0.188,9.032 -7.626,16.172 -16.688,16 z m 51.5,-190.14 c -3.656,-7.734 -5.375,-16.391 -5.375,-16.391 l -20.234,4.359 -5.406,-16.406 -18.172,-1.328 c 0,0 29.469,-34.844 53.531,-39.141 -10e-4,0 12.562,40.516 -4.344,68.907 z"
   id="path3-9-5-3-0-3-6-2-7"
   style="fill:#000000" />
</g><g
       id="g3-0-2-4-0-3-9-4"
       transform="matrix(0.0028643,0,0,0.00407936,1.4866569,1.18496)">
	<path
   class="st0"
   d="m 280.75,477.146 c -0.359,0.281 -0.734,0.547 -1.109,0.797 -3.953,2.719 -8.328,4.969 -13.016,6.516 -4.688,1.531 -9.719,2.359 -14.922,2.266 -5.203,-0.109 -10.188,-1.156 -14.813,-2.891 -4.609,-1.734 -8.906,-4.172 -12.734,-7.047 -0.375,-0.281 -0.719,-0.547 -1.078,-0.844 -2.688,0.109 -5.328,0.125 -7.859,0.063 -14.547,-0.281 -26.219,-2.922 -35.094,-6.141 1.203,2.609 2.438,5.188 3.766,7.781 17.094,45.375 41.594,25.297 67.453,25.844 25.875,0.531 49.531,21.625 68.5,-23 1.406,-2.547 2.781,-5.063 4.094,-7.609 -9.031,2.828 -20.781,4.984 -35.344,4.672 -2.531,-0.063 -5.141,-0.188 -7.844,-0.407 z"
   id="path1-3-3-7-4-9-4-5"
   style="fill:#000000" />
	<path
   class="st0"
   d="m 251.906,476.35 c 22.016,0.469 40.281,-20.297 40.641,-36.547 0.328,-16.234 -17.391,-21.813 -39.391,-22.281 -22,-0.453 -39.938,4.391 -40.281,20.625 -0.344,16.249 17.031,37.749 39.031,38.203 z"
   id="path2-9-6-1-6-7-1-9"
   style="fill:#000000" />
	<path
   class="st0"
   d="M 477.328,283.943 512,276.053 431.578,134.444 c 0,0 4.047,-101.5 -15.594,-124.922 C 375.75,8.678 303.531,70.443 303.531,70.443 l -43.109,-0.906 -43.109,-0.906 c 0,0 -69.578,-64.719 -109.813,-65.563 C 86.906,25.646 86.688,127.24 86.688,127.24 L 0.438,265.365 34.735,274.693 0,331.475 57.203,338.444 44,381.287 93.75,378.49 84.953,419.021 c 0,0 48.547,-7.609 61.484,-7.344 10.25,0.219 17.969,20.766 28.469,44.688 0.313,0.141 0.641,0.313 0.969,0.469 8.281,3.969 20.938,8.094 38.531,8.609 -3.063,-3.734 -5.578,-7.797 -7.469,-11.953 -2.375,-5.359 -3.719,-10.938 -3.625,-16.391 0.094,-4.625 1.281,-8.859 3.484,-12.422 2.172,-3.563 5.266,-6.375 8.828,-8.531 2.406,-1.438 5,-2.578 7.766,-3.516 3.688,-1.25 7.672,-2.094 11.922,-2.672 5.641,-0.75 11.719,-1 18,-0.859 6.313,0.125 12.375,0.625 17.984,1.609 4.172,0.75 8.156,1.766 11.797,3.172 2.719,1.047 5.281,2.297 7.594,3.828 3.469,2.297 6.453,5.25 8.469,8.906 2.047,3.641 3.063,7.938 2.953,12.547 -0.109,5.453 -1.703,10.984 -4.297,16.219 -2.063,4.078 -4.75,8.031 -7.938,11.656 17.578,0.203 30.406,-3.391 38.828,-7 0.359,-0.156 0.672,-0.297 1,-0.453 11.484,-23.438 20.063,-43.656 30.297,-43.438 12.922,0.266 61.125,9.906 61.125,9.906 l -7.094,-40.875 49.594,4.859 -11.422,-43.344 57.453,-4.563 z M 131.375,91.787 c 0,0 -2.094,8.578 -6.094,16.156 -15.688,-29.063 -1.438,-69.016 -1.438,-69.016 23.844,5.281 51.844,41.328 51.844,41.328 l -18.219,0.563 -6.094,16.188 z m 37.422,208.281 c -9.016,-0.188 -16.172,-7.656 -15.984,-16.688 0.188,-9.016 7.656,-16.172 16.656,-15.984 9.063,0.188 16.203,7.656 16.031,16.672 -0.187,9.032 -7.656,16.188 -16.703,16 z m 173.516,3.625 c -9,-0.188 -16.172,-7.656 -15.984,-16.688 0.172,-9.016 7.656,-16.172 16.672,-15.984 9.047,0.172 16.188,7.656 16,16.672 -0.188,9.032 -7.626,16.172 -16.688,16 z m 51.5,-190.14 c -3.656,-7.734 -5.375,-16.391 -5.375,-16.391 l -20.234,4.359 -5.406,-16.406 -18.172,-1.328 c 0,0 29.469,-34.844 53.531,-39.141 -10e-4,0 12.562,40.516 -4.344,68.907 z"
   id="path3-9-5-3-0-3-6-7"
   style="fill:#000000" />
</g><g
       id="g3-0-2-4-0-8"
       transform="matrix(0.00298272,0,0,0.00290264,2.5666859,4.7630005)">
	<path
   class="st0"
   d="m 280.75,477.146 c -0.359,0.281 -0.734,0.547 -1.109,0.797 -3.953,2.719 -8.328,4.969 -13.016,6.516 -4.688,1.531 -9.719,2.359 -14.922,2.266 -5.203,-0.109 -10.188,-1.156 -14.813,-2.891 -4.609,-1.734 -8.906,-4.172 -12.734,-7.047 -0.375,-0.281 -0.719,-0.547 -1.078,-0.844 -2.688,0.109 -5.328,0.125 -7.859,0.063 -14.547,-0.281 -26.219,-2.922 -35.094,-6.141 1.203,2.609 2.438,5.188 3.766,7.781 17.094,45.375 41.594,25.297 67.453,25.844 25.875,0.531 49.531,21.625 68.5,-23 1.406,-2.547 2.781,-5.063 4.094,-7.609 -9.031,2.828 -20.781,4.984 -35.344,4.672 -2.531,-0.063 -5.141,-0.188 -7.844,-0.407 z"
   id="path1-3-3-7-4-5"
   style="fill:#000000" />
	<path
   class="st0"
   d="m 251.906,476.35 c 22.016,0.469 40.281,-20.297 40.641,-36.547 0.328,-16.234 -17.391,-21.813 -39.391,-22.281 -22,-0.453 -39.938,4.391 -40.281,20.625 -0.344,16.249 17.031,37.749 39.031,38.203 z"
   id="path2-9-6-1-6-5"
   style="fill:#000000" />
	<path
   class="st0"
   d="M 477.328,283.943 512,276.053 431.578,134.444 c 0,0 4.047,-101.5 -15.594,-124.922 C 375.75,8.678 303.531,70.443 303.531,70.443 l -43.109,-0.906 -43.109,-0.906 c 0,0 -69.578,-64.719 -109.813,-65.563 C 86.906,25.646 86.688,127.24 86.688,127.24 L 0.438,265.365 34.735,274.693 0,331.475 57.203,338.444 44,381.287 93.75,378.49 84.953,419.021 c 0,0 48.547,-7.609 61.484,-7.344 10.25,0.219 17.969,20.766 28.469,44.688 0.313,0.141 0.641,0.313 0.969,0.469 8.281,3.969 20.938,8.094 38.531,8.609 -3.063,-3.734 -5.578,-7.797 -7.469,-11.953 -2.375,-5.359 -3.719,-10.938 -3.625,-16.391 0.094,-4.625 1.281,-8.859 3.484,-12.422 2.172,-3.563 5.266,-6.375 8.828,-8.531 2.406,-1.438 5,-2.578 7.766,-3.516 3.688,-1.25 7.672,-2.094 11.922,-2.672 5.641,-0.75 11.719,-1 18,-0.859 6.313,0.125 12.375,0.625 17.984,1.609 4.172,0.75 8.156,1.766 11.797,3.172 2.719,1.047 5.281,2.297 7.594,3.828 3.469,2.297 6.453,5.25 8.469,8.906 2.047,3.641 3.063,7.938 2.953,12.547 -0.109,5.453 -1.703,10.984 -4.297,16.219 -2.063,4.078 -4.75,8.031 -7.938,11.656 17.578,0.203 30.406,-3.391 38.828,-7 0.359,-0.156 0.672,-0.297 1,-0.453 11.484,-23.438 20.063,-43.656 30.297,-43.438 12.922,0.266 61.125,9.906 61.125,9.906 l -7.094,-40.875 49.594,4.859 -11.422,-43.344 57.453,-4.563 z M 131.375,91.787 c 0,0 -2.094,8.578 -6.094,16.156 -15.688,-29.063 -1.438,-69.016 -1.438,-69.016 23.844,5.281 51.844,41.328 51.844,41.328 l -18.219,0.563 -6.094,16.188 z m 37.422,208.281 c -9.016,-0.188 -16.172,-7.656 -15.984,-16.688 0.188,-9.016 7.656,-16.172 16.656,-15.984 9.063,0.188 16.203,7.656 16.031,16.672 -0.187,9.032 -7.656,16.188 -16.703,16 z m 173.516,3.625 c -9,-0.188 -16.172,-7.656 -15.984,-16.688 0.172,-9.016 7.656,-16.172 16.672,-15.984 9.047,0.172 16.188,7.656 16,16.672 -0.188,9.032 -7.626,16.172 -16.688,16 z m 51.5,-190.14 c -3.656,-7.734 -5.375,-16.391 -5.375,-16.391 l -20.234,4.359 -5.406,-16.406 -18.172,-1.328 c 0,0 29.469,-34.844 53.531,-39.141 -10e-4,0 12.562,40.516 -4.344,68.907 z"
   id="path3-9-5-3-0-5"
   style="fill:#000000" />
</g><g
       id="g3-0-2-4-0-8-2"
       transform="matrix(0.00298272,0,0,0.00290264,4.8989569,4.7630008)">
	<path
   class="st0"
   d="m 280.75,477.146 c -0.359,0.281 -0.734,0.547 -1.109,0.797 -3.953,2.719 -8.328,4.969 -13.016,6.516 -4.688,1.531 -9.719,2.359 -14.922,2.266 -5.203,-0.109 -10.188,-1.156 -14.813,-2.891 -4.609,-1.734 -8.906,-4.172 -12.734,-7.047 -0.375,-0.281 -0.719,-0.547 -1.078,-0.844 -2.688,0.109 -5.328,0.125 -7.859,0.063 -14.547,-0.281 -26.219,-2.922 -35.094,-6.141 1.203,2.609 2.438,5.188 3.766,7.781 17.094,45.375 41.594,25.297 67.453,25.844 25.875,0.531 49.531,21.625 68.5,-23 1.406,-2.547 2.781,-5.063 4.094,-7.609 -9.031,2.828 -20.781,4.984 -35.344,4.672 -2.531,-0.063 -5.141,-0.188 -7.844,-0.407 z"
   id="path1-3-3-7-4-5-4"
   style="fill:#000000" />
	<path
   class="st0"
   d="m 251.906,476.35 c 22.016,0.469 40.281,-20.297 40.641,-36.547 0.328,-16.234 -17.391,-21.813 -39.391,-22.281 -22,-0.453 -39.938,4.391 -40.281,20.625 -0.344,16.249 17.031,37.749 39.031,38.203 z"
   id="path2-9-6-1-6-5-5"
   style="fill:#000000" />
	<path
   class="st0"
   d="M 477.328,283.943 512,276.053 431.578,134.444 c 0,0 4.047,-101.5 -15.594,-124.922 C 375.75,8.678 303.531,70.443 303.531,70.443 l -43.109,-0.906 -43.109,-0.906 c 0,0 -69.578,-64.719 -109.813,-65.563 C 86.906,25.646 86.688,127.24 86.688,127.24 L 0.438,265.365 34.735,274.693 0,331.475 57.203,338.444 44,381.287 93.75,378.49 84.953,419.021 c 0,0 48.547,-7.609 61.484,-7.344 10.25,0.219 17.969,20.766 28.469,44.688 0.313,0.141 0.641,0.313 0.969,0.469 8.281,3.969 20.938,8.094 38.531,8.609 -3.063,-3.734 -5.578,-7.797 -7.469,-11.953 -2.375,-5.359 -3.719,-10.938 -3.625,-16.391 0.094,-4.625 1.281,-8.859 3.484,-12.422 2.172,-3.563 5.266,-6.375 8.828,-8.531 2.406,-1.438 5,-2.578 7.766,-3.516 3.688,-1.25 7.672,-2.094 11.922,-2.672 5.641,-0.75 11.719,-1 18,-0.859 6.313,0.125 12.375,0.625 17.984,1.609 4.172,0.75 8.156,1.766 11.797,3.172 2.719,1.047 5.281,2.297 7.594,3.828 3.469,2.297 6.453,5.25 8.469,8.906 2.047,3.641 3.063,7.938 2.953,12.547 -0.109,5.453 -1.703,10.984 -4.297,16.219 -2.063,4.078 -4.75,8.031 -7.938,11.656 17.578,0.203 30.406,-3.391 38.828,-7 0.359,-0.156 0.672,-0.297 1,-0.453 11.484,-23.438 20.063,-43.656 30.297,-43.438 12.922,0.266 61.125,9.906 61.125,9.906 l -7.094,-40.875 49.594,4.859 -11.422,-43.344 57.453,-4.563 z M 131.375,91.787 c 0,0 -2.094,8.578 -6.094,16.156 -15.688,-29.063 -1.438,-69.016 -1.438,-69.016 23.844,5.281 51.844,41.328 51.844,41.328 l -18.219,0.563 -6.094,16.188 z m 37.422,208.281 c -9.016,-0.188 -16.172,-7.656 -15.984,-16.688 0.188,-9.016 7.656,-16.172 16.656,-15.984 9.063,0.188 16.203,7.656 16.031,16.672 -0.187,9.032 -7.656,16.188 -16.703,16 z m 173.516,3.625 c -9,-0.188 -16.172,-7.656 -15.984,-16.688 0.172,-9.016 7.656,-16.172 16.672,-15.984 9.047,0.172 16.188,7.656 16,16.672 -0.188,9.032 -7.626,16.172 -16.688,16 z m 51.5,-190.14 c -3.656,-7.734 -5.375,-16.391 -5.375,-16.391 l -20.234,4.359 -5.406,-16.406 -18.172,-1.328 c 0,0 29.469,-34.844 53.531,-39.141 -10e-4,0 12.562,40.516 -4.344,68.907 z"
   id="path3-9-5-3-0-5-8"
   style="fill:#000000" />
</g><g
       id="g1"
       transform="matrix(0.01876983,0,0,0.01670575,-0.30709259,0.42900208)">
	<path
   class="st0"
   d="m 483.009,360.176 c -1.424,-13.064 -3.35,-25.629 -5.698,-37.614 -5.947,-30.987 -14.822,-58.301 -23.956,-81.165 -19.686,-48.919 -41.045,-77.566 -41.045,-77.566 0,0 9.886,-14.242 12.484,-67.52 0.248,-3.682 0.331,-7.453 0.417,-11.478 1.088,-43.307 -15.412,-71.954 -28.398,-81.337 -5.861,-4.352 -10.973,-4.688 -13.404,-0.753 -3.096,4.778 -14.238,21.195 -27.138,39.789 -1.174,1.596 -2.348,3.273 -3.518,5.031 -21.028,30.406 -45.07,64.748 -45.07,64.748 H 256 204.316 c 0,0 -24.042,-34.341 -45.069,-64.748 -1.17,-1.758 -2.344,-3.435 -3.517,-5.031 C 142.829,23.94 131.687,7.522 128.591,2.744 c -2.429,-3.935 -7.542,-3.599 -13.404,0.753 -12.986,9.383 -29.486,38.03 -28.398,81.337 0.086,4.025 0.168,7.796 0.417,11.478 2.597,53.278 12.483,67.52 12.483,67.52 0,0 -21.359,28.648 -41.045,77.566 -9.133,22.864 -18.009,50.178 -23.956,81.165 -2.347,11.984 -4.274,24.55 -5.697,37.614 -0.086,0.589 -0.086,1.26 -0.168,1.849 l 1.174,-0.09 0.667,-0.081 h 1.006 l 47.078,-2.928 -6.282,50.758 49.589,-7.706 8.377,36.272 36.309,-19.142 c 11.607,31.143 26.868,70.678 33.257,81.075 10.938,17.85 35.02,12.754 52.534,2.561 1.297,-0.761 2.376,-1.448 3.346,-2.103 0.969,0.654 2.041,1.342 3.354,2.103 17.51,10.193 41.585,15.289 52.526,-2.561 6.389,-10.406 21.743,-49.974 33.424,-81.116 l 36.386,19.184 8.377,-36.272 49.589,7.706 -6.283,-50.758 47.078,2.928 h 1.007 l 0.666,0.081 1.174,0.09 c -0.082,-0.591 -0.082,-1.262 -0.167,-1.851 z M 128.845,146.056 c -12.823,-14.814 -18.21,-50.93 -13.866,-67.839 2.724,-10.66 13.182,-15.068 19.727,-7.542 6.56,7.534 29.568,49.638 29.568,49.638 0,0 -32.202,24.132 -35.429,25.743 z m 39.2,183.33 c 0,0 -13.96,-29.318 -16.753,-40.484 34.901,0 48.865,19.543 54.448,25.13 l 8.376,18.152 z m 115.593,126.68 c -10.671,13.596 -20.635,14.022 -27.642,14.022 -7.006,0 -16.962,-0.426 -27.646,-14.022 -8.561,-10.888 -1.559,-24.14 9.35,-24.14 3.89,0 18.295,0 18.295,0 0,0 14.414,0 18.303,0 10.914,0 17.92,13.252 9.34,24.14 z m 60.317,-126.68 -46.072,2.798 8.377,-18.152 c 5.583,-5.587 19.547,-25.13 54.448,-25.13 -2.793,11.165 -16.753,40.484 -16.753,40.484 z m 39.188,-183.33 c -3.223,-1.611 -35.42,-25.743 -35.42,-25.743 0,0 23.003,-42.104 29.555,-49.638 6.548,-7.526 17.003,-3.117 19.739,7.542 4.348,16.909 -1.052,53.024 -13.874,67.839 z"
   id="path1-30" />
</g><path
       style="fill:#d2d9d9;fill-opacity:1;stroke-width:0.0367993"
       d="M 3.5557069,8.6510273 C 3.4378619,8.5518678 3.2812219,8.2495094 2.9833959,7.5463114 2.9083549,7.3691321 2.8441619,7.2198873 2.8407449,7.2146557 c -0.0034,-0.00523 -0.15195,0.057819 -0.330073,0.1401125 -0.178124,0.082293 -0.335746,0.1362525 -0.350273,0.1199097 -0.01453,-0.016343 -0.0565,-0.1487718 -0.09327,-0.2942863 -0.06351,-0.2513383 -0.07159,-0.2637234 -0.16154,-0.2476111 -0.267056,0.047838 -0.795702,0.1159164 -0.808403,0.1041046 -0.01595,-0.014833 0.06304,-0.6547525 0.09428,-0.7638349 0.01847,-0.064496 -0.0047,-0.066598 -0.45766396,-0.041546 l -0.47712,0.026387 0.03245,-0.2069317 c 0.150991,-0.9628571 0.524438,-1.93231 1.04635096,-2.7162841 L 1.5735699,2.9770385 1.5020299,2.7638453 C 1.3512959,2.314671 1.3033819,1.4790446 1.4058099,1.085793 c 0.03019,-0.11591031 0.09514,-0.29017721 0.144338,-0.38725971 0.100391,-0.1981102 0.356184,-0.4490695 0.454064,-0.4454818 0.03929,0.00144 0.343373,0.3656744 0.781879,0.93653781 l 0.717587,0.9341814 0.993582,7.09e-4 0.993582,7.091e-4 0.715859,-0.9228689 c 0.393723,-0.50757951 0.736479,-0.93078291 0.761681,-0.94045371 0.137467,-0.052751 0.44595,0.2909995 0.572887,0.6383822 0.15061,0.41216851 0.126576,1.34039871 -0.04821,1.86171361 l -0.07085,0.2113091 0.205682,0.3038814 c 0.536893,0.7932232 0.910642,1.7654331 1.098411,2.8572232 l 0.02143,0.1245854 -0.46007,-0.02621 -0.460069,-0.02621 7.94e-4,0.1040212 c 4.5e-4,0.057211 0.02269,0.2496664 0.04946,0.4276783 l 0.04867,0.3236574 -0.09546,-0.018529 C 7.7785569,7.033177 7.6031189,7.007063 7.4412019,6.985337 7.2792849,6.963609 7.1121779,6.938425 7.0698539,6.929369 c -0.06905,-0.014774 -0.08384,0.013676 -0.144017,0.2771648 -0.03689,0.1614959 -0.07926,0.2936291 -0.09418,0.2936291 -0.01492,0 -0.171932,-0.066589 -0.34893,-0.1479751 -0.176997,-0.081386 -0.324819,-0.1434852 -0.328492,-0.1379975 -0.0037,0.00549 -0.06964,0.1590149 -0.14659,0.3411715 C 5.7347779,8.2012841 5.5481019,8.5590619 5.4337419,8.65529 5.2835969,8.7816283 4.9916149,8.7862183 4.6996509,8.666831 L 4.4972549,8.584068 4.2948589,8.666573 C 4.1695529,8.717654 4.0129429,8.74951 3.8836899,8.750209 3.7091289,8.7511615 3.6553809,8.7349 3.5557029,8.651027 Z m 1.291146,-0.6392582 c 0.255187,-0.1523765 0.331377,-0.3642257 0.183996,-0.5116066 -0.06563,-0.065628 -0.122664,-0.073599 -0.526651,-0.073599 -0.405072,0 -0.461582,0.00795 -0.53359,0.075032 -0.148267,0.1381308 -0.06573,0.3604919 0.192193,0.51777 0.161702,0.098605 0.512723,0.094706 0.684052,-0.0076 z M 3.6549259,5.6325966 C 3.5398139,5.4069896 3.4051069,5.2818041 3.1537559,5.16685 2.9017709,5.0516057 2.5284949,4.9982567 2.5284949,5.0774868 c 0,0.029157 0.06539,0.1882245 0.145305,0.3534841 0.163767,0.3386505 0.15478,0.3334784 0.609081,0.3505488 0.161917,0.00609 0.331933,0.014396 0.377813,0.018468 l 0.08342,0.00741 z m 2.469475,0.1186204 c 0.05351,-0.016936 0.341622,-0.5783228 0.341622,-0.6656602 0,-0.052701 -0.02899,-0.057675 -0.211269,-0.036252 -0.24247,0.028498 -0.52553,0.1483399 -0.701128,0.2968442 -0.110058,0.093076 -0.265181,0.3369749 -0.265181,0.4169407 0,0.029992 0.736741,0.019529 0.835956,-0.011873 z M 2.4922829,2.4560409 c 0.161594,-0.1036584 0.292774,-0.2075749 0.291512,-0.2309255 -0.0041,-0.075944 -0.491756,-0.7727475 -0.591272,-0.84487 -0.117568,-0.085206 -0.229235,-0.058972 -0.316613,0.074383 -0.125067,0.1908764 -0.04838,0.8063514 0.138122,1.1085847 0.08903,0.1442756 0.08478,0.1452281 0.478251,-0.1071722 z m 4.46576,0.1550832 c 0.197644,-0.2183947 0.30341,-1.0154793 0.156315,-1.1780381 -0.09998,-0.1104936 -0.197064,-0.130017 -0.302616,-0.060857 -0.08556,0.05606 -0.603314,0.7989201 -0.603314,0.8656167 0,0.028401 0.62029,0.4389747 0.665884,0.4407516 0.01204,4.683e-4 0.04972,-0.029894 0.08373,-0.067473 z"
       id="path18" /><path
       style="fill:#7a6967;fill-opacity:1;stroke-width:0.0294082"
       d="M 4.2269286,8.0796622 C 4.0628825,8.0144402 3.8843718,7.7779014 3.918366,7.6707954 3.928246,7.6396764 3.97041,7.5874034 4.012072,7.5546325 c 0.068013,-0.053499 0.1184818,-0.059583 0.4942345,-0.059583 0.3788418,0 0.4258273,0.00577 0.4959731,0.060951 0.1610786,0.1267044 0.058186,0.3837588 -0.2006748,0.5013433 -0.1312211,0.059605 -0.449775,0.071977 -0.5746758,0.02232 z M 4.7709797,7.8458991 c 0,-0.022693 -0.023159,-0.045719 -0.051464,-0.05117 -0.050692,-0.00976 -0.071648,0.052639 -0.031246,0.093041 0.030826,0.030826 0.08271,0.00456 0.08271,-0.041871 z M 4.3151532,7.8332441 c 0,-0.024262 -0.019852,-0.044112 -0.044112,-0.044112 -0.024262,0 -0.044112,0.019849 -0.044112,0.044112 0,0.024262 0.019852,0.044112 0.044112,0.044112 0.024262,0 0.044112,-0.019849 0.044112,-0.044112 z"
       id="path24" /><path
       style="fill:#7a6967;fill-opacity:1;stroke-width:0.0141138"
       d="m 5.3107527,5.8106185 c -0.043871,-0.0304 0.1414672,-0.3169726 0.2785539,-0.4307041 0.085575,-0.070996 0.3483525,-0.1990558 0.4812315,-0.2345197 0.1222579,-0.03263 0.311993,-0.058103 0.352964,-0.047389 0.019468,0.00509 0.027803,0.018775 0.027116,0.044517 -0.00212,0.079035 -0.016957,0.092734 -0.1167696,0.1077357 l -0.093906,0.014113 0.049295,0.081722 0.049295,0.081722 -0.04414,0.087441 C 6.2178605,5.6668646 6.1390925,5.7809569 6.100339,5.7963331 6.052834,5.8151821 5.3360527,5.8281491 5.3107527,5.8106185 Z M 5.9494169,5.6439337 c 0.027975,-0.010734 0.029125,-0.067016 0.00183,-0.089667 -0.033356,-0.027683 -0.078303,-0.00451 -0.078303,0.040378 0,0.056256 0.021762,0.070283 0.076472,0.04929 z"
       id="path25" /><path
       style="fill:#7a6967;fill-opacity:1;stroke-width:0.0141138"
       d="M 3.3306979,5.8278932 C 3.147304,5.8179343 2.9713471,5.8028107 2.9396826,5.7942847 2.8507916,5.7703479 2.8038995,5.7200477 2.7240289,5.5629535 l -0.073583,-0.1447279 0.052015,-0.076927 0.052015,-0.076927 -0.0917,-0.012764 c -0.087598,-0.012192 -0.092406,-0.014901 -0.1074767,-0.060566 -0.028365,-0.085947 -0.015616,-0.094163 0.131808,-0.084944 0.1550239,0.00969 0.3388897,0.060276 0.4982734,0.1370788 0.2303108,0.11098 0.357918,0.2393577 0.4805191,0.4834199 0.059505,0.1184559 0.060735,0.1234118 0.030138,0.1214483 -0.017545,-0.00114 -0.1819468,-0.010194 -0.3653406,-0.020153 z M 3.1137041,5.5889887 c 0,-0.037594 -0.00473,-0.042341 -0.042148,-0.042341 -0.029439,0 -0.04363,0.0077 -0.047063,0.025524 -0.00882,0.04578 0.00905,0.068379 0.050318,0.063633 0.032811,-0.00377 0.038893,-0.011094 0.038893,-0.046815 z"
       id="path26" /><path
       style="fill:#7a6967;fill-opacity:1;stroke-width:0.0141138"
       d="M 6.7022581,2.6214986 C 6.6188813,2.5691402 6.4742283,2.4731189 6.3808071,2.4081184 l -0.169857,-0.118183 0.044592,-0.07941 C 6.3800186,1.9888544 6.7587204,1.467967 6.82878,1.4220621 c 0.062726,-0.0411 0.1602862,-0.033124 0.2248834,0.018386 0.090137,0.071874 0.1096833,0.1279823 0.1154295,0.3313343 0.00994,0.3515974 -0.096027,0.760185 -0.2325513,0.8967089 -0.02659,0.02659 -0.056073,0.048314 -0.065518,0.048275 -0.00945,-3.89e-5 -0.085389,-0.042909 -0.1687655,-0.095268 z"
       id="path27" /><path
       style="fill:#7a6967;fill-opacity:1;stroke-width:0.0141138"
       d="M 2.0658596,2.6709674 C 2.022364,2.6241724 1.9432634,2.4578707 1.9021103,2.3266995 1.8196474,2.063858 1.7999206,1.695464 1.8609237,1.5575559 1.8932447,1.4844889 1.9658109,1.40774 2.0140135,1.3956419 c 0.056869,-0.014273 0.13058,0.00744 0.1837634,0.054138 0.1202203,0.1055549 0.57014,0.7535407 0.57014,0.8211301 0,0.054078 -0.5675132,0.4318135 -0.6487599,0.4318135 -0.013078,0 -0.037063,-0.01429 -0.053297,-0.031756 z"
       id="path28" /></g><style
     type="text/css"
     id="style1">
<![CDATA[
	.st0{fill:#000000;}
]]>
</style><style
     type="text/css"
     id="style1-8">
	.st0{fill:#000000;}
</style><style
     type="text/css"
     id="style1-3">
<![CDATA[
	.st0{fill:#000000;}
]]>
</style></svg>
