<svg xmlns="http://www.w3.org/2000/svg" xmlns:svg="http://www.w3.org/2000/svg" id="svg25719" width="34" height="34" version="1.1" viewBox="0 0 8.996 8.996"><g id="layer1" transform="translate(-13.995188,-26.78836)"><path id="path1694-1-6-6-7-7" fill="#cc0" fill-rule="evenodd" stroke="none" d="m 14.262106,35.54378 v -8.466669 h 8.466666 v 8.466669 h -8.466666" style="fill:#fff;fill-opacity:1;stroke-width:.264583"/><g id="g7330" transform="matrix(0.26458333,0,0,0.26458333,-4.688675,-18.298928)"><path id="path1694-1-6-6-9-2-0-9" fill="#cc0" fill-rule="evenodd" stroke="none" d="m 71.625,203.5 v -32 h 32 v 32 h -32" style="fill:#4a0;fill-opacity:1"/><path id="path1694-1-6-6-9-2-0-5" style="fill:#fff;fill-opacity:1" d="m 72.27734,171.5 -0.65234,0.66796 v 2.14844 l 2.75,-2.8164 z m 4.19532,0 -4.84766,4.96289 v 2.14648 L 78.56836,171.5 Z m 4.1914,0 -9.03906,9.25586 v 2.14648 L 82.76172,171.5 Z m 4.19532,0 -13.23438,13.55078 v 2.14453 L 86.95703,171.5 Z m 2.79687,0 15.96875,15.59375 v -2.09571 L 89.80469,171.5 Z m 4.29492,0 11.67383,11.40039 v -2.09375 L 94.09766,171.5 Z m 4.29492,0 7.37891,7.20703 v -2.09571 L 98.39062,171.5 Z m 4.29493,0 3.08398,3.01171 v -2.0957 L 102.6875,171.5 Z M 103.625,188.09375 88.57617,203.5 h 2.09961 L 103.625,190.24218 Z m -32,1.21484 v 2.09961 L 84.00781,203.5 h 2.14453 z m 32,3.07812 L 92.77148,203.5 h 2.09766 l 8.75586,-8.96485 z m -32,1.11915 v 2.09765 L 79.71094,203.5 h 2.14648 z m 32,3.17578 -6.66016,6.81836 h 2.09571 l 4.56445,-4.67383 z m -32,1.01757 v 2.09571 L 75.41992,203.5 h 2.14453 z m 32,3.27735 -2.46484,2.52344 h 2.0957 l 0.36914,-0.37891 z m -32,0.91406 V 203.5 h 1.64844 z"/></g><path style="color:#000;fill:#000;fill-opacity:1;stroke-width:.264583;stroke-linecap:round;stroke-linejoin:round;-inkscape-stroke:none" id="path424-0-0-3-1" d="m 14.259771,26.78836 a 0.26460979,0.26460979 0 0 0 -0.264583,0.264583 v 8.466667 a 0.26460979,0.26460979 0 0 0 0.264583,0.264583 h 8.466667 A 0.26460979,0.26460979 0 0 0 22.991021,35.51961 V 27.052943 A 0.26460979,0.26460979 0 0 0 22.726438,26.78836 Z m 0.264581,0.529167 h 7.937503 v 7.9375 h -7.9375 z"/><path id="path1692-7-1" style="fill:#fff;fill-opacity:1;stroke-width:.130689" d="m 18.835296,28.43813 c -0.48237,0.05515 -0.868268,0.386318 -1.26854,0.631618 -0.725511,0.474547 -1.433724,1.076839 -1.752293,1.907024 -0.223046,0.560211 -0.125246,1.249461 0.312116,1.680131 0.249663,0.281993 0.60357,0.424159 0.927867,0.596471 0.195718,0.09432 0.141325,0.346322 0.250785,0.504365 0.183031,0.370568 0.668131,0.451199 1.02752,0.322517 0.295365,-0.108101 0.404985,-0.443717 0.38875,-0.733481 0.03295,-0.08561 0.203118,-0.05053 0.289393,-0.09046 0.752552,-0.175868 1.499307,-0.624752 1.830099,-1.348729 0.17208,-0.411131 0.0013,-0.86024 -0.149854,-1.249916 -0.296543,-0.662437 -0.665756,-1.296077 -1.110462,-1.869971 -0.183256,-0.218327 -0.452615,-0.376619 -0.745381,-0.349565 z"/><path style="fill:#000;stroke-width:.130689" id="path1692-4" d="M 17.6121,33.385235 C 17.55846,33.117037 17.400209,32.96087 17.005675,32.7868 c -1.412726,-0.623292 -1.103508,-2.075497 0.696328,-3.270157 1.299962,-0.862865 1.310489,-0.862068 1.96455,0.149241 0.313158,0.484201 0.643416,1.127641 0.733909,1.429869 0.143108,0.477938 0.135615,0.593648 -0.05751,0.888394 -0.28933,0.441582 -0.909654,0.812281 -1.536457,0.918181 -0.446842,0.07549 -0.501036,0.125815 -0.501036,0.46523 0,0.313484 -0.05472,0.380579 -0.310388,0.380579 -0.234781,0 -0.328068,-0.0884 -0.382969,-0.362902 z m 0.606552,-1.203997 c 0.150726,-0.108575 0.364236,-0.242639 0.474475,-0.297924 0.114477,-0.05741 0.01828,-0.07282 -0.224308,-0.03594 -0.355418,0.05404 -0.424744,0.0232 -0.424744,-0.188939 0,-0.269462 0.339024,-0.502759 0.980173,-0.674494 0.31188,-0.08354 0.263927,-0.09541 -0.234463,-0.05806 -0.735092,0.0551 -0.766186,-0.124966 -0.08448,-0.489157 0.435163,-0.232484 0.437711,-0.238254 0.07918,-0.179374 -0.324993,0.05337 -0.361717,0.02671 -0.299273,-0.217204 0.07013,-0.273939 0.06788,-0.273746 -0.152302,0.01315 -0.163057,0.212444 -0.311838,0.271856 -0.550212,0.21971 -0.279114,-0.06105 -0.293399,-0.05016 -0.09801,0.07471 0.125785,0.08039 0.228705,0.249062 0.228705,0.374816 0,0.184846 -0.09387,0.220274 -0.490087,0.184963 l -0.490085,-0.04368 0.424743,0.194305 c 0.288092,0.131791 0.424738,0.285101 0.424738,0.476535 0,0.255127 -0.04707,0.273524 -0.490085,0.191561 l -0.490085,-0.09067 0.457412,0.309324 c 0.260538,0.176184 0.480962,0.448014 0.51213,0.631555 0.04771,0.28098 0.06225,0.288947 0.113625,0.06222 0.0324,-0.143004 0.182232,-0.348839 0.332957,-0.457411 z"/></g></svg>