<svg xmlns="http://www.w3.org/2000/svg" xmlns:svg="http://www.w3.org/2000/svg" id="svg25719" width="34" height="34" version="1.1" viewBox="0 0 8.996 8.996"><g id="layer1" transform="translate(-13.995188,-26.78836)"><path id="path1694-1-6-6-6" fill="#cc0" fill-rule="evenodd" stroke="none" d="M 14.259623,35.51938 V 27.052711 H 22.72629 V 35.51938 H 14.259623" style="fill:#8080ff;fill-opacity:1;stroke-width:.264583"/><path id="path1694-1-6-6-0-4-45" style="fill:#fff;fill-opacity:1;stroke-width:.264583" d="m 17.166939,27.052711 0.253733,2.375566 -2.896465,-2.110983 2.110983,2.896465 -2.375567,-0.25373 v 0.399973 l 2.088246,0.926042 -2.088246,0.926042 v 0.399975 l 2.375567,-0.25373 -2.110983,2.896466 2.896465,-2.110984 -0.253733,2.375567 h 0.399976 l 0.926042,-2.088245 0.926041,2.088245 h 0.399976 l -0.253732,-2.375567 2.896465,2.110984 -2.110984,-2.896466 2.375567,0.25373 v -0.399975 l -2.088245,-0.926042 2.088245,-0.926042 v -0.399973 l -2.375567,0.25373 2.110984,-2.896465 -2.896465,2.110983 0.253732,-2.375566 h -0.399976 l -0.926041,2.088245 -0.926042,-2.088245 z"/><path style="color:#000;fill:#000;fill-opacity:1;stroke-width:.264583;stroke-linecap:round;stroke-linejoin:round;-inkscape-stroke:none" id="path424-0-0-3" d="m 14.259772,26.78836 a 0.26460979,0.26460979 0 0 0 -0.264584,0.264583 v 8.466667 a 0.26460979,0.26460979 0 0 0 0.264584,0.264583 h 8.466666 A 0.26460979,0.26460979 0 0 0 22.991022,35.51961 V 27.052943 A 0.26460979,0.26460979 0 0 0 22.726438,26.78836 Z m 0.264583,0.529167 h 7.9375 v 7.9375 h -7.9375 z"/><path id="path1692-7" style="fill:#fff;fill-opacity:1;stroke-width:.164992" d="m 19.156135,27.626653 c -0.608976,0.06963 -1.096161,0.487719 -1.601497,0.797404 -0.915939,0.599104 -1.810035,1.359484 -2.212223,2.40757 -0.281591,0.70725 -0.15812,1.577412 0.394041,2.121123 0.31519,0.356002 0.761992,0.535487 1.171403,0.753025 0.247092,0.119078 0.178422,0.437221 0.316611,0.636749 0.231077,0.467833 0.8435,0.569627 1.297218,0.407167 0.372893,-0.136472 0.511281,-0.560178 0.490786,-0.925999 0.0416,-0.108083 0.256432,-0.06378 0.365353,-0.114205 0.950073,-0.222033 1.892834,-0.788736 2.310455,-1.702739 0.217247,-0.519044 0.0019,-1.08603 -0.189188,-1.577986 -0.37438,-0.836308 -0.840502,-1.636262 -1.401931,-2.360792 -0.231357,-0.27563 -0.571416,-0.475467 -0.941028,-0.441317 z"/><path style="fill:#000;stroke-width:.164992" id="path1692" d="m 17.611884,33.872248 c -0.06772,-0.338595 -0.267507,-0.535752 -0.765596,-0.755507 -1.783532,-0.786895 -1.393148,-2.620261 0.879097,-4.128492 1.64117,-1.089345 1.65446,-1.088335 2.480196,0.188418 0.395348,0.611288 0.812292,1.423614 0.926539,1.80517 0.180668,0.603379 0.171212,0.749461 -0.07261,1.121571 -0.365276,0.557488 -1.148416,1.025488 -1.93974,1.159179 -0.564123,0.09531 -0.632544,0.15884 -0.632544,0.587343 0,0.395767 -0.06909,0.480473 -0.391856,0.480473 -0.296405,0 -0.414176,-0.111601 -0.483489,-0.458155 z m 0.765759,-1.520021 c 0.190283,-0.137067 0.459841,-0.306318 0.599012,-0.376115 0.144526,-0.07248 0.0231,-0.09193 -0.283186,-0.04537 -0.448702,0.06822 -0.536224,0.02928 -0.536224,-0.23853 0,-0.340191 0.428006,-0.634722 1.237438,-0.851532 0.393743,-0.105466 0.333203,-0.120454 -0.296,-0.07329 -0.928034,0.06956 -0.967295,-0.157769 -0.106653,-0.617551 0.549386,-0.293502 0.5526,-0.300786 0.09996,-0.226454 -0.410292,0.06738 -0.456657,0.03373 -0.377822,-0.274215 0.08854,-0.345842 0.0857,-0.345598 -0.192281,0.01659 -0.205851,0.268205 -0.393684,0.343215 -0.694626,0.277384 -0.352372,-0.07708 -0.370406,-0.06333 -0.123743,0.09432 0.158805,0.101499 0.288734,0.314438 0.288734,0.473196 0,0.233366 -0.118509,0.278093 -0.61872,0.233511 l -0.618717,-0.05514 0.536223,0.245303 c 0.363709,0.166383 0.536223,0.359934 0.536223,0.601615 0,0.32209 -0.05942,0.345315 -0.61872,0.241842 l -0.618721,-0.114467 0.577475,0.390512 c 0.328922,0.22243 0.6072,0.565602 0.646546,0.797319 0.06023,0.354735 0.07859,0.364792 0.143452,0.07856 0.04091,-0.180541 0.230066,-0.440402 0.420351,-0.577475 z"/></g></svg>