<svg xmlns="http://www.w3.org/2000/svg" xmlns:svg="http://www.w3.org/2000/svg" id="svg44409" width="34" height="34" version="1.1" viewBox="0 0 8.996 8.996"><g id="layer1" transform="translate(-32.403169,-90.44177)"><path id="path1694-1-0" fill="#cc0" fill-rule="evenodd" stroke="none" d="m 32.667604,99.172789 v -8.466666 h 8.466667 v 8.466666 h -8.466667" style="fill:#fff;fill-opacity:1;stroke-width:.264583"/><path id="path1694-1-0-7" style="fill:#4a0;fill-opacity:1;stroke-width:.264583" d="m 32.750435,91.664951 v 0.906405 h 8.466666 v -0.906405 z m 0,1.813326 v 0.906922 h 8.466666 v -0.906922 z m 0,1.813326 v 0.906921 h 8.466666 v -0.906921 z m 0,1.813843 v 0.906404 h 8.466666 v -0.906404 z"/><path style="color:#000;fill:#000;fill-opacity:1;stroke-width:.264583;stroke-linecap:round;stroke-linejoin:round;-inkscape-stroke:none" id="path424-2" d="m 32.667752,90.44177 a 0.26460979,0.26460979 0 0 0 -0.264583,0.264583 v 8.466667 a 0.26460979,0.26460979 0 0 0 0.264583,0.264583 h 8.466667 A 0.26460979,0.26460979 0 0 0 41.399002,99.17302 V 90.706353 A 0.26460979,0.26460979 0 0 0 41.134419,90.44177 Z m 0.264584,0.529167 h 7.9375 v 7.9375 h -7.9375 z"/><path id="path35964" fill="#f33b1d" d="M 37.404455,92.17212 C 37.303333,92.12337 37.120952,92.15225 36.953016,92.12517 36.61534,92.071 36.573807,91.975292 36.573807,91.904868 c -0.0018,-0.07404 -0.06862,-0.07765 -0.06862,0.0018 0.0018,0.469497 0.707856,0.229332 0.908295,0.350317 m -2.305951,-0.245582 c 0.0018,-0.126404 -0.08487,-0.207663 -0.160712,-0.214886 0.04514,0.05237 0.05417,0.128209 0.06139,0.202245 -0.01445,-0.104734 -0.09209,-0.173352 -0.158906,-0.176964 0.03611,0.03792 0.05598,0.115568 0.05959,0.19141 -0.01084,-0.05778 -0.06501,-0.144461 -0.155295,-0.153489 0.04153,0.04334 0.05417,0.124597 0.0632,0.198633 -0.01264,-0.0632 -0.07765,-0.135432 -0.149879,-0.140849 0.0307,0.02528 0.05598,0.117374 0.0614,0.187799 -0.009,-0.02889 -0.05959,-0.09932 -0.139043,-0.108346 0.04153,0.03792 0.05959,0.130015 0.06681,0.202245 m 0.316007,1.722691 c -0.02167,-0.09932 -0.108345,-0.20405 -0.205856,-0.191409 0.04514,0.0307 0.07945,0.146265 0.09209,0.220302 -0.0307,-0.08307 -0.10654,-0.171547 -0.196828,-0.160712 0.04876,0.04334 0.07765,0.149877 0.09571,0.22933 -0.04875,-0.09209 -0.108345,-0.160712 -0.196827,-0.149877 0.05959,0.05778 0.08126,0.158906 0.09571,0.236554 -0.02889,-0.06501 -0.09571,-0.14446 -0.185993,-0.135432 0.05598,0.05056 0.07945,0.160712 0.09932,0.241972 -0.03611,-0.04876 -0.09029,-0.117375 -0.175158,-0.110152 0.05598,0.05417 0.08126,0.160712 0.104734,0.241972 m 0.76203,3.111317 c -0.09571,-0.05778 -0.227526,-0.03792 -0.288922,0.04153 0.06862,-0.01264 0.169741,0.02528 0.209468,0.05778 -0.06501,-0.04153 -0.200439,-0.01625 -0.252806,0.05598 0.0614,-0.01625 0.160713,0.02528 0.213079,0.05598 -0.06862,-0.02347 -0.175158,-0.01806 -0.241971,0.0632 0.05598,-0.01264 0.148072,0.01806 0.207662,0.05237 -0.08487,-0.01986 -0.167935,0.01264 -0.216691,0.07042 0.07404,-0.01625 0.157101,0.02709 0.207662,0.05056 -0.0957,-0.0018 -0.153489,0.03612 -0.187799,0.07584 0.0614,-0.01264 0.155295,0.01986 0.223914,0.05598 m 2.63821,0.01445 c -0.124597,-0.01625 -0.227525,0.05959 -0.258223,0.148072 0.03431,-0.02709 0.142655,-0.04334 0.213079,-0.02167 -0.09751,-0.0054 -0.195022,0.07404 -0.214885,0.146266 0.03973,-0.0325 0.16613,-0.04153 0.21308,-0.02167 -0.08848,0.0036 -0.173353,0.07042 -0.198633,0.14446 0.04153,-0.02709 0.1571,-0.03792 0.222107,-0.02167 -0.0957,0.01445 -0.164323,0.08306 -0.185993,0.146266 0.05779,-0.03792 0.133626,-0.03431 0.227526,-0.02889 -0.09751,0.03611 -0.130015,0.07765 -0.162518,0.142655 0.05417,-0.03431 0.149878,-0.03612 0.243777,-0.02889" style="fill:#fff;fill-opacity:1;stroke-width:.00180575"/><path id="path40959" style="fill:#fff;fill-opacity:1;stroke:none;stroke-width:.132292;stroke-dashoffset:14.7" d="m 37.552209,91.442226 a 0.33279622,0.23357747 0 0 0 -0.332797,0.233577 0.33279622,0.23357747 0 0 0 0.332797,0.233578 0.33279622,0.23357747 0 0 0 0.332796,-0.233578 0.33279622,0.23357747 0 0 0 -0.332796,-0.233577 z m -0.312126,1.612304 -0.633553,0.02222 c -0.573744,0.250812 -0.549766,0.569922 -0.289388,0.915707 l 0.269751,0.392741 z m -0.256315,1.12913 -0.546737,0.501778 c 0.09021,0.289446 -0.04941,0.352672 0.425814,1.02216 l 0.443901,1.228349 0.440283,-0.01602 z"/><path id="path35966" d="m 37.126368,91.420926 -0.440604,0.01625 c -0.02167,0.0018 -0.03792,0.01264 -0.03792,0.03792 0.0018,0.158907 0.0325,0.261835 0.146267,0.3449 -0.01445,0.08848 -0.0054,0.133626 0.08667,0.207662 0.009,-0.07223 0.03792,-0.104734 0.08306,-0.135432 0.0036,0.0018 0.0072,0.0018 0.009,0.0036 -0.0054,0.0325 -0.0054,0.06681 0.0018,0.08668 0.01806,0.05056 0.106539,0.05237 0.130014,0.01625 0.02167,0.05237 0.06681,0.05417 0.102928,0.05417 0.03792,0 0.05598,-0.02709 0.06862,-0.05237 0.02167,0.01806 0.04334,0.03792 0.0632,0.0632 0.0632,0.08668 0.07404,0.198633 0.07404,0.305172 -0.01986,0.0018 -0.03973,0.0036 -0.05959,0.0054 v -0.04334 c -0.0018,-0.0614 -0.144461,-0.07223 -0.176965,-0.01986 -0.03612,-0.03973 -0.148072,-0.0325 -0.148072,0.0307 v 0.01986 c -0.02528,-0.0325 -0.04514,-0.06681 -0.06139,-0.101123 -0.04514,0.02889 -0.07223,0.05056 -0.06501,0.15349 -0.01986,0.0018 -0.03973,0.0036 -0.05778,0.0054 0.0018,0.11918 0.05417,0.151685 0.48033,0.142655 0.01084,0.119181 -0.108345,0.185993 -0.196827,0.241972 -0.231137,0.13182 -0.474914,0.276281 -0.606734,0.518252 -0.110151,0.19141 -0.137238,0.418935 -0.124597,0.639238 l 0.126403,-0.05598 0.01445,0.06862 c -0.227525,0.108345 -0.642849,0.328648 -0.915518,0.45505 -0.06681,0.0307 -0.240166,0.07404 -0.276281,0.01264 -0.124598,-0.214884 -0.223914,-0.377402 -0.368374,-0.541726 -0.07404,-0.08487 -0.565202,0.321425 -0.474914,0.458662 0.205856,0.312396 0.541727,0.760223 1.101511,0.763835 0.579648,0.0036 1.083453,-0.209468 1.193605,-0.241972 l 0.02347,0.07404 c -0.07404,0.0325 -0.139043,0.05598 -0.216691,0.08126 0.101123,0.397267 0.218497,0.552562 0.491167,0.794533 l -0.05598,0.04153 c -0.04876,-0.02889 -0.131821,-0.120985 -0.176964,-0.164323 -0.579648,0.274474 -0.796339,0.54895 -0.935382,0.832453 -0.153489,0.341288 -0.124597,0.729526 -0.05959,1.088871 0.01264,0.05959 -0.05237,0.08848 -0.101122,0.07043 -0.133627,-0.0307 -0.207662,-0.164324 -0.335871,-0.213079 -0.05778,-0.02528 -0.133626,-0.05417 -0.196828,-0.04334 -0.102928,0.01806 -0.213079,0.538116 -0.108344,0.588677 0.195021,0.0957 0.4081,0.115569 0.624791,0.227525 0.142655,0.05778 0.279892,0.151684 0.44241,0.126403 0.09209,-0.009 0.184187,-0.07223 0.193216,-0.169741 0.08126,-0.350316 0.195022,-0.722302 0.462274,-0.975108 0.128208,-0.126403 0.294338,-0.227525 0.458661,-0.305173 -0.06501,-0.249194 -0.113762,-0.498389 -0.108344,-0.758417 l 0.07945,-0.0036 c 0.05778,0.989554 0.321425,1.197216 0.785504,1.657684 0.04695,0.04695 0.04334,0.135432 -0.02528,0.162518 -0.09029,0.04514 -0.196828,0.04695 -0.299756,0.05237 -0.110151,0.0054 -0.02709,0.615763 0.135432,0.610346 0.285309,-0.009 0.581454,-0.231137 0.753,-0.449634 0.07223,-0.09029 0.158907,-0.180575 0.227525,-0.269057 0.08487,-0.110151 -0.0072,-0.23836 -0.0325,-0.339483 -0.07042,-0.28892 -0.102928,-1.119568 -0.106539,-1.235136 l 0.101122,0.0018 0.01445,-0.209468 c -0.301562,-0.373792 -0.252807,-0.958857 -0.377403,-1.336259 -0.04876,-0.15349 -0.102929,-0.312397 -0.102929,-0.474915 0,-0.220302 0.249195,-0.63382 0.243778,-1.002195 -0.0018,-0.155294 -0.08848,-0.357539 -0.08668,-0.449633 0.0018,-0.267252 0.155295,-0.209467 0.151684,-0.76564 -0.0018,-0.153489 -0.01986,-0.267252 -0.05959,-0.424353 0.269057,-0.283504 -0.101123,-0.567007 -0.314202,-0.390044 -0.171547,-0.04514 -0.193216,-0.09029 -0.529087,-0.09029 -0.287114,0 -0.451439,0.07765 -0.630209,0.196827 m -0.520057,1.657684 c -0.189605,0.232943 -0.296144,0.350317 -0.288921,0.915519 -1.789504,-1.022058 -1.265835,-1.168324 -1.657685,-1.77867 -0.06139,-0.0957 0.337677,-0.317813 0.46408,-0.223914 0.254612,0.187798 0.160712,0.541727 0.371986,0.702439 0.209468,0.158907 0.583259,0.229331 1.11054,0.384626 m 1.092482,-1.312785 c -0.02709,0 -0.07584,-0.01445 -0.09029,-0.03431 -0.1571,-0.240165 -0.196827,-0.153489 -0.220302,-0.07042 -0.01986,0.07403 -0.106539,0.07584 -0.08126,-0.02347 0.0632,-0.243777 0.234749,-0.209468 0.447828,0.128208 m 0.460468,-0.24197 c 0.04334,-0.05778 0.110151,-0.113763 0.182381,-0.137238 0.10654,-0.03611 0.149877,0.05056 0.06501,0.07945 -0.07042,0.0307 -0.130014,0.07404 -0.180575,0.124597 m -1.46808,0.243778 c 0.02709,0.01625 0.06501,0.03611 0.120986,0.05237 -0.0307,0.02528 -0.05959,0.0614 -0.06862,0.101123 -0.04876,-0.03431 -0.06862,-0.09751 -0.05237,-0.153489 m 0.288921,0.0957 c 0,0.02347 -0.0054,0.04695 -0.01264,0.05778 -0.01806,0.02889 -0.08487,0.02709 -0.09932,-0.01264 -0.0054,-0.01625 -0.0054,-0.04514 0.0018,-0.07223 0.03611,0.009 0.07404,0.01625 0.110151,0.02709 m 0.02167,0.0054 c 0.04876,0.01445 0.09571,0.0307 0.137238,0.05778 -0.009,0.02167 -0.02528,0.04334 -0.05779,0.04334 -0.02889,0 -0.06139,-0.0018 -0.07945,-0.03612 -0.009,-0.01806 -0.0054,-0.04334 0,-0.06501 m -0.20405,0.478526 c -0.0054,-0.05056 0,-0.0939 0.03973,-0.122792 0.01986,0.03611 0.04153,0.07043 0.06681,0.101122 v 0.01264 m 0.01806,-9e-4 v -0.05688 c 0,-0.05959 0.126402,-0.05598 0.128208,0 v 0.04514 m 0.01625,-0.0018 v -0.05056 c 0,-0.05959 0.146267,-0.05598 0.146267,-0.0018 v 0.03973" style="stroke-width:.00180575"/><path id="path1694-1-0-1" style="fill:#000;fill-opacity:1;stroke-width:.264583" d="m 40.690518,90.452105 -1.441255,1.405599 1.734778,-1.405599 z m 0.708484,0.700216 -2.232422,2.177128 2.232422,-1.808675 z m -6.622851,0.597896 -1.843815,1.493966 v 0.304374 z m 6.622851,0.658358 -2.282031,2.225704 2.282031,-1.848983 z m -6.705534,0.813387 -1.761132,1.426786 v 0.290939 z m 6.705534,0.752409 -2.017448,1.967838 2.017448,-1.634525 z m -6.755143,0.552421 -1.711523,1.386995 v 0.282153 z m 6.755143,1.083655 -1.967838,1.919262 1.967838,-1.594218 z m -6.49056,0.224275 -1.976106,1.600936 v 0.326595 z m 0.04961,1.5875 -1.846916,1.49655 h 0.312643 z"/></g></svg>