<svg xmlns="http://www.w3.org/2000/svg" xmlns:svg="http://www.w3.org/2000/svg" id="svg12122" width="34" height="34" version="1.1" viewBox="0 0 8.996 8.996"><g id="layer1" transform="translate(-100.11487,-98.323547)"><g id="g12075" transform="matrix(0.26458333,0,0,0.26458333,85.342952,153.73081)"><path id="path1694-8" fill="#cc0" fill-rule="evenodd" stroke="none" d="m 56.830022,-176.41424 v -32 h 32.000001 v 32 H 56.830022" style="fill:#ff7600;fill-opacity:1"/><path id="path921-6" style="opacity:.2;fill:#000;fill-opacity:1;stroke:#000;stroke-width:.707;stroke-dasharray:none;stroke-opacity:1" d="m 73.642578,-199.56641 c -0.948553,-0.001 -1.896502,0.37277 -2.574219,1.09961 -0.414512,0.52056 -1.013676,0.86834 -1.574218,1.2461 -0.100864,-0.0151 -0.201437,-0.0311 -0.302735,-0.043 l -6.878906,-0.49805 c -1.172009,0.0232 -1.20745,-0.28699 -3.142578,-1.19531 -1.935119,-0.90832 -0.932232,-0.25171 -1.482422,-0.41406 l -0.06836,10.64453 5.949218,-0.10352 c -0.394497,0.56568 -0.676851,1.23849 -0.683593,1.95117 -0.008,0.81874 -0.287855,2.00453 0.771484,2.03516 0.997489,0.0289 1.977453,-0.31613 2.607422,-1.16211 0.02547,-0.0342 0.0514,-0.0684 0.07422,-0.10352 -0.405054,0.88087 -0.566096,1.90686 -0.246094,2.82422 0.29133,0.83517 1.829566,0.61006 2.478515,0.17188 0.616417,-0.41621 0.78752,-1.37451 0.994141,-2.19922 0.06954,0.0604 0.139991,0.12021 0.208985,0.18164 -0.191523,0.34848 -0.335655,0.73968 -0.431641,1.10352 -0.27987,1.0608 -0.677735,3.0607 0.970703,2.67382 0.65282,-0.37471 1.18451,-0.78305 1.576172,-1.21289 0.451707,0.63538 1.831653,1.70538 2.695312,0.0781 1.805419,1.08656 2.724972,-0.14771 2.638672,-1.4375 1.383069,0.26061 2.406539,0.008 2.13086,-2.03906 0.851056,0.13434 1.448878,-0.15474 1.738281,-0.66993 1.053058,0.11448 2.134441,0.0564 3.189453,0.12305 1.414059,-0.016 2.822006,0.10787 4.234375,0.12695 v -11.64257 c -0.335948,0.0385 -0.659757,0.12281 -0.978516,0.22656 l -0.0293,0.006 -0.01562,0.008 c -0.731669,0.2434 -1.433389,0.60103 -2.160157,0.84766 -1.683218,0.92059 -3.874811,1.26112 -5.568359,0.17773 -1.331519,-0.73401 -2.513265,-1.76434 -4.033203,-2.10937 -0.612504,-0.46654 -1.350127,-0.69424 -2.087891,-0.69532 z m -6.935547,12.08594 c 0.105425,0.0716 0.2098,0.1444 0.314453,0.2168 -0.119037,0.18056 -0.23448,0.36036 -0.345703,0.5332 -0.05279,0.082 -0.101836,0.16772 -0.15039,0.25391 0.123997,-0.31492 0.172138,-0.65436 0.18164,-1.00391 z"/><path id="path1694-8-7" style="fill:red;fill-opacity:1" d="m 60.693243,-208.41424 c -1.47589,1.22059 -2.78256,2.64952 -3.863281,4.25977 v 3.50586 c 1.469871,-3.23374 3.856641,-5.89531 6.759761,-7.76563 z m 7.91015,0 c -5.13323,1.6928 -9.37538,5.83639 -10.73242,11.41407 -1.963561,8.07059 2.95374,16.61731 11.12696,18.58203 7.56308,1.81804 15.56519,-2.79363 17.38281,-10.46094 1.67288,-7.0569 -2.64171,-14.52079 -9.80469,-16.19141 -6.55213,-1.52815 -13.47239,2.48999 -14.99609,9.15039 -1.38381,6.04889 2.33441,12.42789 8.49414,13.80469 5.54726,1.2399 11.39327,-2.18256 12.62304,-7.84375 1.09645,-5.0474 -2.03022,-10.35698 -7.19531,-11.43945 -4.54944,-0.95346 -9.33101,1.88091 -10.26562,6.55273 -0.81094,4.05359 1.73408,8.3061 5.91601,9.0918 3.56006,0.66886 7.2889,-1.58696 7.92383,-5.28321 0.52721,-3.06916 -1.448,-6.28102 -4.66406,-6.76171 -2.58135,-0.38583 -5.28191,1.30911 -5.60156,4.05273 -0.24438,2.09749 1.18346,4.30171 3.46679,4.44531 0.81016,0.051 1.60515,-0.20511 2.23243,-0.70508 0.62727,-0.49996 1.08934,-1.30242 1.05273,-2.2246 -0.0232,-0.5845 -0.25281,-1.11832 -0.66797,-1.54883 -0.41515,-0.43051 -1.15049,-0.73658 -1.86523,-0.51172 -0.54101,0.1702 -0.71276,0.42289 -0.90821,0.82812 -0.0977,0.20262 -0.19759,0.48847 -0.0898,0.85938 0.10775,0.37091 0.48232,0.66569 0.78907,0.7539 l 0.47265,-1.64257 c 0.0687,0.0198 0.31672,0.18934 0.38086,0.41015 0.0641,0.22082 0.003,0.3317 -0.0117,0.36133 -0.0286,0.0593 0.15335,-0.0226 -0.11719,0.0625 0.0645,-0.0203 0.0259,-0.0322 0.11914,0.0645 0.0932,0.0967 0.18324,0.32424 0.1875,0.43164 0.0135,0.34226 -0.12786,0.59687 -0.4082,0.82031 -0.28033,0.22345 -0.69924,0.35659 -1.05859,0.33399 -1.20066,-0.0755 -2.01297,-1.34002 -1.87305,-2.54102 0.19837,-1.70265 1.96632,-2.8103 3.65039,-2.55859 2.20054,0.3289 3.59935,2.6091 3.22656,4.7793 -0.4634,2.69773 -3.26244,4.39223 -5.92187,3.89257 -3.19554,-0.60037 -5.1832,-3.92467 -4.55274,-7.07617 0.73909,-3.69447 4.59022,-5.97703 8.23633,-5.21289 4.19476,0.87912 6.77498,5.26324 5.875,9.40625 -1.02021,4.69645 -5.93615,7.57271 -10.57812,6.53516 -5.19954,-1.16218 -8.3777,-6.61304 -7.20118,-11.75586 1.30491,-5.704 7.29797,-9.17995 12.94337,-7.86328 6.20976,1.4483 9.98515,7.97934 8.52734,14.1289 -1.59229,6.71683 -8.66509,10.79122 -15.32031,9.19141 -7.2251,-1.7368 -11.60781,-9.35139 -9.86524,-16.51367 1.8818,-7.73452 10.04617,-12.41726 17.7168,-10.53125 6.49774,1.59763 10.97075,7.345 11.58203,13.71289 v -6.20898 c -1.96222,-4.03717 -5.43868,-7.30677 -9.90045,-8.79102 z m 15.33399,0 c 1.90235,1.24576 3.54919,2.81768 4.89258,4.61719 v -2.68555 c -0.62907,-0.68604 -1.30359,-1.33213 -2.02149,-1.93164 z m 4.89258,17.98047 c -0.0717,0.74165 -0.19568,1.48431 -0.37891,2.22266 -1.47803,5.95575 -6.23515,10.30553 -11.86133,11.79687 h 4.60352 c 3.24488,-1.76347 5.96239,-4.47397 7.63672,-7.875 z m -32.000001,4.29492 v 3.54493 c 1.678531,2.53421 3.942771,4.68059 6.662111,6.17968 h 4.55468 c -5.15919,-1.38657 -9.1476,-5.10381 -11.216791,-9.72461 z m 32.000001,6.00586 c -1.0589,1.3961 -2.29075,2.64515 -3.65821,3.71875 h 2.61914 c 0.35875,-0.33954 0.70316,-0.69302 1.03907,-1.05664 z m -32.000001,1.2461 v 2.44531 c 0.01,0.009 0.0196,0.0182 0.0293,0.0273 h 2.619141 c -0.95069,-0.74603 -1.836651,-1.57407 -2.648441,-2.47266 z"/><g id="path8092-4-1" style="fill:#fff;fill-opacity:1" transform="translate(293.70428,-128.80264)"><path style="color:#000;fill:#fff;fill-opacity:1;stroke-width:.707;stroke-dashoffset:14.7;-inkscape-stroke:none" id="path15527" d="m -219.49609,-77.268076 -0.13867,0.330077 -0.35743,0.01953 0.26953,0.236328 -0.0918,0.345703 0.30665,-0.183594 0.30078,0.193359 -0.0801,-0.349609 0.27734,-0.226562 -0.35546,-0.03125 z m 6.9414,10e-7 -0.14062,0.330076 -0.35743,0.01953 0.26954,0.236328 -0.0918,0.345703 0.30859,-0.183593 0.30079,0.193358 -0.0801,-0.349608 0.27735,-0.226563 -0.35743,-0.03125 z m -15.15234,0.531249 -0.13867,0.330078 -0.35742,0.01953 0.26953,0.236328 -0.0918,0.345703 0.30664,-0.183594 0.30078,0.19336 -0.0801,-0.34961 0.27735,-0.226563 -0.35547,-0.03125 z m -5.75781,3.496094 -0.13868,0.330078 -0.35742,0.01953 0.26953,0.236329 -0.0918,0.345702 0.30664,-0.183593 0.30078,0.19336 -0.0801,-0.34961 0.27734,-0.226563 -0.35546,-0.03125 z m 8.52539,0 -0.14063,0.330078 -0.35742,0.01953 0.26953,0.236328 -0.0918,0.345704 0.3086,-0.183595 0.30078,0.19336 -0.0801,-0.349609 0.27735,-0.226562 -0.35743,-0.03125 z m 9.97461,0.40625 -0.13867,0.330077 -0.35743,0.01953 0.26953,0.236328 -0.0918,0.345702 0.30664,-0.183593 0.30078,0.193359 -0.0801,-0.349609 0.27734,-0.226562 -0.35546,-0.03125 z m 5.70703,0.177734 -0.14063,0.328125 -0.35742,0.02148 0.26953,0.234375 -0.0918,0.345703 0.30859,-0.183595 0.30078,0.193361 -0.0801,-0.349611 0.27734,-0.226563 -0.35742,-0.03125 z m -23.86524,14.669922 -0.14062,0.330078 -0.35742,0.01953 0.26953,0.236328 -0.0898,0.345703 0.30664,-0.183594 0.30079,0.193359 -0.0801,-0.349609 0.27734,-0.226563 -0.35742,-0.03125 z m 23.87696,1.40625 -0.13867,0.330078 -0.35743,0.01953 0.26953,0.234375 -0.0918,0.347656 0.30665,-0.185547 0.30077,0.195313 -0.0801,-0.34961 0.27734,-0.226562 -0.35547,-0.03125 z m -18.46094,1.90625 -0.13867,0.330078 -0.35742,0.01953 0.26953,0.234376 -0.0918,0.347656 0.30664,-0.185547 0.30078,0.195312 -0.0801,-0.349609 0.27735,-0.226563 -0.35547,-0.03125 z m 10.46484,0.09375 -0.14062,0.330077 -0.35743,0.01953 0.26954,0.234375 -0.0918,0.347655 0.3086,-0.185547 0.30078,0.195313 -0.0801,-0.349608 0.27735,-0.226563 -0.35742,-0.03125 z m -16.22265,3.402343 -0.13868,0.330078 -0.35742,0.01953 0.26953,0.234375 -0.0918,0.347657 0.30664,-0.185547 0.30078,0.195312 -0.0801,-0.349609 0.27734,-0.226563 -0.35546,-0.03125 z m 8.52539,0 -0.14063,0.330078 -0.35742,0.01953 0.26953,0.234375 -0.0918,0.347657 0.3086,-0.185547 0.30078,0.195312 -0.0801,-0.349609 0.27734,-0.226563 -0.35742,-0.03125 z m 9.9746,0.40625 -0.13867,0.328125 -0.35741,0.02148 0.26953,0.234374 -0.0918,0.345705 0.30664,-0.183595 0.30078,0.19336 -0.0801,-0.347657 0.27734,-0.226562 -0.35547,-0.03125 z m 6.14453,0.113282 -0.14062,0.330077 -0.35742,0.01953 0.26953,0.236327 -0.0918,0.345703 0.30859,-0.183593 0.30078,0.193359 -0.0801,-0.34961 0.27734,-0.226562 -0.35742,-0.03125 z"/><path style="color:#000;fill:#fff;fill-opacity:1;stroke-dashoffset:14.7;-inkscape-stroke:none" id="path15529" d="m -219.48437,-78.207031 -0.3379,0.802734 -0.0527,0.125 -1.00195,0.05469 0.75586,0.664062 -0.25782,0.97461 0.86524,-0.517579 0.8457,0.542969 -0.22461,-0.980469 0.7793,-0.638671 -1.00195,-0.08789 z m 6.94531,0 -0.3418,0.800781 -0.0527,0.126953 -1.00391,0.05469 0.75586,0.664062 -0.25781,0.970703 0.86523,-0.513672 0.84766,0.542969 -0.22461,-0.980469 0.7793,-0.638671 -1.00391,-0.08789 z m -15.15625,0.53125 -0.33789,0.802734 -0.0527,0.125 -1.00195,0.05469 0.75586,0.664062 -0.25781,0.97461 0.86523,-0.517579 0.8457,0.542969 -0.22656,-0.980469 0.78125,-0.638671 -1.00195,-0.08789 z m -5.75781,3.496094 -0.3379,0.802734 -0.0527,0.125 -1.00195,0.05469 0.75586,0.664063 -0.25782,0.974609 0.86524,-0.517578 0.8457,0.542969 -0.22656,-0.980469 0.78125,-0.638672 -1.00195,-0.08789 z m 8.52929,0 -0.34179,0.800781 -0.0527,0.126953 -1.00391,0.05469 0.75586,0.664063 -0.25781,0.970703 0.86524,-0.513672 0.84765,0.542969 -0.22461,-0.980469 0.7793,-0.638672 -1.00391,-0.08789 z m 9.97071,0.404296 -0.3379,0.804688 -0.0527,0.125 -1.00195,0.05469 0.75586,0.664063 -0.25782,0.974609 0.86524,-0.517578 0.8457,0.542969 -0.22656,-0.980469 0.78125,-0.638672 -1.00195,-0.08789 z m 5.71093,0.183594 -0.33984,0.794922 -0.0547,0.128906 -1.0039,0.06055 0.75585,0.65625 -0.25781,0.970703 0.86524,-0.513672 0.84765,0.542969 -0.22656,-0.980469 0.78125,-0.638671 -1.00391,-0.08789 z m -23.86523,14.666016 -0.3418,0.800781 -0.0527,0.126953 -1.00391,0.05469 0.75781,0.664062 -0.25195,0.970703 0.85938,-0.513672 0.8457,0.542969 -0.22461,-0.980469 0.7793,-0.638671 -1.00391,-0.08789 z m 23.87305,1.404297 -0.3379,0.804687 -0.0527,0.125 -1.00781,0.05469 0.76172,0.662109 -0.25782,0.980469 0.86524,-0.523438 0.8457,0.550782 -0.22656,-0.986329 0.78125,-0.638671 -1.00195,-0.08789 z m -18.46094,1.908203 -0.33789,0.802734 -0.0527,0.125 -1.00781,0.05469 0.76172,0.662109 -0.25781,0.980469 0.86523,-0.523438 0.8457,0.550782 -0.22656,-0.986329 0.78125,-0.638671 -1.00195,-0.08789 z m 10.46875,0.09375 -0.3418,0.800781 -0.0527,0.126953 -1.00977,0.05469 0.76172,0.662109 -0.25781,0.978516 0.86523,-0.521485 0.84766,0.550782 -0.22461,-0.986329 0.7793,-0.638671 -1.00391,-0.08789 z m -16.22656,3.402344 -0.3379,0.802734 -0.0527,0.125 -1.00781,0.05469 0.76172,0.66211 -0.25782,0.980469 0.86524,-0.523438 0.8457,0.550781 -0.22656,-0.986328 0.78125,-0.638672 -1.00195,-0.08789 z m 8.52929,0 -0.34179,0.800781 -0.0527,0.126953 -1.00976,0.05469 0.76171,0.66211 -0.25781,0.978515 0.86524,-0.521484 0.84765,0.550781 -0.22461,-0.986328 0.7793,-0.638672 -1.00391,-0.08789 z m 9.97071,0.408203 -0.3379,0.798828 -0.0527,0.126953 -1.00195,0.06055 0.75586,0.65625 -0.25782,0.974609 0.86524,-0.517578 0.8457,0.542969 -0.22461,-0.978516 0.7793,-0.638672 -1.00195,-0.08789 z m 6.14843,0.109375 -0.34179,0.802734 -0.0527,0.126953 -1.0039,0.05469 0.75585,0.664062 -0.25781,0.970703 0.86524,-0.513672 0.84765,0.542969 -0.22656,-0.980469 0.78125,-0.638671 -1.00391,-0.08789 z"/></g><path style="fill:#fac69e;fill-opacity:1;stroke:#2b0000;stroke-width:.707;stroke-dasharray:none;stroke-opacity:1" id="path921" d="m 88.392463,-198.94109 -1.0068,0.23182 -9.27637,4.8315 c -0.0197,0.63834 -0.48052,2.78589 -0.3636,3.41605 0.38692,1.08737 1.07629,2.19716 2.14314,2.72083 1.38096,0.36522 2.84972,0.22489 4.26938,0.31455 1.41406,-0.016 2.82188,0.10826 4.23425,0.12734"/><path style="fill:#fac69e;fill-opacity:1;stroke:#2b0000;stroke-width:.707;stroke-dasharray:none;stroke-opacity:1" id="path929" d="m 57.565052,-200.28441 c 0.550191,0.16235 -0.45405,-0.49495 1.481071,0.41337 1.93513,0.90832 1.97111,1.2186 3.14312,1.1954 l 6.879,0.49788 c 1.15518,0.13527 2.29527,0.46684 3.12096,1.29519 0.98526,0.75432 2.10664,1.31325 3.21782,1.83371 0.8894,0.68215 1.90903,1.33734 2.61776,2.16999 0.42508,0.6641 0.9231,0.98636 1.37777,1.61885 2.59879,1.99324 2.14421,4.74655 -0.17247,4.38084 0.27568,2.04714 -0.74726,2.30096 -2.13033,2.04035 0.0863,1.28979 -0.834,2.52412 -2.63942,1.43756 -1.29549,2.44088 -3.76269,-1.19226 -2.49613,-0.31374 -0.65408,-1.00659 -1.53449,-1.29899 -2.22956,-2.25561 -1.28432,-1.15534 -2.66526,-2.12401 -4.10566,-3.0608 -0.65062,-0.37519 -1.36034,-0.58856 -2.13959,-0.71325 l -5.993281,0.10328"/><path style="fill:#fac69e;fill-opacity:1;stroke:#2b0000;stroke-width:.707;stroke-dasharray:none;stroke-opacity:1" id="path933" d="m 71.640293,-186.9812 c -1.31784,-0.57652 -2.11334,0.87146 -2.42161,2.03996 -0.27987,1.0608 -0.67817,3.06052 0.97027,2.67364 2.32114,-1.33232 3.12766,-3.09305 1.45134,-4.71359 z"/><path style="fill:#fac69e;fill-opacity:1;stroke:#2b0000;stroke-width:.707;stroke-dasharray:none;stroke-opacity:1" id="path935" d="m 70.239093,-189.09009 c 0.38475,0.77511 -0.43723,1.64001 -0.68865,2.46198 -0.2716,0.88794 -0.3825,2.11514 -1.10239,2.60122 -0.64895,0.43818 -2.18864,0.66289 -2.47997,-0.17228 -0.39871,-1.143 -0.051,-2.45526 0.58555,-3.44439 0.49957,-0.77632 1.06287,-1.70195 1.82554,-2.13552 0.67887,-0.26849 1.61538,0.19631 1.85992,0.68899 z"/><path style="fill:#fac69e;fill-opacity:1;stroke:#2b0000;stroke-width:.707;stroke-dasharray:none;stroke-opacity:1" id="path937" d="m 63.799423,-190.1923 c -0.56913,0.63999 -1.02898,1.48787 -1.03761,2.4001 -0.008,0.81874 -0.28808,2.00415 0.77126,2.03478 0.99749,0.0289 1.97853,-0.31668 2.6085,-1.16266 0.56599,-0.76006 0.4609,-1.74191 0.37885,-2.68661 -0.0685,-0.78884 -0.71705,-1.40115 -1.54999,-1.20551 -0.43287,0.10167 -0.87186,0.2835 -1.17101,0.6199 z"/><path style="fill:#fac69e;fill-opacity:1;stroke:#2b0000;stroke-width:.707;stroke-dasharray:none;stroke-opacity:1" id="path919" d="m 88.392463,-198.94109 c -1.12408,0.12891 -2.12511,0.72951 -3.18265,1.08838 -1.68322,0.92059 -3.87528,1.26093 -5.56883,0.17754 -1.33152,-0.73401 -2.51328,-1.76412 -4.03322,-2.10915 -1.40001,-1.06636 -3.45763,-0.88833 -4.66246,0.40384 -0.83079,1.04334 -2.4015,1.38956 -2.92187,2.68331 -0.21437,1.45572 1.59022,1.78969 2.64782,1.44747 1.13476,-0.22182 2.52372,-1.66743 3.16099,0.0611 0.87553,1.80949 2.49587,3.2641 4.37867,3.95021 1.23879,0.19727 2.77036,0.30175 3.64384,-0.79103 0.37507,-0.52561 0.32148,-1.22272 0.54456,-1.81395"/><path id="path919-8" style="fill:#fff;fill-opacity:1;stroke:none;stroke-width:.387772;stroke-opacity:1" d="m 73.489483,-200.27611 c -0.90374,-0.001 -1.80666,0.35418 -2.45236,1.04668 -0.79154,0.99405 -2.2883,1.32425 -2.78409,2.55688 -0.0435,0.29553 3.8e-4,0.54266 0.10602,0.74525 0.14577,0.0361 0.35686,0.0163 0.64831,-0.0833 1.37756,-0.54425 2.68486,-1.29604 3.85804,-2.18879 0.74534,-0.31686 1.84575,-1.27538 1.6859,-1.90403 -0.34355,-0.11509 -0.70248,-0.17213 -1.06183,-0.17269 z m -8.15736,9.77798 c -0.0117,5e-5 -0.0246,0.001 -0.0363,0.002 -0.0337,0.001 -0.0684,0.005 -0.103,0.009 -0.001,3.7e-4 -0.003,-3.8e-4 -0.005,0 -0.5865,0.1573 -0.95746,0.81671 0.0909,0.64982 0.38145,0.0657 0.77157,-0.0717 0.93762,-0.23781 -0.21302,-0.2592 -0.52176,-0.42415 -0.8846,-0.42261 z m 3.68384,1.00427 c -0.23369,0.0117 -0.53486,0.0417 -0.80432,0.0969 -0.21696,0.13764 -0.41661,0.3167 -0.60287,0.51955 0.0447,0.058 0.11611,0.12116 0.21963,0.18936 0.34556,0.1026 1.94576,-0.17074 1.80709,-0.55439 -0.18149,-0.11617 -0.39775,-0.20647 -0.61953,-0.25145 z m 1.85556,2.51901 c -0.0274,0.004 -0.0536,0.01 -0.0803,0.0151 -0.99185,0.6533 0.62036,0.76526 1.26633,0.67103 -0.12623,-0.19188 -0.28483,-0.38371 -0.48018,-0.57257 -0.0737,-0.0322 -0.14638,-0.0564 -0.21662,-0.0757 -0.16096,-0.006 -0.32769,-0.0102 -0.48774,-0.0379 z"/><path style="color:#000;fill:#000;fill-opacity:1;stroke-linecap:round;stroke-linejoin:round;-inkscape-stroke:none" id="path1696-1" d="m 56.830872,-209.41328 a 1.0001,1.0001 0 0 0 -1,1 v 32 a 1.0001,1.0001 0 0 0 1,1 h 32.000001 a 1.0001,1.0001 0 0 0 1,-1 v -32 a 1.0001,1.0001 0 0 0 -1,-1 z m 1.000001,2 h 30 v 30 h -30 z"/></g></g></svg>