<svg width="34" height="34" viewBox="0 0 8.996 8.996" xmlns:xlink="http://www.w3.org/1999/xlink" xmlns="http://www.w3.org/2000/svg">
    <defs>
        <linearGradient xlink:href="#a" id="c" gradientUnits="userSpaceOnUse" gradientTransform="translate(-88.674 -79.462)" x1="0" y1="0" x2="34" y2="34"/>
        <linearGradient id="a">
            <stop style="stop-color:#fff;stop-opacity:.251" offset="0"/>
            <stop style="stop-color:#000;stop-opacity:1" offset="1"/>
        </linearGradient>
        <linearGradient xlink:href="#a" id="b" gradientUnits="userSpaceOnUse" gradientTransform="translate(-88.674 -79.462)" x1="0" y1="0" x2="34" y2="34"/>
    </defs>
    <path fill="#cc0" fill-rule="evenodd" d="M-87.675-46.463v-32h32v32h-32" style="fill:#ff8080;fill-opacity:1" transform="matrix(.26458 0 0 .26458 23.462 21.024)"/>
    <path style="fill:#ffd5d5;fill-opacity:1" d="M-83.812-78.463a19.984 19.984 0 0 0-3.863 4.26v3.506c1.47-3.234 3.857-5.895 6.76-7.766zm7.91 0c-5.133 1.693-9.375 5.837-10.732 11.415-1.963 8.07 2.954 16.617 11.127 18.582 7.563 1.818 15.565-2.794 17.383-10.461 1.673-7.057-2.642-14.521-9.805-16.192-6.552-1.528-13.472 2.49-14.996 9.15-1.384 6.05 2.335 12.428 8.494 13.805 5.548 1.24 11.394-2.182 12.623-7.843 1.097-5.048-2.03-10.357-7.195-11.44-4.55-.953-9.33 1.881-10.266 6.553-.81 4.053 1.735 8.306 5.916 9.092 3.56.668 7.29-1.587 7.924-5.284.528-3.069-1.448-6.28-4.664-6.761-2.581-.386-5.282 1.309-5.601 4.052-.245 2.098 1.183 4.302 3.466 4.446.81.05 1.606-.205 2.233-.705s1.09-1.303 1.053-2.225a2.332 2.332 0 0 0-.668-1.549c-.415-.43-1.15-.736-1.866-.511-.54.17-.712.422-.908.828a1.147 1.147 0 0 0-.09.859c.108.37.483.666.79.754l.472-1.643c.069.02.317.19.381.41.064.221.003.332-.012.362-.028.06.154-.023-.117.062.065-.02.026-.032.12.065a.875.875 0 0 1 .187.431c.013.343-.128.597-.408.82-.28.224-.7.357-1.059.335-1.2-.076-2.013-1.34-1.873-2.541.198-1.703 1.966-2.81 3.65-2.559 2.2.329 3.6 2.61 3.227 4.78-.464 2.697-3.263 4.392-5.922 3.892-3.196-.6-5.183-3.925-4.553-7.076.74-3.695 4.59-5.977 8.237-5.213 4.194.879 6.775 5.263 5.875 9.406-1.02 4.697-5.937 7.573-10.579 6.535-5.2-1.162-8.377-6.613-7.2-11.756 1.304-5.704 7.297-9.18 12.943-7.863 6.21 1.448 9.985 7.98 8.527 14.13-1.592 6.716-8.665 10.79-15.32 9.19-7.225-1.736-11.608-9.35-9.866-16.513 1.882-7.735 10.047-12.417 17.717-10.531 6.498 1.597 10.971 7.345 11.582 13.712v-6.209c-1.962-4.037-5.438-7.306-9.9-8.79zm15.335 0a19.33 19.33 0 0 1 4.892 4.618v-2.686a21.05 21.05 0 0 0-2.021-1.932zm4.892 17.98a15.356 15.356 0 0 1-.379 2.224c-1.478 5.955-6.235 10.305-11.861 11.796h4.603c3.245-1.763 5.963-4.474 7.637-7.875zm-32 4.296v3.545c1.679 2.534 3.943 4.68 6.662 6.18h4.555c-5.16-1.387-9.148-5.104-11.217-9.725zm32 6.006a20.415 20.415 0 0 1-3.658 3.718h2.62c.358-.34.702-.693 1.038-1.056zm-32 1.246v2.445l.03.027h2.619a21.25 21.25 0 0 1-2.649-2.472z" transform="matrix(.26458 0 0 .26458 23.462 21.024)"/>
    <g style="fill:#500;fill-opacity:1">
        <path style="color:#000;fill:#500;fill-opacity:1;stroke-width:.707;stroke-dashoffset:14.7;-inkscape-stroke:none" d="m-219.496-77.268-.139.33-.357.02.27.236-.092.346.306-.184.301.193-.08-.35.277-.226-.355-.031zm6.941 0-.14.33-.358.02.27.236-.092.346.309-.184.3.193-.08-.35.278-.226-.358-.031zm-15.152.531-.139.33-.357.02.27.236-.092.346.306-.184.301.194-.08-.35.277-.227-.355-.03zm-5.758 3.496-.139.33-.357.02.27.236-.092.346.306-.184.301.194-.08-.35.277-.226-.355-.032zm8.526 0-.141.33-.358.02.27.236-.092.346.309-.184.3.194-.08-.35.278-.226-.358-.032zm9.974.407-.139.33-.357.02.27.235-.092.346.306-.183.301.193-.08-.35.277-.226-.355-.031zm5.707.177-.14.328-.358.022.27.234-.092.346.308-.184.301.194-.08-.35.277-.226-.357-.032zm-23.865 14.67-.14.33-.358.02.27.236-.09.346.306-.184.301.194-.08-.35.277-.227-.357-.03zm23.877 1.406-.139.33-.357.02.27.234-.092.348.306-.185.301.195-.08-.35.277-.226-.355-.032zm-18.461 1.907-.139.33-.357.02.27.234-.092.347.306-.185.301.195-.08-.35.277-.226-.355-.031zm10.465.093-.14.33-.358.02.27.234-.093.348.31-.185.3.195-.08-.35.277-.226-.357-.032zm-16.223 3.403-.139.33-.357.02.27.234-.092.347.306-.185.301.195-.08-.35.277-.226-.355-.031zm8.526 0-.141.33-.358.02.27.234-.092.347.309-.185.3.195-.08-.35.278-.226-.358-.031zm9.974.406-.139.328-.357.022.27.234-.092.346.306-.184.301.193-.08-.347.277-.227-.355-.031zm6.145.113-.14.33-.358.02.27.236-.093.346.309-.184.3.194-.08-.35.278-.226-.357-.032z" transform="matrix(.26458 0 0 .26458 62.937 21.328)"/>
        <path style="color:#000;fill:#500;fill-opacity:1;stroke-dashoffset:14.7;-inkscape-stroke:none" d="m-219.484-78.207-.338.803-.053.125-1.002.054.756.664-.258.975.865-.518.846.543-.225-.98.78-.639-1.002-.088zm6.945 0-.342.8-.053.128-1.003.054.755.664-.257.971.865-.514.847.543-.224-.98.78-.639-1.005-.088zm-15.156.531-.338.803-.053.125-1.002.055.756.664-.258.974.865-.517.846.543-.226-.98.78-.64-1.001-.087zm-5.758 3.496-.338.803-.053.125-1.002.055.756.664-.258.974.866-.517.845.543-.226-.98.781-.64-1.002-.087zm8.53 0-.343.801-.052.127-1.004.055.756.664-.258.97.865-.513.848.543-.225-.98.78-.64-1.005-.087zm9.97.405-.338.804-.053.125-1.002.055.756.664-.258.975.866-.518.845.543-.226-.98.781-.64-1.002-.087zm5.71.183-.339.795-.055.129-1.004.06.756.657-.258.97.866-.513.847.543-.226-.98.781-.64-1.004-.087zm-23.864 14.666-.342.801-.053.127-1.004.055.758.664-.252.97.86-.513.845.543-.225-.98.78-.64-1.004-.087zm23.873 1.405-.338.804-.053.125-1.008.055.762.662-.258.98.865-.523.846.55-.227-.986.782-.638-1.002-.088zm-18.461 1.908-.338.802-.053.125-1.008.055.762.662-.258.98.865-.523.846.551-.226-.986.78-.639-1.001-.088zm10.468.093-.341.801-.053.127-1.01.055.762.662-.258.979.865-.522.848.55-.225-.986.78-.638-1.004-.088zm-16.226 3.403-.338.803-.053.125-1.008.054.762.662-.258.98.866-.523.845.551-.226-.986.781-.639-1.002-.088zm8.53 0-.343.8-.052.128-1.01.054.762.662-.258.979.865-.522.848.551-.225-.986.78-.639-1.005-.088zm9.97.408-.338.799-.053.127-1.002.06.756.657-.258.974.866-.517.845.543-.224-.979.779-.639-1.002-.087zm6.148.11-.341.802-.053.127-1.004.055.756.664-.258.97.865-.513.848.543-.227-.98.782-.64-1.004-.087z" transform="matrix(.26458 0 0 .26458 62.937 21.328)"/>
    </g>
    <path style="fill:#ff8080;fill-opacity:1;stroke:#500;stroke-width:.707;stroke-dasharray:none;stroke-opacity:1" d="m-56.112-68.99-1.007.232-9.276 4.832c-.02.638-.481 2.786-.364 3.416.387 1.087 1.076 2.197 2.143 2.72 1.381.366 2.85.226 4.27.315 1.414-.016 2.821.109 4.234.128" transform="matrix(.26458 0 0 .26458 23.462 21.024)"/>
    <path style="fill:#ff8080;fill-opacity:1;stroke:#500;stroke-width:.707;stroke-dasharray:none;stroke-opacity:1" d="M-86.94-70.333c.55.163-.454-.495 1.481.414 1.935.908 1.971 1.218 3.143 1.195l6.88.498c1.155.135 2.295.467 3.12 1.295.986.754 2.107 1.313 3.218 1.834.89.682 1.91 1.337 2.618 2.17.425.664.923.986 1.378 1.619 2.599 1.993 2.144 4.746-.173 4.38.276 2.048-.747 2.301-2.13 2.04.086 1.29-.834 2.525-2.64 1.438-1.295 2.441-3.762-1.192-2.496-.313-.654-1.007-1.534-1.3-2.23-2.256-1.283-1.155-2.664-2.124-4.105-3.06-.65-.376-1.36-.59-2.14-.714l-5.993.103" transform="matrix(.26458 0 0 .26458 23.462 21.024)"/>
    <path style="fill:#ff8080;fill-opacity:1;stroke:#500;stroke-width:.707;stroke-dasharray:none;stroke-opacity:1" d="M-72.864-57.03c-1.318-.576-2.114.872-2.422 2.04-.28 1.061-.678 3.061.97 2.674 2.321-1.332 3.128-3.093 1.452-4.713zM-74.266-59.138c.385.775-.437 1.64-.688 2.462-.272.888-.383 2.115-1.103 2.6-.649.439-2.188.664-2.48-.171-.398-1.143-.05-2.456.586-3.445.5-.776 1.063-1.702 1.825-2.135.68-.269 1.616.196 1.86.689z" transform="matrix(.26458 0 0 .26458 23.462 21.024)"/>
    <path style="fill:#ff8080;fill-opacity:1;stroke:#500;stroke-width:.707;stroke-dasharray:none;stroke-opacity:1" d="M-80.705-60.24c-.57.64-1.03 1.487-1.038 2.4-.008.818-.288 2.004.771 2.034.998.03 1.979-.316 2.609-1.162.566-.76.46-1.742.379-2.687-.069-.789-.717-1.401-1.55-1.206-.433.102-.872.284-1.171.62zM-56.112-68.99c-1.124.13-2.125.73-3.183 1.089-1.683.92-3.875 1.26-5.569.178-1.331-.734-2.513-1.765-4.033-2.11-1.4-1.066-3.458-.888-4.662.404-.831 1.044-2.402 1.39-2.922 2.684-.215 1.455 1.59 1.79 2.647 1.447 1.135-.222 2.524-1.667 3.161.061a7.966 7.966 0 0 0 4.38 3.95c1.238.198 2.77.302 3.643-.79.375-.526.321-1.223.545-1.815" transform="matrix(.26458 0 0 .26458 23.462 21.024)"/>
    <path style="fill:#ffd5d5;fill-opacity:1;stroke:none;stroke-width:.387772;stroke-opacity:1" d="M-71.015-70.324a3.343 3.343 0 0 0-2.453 1.046c-.791.994-2.288 1.325-2.784 2.557a1.2 1.2 0 0 0 .106.745c.146.037.357.017.649-.083a16.311 16.311 0 0 0 3.858-2.189c.745-.317 1.845-1.275 1.686-1.904a3.36 3.36 0 0 0-1.062-.172zm-8.158 9.778-.036.001a1.186 1.186 0 0 0-.103.01h-.005c-.586.157-.957.816.091.65.381.065.772-.073.938-.239a1.124 1.124 0 0 0-.885-.422zm3.684 1.004a5.612 5.612 0 0 0-.804.097 3.053 3.053 0 0 0-.603.52.903.903 0 0 0 .22.189c.345.102 1.945-.171 1.807-.555a1.852 1.852 0 0 0-.62-.251zm1.856 2.519c-.028.004-.054.01-.08.015-.992.653.62.765 1.266.671a3.394 3.394 0 0 0-.48-.573 1.6 1.6 0 0 0-.217-.075c-.161-.007-.328-.01-.488-.038z" transform="matrix(.26458 0 0 .26458 23.462 21.024)"/>
    <path style="color:#000;fill:#500;fill-opacity:1;stroke-linecap:round;stroke-linejoin:round;-inkscape-stroke:none" d="M-87.674-79.462a1 1 0 0 0-1 1v32a1 1 0 0 0 1 1h32a1 1 0 0 0 1-1v-32a1 1 0 0 0-1-1zm1 2h30v30h-30z" transform="matrix(.26458 0 0 .26458 23.462 21.024)"/>
    <path style="fill:url(#b);fill-opacity:1;stroke:none;stroke-width:.5;stroke-dasharray:none;stroke-dashoffset:14.7;stroke-opacity:1" d="M-87.674-79.462a1 1 0 0 0-1 1v32a1 1 0 0 0 1 1h32a1 1 0 0 0 1-1v-32a1 1 0 0 0-1-1zm1 2h30v30h-30z" transform="matrix(.26458 0 0 .26458 23.462 21.024)"/>
    <path style="fill:url(#c);fill-opacity:1;stroke:none;stroke-width:.5;stroke-dasharray:none;stroke-dashoffset:14.7;stroke-opacity:1" d="M-87.674-79.462a1 1 0 0 0-1 1v32a1 1 0 0 0 1 1h32a1 1 0 0 0 1-1v-32a1 1 0 0 0-1-1zm1 2h30v30h-30z" transform="matrix(.26458 0 0 .26458 23.462 21.024)"/>
</svg>
