<svg xmlns="http://www.w3.org/2000/svg" xmlns:svg="http://www.w3.org/2000/svg" id="svg12122" width="34" height="34" version="1.1" viewBox="0 0 8.996 8.996"><g id="layer1" transform="translate(-100.11487,-98.323547)"><path id="path1694-1-1-4" fill="#cc0" fill-rule="evenodd" stroke="none" d="m 100.19229,107.21811 v -8.466673 h 8.46666 v 8.466673 h -8.46666" style="fill:#fff;fill-opacity:1;stroke-width:.264583"/><path id="path27715-5-8-7" style="fill:#ff7600;fill-opacity:1;stroke-width:.391501;stroke-dashoffset:14.7" d="m 101.42997,98.365699 a 5.3000147,5.1924479 0 0 0 -1.09714,1.040246 v 2.771405 a 4.2902047,3.9688426 0 0 1 4.23347,-3.332094 4.2902047,3.9688426 0 0 1 4.29044,3.968754 4.2902047,3.9688426 0 0 1 -4.29044,3.96875 4.2902047,3.9688426 0 0 1 -4.23347,-3.3321 v 2.28255 a 5.3000147,5.1924479 0 0 0 1.17731,1.09916 h 6.01843 a 5.3000147,5.1924479 0 0 0 1.44632,-1.45159 v -5.620335 a 5.3000147,5.1924479 0 0 0 -1.3461,-1.394746 z m 3.05457,1.350822 a 3.3439647,3.1458625 0 0 0 -3.34416,3.146059 3.3439647,3.1458625 0 0 0 3.34416,3.14607 3.3439647,3.1458625 0 0 0 3.34416,-3.14607 3.3439647,3.1458625 0 0 0 -3.34416,-3.146059 z m 0,0.740519 a 2.5571727,2.4056812 0 0 1 2.55717,2.40554 2.5571727,2.4056812 0 0 1 -2.55717,2.40554 2.5571727,2.4056812 0 0 1 -2.55717,-2.40554 2.5571727,2.4056812 0 0 1 2.55717,-2.40554 z"/><path id="path424-4-6" style="color:#000;fill:#000;fill-opacity:1;stroke-width:.264583;stroke-linecap:round;stroke-linejoin:round;-inkscape-stroke:none" d="m 100.37945,98.323547 a 0.26460979,0.26460979 0 0 0 -0.26458,0.264583 v 8.46667 a 0.26460979,0.26460979 0 0 0 0.26458,0.26458 h 8.46667 a 0.26460979,0.26460979 0 0 0 0.26458,-0.26458 v -8.46667 a 0.26460979,0.26460979 0 0 0 -0.26458,-0.264583 z m 0.26459,0.529166 h 7.44554 l 0.18086,4.805397 0.18035,-4.805397 h 0.13075 v 7.485337 l -4.80074,0.18086 4.80074,0.18036 v 0.091 h -7.47293 l -0.18035,-4.79403 -0.17984,4.79403 h -0.10438 v -7.51531 l 4.82347,-0.180868 -4.82347,-0.181901 z"/><path id="path1128-4-7-0" style="opacity:.25;fill:#000;stroke-width:.020808" d="m 104.91411,100.72499 c -0.0356,-3.1e-4 -0.0713,6.7e-4 -0.10748,0.002 -0.007,2.6e-4 -0.0134,2e-4 -0.0202,5.3e-4 -0.003,1.4e-4 -0.006,3.7e-4 -0.009,5.1e-4 -0.0401,0.002 -0.0806,0.005 -0.12093,0.009 -0.0368,0.004 -0.0734,0.009 -0.11007,0.0139 -0.0139,0.002 -0.0275,0.005 -0.0413,0.007 -0.002,3.1e-4 -0.004,7.1e-4 -0.006,10e-4 -0.0338,0.006 -0.0674,0.0111 -0.10077,0.0181 -0.0397,0.008 -0.0791,0.0178 -0.11782,0.0279 -0.006,0.002 -0.0127,0.003 -0.0191,0.005 -0.0377,0.0102 -0.0748,0.0207 -0.1111,0.0326 -0.0321,0.0105 -0.0633,0.0223 -0.094,0.0341 -0.0131,0.005 -0.026,0.0102 -0.0388,0.0155 -0.0317,0.013 -0.0627,0.0264 -0.0925,0.0408 -0.0208,0.0101 -0.0421,0.0209 -0.0636,0.0326 -0.0215,0.0116 -0.0432,0.0237 -0.0651,0.0367 -0.0268,0.0159 -0.0543,0.0344 -0.0817,0.0522 -0.0173,0.0113 -0.0348,0.0216 -0.0522,0.0336 -0.0898,0.0617 -0.18045,0.13206 -0.26717,0.2067 -0.0434,0.0373 -0.0853,0.0757 -0.12609,0.11472 h -5.3e-4 c -0.0815,0.078 -0.15637,0.15828 -0.22014,0.23668 -0.0319,0.0392 -0.0607,0.078 -0.0863,0.11576 -0.0286,0.0421 -0.0571,0.0878 -0.0847,0.13642 -0.0553,0.0972 -0.10799,0.2054 -0.15503,0.31626 -0.047,0.11086 -0.0882,0.22431 -0.12092,0.33228 -0.0164,0.054 -0.0307,0.10642 -0.0424,0.15658 -0.0117,0.0502 -0.0207,0.0979 -0.0269,0.14211 -0.006,0.0443 -0.01,0.0851 -0.01,0.12144 -1e-5,0.0653 8.7e-4,0.098 0.0103,0.11834 l 0.007,0.0811 c -0.14108,0.11004 -0.17753,0.13455 -0.2496,0.16847 -0.022,0.0104 -0.0472,0.0285 -0.0724,0.0506 -0.0254,0.0224 -0.0507,0.0486 -0.0734,0.076 -8e-5,1e-4 8e-5,4.3e-4 0,5.3e-4 -0.0338,0.0408 -0.0617,0.0829 -0.0734,0.11524 -5e-5,1.3e-4 5e-5,4e-4 0,5.3e-4 -0.004,0.0106 -0.006,0.0204 -0.006,0.0284 0,0.0216 0.009,0.0453 0.0212,0.0636 0.006,0.009 0.0136,0.0167 0.0212,0.0222 0.007,0.005 0.015,0.009 0.0222,0.009 0.002,0 0.004,-0.002 0.007,-0.005 0.009,-0.01 0.0205,-0.0316 0.0295,-0.0574 0.007,-0.0202 0.0159,-0.036 0.0263,-0.0465 0.0106,-0.0106 0.0226,-0.016 0.0357,-0.016 0.0111,0 0.0318,-0.0104 0.0563,-0.0274 0.0245,-0.0169 0.0529,-0.0404 0.0791,-0.0661 0.1168,-0.11514 0.13959,-0.11815 0.11575,-0.0155 -0.0413,0.17802 -0.005,0.59411 0.0672,0.77876 0.013,0.0332 0.0152,0.0666 0.009,0.092 -3e-5,1.6e-4 4e-5,3.7e-4 0,5.3e-4 -0.007,0.0252 -0.0217,0.0424 -0.0429,0.0424 -0.007,0 -0.0112,-4.5e-4 -0.0145,-0.002 -0.01,-0.003 -0.006,-0.0107 0.009,-0.03 0.0104,-0.0128 0.0153,-0.0195 0.015,-0.0217 -1e-5,-1.1e-4 4e-5,-4.2e-4 0,-5.3e-4 -5e-4,-0.002 -0.007,9.8e-4 -0.0186,0.008 -0.022,0.0133 -0.0263,0.009 -0.0165,-0.016 7e-5,-1.6e-4 -5e-5,-3.7e-4 0,-5.3e-4 0.002,-0.005 0.003,-0.009 0.004,-0.0139 0.002,-0.0141 -0.003,-0.0269 -0.0108,-0.032 -0.011,-0.007 -0.0254,0.002 -0.032,0.0191 -0.004,0.0104 -0.004,0.0266 -0.002,0.0455 5.1e-4,0.004 0.002,0.008 0.003,0.0119 0.006,0.0352 0.0198,0.075 0.0336,0.0961 0.008,0.0117 0.015,0.0178 0.0212,0.014 0.003,-0.002 0.005,-0.002 0.007,-0.002 0.002,5.3e-4 0.004,0.002 0.006,0.005 0.003,0.005 0.006,0.013 0.006,0.0232 0,0.0105 0.006,0.0283 0.0155,0.0491 8e-5,1.6e-4 -7e-5,3.4e-4 0,5.3e-4 0.009,0.0207 0.0225,0.0442 0.0367,0.0651 0.0472,0.0695 0.0624,0.10151 0.0388,0.11214 -0.0142,0.006 -0.0423,0.005 -0.0858,-5.3e-4 -0.0825,-0.0106 -0.14867,-0.0184 -0.20308,-0.0233 -1.9e-4,-1e-5 -3.2e-4,2e-5 -5.3e-4,0 -0.13624,-0.012 -0.2,-0.005 -0.26975,0.0227 -0.014,0.006 -0.0278,0.0118 -0.0429,0.0191 -0.0199,0.01 -0.0369,0.0189 -0.0512,0.0274 -0.0142,0.008 -0.0257,0.0164 -0.0346,0.0238 -0.009,0.007 -0.0153,0.0146 -0.0191,0.0212 -0.004,0.007 -0.005,0.0127 -0.004,0.0186 0.001,0.007 0.004,0.0125 0.007,0.0176 7e-5,1.3e-4 -8e-5,4e-4 0,5.3e-4 0.003,0.005 0.007,0.009 0.0114,0.0124 0.005,0.003 0.01,0.006 0.0155,0.007 0.006,0.001 0.0129,0.002 0.0202,0.002 0.029,-0.002 0.0681,-0.0172 0.11317,-0.047 0.0351,-0.0232 0.062,-0.0381 0.0982,-0.0465 0.0242,-0.006 0.0525,-0.009 0.0899,-0.009 0.0561,-2.7e-4 0.13282,0.005 0.24753,0.0145 l 0.20154,0.016 0.0129,0.0703 c 0.002,0.0116 0.006,0.0231 0.0103,0.0351 0.0319,0.0827 0.11872,0.1728 0.21652,0.22014 0.0476,0.0231 0.0951,0.0368 0.13333,0.0408 0.0382,0.004 0.067,-0.002 0.0775,-0.0186 0.003,-0.005 0.007,-0.009 0.01,-0.0124 0.0224,-0.0211 0.0475,0.009 0.0971,0.11111 0.0255,0.0525 0.04,0.0882 0.0481,0.13125 0.004,0.0215 0.007,0.0446 0.008,0.0729 0,1.9e-4 -10e-6,3.2e-4 0,5.3e-4 0.001,0.0282 0.001,0.0614 0.001,0.10232 -9.3e-4,0.103 -0.009,0.22385 -0.0176,0.2682 -0.006,0.032 -0.009,0.0514 -0.007,0.062 9.5e-4,0.006 0.003,0.009 0.007,0.01 0.003,0.001 0.008,7.6e-4 0.0129,-0.001 0.0305,-0.0101 0.0513,-0.0369 0.0636,-0.0858 3e-5,-1.5e-4 -4e-5,-3.7e-4 0,-5.3e-4 4.5e-4,-0.002 6e-4,-0.004 10e-4,-0.006 0.005,-0.0235 0.009,-0.0514 0.0108,-0.0853 0.002,-0.0367 0.002,-0.0795 5.3e-4,-0.12971 -0.003,-0.0849 -0.007,-0.13948 -0.0176,-0.18759 -4e-5,-1.6e-4 3e-5,-3.4e-4 0,-5.3e-4 -0.0104,-0.0482 -0.0269,-0.0899 -0.0553,-0.15038 -0.0181,-0.0386 -0.0334,-0.0738 -0.0434,-0.0992 -0.01,-0.0254 -0.0148,-0.0408 -0.0119,-0.0408 0.006,0 0.0295,0.01 0.0527,0.0222 1.4e-4,8e-5 3.7e-4,-8e-5 5.3e-4,0 0.0116,0.006 0.0274,0.0105 0.0439,0.0124 0.008,9.3e-4 0.0172,0.001 0.0253,0.001 0.008,-3.4e-4 0.0155,-0.001 0.0222,-0.003 0.008,-0.002 0.0175,-0.006 0.0274,-0.0109 0.0297,-0.0146 0.0655,-0.0401 0.0982,-0.0692 0.0218,-0.0194 0.0423,-0.0405 0.0589,-0.0605 0.0166,-0.02 0.0291,-0.0388 0.0351,-0.0548 0.004,-0.0116 0.008,-0.0206 0.0114,-0.0269 0.003,-0.006 0.007,-0.0101 0.0109,-0.0114 0.007,-0.002 0.0169,0.005 0.0331,0.0196 0.0152,0.0137 0.0316,0.0242 0.0496,0.032 0.018,0.008 0.0372,0.0129 0.0589,0.015 0.011,0.001 0.0225,9.2e-4 0.0346,5.3e-4 0.0357,-10e-4 0.0767,-0.008 0.12402,-0.0222 0.028,-0.008 0.0559,-0.0191 0.0837,-0.031 0.0346,-0.0149 0.0688,-0.032 0.10128,-0.0517 0.0585,-0.0355 0.11198,-0.0778 0.15452,-0.1235 0.0275,-0.0296 0.0513,-0.0476 0.0662,-0.0522 0.007,-0.002 0.0124,-0.001 0.0145,0.004 10e-4,0.002 0.002,0.005 10e-4,0.009 -5.3e-4,0.004 -0.002,0.01 -0.004,0.0155 -0.007,0.0194 -0.002,0.026 0.0165,0.0191 0.0154,-0.006 0.0338,-0.002 0.0408,0.01 0.004,0.006 0.0123,0.009 0.0238,0.01 9.8e-4,8e-5 0.002,4.8e-4 0.003,5.3e-4 0.013,3.7e-4 0.03,-0.002 0.0496,-0.008 0.0236,-0.007 0.0415,-0.009 0.0537,-0.006 0.006,10e-4 0.0107,0.004 0.014,0.008 0.003,0.004 0.005,0.009 0.006,0.016 9e-4,0.0135 -0.004,0.0325 -0.0139,0.0579 -0.0103,0.0253 -0.0261,0.0568 -0.0475,0.0951 -0.0394,0.0705 -0.0718,0.1406 -0.0966,0.20877 -6e-5,1.5e-4 5e-5,3.7e-4 0,5.3e-4 -0.004,0.0107 -0.006,0.0209 -0.01,0.0315 -0.0302,0.0905 -0.0483,0.17637 -0.0506,0.25218 -8.8e-4,0.0282 -5e-5,0.0554 0.003,0.0806 0.005,0.0377 0.0144,0.0715 0.0284,0.10077 0.005,0.01 0.01,0.0192 0.0155,0.0279 0.0268,0.0407 0.0644,0.0998 0.0837,0.13125 0.005,0.008 0.0104,0.0154 0.016,0.0222 0.006,0.007 0.0116,0.0128 0.0176,0.0181 0.006,0.005 0.0113,0.01 0.0165,0.0124 1e-4,6e-5 4.2e-4,-6e-5 5.3e-4,0 0.005,0.003 0.01,0.005 0.0139,0.005 0.004,0 0.009,8.8e-4 0.0134,0.003 1.6e-4,8e-5 3.4e-4,-7e-5 5.3e-4,0 0.01,0.005 0.0198,0.0134 0.0284,0.0238 0.004,0.005 0.008,0.011 0.0114,0.0171 0.0104,0.0193 0.019,0.0299 0.0362,0.0341 0.009,0.002 0.0198,0.003 0.0341,0.002 0.014,-7.2e-4 0.031,-0.003 0.0527,-0.006 2e-4,-2e-5 3.1e-4,3e-5 5.2e-4,0 0.0393,-0.005 0.0647,-0.006 0.0817,-0.004 0.0165,0.003 0.0253,0.01 0.03,0.0222 0.003,0.009 0.008,0.0164 0.0124,0.0222 0.005,0.006 0.009,0.009 0.0124,0.009 0.0201,0 0.0718,-0.0572 0.0718,-0.0796 0,-0.008 -0.008,-0.021 -0.0217,-0.0357 -0.0275,-0.0294 -0.078,-0.0679 -0.13332,-0.1018 -0.0276,-0.0169 -0.0564,-0.0326 -0.0842,-0.0455 -0.0571,-0.0264 -0.13095,-0.0712 -0.16433,-0.0992 h -5.3e-4 l -0.0605,-0.0506 0.0527,-0.0486 c 0.009,-0.009 0.018,-0.0188 0.0269,-0.0305 0.009,-0.0115 0.0174,-0.0241 0.0258,-0.0382 0.0168,-0.0284 0.0328,-0.0622 0.047,-0.0992 0.0142,-0.037 0.0267,-0.0775 0.0372,-0.12041 0.0106,-0.0429 0.019,-0.0879 0.0248,-0.13384 0.004,-0.0342 0.007,-0.0678 0.008,-0.10129 4.5e-4,-0.0156 -7.4e-4,-0.031 -10e-4,-0.0465 -4e-4,-0.0188 -5e-5,-0.0377 -0.002,-0.0563 -10e-4,-0.0163 -0.004,-0.0324 -0.006,-0.0486 -0.002,-0.0171 -0.005,-0.0342 -0.008,-0.0512 -0.003,-0.0165 -0.007,-0.0328 -0.0114,-0.0491 -0.004,-0.0156 -0.008,-0.0311 -0.0124,-0.0465 -0.005,-0.0183 -0.0114,-0.0366 -0.0181,-0.0548 -0.005,-0.0126 -0.01,-0.0252 -0.015,-0.0377 -0.01,-0.0233 -0.02,-0.0467 -0.0315,-0.0698 -7.4e-4,-0.002 -10e-4,-0.003 -0.002,-0.005 -9.5e-4,-0.002 -0.002,-0.004 -0.003,-0.006 -0.014,-0.0274 -0.0292,-0.0549 -0.046,-0.0822 -5.3e-4,-8.5e-4 -0.001,-0.002 -0.002,-0.003 -10e-4,-0.002 -0.002,-0.004 -0.004,-0.006 -0.011,-0.0175 -0.022,-0.0347 -0.0341,-0.0522 0.009,0.0125 0.0202,0.0264 0.0274,0.0367 0.0134,0.0191 0.0227,0.0335 0.0248,0.0403 0.001,0.003 0.003,0.007 0.005,0.0103 10e-4,0.001 0.002,0.003 0.004,0.004 0.001,10e-4 0.003,0.003 0.004,0.004 5.5e-4,5e-4 9.8e-4,0.001 0.002,0.002 0.002,0.002 0.004,0.003 0.007,0.005 0.004,0.003 0.008,0.006 0.0124,0.008 0.001,5.1e-4 0.002,5.9e-4 0.003,0.001 0.006,0.002 0.011,0.004 0.016,0.005 2.9e-4,4e-5 7.4e-4,-3e-5 10e-4,0 0.002,2.4e-4 0.004,1e-4 0.006,0 0.002,-10e-5 0.003,-1.3e-4 0.005,-5.3e-4 0.003,-6.6e-4 0.005,-10e-4 0.006,-0.003 9e-4,0.002 0.003,0.006 0.003,0.008 0,0.0158 0.0137,0.0204 0.0346,0.0124 0.002,-8.5e-4 0.005,-1.2e-4 0.007,-5.3e-4 -0.002,0.002 -0.004,0.004 -0.005,0.007 -8e-5,3.9e-4 4e-5,0.001 0,0.002 -1.5e-4,0.003 4.2e-4,0.005 0.002,0.008 4e-5,1.2e-4 -4e-5,4e-4 0,5.3e-4 0.001,0.003 0.003,0.007 0.005,0.0109 9.5e-4,0.002 0.002,0.003 0.003,0.005 2.6e-4,3.7e-4 2.4e-4,6.6e-4 5.3e-4,10e-4 0.004,0.006 0.01,0.0128 0.017,0.0202 0.0117,0.0117 0.0312,0.0252 0.0527,0.0382 0.0108,0.007 0.0218,0.013 0.0331,0.0186 h 5.3e-4 c 0.003,0.002 0.006,0.003 0.01,0.005 0.008,0.004 0.0154,0.008 0.0227,0.0103 0.0106,0.004 0.0233,0.007 0.0372,0.0103 0.0416,0.009 0.0938,0.0134 0.13281,0.01 0.15344,-0.0142 0.40054,-0.0737 0.48472,-0.11679 0.005,-0.003 0.0101,-0.005 0.0155,-0.007 4.8e-4,0.002 0.01,0.0124 0.0191,0.0222 0.003,0.003 0.003,0.003 0.006,0.007 1.5e-4,1.6e-4 -1.5e-4,3.7e-4 0,5.3e-4 0.0153,0.0155 0.036,0.0351 0.0589,0.0558 0.0117,0.0105 0.0241,0.0226 0.0362,0.0357 0.0173,0.0186 0.0331,0.0392 0.0481,0.0589 0.0163,0.0216 0.0313,0.0427 0.0398,0.0594 0.005,0.0107 0.0123,0.0217 0.0196,0.0331 8e-5,1.3e-4 -8e-5,4e-4 0,5.3e-4 0.007,0.0113 0.0155,0.0224 0.0238,0.0331 0.004,0.005 0.008,0.009 0.0114,0.014 0.005,0.006 0.009,0.0112 0.014,0.016 0.008,0.009 0.0161,0.0166 0.0232,0.0222 0.009,0.007 0.0166,0.0144 0.0233,0.0222 0.0116,0.0137 0.0191,0.0288 0.0238,0.0455 6.6e-4,0.002 0.002,0.004 0.003,0.007 4e-5,1.6e-4 -3e-5,3.4e-4 0,5.3e-4 0.002,0.01 0.003,0.0201 0.003,0.031 0,0.0267 6.1e-4,0.0438 0.005,0.0532 0.004,0.009 0.0117,0.0112 0.0248,0.007 0.009,-0.003 0.0199,-0.009 0.0346,-0.0165 0.028,-0.015 0.0386,-0.0529 0.0346,-0.1018 -0.001,-0.0162 -0.004,-0.0335 -0.009,-0.0517 -0.009,-0.0364 -0.0235,-0.0758 -0.0434,-0.11472 -0.0198,-0.0389 -0.0447,-0.0772 -0.0739,-0.11162 -0.0312,-0.0368 -0.0781,-0.0935 -0.10387,-0.12609 -0.011,-0.0138 -0.0196,-0.0239 -0.0279,-0.0315 -0.0119,-0.0112 -0.0234,-0.0176 -0.0388,-0.0176 -0.01,5e-5 -0.0233,0.003 -0.0388,0.006 0.0128,-0.005 0.0289,-0.0122 0.0481,-0.0207 0.003,-10e-4 0.008,-0.004 0.0114,-0.005 0.0393,-0.0176 0.0847,-0.039 0.13591,-0.0646 0.0876,-0.0439 0.14394,-0.0754 0.20619,-0.12402 0.0311,-0.0243 0.0637,-0.0531 0.10232,-0.0894 0.0386,-0.0363 0.0831,-0.0804 0.13849,-0.13591 0.17724,-0.17762 0.27932,-0.29917 0.35088,-0.41961 0.0723,-0.12161 0.1426,-0.28478 0.18604,-0.42168 0.0261,-0.0821 0.0421,-0.15514 0.0434,-0.20361 0.001,-0.0486 0.009,-0.0883 0.016,-0.0884 0.009,-8e-5 0.0138,-0.0122 0.017,-0.0574 0.003,-0.0452 0.005,-0.12338 0.006,-0.25476 7.9e-4,-0.12198 -0.005,-0.23131 -0.0139,-0.31006 -0.004,-0.0394 -0.01,-0.0711 -0.016,-0.093 -0.003,-0.0108 -0.006,-0.0191 -0.01,-0.0248 v -5.3e-4 c -0.003,-0.006 -0.007,-0.009 -0.0108,-0.009 -0.003,0 -0.005,-9.8e-4 -0.007,-0.003 -0.002,-0.002 -0.003,-0.005 -0.003,-0.009 -10e-4,-0.008 -2e-5,-0.018 0.004,-0.0295 0.004,-0.0124 0.005,-0.0227 0.003,-0.03 -7.9e-4,-0.004 -0.003,-0.007 -0.005,-0.009 -0.002,-0.002 -0.005,-0.003 -0.008,-0.003 -0.003,0 -0.006,-5.8e-4 -0.008,-0.002 -0.002,-9.8e-4 -0.004,-0.002 -0.005,-0.004 -0.001,-0.002 -0.002,-0.003 -0.002,-0.006 2.2e-4,-0.002 0.001,-0.005 0.003,-0.008 0.006,-0.0105 7.9e-4,-0.0456 -0.0124,-0.078 -0.0133,-0.0324 -0.0268,-0.0719 -0.03,-0.0879 -0.0133,-0.0665 -0.14141,-0.30009 -0.22738,-0.41444 -0.10977,-0.14602 -0.3225,-0.30892 -0.48115,-0.38142 -0.0264,-0.0121 -0.0512,-0.0213 -0.0739,-0.0279 -0.0227,-0.007 -0.0434,-0.0102 -0.061,-0.0103 l -0.24237,-0.11679 -0.002,-5e-4 -0.0491,-0.032 -0.016,10e-4 h -5.3e-4 c 0,-0.006 -0.01,-0.0146 -0.0279,-0.0238 -0.0179,-0.009 -0.0438,-0.0191 -0.0754,-0.0295 -0.0633,-0.0208 -0.14977,-0.0429 -0.24287,-0.0605 -0.0502,-0.01 -0.10231,-0.0163 -0.15607,-0.0212 -0.0538,-0.005 -0.10916,-0.008 -0.16536,-0.008 z m 0.32453,3.79719 c -0.005,10e-4 -0.009,0.002 -0.014,0.003 -0.0123,0.003 -0.0227,0.005 -0.0351,0.008 -0.004,8e-4 -0.007,0.001 -0.0108,0.002 -0.0301,0.006 -0.059,0.0113 -0.0853,0.0155 0.0473,-0.008 0.0942,-0.0176 0.14521,-0.0284 z"/><path id="path1128-4-4" style="fill:#fff;stroke-width:.020808" d="m 104.80473,100.64916 c -0.33719,-0.003 -0.70794,0.0718 -0.98885,0.20772 -0.33301,0.16119 -0.75773,0.52682 -0.96273,0.8287 -0.2286,0.33663 -0.43948,0.91502 -0.43952,1.20542 l 0.0171,0.19916 c -0.14108,0.11003 -0.17772,0.13479 -0.24979,0.1687 -0.0886,0.0417 -0.22512,0.20623 -0.22512,0.27125 0,0.0432 0.035,0.0944 0.0646,0.0944 0.008,0 0.0244,-0.0282 0.0364,-0.0625 0.0141,-0.0404 0.0359,-0.0624 0.0621,-0.0624 0.0222,0 0.0831,-0.0421 0.13533,-0.0936 0.1168,-0.11514 0.13988,-0.1183 0.11605,-0.0157 -0.0413,0.17802 -0.006,0.59415 0.0669,0.7788 0.026,0.0663 0.009,0.13505 -0.0339,0.13505 -0.0248,0 -0.0257,-0.006 -0.005,-0.0318 0.021,-0.026 0.0204,-0.0285 -0.004,-0.0139 -0.022,0.0133 -0.0263,0.009 -0.0165,-0.0161 0.007,-0.0187 0.004,-0.0396 -0.007,-0.0464 -0.011,-0.007 -0.0254,0.002 -0.0321,0.0193 -0.016,0.0416 0.031,0.1828 0.0557,0.16754 0.0105,-0.007 0.0191,0.005 0.0191,0.0262 0,0.0209 0.0233,0.0725 0.0519,0.1146 0.0756,0.11118 0.0692,0.12675 -0.0467,0.11184 -0.33085,-0.0426 -0.39608,-0.0402 -0.51655,0.0187 -0.0796,0.0389 -0.11318,0.067 -0.10864,0.0905 0.0107,0.0554 0.0759,0.0524 0.16652,-0.008 0.0937,-0.062 0.13016,-0.0654 0.43604,-0.0409 l 0.20105,0.0161 0.0132,0.0704 c 0.0171,0.0912 0.11468,0.20091 0.22672,0.25515 0.0952,0.0461 0.19013,0.0562 0.21105,0.0223 0.0255,-0.0413 0.05,-0.0188 0.10706,0.0988 0.051,0.10509 0.0579,0.14245 0.0564,0.30694 -9.3e-4,0.103 -0.009,0.22357 -0.0175,0.26792 -0.0126,0.064 -0.01,0.0786 0.0128,0.0711 0.0613,-0.0202 0.0825,-0.10679 0.0756,-0.3078 -0.006,-0.17026 -0.0158,-0.21716 -0.0725,-0.33813 -0.0362,-0.0773 -0.0611,-0.14041 -0.0553,-0.14041 0.006,0 0.0296,0.0101 0.0528,0.0225 0.0232,0.0124 0.0646,0.017 0.092,0.0102 0.0659,-0.0166 0.19523,-0.13166 0.21947,-0.19539 0.0177,-0.0466 0.0224,-0.0482 0.0553,-0.0186 0.0606,0.0546 0.1404,0.0622 0.26719,0.0254 0.12566,-0.0365 0.25421,-0.11451 0.33928,-0.20597 0.0551,-0.0592 0.0961,-0.0719 0.0777,-0.0241 -0.007,0.0194 -0.002,0.0262 0.0164,0.0193 0.0154,-0.006 0.0339,-10e-4 0.0409,0.01 0.008,0.0129 0.0364,0.0138 0.076,0.002 0.0943,-0.027 0.0972,0.0181 0.0116,0.17116 -0.15761,0.28185 -0.20157,0.56291 -0.10995,0.70207 0.0268,0.0407 0.0644,0.0997 0.0837,0.13113 0.0193,0.0315 0.0485,0.0573 0.065,0.0573 0.0165,0 0.0406,0.0197 0.0535,0.0439 0.0207,0.0387 0.0357,0.0425 0.1233,0.0309 0.0785,-0.0104 0.10213,-0.006 0.11169,0.0184 0.007,0.0174 0.0178,0.0316 0.0247,0.0316 0.0201,0 0.0721,-0.0576 0.0721,-0.0799 0,-0.0336 -0.12805,-0.13147 -0.23934,-0.18292 -0.0572,-0.0264 -0.13122,-0.0709 -0.16449,-0.0989 l -0.0605,-0.0508 0.0525,-0.0487 c 0.0732,-0.0678 0.13861,-0.23842 0.16188,-0.42197 0.0336,-0.26514 -0.0355,-0.50791 -0.21106,-0.74617 0.0389,0.0504 0.071,0.0948 0.0753,0.10836 0.009,0.0275 0.0579,0.0485 0.0705,0.0351 9e-4,0.002 0.003,0.006 0.003,0.008 0,0.0158 0.0136,0.0208 0.0345,0.0128 0.002,-8.5e-4 0.005,-4.5e-4 0.007,-8.7e-4 -0.01,0.006 -0.006,0.0248 0.0229,0.0538 0.0234,0.0234 0.0768,0.0556 0.1188,0.0717 h 1.5e-4 c 0.0424,0.0162 0.11792,0.0254 0.16986,0.0206 0.15345,-0.0142 0.40031,-0.0738 0.48449,-0.11692 0.005,-0.003 0.0103,-0.004 0.0158,-0.007 10e-4,0.006 0.0382,0.0438 0.084,0.0851 0.0466,0.0421 0.10243,0.11144 0.12417,0.15405 0.0217,0.0426 0.0632,0.0962 0.0921,0.11895 0.0361,0.0284 0.0527,0.0615 0.0527,0.10589 0,0.0712 0.005,0.0745 0.0638,0.0431 0.0743,-0.0398 0.0256,-0.24209 -0.0914,-0.37976 -0.0312,-0.0368 -0.0779,-0.0935 -0.10372,-0.12605 -0.039,-0.0492 -0.0513,-0.0556 -0.10792,-0.0421 0.0392,-0.015 0.11603,-0.0503 0.19757,-0.0911 0.17531,-0.0878 0.22591,-0.12723 0.44735,-0.34915 0.17724,-0.17762 0.27889,-0.2995 0.35045,-0.41994 0.11561,-0.19457 0.22633,-0.49578 0.22977,-0.62504 10e-4,-0.0486 0.008,-0.0883 0.0158,-0.0883 0.0175,-1.5e-4 0.0211,-0.0495 0.0226,-0.31231 10e-4,-0.24395 -0.0208,-0.43691 -0.0505,-0.43691 -0.0108,0 -0.0136,-0.0187 -0.006,-0.0416 0.008,-0.0248 0.004,-0.0416 -0.0102,-0.0416 -0.0129,0 -0.0182,-0.009 -0.0118,-0.0191 0.007,-0.0105 0.001,-0.0456 -0.0123,-0.078 -0.0133,-0.0324 -0.0268,-0.072 -0.03,-0.0879 -0.0133,-0.0665 -0.14163,-0.30021 -0.22759,-0.41456 -0.14631,-0.19463 -0.47543,-0.41897 -0.61577,-0.41965 l -0.0761,-0.0307 c -0.0311,-0.008 -0.0926,-0.0373 -0.13664,-0.0661 l -0.0802,-0.0524 -0.0165,0.001 c 0,-0.026 -0.16004,-0.0786 -0.34625,-0.11372 -0.10035,-0.019 -0.20904,-0.0286 -0.32144,-0.0296 z m 1.04222,3.48424 c -0.0579,0.0387 -0.11238,0.071 -0.18958,0.11053 -0.0382,0.0195 -0.0821,0.0409 -0.13491,0.0657 0.0524,-0.0246 0.0964,-0.046 0.13491,-0.0657 0.077,-0.0395 0.1323,-0.0723 0.18958,-0.11053 z m -0.40456,0.24326 c -0.002,5.8e-4 -0.003,0.001 -0.005,0.002 0.002,-5.3e-4 0.004,-10e-4 0.005,-0.002 z m -0.31317,0.0699 c -0.0172,0.004 -0.0313,0.007 -0.0489,0.0109 -0.0349,0.007 -0.0665,0.0128 -0.0963,0.0175 0.0473,-0.009 0.0942,-0.0176 0.1452,-0.0284 z"/><path id="path1128-3" style="fill:#e21c1b;fill-opacity:1;stroke-width:.020808" d="m 104.80473,100.64916 c -0.33719,-0.003 -0.70794,0.0718 -0.98885,0.20772 -0.33301,0.16119 -0.75773,0.52682 -0.96273,0.8287 -0.2286,0.33663 -0.43948,0.91502 -0.43952,1.20542 -2e-5,0.12672 0.002,0.13073 0.0676,0.15956 0.0469,0.0205 0.1424,0.0287 0.31491,0.0274 0.006,0.0216 0.05,0.005 0.0696,0.0123 0.0665,8.2e-4 0.13265,0.01 0.19888,0.0139 0.006,-9e-4 0.008,-0.006 0.0112,-0.01 0.005,0.003 0.009,0.005 0.0244,0.01 0.0396,0.0127 0.0734,0.0181 0.087,0.0167 3.7e-4,2.9e-4 7.9e-4,4.2e-4 0.001,7.4e-4 0.0176,0.0231 0.0528,0.0252 0.0779,0.0376 0.0233,0.004 0.0463,0.0252 0.0701,0.0196 8.7e-4,-6.8e-4 0.002,-9.2e-4 0.003,-10e-4 0.003,0.003 0.004,0.006 0.0109,0.0101 0.0234,0.0151 0.0353,0.0212 0.0382,0.0186 l 0.22367,0.14433 c 0.004,5.3e-4 0.008,0.002 0.0123,0.004 0.008,0.008 0.0167,0.0174 0.0365,0.0345 0.0508,0.0438 0.11552,0.10531 0.1439,0.13679 0.0219,0.0243 0.0434,0.0418 0.0551,0.0458 -0.002,0.006 -0.004,0.013 0.004,0.018 0.0127,0.0144 0.0328,0.0167 0.0439,0.0335 0.004,0.004 0.008,0.009 0.0125,0.0129 l 0.0313,0.0406 c 0.0353,0.0458 0.10188,0.12997 0.14781,0.18698 0.0459,0.057 0.0836,0.11048 0.0836,0.1188 0,0.008 0.0557,0.0817 0.12388,0.16304 0.0681,0.0814 0.12906,0.16445 0.13548,0.18466 0.009,0.0275 0.0579,0.0485 0.0705,0.0351 9e-4,0.002 0.003,0.006 0.003,0.008 0,0.0158 0.0136,0.0208 0.0345,0.0128 0.002,-8.5e-4 0.005,-4.8e-4 0.008,-8.8e-4 -0.0101,0.006 -0.006,0.0247 0.0228,0.0538 0.0234,0.0234 0.0768,0.0556 0.1188,0.0717 0.0424,0.0162 0.11802,0.0254 0.17,0.0206 0.15345,-0.0142 0.40031,-0.0738 0.48449,-0.11692 0.0433,-0.0221 0.0901,-0.0401 0.10401,-0.04 0.0139,9e-5 0.11437,-0.0445 0.22309,-0.0989 0.17531,-0.0878 0.22591,-0.12723 0.44735,-0.34915 0.17724,-0.17762 0.2789,-0.2995 0.35046,-0.41994 0.11561,-0.19457 0.22633,-0.49579 0.22977,-0.62504 0.001,-0.0486 0.008,-0.0883 0.0158,-0.0883 0.0175,-1.7e-4 0.0211,-0.0495 0.0226,-0.31231 0.001,-0.24395 -0.0208,-0.43691 -0.0505,-0.43691 -0.0108,0 -0.0136,-0.0187 -0.006,-0.0416 0.008,-0.0248 0.004,-0.0416 -0.0103,-0.0416 -0.0129,0 -0.0181,-0.009 -0.0116,-0.0191 0.007,-0.0105 10e-4,-0.0456 -0.0123,-0.078 -0.0133,-0.0324 -0.0268,-0.072 -0.03,-0.0879 -0.0133,-0.0666 -0.14164,-0.30021 -0.2276,-0.41457 -0.14631,-0.19463 -0.47543,-0.41897 -0.61577,-0.41965 l -0.3094,-0.1481 c -1.5e-4,5e-5 -2.9e-4,9e-5 -4.5e-4,1.5e-4 4e-5,-5e-5 7e-5,-1e-4 1.5e-4,-1.5e-4 0,-0.026 -0.15989,-0.0786 -0.3461,-0.11373 -0.10036,-0.0189 -0.20905,-0.0286 -0.32145,-0.0296 z m -0.78229,3.08186 c 10e-4,0.007 0.0251,0.0385 0.0554,0.0738 -0.0153,-0.019 -0.0378,-0.0453 -0.0615,-0.0721 0.002,-3.2e-4 0.005,-8e-4 0.006,-0.002 z m 1.10678,0.71556 c -0.0172,0.004 -0.0313,0.007 -0.0489,0.0109 -0.0349,0.007 -0.0665,0.0128 -0.0963,0.0175 0.0473,-0.009 0.0942,-0.0176 0.1452,-0.0284 z"/><path id="path1124-0" style="fill:#000;stroke-width:.020808" d="m 105.48875,100.79114 -0.0548,0.0486 c -0.0302,0.0267 -0.0923,0.0814 -0.13798,0.12144 -0.11287,0.0989 -0.69419,0.67944 -0.77101,0.76998 -0.19048,0.22448 -0.35287,0.43265 -0.50643,0.65009 -0.095,0.13455 -0.18057,0.24002 -0.19017,0.23409 -0.0471,-0.0291 -0.22846,-0.0477 -0.30283,-0.031 -0.1,0.0225 -0.19651,0.12263 -0.19585,0.20309 6.6e-4,0.0813 0.0668,0.21302 0.14263,0.28422 0.0721,0.0677 0.0775,0.0901 0.0372,0.14521 -0.0261,0.0357 -0.0321,0.0353 -0.13126,-0.015 -0.16805,-0.0852 -0.33356,-0.11851 -0.59325,-0.11886 -0.12995,-1.7e-4 -0.24963,-0.009 -0.26613,-0.0191 -0.0207,-0.0131 -0.0484,-0.005 -0.0884,0.0264 -0.14107,0.11003 -0.17753,0.13455 -0.2496,0.16846 -0.0886,0.0417 -0.22531,0.20628 -0.22531,0.2713 0,0.0432 0.035,0.0946 0.0646,0.0946 0.008,0 0.0242,-0.0282 0.0362,-0.0625 0.0141,-0.0404 0.0364,-0.0625 0.0625,-0.0625 0.0222,0 0.0831,-0.042 0.1354,-0.0935 0.11679,-0.11514 0.13959,-0.11814 0.11575,-0.0155 -0.0413,0.17802 -0.005,0.59411 0.0672,0.77876 0.026,0.0663 0.009,0.13488 -0.0341,0.13488 -0.0248,0 -0.026,-0.006 -0.005,-0.0315 0.021,-0.026 0.0206,-0.0286 -0.004,-0.014 -0.022,0.0133 -0.0263,0.009 -0.0165,-0.016 0.007,-0.0187 0.004,-0.0397 -0.007,-0.0465 -0.011,-0.007 -0.0254,0.002 -0.032,0.0191 -0.016,0.0416 0.0311,0.1827 0.0558,0.16744 0.0105,-0.007 0.0191,0.005 0.0191,0.0263 0,0.0209 0.0236,0.0726 0.0522,0.11472 0.0756,0.11122 0.0688,0.12654 -0.047,0.11162 -0.33085,-0.0426 -0.39578,-0.0398 -0.51625,0.0191 -0.0796,0.0389 -0.11357,0.0669 -0.10904,0.0904 0.0107,0.0554 0.0763,0.0522 0.16692,-0.008 0.0937,-0.062 0.12976,-0.0653 0.43563,-0.0408 l 0.20154,0.016 0.0129,0.0703 c 0.0171,0.0912 0.11482,0.20105 0.22686,0.25528 0.0952,0.0461 0.18991,0.0561 0.21084,0.0222 0.0255,-0.0413 0.0499,-0.0189 0.10697,0.0987 0.051,0.10509 0.0583,0.14246 0.0568,0.30695 -9.3e-4,0.103 -0.009,0.22386 -0.0176,0.2682 -0.0126,0.064 -0.0103,0.0783 0.0124,0.0708 0.0613,-0.0202 0.0829,-0.10646 0.076,-0.30747 -0.006,-0.17026 -0.0161,-0.21751 -0.0729,-0.33848 -0.0362,-0.0772 -0.0612,-0.14005 -0.0553,-0.14005 0.006,0 0.03,0.01 0.0532,0.0222 0.0232,0.0124 0.0641,0.0172 0.0915,0.0103 0.0659,-0.0165 0.19539,-0.1316 0.21963,-0.19534 0.0177,-0.0466 0.0224,-0.0482 0.0553,-0.0186 0.0606,0.0546 0.14037,0.0622 0.26716,0.0253 0.12566,-0.0365 0.25444,-0.11473 0.33952,-0.20619 0.0551,-0.0592 0.0959,-0.0716 0.0775,-0.0238 -0.007,0.0194 -0.002,0.0261 0.0165,0.0191 0.0154,-0.006 0.0338,-0.002 0.0408,0.01 0.008,0.013 0.0364,0.0139 0.076,0.003 0.0943,-0.027 0.0975,0.0179 0.0119,0.17105 -0.15762,0.28184 -0.2017,0.56312 -0.11007,0.70228 0.0268,0.0407 0.0644,0.0998 0.0837,0.13126 0.0193,0.0315 0.0481,0.0574 0.0646,0.0574 0.0165,0 0.0408,0.0197 0.0537,0.0439 0.0207,0.0387 0.0354,0.0421 0.12299,0.0305 0.0785,-0.0104 0.10258,-0.006 0.11213,0.0186 0.007,0.0174 0.0179,0.0315 0.0248,0.0315 0.0201,0 0.0718,-0.0572 0.0718,-0.0796 0,-0.0336 -0.12797,-0.13149 -0.23926,-0.18293 -0.0572,-0.0265 -0.13158,-0.0712 -0.16485,-0.0992 l -0.0605,-0.0507 0.0527,-0.0486 c 0.0732,-0.0678 0.13848,-0.23865 0.16175,-0.4222 0.0372,-0.2937 -0.05,-0.56014 -0.27027,-0.8232 -0.0527,-0.063 -0.12102,-0.15163 -0.15192,-0.19741 -0.14947,-0.22138 -0.30625,-0.3953 -0.50488,-0.56069 -0.068,-0.0566 -0.1259,-0.10444 -0.12919,-0.10645 -0.0102,-0.006 0.0428,-0.11337 0.0558,-0.11266 0.007,3.8e-4 0.0642,0.0187 0.12712,0.0408 0.13708,0.0482 0.24057,0.0522 0.33538,0.0124 0.0737,-0.031 0.14314,-0.12532 0.14314,-0.19482 0,-0.079 -0.0646,-0.19466 -0.15968,-0.28577 l -0.0961,-0.092 0.19999,-0.23668 c 0.30742,-0.36434 0.72327,-0.77812 1.03715,-1.03198 0.0725,-0.0586 0.14561,-0.11905 0.16278,-0.13384 0.0782,-0.0674 0.22796,-0.18077 0.32711,-0.24805 0.10762,-0.073 0.10824,-0.0737 0.0522,-0.0873 -0.0311,-0.008 -0.0929,-0.0373 -0.13694,-0.0661 z m -1.61747,0.416 c -0.0315,7.9e-4 -0.0618,0.004 -0.0873,0.0103 -0.10566,0.0251 -0.20515,0.12099 -0.20515,0.1974 0,0.0716 0.0842,0.16541 0.16433,0.18293 0.0297,0.006 0.0635,0.0148 0.0749,0.0186 0.0665,0.0222 0.24762,-0.0331 0.31471,-0.0961 0.0739,-0.0694 0.0701,-0.21165 -0.007,-0.26199 -0.0512,-0.0336 -0.1602,-0.0536 -0.25477,-0.0512 z m 2.39107,0.37 c -0.0476,0.004 -0.10355,0.0582 -0.10335,0.10697 4e-4,0.1267 0.10804,0.32389 0.19637,0.35967 0.0562,0.0228 0.0508,0.023 0.0956,-0.001 0.0559,-0.0299 0.0705,-0.14006 0.0315,-0.23306 -0.0408,-0.0973 -0.14398,-0.21622 -0.2005,-0.231 -0.006,-0.002 -0.0128,-0.002 -0.0196,-0.002 z m -1.25367,0.26407 c -0.14105,0.0136 -0.20042,0.13267 -0.17105,0.34623 0.0171,0.12465 0.12261,0.25835 0.24805,0.31419 0.10579,0.0471 0.14436,0.049 0.22014,0.01 0.093,-0.0481 0.12468,-0.10973 0.12402,-0.23874 -0.001,-0.22069 -0.15749,-0.4108 -0.35553,-0.43099 -0.0235,-0.002 -0.0455,-0.002 -0.0656,-5.3e-4 z m 0.52297,1.43867 c -0.0614,0.006 -0.1206,0.0399 -0.15245,0.10697 -0.0378,0.0797 -0.0305,0.12379 0.0331,0.20464 0.0938,0.11928 0.33073,0.0267 0.33073,-0.12919 0,-0.12292 -0.10902,-0.19183 -0.21136,-0.18242 z m -3.11764,0.24029 c 0.0117,0 0.0319,0.0236 0.045,0.0522 0.013,0.0285 0.0549,0.0705 0.093,0.093 0.0685,0.0404 0.0691,0.0425 0.0656,0.1819 -0.002,0.0777 0.004,0.17312 0.0129,0.21187 0.0158,0.0683 0.0149,0.0702 -0.0382,0.0568 -0.0391,-0.01 -0.0585,-0.005 -0.0672,0.0176 -0.0322,0.0839 -0.0739,-0.007 -0.11059,-0.23875 -0.0276,-0.17467 -0.0279,-0.37465 -5.3e-4,-0.37465 z m 0.2005,0.64544 c 0.072,0 0.78916,0.40313 0.82011,0.46096 0.0248,0.0463 0.0171,0.0691 -0.0134,0.0403 -0.0107,-0.0101 -0.10832,-0.0682 -0.21704,-0.12867 -0.45953,-0.25569 -0.53288,-0.29615 -0.57723,-0.31833 -0.0551,-0.0275 -0.0613,-0.0543 -0.0124,-0.0543 z m 2.90939,0.19327 c -0.0157,7e-5 -0.0361,0.005 -0.0677,0.0134 -0.0483,0.013 -0.0878,0.0278 -0.0878,0.0331 0,0.005 0.0381,0.0442 0.0847,0.0863 0.0466,0.0421 0.10228,0.11138 0.12402,0.154 0.0217,0.0426 0.0631,0.0961 0.092,0.11885 0.0361,0.0284 0.0527,0.0616 0.0527,0.10594 0,0.0712 0.005,0.0749 0.0641,0.0434 0.0743,-0.0398 0.0255,-0.24216 -0.0915,-0.37982 -0.0312,-0.0368 -0.078,-0.0935 -0.10387,-0.12609 -0.0281,-0.0355 -0.0405,-0.0492 -0.0667,-0.0491 z m -1.74512,0.006 c 0.0255,0.001 0.0469,0.0183 0.094,0.061 0.0479,0.0432 0.10214,0.0729 0.13384,0.0729 0.0748,0 0.13385,0.0359 0.13385,0.0816 0,0.0569 -0.12522,0.15772 -0.2589,0.20774 -0.1621,0.0606 -0.23048,0.0568 -0.30438,-0.0171 -0.0335,-0.0335 -0.061,-0.0746 -0.061,-0.091 0,-0.0164 -0.0233,-0.0546 -0.0517,-0.0853 l -0.0517,-0.0558 0.0532,-0.0202 c 0.0292,-0.0111 0.083,-0.0422 0.11938,-0.0692 0.0364,-0.027 0.0977,-0.0599 0.13642,-0.0729 0.0248,-0.008 0.0415,-0.0128 0.0568,-0.0119 z m -1.18701,0.10077 c 0.0356,0.003 0.0915,0.0715 0.11008,0.14211 0.024,0.0914 0.003,0.1 -0.0853,0.0341 -0.0571,-0.0426 -0.0806,-0.14726 -0.0388,-0.17311 0.004,-0.003 0.009,-0.003 0.0139,-0.003 z m 0.49506,0.31419 c 0.0446,0.005 0.0775,0.0386 0.0718,0.0884 -0.009,0.0764 -0.0773,0.0851 -0.15348,0.0196 l -0.0584,-0.0501 0.0532,-0.0346 c 0.0293,-0.0192 0.06,-0.0264 0.0868,-0.0233 z"/><path style="opacity:.25;fill:#000;fill-opacity:1;stroke-width:.020808" id="path1126-0-3" d="m 104.69891,104.51017 c -0.042,-0.0161 -0.0955,-0.0483 -0.11888,-0.0717 -0.0634,-0.0634 -0.01,-0.0797 0.0565,-0.0173 0.0833,0.0782 0.19421,0.0873 0.44377,0.0362 0.11835,-0.0242 0.23392,-0.0525 0.25681,-0.0628 0.29496,-0.13323 0.39497,-0.18446 0.50979,-0.26117 0.23533,-0.1572 0.43899,-0.3755 0.42148,-0.45174 -0.01,-0.0415 0.0265,-0.0498 0.0451,-0.0104 0.007,0.0143 0.007,-0.002 -4.5e-4,-0.0364 -0.0642,-0.87212 -0.31731,-1.68829 -0.81169,-2.41296 -0.26191,-0.10873 -0.79444,0.0883 0.28058,-0.28141 0.14033,6.6e-4 0.46955,0.225 0.61586,0.41963 0.086,0.11435 0.21428,0.34814 0.22761,0.41469 0.003,0.0159 0.0167,0.0555 0.0299,0.0879 0.0133,0.0324 0.0189,0.0675 0.0124,0.078 -0.007,0.0105 -10e-4,0.0191 0.0117,0.0191 0.014,0 0.0181,0.0168 0.0102,0.0416 -0.007,0.0229 -0.004,0.0416 0.006,0.0416 0.0297,0 0.052,0.19302 0.0505,0.43697 -0.002,0.26276 -0.005,0.31208 -0.0227,0.31225 -0.007,6e-5 -0.0144,0.0399 -0.0157,0.0884 -0.003,0.12926 -0.11416,0.43046 -0.22977,0.62503 -0.0716,0.12044 -0.17327,0.24229 -0.35051,0.41991 -0.22145,0.22192 -0.27206,0.26143 -0.44737,0.34921 -0.10873,0.0544 -0.2091,0.0989 -0.22305,0.0988 -0.014,-8e-5 -0.0608,0.018 -0.10404,0.0401 -0.0842,0.0431 -0.33098,0.10262 -0.48443,0.11683 -0.052,0.005 -0.1276,-0.004 -0.17,-0.0205 z m 1.75189,-2.46733 c 0.0559,-0.0299 0.071,-0.14005 0.032,-0.23306 -0.0408,-0.0973 -0.14401,-0.21612 -0.20053,-0.2309 -0.05,-0.0131 -0.12334,0.0496 -0.12316,0.10528 3.7e-4,0.1267 0.10818,0.32405 0.19651,0.35983 0.0562,0.0228 0.0503,0.0229 0.0952,-0.001 z m -2.0091,2.28708 c -0.006,-0.0202 -0.0674,-0.1033 -0.13556,-0.18466 -0.0681,-0.0814 -0.12389,-0.15473 -0.12389,-0.16305 0,-0.008 -0.0376,-0.0618 -0.0835,-0.11879 -0.0459,-0.057 -0.11242,-0.14111 -0.14776,-0.18689 l -0.0643,-0.0832 0.0697,0.0736 c 0.0383,0.0405 0.0931,0.10268 0.12175,0.13819 0.0286,0.0355 0.059,0.0656 0.0676,0.0668 0.009,10e-4 0.014,0.005 0.0121,0.007 -0.0127,0.0187 0.13781,0.22584 0.26885,0.37 0.0486,0.0535 0.0884,0.10178 0.0884,0.10727 0,0.028 -0.0634,0.005 -0.0735,-0.0268 z m -0.63708,-0.80423 c -0.0284,-0.0315 -0.0931,-0.093 -0.1439,-0.13679 -0.0508,-0.0438 -0.0641,-0.0611 -0.0296,-0.0385 0.0907,0.0593 0.2495,0.20806 0.23631,0.22125 -0.006,0.006 -0.0345,-0.0145 -0.0628,-0.046 z m -0.45469,-0.33815 c -0.0187,-0.0121 -0.0213,-0.0203 -0.006,-0.0205 0.0136,-1.6e-4 0.0306,0.009 0.0376,0.0205 0.016,0.0258 0.009,0.0258 -0.0312,0 z m -0.2497,-0.0832 c -0.0418,-0.0134 -0.0439,-0.0168 -0.0104,-0.0173 0.0229,-3.5e-4 0.0603,0.007 0.0832,0.0173 0.053,0.0228 -0.002,0.0228 -0.0728,0 z m -0.61904,-0.0538 c -0.0659,-0.0288 -0.0676,-0.0328 -0.0676,-0.15956 5e-5,-0.2904 0.21092,-0.86876 0.43952,-1.20539 0.20501,-0.30188 0.62975,-0.66745 0.96276,-0.82864 0.37455,-0.18129 0.90891,-0.25394 1.31031,-0.17815 0.18621,0.0352 0.34618,0.0877 0.34618,0.11365 0,0.008 -0.0585,0.065 -0.13005,0.12729 -0.11763,0.10237 -0.62806,0.58933 -0.69768,0.66559 -0.0157,0.0172 -0.0226,0.0195 -0.0153,0.005 0.007,-0.0143 0.008,-0.0347 0.001,-0.0453 -0.79811,0.22379 -1.41386,0.79024 -1.76514,1.43312 -0.009,6.1e-4 -0.007,-0.017 0.005,-0.0391 0.67953,-1.48476 0.26039,-0.77693 -0.28537,-0.61693 -0.009,0.009 -0.0157,0.0219 -0.0159,0.0295 -1.5e-4,0.008 -0.007,0.0245 -0.0153,0.0374 -0.008,0.0129 -0.0212,0.10422 -0.0288,0.20287 -0.01,0.13007 -0.0215,0.17937 -0.0419,0.17937 -0.0182,0 -0.0281,0.0254 -0.0281,0.0722 0,0.0557 0.007,0.0694 0.0313,0.0602 0.0224,-0.009 0.035,0.006 0.0442,0.0527 l 0.0129,0.0647 h 0.15345 c 0.0844,0 0.15346,0.009 0.15346,0.0197 0,0.0108 0.0445,0.0232 0.0988,0.0275 0.0544,0.004 -0.0135,0.009 -0.15085,0.01 -0.17417,0.001 -0.27016,-0.007 -0.31733,-0.0275 z m 1.70106,-1.66603 c 0,-0.0742 -0.01,-0.0958 -0.056,-0.12622 -0.0683,-0.0447 -0.23964,-0.0652 -0.34197,-0.0409 -0.10566,0.0251 -0.20546,0.12104 -0.20546,0.19745 0.18779,0.33931 0.45319,0.18336 0.60343,-0.0303 z m 0.47858,0.44011 c 0.11101,-0.10266 0.0128,0.009 -0.0385,0.052 -0.006,0 0.0116,-0.0234 0.0385,-0.052 z"/></g></svg>