<svg xmlns="http://www.w3.org/2000/svg" xmlns:svg="http://www.w3.org/2000/svg" id="svg12459" width="34" height="34" version="1.1" viewBox="0 0 8.996 8.996"><g id="layer1" transform="translate(-135.22464,-229.80606)"><g id="use1308-92" transform="matrix(0.26458333,0,0,0.26458333,135.55782,230.03288)" style="fill:#fff"><path id="path1312-2" fill="#cc0" fill-rule="evenodd" stroke="none" d="M 0,32 V 0 H 32 V 32 H 0" style="fill:#fff;fill-opacity:1"/></g><path d="m 142.69917,230.14962 0.03,0.0734 c 0.0166,0.0403 0.30138,0.80641 0.63303,1.70222 l 0.60307,1.62832 0.005,-0.21807 c 0.004,-0.20087 -0.0189,-0.33436 -0.29249,-1.69551 l -0.29662,-1.47794 -0.34106,-0.006 z m -0.63252,0.001 c -0.13461,0 -0.23977,0.009 -0.23564,0.0201 0.004,0.0111 0.48531,0.832 1.0697,1.82418 0.58439,0.99218 1.06688,1.79961 1.07229,1.79421 0.005,-0.005 -0.36624,-0.82633 -0.82631,-1.82418 l -0.83664,-1.81436 z m -2.92747,0.006 c -1.29306,-0.003 -2.05754,0.003 -2.03657,0.016 0.0185,0.0115 1.57029,0.89698 3.44837,1.96784 1.87808,1.07086 3.41687,1.94823 3.41995,1.94923 0.003,0.001 0.006,-0.0318 0.006,-0.0729 0,-0.0635 -0.20824,-0.35878 -1.38389,-1.96474 l -1.38338,-1.89032 z m -3.56515,2.87321 c -0.037,-0.008 -0.0388,0.0619 -0.0388,1.24282 v 1.25212 l 0.0951,-0.0155 c 0.0523,-0.008 1.94818,-0.29297 4.21318,-0.63252 2.26501,-0.33954 4.1217,-0.62775 4.12585,-0.64027 0.008,-0.025 0.0108,-0.0247 -4.99711,-0.72708 -1.84729,-0.25909 -3.37669,-0.4747 -3.39824,-0.47956 z m 8.38088,1.35806 c -0.005,3.7e-4 -0.011,0.002 -0.0176,0.004 -0.0215,0.008 -1.9207,0.89318 -4.22041,1.96732 l -4.18114,1.95285 -5.2e-4,0.14005 v 0.14004 h 2.02571 2.02624 l 2.1947,-2.07326 c 1.20711,-1.14027 2.19469,-2.08868 2.19469,-2.10736 0,-0.0171 -0.007,-0.0249 -0.0217,-0.0238 z m 0.0165,0.30282 c -0.004,-0.0135 -0.48572,0.75559 -1.06919,1.70894 -0.58346,0.95335 -1.12461,1.83644 -1.20251,1.96267 l -0.14159,0.22996 0.33021,-5.3e-4 0.33073,-5.1e-4 0.88005,-1.93787 c 0.48413,-1.0658 0.8768,-1.94917 0.8723,-1.96267 z m 0.005,0.40824 c -0.003,-0.0321 -1.05213,3.43324 -1.05213,3.47369 0,0.0108 0.0526,0.0193 0.11731,0.0191 h 0.1173 l 0.41031,-1.72961 c 0.22551,-0.95122 0.40867,-1.74472 0.40721,-1.7632 z" style="fill:#8080ff;fill-opacity:1;stroke-width:.0111957;stroke-dashoffset:14.7" id="path6402"/><g id="g27401-8-7" transform="matrix(0.26458333,0,0,0.26458333,146.36954,252.66687)"><path id="path9202" style="fill:#fff;fill-opacity:1;stroke-width:.0299209;stroke-dashoffset:14.7" d="m -28.94231,-80.964847 a 3.7304904,4.8471837 0 0 0 -3.568359,4.980468 3.7304904,4.8471837 0 0 0 3.78125,4.708985 3.7304904,4.8471837 0 0 0 3.677735,-4.847656 l -0.0059,-0.277344 a 3.7304904,4.8471837 0 0 0 -3.884766,-4.564453 z m 9.572266,0.298828 c -0.05744,1.06e-4 -0.115027,0.0028 -0.173828,0.0078 -0.987423,-0.03286 -1.825689,0.589028 -2.587891,1.138672 -0.952546,0.770985 -1.893334,1.797281 -1.996093,3.076172 -0.03366,0.933898 0.670043,1.655396 1.177734,2.363281 0.282401,0.322372 0.687391,0.695275 1.148438,0.638672 0.425202,-0.09481 0.798113,-0.540723 1.236328,-0.273437 0.494955,0.143635 1.004171,0.237009 1.511718,0.314453 0.972954,-0.530635 2.141441,-1.020154 2.582032,-2.126953 0.193415,-0.615495 0.247719,-1.289343 0.160156,-1.927735 -0.23887,-0.703241 -0.566321,-1.387667 -0.972656,-2.009765 -0.516413,-0.661909 -1.224369,-1.202763 -2.085938,-1.201172 z m 3.44336,5.345703 c -0.400272,0.662829 -0.851603,1.345727 -1.566407,1.695312 -0.483635,0.258857 -0.963932,0.573425 -1.466797,0.763672 -0.424,-0.0028 -0.848302,-0.111229 -1.265625,-0.105468 -0.249951,0.296421 -0.145335,0.760258 -0.125,1.11914 0.08516,0.471182 0.101254,0.981645 0.300782,1.417969 0.679209,0.161988 1.424233,-0.03777 2.082031,0.265625 0.7657,0.281605 1.324445,0.934627 1.660156,1.658203 0.188448,0.317863 0.626753,0.113219 0.917969,0.128906 1.27199,-0.09885 2.445491,-1.086266 2.660156,-2.357421 0.07754,-0.775621 0.08044,-1.572082 0.03906,-2.341797 -0.354217,-0.81832 -0.745354,-1.831517 -1.697266,-2.095704 -0.496542,-0.147453 -1.030864,-0.147816 -1.539062,-0.148437 z m -11.13086,3.914063 c -0.276698,0.003 -0.553957,0.01792 -0.826172,0.0078 -1.17864,0.673834 -2.452775,1.205591 -3.533203,2.037109 -0.29195,0.269062 -0.544074,0.644347 -0.630859,1.013672 0.297477,0.987822 0.522069,2.003769 0.859375,2.976563 0.246819,0.450703 0.824624,0.521865 1.263672,0.339844 0.417191,-0.188069 0.721281,0.280152 1.083984,0.433593 0.705109,0.52097 1.655537,0.461459 2.419922,0.111328 1.097511,-0.411379 2.055166,-1.377408 2.138672,-2.591796 0.03834,-0.82782 -0.105889,-1.663227 -0.308594,-2.462891 -0.429242,-0.683978 -0.833921,-1.510413 -1.644531,-1.802734 -0.268626,-0.05607 -0.545567,-0.06546 -0.822266,-0.0625 z m 7.783203,1.492187 c -1.099718,0.09641 -2.216723,0.05121 -3.30664,0.228516 -0.5011,0.196959 -1.053443,0.463132 -1.328125,0.947265 -0.101556,0.567488 0.226317,1.119386 0.144531,1.695313 0.0033,0.499215 -0.233107,0.946037 -0.390625,1.402344 0.04047,0.415095 0.578009,0.501353 0.896484,0.623046 0.496801,0.0902 0.5935,0.643438 0.923828,0.949219 0.469492,0.632355 1.225495,1.050735 2.025391,0.986328 0.913054,0.05903 1.889465,-0.151712 2.550781,-0.824218 0.808976,-0.757219 0.952099,-1.913529 1.269532,-2.917969 -0.153415,-0.819202 -0.08901,-1.834966 -0.824219,-2.400391 -0.531429,-0.475405 -1.252904,-0.707715 -1.960938,-0.689453 z m -6.111328,5.546875 c -0.855164,0.358736 -1.751577,0.749624 -2.703125,0.607422 -0.472634,-0.127605 -0.694586,0.398687 -0.925781,0.701172 -0.318373,0.478354 -0.720916,1.200799 -0.261719,1.720703 0.220994,0.273465 0.612603,0.504374 0.521484,0.917968 0.08306,0.682545 0.04806,1.479669 0.603516,1.982422 0.772833,0.84708 1.918804,1.4599 3.09375,1.25 1.028681,-0.117036 1.789786,-0.926674 2.515625,-1.58789 0.468877,-0.48417 0.682013,-1.154475 0.886719,-1.78125 0.165392,-0.782994 -0.219531,-1.584252 -0.767578,-2.126953 -0.887215,-0.701362 -1.937769,-1.161988 -2.935547,-1.681641 -0.009,-0.0035 -0.01794,-0.0046 -0.02734,-0.002 z"/><path style="color:#000;fill:#000;fill-opacity:1;stroke-linecap:round;stroke-linejoin:round;-inkscape-stroke:none" id="path424-4-7" d="m -41.122457,-86.403063 a 1.0001,1.0001 0 0 0 -1,1 v 32 a 1.0001,1.0001 0 0 0 1,1 h 32.0000002 a 1.0001,1.0001 0 0 0 1,-1 v -32 a 1.0001,1.0001 0 0 0 -1,-1 z m 1,2 h 30 v 30 h -30 z"/><path style="fill:#000;fill-opacity:1;stroke-width:.0299209;stroke-dashoffset:14.7" id="path9129" d="m -30.40671,-82.060757 c -2.117883,0.0193 -4.117819,1.40526 -4.915275,3.36133 -0.339364,0.70936 -0.439741,1.4958 -0.397246,2.27478 -0.04871,0.84032 0.154012,1.66658 0.514309,2.42184 0.146162,0.21219 -0.268632,0.20929 -0.368634,0.32095 -0.855518,0.38455 -1.136538,1.36699 -1.57361,2.11598 -0.902527,1.65258 -0.97205,3.57873 -1.100335,5.41345 -0.06937,1.718127 -0.127636,3.449197 0.0554,5.160297 -0.279329,1.10231 -0.761394,2.15923 -1.146348,3.23353 -0.450719,1.15377 -0.861191,2.34638 -1.656174,3.31813 -0.264018,0.42112 -0.665256,0.83213 -0.845723,1.26084 1.734359,-0.0136 3.487489,0.027 5.210208,-0.0202 0.436062,-1.80402 0.861752,-3.6137 1.309974,-5.41287 0.528972,0.0639 1.063025,0.14316 1.585106,0.24124 0.171952,1.19726 0.08966,2.42764 -0.01478,3.61979 -0.267554,0.51109 -0.535023,1.02222 -0.802437,1.53338 0.552356,0.0902 1.198881,0.013 1.78754,0.0387 0.55288,-0.0185 1.1364,0.0365 1.670661,-0.0266 0.0772,-3.05026 0.227723,-6.10117 0.305487,-9.15004 -0.0697,-0.5577 -0.190998,-1.14833 -0.214089,-1.68845 0.490752,0.2672 1.021101,0.54789 1.449177,0.87787 -0.271117,0.17157 -0.335159,0.56676 -0.427659,0.85789 -0.02441,0.50506 -0.109348,1.14687 0.354676,1.48968 0.25217,0.17804 0.385127,0.45392 0.34005,0.76151 0.07841,0.8187 0.347302,1.66097 0.997557,2.20644 0.892675,0.84326 2.140896,1.43678 3.389131,1.1738 0.596382,-0.093 1.181019,-0.33024 1.58077,-0.79881 0.60469,-0.61546 1.281038,-1.18942 1.757741,-1.91288 0.458105,-0.95221 0.581851,-2.17164 -0.07632,-3.06584 -0.654758,-1.01639 -1.869792,-1.4019 -2.853906,-2.00521 -0.28093,-0.14074 -0.666132,-0.26691 -0.240802,-0.51294 0.08949,-0.0874 0.207358,-0.25604 0.287521,-0.0625 0.205278,0.36388 0.585673,0.55242 0.99148,0.59176 0.427306,0.12372 0.541717,0.64543 0.865134,0.91399 0.703872,0.784 1.809525,0.99933 2.818872,0.94681 1.344537,0.0626 2.637751,-0.84582 3.12887,-2.07881 0.231256,-0.8913 0.535473,-1.785717 0.569401,-2.712127 -0.0017,-0.17068 -0.06894,-0.5 0.221225,-0.41871 0.630135,-0.023 1.280231,-0.0778 1.822746,-0.43439 1.163867,-0.60188 1.909745,-1.91522 1.840368,-3.22246 -7.3e-4,-0.8112 0.08144,-1.66623 -0.309727,-2.41213 -0.4657,-1.16414 -1.669019,-1.98021 -2.929443,-1.93002 -0.438305,0.12564 -0.420345,-0.16191 -0.34444,-0.48867 0.157693,-0.97794 -0.339405,-1.88512 -0.743036,-2.73737 -0.346086,-0.8607 -1.09479,-1.5107 -1.915364,-1.90691 -1.015251,-0.4711 -2.205512,-0.14714 -3.073336,0.48558 -0.773115,0.49977 -1.598144,1.00743 -2.051551,1.8417 -0.511362,0.75154 -0.738212,1.63917 -1.001765,2.49314 -0.05881,0.10172 -0.05126,-0.21158 -0.06797,-0.25621 -0.0046,-1.3912 -0.45702,-2.79907 -1.416384,-3.82811 -0.975103,-1.1484 -2.436234,-1.84128 -3.942603,-1.86802 -0.141352,-0.007 -0.282985,-0.008 -0.424445,-0.004 z m 10.895878,1.38536 c 0.982879,-0.0828 1.864741,0.6042 2.378625,1.38273 0.312505,0.59267 0.615047,1.20768 0.851159,1.82675 0.006,0.84386 0.09042,1.77921 -0.478465,2.48156 -0.534735,0.80267 -1.495251,1.1302 -2.293155,1.59563 -0.613404,-0.10752 -1.24145,-0.19537 -1.822135,-0.41948 -0.451673,0.0145 -0.807905,0.58292 -1.277599,0.33299 -0.726387,-0.21524 -1.052903,-0.96956 -1.48178,-1.52208 -0.501173,-0.59911 -0.656165,-1.45248 -0.363848,-2.1804 0.624162,-1.57698 2.056089,-2.70628 3.570637,-3.37089 0.293842,-0.10796 0.606406,-0.12696 0.916561,-0.12681 z m -10.231423,1.35158 c 0.640422,0.81447 1.221252,1.70159 1.834991,2.54608 -0.186244,0.13651 -0.337045,0.43476 -0.552951,0.48855 -1.021032,-0.45842 -1.886125,-1.32245 -2.284507,-2.36982 0.244232,-0.31065 0.632252,-0.53789 1.002467,-0.66481 z m 4.580116,2.75635 c 5e-6,0.45085 -0.214877,0.92852 -0.667855,1.08469 -0.268563,0.23977 -0.650918,0.0744 -0.775828,-0.2309 -0.192961,-0.25857 0.220717,-0.30859 0.371444,-0.40412 0.351753,-0.14982 0.722106,-0.34221 1.072239,-0.44967 z m -5.955308,0.79489 c 0.209698,0.32999 0.28449,0.77452 0.555523,1.04933 0.324696,-0.17438 0.581571,-0.45218 0.896808,-0.6419 0.18655,0.32342 0.29309,0.72949 0.508773,1.00972 0.299399,-0.20825 0.563499,-0.5262 0.882899,-0.67988 0.253678,0.2121 0.358019,0.59624 0.608586,0.78413 0.169992,-0.18272 0.303731,-0.43289 0.492994,-0.58147 0.183469,0.24778 0.228709,0.6397 0.427308,0.82575 0.07287,-0.1384 0.124928,-0.46899 0.234574,-0.5256 0.05473,0.27975 0.225589,0.60808 0.09678,0.87916 -0.115413,0.12157 -0.289722,0.25215 -0.427892,0.28763 -0.190561,-0.24296 -0.24747,-0.61302 -0.446476,-0.81195 -0.195272,0.15044 -0.355531,0.88743 -0.583241,0.49763 -0.20919,-0.13606 -0.356914,-0.70843 -0.628749,-0.43885 -0.279528,0.19597 -0.548463,0.40582 -0.840746,0.58241 -0.19601,-0.31918 -0.337263,-0.70012 -0.559731,-0.98575 -0.391003,0.16376 -0.811254,0.46979 -1.19777,0.53834 -0.225946,-0.57627 -0.130367,-1.19689 -0.01964,-1.7887 z m 15.729152,0.42941 c 0.912256,-0.0292 1.902061,0.3887 2.252503,1.28652 0.215319,0.51284 0.583203,0.99675 0.479999,1.58051 -0.02902,0.86866 0.139168,1.81418 -0.361698,2.58537 -0.500362,0.96941 -1.567314,1.54626 -2.64278,1.53997 -0.388584,0.0771 -0.711892,0.0522 -0.771165,-0.39999 -0.487508,-1.04179 -1.663591,-1.6999 -2.805075,-1.62109 -0.274474,-0.0727 -0.793328,0.14577 -0.901119,-0.12305 -0.08086,-0.82316 -0.470321,-1.71229 -0.134548,-2.51511 0.458445,0.0408 0.939032,0.18962 1.39477,0.12371 0.714806,-0.42088 1.535898,-0.71373 2.144193,-1.29075 0.285386,-0.3364 0.547519,-0.72257 0.747789,-1.10228 0.190865,-0.0629 0.398518,-0.0587 0.597131,-0.0638 z m -8.185115,1.63828 c 0.373133,0.21441 0.720956,0.47982 1.115254,0.66224 -0.854115,-0.005 -1.744185,0.0142 -2.577988,-0.0138 0.482101,-0.22703 0.966235,-0.45551 1.462734,-0.64845 z m 2.704918,0.45115 c 0.08308,0.0243 0.425601,0.2154 0.153345,0.20197 -0.151976,-0.003 -0.687248,0.0676 -0.483117,-0.0509 0.106383,-0.0503 0.205976,-0.15566 0.329772,-0.15111 z m -6.06833,1.82787 c 0.631264,-0.0494 1.268678,0.21994 1.619819,0.7576 0.276843,0.40991 0.619939,0.80723 0.796253,1.26291 0.122092,0.96519 0.477778,1.96442 0.122061,2.9197 -0.242305,0.858637 -0.908892,1.546237 -1.72904,1.878207 -0.765056,0.41 -1.735537,0.59342 -2.520077,0.13269 -0.351257,-0.1732 -0.659899,-0.42399 -0.989259,-0.62705 -0.445123,0.12239 -0.989704,0.33365 -1.384308,-0.0358 -0.379322,-0.26009 -0.286687,-0.802147 -0.455508,-1.183367 -0.184048,-0.69313 -0.391972,-1.37951 -0.594178,-2.06749 0.220396,-0.56768 0.597392,-1.07661 1.146812,-1.36327 0.981566,-0.58716 2.008703,-1.09353 3.012542,-1.64086 0.324951,-0.0108 0.649694,-0.0316 0.974883,-0.0333 z m 4.253558,0.95197 c 0.630605,0.003 1.262979,-0.004 1.892379,0.0221 0.133334,0.19921 -0.221737,0.12143 -0.313584,0.15487 -0.817745,0.0644 -1.738917,-0.0798 -2.427449,0.47476 -0.218945,0.1416 -0.434384,0.292 -0.618521,0.47791 -0.02627,-0.40668 -0.193006,-0.78626 -0.403465,-1.12963 h 1.87064 z m 3.648595,0.55576 c 0.85482,0.0223 1.742069,0.46752 2.186446,1.21437 0.258749,0.58986 0.242461,1.25715 0.373543,1.88197 -0.340594,1.034527 -0.455715,2.253357 -1.35018,2.996057 -0.609784,0.59761 -1.478616,0.79776 -2.307881,0.75646 -0.742522,0.039 -1.544436,-0.15393 -2.026847,-0.75995 -0.266088,-0.29389 -0.521748,-0.61382 -0.674332,-0.97489 -0.383027,-0.36273 -1.065501,-0.18174 -1.326221,-0.70806 -0.07042,-0.23775 0.199349,-0.515357 0.237147,-0.780387 0.237842,-0.60092 0.207613,-1.25412 0.03567,-1.867 -0.09453,-0.30614 -0.148466,-0.61773 0.13334,-0.8343 0.368977,-0.35273 0.84678,-0.66449 1.347109,-0.75813 1.124051,-0.0538 2.247094,-0.13899 3.372209,-0.16614 z m -4.973996,6.239317 c 0.747099,0.41916 1.627649,0.74702 2.043736,1.55519 0.357326,0.57179 0.527735,1.31372 0.198653,1.94066 -0.253253,0.53119 -0.363922,1.17229 -0.883145,1.52053 -0.682922,0.66395 -1.429253,1.38997 -2.420851,1.5003 -1.217259,0.20717 -2.416013,-0.47749 -3.201302,-1.36713 -0.567657,-0.63918 -0.383643,-1.5383 -0.532849,-2.30414 -0.243516,-0.3335 -0.76801,-0.52822 -0.67205,-1.02713 -0.02804,-0.7254 0.521403,-1.31298 0.937598,-1.85182 0.350382,-0.18776 0.772666,0.0662 1.151253,-0.0228 0.707333,-0.0615 1.369035,-0.34876 1.987986,-0.6807 0.463657,0.24567 0.927314,0.49135 1.390971,0.73703 z"/></g></g></svg>