<?xml version="1.0" encoding="UTF-8" standalone="no"?>
<!-- Created with Inkscape (http://www.inkscape.org/) -->

<svg
   width="8.9958305mm"
   height="8.9958324mm"
   viewBox="0 0 8.9958305 8.9958324"
   version="1.1"
   id="svg25719"
   inkscape:version="1.2.2 (732a01da63, 2022-12-09)"
   sodipodi:docname="counter4b2b.svg"
   xmlns:inkscape="http://www.inkscape.org/namespaces/inkscape"
   xmlns:sodipodi="http://sodipodi.sourceforge.net/DTD/sodipodi-0.dtd"
   xmlns="http://www.w3.org/2000/svg"
   xmlns:svg="http://www.w3.org/2000/svg">
  <sodipodi:namedview
     id="namedview25721"
     pagecolor="#ffffff"
     bordercolor="#000000"
     borderopacity="0.25"
     inkscape:showpageshadow="2"
     inkscape:pageopacity="0.0"
     inkscape:pagecheckerboard="0"
     inkscape:deskcolor="#d1d1d1"
     inkscape:document-units="mm"
     showgrid="false"
     inkscape:zoom="5.9081369"
     inkscape:cx="17.941358"
     inkscape:cy="18.872278"
     inkscape:window-width="958"
     inkscape:window-height="1000"
     inkscape:window-x="946"
     inkscape:window-y="0"
     inkscape:window-maximized="0"
     inkscape:current-layer="layer1" />
  <defs
     id="defs25716" />
  <g
     inkscape:label="Calque 1"
     inkscape:groupmode="layer"
     id="layer1"
     transform="translate(-13.995188,-26.78836)">
    <path
       fill="#cccc00"
       fill-rule="evenodd"
       stroke="none"
       d="m 14.259623,35.51938 v -8.46667 h 8.466667 v 8.46667 h -8.466667"
       id="path1694-1-6-00"
       style="fill:#ffffff;fill-opacity:1;stroke-width:0.264583"
       inkscape:export-filename="victoire.png"
       inkscape:export-xdpi="90.352943"
       inkscape:export-ydpi="90.352943" />
    <path
       id="path1694-1-6-00-3"
       style="fill:#44aa00;fill-opacity:1;stroke-width:0.264583"
       d="m 18.781828,27.052712 a 3.0261718,5.9531249 39.345662 0 0 -2.788977,2.514058 3.0261718,5.9531249 39.345662 0 0 -1.733228,3.274736 v 2.421041 a 3.0261718,5.9531249 39.345662 0 0 0.144694,0.256831 h 3.804419 a 3.0261718,5.9531249 39.345662 0 0 2.678389,-2.380733 3.0261718,5.9531249 39.345662 0 0 1.839165,-3.419946 v -2.41639 a 3.0261718,5.9531249 39.345662 0 0 -0.141077,-0.249597 z" />
    <path
       style="color:#000000;fill:#000000;fill-opacity:1;stroke-width:0.264583;stroke-linecap:round;stroke-linejoin:round;-inkscape-stroke:none"
       d="m 14.259771,26.78836 a 0.26460979,0.26460979 0 0 0 -0.264583,0.264583 v 8.466667 a 0.26460979,0.26460979 0 0 0 0.264583,0.264583 h 8.466667 A 0.26460979,0.26460979 0 0 0 22.991021,35.51961 V 27.052943 A 0.26460979,0.26460979 0 0 0 22.726438,26.78836 Z m 0.264583,0.529167 h 7.937501 v 7.9375 h -7.937501 z"
       id="path424-0-2" />
    <path
       id="path8748"
       style="fill:#ffffff;stroke-width:0.0529167;stroke-linecap:round"
       d="m 20.018593,28.214113 c -0.290239,9.73e-4 -0.613728,0.0055 -0.868164,0.01188 -0.127218,0.0032 -0.236953,0.0067 -0.317294,0.01085 -0.04017,0.0021 -0.07284,0.0042 -0.09819,0.0067 -0.01267,0.0012 -0.02362,0.0022 -0.03462,0.0041 -0.0055,9.79e-4 -0.01057,0.0022 -0.0186,0.0047 -0.004,0.0012 -0.0087,0.0025 -0.0155,0.0057 -0.0034,0.0016 -0.0075,0.0036 -0.0124,0.0067 -0.0049,0.0031 -0.01742,0.01432 -0.01757,0.01447 -0.02623,0.02629 -0.03023,0.05578 -0.03049,0.07235 -2.57e-4,0.01656 0.0024,0.0264 0.0047,0.03462 0.0045,0.01645 0.0097,0.02717 0.0155,0.03876 0.01158,0.02317 0.02647,0.04761 0.04548,0.07648 0.03801,0.05774 0.09123,0.130346 0.152962,0.207739 0.05959,0.07471 0.114215,0.144816 0.152962,0.196887 0.0068,0.0091 0.0097,0.0138 0.0155,0.0217 -0.02279,0.02037 -0.04745,0.04215 -0.08268,0.07235 -0.08948,0.07669 -0.213705,0.18048 -0.350367,0.291972 -0.612727,0.499879 -0.770004,0.65062 -0.896586,0.866614 -0.261406,0.446057 -0.22022,0.959844 0.110071,1.352372 0.02609,0.031 0.05258,0.05883 0.07596,0.08113 0.01169,0.01115 0.02243,0.02082 0.03462,0.02997 0.0061,0.0046 0.01228,0.0094 0.0217,0.01447 0.0094,0.0051 0.01929,0.01401 0.05323,0.01395 9.4e-5,0 0.02519,-0.0031 0.02532,-0.0031 1.34e-4,-3.4e-5 0.0089,-0.003 0.01188,-0.0041 0.006,-0.0024 0.0092,-0.0042 0.01188,-0.0057 0.0055,-0.0029 0.0088,-0.0047 0.01188,-0.0067 0.0061,-0.004 0.01159,-0.0081 0.01809,-0.01292 0.01299,-0.0096 0.02949,-0.02245 0.05013,-0.03876 0.04128,-0.03261 0.09828,-0.07874 0.167949,-0.135909 0.139341,-0.114336 0.327848,-0.27187 0.532784,-0.444935 0.409235,-0.34559 0.851117,-0.717656 0.980302,-0.825789 l 0.16278,-0.136425 0.08113,0.08682 c 0.0773,0.08342 0.199997,0.225517 0.268201,0.309542 0.03693,0.0455 0.07204,0.08466 0.101286,0.114205 0.01462,0.01477 0.02718,0.02689 0.04186,0.03824 0.0073,0.0057 0.01399,0.01154 0.02946,0.0186 0.0077,0.0035 0.01791,0.0078 0.03721,0.0093 0.0048,3.7e-4 0.0104,5.02e-4 0.01654,0 0.0061,-5.03e-4 0.01998,-0.0036 0.02015,-0.0036 3.44e-4,-1.01e-4 0.04317,-0.0256 0.04341,-0.02584 5.3e-5,-5.3e-5 0.01544,-0.01953 0.0155,-0.01964 6.1e-5,-1.03e-4 0.004,-0.0079 0.0052,-0.01033 0.0022,-0.005 0.0033,-0.0074 0.0041,-0.0098 0.0016,-0.0048 0.0023,-0.0078 0.0031,-0.01085 0.0016,-0.0061 0.003,-0.01183 0.0047,-0.01912 0.0032,-0.01458 0.0076,-0.03407 0.0124,-0.05839 0.0096,-0.04865 0.02248,-0.117066 0.03772,-0.199471 0.03048,-0.164811 0.06983,-0.386121 0.110587,-0.617017 0.08151,-0.461792 0.166822,-0.958111 0.190169,-1.122929 l 0.02222,-0.154512 a 0.09964118,0.09964118 0 0 0 -0.08423,-0.112655 l -0.142626,-0.02067 c -0.05346,-0.0078 -0.139297,-0.0098 -0.267168,-0.01188 -0.12787,-0.0021 -0.289888,-0.0027 -0.464054,-0.0021 z m -0.58136,2.406054 a 0.09964118,0.09964118 0 0 0 -0.07493,0.01447 l -0.0894,0.05839 v -5.29e-4 c -0.02798,0.01822 -0.05764,0.04325 -0.114722,0.0894 -0.05709,0.04615 -0.133095,0.108317 -0.223242,0.182934 -0.180293,0.149235 -0.416006,0.347013 -0.664559,0.557072 -0.248143,0.209714 -0.47707,0.401191 -0.645438,0.541053 -0.08419,0.06993 -0.15341,0.126883 -0.202055,0.166398 -0.0078,0.0063 -0.01138,0.0091 -0.01809,0.01447 -0.0088,-0.0085 -0.01422,-0.01295 -0.0248,-0.02377 -0.04932,-0.0504 -0.115538,-0.123419 -0.185002,-0.204639 -0.07227,-0.0845 -0.141003,-0.158407 -0.195336,-0.211357 -0.02717,-0.02647 -0.05022,-0.04729 -0.07235,-0.06408 -0.01106,-0.0084 -0.02096,-0.0158 -0.03824,-0.02377 -0.0086,-0.004 -0.01875,-0.009 -0.03876,-0.01085 -0.02001,-0.0018 -0.0589,0.0037 -0.08527,0.03152 -0.02556,0.02696 -0.02093,0.03192 -0.02377,0.03927 -0.0028,0.0074 -0.0047,0.01324 -0.0067,0.02015 -0.0041,0.01383 -0.0082,0.02984 -0.01292,0.04961 -0.0095,0.03954 -0.02099,0.09311 -0.03411,0.157613 -0.02623,0.128997 -0.05884,0.302137 -0.09147,0.489376 -0.09722,0.557887 -0.154389,0.894988 -0.185002,1.101741 -0.01531,0.103377 -0.02425,0.17388 -0.02791,0.225826 -0.0037,0.05195 -0.0066,0.084 0.01034,0.128158 0.0092,0.02399 0.03028,0.04907 0.05168,0.06304 0.0214,0.01398 0.04181,0.02071 0.06304,0.02584 0.04247,0.01025 0.09267,0.01486 0.171566,0.0186 0.157791,0.0075 0.426953,0.0088 0.902787,0.0088 0.296508,0 0.566033,-0.0031 0.762227,-0.0078 0.0981,-0.0023 0.177452,-0.0046 0.234095,-0.0078 0.02832,-0.0016 0.05052,-0.0036 0.06873,-0.0057 0.0091,-0.0011 0.01707,-0.0016 0.02791,-0.0041 0.0054,-0.0012 0.01081,-0.0025 0.02325,-0.0083 0.0031,-0.0015 0.007,-0.003 0.01137,-0.0057 0.0044,-0.0027 0.01539,-0.01178 0.0155,-0.01188 1.18e-4,-1.09e-4 0.02061,-0.02625 0.02067,-0.02635 5.9e-5,-1.09e-4 0.01189,-0.04743 0.01189,-0.04754 0,-0.05361 -0.01241,-0.0527 -0.01964,-0.06615 -0.0072,-0.01345 -0.01511,-0.02685 -0.0248,-0.04134 -0.0194,-0.02898 -0.04466,-0.06222 -0.07235,-0.09612 -0.09069,-0.111039 -0.173583,-0.21874 -0.233061,-0.300757 -0.02481,-0.03421 -0.04234,-0.06026 -0.05736,-0.0832 0.02439,-0.02256 0.0546,-0.04972 0.0956,-0.08527 0.09323,-0.08082 0.223306,-0.189015 0.365869,-0.304891 0.287812,-0.233934 0.579705,-0.481832 0.671277,-0.573092 0.208305,-0.207596 0.335863,-0.494599 0.357601,-0.7984 0.01976,-0.276116 -0.02865,-0.443473 -0.20929,-0.722954 l -0.131774,-0.204122 a 0.09964118,0.09964118 0 0 0 -0.06305,-0.04341 z" />
    <path
       style="fill:#000000;stroke-width:0.0266917"
       d="m 16.773285,34.488726 c -0.482159,-0.01001 -0.887117,-0.02866 -0.899907,-0.04145 -0.01321,-0.01321 0.02825,-0.340055 0.09601,-0.756878 0.0656,-0.403491 0.131258,-0.811694 0.145914,-0.907116 0.01466,-0.09542 0.04819,-0.305835 0.07451,-0.467582 l 0.04786,-0.294086 0.141118,-0.131999 c 0.34061,-0.318601 0.509609,-0.354938 0.712533,-0.153199 l 0.0999,0.09931 -0.05698,-0.10061 c -0.148229,-0.261733 -0.191039,-0.685235 -0.100457,-0.993747 0.113183,-0.385486 0.292986,-0.614874 0.94313,-1.20322 0.238556,-0.215881 0.433739,-0.39776 0.433739,-0.404175 0,-0.0064 -0.06042,-0.08113 -0.134268,-0.166037 -0.153271,-0.176219 -0.193532,-0.281032 -0.156756,-0.408098 0.03083,-0.106547 0.06836,-0.150513 0.299477,-0.350873 l 0.180922,-0.156846 1.245641,0.03047 c 0.685102,0.01676 1.255524,0.04035 1.267605,0.05243 0.01208,0.01208 -0.03156,0.345209 -0.09698,0.740285 -0.06542,0.395077 -0.150492,0.922512 -0.189051,1.172079 -0.03856,0.249567 -0.07858,0.473179 -0.08893,0.496916 -0.03247,0.07443 -0.38543,0.368489 -0.479595,0.399567 -0.123202,0.04066 -0.25363,0.01075 -0.351417,-0.0806 -0.09701,-0.09062 -0.09904,-0.08647 -0.02687,0.05499 0.08126,0.159285 0.137821,0.486883 0.116567,0.675168 -0.05083,0.450303 -0.251368,0.769989 -0.791912,1.262409 -0.205977,0.18764 -0.435343,0.39683 -0.509701,0.464867 l -0.135197,0.123705 0.134935,0.156558 c 0.17109,0.198506 0.214008,0.317816 0.158711,0.441204 -0.05043,0.112528 -0.09554,0.162098 -0.306687,0.337027 l -0.170465,0.141225 -0.363368,-0.0068 c -0.199852,-0.0037 -0.757861,-0.01494 -1.240019,-0.02495 z m 1.930971,-0.527973 c 0,-0.0099 -0.109748,-0.153475 -0.243884,-0.319124 -0.134134,-0.165649 -0.233228,-0.310526 -0.220205,-0.321949 0.01302,-0.01142 0.251891,-0.204327 0.530818,-0.428676 0.591184,-0.475506 0.707634,-0.582958 0.818261,-0.755042 0.171392,-0.266604 0.229907,-0.652617 0.139447,-0.919879 -0.05117,-0.151167 -0.259786,-0.483098 -0.317565,-0.50527 -0.04129,-0.01584 -0.138079,0.06232 -1.227359,0.991095 -0.293608,0.250345 -0.592257,0.50255 -0.663666,0.560454 l -0.129833,0.105281 -0.07035,-0.08105 c -0.0387,-0.04458 -0.15867,-0.185867 -0.266612,-0.313975 -0.107943,-0.12811 -0.209719,-0.228439 -0.22617,-0.222955 -0.03207,0.01069 -0.399357,2.144526 -0.378863,2.201081 0.0092,0.0254 0.264404,0.03468 1.100619,0.04004 1.077725,0.0069 1.155366,0.0049 1.155366,-0.03003 z m 0.257618,-3.210935 c 0.526269,-0.450448 0.964246,-0.822796 0.973282,-0.827441 0.009,-0.0046 0.121837,0.117674 0.250667,0.271818 0.310658,0.371702 0.301686,0.362756 0.332719,0.331722 0.02249,-0.02249 0.374429,-2.079335 0.374429,-2.188282 0,-0.03299 -0.161626,-0.03855 -1.121049,-0.03855 -0.970329,0 -1.121049,0.0053 -1.121049,0.03938 0,0.02166 0.102096,0.161472 0.226879,0.3107 0.124783,0.149228 0.226879,0.279279 0.226879,0.289002 0,0.0097 -0.111104,0.106736 -0.246897,0.215584 -0.759718,0.608964 -0.946406,0.773404 -1.056949,0.930994 -0.214128,0.30526 -0.285151,0.62829 -0.204031,0.927972 0.05912,0.218392 0.287925,0.576591 0.360426,0.564245 0.02631,-0.0045 0.478424,-0.376696 1.004694,-0.827144 z"
       id="path8416"
       sodipodi:nodetypes="ssssscsscssssssscssssssssssscssscssssssssssscssssssssssssssssssss" />
  </g>
</svg>
