<svg xmlns="http://www.w3.org/2000/svg" xmlns:svg="http://www.w3.org/2000/svg" id="svg6054" width="34.001" height="34" version="1.1" viewBox="0 0 8.996 8.996"><g id="layer1" transform="translate(-53.540611,-43.867561)"><path id="path1694-6-61" fill="#cc0" fill-rule="evenodd" stroke="none" d="M 53.80534,52.598856 V 44.13219 h 8.466667 v 8.466666 H 53.80534" style="fill:#b3b3b3;fill-opacity:1;stroke-width:.264583"/><path id="path2825-1-3" style="fill:#fff;fill-opacity:1;stroke:none;stroke-width:.79375;stroke-dashoffset:14.7" d="m 53.91007,44.241555 4.201467,4.254193 -1.578197,-4.628142 h -2.232983 c -0.390287,0.373949 0,0 -0.390287,0.373949 z m 4.201467,4.254193 2.565218,-4.628142 H 58.77403 Z m 0,0 4.425053,-1.113626 v -2.664955 z m 0,0 4.425053,2.729032 v -2.24689 z m 0,0 1.191141,4.367691 h 2.083594 z m 0,0 -2.50889,4.367691 h 1.584399 z m 0,0 -4.57078,2.121318 v 1.801439 z m 0,0 -4.57078,-2.479434 v 3.461287 z"/><path style="color:#000;fill:#000;stroke-width:.264583;stroke-linecap:round;stroke-linejoin:round;-inkscape-stroke:none" id="path1696-0-3" d="m 53.805194,43.867561 a 0.26460979,0.26460979 0 0 0 -0.264583,0.264584 v 8.466666 a 0.26460979,0.26460979 0 0 0 0.264583,0.264583 h 8.466667 a 0.26460979,0.26460979 0 0 0 0.264583,-0.264583 v -8.466666 a 0.26460979,0.26460979 0 0 0 -0.264583,-0.264584 z m 0.264583,0.529167 h 7.9375 v 7.9375 h -7.9375 z"/><path style="fill:#cc0;fill-opacity:1;stroke-width:.0600964" id="path7254-9" d="m 58.787452,49.118172 0.287274,-0.0226 0.253595,0.02291 0.253598,0.02291 -0.540869,-2.65e-4 -0.540869,-2.64e-4 0.287271,-0.0226 z m -0.437512,-0.0459 v -0.03005 h 0.03005 0.03005 v 0.03005 0.03005 h -0.03005 -0.03005 z m 1.245873,-0.08533 -0.03722,-0.142325 0.06349,0.06349 0.06349,0.0635 -0.02627,0.07883 -0.02627,0.07883 z m -1.401853,-0.0141 -0.04288,-0.06938 0.06938,0.04288 0.06938,0.04288 v 0.0265 0.0265 h -0.0265 -0.0265 z m -0.0844,-0.140957 v -0.03005 h 0.03005 0.03005 v 0.03005 0.03005 h -0.03005 -0.03005 z m 0.3125,-0.04207 -0.07212,-0.07212 V 48.61689 48.516073 l 0.0998,-0.08248 0.0998,-0.08248 -0.07924,0.127257 -0.07924,0.127257 0.03673,0.09572 0.03673,0.09573 0.528645,0.02008 0.528643,0.02008 -0.513824,0.01236 -0.513826,0.01236 z m -0.367853,-0.203327 0.0047,-0.115186 0.03157,0.07888 0.03157,0.07888 -0.03631,0.03631 -0.03631,0.03631 z m 2.15873,-0.05509 v -0.03005 h 0.03005 0.03005 v 0.03005 0.03005 h -0.03005 -0.03005 z m 0.154104,-0.04766 0.04103,-0.107759 0.03364,0.03364 0.03364,0.03364 -0.07467,0.07412 -0.07468,0.07412 z m -2.257481,-0.07253 v -0.03005 h 0.03005 0.03005 v 0.03005 0.03005 h -0.03005 -0.03005 z m 1.923087,0 v -0.03005 h 0.03005 0.03005 v 0.03005 0.03005 h -0.03005 -0.03005 z m -1.832943,-0.150244 0.03714,-0.06009 h 0.03005 0.03005 l -0.03714,0.06009 -0.03714,0.0601 h -0.03005 -0.03005 z m 2.065663,-0.04507 -0.08248,-0.105169 0.105169,0.08248 0.10517,0.08248 v 0.0227 0.02267 h -0.0227 -0.02267 z m -2.135069,-0.167857 -0.03559,-0.09274 0.02984,-0.02984 0.02984,-0.02984 0.03205,0.122577 0.03205,0.122576 h -0.0263 -0.0263 z m 1.891083,0.05168 0.07888,-0.03156 0.03631,0.03631 0.03631,0.03631 -0.115187,-0.0047 -0.115183,-0.0047 z m -1.587029,-0.08843 -0.04288,-0.06938 0.06938,0.04288 0.06938,0.04288 v 0.0265 0.0265 h -0.0265 -0.0265 z M 58.10956,47.720092 v -0.08013 l 0.04006,0.04006 0.04006,0.04007 -0.04006,0.04006 -0.04006,0.04006 z m 0.300482,0.03005 v -0.03005 h 0.03005 0.03005 v 0.03005 0.03005 h -0.03005 -0.03005 z m 1.742798,0 v -0.03005 h 0.03005 0.03005 v 0.03005 0.03005 h -0.03005 -0.03005 z m 0.180289,0 v -0.03005 h 0.03005 0.03005 v 0.03005 0.03005 h -0.03005 -0.03005 z m -1.782863,-0.13021 0.04007,-0.04006 0.04006,0.04006 0.04007,0.04007 h -0.08013 -0.08013 z m 1.382221,0 0.04006,-0.04006 0.04007,0.04006 0.04006,0.04007 h -0.08013 -0.08013 z m -1.732783,-0.08013 0.03714,-0.0601 h 0.03005 0.03005 l -0.03714,0.0601 -0.03714,0.06009 h -0.03005 -0.03005 z m 2.037543,-0.06938 -0.04288,-0.06938 0.06938,0.04288 0.06938,0.04288 v 0.0265 0.0265 h -0.0265 -0.0265 z m -2.040014,-0.114906 -0.03961,-0.06409 0.02864,-0.02864 0.02864,-0.02864 0.03559,0.09274 0.03559,0.09274 h -0.02461 -0.02461 z m 0.738653,-0.0405 0.375602,-0.02133 0.375603,0.02133 0.375605,0.02132 h -0.751208 -0.751205 z m -0.488371,-0.108072 -0.03747,-0.09765 0.0038,-0.07021 0.0038,-0.0702 0.05758,0.143941 0.05758,0.143944 -0.02392,0.02392 -0.02392,0.02392 z m -0.333211,-0.122877 0.0047,-0.115184 0.03157,0.07888 0.03157,0.07888 -0.03631,0.03631 -0.03631,0.03631 z m 1.888721,-0.08445 -0.03672,-0.05941 0.09327,0.03579 0.09327,0.03579 v 0.02363 0.02363 h -0.05655 -0.05655 z m -1.833367,-0.117335 v -0.05655 l 0.05941,-0.03672 0.05941,-0.03672 -0.03579,0.09327 -0.03579,0.09327 h -0.02363 -0.02363 z m 0.300479,0.0265 v -0.03005 h 0.03005 0.03005 v 0.03005 0.03005 h -0.03005 -0.03005 z m 0.437896,-0.07452 0.34775,-0.02175 0.313312,0.02199 0.313311,0.02199 -0.661061,-2.51e-4 -0.661062,-2.52e-4 0.34775,-0.02175 z m 1.177047,-0.12079 -0.08248,-0.10517 0.105169,0.08248 0.105169,0.08248 v 0.0227 0.02267 h -0.0227 -0.02267 z m -1.79523,-0.10517 v -0.03005 h 0.03005 0.03005 v 0.03005 0.03005 H 58.3199 58.28985 Z m 1.622605,0 v -0.03005 h 0.03005 0.03005 v 0.03005 0.03005 h -0.03005 -0.03005 z m -0.974553,-0.07442 0.317521,-0.02215 0.283443,0.02244 0.283445,0.02244 -0.600966,-2.64e-4 -0.600964,-2.65e-4 0.317521,-0.02214 z m -0.703405,-0.110874 0.0047,-0.115184 0.03156,0.07888 0.03157,0.07887 -0.03631,0.03631 -0.03631,0.03631 z m 0.295738,0.005 v -0.03005 h 0.03005 0.03005 v 0.03005 0.03005 h -0.03005 -0.03005 z m -0.300112,-0.213876 -2.65e-4,-0.09368 0.08823,-0.116655 0.08824,-0.116655 0.0019,0.0382 0.0019,0.0382 -0.08977,0.172135 -0.08978,0.172135 z m 1.535628,-0.02842 -0.116657,-0.08823 h 0.06423 0.06423 l 0.07481,0.09015 0.07481,0.09014 -0.02238,-0.0019 -0.02238,-0.0019 z m 0.24071,0.01434 0.04104,-0.10776 0.03364,0.03364 0.03364,0.03364 -0.07467,0.07412 -0.07468,0.07412 z m -1.446178,-0.04248 0.03714,-0.0601 h 0.03005 0.03005 l -0.03714,0.0601 -0.03714,0.06009 h -0.03005 -0.03005 z m 0.405652,-0.103876 0.225361,-0.02357 0.225364,0.02357 0.225359,0.02357 h -0.450723 -0.450723 z m 0.97083,-0.0857 -0.04288,-0.06938 0.06938,0.04288 0.06938,0.04288 v 0.0265 0.0265 h -0.0265 -0.0265 z m -1.466628,-0.08086 v -0.03005 h 0.03005 0.03005 v 0.03005 0.03005 h -0.03005 -0.03005 z m 0.140227,-0.07011 0.04007,-0.04006 0.04006,0.04006 0.04006,0.04007 h -0.08013 -0.08013 z m 1.061704,0.01003 v -0.03005 h 0.03005 0.03005 v 0.03005 0.03005 h -0.03005 -0.03005 z"/><path style="fill:#b3b3b3;fill-opacity:1;stroke:#000;stroke-width:.298185;stroke-dasharray:none;stroke-opacity:1" id="path7256-8" d="m 57.124713,51.212937 c -0.09764,-0.298109 0.01061,-0.619654 -0.0871,-0.919739 -0.06347,-0.420315 -0.159425,-0.866529 -0.446188,-1.194393 -0.204835,-0.20428 -0.498454,-0.258437 -0.752938,-0.377378 -0.218641,-0.340183 -0.110736,-0.76009 -0.135271,-1.139055 0.0013,-0.381833 -0.008,-0.76381 0.0056,-1.145519 0.05086,-0.38418 0.451967,-0.321696 0.715238,-0.495705 0.246414,-0.261286 0.61245,-0.178003 0.936427,-0.187594 0.822555,-0.0066 1.64521,-0.0058 2.467805,-0.0096 0.524534,0.436163 0.582562,1.169686 0.600001,1.804157 0.01093,0.407336 0.05384,0.813871 0.08212,1.219179 -0.03778,0.359092 -0.416629,0.525414 -0.735377,0.553603 -0.456581,0.05624 -0.918247,0.0396 -1.376926,0.07008 -0.140886,0.0056 -0.281768,0.01122 -0.422654,0.01683 -0.167343,0.389374 0.135239,0.78927 0.03576,1.188918 -0.05719,0.257763 -0.219289,0.504227 -0.42736,0.656238 -0.1397,0 -0.279398,0 -0.419098,0 -0.01336,-0.01336 -0.0267,-0.02671 -0.04006,-0.04007 z"/><path id="path5928" style="fill:#fff;stroke:none;stroke-width:.132292;stroke-dashoffset:14.7" d="m 58.911739,45.837596 c -0.162577,-0.04324 -0.483745,0.163301 -0.346232,0.2589 0.297254,-0.144661 0.977062,-0.178552 1.299662,-0.121957 -0.0162,-0.117734 -0.557482,-0.154691 -0.95343,-0.136943 z m -0.1757,0.755472 -0.04031,-0.01704 c -0.147713,0.02064 -0.32607,0.392494 -0.05478,0.25063 0.365805,-0.0942 0.751614,-0.184344 1.126546,-0.08837 0.231539,0.07055 0.297079,-0.036 0.188639,-0.106111 -0.456541,-0.04534 -0.477602,-0.0447 -1.220101,-0.03911 z m -0.19482,0.711068 c -0.01858,5.29e-4 -0.03737,0.0034 -0.05581,0.0088 0.01091,0.105469 -0.246738,0.394058 -0.05633,0.356053 0.149866,-0.179726 0.421122,-0.183375 0.637171,-0.198438 0.298569,0.02119 0.599273,0.0499 0.897619,0.02532 0.280764,-0.154498 -0.231106,-0.09481 -0.353983,-0.101285 -0.304281,0.03036 -0.559742,-0.0044 -0.861446,-0.01138 -0.05431,-0.01122 -0.15147,-0.08093 -0.207223,-0.07906 z m 0.24753,0.778751 c -0.08813,0.02711 -0.160523,0.03568 -0.244946,0.07183 -0.08697,0.07004 -0.308133,0.35307 -0.110588,0.321945 0.151373,-0.21462 0.443672,-0.177814 0.671794,-0.221176 0.261798,-0.03417 0.517854,0.09654 0.776697,0.01138 0.201072,0.01805 0.314661,-0.135408 0.07545,-0.143145 -0.631549,-0.01804 -0.431719,-0.02394 -1.168404,-0.04083 z"/><path id="path7252-4" style="fill:#000;fill-opacity:1;stroke:none;stroke-width:.0600964" d="m 58.959014,45.769034 c -0.213662,0.04988 -0.463915,0.09817 -0.530138,0.343649 -0.05971,0.21535 0.142411,0.447201 -0.02564,0.645623 -0.201886,0.209389 0.04815,0.426387 0.005,0.655005 -0.123439,0.223639 -0.164187,0.446699 -0.0073,0.671809 -0.06316,0.240607 -0.287784,0.559382 0.01086,0.762296 0.252151,0.182431 0.602007,0.03838 0.892911,0.08424 0.148551,0.01849 0.43006,-0.0057 0.152728,-0.07688 -0.273826,0.02048 -0.541907,-0.02841 -0.816311,-0.0272 -0.384079,7.93e-4 -0.36695,-0.55136 -0.03908,-0.64225 0.237302,-0.08853 0.4989,-0.01749 0.747014,-0.03648 0.247879,0.01302 0.507709,-0.01429 0.746256,0.05759 0.07996,0.07451 0.366286,0.223843 0.217722,-1.16e-4 -0.197532,-0.183544 -0.491425,-0.100727 -0.734347,-0.133139 -0.347839,-0.01241 -0.69575,-0.02323 -1.043432,-0.03967 -0.313784,-0.202896 -0.03992,-0.724572 0.311372,-0.604406 0.398513,0.0013 0.797033,-0.0016 1.195541,0.0013 0.1,0.08273 0.43343,0.224776 0.205775,-0.0074 -0.242544,-0.164221 -0.557388,-0.0351 -0.82991,-0.0777 -0.313915,-0.05377 -0.74501,0.138629 -0.957318,-0.176212 -0.184435,-0.250444 0.104297,-0.556197 0.373613,-0.524402 0.351307,0.0077 0.702909,0.0044 1.054363,0.0091 0.09135,0.07428 0.411135,0.246859 0.210968,0.02029 -0.232833,-0.185037 -0.550691,-0.08551 -0.822187,-0.110993 -0.290092,0.0067 -0.766357,0.07762 -0.765145,-0.348546 0.02837,-0.415756 0.577042,-0.356497 0.874864,-0.33469 0.224701,0.0013 0.455264,-0.0059 0.625497,0.169196 -0.05706,-0.274074 -0.389999,-0.254617 -0.607164,-0.257289 -0.148844,-0.0074 -0.297675,-0.01577 -0.446516,-0.02273 z"/></g></svg>