<svg xmlns="http://www.w3.org/2000/svg" xmlns:svg="http://www.w3.org/2000/svg" id="svg2360" width="34" height="34" version="1.1"><g id="g2358" fill-rule="evenodd" transform="translate(-25.367913,-26.983112)"><rect style="fill:#fff;fill-opacity:1;stroke:none;stroke-width:2;stroke-dasharray:none" id="rect3293" width="31.997" height="31.997" x="26.429" y="28.221"/><path id="path1694-1-0-7-3" style="fill:#b3b3b3;fill-opacity:1;stroke-width:.999999" d="m 54.69286,28.427501 h -3.425783 v 31.999998 h 3.425783 z m -6.853516,0 h -3.427737 v 31.999998 h 3.427737 z m -6.853516,0 h -3.427733 v 31.999998 h 3.427733 z m -6.855469,0 H 30.70458 v 31.999998 h 3.425779 z"/><path id="path424-0-2-4" style="color:#000;fill:#000;fill-opacity:1;stroke-linecap:round;stroke-linejoin:round;-inkscape-stroke:none" d="m 26.367913,26.983112 c -0.552262,5.5e-5 -0.999945,0.447738 -1,1 v 32 c 5.5e-5,0.552262 0.447738,0.999945 1,1 H 58.36791 c 0.55226,-5.5e-5 0.99995,-0.447738 1,-1 v -32 c -5e-5,-0.552262 -0.44774,-0.999945 -1,-1 z m 1,2 H 57.36791 v 30 c -29.999997,0 0,0 -29.999997,0 z"/><g id="g5656" transform="rotate(-45.250665,61.842845,2.6559654)"><path id="path2348-9-4" style="opacity:.15;stroke-width:.878788" d="m 11.893175,7.4704595 c 0.954651,0.00721 2.173298,0.388531 3.65625,1.146484 2.255553,1.142423 4.584312,2.9143885 6.986329,5.3164055 2.402017,2.402017 4.173983,4.730776 5.316406,6.986328 1.376766,2.665653 1.507661,4.466925 0.394531,5.404297 l -0.04297,0.04492 c -0.912975,1.173826 -1.837232,2.124936 -2.773437,2.857422 l -1.757813,3.539063 -1.917968,-2.925782 c -0.310564,-0.09545 -0.631934,-0.206718 -0.976563,-0.351562 l -1.011719,-0.482422 -0.439453,-0.175781 0.04492,-0.04492 -0.351562,-0.175781 -0.878907,-0.527344 -0.966797,-0.615235 c -0.810388,-0.578848 -1.62992,-1.2405 -2.458984,-1.96875 l -3.376953,1.050782 0.810547,-3.50586 C 10.428066,21.248983 9.0559345,19.500839 8.0357526,17.800537 l -0.08984,-0.169922 -3.294922,-0.417969 2.017578,-2.621094 -0.302734,-1.097656 v -0.175781 l 0.08789,-0.966797 0.04297,-0.306641 0.527344,-0.791015 c 0.761611,-1.11313 1.802911,-2.1524745 3.1210904,-3.1191405 0.422916,-0.448547 1.00554,-0.669669 1.748046,-0.664062 z"/><g id="g5641"><path id="path2348-9" d="m 28.925228,25.422001 q 1.669697,-1.40606 -0.395454,-5.404543 -1.713636,-3.383332 -5.316665,-6.986361 -3.603028,-3.6030285 -6.98636,-5.3166645 -3.954544,-2.021211 -5.404544,-0.483333 -1.9772714,1.45 -3.1196944,3.1196955 l -0.527273,0.790909 -0.04394,0.307576 -0.08788,0.966666 v 0.175757 l 0.571212,2.065151 0.527272,1.142424 0.175758,0.351515 0.395454,0.746969 q 1.7136354,2.856059 4.7454524,5.887876 2.240908,2.240909 4.393938,3.778787 l 0.966666,0.615151 0.878787,0.527273 0.351515,0.175757 -0.04394,0.04394 0.439394,0.175758 1.010605,0.483333 q 3.031817,1.274242 4.306059,0 1.581821,-1.142425 3.119699,-3.119697 L 28.925229,25.422 M 13.590386,12.899279 q 2.592423,1.625757 5.360604,4.393937 2.680302,2.680302 4.306059,5.184847 -2.680302,-1.45 -5.492422,-4.26212 -2.724242,-2.724241 -4.174241,-5.316664" style="stroke-width:.878788"/><path id="path2350-8" style="fill:#b3b3b3;fill-opacity:1;stroke-width:.878788" d="m 12.403898,7.5377475 c 0.823863,-0.03204 1.921818,0.291352 3.294922,0.96875 2.167674,1.11313 4.408519,2.8264875 6.722657,5.1406245 2.343431,2.343432 4.086093,4.613581 5.228515,6.810547 1.083837,2.196967 1.24599,3.675885 0.484375,4.4375 l -0.04492,0.04492 c -0.966665,1.259594 -1.96303,2.254004 -2.988281,2.986328 -1.01111,0.879722 -2.211205,0.562542 -3.470703,-0.130859 l -0.878906,-0.439453 c -0.02325,-0.0077 -0.03883,-0.01908 -0.06055,-0.02734 l -0.02734,0.02734 -0.132812,-0.0957 c -0.06963,-0.03783 -0.128049,-0.07922 -0.173828,-0.125 L 19.917573,26.959623 19.126558,26.43228 18.247651,25.904936 C 16.841593,24.908978 15.39198,23.664499 13.898042,22.170561 11.964712,20.237231 10.456488,18.348044 9.3726515,16.502592 L 8.9761675,15.756499 8.8003866,15.492827 v -0.08789 L 8.2730426,14.35025 c -0.0828,-0.198732 -0.152718,-0.389532 -0.216797,-0.574219 l -0.002,0.002 -0.0059,-0.02148 v -0.002 c -0.158135,-0.459795 -0.261377,-0.877789 -0.302735,-1.25 -0.01022,-0.322265 -0.274024,-0.644531 0.08789,-0.966796 l 0.04492,-0.04492 0.30664,-0.482422 C 8.9467655,9.897274 9.9431301,8.9009095 11.173432,8.0221225 l 0.04297,-0.04297 c 0.296589,-0.27462 0.693181,-0.422182 1.187498,-0.441406 z m -0.193359,1.511719 c -0.252651,0.0037 -0.480496,0.042 -0.685547,0.115235 -0.146464,0.439393 -0.11716,1.0547945 0.08789,1.8457025 l 0.615234,1.49414 0.13086,0.21875 c 0.995958,1.991916 2.549115,4.043256 4.658203,6.152344 2.138381,2.138381 4.219025,3.720843 6.240234,4.746094 l 0.306641,0.130859 c 0.585858,0.292929 1.08404,0.498063 1.49414,0.615235 l 1.712892,0.04492 c 0.322222,-0.790909 0.07411,-1.978732 -0.746094,-3.560547 C 24.970449,18.860283 23.374311,16.795267 21.23593,14.656886 19.126842,12.547798 17.091131,10.980965 15.128508,9.955714 13.942146,9.3405645 12.968493,9.0384795 12.210539,9.0494645 Z"/><path id="path2543" style="fill:#fff;fill-opacity:1;stroke:none;stroke-width:.0511327;stroke-dashoffset:14.7;stroke-opacity:1" d="m 13.384367,8.1686075 c 0.213788,0.02083 0.429374,0.05624 0.636719,0.117187 0.134189,0.04637 0.286617,0.04722 0.404297,0.134766 0.515563,0.192412 1.028799,0.432045 1.529297,0.623047 0.320222,0.287896 0.763744,0.424332 1.11914,0.673828 2.763427,1.6772045 5.110265,3.9589995 7.195313,6.4101555 0.786502,0.930913 1.464166,1.949797 2.125,2.96875 0.137174,0.09238 0.13758,0.313683 0.242187,0.451172 0.208129,0.448447 0.448552,0.884741 0.671875,1.320313 0.0015,0.168508 0.121694,0.291541 0.1875,0.421875 -0.02701,0.197843 0.107257,0.378001 0.177735,0.539062 0.0098,0.385737 0.132758,0.774091 0.09375,1.167969 0.01994,0.55821 -0.285516,1.129447 -0.800782,1.365234 -0.03709,-0.0061 -0.06059,-0.02167 -0.08008,-0.03906 -0.0881,0.295374 -0.477933,0.106327 -0.707031,0.154297 -0.597328,-0.01588 -1.224001,0.01795 -1.771484,-0.265625 -2.663025,-1.068214 -4.945119,-2.88668 -7,-4.855469 -2.38174,-2.326104 -4.5891,-4.963476 -5.773438,-8.115235 C 11.388379,10.6058 11.30459,9.894778 11.427334,9.2252495 c 0.04705,-0.106627 0.13252,-0.16132 0.234375,-0.191406 -0.09524,-0.06367 -0.114154,-0.176949 0.05469,-0.310547 0.327818,-0.411269 0.869083,-0.576382 1.38086,-0.548828 0.0959,-0.0035 0.19114,-0.0066 0.287109,-0.0059 z"/><path style="fill:#000;fill-opacity:1;stroke:#000;stroke-width:0" id="path2240" d="m 17.329166,20.207302 -5.3125,5.4375"/><path id="path2242" style="fill:#fff;fill-opacity:1;stroke:#000;stroke-width:0" d="M 25.889187,25.685299 C 24.86903,24.682155 24.219749,25.005934 23.676972,24.990605 l 0.195737,5.768251 2.344997,-4.717182 C 26.103933,25.907657 25.99472,25.789073 25.889187,25.685299 Z m -14.608211,-12.8251 -5.7411768,2.214996 5.5723148,0.710776 c 1.015258,-1.722331 0.361331,-2.316634 0.168862,-2.925772 z m 6.638841,7.895683 C 17.70988,20.549729 17.495065,20.390773 17.329731,20.207773 l -5.313329,5.43755 6.625786,-2.063351 c 0.176211,-1.688909 -0.260509,-2.372553 -0.722371,-2.82609 z"/><path id="path2244" style="fill:#000;fill-opacity:1;stroke:#000;stroke-width:0" d="M 10.349977,11.316221 C 9.8913942,10.849425 9.4268407,10.727272 8.9622217,10.632038 l -3.4224225,4.443157 5.7411768,-2.214996 c -0.306874,-0.743668 -0.617232,-1.224592 -0.930999,-1.543978 z m 13.326995,13.674384 c -1.85434,0.105971 -2.305145,0.725363 -2.68805,1.369321 l 2.883787,4.39893 z M 17.329731,20.207773 C 15.540933,18.538824 14.540543,18.674291 13.57893,18.89591 l -1.562528,6.749413 z"/><path style="fill:#000;fill-opacity:1;stroke:#000;stroke-width:0" id="path2240-0" d="M 10.854226,13.337829 6.1822581,18.119726"/></g></g><path id="path1694-1-0-1" style="fill:#000;fill-opacity:1;stroke-width:.999999" d="m 26.698719,31.105236 5.312501,5.447263 -5.312501,-6.556641 z m 2.646486,-2.677735 8.228515,8.437501 -6.835937,-8.437501 z m 2.259764,25.031248 5.646486,6.96875 h 1.15039 z m 2.488283,-25.031248 8.412109,8.624999 -6.988282,-8.624999 z m 3.074218,25.343751 5.392577,6.656247 h 1.099612 z m 2.843751,-25.343751 7.437498,7.625001 -6.177732,-7.625001 z m 2.08789,25.53125 5.242186,6.468748 h 1.066405 z m 4.095704,-25.53125 7.253904,7.437498 -6.025391,-7.437498 z m 0.847654,24.531251 6.050782,7.468747 h 1.234374 z m 6,-0.187502 5.656252,6.98047 v -1.181643 z"/><path style="fill:#000;fill-opacity:1;stroke:#000;stroke-width:.0883883;stroke-dasharray:none" id="path5850" d="m 41.472373,38.713471 c -2.49509,-0.01815 -4.997714,0.322545 -7.382868,1.059097 -0.723224,0.284506 -1.480856,0.524685 -2.135365,0.95217 -0.525093,0.407573 -1.083827,0.928492 -1.103819,1.642953 -0.0067,0.143919 -0.02514,0.403678 0.160808,0.429253 -0.09134,0.368994 0.305907,0.61258 0.51652,0.849271 0.739757,0.700012 1.74621,0.998215 2.68598,1.326404 2.429973,0.760678 4.990548,1.044557 7.530988,0.986712 2.89773,0.01521 5.84635,-0.293014 8.565556,-1.346196 0.535146,-0.201167 1.077704,-0.425799 1.477155,-0.851425 0.34677,-0.350851 0.801194,-0.649575 0.946446,-1.145945 0.141941,-0.571681 -0.105683,-1.18449 -0.553573,-1.554009 -0.354238,-0.3365 -0.753012,-0.628156 -1.201505,-0.822291 -0.259844,-0.161929 -0.567128,-0.217854 -0.84979,-0.337673 -0.812016,-0.27923 -1.624801,-0.566556 -2.479755,-0.682937 -1.939424,-0.403962 -3.923615,-0.528429 -5.901254,-0.506053 -0.09184,2.23e-4 -0.183682,4.46e-4 -0.275524,6.69e-4 z"/><path id="path5921" style="fill:#fff;fill-opacity:1;stroke:none;stroke-width:.0883883;stroke-dasharray:none" d="m 15.851562,12.101562 c -2.616515,6.9e-4 -5.243807,0.390703 -7.6894526,1.291016 a 0.41091855,0.41091855 0 0 1 -0.00195,0.002 c -0.8757505,0.320804 -1.7082459,0.758258 -2.1425781,1.482422 -0.1361719,0.29768 -0.211923,0.578632 -0.1464843,0.707031 L 5.7363281,15.431641 c 0.1022363,0.06939 0.1833732,0.188874 0.2148438,0.283203 0.026998,0.08092 0.027379,0.128514 0.029297,0.164062 a 0.41091855,0.41091855 0 0 1 0.00391,0.0059 c 0.5047622,0.772786 1.4215322,1.215449 2.375,1.544922 a 0.41091855,0.41091855 0 0 1 0.00391,0.002 c 2.6350738,0.93841 5.4671238,1.258461 8.2773438,1.179687 a 0.41091855,0.41091855 0 0 1 0.0098,0 c 1.947387,-0.01144 3.888614,-0.156193 5.761718,-0.605469 l -0.002,0.002 c 1.149044,-0.282695 2.285209,-0.574327 3.261719,-1.121093 0.506783,-0.374307 0.982656,-0.761269 1.275391,-1.228516 0.110818,-0.209183 0.118657,-0.437151 0.03906,-0.681641 -0.08028,-0.246583 -0.255911,-0.492788 -0.458984,-0.65625 a 0.41091855,0.41091855 0 0 1 -0.02539,-0.02344 c -0.812791,-0.773774 -2.005552,-1.076079 -3.195312,-1.455078 -0.0012,-3.27e-4 -0.0027,3.26e-4 -0.0039,0 -1.558743,-0.41274 -3.175287,-0.624802 -4.796875,-0.697266 h -0.0039 c -0.882043,-0.03099 -1.766823,-0.0445 -2.650391,-0.04297 z" transform="translate(25.367913,26.983112)"/></g></svg>