<svg xmlns="http://www.w3.org/2000/svg" xmlns:svg="http://www.w3.org/2000/svg" id="svg31684" width="34" height="34" version="1.1" viewBox="0 0 8.996 8.996" xml:space="preserve"><g id="g3640" transform="rotate(-43.528441,-13.225459,3.7042971)"><path id="path1694-1-8-8-1-7-0-7" fill="#cc0" fill-rule="evenodd" stroke="none" d="m -6.9067955,16.640051 5.8308503,-6.138862 6.1388634,5.83085 -5.83085023,6.138863 -6.13886347,-5.830851" style="fill:#8080ff;fill-opacity:1;stroke-width:.264583"/><path id="rect4700-8-9" style="fill:#00a;fill-opacity:1;stroke-width:2.00004;stroke-linecap:round;stroke-linejoin:round;paint-order:stroke fill markers" d="M 2.3439077,15.35426 C 2.1514761,15.180862 1.8883793,15.076255 1.5469416,15.080512 l -2.17863128,0.02682 -2.53457602,0.04439 c -1.7723536,0.03081 -1.6602365,3.131286 -0.065731,3.113494 l 2.52438727,-0.02841 2.24136493,-0.0606 c 1.1549747,-0.03144 1.6440961,-2.070631 0.8101517,-2.821944 z"/><path id="rect4700-6" style="stroke-width:2.00004;stroke-linecap:round;stroke-linejoin:round;paint-order:stroke fill markers" d="m -3.0440072,14.956167 2.53483386,-0.04406 c 0.81135646,1.344961 0.41105636,2.381418 -0.0759741,3.12945 l -2.52434876,0.02817 c -1.5945075,0.01779 -1.706867,-3.08275 0.065489,-3.113558 z"/><path id="rect4700-2-2" style="fill:#fff;fill-opacity:1;stroke-width:2.00004;stroke-linecap:round;stroke-linejoin:round;paint-order:stroke fill markers" d="m -0.50917334,14.912107 c -0.33161804,0.447738 -0.51870606,0.972993 -0.53983826,1.515654 -0.020792,0.567071 0.14052415,1.128298 0.46386347,1.613796 l 2.24125183,-0.061 c 1.4215086,-0.03869 1.834317,-3.118312 0.013315,-3.09561 z"/><path style="color:#000;display:inline;overflow:visible;visibility:visible;fill:#000;fill-opacity:1;fill-rule:nonzero;stroke:none;stroke-width:.38355;stroke-linecap:butt;stroke-linejoin:miter;stroke-miterlimit:4;stroke-dasharray:none;stroke-dashoffset:0;stroke-opacity:1;marker:none;enable-background:accumulate" id="path5884-4" d="M 6.0513346,2.982784 C 6.0079792,3.014578 5.6868295,2.6447496 5.6330662,2.6449878 5.5793029,2.645226 5.2614426,3.0178854 5.2178071,2.9864768 5.1741717,2.9550682 5.4266587,2.5353534 5.4098184,2.4842951 5.3929781,2.4332367 4.9403337,2.2460917 4.9567209,2.1948862 4.9731082,2.1436806 5.4503034,2.254111 5.4936588,2.222317 5.5370143,2.190523 5.575125,1.7022017 5.6288882,1.7019635 5.6826515,1.7017253 5.7250875,2.1896898 5.7687229,2.2210984 5.8123583,2.252507 6.2885564,2.1378528 6.3053967,2.1889111 6.322237,2.2399694 5.8712686,2.4311177 5.8548814,2.4823233 5.8384941,2.5335288 6.09469,2.95099 6.0513346,2.982784 Z" transform="rotate(72.26355,-5.5326226,6.3214349)"/><path style="color:#000;fill:#000;fill-opacity:1;stroke:none;stroke-width:.264583;stroke-linecap:round;stroke-linejoin:round;-inkscape-stroke:none" id="path424-0-7-3-5" d="m -0.89378249,10.309618 a 0.26460979,0.26460979 0 0 0 -0.37405301,0.0096 l -5.8308496,6.138862 a 0.26460979,0.26460979 0 0 0 0.00963,0.374053 l 6.13886127,5.830849 a 0.26460979,0.26460979 0 0 0 0.37405377,-0.0096 L 5.2547049,16.514521 a 0.26460979,0.26460979 0 0 0 -0.00963,-0.374054 z m -0.17258921,0.565892 5.7551836,5.466421 -5.46642119,5.755183 -5.75518361,-5.466422 z"/><path id="path3198-9" style="fill:#00a;fill-opacity:1;stroke:none;stroke-width:2.00005;stroke-linecap:round;stroke-linejoin:round;paint-order:stroke fill markers" d="m -1.8965252,12.433274 a 0.46046433,0.46046433 0 0 0 -0.4604455,0.460445 0.46046433,0.46046433 0 0 0 0.4604455,0.460446 0.46046433,0.46046433 0 0 0 0.4604456,-0.460446 0.46046433,0.46046433 0 0 0 -0.4604456,-0.460445 z m 1.5151811,0 a 0.46046433,0.46046433 0 0 0 -0.4604455,0.460445 0.46046433,0.46046433 0 0 0 0.4604455,0.460446 0.46046433,0.46046433 0 0 0 0.4604455,-0.460446 0.46046433,0.46046433 0 0 0 -0.4604455,-0.460445 z m -2.9698996,1.422678 a 0.46046433,0.46046433 0 0 0 -0.4604455,0.460446 0.46046433,0.46046433 0 0 0 0.4604455,0.460445 0.46046433,0.46046433 0 0 0 0.4604456,-0.460445 0.46046433,0.46046433 0 0 0 -0.4604456,-0.460446 z m 1.4547185,0 a 0.46046433,0.46046433 0 0 0 -0.4604455,0.460446 0.46046433,0.46046433 0 0 0 0.4604455,0.460445 0.46046433,0.46046433 0 0 0 0.4604456,-0.460445 0.46046433,0.46046433 0 0 0 -0.4604456,-0.460446 z m 1.5151811,0 a 0.46046433,0.46046433 0 0 0 -0.4604455,0.460446 0.46046433,0.46046433 0 0 0 0.4604455,0.460445 0.46046433,0.46046433 0 0 0 0.4604455,-0.460445 0.46046433,0.46046433 0 0 0 -0.4604455,-0.460446 z m 1.5151811,0 A 0.46046433,0.46046433 0 0 0 0.6733914,14.316398 0.46046433,0.46046433 0 0 0 1.133837,14.776843 0.46046433,0.46046433 0 0 0 1.5942825,14.316398 0.46046433,0.46046433 0 0 0 1.133837,13.855952 Z m 2.3389186,2.118773 a 0.46046433,0.46046433 0 0 0 -0.4604455,0.460446 0.46046433,0.46046433 0 0 0 0.4604455,0.460445 0.46046433,0.46046433 0 0 0 0.4604456,-0.460445 0.46046433,0.46046433 0 0 0 -0.4604456,-0.460446 z m -8.8662897,0.150898 a 0.46046433,0.46046433 0 0 0 -0.4609623,0.460446 0.46046433,0.46046433 0 0 0 0.4609623,0.460445 0.46046433,0.46046433 0 0 0 0.4604455,-0.460445 0.46046433,0.46046433 0 0 0 -0.4604455,-0.460446 z m 2.2071413,2.330134 a 0.46046433,0.46046433 0 0 0 -0.4604456,0.460445 0.46046433,0.46046433 0 0 0 0.4604456,0.460446 0.46046433,0.46046433 0 0 0 0.4604455,-0.460446 0.46046433,0.46046433 0 0 0 -0.4604455,-0.460445 z m 1.4552353,0 a 0.46046433,0.46046433 0 0 0 -0.4609623,0.460445 0.46046433,0.46046433 0 0 0 0.4609623,0.460446 0.46046433,0.46046433 0 0 0 0.4604455,-0.460446 0.46046433,0.46046433 0 0 0 -0.4604455,-0.460445 z m 1.515181,0 a 0.46046433,0.46046433 0 0 0 -0.4604455,0.460445 0.46046433,0.46046433 0 0 0 0.4604455,0.460446 0.46046433,0.46046433 0 0 0 0.4604456,-0.460446 0.46046433,0.46046433 0 0 0 -0.4604456,-0.460445 z m 1.5151811,0 a 0.46046433,0.46046433 0 0 0 -0.4604455,0.460445 0.46046433,0.46046433 0 0 0 0.4604455,0.460446 0.46046433,0.46046433 0 0 0 0.4604456,-0.460446 0.46046433,0.46046433 0 0 0 -0.4604456,-0.460445 z m -3.0303621,1.362733 a 0.46046433,0.46046433 0 0 0 -0.4609623,0.460445 0.46046433,0.46046433 0 0 0 0.4609623,0.460446 0.46046433,0.46046433 0 0 0 0.4604455,-0.460446 0.46046433,0.46046433 0 0 0 -0.4604455,-0.460445 z m 1.515181,0 a 0.46046433,0.46046433 0 0 0 -0.4604455,0.460445 0.46046433,0.46046433 0 0 0 0.4604455,0.460446 0.46046433,0.46046433 0 0 0 0.4604456,-0.460446 0.46046433,0.46046433 0 0 0 -0.4604456,-0.460445 z"/><path id="path3198" style="opacity:1;fill:#fff;fill-opacity:1;stroke:none;stroke-width:2.00005;stroke-linecap:round;stroke-linejoin:round;paint-order:stroke fill markers" d="m -1.7249913,12.337977 a 0.46046433,0.46046433 0 0 0 -0.4604455,0.460445 0.46046433,0.46046433 0 0 0 0.4604455,0.460446 0.46046433,0.46046433 0 0 0 0.4604456,-0.460446 0.46046433,0.46046433 0 0 0 -0.4604456,-0.460445 z m 1.5151811,0 a 0.46046433,0.46046433 0 0 0 -0.46044554,0.460445 0.46046433,0.46046433 0 0 0 0.46044554,0.460446 0.46046433,0.46046433 0 0 0 0.46044554,-0.460446 0.46046433,0.46046433 0 0 0 -0.46044554,-0.460445 z m -2.9698996,1.422678 a 0.46046433,0.46046433 0 0 0 -0.4604455,0.460446 0.46046433,0.46046433 0 0 0 0.4604455,0.460445 0.46046433,0.46046433 0 0 0 0.4604456,-0.460445 0.46046433,0.46046433 0 0 0 -0.4604456,-0.460446 z m 1.4547185,0 a 0.46046433,0.46046433 0 0 0 -0.4604455,0.460446 0.46046433,0.46046433 0 0 0 0.4604455,0.460445 0.46046433,0.46046433 0 0 0 0.4604456,-0.460445 0.46046433,0.46046433 0 0 0 -0.4604456,-0.460446 z m 1.5151811,0 a 0.46046433,0.46046433 0 0 0 -0.46044554,0.460446 0.46046433,0.46046433 0 0 0 0.46044554,0.460445 0.46046433,0.46046433 0 0 0 0.46044554,-0.460445 0.46046433,0.46046433 0 0 0 -0.46044554,-0.460446 z m 1.5151811,0 A 0.46046433,0.46046433 0 0 0 0.84492532,14.221101 0.46046433,0.46046433 0 0 0 1.3053709,14.681546 0.46046433,0.46046433 0 0 0 1.7658164,14.221101 0.46046433,0.46046433 0 0 0 1.3053709,13.760655 Z m 2.3389186,2.118773 A 0.46046433,0.46046433 0 0 0 3.183844,16.339874 0.46046433,0.46046433 0 0 0 3.6442895,16.800319 0.46046433,0.46046433 0 0 0 4.1047351,16.339874 0.46046433,0.46046433 0 0 0 3.6442895,15.879428 Z m -8.8662897,0.150898 a 0.46046433,0.46046433 0 0 0 -0.4609623,0.460446 0.46046433,0.46046433 0 0 0 0.4609623,0.460445 0.46046433,0.46046433 0 0 0 0.4604455,-0.460445 0.46046433,0.46046433 0 0 0 -0.4604455,-0.460446 z m 2.2071413,2.330134 a 0.46046433,0.46046433 0 0 0 -0.4604456,0.460445 0.46046433,0.46046433 0 0 0 0.4604456,0.460446 0.46046433,0.46046433 0 0 0 0.4604455,-0.460446 0.46046433,0.46046433 0 0 0 -0.4604455,-0.460445 z m 1.4552353,0 a 0.46046433,0.46046433 0 0 0 -0.4609623,0.460445 0.46046433,0.46046433 0 0 0 0.4609623,0.460446 0.46046433,0.46046433 0 0 0 0.4604455,-0.460446 0.46046433,0.46046433 0 0 0 -0.4604455,-0.460445 z m 1.51518105,0 a 0.46046433,0.46046433 0 0 0 -0.46044555,0.460445 0.46046433,0.46046433 0 0 0 0.46044555,0.460446 0.46046433,0.46046433 0 0 0 0.46044554,-0.460446 0.46046433,0.46046433 0 0 0 -0.46044554,-0.460445 z m 1.51518105,0 A 0.46046433,0.46046433 0 0 0 1.010293,18.820905 0.46046433,0.46046433 0 0 0 1.4707385,19.281351 0.46046433,0.46046433 0 0 0 1.9311841,18.820905 0.46046433,0.46046433 0 0 0 1.4707385,18.36046 Z m -3.0303621,1.362733 a 0.46046433,0.46046433 0 0 0 -0.4609623,0.460445 0.46046433,0.46046433 0 0 0 0.4609623,0.460446 0.46046433,0.46046433 0 0 0 0.4604455,-0.460446 0.46046433,0.46046433 0 0 0 -0.4604455,-0.460445 z m 1.51518105,0 a 0.46046433,0.46046433 0 0 0 -0.46044555,0.460445 0.46046433,0.46046433 0 0 0 0.46044555,0.460446 0.46046433,0.46046433 0 0 0 0.46044554,-0.460446 0.46046433,0.46046433 0 0 0 -0.46044554,-0.460445 z"/></g></svg>