<svg xmlns="http://www.w3.org/2000/svg" xmlns:svg="http://www.w3.org/2000/svg" id="svg40692" width="34" height="34" version="1.1" viewBox="0 0 8.996 8.996"><g id="layer1" transform="translate(-109.42971,-161.7361)"><path id="path1694-1-9-0-1-3-6" fill="#cc0" fill-rule="evenodd" stroke="none" d="m 109.79351,170.46735 v -8.46667 h 8.46667 v 8.46667 h -8.46667" style="fill:#8080ff;fill-opacity:1;stroke-width:.264583"/><path id="path40223" style="fill:#fff;fill-opacity:1;stroke:none;stroke-width:.127256;stroke-dashoffset:14.7" d="m 115.58083,163.38148 c -0.41549,0.002 -0.82837,0.51954 -1.15909,0.79375 -0.65145,0.38292 -1.34145,-0.16134 -1.81658,-0.62374 -0.98386,-0.61066 -1.66727,1.03203 -2.64333,1.04542 l -0.16832,1.02526 0.0698,0.0625 c 0.74567,0.56474 1.51178,-0.14848 2.01885,-0.71934 0.77347,-0.17043 1.0057,1.27693 1.87778,0.90279 0.76012,-0.0147 1.16629,-1.55225 1.88878,-0.73277 0.42488,0.65043 1.16534,0.80493 1.85531,0.70124 0.77912,0.008 1.02482,-1.32389 0.50064,-1.7632 -0.6435,0.29846 -1.46927,0.17827 -1.93946,-0.41237 -0.15871,-0.20258 -0.32181,-0.28038 -0.48439,-0.27957 z m 0.11619,3.14916 c -0.41549,0.002 -0.82789,0.51954 -1.15861,0.79375 -0.65144,0.38293 -1.34193,-0.16134 -1.81705,-0.62374 -0.98386,-0.61065 -1.66727,1.03203 -2.64334,1.04542 l -0.16831,1.02526 0.0698,0.0625 c 0.74567,0.56474 1.51178,-0.14796 2.01884,-0.71882 0.77348,-0.17043 1.0057,1.27641 1.87779,0.90227 0.76012,-0.0147 1.16629,-1.55224 1.88877,-0.73277 0.42489,0.65044 1.16534,0.80493 1.85531,0.70125 0.77912,0.008 1.0253,-1.32338 0.50113,-1.76269 -0.64351,0.29846 -1.46975,0.17827 -1.93995,-0.41237 -0.15871,-0.20259 -0.3218,-0.2809 -0.48439,-0.28009 z"/><path style="color:#000;fill:#000;fill-opacity:1;stroke-width:.264583;stroke-linecap:round;stroke-linejoin:round;-inkscape-stroke:none" id="path424-1-5-6-6-1" d="m 109.69429,161.7361 a 0.26460979,0.26460979 0 0 0 -0.26458,0.26458 v 8.46667 a 0.26460979,0.26460979 0 0 0 0.26458,0.26458 h 8.46667 a 0.26460979,0.26460979 0 0 0 0.26458,-0.26458 v -8.46667 a 0.26460979,0.26460979 0 0 0 -0.26458,-0.26458 z m 0.26459,0.52917 h 7.9375 v 7.9375 h -7.9375 z"/><path id="path39757" style="fill:#fff;fill-opacity:1;stroke:none;stroke-width:.132292;stroke-dashoffset:14.7" d="m 112.42953,162.58153 -0.25167,0.33279 0.076,1.16376 0.3452,-0.006 0.0351,-1.16944 z m 3.26595,0.002 -0.25167,0.33279 0.076,1.16376 0.3452,-0.006 0.0351,-1.16944 z m -4.99918,0.83095 -0.076,1.16324 0.25115,0.33331 0.20464,-0.32142 -0.0346,-1.16944 z m 3.18688,0 -0.076,1.16324 0.25115,0.33331 0.20464,-0.32142 -0.0346,-1.16944 z m 3.24373,0 -0.076,1.16324 0.25115,0.33331 0.20464,-0.32142 -0.0346,-1.16944 z m -4.6917,1.75752 -0.25115,0.3328 0.076,1.16375 0.34468,-0.006 0.0351,-1.16944 z m 3.26595,0.002 -0.25115,0.3328 0.076,1.16375 0.34468,-0.006 0.0351,-1.16944 z m -4.99298,0.77825 -0.076,1.16375 0.25115,0.3328 0.20464,-0.32143 -0.0351,-1.16944 z m 3.18689,0 -0.076,1.16375 0.25114,0.3328 0.20464,-0.32143 -0.0351,-1.16944 z m 3.24373,0 -0.076,1.16375 0.25114,0.3328 0.20464,-0.32143 -0.0351,-1.16944 z m -4.71547,1.75751 -0.25115,0.33332 0.076,1.16323 0.3452,-0.006 0.0346,-1.16944 z m 3.26646,0.002 -0.25114,0.33332 0.076,1.16323 0.3452,-0.006 0.0346,-1.16944 z m -4.98781,0.83096 -0.076,1.16375 0.25166,0.3328 0.20464,-0.32143 -0.0351,-1.16943 z m 3.18689,0 -0.076,1.16375 0.25167,0.3328 0.20464,-0.32143 -0.0351,-1.16943 z m 3.24373,0 -0.076,1.16375 0.25167,0.3328 0.20464,-0.32143 -0.0351,-1.16943 z"/><path id="path36823-3-6" style="fill:#000;fill-opacity:1;stroke-width:.0755602" d="m 117.07265,162.5283 -0.003,0.003 -0.003,0.008 -0.004,0.008 -0.003,0.30851 0.005,0.0114 c 0.001,0.006 0.003,0.006 0.007,0.003 l 0.003,0.003 0.0455,0.002 -0.0217,0.41651 -0.18965,-0.006 -0.003,-0.003 -0.009,0.007 -5.3e-4,0.006 -0.006,0.01 0.001,0.24753 0.005,0.006 0.0103,0.006 0.1633,0.004 -0.0661,1.0325 0.004,0.0114 0.27336,0.34778 0.008,0.003 0.005,5.3e-4 0.0114,-0.004 0.25322,-0.34727 0.003,-0.002 0.002,-0.0109 -0.0527,-1.02836 0.15813,0.003 0.003,-0.002 0.0114,-0.004 0.006,-0.0103 10e-4,-0.24443 -0.002,-0.008 -0.005,-5.1e-4 5.3e-4,-0.005 -0.005,-5.2e-4 -0.005,-5.1e-4 -0.19379,0.002 -0.0103,-0.42013 0.0403,0.002 0.003,-0.003 0.0114,-0.004 0.006,-0.01 -0.003,-0.30954 -0.002,-0.003 -0.004,-0.0114 -0.0103,-0.006 -0.43201,-0.005 z m -6.42699,0.002 -0.003,0.002 -0.004,0.008 -0.003,0.008 -0.003,0.3085 0.004,0.0114 c 10e-4,0.006 0.004,0.007 0.008,0.004 l 0.003,0.003 0.0455,0.002 -0.0217,0.41703 -0.19017,-0.006 -0.002,-0.003 -0.009,0.007 -5.3e-4,0.005 -0.007,0.0103 0.002,0.24701 0.005,0.006 0.0103,0.006 0.1633,0.004 -0.0662,1.03249 0.004,0.0109 0.27286,0.34778 0.008,0.004 0.006,5.3e-4 0.0108,-0.004 0.25322,-0.34727 0.003,-0.003 10e-4,-0.0103 -0.0522,-1.02888 0.15813,0.003 0.003,-0.003 0.0108,-0.004 0.007,-0.01 10e-4,-0.24443 -0.002,-0.008 -0.005,-5.1e-4 5.3e-4,-0.005 -0.005,-0.001 -0.006,-5.1e-4 -0.19327,0.002 -0.0103,-0.41961 0.0398,0.001 0.003,-0.002 0.0114,-0.004 0.006,-0.0103 -0.003,-0.30902 -0.002,-0.003 -0.005,-0.0109 -0.01,-0.007 -0.43201,-0.004 z m 1.77922,0 -0.005,5.1e-4 -0.008,0.004 -0.27286,0.34778 -0.004,0.0108 0.0661,1.0325 -0.16381,0.004 -0.01,0.006 -0.005,0.006 -0.002,0.24701 0.006,0.0103 5.3e-4,0.005 0.009,0.007 0.003,-0.003 0.19017,-0.006 0.0212,0.41703 -0.0455,0.002 -0.002,0.003 c -0.004,-0.003 -0.007,-0.002 -0.008,0.004 l -0.004,0.0109 0.002,0.30902 0.004,0.007 0.004,0.008 0.003,0.003 0.006,-5.3e-4 0.4315,-0.004 0.0103,-0.007 0.004,-0.0108 0.003,-0.003 0.003,-0.30903 -0.007,-0.0103 -0.0109,-0.004 -0.003,-0.003 -0.0403,0.002 0.0103,-0.42013 0.19379,0.002 0.005,-5.1e-4 0.005,-5.2e-4 -5.3e-4,-0.005 0.006,-5.1e-4 0.002,-0.008 -0.001,-0.24443 -0.006,-0.01 -0.0114,-0.004 -0.003,-0.003 -0.15865,0.003 0.0527,-1.02887 -10e-4,-0.0109 -0.003,-0.002 -0.25321,-0.34727 z m 1.40404,0 -0.003,0.002 -0.003,0.008 -0.004,0.008 -0.003,0.3085 0.005,0.0114 c 0.001,0.006 0.004,0.007 0.008,0.004 l 0.002,0.003 0.0455,0.002 -0.0217,0.41703 -0.18965,-0.006 -0.003,-0.003 -0.009,0.007 -5.3e-4,0.005 -0.006,0.0103 0.001,0.24701 0.005,0.006 0.01,0.006 0.1633,0.004 -0.0661,1.03249 0.004,0.0109 0.27337,0.34778 0.008,0.004 0.005,5.3e-4 0.0114,-0.004 0.25322,-0.34727 0.003,-0.003 0.002,-0.0103 -0.0527,-1.02888 0.15813,0.003 0.003,-0.003 0.0114,-0.004 0.006,-0.01 0.001,-0.24443 -0.002,-0.008 -0.005,-5.1e-4 5.3e-4,-0.005 -0.005,-5.1e-4 -0.005,-0.001 h -0.002 l -0.19172,0.002 -0.0103,-0.41961 0.0403,0.001 0.003,-0.002 0.0114,-0.004 0.006,-0.0103 -0.003,-0.30903 -0.002,-0.003 -0.004,-0.0109 -0.0103,-0.007 -0.43202,-0.004 z m 1.85829,0 -0.005,5.1e-4 -0.008,0.004 -0.27285,0.34778 -0.004,0.0108 0.0661,1.0325 -0.16381,0.004 -0.01,0.006 -0.005,0.006 -0.002,0.24701 0.006,0.0103 5.3e-4,0.005 0.009,0.007 0.003,-0.003 0.19017,-0.006 0.0212,0.41703 -0.0455,0.002 -0.002,0.003 c -0.004,-0.003 -0.007,-0.002 -0.008,0.004 l -0.004,0.0109 0.002,0.30902 0.004,0.007 0.004,0.008 0.003,0.003 0.006,-5.3e-4 0.4315,-0.004 0.0103,-0.007 0.004,-0.0108 0.003,-0.003 0.003,-0.30903 -0.007,-0.0103 -0.0108,-0.004 -0.003,-0.003 -0.0403,0.002 0.0103,-0.42013 0.19379,0.002 0.005,-5.1e-4 0.005,-5.2e-4 -5.3e-4,-0.005 0.006,-5.1e-4 0.002,-0.008 -0.001,-0.24443 -0.006,-0.01 -0.0114,-0.004 -0.003,-0.003 -0.15813,0.003 0.0527,-1.02887 -0.001,-0.0109 -0.003,-0.002 -0.25321,-0.34727 z m -3.27164,0.11885 0.18242,0.30903 -0.0372,0.9679 -0.10438,0.003 -0.0109,-0.51986 -0.005,-0.0233 v -0.0832 h -5.3e-4 l -0.003,-0.0806 -0.004,-0.22221 -0.007,-0.0103 -0.008,-0.002 -0.006,-0.005 -0.008,0.004 -0.002,0.003 -0.005,0.0109 0.006,-5.2e-4 -0.0279,0.22583 5.3e-4,0.006 -0.003,0.003 0.0103,0.69454 h -0.10232 l -0.0444,-0.97565 z m 3.26234,0 0.18241,0.30903 -0.0372,0.9679 -0.10439,0.003 -0.0108,-0.51986 -0.005,-0.0233 -5.3e-4,-0.0832 -0.003,-0.0806 -0.004,-0.22221 -0.007,-0.0103 -0.008,-0.002 -0.006,-0.005 -0.008,0.004 -0.002,0.003 -0.005,0.0109 0.006,-5.2e-4 -0.0279,0.22583 5.3e-4,0.006 -0.003,0.003 0.0103,0.69453 h -0.10232 l -0.0444,-0.97565 z m 1.52859,0.22324 0.17673,0.002 0.016,0.42065 -0.20671,-0.003 z m -6.42752,0.002 0.17725,0.002 0.0155,0.42064 -0.20619,-0.003 z m 3.18379,0 0.17673,0.002 0.016,0.42064 -0.20671,-0.003 z m 3.3631,0.68988 0.10438,0.003 0.0372,0.9679 -0.18242,0.30902 -0.17828,-0.30334 0.0444,-0.97565 h 0.1018 l -0.01,0.69453 0.003,0.003 -5.3e-4,0.005 0.0274,0.22582 -0.005,-5.3e-4 0.004,0.0109 0.003,0.003 0.008,0.004 0.006,-0.005 0.008,-0.002 0.007,-0.01 0.004,-0.22272 0.003,-0.0801 5.3e-4,-0.0832 0.005,-0.0238 z m -6.42752,0.002 0.10491,0.003 0.0367,0.9679 -0.1819,0.30851 -0.17829,-0.30282 0.0439,-0.97566 h 0.10232 l -0.01,0.69454 0.002,0.003 -5.3e-4,0.006 0.0279,0.2253 -0.005,-5.2e-4 0.004,0.0114 0.003,0.003 0.007,0.003 0.006,-0.005 0.008,-0.002 0.006,-0.0103 0.004,-0.22221 0.003,-0.0806 5.3e-4,-0.0832 0.005,-0.0233 z m 3.18379,0 0.10439,0.003 0.0372,0.9679 -0.18242,0.30851 -0.17828,-0.30282 0.0444,-0.97566 h 0.10181 l -0.01,0.69454 0.003,0.003 -5.3e-4,0.006 0.0274,0.2253 -0.005,-5.2e-4 0.004,0.0114 0.003,0.003 0.008,0.003 0.006,-0.005 0.008,-0.002 0.007,-0.0103 0.004,-0.22221 0.003,-0.0806 5.3e-4,-0.0832 0.005,-0.0233 z m -1.55236,0.632 -0.0155,0.42065 -0.17725,0.002 -0.014,-0.42013 z m 3.26233,0 -0.0155,0.42065 -0.17725,0.002 -0.0139,-0.42013 z m 1.28054,0.88729 -0.003,0.002 -0.003,0.008 -0.004,0.008 -0.003,0.30851 0.005,0.0114 c 0.001,0.006 0.003,0.007 0.007,0.004 l 0.003,0.003 0.0455,0.002 -0.0217,0.41703 -0.18965,-0.006 -0.003,-0.003 -0.009,0.007 -5.3e-4,0.005 -0.006,0.0103 0.001,0.24701 0.005,0.006 0.0103,0.007 0.1633,0.003 -0.0661,1.0325 0.004,0.0114 0.27336,0.34778 0.008,0.004 0.005,5.3e-4 0.0114,-0.004 0.25322,-0.34726 0.003,-0.003 0.002,-0.0103 -0.0527,-1.02888 0.15813,0.003 0.003,-0.003 0.0114,-0.004 0.006,-0.0103 10e-4,-0.24391 -0.002,-0.008 -0.005,-5.3e-4 5.3e-4,-0.006 -0.005,-5.3e-4 -0.005,-5.3e-4 -0.19379,0.002 -0.0103,-0.42013 0.0403,0.002 0.003,-0.002 0.0114,-0.005 0.006,-0.01 -0.003,-0.30902 -0.002,-0.003 -0.004,-0.0114 -0.0103,-0.006 -0.43201,-0.004 z m -6.42699,0.002 -0.003,0.003 -0.004,0.008 -0.003,0.008 -0.003,0.30851 0.004,0.0109 c 10e-4,0.005 0.004,0.007 0.008,0.004 l 0.003,0.003 0.0455,0.002 -0.0217,0.41651 -0.19017,-0.006 -0.002,-0.003 -0.009,0.007 -5.3e-4,0.006 -0.007,0.01 0.002,0.24753 0.005,0.006 0.0103,0.006 0.1633,0.004 -0.0662,1.03249 0.004,0.0114 0.27286,0.34779 0.008,0.003 0.006,5.3e-4 0.0108,-0.004 0.25322,-0.34727 0.003,-0.002 10e-4,-0.0108 -0.0522,-1.02836 0.15813,0.003 0.003,-0.002 0.0108,-0.005 0.007,-0.01 10e-4,-0.24443 -0.002,-0.008 -0.005,-5.3e-4 5.3e-4,-0.005 -0.005,-5.3e-4 -0.006,-5.3e-4 -0.19327,0.002 -0.0103,-0.42012 0.0398,0.002 0.003,-0.003 0.0114,-0.004 0.006,-0.0103 -0.003,-0.30902 -0.002,-0.003 -0.005,-0.0114 -0.01,-0.007 -0.43201,-0.004 z m 1.77922,0 -0.005,5.3e-4 -0.008,0.004 -0.27286,0.34778 -0.004,0.0114 0.0661,1.03249 -0.16381,0.003 -0.01,0.007 -0.005,0.006 -0.002,0.24702 0.006,0.0103 5.3e-4,0.005 0.009,0.007 0.003,-0.003 0.19017,-0.006 0.0212,0.41703 -0.0455,0.002 -0.002,0.003 c -0.004,-0.003 -0.007,-0.002 -0.008,0.004 l -0.004,0.0114 0.002,0.30851 0.004,0.008 0.004,0.008 0.003,0.002 0.006,-5.3e-4 0.4315,-0.004 0.0103,-0.006 0.004,-0.0114 0.003,-0.003 0.003,-0.30902 -0.007,-0.01 -0.0109,-0.005 -0.003,-0.002 -0.0403,0.002 0.0103,-0.42013 0.19379,0.002 0.005,-5.3e-4 0.005,-5.3e-4 -5.3e-4,-0.006 0.006,-5.2e-4 0.002,-0.008 -0.001,-0.24392 -0.006,-0.0103 -0.0114,-0.004 -0.003,-0.003 -0.15865,0.003 0.0527,-1.02888 -10e-4,-0.0103 -0.003,-0.003 -0.25321,-0.34727 z m 1.40404,0 -0.003,0.003 -0.003,0.008 -0.004,0.008 -0.003,0.30851 0.005,0.0109 c 0.001,0.005 0.004,0.007 0.008,0.004 l 0.002,0.003 0.0455,0.002 -0.0217,0.41651 -0.18965,-0.006 -0.003,-0.003 -0.009,0.007 -5.3e-4,0.006 -0.006,0.01 0.001,0.24753 0.005,0.006 0.01,0.006 0.1633,0.004 -0.0661,1.03249 0.004,0.0114 0.27337,0.34779 0.008,0.003 0.005,5.3e-4 0.0114,-0.004 0.25322,-0.34727 0.003,-0.002 0.002,-0.0108 -0.0527,-1.02836 0.15813,0.003 0.003,-0.002 0.0114,-0.005 0.006,-0.01 0.001,-0.24443 -0.002,-0.008 -0.005,-5.3e-4 5.3e-4,-0.005 -0.005,-5.3e-4 -0.005,-5.3e-4 -0.19379,0.002 -0.0103,-0.42012 0.0403,0.002 0.003,-0.003 0.0114,-0.004 0.006,-0.0103 -0.003,-0.30902 -0.002,-0.003 -0.004,-0.0114 -0.0103,-0.007 -0.43201,-0.004 z m 1.85829,0 -0.005,5.3e-4 -0.008,0.004 -0.27285,0.34778 -0.004,0.0114 0.0661,1.03249 -0.16381,0.003 -0.01,0.007 -0.005,0.006 -0.002,0.24702 0.006,0.0103 5.3e-4,0.005 0.009,0.007 0.003,-0.003 0.19017,-0.006 0.0212,0.41703 -0.0455,0.002 -0.002,0.003 c -0.004,-0.003 -0.007,-0.002 -0.008,0.004 l -0.004,0.0114 0.002,0.30851 0.004,0.008 0.004,0.008 0.003,0.002 0.006,-5.3e-4 0.4315,-0.004 0.0103,-0.006 0.004,-0.0114 0.003,-0.003 0.003,-0.30902 -0.007,-0.01 -0.0108,-0.005 -0.003,-0.002 -0.0403,0.002 0.0103,-0.42013 0.19379,0.002 0.005,-5.3e-4 0.005,-5.3e-4 -5.3e-4,-0.006 0.006,-5.2e-4 0.002,-0.008 -0.001,-0.24392 -0.006,-0.0103 -0.0114,-0.004 -0.003,-0.003 -0.15813,0.003 0.0527,-1.02888 -0.001,-0.0103 -0.003,-0.003 -0.25321,-0.34727 z m -3.27164,0.11937 0.18242,0.30851 -0.0372,0.96842 -0.10438,0.003 -0.0109,-0.51987 -0.005,-0.0238 v -0.0832 h -5.3e-4 l -0.003,-0.0801 -0.004,-0.22273 -0.007,-0.01 -0.008,-0.002 -0.006,-0.005 -0.008,0.004 -0.002,0.003 -0.005,0.0114 0.006,-5.3e-4 -0.0279,0.22582 5.3e-4,0.005 -0.003,0.003 0.0103,0.69453 -0.10232,-5.3e-4 -0.0444,-0.97565 z m 3.26234,0 0.18241,0.30851 -0.0372,0.96842 -0.10439,0.003 -0.0108,-0.51987 -0.005,-0.0238 -5.3e-4,-0.0832 -0.003,-0.0801 -0.004,-0.22273 -0.007,-0.01 -0.008,-0.002 -0.006,-0.005 -0.008,0.004 -0.002,0.003 -0.005,0.0114 0.006,-5.3e-4 -0.0279,0.22582 5.3e-4,0.005 -0.003,0.003 0.0103,0.69453 -0.10232,-5.3e-4 -0.0444,-0.97565 z m 1.52859,0.22324 0.17673,0.002 0.016,0.42064 -0.20671,-0.003 z m -6.42752,0.002 0.17725,0.002 0.0155,0.42065 -0.20619,-0.003 z m 3.18379,0 0.17673,0.002 0.016,0.42065 -0.20671,-0.003 z m 3.3631,0.68988 0.10438,0.003 0.0372,0.96842 -0.18242,0.3085 -0.17828,-0.30282 0.0444,-0.97565 0.1018,-5.3e-4 -0.01,0.69453 0.003,0.003 -5.3e-4,0.005 0.0274,0.22582 -0.005,-5.2e-4 0.004,0.0114 0.003,0.003 0.008,0.004 0.006,-0.005 0.008,-0.002 0.007,-0.01 0.004,-0.22272 0.003,-0.0801 5.3e-4,-0.0832 0.005,-0.0238 z m -6.42752,0.002 0.10491,0.003 0.0367,0.9679 -0.1819,0.30903 -0.17829,-0.30334 0.0439,-0.97565 h 0.10232 l -0.01,0.69453 0.002,0.003 -5.3e-4,0.005 0.0279,0.22583 -0.005,-5.3e-4 0.004,0.0109 0.003,0.003 0.007,0.004 0.006,-0.005 0.008,-0.002 0.006,-0.0103 0.004,-0.22221 0.003,-0.0801 5.3e-4,-0.0832 0.005,-0.0238 z m 3.18379,0 0.10439,0.003 0.0372,0.9679 -0.18242,0.30903 -0.17828,-0.30334 0.0444,-0.97565 h 0.10181 l -0.01,0.69453 0.003,0.003 -5.3e-4,0.005 0.0274,0.22583 -0.005,-5.3e-4 0.004,0.0109 0.003,0.003 0.008,0.004 0.006,-0.005 0.008,-0.002 0.007,-0.0103 0.004,-0.22221 0.003,-0.0801 5.3e-4,-0.0832 0.005,-0.0238 z m -1.55236,0.63149 -0.0155,0.42064 -0.17725,0.002 -0.014,-0.42013 z m 3.26233,0 -0.0155,0.42064 -0.17725,0.002 -0.0139,-0.42013 z m 1.28054,0.88728 -0.003,0.003 -0.003,0.007 -0.004,0.008 -0.003,0.30902 0.005,0.0109 c 0.001,0.005 0.003,0.007 0.007,0.004 l 0.003,0.003 0.0455,0.002 -0.0217,0.41702 -0.18965,-0.006 -0.003,-0.003 -0.009,0.007 -5.3e-4,0.005 -0.006,0.0103 0.001,0.24701 0.005,0.006 0.0103,0.006 0.1633,0.004 -0.0661,1.0325 0.004,0.0109 0.27336,0.34778 0.008,0.004 0.005,5.3e-4 0.0114,-0.004 0.25322,-0.34726 0.003,-0.003 0.002,-0.0103 -0.0527,-1.02888 0.15813,0.003 0.003,-0.003 0.0114,-0.004 0.006,-0.01 10e-4,-0.24443 -0.002,-0.008 -0.005,-5.3e-4 5.3e-4,-0.005 -0.005,-5.3e-4 -0.005,-5.2e-4 -0.19379,0.002 -0.0103,-0.42013 0.0403,0.002 0.003,-0.003 0.0114,-0.004 0.006,-0.0103 -0.003,-0.30903 -0.002,-0.003 -0.004,-0.0109 -0.0103,-0.007 -0.43201,-0.004 z m -6.42699,0.002 -0.003,0.002 -0.004,0.008 -0.003,0.008 -0.003,0.30851 0.004,0.0114 c 10e-4,0.005 0.004,0.006 0.008,0.003 l 0.003,0.003 0.0455,0.002 -0.0217,0.41652 -0.19017,-0.006 -0.002,-0.003 -0.009,0.007 -5.3e-4,0.005 -0.007,0.01 0.002,0.24753 0.005,0.006 0.0103,0.007 0.1633,0.003 -0.0662,1.0325 0.004,0.0114 0.27286,0.34778 0.008,0.004 0.006,5.3e-4 0.0108,-0.005 0.25322,-0.34675 0.003,-0.003 10e-4,-0.0108 -0.0522,-1.02836 0.15813,0.003 0.003,-0.003 0.0108,-0.004 0.007,-0.0103 10e-4,-0.24392 -0.002,-0.008 -0.005,-0.001 5.3e-4,-0.005 -0.005,-5.3e-4 -0.006,-5.3e-4 -0.19327,0.002 -0.0103,-0.42013 0.0398,0.002 0.003,-0.003 0.0114,-0.004 0.006,-0.01 -0.003,-0.30902 -0.002,-0.003 -0.005,-0.0114 -0.01,-0.006 -0.43201,-0.004 z m 1.77922,0 -0.005,5.3e-4 -0.008,0.003 -0.27286,0.34779 -0.004,0.0114 0.0661,1.03249 -0.16381,0.004 -0.01,0.006 -0.005,0.006 -0.002,0.24753 0.006,0.01 5.3e-4,0.005 0.009,0.007 0.003,-0.003 0.19017,-0.006 0.0212,0.41651 -0.0455,0.002 -0.002,0.003 c -0.004,-0.003 -0.007,-0.002 -0.008,0.003 l -0.004,0.0114 0.002,0.30851 0.004,0.008 0.004,0.008 0.003,0.003 0.006,-5.3e-4 0.4315,-0.005 0.0103,-0.006 0.004,-0.0114 0.003,-0.003 0.003,-0.30955 -0.007,-0.01 -0.0109,-0.004 -0.003,-0.003 -0.0403,0.002 0.0103,-0.42013 0.19379,0.002 0.005,-5.3e-4 0.005,-5.3e-4 -5.3e-4,-0.005 0.006,-5.3e-4 0.002,-0.008 -0.001,-0.24443 -0.006,-0.0103 -0.0114,-0.004 -0.003,-0.002 -0.15865,0.003 0.0527,-1.02836 -10e-4,-0.0109 -0.003,-0.002 -0.25321,-0.34727 z m 1.40404,0 -0.003,0.002 -0.003,0.008 -0.004,0.008 -0.003,0.30851 0.005,0.0114 c 0.001,0.005 0.004,0.006 0.008,0.003 l 0.002,0.003 0.0455,0.002 -0.0217,0.41652 -0.18965,-0.006 -0.003,-0.003 -0.009,0.007 -5.3e-4,0.005 -0.006,0.0103 0.001,0.24701 0.005,0.006 0.01,0.007 0.1633,0.003 -0.0661,1.0325 0.004,0.0114 0.27337,0.34778 0.008,0.004 0.005,5.3e-4 0.0114,-0.004 0.25322,-0.34727 0.003,-0.003 0.002,-0.0108 -0.0527,-1.02836 0.15813,0.003 0.003,-0.003 0.0114,-0.004 0.006,-0.0103 0.001,-0.24392 -0.002,-0.008 -0.005,-5.2e-4 5.3e-4,-0.006 -0.005,-5.3e-4 -0.005,-5.3e-4 -0.19379,0.002 -0.0103,-0.42012 0.0403,0.002 0.003,-0.003 0.0114,-0.004 0.006,-0.01 -0.003,-0.30903 -0.002,-0.003 -0.004,-0.0114 -0.0103,-0.006 -0.43201,-0.004 z m 1.85829,0 -0.005,5.3e-4 -0.008,0.003 -0.27285,0.34779 -0.004,0.0114 0.0661,1.03249 -0.16381,0.004 -0.01,0.006 -0.005,0.006 -0.002,0.24753 0.006,0.01 5.3e-4,0.005 0.009,0.007 0.003,-0.003 0.19017,-0.006 0.0212,0.41651 -0.0455,0.002 -0.002,0.003 c -0.004,-0.003 -0.007,-0.002 -0.008,0.003 l -0.004,0.0114 0.002,0.30851 0.004,0.008 0.004,0.008 0.003,0.003 0.006,-5.3e-4 0.4315,-0.005 0.0103,-0.006 0.004,-0.0114 0.003,-0.003 0.003,-0.30955 -0.007,-0.01 -0.0108,-0.004 -0.003,-0.003 -0.0403,0.002 0.0103,-0.42013 0.19379,0.002 0.005,-5.3e-4 0.005,-5.3e-4 -5.3e-4,-0.005 0.006,-5.3e-4 0.002,-0.008 -0.001,-0.24443 -0.006,-0.0103 -0.0114,-0.004 -0.003,-0.002 -0.15813,0.003 0.0527,-1.02836 -0.001,-0.0109 -0.003,-0.002 -0.25321,-0.34727 z m -3.27164,0.11886 0.18242,0.30902 -0.0372,0.9679 -0.10438,0.003 -0.0109,-0.51987 -0.005,-0.0238 v -0.0832 h -5.3e-4 l -0.003,-0.0801 -0.004,-0.22272 -0.007,-0.01 -0.008,-0.002 -0.006,-0.005 -0.008,0.004 -0.002,0.003 -0.005,0.0114 0.006,-5.3e-4 -0.0279,0.22583 5.3e-4,0.005 -0.003,0.003 0.0103,0.69453 h -0.10232 l -0.0444,-0.97617 z m 3.26234,0 0.18241,0.30902 -0.0372,0.9679 -0.10439,0.003 -0.0108,-0.51987 -0.005,-0.0238 -5.3e-4,-0.0832 -0.003,-0.0801 -0.004,-0.22272 -0.007,-0.01 -0.008,-0.002 -0.006,-0.005 -0.008,0.004 -0.002,0.003 -0.005,0.0114 0.006,-5.3e-4 -0.0279,0.22583 5.3e-4,0.005 -0.003,0.003 0.0103,0.69453 h -0.10232 l -0.0444,-0.97617 z m 1.52859,0.22324 0.17673,0.002 0.016,0.42064 -0.20671,-0.003 z m -6.42752,0.002 0.17725,0.003 0.0155,0.42012 -0.20619,-0.002 z m 3.18379,0 0.17673,0.003 0.016,0.42012 -0.20671,-0.002 z m 3.3631,0.6904 0.10438,0.003 0.0372,0.9679 -0.18242,0.30903 -0.17828,-0.30334 0.0444,-0.97565 h 0.1018 l -0.01,0.69453 0.003,0.003 -5.3e-4,0.006 0.0274,0.22583 -0.005,-5.3e-4 0.004,0.0109 0.003,0.003 0.008,0.004 0.006,-0.005 0.008,-0.002 0.007,-0.0103 0.004,-0.22221 0.003,-0.0806 5.3e-4,-0.0832 0.005,-0.0232 z m -6.42752,0.002 0.10491,0.003 0.0367,0.96842 -0.1819,0.30851 -0.17829,-0.30283 0.0439,-0.97565 0.10232,-5.3e-4 -0.01,0.69454 0.002,0.003 -5.3e-4,0.005 0.0279,0.22583 -0.005,-5.3e-4 0.004,0.0114 0.003,0.003 0.007,0.004 0.006,-0.005 0.008,-0.002 0.006,-0.01 0.004,-0.22273 0.003,-0.0801 5.3e-4,-0.0832 0.005,-0.0238 z m 3.18379,0 0.10439,0.003 0.0372,0.96842 -0.18242,0.30851 -0.17828,-0.30283 0.0444,-0.97565 0.10181,-5.3e-4 -0.01,0.69454 0.003,0.003 -5.3e-4,0.005 0.0274,0.22583 -0.005,-5.3e-4 0.004,0.0114 0.003,0.003 0.008,0.004 0.006,-0.005 0.008,-0.002 0.007,-0.01 0.004,-0.22273 0.003,-0.0801 5.3e-4,-0.0832 0.005,-0.0238 z m -1.55236,0.632 -0.0155,0.42065 -0.17725,0.002 -0.014,-0.42013 z m 3.26233,0 -0.0155,0.42065 -0.17725,0.002 -0.0139,-0.42013 z"/></g></svg>