<?xml version="1.0" encoding="UTF-8" standalone="no"?>
<!-- Created with Inkscape (http://www.inkscape.org/) -->

<svg
   width="8.9958296mm"
   height="8.9958296mm"
   viewBox="0 0 8.9958296 8.9958296"
   version="1.1"
   id="svg40692"
   inkscape:version="1.2.2 (732a01da63, 2022-12-09)"
   sodipodi:docname="fiveWeapons.svg"
   xmlns:inkscape="http://www.inkscape.org/namespaces/inkscape"
   xmlns:sodipodi="http://sodipodi.sourceforge.net/DTD/sodipodi-0.dtd"
   xmlns="http://www.w3.org/2000/svg"
   xmlns:svg="http://www.w3.org/2000/svg">
  <sodipodi:namedview
     id="namedview40694"
     pagecolor="#ffffff"
     bordercolor="#000000"
     borderopacity="0.25"
     inkscape:showpageshadow="2"
     inkscape:pageopacity="0.0"
     inkscape:pagecheckerboard="0"
     inkscape:deskcolor="#d1d1d1"
     inkscape:document-units="mm"
     showgrid="false"
     inkscape:zoom="11.816274"
     inkscape:cx="10.959462"
     inkscape:cy="14.979341"
     inkscape:window-width="1920"
     inkscape:window-height="1009"
     inkscape:window-x="-8"
     inkscape:window-y="-8"
     inkscape:window-maximized="1"
     inkscape:current-layer="layer1" />
  <defs
     id="defs40689" />
  <g
     inkscape:label="Calque 1"
     inkscape:groupmode="layer"
     id="layer1"
     transform="translate(-109.42971,-161.7361)">
    <path
       fill="#cccc00"
       fill-rule="evenodd"
       stroke="none"
       d="m 109.69429,170.46735 v -8.46667 h 8.46667 v 8.46667 h -8.46667"
       id="path1694-1-9-0"
       style="fill:#b3b3b3;fill-opacity:1;stroke-width:0.264583"
       inkscape:export-filename="victoire.png"
       inkscape:export-xdpi="90.352943"
       inkscape:export-ydpi="90.352943" />
    <path
       id="path40223-9"
       style="fill:#ffffff;fill-opacity:1;stroke:none;stroke-width:0.127256;stroke-dashoffset:14.7"
       d="m 115.54471,163.42406 c -0.41549,0.002 -0.82837,0.51954 -1.15909,0.79375 -0.65144,0.38292 -1.34145,-0.16134 -1.81657,-0.62374 -0.98387,-0.61066 -1.66728,1.03203 -2.64334,1.04542 l -0.16831,1.02526 0.0698,0.0625 c 0.74567,0.56474 1.51178,-0.14848 2.01884,-0.71934 0.77347,-0.17043 1.0057,1.27693 1.87778,0.90279 0.76012,-0.0147 1.1663,-1.55225 1.88879,-0.73277 0.42488,0.65043 1.16533,0.80493 1.8553,0.70124 0.77912,0.008 1.02482,-1.32389 0.50065,-1.7632 -0.64351,0.29846 -1.46927,0.17827 -1.93947,-0.41237 -0.15871,-0.20259 -0.3218,-0.28038 -0.48439,-0.27957 z m 0.1162,3.14916 c -0.41549,0.002 -0.82789,0.51954 -1.15861,0.79375 -0.65145,0.38293 -1.34193,-0.16134 -1.81706,-0.62374 -0.98386,-0.61065 -1.66727,1.03203 -2.64333,1.04542 l -0.16832,1.02526 0.0698,0.0625 c 0.74567,0.56474 1.51178,-0.14796 2.01885,-0.71882 0.77347,-0.17043 1.0057,1.27641 1.87778,0.90227 0.76012,-0.0147 1.16629,-1.55224 1.88878,-0.73277 0.42488,0.65044 1.16534,0.80493 1.85531,0.70125 0.77912,0.008 1.02529,-1.32338 0.50112,-1.76269 -0.6435,0.29846 -1.46975,0.17827 -1.93994,-0.41237 -0.15871,-0.20259 -0.32181,-0.2809 -0.48439,-0.28009 z" />
    <path
       style="color:#000000;fill:#000000;fill-opacity:1;stroke-width:0.264583;stroke-linecap:round;stroke-linejoin:round;-inkscape-stroke:none"
       d="m 109.69429,161.7361 a 0.26460979,0.26460979 0 0 0 -0.26458,0.26458 v 8.46667 a 0.26460979,0.26460979 0 0 0 0.26458,0.26458 h 8.46667 a 0.26460979,0.26460979 0 0 0 0.26458,-0.26458 v -8.46667 a 0.26460979,0.26460979 0 0 0 -0.26458,-0.26458 z m 0.26459,0.52917 h 7.9375 v 7.9375 h -7.9375 z"
       id="path424-1-5" />
    <path
       id="path38993"
       style="fill:#ffffff;fill-opacity:1;stroke:none;stroke-width:0.132292;stroke-dashoffset:14.7"
       d="m 116.1647,163.47243 -0.36225,0.39171 1.21594,1.05833 0.60824,0.0584 -0.18707,-0.5612 z m -4.53667,0.0176 -0.36226,0.39171 1.21595,1.05833 0.60771,0.0584 -0.18706,-0.5612 z m 3.4742,1.42162 -0.56637,0.17053 -0.98444,1.24592 0.38086,0.37414 1.09399,-1.18443 z m -3.46232,3.41374 -0.36277,0.39171 1.21595,1.05782 0.60823,0.0584 -0.18707,-0.56121 z m 4.49017,0.0233 -0.36277,0.3917 1.21594,1.05834 0.60824,0.0584 -0.18707,-0.5612 z" />
    <path
       id="path36823-3"
       style="fill:#000000;fill-opacity:1;stroke-width:0.105351"
       d="m 110.70818,162.64405 -0.0155,0.005 -0.38447,0.46354 -0.005,0.005 v 0.005 l 0.005,0.0109 0.005,0.0103 0.33176,0.27389 0.016,0.005 c 0.007,0.004 0.0103,0.002 0.0103,-0.005 h 0.005 l 0.0424,-0.0475 0.43201,0.39015 -0.17415,0.19999 h -0.005 v 0.016 l 0.005,0.005 0.006,0.016 0.2682,0.21549 h 0.0109 l 0.0155,-0.005 0.1478,-0.17363 1.05885,0.97978 0.0155,0.005 0.6165,0.0103 0.0103,-0.005 0.005,-0.005 0.006,-0.016 -0.15297,-0.57929 v -0.005 l -0.0103,-0.0103 -1.1591,-0.84852 0.14211,-0.16847 v -0.005 l 0.006,-0.016 -0.006,-0.0155 -0.26304,-0.216 -0.0109,-0.005 -0.005,0.005 -0.005,-0.005 -0.005,0.005 -0.006,0.005 -0.16847,0.21084 -0.46354,-0.35812 0.0372,-0.0424 v -0.005 l 0.005,-0.016 -0.005,-0.0155 -0.33745,-0.26872 h -0.005 z m 4.52324,0 -0.016,0.005 -0.38447,0.46354 -0.005,0.005 v 0.005 l 0.005,0.0109 0.005,0.0103 0.33228,0.27389 0.0155,0.005 c 0.007,0.004 0.0109,0.002 0.0109,-0.005 h 0.005 l 0.0419,-0.0475 0.43201,0.39015 -0.17363,0.19999 h -0.005 v 0.016 l 0.005,0.005 0.005,0.016 0.26871,0.21549 h 0.0103 l 0.016,-0.005 0.14728,-0.17363 1.05885,0.97978 0.016,0.005 0.61598,0.0103 0.0109,-0.005 0.005,-0.005 0.005,-0.016 -0.15296,-0.57929 v -0.005 l -0.0103,-0.0103 -1.1591,-0.84852 0.14263,-0.16847 v -0.005 l 0.005,-0.016 -0.005,-0.0155 -0.26355,-0.216 -0.0103,-0.005 -0.006,0.005 -0.005,-0.005 -0.005,0.005 -0.005,0.005 -0.16847,0.21084 -0.46354,-0.35812 0.0367,-0.0424 v -0.005 l 0.005,-0.016 -0.005,-0.0155 -0.33693,-0.26872 h -0.006 z m -4.28087,0.44236 0.46922,0.35295 -0.18449,0.22117 -0.44235,-0.38447 z m 4.52324,0 0.4687,0.35295 -0.18448,0.22117 -0.44235,-0.38447 z m -3.73311,0.55862 1.08004,0.8108 0.17363,0.46922 -0.48421,-0.0739 -1.01699,-0.90589 0.0899,-0.11059 0.74259,0.62115 h 0.005 l 0.005,0.006 0.26872,0.16847 -0.005,0.005 0.0155,0.005 h 0.006 l 0.0103,-0.005 v -0.0103 l 0.005,-0.0109 -0.005,-0.0155 -0.2372,-0.20051 -0.0842,-0.0739 -0.0894,-0.0734 -0.0212,-0.0264 -0.55294,-0.46871 z m 4.52324,0 1.07952,0.8108 0.17415,0.46922 -0.48473,-0.0739 -1.01647,-0.90589 0.0894,-0.11111 0.74259,0.62167 h 0.005 l 0.006,0.006 0.2682,0.16847 -0.005,0.005 0.016,0.005 h 0.005 l 0.0103,-0.005 v -0.0103 l 0.006,-0.0109 -0.006,-0.0155 -0.23667,-0.20051 -0.0842,-0.0739 -0.0899,-0.0734 -0.0207,-0.0264 -0.55346,-0.46871 z m -1.13585,1.19889 -0.58343,0.13643 h -0.005 l -0.0109,0.0103 -0.88005,1.1343 -0.16484,-0.14676 h -0.005 l -0.0155,-0.006 -0.016,0.005 -0.22325,0.25734 -0.006,0.0103 0.005,0.006 -0.005,0.005 0.005,0.006 0.005,0.005 0.20567,0.17467 -0.37103,0.4532 -0.0408,-0.0382 h -0.006 l -0.0155,-0.006 -0.016,0.005 -0.27802,0.32918 v 0.005 l -0.006,0.016 0.005,0.0155 0.45269,0.3974 0.005,0.006 h 0.005 l 0.0109,-0.005 0.0109,-0.005 0.28267,-0.32401 0.006,-0.016 c 0.004,-0.007 0.002,-0.0101 -0.005,-0.0103 v -0.005 l -0.046,-0.0439 0.40153,-0.42064 0.19534,0.17931 v 0.005 l 0.0155,5.3e-4 0.006,-0.005 0.0155,-0.005 0.22376,-0.26251 v -0.0103 l -0.005,-0.016 -0.1695,-0.15245 1.00873,-1.03094 0.006,-0.0155 0.0279,-0.61599 -0.005,-0.0109 -0.005,-0.005 z m -0.0827,0.14004 -0.0873,0.48214 -0.93431,0.99116 -0.108,-0.0925 0.64234,-0.72554 v -0.005 l 0.005,-0.005 0.17621,-0.26355 0.005,0.005 0.006,-0.0155 v -0.005 l -0.005,-0.0109 h -0.0109 l -0.0103,-0.006 -0.016,0.005 -0.2067,0.23151 -0.076,0.0822 -0.076,0.0873 -0.0274,0.0202 -0.48369,0.54002 -0.108,-0.0977 0.84077,-1.05678 z m -1.52911,1.53273 0.21601,0.19068 -0.39688,0.4315 -0.185,-0.1633 z m -2.8081,1.00459 -0.0155,0.005 -0.38447,0.46354 -0.005,0.006 v 0.005 l 0.005,0.0103 0.005,0.0109 0.33176,0.27388 0.016,0.005 c 0.007,0.004 0.0103,0.002 0.0103,-0.005 h 0.005 l 0.0424,-0.0475 0.43201,0.38964 -0.17415,0.20051 h -0.005 v 0.0155 l 0.005,0.005 0.006,0.016 0.2682,0.21601 h 0.0109 l 0.0155,-0.005 0.1478,-0.17415 1.05885,0.97978 0.0155,0.005 0.6165,0.0109 0.0103,-0.005 0.005,-0.006 0.006,-0.0155 -0.15297,-0.57929 v -0.006 l -0.0103,-0.0103 -1.1591,-0.84801 0.14211,-0.16846 v -0.006 l 0.006,-0.0155 -0.006,-0.016 -0.26304,-0.21601 -0.0109,-0.005 -0.005,0.005 -0.005,-0.005 -0.005,0.005 -0.006,0.006 -0.16847,0.21031 -0.46354,-0.35811 0.0372,-0.0419 v -0.006 l 0.005,-0.0155 -0.005,-0.016 -0.33745,-0.26872 h -0.005 z m 4.52324,0 -0.016,0.005 -0.38447,0.46354 -0.005,0.006 v 0.005 l 0.005,0.0103 0.005,0.0109 0.33228,0.27388 0.0155,0.005 c 0.007,0.004 0.0109,0.002 0.0109,-0.005 h 0.005 l 0.0419,-0.0475 0.43201,0.38964 -0.17363,0.20051 h -0.005 v 0.0155 l 0.005,0.005 0.005,0.016 0.26871,0.216 h 0.0103 l 0.016,-0.005 0.14728,-0.17415 1.05885,0.97978 0.016,0.005 0.61598,0.0109 0.0109,-0.005 0.005,-0.006 0.005,-0.0155 -0.15296,-0.57929 v -0.006 l -0.0103,-0.0103 -1.1591,-0.84801 0.14263,-0.16847 v -0.006 l 0.005,-0.0155 -0.005,-0.016 -0.26355,-0.21601 -0.0103,-0.005 -0.006,0.005 -0.005,-0.005 -0.005,0.005 -0.005,0.006 -0.16847,0.21033 -0.46354,-0.35812 0.0367,-0.0419 v -0.006 l 0.005,-0.0155 -0.005,-0.016 -0.33693,-0.26872 h -0.006 z m -4.28087,0.44235 0.46922,0.35295 -0.18449,0.22169 -0.44235,-0.38499 z m 4.52324,0 0.4687,0.35295 -0.18448,0.22169 -0.44235,-0.38499 z m -3.73311,0.55862 1.08004,0.81132 0.17363,0.4687 -0.48421,-0.0739 -1.01699,-0.90589 0.0899,-0.11059 0.74259,0.62167 h 0.005 l 0.005,0.005 0.26872,0.16846 -0.005,0.005 0.0155,0.005 h 0.006 l 0.0103,-0.005 v -0.0103 l 0.005,-0.0103 -0.005,-0.016 -0.2372,-0.19999 -0.0842,-0.0739 -0.0894,-0.0739 -0.0212,-0.0264 -0.55294,-0.4687 z m 4.52324,0 1.07952,0.81132 0.17415,0.4687 -0.48473,-0.0739 -1.01647,-0.90589 0.0894,-0.11059 0.74259,0.62167 h 0.005 l 0.006,0.005 0.2682,0.16846 -0.005,0.005 0.016,0.005 h 0.005 l 0.0103,-0.005 v -0.0103 l 0.006,-0.0103 -0.006,-0.016 -0.23667,-0.19999 -0.0842,-0.0739 -0.0899,-0.0739 -0.0207,-0.0264 -0.55346,-0.4687 z" />
  </g>
</svg>
