<svg xmlns="http://www.w3.org/2000/svg" xmlns:svg="http://www.w3.org/2000/svg" id="svg31684" width="34" height="34" version="1.1" viewBox="0 0 8.996 8.996"><g id="layer1" transform="translate(-51.391107,-85.067826)"><path id="path1694-1-6-0-0-8" fill="#cc0" fill-rule="evenodd" stroke="none" d="m 51.655542,93.798846 v -8.46667 h 8.466665 v 8.46667 h -8.466665" style="fill:#fff;fill-opacity:1;stroke-width:.264583"/><path id="path27715-5-0-6-7-7" style="fill:#8080ff;fill-opacity:1;stroke-width:.387509;stroke-dashoffset:14.7" d="m 52.730635,85.332306 a 5.1924479,5.1924479 0 0 0 -1.074868,1.04025 v 2.77141 a 4.2031324,3.9688426 0 0 1 4.147548,-3.3321 4.2031324,3.9688426 0 0 1 4.203361,3.96875 4.2031324,3.9688426 0 0 1 -4.203361,3.96875 4.2031324,3.9688426 0 0 1 -4.147548,-3.3321 v 2.28255 a 5.1924479,5.1924479 0 0 0 1.153415,1.09916 h 5.896281 a 5.1924479,5.1924479 0 0 0 1.416969,-1.45159 v -5.62033 a 5.1924479,5.1924479 0 0 0 -1.318784,-1.39475 z m 2.99258,1.35083 a 3.276097,3.1458625 0 0 0 -3.276285,3.14606 3.276097,3.1458625 0 0 0 3.276285,3.14606 3.276097,3.1458625 0 0 0 3.276288,-3.14606 3.276097,3.1458625 0 0 0 -3.276288,-3.14606 z m 0,0.74052 a 2.5052734,2.4056812 0 0 1 2.505274,2.40554 2.5052734,2.4056812 0 0 1 -2.505274,2.40553 2.5052734,2.4056812 0 0 1 -2.505273,-2.40553 2.5052734,2.4056812 0 0 1 2.505273,-2.40554 z"/><path style="color:#000;fill:#000;fill-opacity:1;stroke-width:.264583;stroke-linecap:round;stroke-linejoin:round;-inkscape-stroke:none" id="path424-0-7-3-2" d="m 51.65569,85.067826 a 0.26460979,0.26460979 0 0 0 -0.264583,0.26458 v 8.46667 a 0.26460979,0.26460979 0 0 0 0.264583,0.26458 h 8.466665 a 0.26460979,0.26460979 0 0 0 0.264583,-0.26458 v -8.46667 a 0.26460979,0.26460979 0 0 0 -0.264583,-0.26458 z m 0.264582,0.52916 h 7.9375 v 7.9375 h -7.9375 z"/><path style="color:#000;fill:#fff;fill-opacity:1;stroke-width:.296333;stroke-dashoffset:14.7;-inkscape-stroke:none" id="path401-0-9-22-8" d="m 54.904345,89.208076 -0.887613,-0.61285 -0.88311,0.61933 0.30857,-1.03356 -0.861909,-0.6485 1.07832,-0.0259 0.350419,-1.02012 0.35787,1.01753 1.078482,0.018 -0.857145,0.65479 z"/><path style="color:#000;fill:#000;fill-opacity:1;stroke-width:.264583;stroke-dashoffset:14.7;-inkscape-stroke:none" id="path403-8-6-7-4" d="m 54.007582,86.035296 -0.455784,1.3255 -1.401466,0.0336 1.120346,0.84284 -0.40101,1.34359 1.147733,-0.80512 1.153419,0.79633 -0.125058,-0.40721 -0.285771,-0.93276 1.114145,-0.85111 -1.401464,-0.0232 z m 0.0031,0.90227 0.250632,0.71261 0.754991,0.0129 -0.599961,0.45837 0.221173,0.72244 -0.621668,-0.42943 -0.618047,0.43357 0.216005,-0.72348 -0.60358,-0.45423 0.754993,-0.0181 z"/><path id="path2565-9-2-5-4-5" style="stroke-width:.0099182" d="m 55.836923,85.900666 c -0.09885,0.0145 -0.1959,0.0446 -0.276986,0.0879 -0.182605,0.0973 -0.277292,0.30225 -0.258382,0.51832 0.01441,0.16466 0.09083,0.40063 0.434082,1.4273 l 0.335897,1.00407 v 0.0574 c -0.04469,-0.0271 -0.08492,-0.066 -0.131775,-0.0822 -0.09685,-0.0335 -0.205559,-0.0359 -0.315226,-0.0258 -0.109668,0.0101 -0.214976,0.0314 -0.303341,0.0832 -0.115826,0.0679 -0.199463,0.17554 -0.236161,0.30075 -0.02907,0.0992 -0.01145,0.21213 0.01033,0.32505 -0.173264,-0.0201 -0.34013,-0.004 -0.45992,0.0946 -0.173296,0.14294 -0.198508,0.39702 -0.115755,0.63717 0.02821,0.0819 0.02429,0.0602 0.02429,0.1881 0,0.47976 0.08964,0.88686 0.287837,1.30586 0.05354,0.12206 0.164083,0.2062 0.240813,0.27802 0.09245,0.0832 0.178599,0.16034 0.205672,0.18397 v 0.17932 c 0,0.10793 -3.44e-4,0.16586 0.0026,0.20825 0.0015,0.0212 0.002,0.0387 0.01292,0.0677 0.01087,0.029 0.05289,0.0714 0.07803,0.0816 0.278614,0.11385 0.664168,0.19028 1.043864,0.21187 0.454935,0.0259 0.872291,-0.0334 1.457275,-0.20412 l 0.03256,-0.009 c 0.05294,-0.0153 0.08939,-0.0637 0.0894,-0.11886 v -0.30747 -0.26614 l 0.09612,-0.12764 c 0.145195,-0.1939 0.336785,-0.48134 0.442867,-0.66404 0.0503,-0.0866 0.112806,-0.2058 0.163815,-0.30954 0.02551,-0.0519 0.0477,-0.0997 0.06459,-0.13798 0.0084,-0.0192 0.01544,-0.0358 0.02119,-0.0512 0.0057,-0.0154 0.01447,-0.01 0.01447,-0.0667 1e-6,-0.0812 -0.0231,-0.16384 -0.05374,-0.27182 -0.03064,-0.10798 -0.07039,-0.22628 -0.111105,-0.32349 1e-6,-1.8e-4 1e-6,-3.5e-4 0,-5.3e-4 l -0.03101,-0.0734 -0.01137,-0.38344 c -0.0067,-0.22506 -0.01551,-0.44239 -0.02429,-0.5209 -0.01078,-0.0964 -0.01509,-0.0592 0.0036,-0.11576 0.147803,-0.44701 0.293846,-0.89225 0.40721,-1.2423 0.113364,-0.35004 0.192199,-0.59712 0.213424,-0.67437 0.07492,-0.27272 0.09387,-0.4266 0.03462,-0.56483 -0.06388,-0.14899 -0.202639,-0.25482 -0.359676,-0.30332 -0.198162,-0.0612 -0.401717,-0.0333 -0.571025,0.0842 -0.169308,0.11757 -0.308822,0.31124 -0.440283,0.57878 -0.06842,0.13923 -0.159097,0.35598 -0.541053,1.29242 -0.01752,0.043 -0.013,0.0313 -0.02739,0.0662 -0.04182,-0.13672 -0.112411,-0.36876 -0.243396,-0.79944 -0.155093,-0.50994 -0.2275,-0.74978 -0.271818,-0.8847 -0.04432,-0.13491 -0.06443,-0.17231 -0.09974,-0.24391 -0.128782,-0.26118 -0.31208,-0.43551 -0.544669,-0.48369 -0.08945,-0.0185 -0.190535,-0.0197 -0.289388,-0.005 z"/><path id="path2636-5-4-3-3-9" style="fill:#8080ff;fill-opacity:1;stroke-width:.0460388;stroke-dashoffset:14.7" d="m 55.965598,86.134756 c -0.356572,-0.0299 -0.435253,0.38495 -0.29559,0.64027 0.236048,0.72705 0.464449,1.45733 0.726054,2.17558 0.148495,0.20879 0.493947,0.0911 0.718998,0.16952 0.170861,0.0259 0.35126,0.0293 0.516306,0.0689 0.184185,0.16183 0.342305,0.35287 0.48449,0.55227 0.208637,0.11756 0.165584,-0.17802 0.172674,-0.30277 0.01144,-0.19859 -0.01739,-0.40408 0.0674,-0.59037 0.201337,-0.65616 0.437685,-1.3029 0.597813,-1.97061 0.108114,-0.32925 -0.355202,-0.4711 -0.559143,-0.27643 -0.225356,0.28604 -0.322956,0.64942 -0.481017,0.97408 -0.169159,0.39365 -0.340009,0.78661 -0.504662,1.18218 -0.258912,0.0466 -0.365829,-0.10147 -0.392453,-0.34189 -0.215199,-0.65582 -0.381395,-1.32915 -0.63554,-1.97123 -0.07711,-0.15962 -0.224522,-0.31538 -0.415332,-0.30946 z m 0.510046,2.94918 c -0.234844,0.12541 0.0065,0.51168 0.189584,0.615 0.157251,0.15976 0.576686,0.12783 0.642433,0.21167 0.0087,0.20979 0.0065,0.42172 0.0501,0.62802 -0.187631,-0.007 -0.107222,-0.31613 -0.145288,-0.46675 0.0206,-0.19559 -0.230423,-0.1604 -0.351411,-0.21624 -0.146873,-0.10962 -0.536801,-0.17453 -0.354643,0.11706 0.115822,0.24912 0.33725,0.56651 0.139893,0.82974 -0.182836,0.16772 -0.455732,0.11791 -0.668828,0.0457 -0.182336,0.0326 -0.124738,0.34845 -0.351098,0.35474 -0.291422,0.0893 -0.444366,-0.19427 -0.639025,-0.32994 -0.229965,0.0799 0.0083,0.40018 0.008,0.57 0.0501,0.1591 0.07375,0.34452 0.226074,0.44145 0.120598,0.11002 0.241175,0.22005 0.361755,0.33008 0.01489,0.13299 -0.0098,0.2741 0.03499,0.40095 0.220519,0.10403 0.480202,0.10428 0.717937,0.15354 0.434125,0.0159 0.875332,0.005 1.293978,-0.1235 0.133381,-0.11515 0.06306,-0.33724 0.09062,-0.4994 -0.02873,-0.11407 0.05642,-0.18682 0.119889,-0.26818 0.257571,-0.34535 0.480053,-0.72002 0.655988,-1.11274 -0.09282,-0.38083 -0.277458,-0.74484 -0.503444,-1.06576 -0.143674,-0.17042 -0.261583,-0.38583 -0.458144,-0.49867 -0.353087,-0.039 -0.707044,-0.0716 -1.059355,-0.11679 z m -0.755509,0.045 c -0.315287,-0.0262 -0.446857,0.3442 -0.313598,0.58881 0.17788,0.36652 0.324708,0.77373 0.634829,1.05255 0.259956,0.2694 0.764918,-0.0342 0.553133,-0.38613 -0.187411,-0.38855 -0.353922,-0.79814 -0.623889,-1.13812 -0.06396,-0.0701 -0.154098,-0.11817 -0.250475,-0.11711 z m -0.638204,0.68885 c -0.311604,-0.0297 -0.374921,0.34887 -0.212547,0.54764 0.149147,0.26174 0.243126,0.58751 0.505035,0.76133 0.249235,0.14974 0.568145,-0.12875 0.433857,-0.39377 -0.12904,-0.29367 -0.254717,-0.61195 -0.49283,-0.83583 -0.06486,-0.0552 -0.148419,-0.083 -0.233515,-0.0794 z"/><path id="path2636-5-0-7-2-93-9" style="fill:#fff;fill-opacity:1;stroke-width:.0460388;stroke-dashoffset:14.7" d="m 55.9656,86.134756 c -0.121476,0 -0.2275,0.0401 -0.297657,0.12351 -0.02103,0.025 -0.04194,0.0559 -0.05219,0.092 -0.01024,0.0361 -0.01085,0.0696 -0.01085,0.11266 0,0.0589 0.0055,0.11655 0.06511,0.31212 0.04167,0.13668 0.12767,0.40105 0.24288,0.75138 -0.05321,-0.19058 -0.102825,-0.38076 -0.07803,-0.58343 -0.106407,-0.44308 0.329108,-0.56658 0.597898,-0.37465 -0.0639,-0.16459 -0.110501,-0.23185 -0.166399,-0.29249 -0.08883,-0.0964 -0.183777,-0.14108 -0.300755,-0.14108 z m 2.686658,0.38344 c -0.0526,0 -0.10187,0.002 -0.152447,0.0186 -0.05057,0.0168 -0.09714,0.0506 -0.13539,0.0961 -0.07651,0.091 -0.137639,0.22757 -0.248566,0.47749 -0.06783,0.15283 -0.234283,0.53804 -0.390157,0.90124 -0.08073,0.18812 -0.110765,0.26056 -0.168465,0.39636 0.932706,-1.73798 0.846854,-1.4778 1.405083,-1.65107 -7.94e-4,-0.0141 -0.0019,-0.0279 -0.0047,-0.0413 -0.0131,-0.0631 -0.05603,-0.10913 -0.08785,-0.13591 -0.02418,-0.0203 -0.05703,-0.0421 -0.09457,-0.0517 -0.03754,-0.01 -0.07255,-0.01 -0.122989,-0.01 z m -2.176613,2.56574 c -0.06215,-0.01 -0.115459,0.0444 -0.104902,0.10645 l 0.01085,0.0646 c 0.01204,0.0725 0.0364,0.14493 0.06873,0.2098 0.64202,-0.01 0.879118,0.004 1.291913,-0.0811 -0.03703,-0.0424 -0.07142,-0.0792 -0.09922,-0.10594 -1.77e-4,0 -2.64e-4,0 -5.29e-4,0 l -0.05374,-0.0517 c -0.01463,-0.0142 -0.03352,-0.023 -0.05374,-0.0253 l -0.480592,-0.0512 c -0.132085,-0.014 -0.258275,-0.0277 -0.354502,-0.0382 -0.09594,-0.0105 -0.168632,-0.019 -0.173114,-0.0196 h -5.29e-4 z m -0.75551,0.045 c -0.02432,-10e-5 -0.04748,0.002 -0.07028,0.006 -0.118774,0.0178 -0.220493,0.0851 -0.263552,0.1881 -0.03786,0.0906 -0.0336,0.19655 -0.0036,0.31368 0.152832,0.49137 0.284986,0.64783 0.415997,0.85111 -0.527484,-0.90973 -0.13539,-1.62563 0.49852,-0.71534 l -0.203449,-0.36108 c -0.01633,-0.0254 -0.0331,-0.0525 -0.04857,-0.0739 -0.0504,-0.0698 -0.09781,-0.12107 -0.151929,-0.15658 -0.05411,-0.0355 -0.115371,-0.0514 -0.173117,-0.0517 z m -0.638204,0.68885 c -0.06189,1.9e-4 -0.123481,0.009 -0.18035,0.0434 -0.07363,0.0449 -0.129202,0.13295 -0.123508,0.22634 0.0057,0.0934 0.04713,0.19009 0.115755,0.32763 0.134284,0.26913 0.223877,0.43577 0.304374,0.5457 -0.351795,-0.90505 -0.02825,-1.08236 0.379825,-0.70951 -0.12056,-0.21838 -0.20434,-0.32306 -0.315224,-0.39068 -0.05667,-0.0346 -0.118613,-0.0431 -0.180869,-0.0429 z"/></g></svg>