<?xml version="1.0" encoding="UTF-8" standalone="no"?>
<!-- Created with Inkscape (http://www.inkscape.org/) -->

<svg
   width="8.9958324mm"
   height="8.9958324mm"
   viewBox="0 0 8.9958324 8.9958324"
   version="1.1"
   id="svg31684"
   inkscape:version="1.2.2 (732a01da63, 2022-12-09)"
   sodipodi:docname="flawless.svg"
   xmlns:inkscape="http://www.inkscape.org/namespaces/inkscape"
   xmlns:sodipodi="http://sodipodi.sourceforge.net/DTD/sodipodi-0.dtd"
   xmlns="http://www.w3.org/2000/svg"
   xmlns:svg="http://www.w3.org/2000/svg">
  <sodipodi:namedview
     id="namedview31686"
     pagecolor="#ffffff"
     bordercolor="#000000"
     borderopacity="0.25"
     inkscape:showpageshadow="2"
     inkscape:pageopacity="0.0"
     inkscape:pagecheckerboard="0"
     inkscape:deskcolor="#d1d1d1"
     inkscape:document-units="mm"
     showgrid="false"
     inkscape:zoom="4.1776837"
     inkscape:cx="-27.048482"
     inkscape:cy="44.761647"
     inkscape:window-width="1920"
     inkscape:window-height="1009"
     inkscape:window-x="-8"
     inkscape:window-y="-8"
     inkscape:window-maximized="1"
     inkscape:current-layer="layer1" />
  <defs
     id="defs31681" />
  <g
     inkscape:label="Calque 1"
     inkscape:groupmode="layer"
     id="layer1"
     transform="translate(-51.391107,-85.067826)">
    <path
       fill="#cccc00"
       fill-rule="evenodd"
       stroke="none"
       d="m 51.655542,93.798844 v -8.466665 h 8.466665 v 8.466665 h -8.466665"
       id="path1694-1-6-0-0"
       style="fill:#ffffff;fill-opacity:1;stroke-width:0.264583"
       inkscape:export-filename="victoire.png"
       inkscape:export-xdpi="90.352943"
       inkscape:export-ydpi="90.352943" />
    <path
       id="path27715-5-0-6-7"
       style="fill:#9e009e;fill-opacity:1;stroke-width:0.387509;stroke-dashoffset:14.7"
       d="m 52.730635,85.332311 a 5.1924479,5.1924479 0 0 0 -1.074868,1.040246 v 2.771407 a 4.2031324,3.9688426 0 0 1 4.147548,-3.332096 4.2031324,3.9688426 0 0 1 4.203362,3.968749 4.2031324,3.9688426 0 0 1 -4.203362,3.96875 4.2031324,3.9688426 0 0 1 -4.147548,-3.332096 v 2.282548 a 5.1924479,5.1924479 0 0 0 1.153415,1.099158 h 5.896282 a 5.1924479,5.1924479 0 0 0 1.416968,-1.451591 v -5.620329 a 5.1924479,5.1924479 0 0 0 -1.318784,-1.394746 z m 2.99258,1.350822 a 3.276097,3.1458625 0 0 0 -3.276285,3.14606 3.276097,3.1458625 0 0 0 3.276285,3.146061 3.276097,3.1458625 0 0 0 3.276288,-3.146061 3.276097,3.1458625 0 0 0 -3.276288,-3.14606 z m 0,0.740522 a 2.5052734,2.4056812 0 0 1 2.505274,2.405538 2.5052734,2.4056812 0 0 1 -2.505274,2.405538 2.5052734,2.4056812 0 0 1 -2.505273,-2.405538 2.5052734,2.4056812 0 0 1 2.505273,-2.405538 z" />
    <path
       style="color:#000000;fill:#000000;fill-opacity:1;stroke-width:0.264583;stroke-linecap:round;stroke-linejoin:round;-inkscape-stroke:none"
       d="m 51.65569,85.067826 a 0.26460979,0.26460979 0 0 0 -0.264583,0.264583 v 8.466666 a 0.26460979,0.26460979 0 0 0 0.264583,0.264583 h 8.466665 a 0.26460979,0.26460979 0 0 0 0.264584,-0.264583 v -8.466666 a 0.26460979,0.26460979 0 0 0 -0.264584,-0.264583 z m 0.264582,0.529166 h 7.9375 v 7.937499 h -7.9375 z"
       id="path424-0-7-3" />
    <path
       style="color:#000000;fill:#9e009e;fill-opacity:1;stroke-width:0.296333;stroke-dashoffset:14.7;-inkscape-stroke:none"
       d="m 54.904345,89.20808 -0.887613,-0.612853 -0.88311,0.619326 0.30857,-1.033553 -0.861909,-0.648505 1.07832,-0.02592 0.350419,-1.020123 0.35787,1.017534 1.078482,0.01803 -0.857144,0.654789 z"
       id="path401-0-9-22" />
    <path
       style="color:#000000;fill:#000000;fill-opacity:1;stroke-width:0.264583;stroke-dashoffset:14.7;-inkscape-stroke:none"
       d="m 54.007583,86.035293 -0.455785,1.325501 -1.401466,0.03359 1.120347,0.842842 -0.401011,1.343588 1.147733,-0.805119 1.15342,0.796334 -0.125058,-0.407211 -0.285772,-0.932759 1.114145,-0.851111 -1.401464,-0.02325 z m 0.0031,0.902271 0.250632,0.712618 0.754991,0.01292 -0.599961,0.45837 0.221173,0.722436 -0.621667,-0.429431 -0.618048,0.433565 0.216006,-0.72347 -0.603581,-0.454235 0.754993,-0.01809 z"
       id="path403-8-6-7" />
    <path
       id="path2565-9-2-5-4"
       style="fill:#000000;fill-opacity:1;stroke-width:0.0374861"
       sodipodi:type="inkscape:offset"
       inkscape:radius="0.46762317"
       inkscape:original="M 14.375 3.2460938 C 13.886026 3.1448029 13.000341 3.2740587 12.550781 3.5136719 C 12.032609 3.7898545 11.761733 4.3501981 11.820312 5.0195312 C 11.864159 5.5205524 12.140796 6.4281482 13.4375 10.306641 L 14.730469 14.173828 L 14.730469 14.769531 L 14.730469 15.365234 L 14.529297 15.173828 C 14.256674 14.915993 13.916014 14.702258 13.613281 14.597656 C 13.109092 14.423447 12.111405 14.515183 11.664062 14.777344 C 10.977066 15.179951 10.748841 15.960665 11.033203 16.927734 C 11.084703 17.10289 11.121534 17.251513 11.115234 17.257812 C 11.108886 17.264153 10.95422 17.241401 10.771484 17.207031 C 10.110447 17.082686 9.4679954 17.180566 9.1328125 17.457031 C 8.6843205 17.826956 8.5699467 18.568334 8.8398438 19.351562 C 8.9499348 19.670979 8.9570312 19.726843 8.9570312 20.214844 C 8.9570312 21.971303 9.2770358 23.422777 10 24.951172 C 10.147017 25.261976 10.166832 25.28328 10.800781 25.853516 C 11.158235 26.175045 11.514477 26.493367 11.591797 26.560547 L 11.732422 26.681641 L 11.732422 27.574219 C 11.732422 28.388323 11.736985 28.467717 11.796875 28.492188 C 12.775449 28.892054 14.203091 29.180786 15.591797 29.259766 C 17.256455 29.354443 18.760027 29.143085 20.943359 28.505859 L 21.066406 28.470703 L 21.066406 27.308594 L 21.066406 26.146484 L 21.521484 25.539062 C 22.055406 24.826026 22.781809 23.737874 23.166016 23.076172 C 23.526559 22.455224 24.101562 21.285443 24.101562 21.173828 C 24.101563 20.851136 23.799862 19.786791 23.513672 19.103516 L 23.363281 18.746094 L 23.318359 17.208984 C 23.293069 16.363673 23.252736 15.495779 23.228516 15.279297 C 23.187286 14.910668 23.188222 14.870777 23.263672 14.642578 C 24.380342 11.265297 25.467053 7.9114888 25.601562 7.421875 C 25.878208 6.414888 25.914983 5.9695283 25.753906 5.59375 C 25.601925 5.2391938 25.128559 4.8477701 24.685547 4.7109375 C 23.407945 4.3163266 22.376915 5.0329918 21.421875 6.9765625 C 21.176168 7.4765918 20.833956 8.2914503 19.390625 11.830078 C 18.721119 13.471522 18.798295 13.344397 18.695312 12.992188 C 18.662158 12.878791 18.574753 12.592569 18.501953 12.355469 C 18.363325 11.903948 18.0329 10.81664 17.486328 9.0195312 C 16.313883 5.1645793 16.383569 5.3802987 16.109375 4.8242188 C 15.661073 3.9150384 15.089074 3.3940138 14.375 3.2460938 z M 13.796875 3.9648438 C 14.1147 3.9496484 14.146297 3.9548079 14.376953 4.0683594 C 14.697539 4.2261836 14.931958 4.5108718 15.197266 5.0585938 C 15.43871 5.5570487 15.474438 5.6608099 15.988281 7.3515625 C 16.207586 8.0731694 16.526751 9.1191129 16.697266 9.6757812 C 16.867781 10.23245 17.215621 11.364914 17.46875 12.193359 C 17.721881 13.021804 17.938782 13.714685 17.951172 13.734375 C 17.976222 13.774181 19.483178 13.913296 19.517578 13.878906 C 19.529515 13.866968 19.696066 13.489918 19.886719 13.041016 C 23.054151 5.5831214 22.978305 5.7419307 23.455078 5.5078125 C 23.64728 5.4134324 23.710704 5.4011438 24.027344 5.4023438 C 24.334179 5.4035088 24.407089 5.4165127 24.550781 5.4960938 C 24.789761 5.628449 24.871088 5.7885516 24.867188 6.1132812 C 24.860854 6.6360728 24.711981 7.1770877 23.708984 10.330078 C 23.325308 11.536192 22.901923 12.870314 22.767578 13.292969 C 22.633232 13.715625 22.483054 14.187167 22.433594 14.341797 C 22.346904 14.612838 22.342384 14.668989 22.333984 15.888672 C 22.329204 16.584507 22.316627 17.152344 22.304688 17.152344 C 22.292742 17.152344 22.172686 16.996914 22.039062 16.806641 C 21.653174 16.257159 21.127957 15.658176 20.587891 15.150391 L 20.279297 14.859375 L 20.007812 14.826172 C 19.500409 14.763765 15.849136 14.341797 15.816406 14.341797 C 15.798519 14.341797 15.664476 13.975771 15.517578 13.527344 C 15.37068 13.078917 14.772404 11.261372 14.1875 9.4882812 C 12.750991 5.1336208 12.807034 5.3251601 12.802734 4.9121094 C 12.799429 4.5955869 12.808278 4.5579063 12.914062 4.3867188 C 13.082113 4.114771 13.351042 3.9861598 13.796875 3.9648438 z M 15.742188 15.125 L 15.902344 15.146484 C 16.060021 15.167955 16.895184 15.257151 18.8125 15.457031 L 19.802734 15.560547 L 20.167969 15.953125 C 21.053883 16.905993 21.79654 17.97048 22.302734 19.009766 C 22.560891 19.539797 22.696957 19.872124 22.941406 20.582031 L 23.121094 21.105469 L 22.732422 21.875 C 21.96895 23.387998 21.129627 24.705034 20.341797 25.623047 L 20.167969 25.826172 L 20.15625 26.876953 L 20.146484 27.927734 L 19.847656 28.013672 C 19.412644 28.138601 18.532667 28.312749 17.992188 28.380859 C 17.434707 28.451109 16.138584 28.48216 15.609375 28.4375 C 14.816568 28.370589 13.657593 28.173978 13.005859 27.996094 L 12.761719 27.929688 L 12.751953 27.214844 L 12.742188 26.498047 L 11.814453 25.65625 L 10.888672 24.8125 L 10.751953 24.441406 C 10.676698 24.237164 10.544977 23.824343 10.460938 23.525391 C 10.306917 22.977478 10.067664 21.861462 10.089844 21.794922 C 10.096425 21.775179 10.219416 21.912268 10.361328 22.099609 C 10.863085 22.76199 11.301471 23.076826 11.839844 23.160156 C 12.164822 23.210458 12.581805 23.162857 12.912109 23.037109 C 13.317388 22.882818 13.672367 22.440037 13.796875 21.931641 C 13.821855 21.829633 13.844256 21.741128 13.847656 21.736328 C 13.851094 21.731566 13.973595 21.778694 14.119141 21.839844 C 14.557635 22.024079 14.844898 22.075451 15.292969 22.050781 C 15.959921 22.014059 16.365756 21.858748 16.675781 21.519531 C 16.894719 21.279978 17.004047 21.017483 17.060547 20.597656 C 17.135834 20.038224 16.989838 19.583939 16.318359 18.287109 C 16.102183 17.869608 15.931053 17.527344 15.939453 17.527344 C 15.947877 17.527344 16.105321 17.601959 16.289062 17.693359 C 16.702645 17.899084 17.309672 18.099447 17.839844 18.205078 L 18.242188 18.285156 L 18.267578 18.806641 C 18.293486 19.376187 18.368555 19.949632 18.472656 20.357422 L 18.539062 20.621094 L 18.984375 20.630859 C 19.229303 20.636749 19.450569 20.6342 19.474609 20.625 C 19.506789 20.612653 19.499359 20.526913 19.449219 20.296875 C 19.307014 19.644434 19.252406 19.069269 19.253906 18.267578 L 19.255859 17.490234 L 19.076172 17.490234 C 18.785338 17.490234 18.069184 17.385942 17.671875 17.285156 C 16.923082 17.095209 16.307979 16.694695 16.015625 16.208984 C 15.884317 15.990832 15.742188 15.505943 15.742188 15.271484 L 15.742188 15.125 z M 12.794922 15.289062 C 13.125701 15.26251 13.36381 15.347056 13.623047 15.583984 C 14.005564 15.933583 14.076367 16.054052 15.208984 18.277344 C 16.03549 19.899752 16.154438 20.21535 16.080078 20.607422 C 16.034836 20.845982 15.901424 21.02677 15.693359 21.134766 C 15.575952 21.195706 15.45128 21.219399 15.199219 21.230469 C 14.878174 21.244563 14.849052 21.240144 14.617188 21.123047 C 14.194959 20.909811 13.660398 20.290933 13.259766 19.552734 C 12.773012 18.655849 12.170576 17.457883 12.072266 17.191406 C 11.826294 16.524743 11.825122 15.959946 12.066406 15.621094 C 12.180872 15.460342 12.506234 15.312233 12.794922 15.289062 z M 10.441406 17.878906 C 10.84138 17.846581 11.074335 17.948694 11.431641 18.3125 C 11.689097 18.574638 11.758086 18.680757 12.238281 19.572266 C 12.976822 20.943402 13.119499 21.328875 13.042969 21.732422 C 12.994221 21.98947 12.880266 22.162536 12.701172 22.253906 C 12.528121 22.342196 12.141412 22.377526 11.960938 22.322266 C 11.648527 22.226607 11.3443 21.956736 11.076172 21.539062 C 10.86454 21.209395 10.041558 19.646179 9.8515625 19.210938 C 9.6534595 18.757108 9.6261931 18.484341 9.7519531 18.242188 C 9.8654001 18.02374 10.084637 17.907736 10.441406 17.878906 z "
       d="m 13.376953,2.7695312 c -0.373617,0.054876 -0.740408,0.1686862 -1.046875,0.3320313 -0.690161,0.3678519 -1.048034,1.1423426 -0.976562,1.9589844 0.05446,0.6223332 0.343306,1.5142007 1.640625,5.3945311 L 14.263672,14.25 v 0.216797 c -0.168898,-0.102263 -0.320954,-0.249357 -0.498047,-0.310547 -0.366029,-0.126472 -0.776914,-0.135833 -1.191406,-0.09766 -0.414492,0.03818 -0.812505,0.118727 -1.146485,0.314453 -0.437767,0.256549 -0.753876,0.663482 -0.892578,1.136719 -0.109879,0.374897 -0.04327,0.801721 0.03906,1.228515 -0.6548587,-0.07591 -1.2855333,-0.01601 -1.7382815,0.357422 -0.6549779,0.540239 -0.7502672,1.500568 -0.4375,2.408203 0.106635,0.30939 0.091797,0.22747 0.091797,0.710938 0,1.813255 0.3388004,3.351919 1.0878906,4.935547 0.075215,0.159009 0.1563128,0.313224 0.2910156,0.464843 0.1347024,0.151619 0.3018144,0.300504 0.6191404,0.585938 0.34941,0.314293 0.67502,0.605986 0.777344,0.695312 v 0.677735 c 0,0.407925 -0.0013,0.626895 0.0098,0.787109 0.0055,0.08011 0.0077,0.146231 0.04883,0.25586 0.0411,0.109628 0.199915,0.269773 0.294922,0.308593 1.05303,0.430291 2.510241,0.719165 3.945312,0.800781 1.719443,0.09779 3.296849,-0.126343 5.507813,-0.771484 l 0.123046,-0.03516 a 0.46766994,0.46766994 0 0 0 0.337891,-0.449219 v -1.162109 -1.00586 l 0.363281,-0.482422 c 0.548767,-0.73286 1.272887,-1.819243 1.673828,-2.509765 0.190096,-0.327393 0.426352,-0.777832 0.619141,-1.169922 0.0964,-0.196045 0.1803,-0.376663 0.244141,-0.521484 0.03192,-0.07241 0.05835,-0.13531 0.08008,-0.19336 0.02173,-0.05805 0.05469,-0.03725 0.05469,-0.251953 10e-7,-0.307082 -0.08731,-0.619232 -0.203125,-1.027344 -0.115819,-0.408111 -0.266022,-0.855223 -0.419922,-1.222656 a 0.46766994,0.46766994 0 0 0 0,-0.002 l -0.117187,-0.277344 -0.04297,-1.449219 c -0.02545,-0.850602 -0.0586,-1.67203 -0.0918,-1.96875 -0.04073,-0.364148 -0.05704,-0.223628 0.01367,-0.4375 0.558625,-1.689517 1.110601,-3.372306 1.539063,-4.695312 0.428461,-1.3230064 0.72642,-2.2568267 0.80664,-2.5488281 0.283172,-1.0307411 0.354802,-1.612328 0.13086,-2.1347657 C 25.942186,4.8469774 25.417745,4.4469937 24.824219,4.2636719 24.075261,4.0323426 23.30592,4.1376746 22.666016,4.5820312 c -0.639904,0.4443567 -1.167202,1.1763539 -1.664063,2.1875 -0.258596,0.5262603 -0.60131,1.3454492 -2.044922,4.8847658 -0.06622,0.162345 -0.04913,0.118291 -0.103515,0.25 C 18.695438,11.387577 18.428657,10.510563 17.933594,8.8828125 17.347415,6.9554809 17.07375,6.0489662 16.90625,5.5390625 16.73875,5.0291588 16.662736,4.887809 16.529297,4.6171875 16.042559,3.6300575 15.349781,2.971163 14.470703,2.7890625 14.132615,2.7190276 13.75057,2.7146555 13.376953,2.7695312 Z m 0.441406,1.6621094 c 0.311305,-0.014884 0.131053,-0.051916 0.351563,0.056641 0.201707,0.0993 0.361511,0.2657616 0.607422,0.7734376 0.238235,0.4918295 0.250034,0.5364871 0.763672,2.2265624 0.219453,0.7220952 0.538286,1.7669525 0.708984,2.3242188 0.170658,0.557135 0.518538,1.689732 0.771484,2.517578 0.126827,0.415077 0.244144,0.795426 0.332032,1.076172 0.04394,0.140373 0.08062,0.256795 0.107422,0.339844 0.0134,0.04152 0.02422,0.07311 0.0332,0.09961 0.0045,0.01325 0.009,0.02629 0.01367,0.03906 0.0023,0.0064 0.0035,0.01284 0.0078,0.02344 0.0043,0.0106 0.03868,0.07556 0.03906,0.07617 1.74e-4,2.77e-4 0.06601,0.07522 0.08203,0.09375 -0.430244,-0.04967 -0.855206,-0.09881 -1.169922,-0.134766 -0.134012,-0.01531 -0.230002,-0.02647 -0.324219,-0.03711 -0.0501,-0.138 -0.112129,-0.319158 -0.179687,-0.525391 C 15.815431,12.930717 15.215828,11.115082 14.630859,9.3417969 13.912533,7.1642477 13.56785,6.1192003 13.40625,5.5859375 13.24465,5.0526747 13.271894,5.1351218 13.269531,4.9082031 c -0.0016,-0.1537104 0.0063,-0.2170179 0.0059,-0.2148437 -4.64e-4,0.00217 -0.01078,0.016955 0.03711,-0.060547 0.08543,-0.1382506 0.14069,-0.1837125 0.505859,-0.2011719 z m 10.207032,1.4375 c 0.146952,5.58e-4 0.221304,0.00798 0.242187,0.011719 0.02088,0.00374 0.0047,-0.00534 0.05664,0.023437 0.06925,0.038352 0.0583,0.040432 0.05859,0.041016 2.99e-4,5.833e-4 0.01905,0.039697 0.01758,0.1621094 -0.0053,0.4379437 -0.134354,0.9290754 -1.136719,4.0800781 -0.383748,1.20634 -0.807199,2.540669 -0.941406,2.962891 -0.134287,0.422469 -0.284887,0.895329 -0.333985,1.048828 -0.04548,0.142199 -0.08484,0.30188 -0.09961,0.529297 -0.01477,0.227416 -0.01728,0.54588 -0.02148,1.15625 -5.3e-5,0.0076 5.4e-5,0.01194 0,0.01953 -0.311096,-0.374366 -0.601976,-0.75808 -0.958985,-1.09375 l -0.308594,-0.291016 a 0.46766994,0.46766994 0 0 0 -0.263671,-0.125 l -0.271485,-0.0332 c -0.0438,-0.0054 -0.29769,-0.03504 -0.380859,-0.04492 0.02153,-0.009 0.0582,-0.02712 0.05859,-0.02734 4.47e-4,-2.47e-4 0.105199,-0.07981 0.105468,-0.08008 1.87e-4,-1.86e-4 0.04193,-0.04628 0.05078,-0.05859 0.0089,-0.01231 0.01341,-0.02065 0.01758,-0.02734 0.0083,-0.01338 0.01195,-0.02061 0.01563,-0.02734 0.0073,-0.01347 0.0129,-0.02175 0.01758,-0.03125 0.0094,-0.019 0.01822,-0.03844 0.0293,-0.0625 0.02215,-0.04813 0.0499,-0.112148 0.08398,-0.189453 0.06817,-0.15461 0.157842,-0.361703 0.253906,-0.587891 1.583774,-3.7290838 2.359389,-5.5599819 2.785156,-6.458984 0.212884,-0.449501 0.343094,-0.6634669 0.402344,-0.7363281 0.05925,-0.072861 0.02464,-0.035976 0.158203,-0.1015625 0.170084,-0.083519 0.05898,-0.059747 0.363282,-0.058594 z m -7.701172,9.7929684 c 0.347948,0.04027 0.839551,0.09298 2.439453,0.259766 l 0.816406,0.08594 0.246094,0.263672 c 0.856397,0.92112 1.574247,1.95294 2.05664,2.94336 0.252787,0.519005 0.375504,0.817654 0.617188,1.519531 l 0.115234,0.335937 -0.300781,0.59375 c -0.750544,1.487379 -1.577349,2.779462 -2.328125,3.654297 L 19.8125,25.521484 a 0.46766994,0.46766994 0 0 0 -0.111328,0.298828 l -0.01172,1.050782 a 0.46766994,0.46766994 0 0 0 0,0.002 l -0.0078,0.699219 c -0.397425,0.110961 -1.253723,0.281456 -1.748047,0.34375 -0.485238,0.06115 -1.837797,0.09244 -2.285156,0.05469 -0.725743,-0.06125 -1.806409,-0.25019 -2.423829,-0.410156 l -0.0059,-0.351563 -0.0098,-0.716796 a 0.46766994,0.46766994 0 0 0 -0.152343,-0.339844 l -0.927735,-0.841797 -0.841797,-0.767578 -0.0957,-0.263672 c -0.06578,-0.178533 -0.20131,-0.596488 -0.28125,-0.880859 -0.01058,-0.03764 -0.02358,-0.106552 -0.03516,-0.150391 0.27977,0.190103 0.5718,0.325349 0.892578,0.375 0.428803,0.06637 0.894615,0.0099 1.310547,-0.148438 0.508677,-0.193654 0.848026,-0.647646 1.046875,-1.169921 0.398797,0.143874 0.7659,0.236425 1.193359,0.21289 0.728822,-0.04013 1.303953,-0.244881 1.703125,-0.68164 0.281403,-0.3079 0.438255,-0.702464 0.501954,-1.175782 0.0452,-0.335896 0.01759,-0.688764 -0.109376,-1.083984 -0.101544,-0.316099 -0.310198,-0.738935 -0.542968,-1.203125 0.299871,0.100949 0.575007,0.230856 0.876953,0.291015 l 0.04492,0.0078 0.0078,0.158203 c 0.0272,0.595568 0.102124,1.185725 0.21875,1.642578 l 0.06641,0.261719 a 0.46766994,0.46766994 0 0 0 0.443359,0.353516 l 0.443359,0.0098 c 0.127468,0.0031 0.249012,0.005 0.345703,0.0039 0.04835,-5.71e-4 0.09052,-0.0019 0.128907,-0.0039 0.01919,-9.89e-4 0.03591,-0.0015 0.05859,-0.0039 0.02268,-0.0024 0.02526,0.0114 0.136719,-0.03125 0.18266,-0.07008 0.282827,-0.261454 0.304688,-0.357422 0.02186,-0.09597 0.0157,-0.149079 0.01172,-0.199219 -0.008,-0.100279 -0.02611,-0.186459 -0.05273,-0.308593 -0.135196,-0.620285 -0.1869,-1.148984 -0.185547,-1.927735 v -0.002 l 0.002,-0.77539 a 0.46766994,0.46766994 0 0 0 -0.466797,-0.46875 h -0.179687 c -0.179042,0 -0.947045,-0.104647 -1.289063,-0.191407 -0.656097,-0.166432 -1.169617,-0.528552 -1.371093,-0.863281 -0.02214,-0.03678 -0.05099,-0.168203 -0.0918,-0.306641 z m -3.492188,0.09375 c 0.23402,-0.01878 0.279736,-0.0043 0.47461,0.173829 0.182119,0.166447 0.233428,0.20846 0.425781,0.535156 0.192353,0.326695 0.494477,0.914212 1.060547,2.02539 0.411804,0.808361 0.644153,1.290054 0.751953,1.578125 0.107799,0.288072 0.100566,0.322553 0.07617,0.451172 -0.02194,0.11571 -0.05136,0.151875 -0.142578,0.199219 -0.04126,0.02141 -0.07119,0.03484 -0.300782,0.04492 -0.315528,0.01385 -0.127583,0.05353 -0.349609,-0.05859 -0.239006,-0.120704 -0.788488,-0.693768 -1.158203,-1.375 -0.240321,-0.442812 -0.510923,-0.963845 -0.732422,-1.404297 -0.221499,-0.440451 -0.405224,-0.840763 -0.425781,-0.896484 -0.216449,-0.586647 -0.162913,-0.998446 -0.06445,-1.136719 -0.02484,0.03488 0.02796,-0.02647 0.111328,-0.06445 0.08337,-0.03798 0.194332,-0.06592 0.273437,-0.07227 z m -2.353515,2.589844 c 0.153313,-0.01239 0.215467,-0.0021 0.287109,0.0293 0.07164,0.03138 0.173652,0.104364 0.332031,0.265625 0.121256,0.12346 0.16609,0.172236 0.259766,0.318359 0.09368,0.146124 0.229413,0.391595 0.46875,0.835938 0.366556,0.680529 0.58029,1.110476 0.68164,1.382812 0.101351,0.272337 0.09945,0.344069 0.07617,0.466797 -0.03105,0.163728 -0.05801,0.174129 -0.0957,0.19336 0.01659,-0.0085 -0.0958,0.02973 -0.197265,0.03906 -0.10147,0.0093 -0.219204,-0.0099 -0.19336,-0.002 -0.158248,-0.04846 -0.398179,-0.228478 -0.628906,-0.587891 -0.14632,-0.227927 -1.033297,-1.90595 -1.189453,-2.263671 -0.08846,-0.202643 -0.124589,-0.343357 -0.132813,-0.423829 -0.0082,-0.08047 -0.0039,-0.0975 0.01953,-0.142578 0.03108,-0.05986 0.04078,-0.08937 0.3125,-0.111328 z"
       transform="matrix(0.26458333,0,0,0.26458333,52.297605,85.167894)" />
    <path
       id="path2636-5-4-3-3"
       style="fill:#9e009e;fill-opacity:1;stroke-width:0.174005;stroke-dashoffset:14.7"
       sodipodi:type="inkscape:offset"
       inkscape:radius="0.34800914"
       inkscape:original="M 13.863281 4.0019531 C 13.462975 4.0019531 13.207775 4.1034188 13.003906 4.3457031 C 12.87017 4.5046446 12.847656 4.5857627 12.847656 4.8945312 C 12.847656 5.3223173 12.880566 5.4288792 14.595703 10.628906 C 15.556582 13.542142 15.835659 14.326125 15.912109 14.328125 C 15.965479 14.329525 16.963579 14.442286 18.130859 14.578125 L 20.253906 14.826172 L 20.521484 15.044922 C 20.83593 15.302586 21.66469 16.234975 22.023438 16.734375 L 22.273438 17.082031 L 22.302734 15.804688 L 22.333984 14.529297 L 23.359375 11.310547 C 25.003637 6.1451998 25.043723 5.9621114 24.615234 5.6015625 C 24.46127 5.4720094 24.385722 5.4511719 24.017578 5.4511719 C 23.268081 5.4511719 23.144681 5.5987255 22.308594 7.4824219 C 21.800552 8.6270376 19.786739 13.319256 19.611328 13.767578 C 19.547698 13.930198 19.540498 13.932671 19.199219 13.900391 C 19.007814 13.882281 18.664988 13.849145 18.4375 13.828125 C 18.210012 13.807105 17.997324 13.774086 17.964844 13.753906 C 17.932364 13.733726 17.522824 12.464832 17.054688 10.933594 C 15.270329 5.0970995 15.21197 4.931364 14.744141 4.4238281 C 14.43372 4.0870616 14.254999 4.0019531 13.863281 4.0019531 z M 15.738281 15.144531 L 15.779297 15.388672 C 15.837967 15.74327 15.998967 16.13941 16.181641 16.378906 C 16.397442 16.661839 16.942205 17.016561 17.384766 17.162109 C 17.811755 17.302539 18.674341 17.458984 19.023438 17.458984 L 19.269531 17.458984 L 19.304688 18.546875 C 19.324417 19.145015 19.380368 19.815758 19.427734 20.039062 C 19.565203 20.687129 19.589611 20.648437 19.027344 20.648438 C 18.75807 20.648438 18.525236 20.628546 18.509766 20.603516 C 18.434816 20.482242 18.290876 19.562185 18.253906 18.970703 L 18.212891 18.308594 L 17.748047 18.207031 C 17.224718 18.09394 16.638383 17.902963 16.306641 17.736328 C 16.183922 17.674688 16.075403 17.633584 16.064453 17.644531 C 16.053503 17.655481 16.221641 18.020164 16.439453 18.455078 C 16.99585 19.566052 17.102662 19.906951 17.070312 20.496094 C 17.039873 21.050419 16.914628 21.335793 16.566406 21.650391 C 16.102134 22.069832 15.051738 22.200313 14.279297 21.933594 C 14.061928 21.858544 13.876787 21.805156 13.867188 21.816406 C 13.857587 21.827656 13.805168 21.971776 13.751953 22.134766 C 13.627985 22.514392 13.328048 22.863582 12.978516 23.035156 C 12.74913 23.147758 12.60942 23.171527 12.150391 23.171875 C 11.689015 23.172245 11.560524 23.150585 11.355469 23.041016 C 11.037771 22.871253 10.750652 22.615245 10.394531 22.1875 C 10.111246 21.847241 10.106924 21.845671 10.146484 22.042969 C 10.269145 22.654692 10.550454 23.742616 10.708984 24.220703 L 10.890625 24.767578 L 11.826172 25.621094 L 12.759766 26.472656 L 12.789062 27.199219 L 12.818359 27.925781 L 13.253906 28.027344 C 13.617427 28.112134 14.595226 28.281184 15.3125 28.384766 C 15.4082 28.398566 16.048508 28.402588 16.734375 28.392578 C 18.006583 28.374088 18.618011 28.297148 19.662109 28.027344 L 20.068359 27.923828 L 20.103516 27.490234 C 20.123276 27.25226 20.144237 26.775426 20.148438 26.429688 L 20.15625 25.800781 L 20.535156 25.326172 C 21.26517 24.417189 22.1562 22.978306 22.833984 21.611328 L 23.083984 21.105469 L 22.861328 20.457031 C 22.56192 19.583485 21.993838 18.427508 21.509766 17.708984 C 21.097233 17.096649 20.314743 16.123754 19.960938 15.783203 L 19.757812 15.587891 L 17.941406 15.394531 C 16.942338 15.288463 16.037853 15.189618 15.931641 15.173828 L 15.738281 15.144531 z M 12.933594 15.318359 C 12.865654 15.318059 12.795099 15.324757 12.720703 15.335938 C 11.988438 15.445745 11.747287 16.022139 12.039062 16.966797 C 12.175522 17.408601 13.136357 19.31384 13.525391 19.916016 C 13.861816 20.436759 14.318231 20.916434 14.644531 21.089844 C 14.86357 21.206247 14.957279 21.222649 15.224609 21.193359 C 15.813081 21.128879 16.050575 20.909716 16.046875 20.429688 C 16.044175 20.083317 15.937822 19.812607 15.337891 18.609375 C 14.004607 15.935318 13.590319 15.321265 12.933594 15.318359 z M 10.525391 17.921875 C 10.336393 17.922461 10.147317 17.959625 10.023438 18.035156 C 9.5946324 18.296617 9.6173464 18.662262 10.123047 19.675781 C 10.99853 21.430417 11.358438 21.978893 11.794922 22.216797 C 12.051202 22.356482 12.506941 22.331877 12.730469 22.166016 C 13.161753 21.845991 13.120722 21.383667 12.5625 20.273438 C 11.822843 18.802356 11.487041 18.314713 11.025391 18.033203 C 10.902781 17.958423 10.714389 17.921289 10.525391 17.921875 z "
       d="m 13.863281,3.6542969 c -0.459112,0 -0.859832,0.1516633 -1.125,0.4667969 C 12.658829,4.2155201 12.579762,4.3322133 12.541016,4.46875 12.50227,4.6052867 12.5,4.7316886 12.5,4.8945312 c 0,0.2228173 0.02072,0.4405311 0.246094,1.1796876 0.225376,0.7391564 0.661948,2.0640063 1.519531,4.6640622 0.48067,1.457317 0.790417,2.382257 0.992187,2.949219 0.100886,0.283481 0.173783,0.474657 0.232422,0.609375 0.02932,0.06736 0.05283,0.120068 0.08594,0.173828 0.01655,0.02688 0.03521,0.05425 0.07227,0.0918 0.03706,0.03754 0.101964,0.109306 0.253906,0.113281 -0.04033,-0.0011 0.004,5.81e-4 0.03711,0.0039 0.03312,0.0033 0.08145,0.0092 0.140625,0.01562 0.11834,0.01279 0.283634,0.0301 0.484375,0.05274 0.401482,0.04528 0.942081,0.1079 1.525391,0.175781 l 2.023437,0.236328 0.1875,0.154297 c 0.227965,0.1868 1.109127,1.163211 1.439453,1.623047 l 0.25,0.347656 a 0.34804394,0.34804394 0 0 0 0.63086,-0.195312 l 0.0293,-1.277344 0.03125,-1.224609 1.009765,-3.171875 c 0.822244,-2.5830275 1.24192,-3.913724 1.41211,-4.6875004 0.0851,-0.3868881 0.117843,-0.6402512 0.06836,-0.8789062 -0.04948,-0.2386551 -0.211761,-0.4124715 -0.332031,-0.5136719 -0.0914,-0.076913 -0.215541,-0.1592254 -0.357422,-0.1953125 -0.141881,-0.036087 -0.274206,-0.037109 -0.464844,-0.037109 -0.198793,0 -0.385014,0.00671 -0.576172,0.070312 -0.191158,0.063605 -0.367135,0.1913632 -0.511718,0.3632813 -0.289168,0.3438361 -0.520202,0.8601163 -0.939454,1.8046875 -0.256385,0.5776356 -0.885486,2.0335237 -1.474609,3.4062501 -0.574027,1.337551 -1.076177,2.514516 -1.197266,2.818359 -0.03143,-1.62e-4 -6.6e-5,-0.0036 -0.08594,-0.01172 -0.190569,-0.01803 -0.534715,-0.05111 -0.763672,-0.07227 -0.09321,-0.0086 -0.177753,-0.02072 -0.25,-0.03125 -0.0061,-0.01736 -0.0087,-0.02487 -0.01563,-0.04492 -0.04888,-0.141662 -0.117148,-0.349212 -0.199219,-0.603516 C 17.839765,12.294127 17.620349,11.596219 17.386719,10.832031 16.494498,7.9136503 16.036419,6.4156042 15.734375,5.5644531 15.432331,4.7133021 15.241821,4.449846 15,4.1875 14.664267,3.8232731 14.305407,3.6542969 13.863281,3.6542969 Z m 1.927735,11.1464841 a 0.34804394,0.34804394 0 0 0 -0.396485,0.402344 l 0.04102,0.244141 c 0.06878,0.413988 0.233993,0.834798 0.46875,1.142578 0.30201,0.39596 0.849637,0.730849 1.371094,0.902344 0.486257,0.159922 1.294978,0.314453 1.748047,0.314453 h -0.0918 l 0.02539,0.751953 c 0.02016,0.611239 0.06568,1.245472 0.13086,1.552734 0.01883,0.08878 0.02457,0.12677 0.03711,0.1875 -0.0388,3.2e-5 -0.04882,0.002 -0.09766,0.002 -0.0957,0 -0.172887,-0.0054 -0.246094,-0.0098 -0.02166,-0.100803 -0.04704,-0.23223 -0.07031,-0.38086 -0.04844,-0.309327 -0.09194,-0.682049 -0.109376,-0.960937 l -0.04102,-0.66211 A 0.34804394,0.34804394 0 0 0 18.287109,17.96875 l -0.464843,-0.101562 c -0.496722,-0.107342 -1.079304,-0.300726 -1.359375,-0.441407 -0.0704,-0.03536 -0.135121,-0.06508 -0.195313,-0.08789 -0.0301,-0.0114 -0.05692,-0.02193 -0.0957,-0.03125 -0.01939,-0.0047 -0.04034,-0.0098 -0.08203,-0.01172 -0.02085,-9.64e-4 -0.04735,-6.86e-4 -0.08984,0.0078 -0.02125,0.0042 -0.0776,0.0232 -0.07813,0.02344 -5.3e-4,2.41e-4 -0.103173,0.07192 -0.103516,0.07227 -8.5e-5,8.5e-5 -0.06634,0.09167 -0.06641,0.0918 -6.4e-5,1.29e-4 -0.02535,0.07209 -0.02539,0.07227 -8.4e-5,3.43e-4 -0.0098,0.08543 -0.0098,0.08594 4e-6,0.001 0.0029,0.05561 0.0059,0.07031 0.0059,0.02941 0.01118,0.04337 0.01563,0.05664 0.0089,0.02653 0.01689,0.04704 0.02734,0.07227 0.02091,0.05045 0.04892,0.113578 0.08398,0.189453 0.07013,0.151751 0.169007,0.353997 0.279297,0.574219 0.275809,0.550716 0.432694,0.900634 0.513672,1.16211 0.08098,0.261475 0.0949,0.433159 0.08008,0.703124 -0.02793,0.508671 -0.08733,0.643771 -0.388672,0.916016 -0.148582,0.134236 -0.469917,0.264937 -0.83789,0.310547 -0.367973,0.04561 -0.779846,0.01411 -1.103516,-0.09766 -0.113433,-0.03917 -0.216814,-0.07367 -0.300781,-0.09766 -0.04198,-0.01199 -0.07784,-0.02152 -0.115235,-0.0293 -0.0187,-0.0039 -0.03606,-0.0071 -0.06836,-0.0098 -0.01615,-0.0013 -0.03553,-0.0042 -0.07422,0 -0.01934,0.0021 -0.08139,0.0193 -0.08203,0.01953 -3.19e-4,1.14e-4 -0.06617,0.03111 -0.06641,0.03125 -2.35e-4,1.45e-4 -0.08384,0.07014 -0.08399,0.07031 -3e-4,3.51e-4 -0.02324,0.03335 -0.0293,0.04297 -0.0061,0.0096 -0.01052,0.01564 -0.01367,0.02148 -0.0063,0.01168 -0.01045,0.02034 -0.01367,0.02734 -0.0064,0.01401 -0.0108,0.02511 -0.01563,0.03711 -0.0096,0.02399 -0.01991,0.05075 -0.03125,0.08203 -0.02268,0.06256 -0.04849,0.141788 -0.07617,0.226563 -0.0921,0.282029 -0.345096,0.571339 -0.597656,0.695312 -0.1966,0.09651 -0.226759,0.101224 -0.673828,0.101563 -0.225217,1.8e-4 -0.358819,-0.0065 -0.4375,-0.01953 -0.07868,-0.013 -0.109074,-0.02528 -0.19336,-0.07031 -0.2663,-0.142298 -0.516464,-0.359999 -0.857422,-0.769531 -0.07101,-0.0853 -0.12456,-0.149755 -0.169921,-0.201172 -0.04536,-0.05142 -0.04772,-0.08078 -0.167969,-0.150391 -0.03006,-0.0174 -0.07405,-0.04411 -0.158203,-0.05078 -0.02104,-0.0017 -0.06775,0.0019 -0.06836,0.002 -6.14e-4,7.2e-5 -0.07953,0.01933 -0.08008,0.01953 -0.0011,3.95e-4 -0.1397996,0.09091 -0.1406249,0.0918 -4.126e-4,4.45e-4 -0.029975,0.03675 -0.041016,0.05469 -0.011041,0.01794 -0.018956,0.03536 -0.025391,0.05078 -0.01287,0.03083 -0.019672,0.05552 -0.023437,0.07617 -0.00753,0.0413 -0.00655,0.06689 -0.00586,0.08789 0.00276,0.08399 0.013325,0.115581 0.023437,0.166016 0.1271886,0.634303 0.4047575,1.707697 0.5742185,2.21875 l 0.181641,0.546875 a 0.34804394,0.34804394 0 0 0 0.0957,0.148438 l 0.935547,0.853515 0.826172,0.753906 0.02344,0.580079 0.0293,0.726562 a 0.34804394,0.34804394 0 0 0 0.269531,0.326172 l 0.435547,0.101563 c 0.398311,0.0929 1.361885,0.256485 2.087891,0.361328 0.07582,0.01093 0.117156,0.0095 0.205078,0.01172 0.08792,0.0023 0.201615,0.0051 0.332031,0.0059 0.260833,0.0015 0.59426,-8.22e-4 0.939453,-0.0059 1.283766,-0.01866 1.94859,-0.101404 3.007813,-0.375 l 0.40625,-0.103515 a 0.34804394,0.34804394 0 0 0 0.261719,-0.310547 l 0.03516,-0.431641 v -0.002 c 0.02121,-0.256271 0.0406,-0.72871 0.04492,-1.083984 l 0.0059,-0.509766 0.304688,-0.378906 v -0.002 c 0.755534,-0.941016 1.651576,-2.389222 2.339843,-3.777344 l 0.25,-0.505859 a 0.34804394,0.34804394 0 0 0 0.01758,-0.267578 L 23.191406,20.34375 c -0.312652,-0.912188 -0.88236,-2.072745 -1.392578,-2.830078 -0.431032,-0.639794 -1.188015,-1.588053 -1.595703,-1.980469 a 0.34804394,0.34804394 0 0 0 -0.002,0 l -0.203125,-0.195312 a 0.34804394,0.34804394 0 0 0 -0.203125,-0.0957 l -1.816406,-0.19336 c -0.499213,-0.053 -0.976159,-0.104653 -1.339844,-0.144531 -0.362616,-0.03976 -0.63735,-0.07175 -0.654297,-0.07422 h -0.002 z m -2.855469,0.169922 c -0.09188,-4.06e-4 -0.17945,0.0085 -0.265625,0.02149 -0.448907,0.06731 -0.833358,0.321685 -0.996094,0.710937 -0.162735,0.389252 -0.126552,0.849959 0.0332,1.367187 0.09457,0.306183 0.361081,0.854146 0.669922,1.466797 0.308842,0.612651 0.641036,1.236444 0.855469,1.56836 0.361418,0.559428 0.805657,1.055911 1.248047,1.291015 0.243397,0.129348 0.491185,0.174359 0.78125,0.142578 0.331633,-0.03634 0.616308,-0.116342 0.832031,-0.316406 0.215723,-0.200064 0.303077,-0.497112 0.300781,-0.794922 -0.0016,-0.208094 -0.04317,-0.427902 -0.154297,-0.71289 -0.111123,-0.284988 -0.290845,-0.658125 -0.591796,-1.261719 -0.668319,-1.34039 -1.103444,-2.167542 -1.484376,-2.695313 -0.190465,-0.263885 -0.369689,-0.457584 -0.574218,-0.591796 -0.204529,-0.134213 -0.436047,-0.194347 -0.654297,-0.195313 z m -2.412109,2.603516 c -0.233899,7.25e-4 -0.466699,0.03301 -0.6816411,0.164062 C 9.5634964,17.907973 9.3534788,18.240772 9.375,18.59375 c 0.021521,0.352978 0.1781146,0.718424 0.4375,1.238281 0.879559,1.762806 1.253155,2.382455 1.816406,2.689453 0.211792,0.115437 0.439129,0.145001 0.664063,0.132813 0.224933,-0.01219 0.448489,-0.06352 0.644531,-0.208985 0.284285,-0.210947 0.459851,-0.577057 0.425781,-0.960937 -0.03407,-0.38388 -0.203951,-0.797809 -0.490234,-1.367187 -0.744781,-1.481274 -1.11589,-2.045398 -1.666016,-2.38086 -0.214178,-0.130627 -0.448295,-0.162839 -0.683593,-0.162109 z"
       transform="matrix(0.26458333,0,0,0.26458333,52.297605,85.167894)" />
    <path
       id="path2636-5-0-7-2-93"
       style="fill:#ffffff;fill-opacity:1;stroke-width:0.0460388;stroke-dashoffset:14.7"
       d="m 55.9656,86.134761 c -0.121476,0 -0.2275,0.04013 -0.297656,0.123504 -0.02103,0.02498 -0.04194,0.05586 -0.05219,0.09199 -0.01024,0.03613 -0.01085,0.06957 -0.01085,0.112655 0,0.05895 0.0055,0.116557 0.06511,0.312126 0.04167,0.136678 0.127669,0.401044 0.242879,0.751375 -0.05321,-0.190574 -0.102825,-0.380759 -0.07803,-0.583427 -0.106408,-0.443083 0.329107,-0.566585 0.597897,-0.374654 -0.0639,-0.164586 -0.110501,-0.231846 -0.166399,-0.292489 -0.08883,-0.09637 -0.183777,-0.141075 -0.300755,-0.141075 z m 2.686658,0.383439 c -0.0526,0 -0.10187,0.0019 -0.152447,0.0186 -0.05058,0.01683 -0.09714,0.05063 -0.13539,0.09612 -0.07651,0.09097 -0.137639,0.227572 -0.248565,0.477489 -0.06783,0.152833 -0.234284,0.538037 -0.390158,0.901237 -0.08073,0.188121 -0.110765,0.260568 -0.168465,0.396359 0.932706,-1.73798 0.846854,-1.477791 1.405083,-1.651062 -7.94e-4,-0.01408 -0.0019,-0.02791 -0.0047,-0.04134 -0.0131,-0.06314 -0.05603,-0.109132 -0.08785,-0.135908 -0.02418,-0.02035 -0.05703,-0.04213 -0.09457,-0.05168 -0.03754,-0.0096 -0.07255,-0.0098 -0.122989,-0.0098 z m -2.932122,2.610694 c -0.02432,-1.07e-4 -0.04748,0.0022 -0.07028,0.0057 -0.118774,0.01781 -0.220493,0.08511 -0.263552,0.188102 -0.03786,0.09057 -0.0336,0.196551 -0.0036,0.313676 0.152831,0.491373 0.284985,0.647831 0.415996,0.85111 -0.527484,-0.909724 -0.13539,-1.625628 0.49852,-0.715336 l -0.203449,-0.361083 c -0.01632,-0.02537 -0.0331,-0.05247 -0.04857,-0.0739 -0.0504,-0.06982 -0.09781,-0.12107 -0.151929,-0.15658 -0.05412,-0.03551 -0.115371,-0.05142 -0.173116,-0.05168 z m -0.638205,0.688847 c -0.06189,1.92e-4 -0.123481,0.0087 -0.18035,0.04341 -0.07363,0.0449 -0.129201,0.132951 -0.123508,0.226343 0.0057,0.09339 0.04713,0.190083 0.115755,0.327628 0.134284,0.269127 0.223877,0.43577 0.304374,0.545704 -0.351795,-0.905057 -0.02825,-1.082362 0.379826,-0.709518 -0.12056,-0.218381 -0.204341,-0.323057 -0.315225,-0.390674 -0.05667,-0.03456 -0.118613,-0.04308 -0.180869,-0.04289 z"
       sodipodi:nodetypes="csssscccssccssscccsscccssccccsssssssscccsss" />
  </g>
</svg>
