<svg xmlns="http://www.w3.org/2000/svg" xmlns:svg="http://www.w3.org/2000/svg" xmlns:xlink="http://www.w3.org/1999/xlink" id="svg40" width="34" height="34" version="1.1"><g id="g4" transform="matrix(1.0, 0.0, 0.0, 1.0, 1, 1)"><g id="use2"><g id="use766"><g id="use780" transform="translate(-1,-1)"><path id="path784" fill="#cc0" fill-rule="evenodd" stroke="none" d="M 0,32 V 0 H 32 V 32 H 0" transform="translate(1,1)" style="fill:#b3b3b3;fill-opacity:1"/><path id="path786" fill="none" stroke="#733c2f" stroke-linecap="round" stroke-linejoin="round" stroke-width="2" d="M 0,32 V 0 h 32 v 32 z" transform="translate(1,1)"/></g></g><clipPath id="clipPath770" transform="matrix(1.0031, 0.0, 0.0, 1.0, 0.0, 0.0)"><path id="path768" fill="#0f0" fill-rule="evenodd" stroke="none" d="M 31.9,32 H 0 V 0 h 31.9 v 32"/></clipPath><g id="g774" clip-path="url(#clipPath0)"><g id="use772" transform="translate(-2.55,-17.25)"><path id="path790" fill="#733c2f" fill-rule="evenodd" stroke="none" d="m 18.95,26.8 2,-0.1 1.1,-0.1 1.95,0.5 2.25,0.45 1.7,0.8 0.7,0.45 0.2,0.35 q 0,0.5 -1.6,0.75 l -3.75,0.45 -2.1,0.4 -0.45,0.2 -0.5,-0.05 -4.7,-0.05 -2.85,0.2 -1.6,-0.35 -1,-0.3 -3.15,-0.35 q -5.5,-0.45 -5.5,-1.45 0,-0.65 1.9,-0.9 l 4.3,-0.45 2.85,-0.05 2.6,-0.15 1.55,-0.25 h 4.1" transform="translate(2.55,17.25)" style="fill:#000"/><path id="path792" fill="#fcf9e0" fill-rule="evenodd" stroke="none" d="m 21.25,23.65 q 0,0.85 -0.7,2.25 l -1.25,2.35 1.45,0.25 q 0,0.55 -1.85,0.55 -0.9,0 -0.9,-0.55 0,-0.35 0.85,-1.85 0.75,-1.55 0.75,-2.7 L 19.5,23.4 18.05,23.2 14.8,23.25 11.5,23.6 10.65,23.45 q -0.4,0 -0.65,0.35 l -0.25,0.35 0.6,1.5 0.45,2.1 q 0,1.1 -1.1,1.1 -1.65,0 -1.65,-0.4 Q 8.05,28 9,28.25 H 9.55 L 9.85,28 9.1,26.45 q -0.45,-1 -0.45,-1.9 0,-1 0.8,-1.45 0.9,-0.55 3.55,-0.6 L 12.9,21.95 13,20.3 13.3,19.45 h 0.05 l -0.2,1.05 0.1,0.4 q 0,-0.4 0.3,-0.95 l 0.15,0.2 -0.15,1.1 0.15,-0.5 H 14 l -0.1,1.8 0.35,-1.25 0.15,-0.05 q 0.4,0 0.15,0.5 v 0.8 l 0.5,-1.35 0.1,-0.1 0.15,0.3 -0.15,0.7 v 0.3 q 0.5,-2.05 1.1,-3.5 l 0.15,0.35 -0.2,2.05 v 0.5 l 0.15,-0.5 0.15,-0.05 0.05,1.15 v 0.1 l 0.2,-1.2 q 0.15,-0.75 0.5,-1 l 0.15,0.3 -0.25,1.4 q 0,0.2 0.9,0.2 l 1.35,-0.1 q 0.95,0 1.35,0.4 0.5,0.45 0.5,1.15 m -4.9,-8.75 q 0.55,0 0.55,0.6 0,0.5 -0.65,0.5 -0.55,0 -0.55,-0.55 0,-0.55 0.65,-0.55 m -2.65,0 q 0.65,0 0.65,0.4 0,0.7 -0.8,0.7 Q 13,16 13,15.3 q 0,-0.4 0.7,-0.4 m 5.6,12.3 h -0.05 v 0.05 L 19.3,27.2" transform="translate(2.55,17.25)" style="fill:#fff;fill-opacity:1"/><path id="path794" fill="#733c2f" fill-rule="evenodd" stroke="none" d="m 21.25,23.65 q 0,-0.7 -0.5,-1.15 -0.4,-0.4 -1.35,-0.4 l -1.35,0.1 q -0.9,0 -0.9,-0.2 l 0.25,-1.4 -0.15,-0.3 q -0.35,0.25 -0.5,1 l -0.2,1.2 V 22.4 L 16.5,21.25 16.35,21.3 16.2,21.8 v -0.5 l 0.2,-2.05 -0.15,-0.35 q -0.6,1.45 -1.1,3.5 v -0.3 l 0.15,-0.7 -0.15,-0.3 -0.1,0.1 -0.5,1.35 v -0.8 q 0.25,-0.5 -0.15,-0.5 l -0.15,0.05 -0.35,1.25 0.1,-1.8 h -0.3 l -0.15,0.5 0.15,-1.1 -0.15,-0.2 q -0.3,0.55 -0.3,0.95 l -0.1,-0.4 0.2,-1.05 H 13.3 L 13,20.3 12.9,21.95 13,22.5 q -2.65,0.05 -3.55,0.6 -0.8,0.45 -0.8,1.45 0,0.9 0.45,1.9 L 9.85,28 9.55,28.25 H 9 Q 8.05,28 8.05,28.45 q 0,0.4 1.65,0.4 1.1,0 1.1,-1.1 L 10.35,25.65 9.75,24.15 10,23.8 q 0.25,-0.35 0.65,-0.35 l 0.85,0.15 3.3,-0.35 3.25,-0.05 1.45,0.2 0.1,0.55 q 0,1.15 -0.75,2.7 -0.85,1.5 -0.85,1.85 0,0.55 0.9,0.55 1.85,0 1.85,-0.55 L 19.3,28.25 20.55,25.9 q 0.7,-1.4 0.7,-2.25 M 21.75,7.3 21.4,8.25 q -0.35,0.7 -0.35,1.45 -2.45,7.2 -3.35,7.75 l -0.1,0.25 0.35,0.8 0.35,1.45 q 0.05,0.9 -0.5,2.05 3.65,-0.55 3.75,1.45 v 0.9 q -0.15,0.9 -0.7,1.85 L 19.8,27.95 19.75,28 20.9,27.9 q 0.7,0 0.7,0.75 l -0.85,0.8 -1.7,0.35 Q 18,29.8 17.7,29.35 l -0.1,-0.5 0.8,-2.5 q 0.8,-1.9 0.7,-2.4 l -3.3,0.25 -1.1,0.25 -2,-0.25 -0.65,0.15 -0.95,0.1 h -0.2 l -0.45,0.05 0.5,0.7 0.05,0.1 0.15,1 0.3,2.05 -0.45,0.8 q -0.45,0.4 -1.25,0.4 -1.35,0 -1.9,-0.4 l -0.2,-0.5 0.2,-0.55 1.45,-0.15 q -1.4,-2.7 -1.45,-3.3 0,-2.25 2.95,-2.35 l 0.7,-0.1 h 0.5 0.2 l -0.1,-0.55 0.35,-2.55 q 0,-0.75 0.65,-1.25 h 0.05 l -0.6,-0.7 -0.45,-1 H 12 q -0.8,0 -1.75,-3.5 Q 9.5,9.75 9.5,9 q 0,-0.55 0.35,-0.9 0.4,-0.35 0.75,0.85 0.2,0.7 1.05,1.8 l 1.05,2.6 q 0.65,-0.9 2.45,-1 1.65,-0.15 2.5,0.55 l 0.65,-1.75 q 0.6,-2 1.45,-2.55 -0.1,-0.3 0.95,-1.4 0.95,-1.1 1.05,0.1 m -8.05,7.6 q -0.7,0 -0.7,0.4 0,0.7 0.55,0.7 0.8,0 0.8,-0.7 0,-0.4 -0.65,-0.4 m 2.65,0 q -0.65,0 -0.65,0.55 0,0.55 0.55,0.55 0.65,0 0.65,-0.5 0,-0.6 -0.55,-0.6 m 2.95,12.3 -0.05,0.05 V 27.2 h 0.05" transform="translate(2.55,17.25)" style="fill:#000;fill-opacity:1"/><path id="path796" fill="#733c2f" fill-rule="evenodd" stroke="none" d="m 11.9,-16.7 2.55,0.2 2.95,-0.75 q 2.05,0 2.95,0.55 l 0.95,0.95 q 1.35,0.75 3.05,1.1 3.8,0.7 6.25,2.55 1.35,0.9 1.9,1.9 l 0.5,1.7 q 0.35,0.85 1.6,1.75 0.7,0.35 0.7,1.8 l -0.1,1.85 v 0.5 l -0.45,0.7 0.2,0.75 -1.1,2.05 q -1.2,1.95 -1.45,3 -0.1,0.6 -1.15,1.3 L 29.5,6.25 Q 28.9,6.5 28.3,7.7 28.05,8.1 25.45,8.1 23.3,8.1 19.2,9.9 l -4.75,1.8 Q 13.35,11.7 9.3,9.65 7.85,9 7.55,8.3 L 7.5,7.05 Q 2.65,6.8 1.05,3.2 0.65,2.3 -1.1,0.85 -2.55,-0.4 -2.55,-1.2 q 0,-0.65 1.1,-2.25 l 1.35,-1.8 q 1.3,-2.05 1.15,-4.05 0,-2.9 3,-3.95 Q 5.5,-13.8 7,-14.9 l 2.3,-1.65 2.6,-0.15" transform="translate(2.55,17.25)" style="fill:#000"/></g></g><g id="use776" transform="translate(-1,-1)"><path id="path800" fill="none" stroke="#733c2f" stroke-linecap="round" stroke-linejoin="round" stroke-width="2" d="M 0,32 V 0 h 32 v 32 z" transform="translate(1,1)" style="stroke:#000"/></g></g></g><defs id="defs38"><g id="sprite0" transform="matrix(1.0, 0.0, 0.0, 1.0, 2.55, 17.25)"><use id="use6" width="34" height="34" transform="matrix(1.0, 0.0, 0.0, 1.0, -1.0, -1.0)" xlink:href="#sprite1"/><clipPath id="clipPath0" transform="matrix(1.0031, 0.0, 0.0, 1.0, 0.0, 0.0)"><path id="path8" fill="#0f0" fill-rule="evenodd" stroke="none" d="M31.9 32.0 L0.0 32.0 0.0 0.0 31.9 0.0 31.9 32.0"/></clipPath><g id="g13" clip-path="url(#clipPath0)"><use id="use11" width="37.85" height="48.3" transform="matrix(1.0, 0.0, 0.0, 1.0, -2.55, -17.25)" xlink:href="#shape2"/></g><use id="use15" width="34" height="34" transform="matrix(1.0, 0.0, 0.0, 1.0, -1.0, -1.0)" xlink:href="#shape3"/></g><g id="sprite1" transform="matrix(1.0, 0.0, 0.0, 1.0, 1.0, 1.0)"><use id="use18" width="34" height="34" transform="matrix(1.0, 0.0, 0.0, 1.0, -1.0, -1.0)" xlink:href="#shape0"/></g><g id="shape0"><path id="path21" fill="#cc0" fill-rule="evenodd" stroke="none" d="M0.0 32.0 L0.0 0.0 32.0 0.0 32.0 32.0 0.0 32.0" transform="matrix(1.0, 0.0, 0.0, 1.0, 1.0, 1.0)"/><path id="path23" fill="none" stroke="#733c2f" stroke-linecap="round" stroke-linejoin="round" stroke-width="2" d="M0.0 32.0 L0.0 0.0 32.0 0.0 32.0 32.0 0.0 32.0 Z" transform="matrix(1.0, 0.0, 0.0, 1.0, 1.0, 1.0)"/></g><g id="shape2"><path id="path26" fill="#733c2f" fill-rule="evenodd" stroke="none" d="M18.95 26.8 L20.95 26.7 22.05 26.6 24.0 27.1 26.25 27.55 27.95 28.35 28.65 28.8 28.85 29.15 Q28.85 29.65 27.25 29.9 L23.5 30.35 21.4 30.75 20.95 30.95 20.45 30.9 15.75 30.85 12.9 31.05 11.3 30.7 10.3 30.4 7.15 30.05 Q1.65 29.6 1.65 28.6 1.65 27.95 3.55 27.7 L7.85 27.25 10.7 27.2 13.3 27.05 14.85 26.8 18.95 26.8" transform="matrix(1.0, 0.0, 0.0, 1.0, 2.55, 17.25)"/><path id="path28" fill="#fcf9e0" fill-rule="evenodd" stroke="none" d="M21.25 23.65 Q21.25 24.5 20.55 25.9 L19.3 28.25 20.75 28.5 Q20.75 29.05 18.9 29.05 18.0 29.05 18.0 28.5 18.0 28.15 18.85 26.65 19.6 25.1 19.6 23.95 L19.5 23.4 18.05 23.2 14.8 23.25 11.5 23.6 10.65 23.45 Q10.25 23.45 10.0 23.8 L9.75 24.15 10.35 25.65 10.8 27.75 Q10.8 28.85 9.7 28.85 8.05 28.85 8.05 28.45 8.05 28.0 9.0 28.25 L9.55 28.25 9.85 28.0 9.1 26.45 Q8.65 25.45 8.65 24.55 8.65 23.55 9.45 23.1 10.35 22.55 13.0 22.5 L12.9 21.95 13.0 20.3 13.3 19.45 13.35 19.45 13.15 20.5 13.25 20.9 Q13.25 20.5 13.55 19.95 L13.7 20.15 13.55 21.25 13.7 20.75 14.0 20.75 13.9 22.55 14.25 21.3 14.4 21.25 Q14.8 21.25 14.55 21.75 L14.55 22.55 15.05 21.2 15.15 21.1 15.3 21.4 15.15 22.1 15.15 22.4 Q15.65 20.35 16.25 18.9 L16.4 19.25 16.2 21.3 16.2 21.8 16.35 21.3 16.5 21.25 16.55 22.4 16.55 22.5 16.75 21.3 Q16.9 20.55 17.25 20.3 L17.4 20.6 17.15 22.0 Q17.15 22.2 18.05 22.2 L19.4 22.1 Q20.35 22.1 20.75 22.5 21.25 22.95 21.25 23.65 M16.35 14.9 Q16.9 14.9 16.9 15.5 16.9 16.0 16.25 16.0 15.7 16.0 15.7 15.45 15.7 14.9 16.35 14.9 M13.7 14.9 Q14.35 14.9 14.35 15.3 14.35 16.0 13.55 16.0 13.0 16.0 13.0 15.3 13.0 14.9 13.7 14.9 M19.3 27.2 L19.25 27.2 19.25 27.25 19.3 27.2" transform="matrix(1.0, 0.0, 0.0, 1.0, 2.55, 17.25)"/><path id="path30" fill="#733c2f" fill-rule="evenodd" stroke="none" d="M21.25 23.65 Q21.25 22.95 20.75 22.5 20.35 22.1 19.4 22.1 L18.05 22.2 Q17.15 22.2 17.15 22.0 L17.4 20.6 17.25 20.3 Q16.9 20.55 16.75 21.3 L16.55 22.5 16.55 22.4 16.5 21.25 16.35 21.3 16.2 21.8 16.2 21.3 16.4 19.25 16.25 18.9 Q15.65 20.35 15.15 22.4 L15.15 22.1 15.3 21.4 15.15 21.1 15.05 21.2 14.55 22.55 14.55 21.75 Q14.8 21.25 14.4 21.25 L14.25 21.3 13.9 22.55 14.0 20.75 13.7 20.75 13.55 21.25 13.7 20.15 13.55 19.95 Q13.25 20.5 13.25 20.9 L13.15 20.5 13.35 19.45 13.3 19.45 13.0 20.3 12.9 21.95 13.0 22.5 Q10.35 22.55 9.45 23.1 8.65 23.55 8.65 24.55 8.65 25.45 9.1 26.45 L9.85 28.0 9.55 28.25 9.0 28.25 Q8.05 28.0 8.05 28.45 8.05 28.85 9.7 28.85 10.8 28.85 10.8 27.75 L10.35 25.65 9.75 24.15 10.0 23.8 Q10.25 23.45 10.65 23.45 L11.5 23.6 14.8 23.25 18.05 23.2 19.5 23.4 19.6 23.95 Q19.6 25.1 18.85 26.65 18.0 28.15 18.0 28.5 18.0 29.05 18.9 29.05 20.75 29.05 20.75 28.5 L19.3 28.25 20.55 25.9 Q21.25 24.5 21.25 23.65 M21.75 7.3 L21.4 8.25 Q21.05 8.95 21.05 9.7 18.6 16.9 17.7 17.45 L17.6 17.7 17.95 18.5 18.3 19.95 Q18.35 20.85 17.8 22.0 21.45 21.45 21.55 23.45 L21.55 24.35 Q21.4 25.25 20.85 26.2 L19.8 27.95 19.75 28.0 20.9 27.9 Q21.6 27.9 21.6 28.65 L20.75 29.45 19.05 29.8 Q18.0 29.8 17.7 29.35 L17.6 28.85 18.4 26.35 Q19.2 24.45 19.1 23.95 L15.8 24.2 14.7 24.45 12.7 24.2 12.05 24.35 11.1 24.45 10.9 24.45 10.45 24.5 10.95 25.2 11.0 25.3 11.15 26.3 11.45 28.35 11.0 29.15 Q10.55 29.55 9.75 29.55 8.4 29.55 7.85 29.15 L7.65 28.65 7.85 28.1 9.3 27.95 Q7.9 25.25 7.85 24.65 7.85 22.4 10.8 22.3 L11.5 22.2 12.0 22.2 12.2 22.2 12.1 21.65 12.45 19.1 Q12.45 18.35 13.1 17.85 L13.15 17.85 12.55 17.15 12.1 16.15 12.0 16.15 Q11.2 16.15 10.25 12.65 9.5 9.75 9.5 9.0 9.5 8.45 9.85 8.1 10.25 7.75 10.6 8.95 10.8 9.65 11.65 10.75 L12.7 13.35 Q13.35 12.45 15.15 12.35 16.8 12.2 17.65 12.9 L18.3 11.15 Q18.9 9.15 19.75 8.6 19.65 8.3 20.7 7.2 21.65 6.1 21.75 7.3 M13.7 14.9 Q13.0 14.9 13.0 15.3 13.0 16.0 13.55 16.0 14.35 16.0 14.35 15.3 14.35 14.9 13.7 14.9 M16.35 14.9 Q15.7 14.9 15.7 15.45 15.7 16.0 16.25 16.0 16.9 16.0 16.9 15.5 16.9 14.9 16.35 14.9 M19.3 27.2 L19.25 27.25 19.25 27.2 19.3 27.2" transform="matrix(1.0, 0.0, 0.0, 1.0, 2.55, 17.25)"/><path id="path32" fill="#733c2f" fill-rule="evenodd" stroke="none" d="M11.9 -16.7 L14.45 -16.5 17.4 -17.25 Q19.45 -17.25 20.35 -16.7 L21.3 -15.75 Q22.65 -15.0 24.35 -14.65 28.15 -13.95 30.6 -12.1 31.95 -11.2 32.5 -10.2 L33.0 -8.5 Q33.35 -7.65 34.6 -6.75 35.3 -6.4 35.3 -4.95 L35.2 -3.1 35.2 -2.6 34.75 -1.9 34.95 -1.15 33.85 0.9 Q32.65 2.85 32.4 3.9 32.3 4.5 31.25 5.2 L29.5 6.25 Q28.9 6.5 28.3 7.7 28.05 8.1 25.45 8.1 23.3 8.1 19.2 9.9 L14.45 11.7 Q13.35 11.7 9.3 9.65 7.85 9.0 7.55 8.3 L7.5 7.05 Q2.65 6.8 1.05 3.2 0.65 2.3 -1.1 0.85 -2.55 -0.4 -2.55 -1.2 -2.55 -1.85 -1.45 -3.45 L-0.1 -5.25 Q1.2 -7.3 1.05 -9.3 1.05 -12.2 4.05 -13.25 5.5 -13.8 7.0 -14.9 L9.3 -16.55 11.9 -16.7" transform="matrix(1.0, 0.0, 0.0, 1.0, 2.55, 17.25)"/></g><g id="shape3"><path id="path35" fill="none" stroke="#733c2f" stroke-linecap="round" stroke-linejoin="round" stroke-width="2" d="M0.0 32.0 L0.0 0.0 32.0 0.0 32.0 32.0 0.0 32.0 Z" transform="matrix(1.0, 0.0, 0.0, 1.0, 1.0, 1.0)"/></g></defs></svg>