<svg xmlns="http://www.w3.org/2000/svg" xmlns:svg="http://www.w3.org/2000/svg" id="svg2663" width="34" height="34" version="1.1" viewBox="0 0 8.996 8.996"><g id="layer1" transform="translate(-113.72886,-157.79521)"><path id="path1694-1-6-06" fill="#cc0" fill-rule="evenodd" stroke="none" d="m 113.99345,166.52623 v -8.46667 h 8.46666 v 8.46667 h -8.46666" style="fill:#fff;fill-opacity:1;stroke-width:.264583"/><path id="path823-3" style="fill:#4a0;fill-opacity:1;stroke-width:.0213951" d="m 113.99345,158.05956 v 8.46667 h 8.46666 v -8.46667 z m 1.19889,0.4439 c 0.085,0.006 0.16672,0.0481 0.23151,0.12506 0.078,0.0927 0.0729,0.18963 -0.0181,0.3669 l -0.0739,0.14366 0.63614,0.62529 c 0.34938,0.34377 0.67237,0.66736 0.7183,0.71933 l 0.0837,0.0946 -0.13333,0.12712 c -0.0732,0.0697 -0.1398,0.12589 -0.14779,0.12558 -0.008,-3.2e-4 -0.0442,-0.0313 -0.0806,-0.0693 -0.16242,-0.16902 -1.3055,-1.2935 -1.32911,-1.30741 -0.0145,-0.009 -0.0482,-0.003 -0.0749,0.0119 -0.0759,0.0423 -0.19367,0.0813 -0.24702,0.0816 -0.0598,4e-4 -0.20326,-0.0881 -0.24908,-0.15348 -0.0208,-0.0296 -0.0341,-0.0929 -0.0341,-0.16329 0,-0.10128 0.008,-0.12329 0.0692,-0.18449 0.0504,-0.0504 0.0979,-0.0737 0.17157,-0.0848 0.0559,-0.008 0.11018,-0.01 0.12092,-0.003 0.0107,0.007 0.035,0.006 0.0537,-0.002 0.0262,-0.01 0.0341,-0.0443 0.0341,-0.14831 0,-0.17616 0.0229,-0.23082 0.11472,-0.2744 0.051,-0.0242 0.10297,-0.0343 0.154,-0.031 z m 6.00893,0.0109 c 0.0289,-7.4e-4 0.0607,8.5e-4 0.0977,0.005 0.11384,0.0133 0.21078,0.20123 0.16743,0.32556 -0.0304,0.0872 -0.006,0.10677 0.14935,0.11472 0.15079,0.008 0.23279,0.0539 0.2744,0.15348 0.0883,0.21121 -0.0469,0.4346 -0.26303,0.4346 -0.0479,0 -0.13248,-0.024 -0.19637,-0.0558 -0.0618,-0.0308 -0.11586,-0.0524 -0.12041,-0.0481 -0.005,0.004 -0.24256,0.23868 -0.52865,0.52142 -0.28608,0.28273 -0.60292,0.59408 -0.70435,0.69143 l -0.18448,0.17725 -0.0563,-0.0672 c -0.031,-0.0368 -0.0563,-0.0754 -0.0563,-0.0863 0,-0.0109 -0.0122,-0.0203 -0.0269,-0.0207 -0.0329,-8.8e-4 -0.12299,-0.0744 -0.12299,-0.10025 0,-0.0104 0.15407,-0.16795 0.34261,-0.34985 0.51802,-0.49977 1.0356,-1.02149 1.05575,-1.06557 0.0128,-0.028 -10e-4,-0.0732 -0.0486,-0.15658 -0.0965,-0.17093 -0.0918,-0.27511 0.0171,-0.38396 0.061,-0.061 0.11744,-0.0872 0.20412,-0.0894 z m -3.00291,1.81385 c 0.17966,-0.002 0.35828,0.0106 0.47439,0.0393 0.76441,0.18878 1.35965,0.76816 1.53479,1.49345 0.26351,1.09125 -0.39184,2.17004 -1.48725,2.44791 -0.43039,0.10918 -0.86755,0.0811 -1.27434,-0.0832 -0.43829,-0.17703 -0.81298,-0.51242 -1.04748,-0.93741 -0.0476,-0.0862 -0.0943,-0.17097 -0.10439,-0.18862 -0.01,-0.0177 -0.041,-0.1283 -0.0687,-0.24598 -0.0414,-0.17595 -0.05,-0.26886 -0.0486,-0.524 0.002,-0.35955 0.0413,-0.53959 0.17932,-0.82837 0.27218,-0.56938 0.74577,-0.96034 1.36013,-1.12138 0.12114,-0.0317 0.30247,-0.0493 0.48214,-0.0517 z m 0.95239,1.95595 c -0.10062,-0.002 -0.20251,0.0195 -0.30024,0.0661 -0.1542,0.0736 -0.29375,0.2138 -0.35966,0.36071 -0.0521,0.11601 -0.062,0.34557 -0.0202,0.48886 0.0543,0.1861 0.2948,0.40351 0.50591,0.45837 0.036,0.009 0.13055,0.0136 0.21084,0.009 0.17865,-0.0107 0.29802,-0.0735 0.45579,-0.23926 0.14098,-0.14815 0.18943,-0.28759 0.17518,-0.50953 -0.0114,-0.17765 -0.0649,-0.28973 -0.20619,-0.43098 -0.13049,-0.1305 -0.29377,-0.19969 -0.46147,-0.20309 z m -1.90427,0.003 c -0.18891,0 -0.31715,0.0493 -0.45424,0.1757 -0.23198,0.21384 -0.30376,0.52026 -0.185,0.78807 0.0749,0.16897 0.27857,0.34305 0.47697,0.40772 0.18937,0.0617 0.52515,-0.0491 0.6749,-0.22272 0.14537,-0.16855 0.1703,-0.23711 0.16846,-0.46406 -0.002,-0.23263 -0.0288,-0.29753 -0.19947,-0.47852 -0.13596,-0.14421 -0.28083,-0.20619 -0.48162,-0.20619 z m 0.94412,1.24024 c -0.1031,0 -0.12047,0.008 -0.19327,0.0827 -0.0985,0.10083 -0.12024,0.20087 -0.0667,0.30489 0.0465,0.0902 0.10762,0.14557 0.17932,0.16123 0.0302,0.007 0.0642,0.0152 0.076,0.0191 0.04,0.0133 0.0562,0.0102 0.11679,-0.0212 0.11505,-0.0595 0.17209,-0.15222 0.17209,-0.27802 0,-0.10533 -0.006,-0.11891 -0.0858,-0.19068 -0.0757,-0.0684 -0.0983,-0.078 -0.19844,-0.078 z m 1.75855,0.18603 0.44494,0.42943 c 0.24471,0.23621 0.55909,0.54608 0.69918,0.68833 0.14009,0.14226 0.2685,0.2589 0.28474,0.2589 0.0162,0 0.0525,-0.0154 0.0811,-0.0341 0.0286,-0.0187 0.10813,-0.0394 0.17622,-0.0455 0.12115,-0.0108 0.12584,-0.009 0.22531,0.0786 0.0976,0.0862 0.1018,0.0945 0.1018,0.20567 0,0.10254 -0.008,0.12272 -0.0698,0.1819 -0.0873,0.0838 -0.14166,0.10542 -0.27181,0.10542 h -0.10336 l -0.008,0.17312 c -0.007,0.16258 -0.0119,0.17683 -0.0718,0.22479 -0.0483,0.0386 -0.0898,0.0506 -0.17105,0.0506 -0.26575,2.7e-4 -0.37302,-0.24247 -0.22376,-0.50694 l 0.0651,-0.11421 -0.22531,-0.22892 c -0.1239,-0.12616 -0.2399,-0.26087 -0.25787,-0.2987 -0.018,-0.0378 -0.0968,-0.12417 -0.17518,-0.19224 -0.0784,-0.0681 -0.18171,-0.16097 -0.22944,-0.20671 -0.0477,-0.0457 -0.15431,-0.13884 -0.23668,-0.2067 -0.0824,-0.0679 -0.19154,-0.1672 -0.24288,-0.22014 l -0.0935,-0.0956 0.0615,-0.0388 c 0.0337,-0.0209 0.10143,-0.0761 0.1509,-0.12299 z m -3.44836,0.047 0.062,0.0744 c 0.0339,0.0408 0.0979,0.0957 0.14262,0.12196 l 0.0816,0.0475 -0.18862,0.19224 c -0.10359,0.10588 -0.33169,0.33334 -0.50694,0.50539 -0.17525,0.17206 -0.41751,0.4121 -0.53899,0.5333 l -0.22117,0.22066 0.0744,0.13953 c 0.1074,0.20243 0.0966,0.30113 -0.0444,0.41961 -0.0961,0.0807 -0.23885,0.093 -0.33383,0.0279 -0.0811,-0.0556 -0.131,-0.19478 -0.10387,-0.28939 0.0237,-0.0825 -0.0141,-0.13162 -0.0966,-0.12558 -0.14282,0.0105 -0.1954,-0.005 -0.27337,-0.076 -0.0712,-0.0652 -0.0796,-0.0827 -0.0796,-0.18035 0,-0.20516 0.0618,-0.26918 0.28422,-0.29301 0.123,-0.0132 0.15293,-0.009 0.21807,0.0289 l 0.0754,0.045 0.16588,-0.14831 c 0.0912,-0.0815 0.36269,-0.34661 0.60306,-0.58911 0.24037,-0.2425 0.46291,-0.45415 0.49506,-0.47077 0.0322,-0.0166 0.0871,-0.0652 0.12196,-0.10749 z m 2.46858,0.67231 c 0.0195,-6.4e-4 0.0347,7.4e-4 0.0419,0.005 0.0445,0.0275 0.0147,0.0712 -0.0713,0.10594 -0.05,0.0202 -0.0998,0.0413 -0.11162,0.046 -0.0118,0.005 -0.0351,-0.0125 -0.0512,-0.0382 -0.0253,-0.0406 -0.0247,-0.0506 0.006,-0.0729 0.0311,-0.0228 0.1281,-0.0441 0.18655,-0.046 z m -1.48053,0.0155 c 0.0669,0 0.0912,0.0343 0.0729,0.10439 -0.008,0.0322 -0.029,0.045 -0.0723,0.045 -0.0722,0 -0.0926,-0.0271 -0.0749,-0.0977 0.0101,-0.0403 0.0271,-0.0517 0.0744,-0.0517 z m 0.27388,0.0713 c 0.0207,-4.2e-4 0.0467,0.002 0.0785,0.006 0.11634,0.0137 0.12191,0.0173 0.11576,0.0703 -0.007,0.0603 -0.038,0.0683 -0.19379,0.0512 -0.0577,-0.006 -0.0798,-0.0189 -0.0796,-0.045 5.3e-4,-0.0579 0.017,-0.0809 0.0791,-0.0822 z m 0.78445,0.006 c 0.0995,0.006 0.14709,0.0822 0.0403,0.10593 -0.0324,0.007 -0.074,0.0173 -0.0925,0.0222 -0.0437,0.0116 -0.0631,-0.008 -0.0631,-0.0672 0,-0.0371 0.0154,-0.0501 0.0698,-0.0584 0.016,-0.002 0.0313,-0.003 0.0455,-0.003 z m -0.35036,0.0403 c 0.0836,0 0.0974,0.007 0.10335,0.0486 0.006,0.0446 -0.002,0.0475 -0.10335,0.0475 -0.10179,0 -0.10917,-0.003 -0.10284,-0.0475 0.006,-0.0418 0.0193,-0.0486 0.10284,-0.0486 z m 0.85834,0.16847 c 0.0187,-0.002 0.0325,-0.002 0.0362,0.002 0.006,0.006 0.0154,0.0631 0.0207,0.12609 0.009,0.10601 0.006,0.11564 -0.0408,0.12816 -0.0278,0.007 -0.065,0.0133 -0.0827,0.0134 -0.0381,3.1e-4 -0.13417,-0.19501 -0.10852,-0.22066 0.0175,-0.0175 0.11917,-0.0434 0.17518,-0.0491 z m -1.66656,0.0475 c 0.0223,-4e-4 0.0445,0.004 0.0646,0.014 0.0504,0.0244 0.0482,0.11644 -0.004,0.14418 -0.0228,0.0122 -0.0443,0.0211 -0.0481,0.0202 -0.0457,-0.0118 -0.14625,-0.0664 -0.14625,-0.0796 0,-0.055 0.0664,-0.0975 0.13333,-0.0987 z m 0.31781,0.0708 c 0.0166,0.005 0.0626,0.0132 0.1018,0.0186 0.0606,0.008 0.0698,0.0166 0.0594,0.0553 -0.007,0.0251 -0.0122,0.0671 -0.0124,0.0935 -2.6e-4,0.0414 -0.0125,0.0486 -0.0827,0.0486 -0.0448,0 -0.0989,-0.0133 -0.12092,-0.0294 -0.0375,-0.0274 -0.0382,-0.0351 -0.008,-0.11266 0.0206,-0.0526 0.0434,-0.0795 0.0625,-0.0739 z m 0.96686,0.009 c 0.036,-8.5e-4 0.0511,0.0154 0.0894,0.0718 0.0731,0.10762 0.069,0.12832 -0.0258,0.13953 -0.0441,0.005 -0.0955,0.0165 -0.1142,0.0248 -0.0439,0.0195 -0.0747,-0.0198 -0.0925,-0.11885 -0.0159,-0.088 -0.0119,-0.0922 0.0987,-0.11214 0.0184,-0.003 0.0324,-0.005 0.0444,-0.005 z m -0.6351,0.0248 h 0.16846 c 0.18422,0 0.17517,-0.008 0.18811,0.14934 0.006,0.0729 2.5e-4,0.0742 -0.26924,0.0594 -0.1279,-0.007 -0.14458,-0.0121 -0.13126,-0.0439 0.008,-0.02 0.0221,-0.0655 0.03,-0.10077 z m -0.76326,0.27853 c 0.0159,-0.004 0.0442,-0.002 0.093,0.003 0.0618,0.007 0.17466,0.0283 0.25114,0.0491 0.16871,0.0459 0.14588,0.0442 0.56844,0.0574 0.26498,0.008 0.38746,0.002 0.53486,-0.0248 0.17199,-0.0318 0.36985,-0.0425 0.39119,-0.0212 0.0108,0.0108 -0.25892,0.2625 -0.36432,0.34003 -0.0457,0.0336 -0.13321,0.0791 -0.19431,0.10232 -0.12231,0.0465 -0.43415,0.071 -0.54001,0.0419 -0.14462,-0.0398 -0.30582,-0.10622 -0.39378,-0.16175 -0.1312,-0.0828 -0.36587,-0.31174 -0.36587,-0.35708 0,-0.0165 0.004,-0.0253 0.0196,-0.0289 z"/><g id="g2446" transform="matrix(0.26458333,0,0,0.26458333,113.72901,157.79521)"><path id="path474" style="fill:#000;stroke-width:.613392" d="m 21.493301,7.0434347 -2.716839,5.7847583 c 1.636519,0.708538 2.695651,2.321646 2.695231,4.104964 v 0.0055 0.0055 l 6.357297,0.534729 c 0.01725,-0.181502 0.02979,-0.363399 0.0378,-0.545529 -0.0019,-4.261001 -2.493865,-8.1277369 -6.373495,-9.8897231 z m -9.128145,0.070227 C 8.5633523,8.9060314 6.1360103,12.730038 6.1320903,16.933167 c 0.0034,0.03604 0.0069,0.07203 0.01075,0.108029 L 12.559551,16.50107 c 0.155144,-1.604935 1.162247,-3.002084 2.63582,-3.656661 z m 4.661295,7.1404763 c -1.274429,-0.0016 -2.307964,1.03191 -2.306343,2.306339 0.0014,1.272322 1.034022,2.302565 2.306343,2.300944 1.270211,-0.0014 2.299582,-1.030733 2.300942,-2.300944 0.0016,-1.272319 -1.028622,-2.304977 -2.300942,-2.306339 z m -3.105729,5.908987 -3.57024,5.331051 c 1.899846,1.483071 4.238809,2.292491 6.648962,2.30094 2.168885,-0.0039 4.287006,-0.656583 6.081831,-1.874237 l -3.548634,-5.30945 c -0.74519,0.513052 -1.628469,0.788018 -2.533197,0.788586 -1.146879,-0.0022 -2.249052,-0.445068 -3.078722,-1.23689 z"/><path id="path474-0" style="opacity:.2;fill:#000;stroke-width:.613392" d="m 22.302451,7.303576 -2.716839,5.784758 c 1.636519,0.708538 2.695651,2.321646 2.695231,4.104964 v 0.0055 0.0055 l 6.357297,0.534729 c 0.01725,-0.181502 0.02979,-0.363399 0.0378,-0.545529 -0.0019,-4.261001 -2.493865,-8.1277366 -6.373495,-9.8897228 z M 13.174306,7.373803 C 9.372502,9.1661727 6.94516,12.990179 6.94124,17.193308 c 0.0034,0.03604 0.0069,0.07203 0.01075,0.108029 l 6.416711,-0.540126 c 0.155144,-1.604935 1.162247,-3.002084 2.63582,-3.656661 z m 4.661295,7.140476 c -1.274429,-0.0016 -2.307964,1.03191 -2.306343,2.306339 0.0014,1.272322 1.034022,2.302565 2.306343,2.300944 1.270211,-0.0014 2.299582,-1.030733 2.300942,-2.300944 0.0016,-1.272319 -1.028622,-2.304977 -2.300942,-2.306339 z m -3.105729,5.908987 -3.57024,5.331051 c 1.899846,1.483071 4.238809,2.292491 6.648962,2.30094 2.168885,-0.0039 4.287006,-0.656583 6.081831,-1.874237 l -3.548634,-5.30945 c -0.74519,0.513052 -1.628469,0.788018 -2.533197,0.788586 -1.146879,-0.0022 -2.249052,-0.445068 -3.078722,-1.23689 z"/></g><path style="color:#000;fill:#000;fill-opacity:1;stroke-width:.264583;stroke-linecap:round;stroke-linejoin:round;-inkscape-stroke:none" id="path424-0-5" d="m 113.99345,157.79521 a 0.26460979,0.26460979 0 0 0 -0.26459,0.26458 v 8.46667 a 0.26460979,0.26460979 0 0 0 0.26459,0.26458 h 8.46666 a 0.26460979,0.26460979 0 0 0 0.26459,-0.26458 v -8.46667 a 0.26460979,0.26460979 0 0 0 -0.26459,-0.26458 z m 0.26458,0.52917 h 7.9375 v 7.9375 h -7.9375 z"/></g></svg>