<?xml version="1.0" encoding="UTF-8"?>
<svg id="Capa_2" data-name="Capa 2" xmlns="http://www.w3.org/2000/svg" viewBox="0 0 34 34">
  <defs>
    <style>
      .cls-1, .cls-2, .cls-3 {
        stroke-width: 0px;
      }

      .cls-2 {
        fill: #b3b3b3;
      }

      .cls-3 {
        fill: #fff;
      }
    </style>
  </defs>
  <g id="Capa_2-2" data-name="Capa 2">
    <g>
      <g id="use16269">
        <rect class="cls-2" x="2" y="2" width="30" height="30"/>
        <rect class="cls-2" x="2" y="2" width="30" height="30"/>
      </g>
      <g>
        <g>
          <polygon class="cls-3" points="16.64 32 2.01 3.27 2.01 8.76 16.64 32"/>
          <polygon class="cls-3" points="16.19 32 1.41 12.68 1.41 22.89 16.19 32"/>
          <polygon class="cls-3" points="15.52 32.22 1.66 26.82 1.66 32.39 15.52 32.22"/>
        </g>
        <g>
          <polygon class="cls-3" points="17.36 32 31.99 3.27 31.99 8.76 17.36 32"/>
          <polygon class="cls-3" points="17.81 32 32.59 12.68 32.59 22.89 17.81 32"/>
          <polygon class="cls-3" points="18.48 32.22 32.34 26.82 32.34 32.39 18.48 32.22"/>
        </g>
        <polygon class="cls-3" points="24.69 2 16.64 32 8.59 2 24.69 2"/>
      </g>
      <g>
        <polygon class="cls-3" points="18.37 23.53 20.17 29.99 19.66 29.99 17.39 24.06 18.37 23.53"/>
        <polygon class="cls-3" points="19.63 32.39 17.19 32.39 15.5 23.59 16.25 23.66 19.63 32.39"/>
        <g>
          <path class="cls-1" d="m7.42,11.54c.08,1.58.16,3.17.28,4.75.08,1.07.18,2.15.35,3.21.06.37.24.74.43,1.07.44.77.92,1.53,1.38,2.3.18.32.43.55.77.69.07.02.13.07.18.14-.4-.1-.8-.21-1.23-.31.14.64.28,1.25.42,1.87.5,2.27.99,4.53,1.49,6.81.08.35,0,.3.39.3,1.93,0,3.86.01,5.79.01.05,0,.08-.01.15-.01-.62-2.81-1.25-5.61-1.88-8.41.01,0,.02,0,.05-.01.02.08.06.15.08.23.97,2.65,1.94,5.3,2.9,7.96.07.18.15.24.35.24.74-.01,1.49-.01,2.25-.01-.13-.47-.24-.94-.37-1.4-.49-1.8-.98-3.62-1.47-5.42-.22-.86-.2-1.73-.18-2.6,0-.05.03-.12.08-.14,1.14-.72,2.01-1.71,2.82-2.77,1.19-1.54,2.46-3,3.78-4.44.09-.12.2-.23.27-.36.13-.21.14-.43.02-.64-.52-.99-1.05-1.99-1.58-2.98-.15-.29-.34-.37-.67-.3-.35.08-.69.16-1.04.23-.06.02-.13.03-.21.05.07-.46.14-.89.22-1.33v-.07c.03-.57-.29-1.02-.51-1.5-.14-.3-.43-.42-.73-.51-.38-.14-.77-.25-1.16-.4-.32-.14-.6-.08-.87.13-.08.06-.16.1-.25.17-.14-.27-.28-.53-.39-.8-.15-.36-.42-.57-.81-.62-.46-.06-.92-.14-1.39-.22-.27-.05-.53-.01-.76.15-.23.16-.47.32-.72.47-.06.03-.15.06-.23.06-.65,0-1.31-.02-1.95,0-.15,0-.29.09-.42.16-.14.07-.27.15-.37.25-.43.44-.95.57-1.53.54-.28-.01-.57.02-.84.05-.42.02-.76.2-1.05.49-.7.67-1.26,1.44-1.72,2.29-.09.17-.13.42-.12.62Zm6.36-.01c.2.29.13.57-.18.73-.3.16-.64.29-.96.42-.29.1-.53.02-.74-.2-.51-.51-1.03-1.02-1.54-1.53-.12-.1-.22-.23-.34-.35.01,0,.02-.01.02-.01.54.46,1.09.91,1.63,1.38.01-.01.02-.02.03-.03-.43-.53-.86-1.06-1.28-1.59-.13-.17-.27-.35-.34-.54-.13-.32.03-.58.38-.62.39-.06.79-.08,1.18-.14.28-.03.49.07.65.29.5.74.99,1.47,1.48,2.21Zm-1.75,1.62c.16.28-.01.76-.37,1.02.13-.34.25-.67.37-1.02Zm6.69-4.89c0,1.29,0,2.59-.01,3.88,0,.32-.2.52-.52.54h-.32c-.38-.01-.51-.13-.59-.5-.24-1.21-.47-2.44-.74-3.65-.1-.43-.08-.77.27-1.09.14.27.39.3.67.3s.53.01.8.03c.3.02.45.16.45.47Zm-1.48,4.75s.05.02.08.03c.05.45-.3.74-.55,1.06.16-.37.32-.74.47-1.1Zm5.05-2.43c-.06.18-.23.24-.49.16-.4-.13-.81-.27-1.21-.39-.29-.1-.44-.01-.5.29-.1.62-.2,1.26-.31,1.9-.07.44-.15.89-.22,1.33-.05-.06-.05-.12-.05-.17,0-1.01.03-2.02,0-3.03-.03-.59.12-1.09.53-1.5,0,0,.01-.01.05-.03.08.3.3.4.57.5.46.15.92.31,1.38.49.24.09.32.28.25.47Zm2.06,3.52c-.39-.02-.8-.08-1.2-.13-.2-.02-.34-.12-.42-.3-.16-.42-.32-.83-.5-1.28-.14.06-.31.12-.49.18-.23.08-.34.25-.31.49.02.22.06.44.12.65.07.27.17.51.25.76-.32-.4-.53-.86-.59-1.36-.05-.44.12-.66.54-.77.67-.18,1.34-.35,2-.51.3-.07.52.02.65.3.17.43.35.86.49,1.29.14.39-.13.7-.54.68Zm-.65,2.1c-.32-.12-.65-.2-.97-.29-.03-.01-.07-.01-.1-.03-.02,0-.05-.02-.12-.06.73.07,1.39.34,2.1.09-.28.28-.54.42-.91.29Zm-5.91,7.86s.06-.01.09-.01c.73,1.93,1.44,3.86,2.17,5.79-.06-.02-.08-.05-.09-.09-.67-1.59-1.34-3.2-1.99-4.82-.1-.27-.13-.58-.18-.87Zm-1.64-5.06c.02-.51.12-.98.45-1.39.8-.94,1.78-1.62,2.83-2.23.22-.14.44-.08.66.02.84.44,1.7.87,2.55,1.29.05.03.09.07.15.09-.09.01-.15-.01-.22-.03-.55-.16-1.11-.35-1.68-.47-.89-.21-1.73-.08-2.51.45-.8.54-1.43,1.23-1.9,2.07-.12.2-.22.42-.35.67v-.47Zm-1.35-6.81c-.08-.15-.15-.31-.22-.46-.4-.88-.8-1.76-1.2-2.62-.12-.24-.09-.45.06-.65.1-.14.21-.28.28-.37.18.06.34.14.5.16.28.02.55,0,.84.01.3.01.46.13.55.4.06.15.09.29.14.44.27.84.54,1.68.8,2.52.12.35.03.54-.27.65-.28.1-.55.2-.84.25-.32.08-.5-.03-.64-.34Zm-.02.7c.03.47-.23.83-.49,1.21.14-.42.27-.83.4-1.24.02,0,.05.01.08.02Zm-6.18,2.25c.49-.02.97-.03,1.44-.06.06,0,.1.01.2.01-.52.12-.99.23-1.51.35.1.08.16.13.21.16.59.44,1.18.89,1.78,1.31.23.16.32.34.31.62-.03.55-.01,1.11-.01,1.66.06,0,.09,0,.13-.01.81-.23,1.63-.46,2.44-.7.12-.05.23-.17.29-.29.18-.37.35-.76.52-1.16.01.01.02.01.03.01-.02.2-.06.39-.08.59-.12.86-.22,1.7-.51,2.52-.16.44-.37.86-.72,1.19-.5.47-1.07.54-1.68.2-.43-.25-.77-.6-1.06-1.01-.82-1.12-1.24-2.42-1.53-3.76-.1-.45-.06-.95-.44-1.32-.15-.15-.05-.31.18-.32Zm-.51-1.44s.01-.02.02-.03c.14.06.29.13.43.17.27.09.47.01.72-.27.16-.2.08-.37-.02-.55-.25-.43-.51-.86-.75-1.28-.02-.03-.05-.09-.06-.14.24.24.46.49.67.74.3.35.6.68.87,1.04.2.25.12.49-.16.61-.22.1-.44.2-.66.29-.16.07-.32.06-.46-.07-.2-.16-.39-.34-.59-.51Z"/>
          <path class="cls-3" d="m8.41,15.48c.38.37.34.87.44,1.32.29,1.34.7,2.64,1.53,3.76.29.4.64.75,1.06,1.01.6.35,1.18.28,1.68-.2.35-.34.55-.75.72-1.19.29-.82.39-1.66.51-2.52.02-.2.06-.39.08-.59-.01,0-.02,0-.03-.01-.17.39-.34.79-.52,1.16-.06.12-.17.24-.29.29-.81.24-1.63.47-2.44.7-.03.01-.07.01-.13.01,0-.55-.02-1.11.01-1.66.01-.29-.08-.46-.31-.62-.6-.42-1.19-.87-1.78-1.31-.05-.03-.1-.08-.21-.16.52-.12.99-.23,1.51-.35-.09,0-.14-.01-.2-.01-.47.02-.96.03-1.44.06-.23.01-.34.17-.18.32Z"/>
          <path class="cls-3" d="m11.66,14.17c.36-.25.53-.74.37-1.02-.12.35-.24.68-.37,1.02Z"/>
          <path class="cls-3" d="m8.09,13.71c.2.17.39.35.59.51.14.13.3.14.46.07.22-.09.44-.18.66-.29.28-.13.36-.36.16-.61-.27-.36-.57-.69-.87-1.04-.21-.25-.43-.5-.67-.74.01.05.03.1.06.14.24.43.5.86.75,1.28.1.18.18.36.02.55-.24.28-.45.36-.72.27-.14-.05-.29-.12-.43-.17-.01.01-.01.02-.02.03Z"/>
          <path class="cls-3" d="m10.02,10.61c.12.12.22.24.34.35.51.51,1.03,1.02,1.54,1.53.21.22.45.3.74.2.32-.13.66-.25.96-.42.31-.16.38-.44.18-.73-.49-.74-.98-1.47-1.48-2.21-.16-.22-.37-.32-.65-.29-.39.06-.79.08-1.18.14-.35.05-.51.3-.38.62.07.2.21.37.34.54.43.53.86,1.06,1.28,1.59-.01.01-.02.02-.03.03-.54-.46-1.09-.91-1.63-1.38,0,0-.01.01-.02.01Z"/>
          <path class="cls-3" d="m14.29,14.12c.25-.38.52-.74.49-1.21-.03-.01-.06-.02-.08-.02-.14.4-.27.82-.4,1.24Z"/>
          <path class="cls-3" d="m16.76,14.11c.25-.32.6-.61.55-1.06-.03-.01-.06-.02-.08-.03-.15.36-.31.73-.47,1.1Z"/>
          <path class="cls-3" d="m16.15,19.01v.47c.13-.25.23-.47.35-.67.46-.84,1.1-1.53,1.9-2.07.77-.53,1.62-.66,2.51-.45.57.13,1.12.31,1.68.47.07.02.13.05.22.03-.06-.02-.1-.06-.15-.09-.86-.43-1.71-.86-2.55-1.29-.22-.1-.44-.16-.66-.02-1.05.61-2.03,1.29-2.83,2.23-.34.4-.43.88-.45,1.39Z"/>
          <path class="cls-3" d="m22.51,15.83c.07.03.09.06.12.06.03.02.07.02.1.03.32.09.65.17.97.29.37.13.64-.01.91-.29-.72.24-1.38-.02-2.1-.09Z"/>
          <path class="cls-3" d="m21.55,13.71c-.06-.21-.09-.43-.12-.65-.02-.23.08-.4.31-.49.17-.07.35-.13.49-.18.17.45.34.87.5,1.28.08.18.22.28.42.3.4.05.81.1,1.2.13.42.02.68-.29.54-.68-.14-.44-.31-.87-.49-1.29-.13-.28-.35-.37-.65-.3-.66.16-1.33.32-2,.51-.43.12-.59.34-.54.77.06.51.27.96.59,1.36-.08-.25-.18-.5-.25-.76Z"/>
          <path class="cls-3" d="m19.52,13.69c0,.06,0,.12.05.17.07-.44.15-.89.22-1.33.12-.64.21-1.27.31-1.9.06-.3.21-.39.5-.29.4.13.81.27,1.21.39.25.08.43.02.49-.16.07-.2-.01-.38-.25-.47-.45-.17-.91-.34-1.38-.49-.27-.09-.49-.2-.57-.5-.03.02-.05.03-.05.03-.42.42-.57.91-.53,1.5.03,1.01,0,2.02,0,3.03Z"/>
          <path class="cls-3" d="m16.53,8.54c.27,1.21.5,2.44.74,3.65.08.37.21.49.59.5h.32c.32-.02.52-.22.52-.54.01-1.29.01-2.59.01-3.88,0-.31-.15-.45-.45-.47-.27-.02-.53-.03-.8-.03s-.53-.03-.67-.3c-.35.31-.37.66-.27,1.09Z"/>
          <path class="cls-3" d="m13.38,9.11c.4.87.8,1.75,1.2,2.62.07.15.14.31.22.46.14.3.31.42.64.34.29-.06.57-.15.84-.25.3-.1.38-.3.27-.65-.25-.84-.53-1.68-.8-2.52-.05-.15-.08-.29-.14-.44-.09-.28-.25-.39-.55-.4-.29-.01-.57.01-.84-.01-.16-.02-.31-.1-.5-.16-.07.09-.17.23-.28.37-.15.2-.17.4-.06.65Z"/>
        </g>
      </g>
      <g id="path16293">
        <path class="cls-1" d="m33,0H1C.45,0,0,.45,0,1v32c0,.55.45,1,1,1h32c.56,0,1-.45,1-1V1c0-.55-.44-1-1-1Zm-1,32H2V2h30v30Z"/>
      </g>
    </g>
  </g>
</svg>