<svg xmlns="http://www.w3.org/2000/svg" xmlns:svg="http://www.w3.org/2000/svg" id="svg27523" width="34" height="34" version="1.1" viewBox="0 0 8.996 8.996"><g id="layer1" transform="translate(-129.8507,-138.09075)"><path id="path1694-8-2-6-7-1" fill="#cc0" fill-rule="evenodd" stroke="none" d="m 130.11499,146.82172 v -8.46666 h 8.46667 v 8.46666 h -8.46667" style="fill:#4a0;fill-opacity:1;stroke-width:.264583"/><path id="path1694-8-2-6-1-3-5" style="fill:#fff;fill-opacity:1;stroke-width:.264583" d="m 131.05321,138.35481 a 3.9230723,3.9230723 0 0 0 -0.93845,1.52342 v 1.71359 a 4.4558352,4.4558352 0 0 1 1.58234,-3.23701 z m 2.44016,0 a 2.9356825,2.9356825 0 0 0 -2.43035,2.88613 2.9356825,2.9356825 0 0 0 0.0961,0.73949 2.9356825,2.9356825 0 0 0 -0.13591,0.86455 2.9356825,2.9356825 0 0 0 0.22118,1.09812 l -0.27854,0.52658 -0.19017,10e-4 c 2.7e-4,0.11592 0.002,0.20257 0.006,0.27389 a 4.4558352,4.4558352 0 0 1 -0.66714,-1.78336 v 1.35806 a 3.9230723,3.9230723 0 0 0 3.00602,2.50217 h 2.59571 a 3.9230723,3.9230723 0 0 0 2.86494,-2.42465 v -1.32396 a 4.4558352,4.4558352 0 0 1 -0.48266,1.38493 l -0.18862,0.001 -0.3483,-0.72915 a 2.9356825,2.9356825 0 0 0 0.13126,-0.86765 2.9356825,2.9356825 0 0 0 -0.1018,-0.75706 2.9356825,2.9356825 0 0 0 0.14107,-0.88108 2.9356825,2.9356825 0 0 0 -2.31303,-2.86908 z m 3.63285,0 a 4.4558352,4.4558352 0 0 1 1.45521,2.41019 v -1.17357 a 3.9230723,3.9230723 0 0 0 -0.82217,-1.23662 z m -2.58331,0.0243 h 5.3e-4 a 3.3343556,3.3343556 0 0 1 0.0925,0.006 3.3343556,3.3343556 0 0 1 2.95124,3.30936 3.3343556,3.3343556 0 0 1 -0.0176,0.34158 2.9356825,2.9356825 0 0 0 -0.0734,-0.23099 3.3343556,3.3343556 0 0 1 0.0476,0.42788 3.3343556,3.3343556 0 0 1 -0.008,0.0475 2.9356825,2.9356825 0 0 0 0.009,-0.0274 3.3343556,3.3343556 0 0 1 0.003,0.13798 3.3343556,3.3343556 0 0 1 -0.15503,0.98443 l -0.47284,-0.9896 a 0.12863632,0.12863632 0 0 0 0.0532,-0.20102 c -0.10676,-0.12282 -0.20773,-0.20788 -0.33435,-0.22996 -0.0205,-0.004 -0.0403,-0.004 -0.0599,-0.002 a 1.9885945,1.9885945 0 0 0 0.0904,-0.59531 1.9885945,1.9885945 0 0 0 -1.98902,-1.98851 1.9885945,1.9885945 0 0 0 -0.33073,0.0357 1.9885945,1.9885945 0 0 0 -0.23513,-0.0181 1.9885945,1.9885945 0 0 0 -1.98799,1.98851 1.9885945,1.9885945 0 0 0 0.092,0.57102 c -0.0262,0.0138 -0.0507,0.0292 -0.0698,0.047 -0.0984,0.0919 -0.13769,0.19753 -0.1726,0.23461 a 0.12863632,0.12863632 0 0 0 0.0646,0.20774 l -0.62167,1.17615 a 3.3343556,3.3343556 0 0 1 -0.24959,-1.23867 3.3343556,3.3343556 0 0 1 0.015,-0.31419 2.9356825,2.9356825 0 0 0 0.0754,0.23874 3.3343556,3.3343556 0 0 1 -0.0455,-0.46353 3.3343556,3.3343556 0 0 1 0.006,-0.047 2.9356825,2.9356825 0 0 0 -0.008,0.0227 3.3343556,3.3343556 0 0 1 -0.004,-0.0982 3.3343556,3.3343556 0 0 1 3.33364,-3.33313 z m -0.0636,1.05007 a 1.9885945,1.9885945 0 0 1 0.0692,0.0124 2.2586506,2.2586506 0 0 1 2.02158,2.23552 2.2586506,2.2586506 0 0 1 -0.016,0.28008 c -0.0632,0.0133 -0.1217,0.0516 -0.17156,0.0992 -0.0941,-0.007 -0.18581,-0.0145 -0.28526,-0.0222 -0.0909,-0.48287 -0.38826,-0.922 -0.85937,-1.15394 -0.14331,-0.0705 -0.29402,-0.11546 -0.44701,-0.13797 l -0.0155,-0.8568 a 0.12863632,0.12863632 0 0 0 -0.12609,-0.12661 l -0.0899,-0.002 a 0.12863632,0.12863632 0 0 0 -0.13126,0.12092 l -0.015,0.24805 c -0.71605,0.0491 -1.37583,0.46879 -1.70533,1.11311 -0.11604,0.22693 -0.18241,0.46964 -0.20463,0.71365 -0.0486,-0.0232 -0.0969,-0.043 -0.14367,-0.0434 -0.0407,-5.3e-4 -0.0789,0.009 -0.11368,0.0233 a 2.2586506,2.2586506 0 0 1 -0.0207,-0.23823 2.2586506,2.2586506 0 0 1 2.25826,-2.25775 2.2586506,2.2586506 0 0 1 0.0625,0.005 2.2586506,2.2586506 0 0 0 -0.0667,-0.0124 z m -0.0822,0.96066 -0.0212,0.34727 c -0.4791,0.0592 -0.92437,0.34026 -1.14876,0.8046 -0.0655,0.1356 -0.10528,0.27902 -0.12351,0.42374 l -0.339,0.01 c 0.0193,-0.21098 0.0761,-0.42064 0.17622,-0.6165 0.28053,-0.54858 0.84463,-0.91488 1.45624,-0.96893 z m -0.0372,0.61598 -0.0202,0.33383 c -0.26193,0.0624 -0.49431,0.23551 -0.60565,0.50488 -0.0138,0.0335 -0.0241,0.0681 -0.0331,0.10284 l -0.3328,0.0103 c 0.0168,-0.10292 0.0474,-0.20469 0.094,-0.30127 0.17546,-0.36308 0.52074,-0.58915 0.89762,-0.65061 z m 0.43615,0.004 c 0.11166,0.0203 0.22133,0.0544 0.32608,0.10593 0.36934,0.18184 0.61178,0.5202 0.7028,0.89814 -0.12307,-0.01 -0.22873,-0.0175 -0.34778,-0.0269 -0.0883,-0.25608 -0.27301,-0.47763 -0.54106,-0.59531 -0.0438,-0.0192 -0.0888,-0.0334 -0.13436,-0.0455 z m -4.6638,0.54002 a 3.9230723,3.9230723 0 0 0 -0.0176,0.0553 v 0.078 a 4.4558352,4.4558352 0 0 1 0.0176,-0.13332 z m 4.19044,0.0698 -0.009,0.15296 c -0.0247,0.0576 -0.0417,0.11054 -0.0491,0.15865 l -0.28577,0.008 c 0.0659,-0.15542 0.19401,-0.26397 0.34416,-0.31987 z m 0.48421,0.003 c 0.008,0.003 0.0163,0.006 0.0243,0.009 0.15709,0.069 0.27549,0.18905 0.35037,0.33228 -0.10106,-0.008 -0.23254,-0.0186 -0.31936,-0.0248 -5.3e-4,-0.009 0.005,-0.0162 0.004,-0.0248 -0.007,-0.0485 -0.0306,-0.10101 -0.0563,-0.15607 z m -4.69222,0.3824 v 0.35192 a 3.9230723,3.9230723 0 0 0 0.0568,0.17983 4.4558352,4.4558352 0 0 1 -0.0568,-0.53175 z m 2.22002,0.24495 c 0.01,0.0141 0.0293,0.0394 0.0543,0.12454 a 0.12863632,0.12863632 0 0 0 0.12144,0.092 h 0.0134 c 0.0975,0.5817 0.44735,1.11479 1.00873,1.39888 0.86737,0.43894 1.97849,0.11497 2.42052,-0.76946 0.10111,-0.2023 0.15693,-0.41845 0.17105,-0.63562 0.14729,-0.007 0.26021,-0.0147 0.36587,-0.0222 a 0.12863632,0.12863632 0 0 0 0.0398,-0.0165 2.2586506,2.2586506 0 0 1 -0.1757,0.84233 l -0.19327,0.36586 a 2.2586506,2.2586506 0 0 1 -1.65158,1.01493 1.9885945,1.9885945 0 0 1 -0.0693,0.0124 2.2586506,2.2586506 0 0 0 0.0667,-0.0124 2.2586506,2.2586506 0 0 1 -0.0625,0.005 2.2586506,2.2586506 0 0 1 -1.45314,-0.54312 l -0.80202,-1.67949 a 2.2586506,2.2586506 0 0 1 -0.004,-0.0351 2.2586506,2.2586506 0 0 1 5.3e-4,-0.005 c 0.0337,-0.0293 0.0637,-0.0593 0.0899,-0.0858 0.0269,-0.0272 0.0436,-0.039 0.0589,-0.0506 z m 4.29328,0.0263 c 0.0253,0.01 0.0987,0.0549 0.18242,0.10439 a 0.12863632,0.12863632 0 0 0 0.009,0.003 l -0.19223,0.36329 a 1.9885945,1.9885945 0 0 0 0.002,-0.0186 1.9885945,1.9885945 0 0 0 -0.0346,-0.37156 0.12863632,0.12863632 0 0 0 0.0114,-0.0191 c 0.0106,-0.0482 0.0186,-0.0557 0.0217,-0.061 z m 0.2403,0.18139 0.49092,1.02784 a 3.3343556,3.3343556 0 0 1 -0.54363,0.97875 l -1.01131,0.005 0.12661,-0.23978 a 1.9885945,1.9885945 0 0 0 0.67696,-1.27899 z m -4.07883,0.0119 0.34314,0.004 c 0.0909,0.37069 0.33241,0.70108 0.7028,0.87592 0.58512,0.27619 1.32635,0.0505 1.60351,-0.55501 0.0465,-0.10148 0.0756,-0.20792 0.0889,-0.31574 0.13817,-0.003 0.23457,-0.005 0.33279,-0.008 -0.0145,0.17407 -0.0607,0.3471 -0.14159,0.50902 -0.37472,0.74976 -1.32812,1.02791 -2.06861,0.65319 -0.46736,-0.23652 -0.76599,-0.67723 -0.86093,-1.16272 z m -0.68109,0.006 a 1.9885945,1.9885945 0 0 0 -0.0217,0.23513 1.9885945,1.9885945 0 0 0 0.96118,1.69499 l 0.0258,0.0543 -1.15496,0.006 a 3.3343556,3.3343556 0 0 1 -0.46096,-0.75965 z m 1.29656,5.3e-4 0.34262,0.004 c 0.075,0.16257 0.2065,0.29786 0.39015,0.3669 0.30858,0.116 0.69591,-0.0173 0.80357,-0.3576 2.6e-4,-7.9e-4 2.5e-4,-0.002 5.3e-4,-0.003 0.12303,-0.001 0.21991,-0.003 0.32143,-0.004 -0.0116,0.0697 -0.0319,0.13839 -0.062,0.20412 -0.21325,0.46583 -0.79636,0.64296 -1.25419,0.42684 -0.27237,-0.12856 -0.45783,-0.36568 -0.54209,-0.63717 z m 0.65577,0.007 0.23927,0.003 c 0.0521,0.0432 0.10494,0.0937 0.19844,0.11162 0.004,5.3e-4 0.007,5.3e-4 0.0108,10e-4 -0.0866,0.0344 -0.18893,0.0372 -0.27957,0.003 -0.0679,-0.0255 -0.12378,-0.067 -0.16898,-0.11834 z m -1.84898,0.17157 0.63769,1.33584 a 2.2586506,2.2586506 0 0 1 -0.63769,-1.33584 z m 5.31492,1.18184 0.29766,0.62322 -0.60513,0.003 a 2.9356825,2.9356825 0 0 0 0.30747,-0.62632 z m -6.24148,0.19585 a 2.9356825,2.9356825 0 0 0 0.23927,0.43563 l -0.47078,0.002 z m 4.49172,0.32453 -0.0605,0.1142 -0.13798,5.3e-4 a 1.9885945,1.9885945 0 0 0 0.19844,-0.11472 z m -0.30748,0.17312 c 0.003,0.48629 0.0282,0.47794 0.34003,0.49351 l 0.43615,-0.003 a 3.3343556,3.3343556 0 0 1 -1.64847,0.6811 3.3343556,3.3343556 0 0 1 -0.093,0.006 3.3343556,3.3343556 0 0 1 -2.02778,-0.69401 l 0.59376,-0.004 c 0.37746,-0.002 0.38524,0.0143 0.38809,-0.41755 a 1.9885945,1.9885945 0 0 0 0.61702,0.10749 1.9885945,1.9885945 0 0 0 0.23461,-0.0181 1.9885945,1.9885945 0 0 0 0.33073,0.0357 1.9885945,1.9885945 0 0 0 0.82888,-0.18707 z m 2.27687,0.48007 a 4.4558352,4.4558352 0 0 1 -3.10162,1.76992 4.4558352,4.4558352 0 0 1 -0.0563,0.003 4.4558352,4.4558352 0 0 1 -0.0734,0.004 4.4558352,4.4558352 0 0 1 -3.5326,-1.77302 c 0.038,0.004 0.0802,0.006 0.13384,0.009 l 0.87798,-0.006 a 2.9356825,2.9356825 0 0 0 1.96474,0.76481 2.9356825,2.9356825 0 0 0 0.35089,-0.0274 2.9356825,2.9356825 0 0 0 0.44751,0.045 2.9356825,2.9356825 0 0 0 1.9942,-0.78238 z"/><path id="path1696-1-4-1-8-3" style="color:#000;fill:#000;fill-opacity:1;stroke-width:.264583;stroke-linecap:round;stroke-linejoin:round;-inkscape-stroke:none" d="m 130.11528,138.09075 a 0.26460979,0.26460979 0 0 0 -0.26458,0.26458 v 8.46667 a 0.26460979,0.26460979 0 0 0 0.26458,0.26458 h 8.46667 a 0.26460979,0.26460979 0 0 0 0.26458,-0.26458 v -8.46667 a 0.26460979,0.26460979 0 0 0 -0.26458,-0.26458 z m 0.26458,0.52916 h 7.9375 v 7.9375 h -7.9375 z m 3.95635,0.92243 a 0.12863632,0.12863632 0 0 0 -0.13126,0.12092 l -0.11472,1.89446 c -0.0247,0.0576 -0.0417,0.11053 -0.0491,0.15864 l -1.70119,0.0506 c -0.0695,-0.0364 -0.13758,-0.0712 -0.20361,-0.0718 -0.0848,-8e-4 -0.16163,0.0383 -0.21083,0.0842 -0.0984,0.0919 -0.1377,0.19701 -0.17261,0.23409 a 0.12863632,0.12863632 0 0 0 0.0641,0.20878 l -1.07435,2.03295 -0.19017,0.001 c 0.002,0.55093 0.0157,0.53517 0.34055,0.55138 l 1.95389,-0.0139 c 0.4141,-0.003 0.38265,0.0245 0.3886,-0.55087 l -0.29869,0.002 -0.98495,-2.06189 c 0.0391,-0.0328 0.0713,-0.0673 0.10077,-0.0971 0.0269,-0.0272 0.0436,-0.0395 0.0589,-0.0512 0.01,0.0141 0.0294,0.0399 0.0543,0.12505 a 0.12863632,0.12863632 0 0 0 0.12144,0.092 l 1.78956,0.0181 c 0.0521,0.0432 0.10494,0.0943 0.19843,0.11214 0.10213,0.0195 0.21659,-0.0237 0.33021,-0.10903 1.16426,-0.009 1.38727,-0.0302 1.6614,-0.0496 a 0.12863632,0.12863632 0 0 0 0.11627,-0.10077 c 0.0106,-0.0482 0.0186,-0.0562 0.0217,-0.0615 0.0253,0.01 0.0987,0.0549 0.18242,0.10439 a 0.12863632,0.12863632 0 0 0 0.009,0.003 l -1.10329,2.08721 -0.24753,10e-4 c 0.002,0.55094 0.0157,0.53518 0.34055,0.55139 l 1.95388,-0.0139 c 0.4141,-0.003 0.38266,0.0245 0.38861,-0.55087 l -0.24184,0.001 -0.98857,-2.07015 a 0.12863632,0.12863632 0 0 0 0.0517,-0.20361 c -0.10676,-0.12282 -0.20773,-0.20788 -0.33434,-0.22996 -0.0963,-0.0168 -0.18477,0.0329 -0.25632,0.10129 -0.5012,-0.0371 -1.10702,-0.0878 -1.52032,-0.11731 -5.3e-4,-0.009 0.005,-0.0162 0.004,-0.0248 -0.007,-0.0485 -0.0312,-0.101 -0.0568,-0.15606 l -0.0341,-1.87224 a 0.12863632,0.12863632 0 0 0 -0.12609,-0.12661 z m -2.44171,2.70061 0.95601,2.00194 -2.02003,0.01 z m 4.75061,0 0.95602,2.00142 -2.02004,0.0103 z"/></g></svg>