<svg xmlns="http://www.w3.org/2000/svg" xmlns:svg="http://www.w3.org/2000/svg" id="svg31684" width="34" height="34" version="1.1" viewBox="0 0 8.996 8.996"><g id="layer1" transform="translate(-51.391107,-85.067826)"><path id="path1694-1-6-0-0" fill="#cc0" fill-rule="evenodd" stroke="none" d="m 51.655542,93.798844 v -8.466665 h 8.466665 v 8.466665 h -8.466665" style="fill:#4a0;fill-opacity:1;stroke-width:.264583"/><path style="color:#000;fill:#000;fill-opacity:1;stroke-width:.264583;stroke-linecap:round;stroke-linejoin:round;-inkscape-stroke:none" id="path424-0-7-3" d="m 51.65569,85.067826 a 0.26460979,0.26460979 0 0 0 -0.264583,0.264583 v 8.466666 a 0.26460979,0.26460979 0 0 0 0.264583,0.264583 h 8.466665 a 0.26460979,0.26460979 0 0 0 0.264584,-0.264583 v -8.466666 a 0.26460979,0.26460979 0 0 0 -0.264584,-0.264583 z m 0.264582,0.529166 h 7.9375 v 7.937499 h -7.9375 z"/><path id="path4462-6-8" style="fill:#fff;fill-opacity:1;stroke-width:2.00004;stroke-linecap:round;stroke-linejoin:round;paint-order:stroke fill markers" d="M 58.024934 86.201111 C 57.845294 86.198653 57.783657 86.435962 57.798587 86.524612 C 57.68313 86.492544 57.346142 86.486551 57.341242 86.682228 C 57.334781 86.944193 57.59492 87.114076 57.825459 87.203136 L 57.822875 87.205203 L 58.380474 87.392792 L 58.391843 86.770596 L 58.389259 86.77318 C 58.398807 86.498512 58.300285 86.214229 58.061624 86.204729 C 58.049404 86.202529 58.03676 86.20131 58.02545 86.201111 L 58.024934 86.201111 z M 58.993368 86.201111 C 58.982058 86.20131 58.96993 86.202012 58.95771 86.204212 C 58.71905 86.213712 58.620528 86.498512 58.630076 86.77318 L 58.626975 86.770596 L 58.638344 87.392792 L 59.195943 87.205203 L 59.193876 87.203136 C 59.424415 87.114086 59.684037 86.944192 59.677576 86.682228 C 59.672676 86.486551 59.335688 86.492543 59.220232 86.524612 C 59.235162 86.435962 59.173524 86.198652 58.993885 86.201111 L 58.993368 86.201111 z M 52.874248 86.243487 C 52.694608 86.241028 52.632971 86.478337 52.647901 86.566987 C 52.532444 86.534919 52.195973 86.528926 52.191073 86.724603 C 52.184612 86.986568 52.444235 87.156968 52.674773 87.246028 L 52.672189 87.247578 L 53.229789 87.435684 L 53.241674 86.813488 L 53.238574 86.815555 C 53.248122 86.540888 53.1496 86.256604 52.910939 86.247104 C 52.898719 86.244904 52.886075 86.243686 52.874765 86.243487 L 52.874248 86.243487 z M 53.843199 86.243487 C 53.831889 86.243686 53.819245 86.244904 53.807025 86.247104 C 53.568364 86.256604 53.469842 86.540888 53.47939 86.815555 L 53.47629 86.812971 L 53.487659 87.435684 L 54.045775 87.247578 L 54.043191 87.245511 C 54.273729 87.156451 54.533352 86.986568 54.526891 86.724603 C 54.521991 86.528926 54.185003 86.534918 54.069546 86.566987 C 54.084476 86.478337 54.023356 86.241028 53.843716 86.243487 L 53.843199 86.243487 z M 55.453467 86.243487 C 55.273827 86.241028 55.21219 86.478337 55.22712 86.566987 C 55.111663 86.534919 54.775192 86.528926 54.770292 86.724603 C 54.763831 86.986568 55.023453 87.156968 55.253992 87.246028 L 55.251408 87.247578 L 55.809524 87.435684 L 55.820893 86.813488 L 55.817792 86.815555 C 55.82734 86.540888 55.728818 86.256604 55.490158 86.247104 C 55.477938 86.244904 55.465293 86.243686 55.453983 86.243487 L 55.453467 86.243487 z M 56.422418 86.243487 C 56.411108 86.243686 56.398463 86.244904 56.386243 86.247104 C 56.147582 86.256604 56.049061 86.540888 56.058609 86.815555 L 56.055508 86.812971 L 56.066877 87.435684 L 56.624993 87.247578 L 56.622409 87.245511 C 56.852948 87.156451 57.112571 86.986568 57.10611 86.724603 C 57.10121 86.528926 56.764738 86.534918 56.649281 86.566987 C 56.664211 86.478337 56.602574 86.241028 56.422934 86.243487 L 56.422418 86.243487 z M 58.02545 87.600018 C 57.845446 87.597139 57.783647 87.834799 57.798587 87.923519 C 57.68313 87.891451 57.346142 87.885458 57.341242 88.081135 C 57.334781 88.343099 57.594919 88.51351 57.825459 88.602559 L 57.822875 88.604627 L 58.380474 88.792732 L 58.391843 88.170536 L 58.389259 88.172604 C 58.398807 87.897936 58.300286 87.613652 58.061624 87.604152 C 58.049234 87.601952 58.036374 87.601235 58.024934 87.601052 L 58.02545 87.600535 L 58.02545 87.600018 z M 58.993368 87.600018 L 58.993368 87.600535 C 58.98206 87.600736 58.969919 87.601985 58.95771 87.604152 C 58.719049 87.613652 58.620528 87.897936 58.630076 88.172604 L 58.626975 88.170536 L 58.638344 88.792732 L 59.195943 88.604627 L 59.193876 88.602559 C 59.424416 88.5135 59.684037 88.343099 59.677576 88.081135 C 59.672676 87.885458 59.335688 87.89145 59.220232 87.923519 C 59.235172 87.834799 59.173372 87.59714 58.993368 87.600018 z M 52.874765 87.64291 C 52.694761 87.640032 52.632961 87.877691 52.647901 87.966411 C 52.532444 87.934343 52.195973 87.927833 52.191073 88.12351 C 52.184612 88.385475 52.444234 88.555885 52.674773 88.644935 L 52.672189 88.647519 L 53.229789 88.835108 L 53.241674 88.212912 L 53.238574 88.215496 C 53.248122 87.940829 53.149601 87.656028 52.910939 87.646528 C 52.898549 87.644328 52.885688 87.64361 52.874248 87.643427 L 52.874765 87.64291 z M 53.843199 87.64291 L 53.843716 87.643427 C 53.832276 87.64361 53.819415 87.644328 53.807025 87.646528 C 53.568363 87.656028 53.469842 87.940828 53.47939 88.215496 L 53.47629 88.212912 L 53.487659 88.835108 L 54.045775 88.647519 L 54.043191 88.644935 C 54.27373 88.555875 54.533352 88.385476 54.526891 88.12351 C 54.521991 87.927834 54.185003 87.934342 54.069546 87.966411 C 54.084486 87.877691 54.023203 87.640032 53.843199 87.64291 z M 55.453983 87.64291 C 55.27398 87.640032 55.21218 87.877691 55.22712 87.966411 C 55.111663 87.934343 54.775192 87.927833 54.770292 88.12351 C 54.763831 88.385475 55.023452 88.555885 55.253992 88.644935 L 55.251408 88.647519 L 55.809524 88.835108 L 55.820893 88.212912 L 55.817792 88.215496 C 55.82734 87.940829 55.728819 87.656028 55.490158 87.646528 C 55.477768 87.644328 55.464907 87.64361 55.453467 87.643427 L 55.453983 87.64291 z M 56.422418 87.64291 L 56.422934 87.643427 C 56.411494 87.64361 56.398633 87.644328 56.386243 87.646528 C 56.147582 87.656028 56.049061 87.940828 56.058609 88.215496 L 56.055508 88.212912 L 56.066877 88.835108 L 56.624993 88.647519 L 56.622409 88.644935 C 56.852949 88.555875 57.112571 88.385476 57.10611 88.12351 C 57.10121 87.927834 56.764738 87.934342 56.649281 87.966411 C 56.664221 87.877691 56.602421 87.640032 56.422418 87.64291 z M 58.024934 88.999959 C 57.845294 88.9975 57.783657 89.234809 57.798587 89.323459 C 57.68313 89.29139 57.346142 89.285397 57.341242 89.481075 C 57.334781 89.743041 57.59492 89.912923 57.825459 90.001983 L 57.822875 90.00405 L 58.380474 90.191639 L 58.391843 89.569443 L 58.389259 89.572027 C 58.398807 89.29736 58.300285 89.012559 58.061624 89.003059 C 58.049404 89.000859 58.03676 89.000159 58.02545 88.999959 L 58.024934 88.999959 z M 58.993368 88.999959 C 58.982058 89.000159 58.96993 89.000859 58.95771 89.003059 C 58.71905 89.012559 58.620528 89.29736 58.630076 89.572027 L 58.626975 89.569443 L 58.638344 90.191639 L 59.195943 90.00405 L 59.193876 90.001983 C 59.424415 89.912933 59.684037 89.74304 59.677576 89.481075 C 59.672676 89.285397 59.335688 89.29139 59.220232 89.323459 C 59.235162 89.234809 59.173524 88.9975 58.993885 88.999959 L 58.993368 88.999959 z M 52.874248 89.042334 C 52.694608 89.039875 52.632971 89.277185 52.647901 89.365835 C 52.532444 89.333766 52.195973 89.327773 52.191073 89.523451 C 52.184612 89.785415 52.444235 89.955815 52.674773 90.044875 L 52.672189 90.046426 L 53.229789 90.234531 L 53.241674 89.612336 L 53.238574 89.614403 C 53.248122 89.339735 53.1496 89.055451 52.910939 89.045951 C 52.898719 89.043751 52.886075 89.042534 52.874765 89.042334 L 52.874248 89.042334 z M 53.843199 89.042334 C 53.831889 89.042534 53.819245 89.043751 53.807025 89.045951 C 53.568364 89.055451 53.469842 89.339735 53.47939 89.614403 L 53.47629 89.611819 L 53.487659 90.234531 L 54.045775 90.046426 L 54.043191 90.044359 C 54.273729 89.955299 54.533352 89.785415 54.526891 89.523451 C 54.521991 89.327773 54.185003 89.333766 54.069546 89.365835 C 54.084476 89.277185 54.023356 89.039875 53.843716 89.042334 L 53.843199 89.042334 z M 55.453467 89.042334 C 55.273827 89.039875 55.21219 89.277185 55.22712 89.365835 C 55.111663 89.333766 54.775192 89.327773 54.770292 89.523451 C 54.763831 89.785415 55.023453 89.955815 55.253992 90.044875 L 55.251408 90.046426 L 55.809524 90.234531 L 55.820893 89.612336 L 55.817792 89.614403 C 55.82734 89.339735 55.728818 89.055451 55.490158 89.045951 C 55.477938 89.043751 55.465293 89.042534 55.453983 89.042334 L 55.453467 89.042334 z M 56.422418 89.042334 C 56.411108 89.042534 56.398463 89.043751 56.386243 89.045951 C 56.147582 89.055451 56.049061 89.339735 56.058609 89.614403 L 56.055508 89.611819 L 56.066877 90.234531 L 56.624993 90.046426 L 56.622409 90.044359 C 56.852948 89.955299 57.112571 89.785415 57.10611 89.523451 C 57.10121 89.327773 56.764738 89.333766 56.649281 89.365835 C 56.664211 89.277185 56.602574 89.039875 56.422934 89.042334 L 56.422418 89.042334 z M 58.024934 90.399382 C 57.845294 90.396924 57.783657 90.634233 57.798587 90.722883 C 57.68313 90.690814 57.346142 90.684822 57.341242 90.880499 C 57.334781 91.142465 57.594403 91.312864 57.824942 91.401924 L 57.822875 91.403474 L 58.380474 91.59158 L 58.391843 90.969384 L 58.389259 90.971451 C 58.398807 90.696784 58.300285 90.4125 58.061624 90.403 C 58.052334 90.4014 58.042519 90.400338 58.033719 90.399899 L 58.033719 90.399382 C 58.031019 90.399244 58.02825 90.39943 58.02545 90.399382 L 58.024934 90.399382 z M 58.985099 90.399382 C 58.976299 90.399821 58.967 90.4014 58.95771 90.403 C 58.71905 90.4125 58.620528 90.696785 58.630076 90.971451 L 58.626975 90.969384 L 58.638344 91.59158 L 59.19646 91.403474 L 59.193876 91.401924 C 59.424415 91.312864 59.684037 91.142464 59.677576 90.880499 C 59.672676 90.684821 59.335688 90.690814 59.220232 90.722883 C 59.235162 90.634233 59.173524 90.396923 58.993885 90.399382 C 58.991085 90.39943 58.987799 90.399243 58.985099 90.399382 z M 52.874248 90.442275 C 52.694608 90.439816 52.632971 90.677125 52.647901 90.765775 C 52.532444 90.733706 52.195973 90.727196 52.191073 90.922874 C 52.184612 91.184839 52.444235 91.355249 52.674773 91.444299 L 52.672189 91.446366 L 53.229789 91.633955 L 53.241158 91.011759 L 53.238574 91.014343 C 53.248122 90.739677 53.1496 90.454875 52.910939 90.445375 C 52.901649 90.443775 52.89235 90.442714 52.88355 90.442275 L 52.883033 90.442275 C 52.880333 90.442136 52.877565 90.442323 52.874765 90.442275 L 52.874248 90.442275 z M 53.834414 90.442275 C 53.825614 90.442714 53.816315 90.443775 53.807025 90.445375 C 53.568364 90.454875 53.469842 90.73916 53.47939 91.013826 L 53.47629 91.011759 L 53.487659 91.633955 L 54.045775 91.446366 L 54.043191 91.444299 C 54.273729 91.355249 54.533352 91.18484 54.526891 90.922874 C 54.521991 90.727197 54.18552 90.733189 54.070063 90.765258 C 54.084993 90.676608 54.023356 90.439817 53.843716 90.442275 L 53.843199 90.442275 C 53.840399 90.442323 53.837114 90.442137 53.834414 90.442275 z M 55.453467 90.442275 C 55.273827 90.439816 55.21219 90.677125 55.22712 90.765775 C 55.111663 90.733706 54.775192 90.727196 54.770292 90.922874 C 54.763831 91.184839 55.023453 91.355249 55.253992 91.444299 L 55.251408 91.446366 L 55.809524 91.633955 L 55.820893 91.011759 L 55.817792 91.014343 C 55.82734 90.739677 55.728818 90.454875 55.490158 90.445375 C 55.480868 90.443775 55.471569 90.442714 55.462769 90.442275 C 55.460069 90.442136 55.456783 90.442323 55.453983 90.442275 L 55.453467 90.442275 z M 56.413633 90.442275 C 56.404833 90.442714 56.395533 90.443775 56.386243 90.445375 C 56.147582 90.454875 56.049061 90.73916 56.058609 91.013826 L 56.056025 91.011759 L 56.067394 91.633955 L 56.624993 91.446366 L 56.622409 91.444299 C 56.852948 91.355249 57.112571 91.18484 57.10611 90.922874 C 57.10121 90.727197 56.764738 90.733189 56.649281 90.765258 C 56.664211 90.676608 56.602574 90.439817 56.422934 90.442275 L 56.422418 90.442275 C 56.419618 90.442323 56.416333 90.442137 56.413633 90.442275 z M 58.024934 91.798806 C 57.845294 91.796347 57.783657 92.033657 57.798587 92.122306 C 57.68313 92.090238 57.346142 92.084245 57.341242 92.279923 C 57.334781 92.541887 57.59492 92.711781 57.825459 92.800831 L 57.822875 92.802898 L 58.380474 92.990487 L 58.391843 92.368291 L 58.389259 92.370875 C 58.398807 92.096208 58.300285 91.811407 58.061624 91.801907 C 58.049404 91.799707 58.03676 91.799005 58.02545 91.798806 L 58.024934 91.798806 z M 58.993368 91.798806 C 58.982058 91.799005 58.96993 91.799707 58.95771 91.801907 C 58.71905 91.811407 58.620528 92.096208 58.630076 92.370875 L 58.626975 92.368291 L 58.638344 92.990487 L 59.195943 92.802898 L 59.193876 92.800831 C 59.424415 92.711781 59.684037 92.54137 59.677576 92.279406 C 59.672676 92.083728 59.335688 92.090238 59.220232 92.122306 C 59.235162 92.033657 59.173524 91.796347 58.993885 91.798806 L 58.993368 91.798806 z M 52.874248 91.841181 C 52.694608 91.838722 52.632971 92.076032 52.647901 92.164682 C 52.532444 92.132613 52.195973 92.126621 52.191073 92.322298 C 52.184612 92.584264 52.444235 92.754663 52.674773 92.843723 L 52.672189 92.845273 L 53.229789 93.033379 L 53.241674 92.410666 L 53.238574 92.41325 C 53.248122 92.138583 53.1496 91.854299 52.910939 91.844799 C 52.898719 91.842599 52.886075 91.84138 52.874765 91.841181 L 52.874248 91.841181 z M 53.843199 91.841181 C 53.831889 91.84138 53.819245 91.842599 53.807025 91.844799 C 53.568364 91.854299 53.469842 92.138583 53.47939 92.41325 L 53.47629 92.410666 L 53.487659 93.033379 L 54.045775 92.845273 L 54.043191 92.843206 C 54.273729 92.754146 54.533352 92.584263 54.526891 92.322298 C 54.521991 92.12662 54.185003 92.132613 54.069546 92.164682 C 54.084476 92.076032 54.023356 91.838722 53.843716 91.841181 L 53.843199 91.841181 z M 55.453467 91.841181 C 55.273827 91.838722 55.21219 92.076032 55.22712 92.164682 C 55.111663 92.132613 54.775192 92.126621 54.770292 92.322298 C 54.763831 92.584264 55.023453 92.754663 55.253992 92.843723 L 55.251408 92.845273 L 55.809524 93.033379 L 55.820893 92.410666 L 55.817792 92.41325 C 55.82734 92.138583 55.728818 91.854299 55.490158 91.844799 C 55.477938 91.842599 55.465293 91.84138 55.453983 91.841181 L 55.453467 91.841181 z M 56.422418 91.841181 C 56.411108 91.84138 56.398463 91.842599 56.386243 91.844799 C 56.147582 91.854299 56.049061 92.138583 56.058609 92.41325 L 56.055508 92.410666 L 56.066877 93.033379 L 56.624993 92.845273 L 56.622409 92.843206 C 56.852948 92.754146 57.112571 92.584263 57.10611 92.322298 C 57.10121 92.12662 56.764738 92.132613 56.649281 92.164682 C 56.664211 92.076032 56.602574 91.838722 56.422934 91.841181 L 56.422418 91.841181 z"/><path id="path7587-9" style="color:#000;fill:#000;stroke:none;stroke-width:.999998;stroke-linecap:square;stroke-linejoin:round;-inkscape-stroke:none;paint-order:stroke fill markers" d="m 55.886719,85.765625 a 0.10589734,0.10589734 0 0 0 -0.111328,0.09961 l -0.0039,0.08203 -0.03516,0.740234 -0.0039,0.08203 a 0.10589734,0.10589734 0 0 0 0.09961,0.111328 l 0.164063,0.0078 a 0.10589734,0.10589734 0 0 0 0.111328,-0.09961 l 0.0039,-0.08203 0.03711,-0.740234 a 0.10589734,0.10589734 0 0 0 0,-0.0039 l 0.002,-0.08203 a 0.10589734,0.10589734 0 0 0 -0.09961,-0.107421 z m -0.658203,0.238281 -0.164063,0.01563 a 0.10589734,0.10589734 0 0 0 -0.0957,0.113281 l 0.0059,0.08203 a 0.10589734,0.10589734 0 0 0 0,0.002 l 0.05273,0.585937 0.0059,0.08203 a 0.10589734,0.10589734 0 0 0 0.113281,0.09766 L 55.3125,86.96875 a 0.10589734,0.10589734 0 0 0 0.09766,-0.115234 l -0.0078,-0.08203 -0.05078,-0.589843 -0.0078,-0.08203 a 0.10589734,0.10589734 0 0 0 -0.115234,-0.0957 z m 1.375,0.08398 a 0.10589734,0.10589734 0 0 0 -0.13086,0.07227 l -0.02344,0.08008 -0.123047,0.441407 a 0.10589734,0.10589734 0 0 0 0,0.002 l -0.02148,0.08008 a 0.10589734,0.10589734 0 0 0 0.07227,0.128906 l 0.158203,0.04492 a 0.10589734,0.10589734 0 0 0 0.13086,-0.07422 l 0.02148,-0.08008 0.123047,-0.441406 0.02344,-0.07617 a 0.10589734,0.10589734 0 0 0 -0.07227,-0.132813 z m -2.958985,5.140625 a 0.10589734,0.10589734 0 0 0 -0.07813,0.02539 l -0.0625,0.05078 -0.457031,0.373046 -0.0625,0.05078 a 0.10589734,0.10589734 0 0 0 -0.01758,0.148437 l 0.101562,0.128906 a 0.10589734,0.10589734 0 0 0 0.150391,0.01758 l 0.06445,-0.05078 a 0.10589734,0.10589734 0 0 0 0,-0.002 l 0.458985,-0.373047 0.06445,-0.05273 a 0.10589734,0.10589734 0 0 0 0.01563,-0.148438 l -0.105469,-0.128906 a 0.10589734,0.10589734 0 0 0 -0.07227,-0.03906 z m 4.414063,0.03711 a 0.10589734,0.10589734 0 0 0 -0.148438,0.01563 l -0.105468,0.126953 a 0.10589734,0.10589734 0 0 0 0.01562,0.150391 l 0.06641,0.05273 0.457031,0.373047 a 0.10589734,0.10589734 0 0 0 0,0.002 l 0.06445,0.05078 a 0.10589734,0.10589734 0 0 0 0.148438,-0.01758 l 0.103515,-0.128906 a 0.10589734,0.10589734 0 0 0 -0.01563,-0.148437 l -0.06445,-0.05273 -0.457031,-0.371094 a 0.10589734,0.10589734 0 0 0 0,-0.002 z m -3.9375,0.564453 a 0.10589734,0.10589734 0 0 0 -0.148438,0.0039 l -0.05664,0.05859 a 0.10589734,0.10589734 0 0 0 -0.002,0.002 l -0.505859,0.541016 -0.05664,0.06055 a 0.10589734,0.10589734 0 0 0 0.0059,0.148437 l 0.11914,0.113281 a 0.10589734,0.10589734 0 0 0 0.150391,-0.0039 l 0.05664,-0.06055 0.507812,-0.541015 a 0.10589734,0.10589734 0 0 0 0,-0.002 l 0.05469,-0.06055 a 0.10589734,0.10589734 0 0 0 -0.0059,-0.148438 z m 3.386718,0.01367 -0.121093,0.111328 a 0.10589734,0.10589734 0 0 0 -0.0059,0.150391 l 0.05664,0.06055 0.505859,0.541015 a 0.10589734,0.10589734 0 0 0 0.002,0.002 l 0.05859,0.06055 a 0.10589734,0.10589734 0 0 0 0.148438,0.002 l 0.11914,-0.113281 a 0.10589734,0.10589734 0 0 0 0.0059,-0.148437 l -0.05664,-0.06055 -0.505859,-0.541016 a 0.10589734,0.10589734 0 0 0 -0.002,-0.002 l -0.05664,-0.05859 a 0.10589734,0.10589734 0 0 0 -0.148438,-0.0039 z m -3,0.369141 A 0.10589734,0.10589734 0 0 0 54.365234,92.25 l -0.04297,0.07031 a 0.10589734,0.10589734 0 0 0 -0.002,0.002 l -0.230468,0.396484 -0.04102,0.07227 a 0.10589734,0.10589734 0 0 0 0.03906,0.144531 l 0.142578,0.08203 A 0.10589734,0.10589734 0 0 0 54.375,92.978516 l 0.04102,-0.07031 0.230468,-0.396484 0.04102,-0.07227 a 0.10589734,0.10589734 0 0 0 -0.03906,-0.144531 z m 2.613282,0.01367 -0.142578,0.08203 a 0.10589734,0.10589734 0 0 0 -0.03906,0.144531 l 0.04102,0.07227 0.232422,0.396484 0.04102,0.07031 a 0.10589734,0.10589734 0 0 0 0.144532,0.03906 l 0.142578,-0.08203 a 0.10589734,0.10589734 0 0 0 0.03906,-0.144531 l -0.04102,-0.07227 -0.232421,-0.396484 -0.04102,-0.07031 a 0.10589734,0.10589734 0 0 0 -0.144531,-0.03906 z"/><path id="path2-9" style="opacity:.2125;fill:#000;fill-opacity:1;fill-rule:evenodd;stroke-width:.235529" d="m 54.963566,87.723527 c -0.426075,0.01082 -0.899776,0.195291 -1.421128,0.553981 l -0.0708,0.0708 c -0.502461,0.714437 -0.267088,1.581851 0.70643,2.602474 l 1.613368,1.649025 0.188622,0.08217 c 0.06281,0 0.121777,-0.02369 0.176737,-0.0708 0.651628,-0.573119 1.306844,-1.216747 1.966324,-1.931184 0.761542,-0.8322 0.875453,-1.613431 0.341588,-2.343569 l -0.05891,-0.05891 C 57.432279,87.602333 56.623838,87.54336 55.98006,88.100778 55.678289,87.839488 55.339514,87.713987 54.963566,87.723533 Z"/><g id="g12" fill-rule="evenodd" transform="matrix(0.23552872,0,0,0.23552872,53.189734,87.499318)"><path id="path2" fill="#600" d="m 12.5,20.75 q -0.35,0.3 -0.75,0.3 L 10.95,20.7 4.1,13.7 Q -2.1,7.2 1.1,2.65 l 0.3,-0.3 q 6.25,-4.3 10.35,-0.75 4.1,-3.55 10.3,0.75 L 22.3,2.6 q 3.4,4.65 -1.45,9.95 -4.2,4.55 -8.35,8.2" style="fill:#000;fill-opacity:1"/><path id="path4" d="M 7.3500677,0.84952672 C 7.4917342,0.96619327 7.6341824,1.0965321 7.7758489,1.2381986 7.9175154,1.3798651 8.0580105,1.5324696 8.199677,1.6991361 8.3413436,1.8658026 8.4837917,2.0465321 8.6254583,2.2381986 8.4837917,2.0465321 8.3413436,1.8658026 8.199677,1.6991361 8.0580105,1.5324696 7.9175154,1.3798651 7.7758489,1.2381986 7.6341824,1.0965321 7.4917342,0.96619327 7.3500677,0.84952672 Z m 0,0 L 5.0004583,1.1991361 5.7992864,1.150308 c 1.9666647,0 2.9337239,0.982554 2.9003906,2.9492187 -0.7333326,2.4666642 -2.150002,3.7011718 -4.2499999,3.7011718 -1.8333315,0 -2.7654948,-0.9166685 -2.7988281,-2.75 0,-1.0999989 0.2500005,-1.9682297 0.75,-2.6015624 l -0.75,0.5 C -0.08248258,5.5824668 0.86712865,8.7840355 4.5004583,12.550698 l 3.5,3.648438 c 0.083333,-0.05 0.1597657,-0.103646 0.2285156,-0.164063 0.06875,-0.06042 0.1294271,-0.126432 0.1835938,-0.197265 0.054167,-0.07083 0.1010417,-0.147266 0.1406249,-0.228516 0.039583,-0.08125 0.072656,-0.168099 0.097656,-0.259766 -0.025,0.09167 -0.058073,0.178516 -0.097656,0.259766 -0.039583,0.08125 -0.086458,0.157682 -0.1406249,0.228516 -0.054167,0.07083 -0.1148439,0.136849 -0.1835938,0.197265 -0.06875,0.06042 -0.1451824,0.114063 -0.2285156,0.164063 l 0.7988281,0.800781 1.9999996,2.099609 0.550782,0.5 v -0.04883 l 0.09961,-0.05078 v -0.05078 c 2.699997,-2.399998 5.434508,-5.082165 8.201172,-8.048828 2.766664,-2.9999972 3.216274,-5.8178412 1.349609,-8.4511719 l -0.75,-0.5 -0.701172,-0.4492188 -0.75,-0.3496093 -0.449219,-0.2011719 -0.40039,-0.1484375 -2.798828,-0.45117188 0.04883,0.0507813 C 13.933012,0.96697457 12.799285,1.4669755 11.799286,2.4003079 l -0.449218,0.4492188 -0.5,-0.4492188 C 10.383401,1.966975 9.9008484,1.6336411 9.4008489,1.400308 Z M 16.750458,2.1756986 c 0.06667,0.095833 0.123828,0.1920574 0.173828,0.2910156 0.05,0.098958 0.09167,0.2006511 0.125,0.3027344 0.03333,0.1020832 0.05951,0.2053386 0.07617,0.3105468 0.01667,0.1052083 0.02539,0.2119793 0.02539,0.3203125 0,-0.1083332 -0.0087,-0.2151042 -0.02539,-0.3203125 -0.01667,-0.1052082 -0.04284,-0.2084636 -0.07617,-0.3105468 -0.03333,-0.1020833 -0.075,-0.2037762 -0.125,-0.3027344 -0.05,-0.098958 -0.107161,-0.1951824 -0.173828,-0.2910156 z" style="fill:#4a0;fill-opacity:1"/><path id="path6" d="M 5.7992864,1.150308 5.0004583,1.1991361 C 4.2004591,1.4658025 3.3671242,1.8669751 2.5004584,2.4003079 h -0.050781 l -0.048828,0.048828 c -0.4999995,0.6333327 -0.75,1.5015635 -0.75,2.6015624 0.033333,1.8333315 0.9654966,2.75 2.7988281,2.75 2.0999979,0 3.5166673,-1.2345076 4.2499999,-3.7011718 C 8.7330103,2.132862 7.7659511,1.150308 5.7992864,1.150308 Z" style="fill:#fff;fill-opacity:1"/></g></g></svg>