<?xml version="1.0" encoding="UTF-8" standalone="no"?>
<svg
   id="svg31684"
   width="34"
   height="34"
   version="1.1"
   viewBox="0 0 8.996 8.996"
   sodipodi:docname="life300.svg"
   inkscape:version="1.2.2 (732a01da63, 2022-12-09)"
   xmlns:inkscape="http://www.inkscape.org/namespaces/inkscape"
   xmlns:sodipodi="http://sodipodi.sourceforge.net/DTD/sodipodi-0.dtd"
   xmlns="http://www.w3.org/2000/svg"
   xmlns:svg="http://www.w3.org/2000/svg">
  <defs
     id="defs3678" />
  <sodipodi:namedview
     id="namedview3676"
     pagecolor="#ffffff"
     bordercolor="#666666"
     borderopacity="1.0"
     inkscape:showpageshadow="2"
     inkscape:pageopacity="0.0"
     inkscape:pagecheckerboard="0"
     inkscape:deskcolor="#d1d1d1"
     showgrid="false"
     inkscape:zoom="11.313709"
     inkscape:cx="7.8223687"
     inkscape:cy="17.191534"
     inkscape:window-width="1680"
     inkscape:window-height="975"
     inkscape:window-x="-9"
     inkscape:window-y="-9"
     inkscape:window-maximized="1"
     inkscape:current-layer="layer1" />
  <g
     id="layer1"
     transform="translate(-51.391107,-85.067826)">
    <path
       id="path1694-1-6-0-0"
       fill="#cc0"
       fill-rule="evenodd"
       stroke="none"
       d="m 51.655542,93.798844 v -8.466665 h 8.466665 v 8.466665 h -8.466665"
       style="fill:#44aa00;fill-opacity:1;stroke-width:0.264583" />
    <path
       style="color:#000;fill:#000;fill-opacity:1;stroke-width:.264583;stroke-linecap:round;stroke-linejoin:round;-inkscape-stroke:none"
       id="path424-0-7-3"
       d="m 51.65569,85.067826 a 0.26460979,0.26460979 0 0 0 -0.264583,0.264583 v 8.466666 a 0.26460979,0.26460979 0 0 0 0.264583,0.264583 h 8.466665 a 0.26460979,0.26460979 0 0 0 0.264584,-0.264583 v -8.466666 a 0.26460979,0.26460979 0 0 0 -0.264584,-0.264583 z m 0.264582,0.529166 h 7.9375 v 7.937499 h -7.9375 z" />
    <path
       id="path4462-6-8"
       style="fill:#ffffff;fill-opacity:1;stroke-width:2.00004;stroke-linecap:round;stroke-linejoin:round;paint-order:stroke fill markers"
       d="M 58.024934 86.201111 C 57.845294 86.198653 57.783657 86.435962 57.798587 86.524612 C 57.68313 86.492544 57.346142 86.486551 57.341242 86.682228 C 57.334781 86.944193 57.59492 87.114076 57.825459 87.203136 L 57.822875 87.205203 L 58.380474 87.392792 L 58.391843 86.770596 L 58.389259 86.77318 C 58.398807 86.498512 58.300285 86.214229 58.061624 86.204729 C 58.049404 86.202529 58.03676 86.20131 58.02545 86.201111 L 58.024934 86.201111 z M 58.993368 86.201111 C 58.982058 86.20131 58.96993 86.202012 58.95771 86.204212 C 58.71905 86.213712 58.620528 86.498512 58.630076 86.77318 L 58.626975 86.770596 L 58.638344 87.392792 L 59.195943 87.205203 L 59.193876 87.203136 C 59.424415 87.114086 59.684037 86.944192 59.677576 86.682228 C 59.672676 86.486551 59.335688 86.492543 59.220232 86.524612 C 59.235162 86.435962 59.173524 86.198652 58.993885 86.201111 L 58.993368 86.201111 z M 52.874248 86.243487 C 52.694608 86.241028 52.632971 86.478337 52.647901 86.566987 C 52.532444 86.534919 52.195973 86.528926 52.191073 86.724603 C 52.184612 86.986568 52.444235 87.156968 52.674773 87.246028 L 52.672189 87.247578 L 53.229789 87.435684 L 53.241674 86.813488 L 53.238574 86.815555 C 53.248122 86.540888 53.1496 86.256604 52.910939 86.247104 C 52.898719 86.244904 52.886075 86.243686 52.874765 86.243487 L 52.874248 86.243487 z M 53.843199 86.243487 C 53.831889 86.243686 53.819245 86.244904 53.807025 86.247104 C 53.568364 86.256604 53.469842 86.540888 53.47939 86.815555 L 53.47629 86.812971 L 53.487659 87.435684 L 54.045775 87.247578 L 54.043191 87.245511 C 54.273729 87.156451 54.533352 86.986568 54.526891 86.724603 C 54.521991 86.528926 54.185003 86.534918 54.069546 86.566987 C 54.084476 86.478337 54.023356 86.241028 53.843716 86.243487 L 53.843199 86.243487 z M 55.453467 86.243487 C 55.273827 86.241028 55.21219 86.478337 55.22712 86.566987 C 55.111663 86.534919 54.775192 86.528926 54.770292 86.724603 C 54.763831 86.986568 55.023453 87.156968 55.253992 87.246028 L 55.251408 87.247578 L 55.809524 87.435684 L 55.820893 86.813488 L 55.817792 86.815555 C 55.82734 86.540888 55.728818 86.256604 55.490158 86.247104 C 55.477938 86.244904 55.465293 86.243686 55.453983 86.243487 L 55.453467 86.243487 z M 56.422418 86.243487 C 56.411108 86.243686 56.398463 86.244904 56.386243 86.247104 C 56.147582 86.256604 56.049061 86.540888 56.058609 86.815555 L 56.055508 86.812971 L 56.066877 87.435684 L 56.624993 87.247578 L 56.622409 87.245511 C 56.852948 87.156451 57.112571 86.986568 57.10611 86.724603 C 57.10121 86.528926 56.764738 86.534918 56.649281 86.566987 C 56.664211 86.478337 56.602574 86.241028 56.422934 86.243487 L 56.422418 86.243487 z M 58.02545 87.600018 C 57.845446 87.597139 57.783647 87.834799 57.798587 87.923519 C 57.68313 87.891451 57.346142 87.885458 57.341242 88.081135 C 57.334781 88.343099 57.594919 88.51351 57.825459 88.602559 L 57.822875 88.604627 L 58.380474 88.792732 L 58.391843 88.170536 L 58.389259 88.172604 C 58.398807 87.897936 58.300286 87.613652 58.061624 87.604152 C 58.049234 87.601952 58.036374 87.601235 58.024934 87.601052 L 58.02545 87.600535 L 58.02545 87.600018 z M 58.993368 87.600018 L 58.993368 87.600535 C 58.98206 87.600736 58.969919 87.601985 58.95771 87.604152 C 58.719049 87.613652 58.620528 87.897936 58.630076 88.172604 L 58.626975 88.170536 L 58.638344 88.792732 L 59.195943 88.604627 L 59.193876 88.602559 C 59.424416 88.5135 59.684037 88.343099 59.677576 88.081135 C 59.672676 87.885458 59.335688 87.89145 59.220232 87.923519 C 59.235172 87.834799 59.173372 87.59714 58.993368 87.600018 z M 52.874765 87.64291 C 52.694761 87.640032 52.632961 87.877691 52.647901 87.966411 C 52.532444 87.934343 52.195973 87.927833 52.191073 88.12351 C 52.184612 88.385475 52.444234 88.555885 52.674773 88.644935 L 52.672189 88.647519 L 53.229789 88.835108 L 53.241674 88.212912 L 53.238574 88.215496 C 53.248122 87.940829 53.149601 87.656028 52.910939 87.646528 C 52.898549 87.644328 52.885688 87.64361 52.874248 87.643427 L 52.874765 87.64291 z M 53.843199 87.64291 L 53.843716 87.643427 C 53.832276 87.64361 53.819415 87.644328 53.807025 87.646528 C 53.568363 87.656028 53.469842 87.940828 53.47939 88.215496 L 53.47629 88.212912 L 53.487659 88.835108 L 54.045775 88.647519 L 54.043191 88.644935 C 54.27373 88.555875 54.533352 88.385476 54.526891 88.12351 C 54.521991 87.927834 54.185003 87.934342 54.069546 87.966411 C 54.084486 87.877691 54.023203 87.640032 53.843199 87.64291 z M 55.453983 87.64291 C 55.27398 87.640032 55.21218 87.877691 55.22712 87.966411 C 55.111663 87.934343 54.775192 87.927833 54.770292 88.12351 C 54.763831 88.385475 55.023452 88.555885 55.253992 88.644935 L 55.251408 88.647519 L 55.809524 88.835108 L 55.820893 88.212912 L 55.817792 88.215496 C 55.82734 87.940829 55.728819 87.656028 55.490158 87.646528 C 55.477768 87.644328 55.464907 87.64361 55.453467 87.643427 L 55.453983 87.64291 z M 56.422418 87.64291 L 56.422934 87.643427 C 56.411494 87.64361 56.398633 87.644328 56.386243 87.646528 C 56.147582 87.656028 56.049061 87.940828 56.058609 88.215496 L 56.055508 88.212912 L 56.066877 88.835108 L 56.624993 88.647519 L 56.622409 88.644935 C 56.852949 88.555875 57.112571 88.385476 57.10611 88.12351 C 57.10121 87.927834 56.764738 87.934342 56.649281 87.966411 C 56.664221 87.877691 56.602421 87.640032 56.422418 87.64291 z M 58.024934 88.999959 C 57.845294 88.9975 57.783657 89.234809 57.798587 89.323459 C 57.68313 89.29139 57.346142 89.285397 57.341242 89.481075 C 57.334781 89.743041 57.59492 89.912923 57.825459 90.001983 L 57.822875 90.00405 L 58.380474 90.191639 L 58.391843 89.569443 L 58.389259 89.572027 C 58.398807 89.29736 58.300285 89.012559 58.061624 89.003059 C 58.049404 89.000859 58.03676 89.000159 58.02545 88.999959 L 58.024934 88.999959 z M 58.993368 88.999959 C 58.982058 89.000159 58.96993 89.000859 58.95771 89.003059 C 58.71905 89.012559 58.620528 89.29736 58.630076 89.572027 L 58.626975 89.569443 L 58.638344 90.191639 L 59.195943 90.00405 L 59.193876 90.001983 C 59.424415 89.912933 59.684037 89.74304 59.677576 89.481075 C 59.672676 89.285397 59.335688 89.29139 59.220232 89.323459 C 59.235162 89.234809 59.173524 88.9975 58.993885 88.999959 L 58.993368 88.999959 z M 52.874248 89.042334 C 52.694608 89.039875 52.632971 89.277185 52.647901 89.365835 C 52.532444 89.333766 52.195973 89.327773 52.191073 89.523451 C 52.184612 89.785415 52.444235 89.955815 52.674773 90.044875 L 52.672189 90.046426 L 53.229789 90.234531 L 53.241674 89.612336 L 53.238574 89.614403 C 53.248122 89.339735 53.1496 89.055451 52.910939 89.045951 C 52.898719 89.043751 52.886075 89.042534 52.874765 89.042334 L 52.874248 89.042334 z M 53.843199 89.042334 C 53.831889 89.042534 53.819245 89.043751 53.807025 89.045951 C 53.568364 89.055451 53.469842 89.339735 53.47939 89.614403 L 53.47629 89.611819 L 53.487659 90.234531 L 54.045775 90.046426 L 54.043191 90.044359 C 54.273729 89.955299 54.533352 89.785415 54.526891 89.523451 C 54.521991 89.327773 54.185003 89.333766 54.069546 89.365835 C 54.084476 89.277185 54.023356 89.039875 53.843716 89.042334 L 53.843199 89.042334 z M 55.453467 89.042334 C 55.273827 89.039875 55.21219 89.277185 55.22712 89.365835 C 55.111663 89.333766 54.775192 89.327773 54.770292 89.523451 C 54.763831 89.785415 55.023453 89.955815 55.253992 90.044875 L 55.251408 90.046426 L 55.809524 90.234531 L 55.820893 89.612336 L 55.817792 89.614403 C 55.82734 89.339735 55.728818 89.055451 55.490158 89.045951 C 55.477938 89.043751 55.465293 89.042534 55.453983 89.042334 L 55.453467 89.042334 z M 56.422418 89.042334 C 56.411108 89.042534 56.398463 89.043751 56.386243 89.045951 C 56.147582 89.055451 56.049061 89.339735 56.058609 89.614403 L 56.055508 89.611819 L 56.066877 90.234531 L 56.624993 90.046426 L 56.622409 90.044359 C 56.852948 89.955299 57.112571 89.785415 57.10611 89.523451 C 57.10121 89.327773 56.764738 89.333766 56.649281 89.365835 C 56.664211 89.277185 56.602574 89.039875 56.422934 89.042334 L 56.422418 89.042334 z M 58.024934 90.399382 C 57.845294 90.396924 57.783657 90.634233 57.798587 90.722883 C 57.68313 90.690814 57.346142 90.684822 57.341242 90.880499 C 57.334781 91.142465 57.594403 91.312864 57.824942 91.401924 L 57.822875 91.403474 L 58.380474 91.59158 L 58.391843 90.969384 L 58.389259 90.971451 C 58.398807 90.696784 58.300285 90.4125 58.061624 90.403 C 58.052334 90.4014 58.042519 90.400338 58.033719 90.399899 L 58.033719 90.399382 C 58.031019 90.399244 58.02825 90.39943 58.02545 90.399382 L 58.024934 90.399382 z M 58.985099 90.399382 C 58.976299 90.399821 58.967 90.4014 58.95771 90.403 C 58.71905 90.4125 58.620528 90.696785 58.630076 90.971451 L 58.626975 90.969384 L 58.638344 91.59158 L 59.19646 91.403474 L 59.193876 91.401924 C 59.424415 91.312864 59.684037 91.142464 59.677576 90.880499 C 59.672676 90.684821 59.335688 90.690814 59.220232 90.722883 C 59.235162 90.634233 59.173524 90.396923 58.993885 90.399382 C 58.991085 90.39943 58.987799 90.399243 58.985099 90.399382 z M 52.874248 90.442275 C 52.694608 90.439816 52.632971 90.677125 52.647901 90.765775 C 52.532444 90.733706 52.195973 90.727196 52.191073 90.922874 C 52.184612 91.184839 52.444235 91.355249 52.674773 91.444299 L 52.672189 91.446366 L 53.229789 91.633955 L 53.241158 91.011759 L 53.238574 91.014343 C 53.248122 90.739677 53.1496 90.454875 52.910939 90.445375 C 52.901649 90.443775 52.89235 90.442714 52.88355 90.442275 L 52.883033 90.442275 C 52.880333 90.442136 52.877565 90.442323 52.874765 90.442275 L 52.874248 90.442275 z M 53.834414 90.442275 C 53.825614 90.442714 53.816315 90.443775 53.807025 90.445375 C 53.568364 90.454875 53.469842 90.73916 53.47939 91.013826 L 53.47629 91.011759 L 53.487659 91.633955 L 54.045775 91.446366 L 54.043191 91.444299 C 54.273729 91.355249 54.533352 91.18484 54.526891 90.922874 C 54.521991 90.727197 54.18552 90.733189 54.070063 90.765258 C 54.084993 90.676608 54.023356 90.439817 53.843716 90.442275 L 53.843199 90.442275 C 53.840399 90.442323 53.837114 90.442137 53.834414 90.442275 z M 55.453467 90.442275 C 55.273827 90.439816 55.21219 90.677125 55.22712 90.765775 C 55.111663 90.733706 54.775192 90.727196 54.770292 90.922874 C 54.763831 91.184839 55.023453 91.355249 55.253992 91.444299 L 55.251408 91.446366 L 55.809524 91.633955 L 55.820893 91.011759 L 55.817792 91.014343 C 55.82734 90.739677 55.728818 90.454875 55.490158 90.445375 C 55.480868 90.443775 55.471569 90.442714 55.462769 90.442275 C 55.460069 90.442136 55.456783 90.442323 55.453983 90.442275 L 55.453467 90.442275 z M 56.413633 90.442275 C 56.404833 90.442714 56.395533 90.443775 56.386243 90.445375 C 56.147582 90.454875 56.049061 90.73916 56.058609 91.013826 L 56.056025 91.011759 L 56.067394 91.633955 L 56.624993 91.446366 L 56.622409 91.444299 C 56.852948 91.355249 57.112571 91.18484 57.10611 90.922874 C 57.10121 90.727197 56.764738 90.733189 56.649281 90.765258 C 56.664211 90.676608 56.602574 90.439817 56.422934 90.442275 L 56.422418 90.442275 C 56.419618 90.442323 56.416333 90.442137 56.413633 90.442275 z M 58.024934 91.798806 C 57.845294 91.796347 57.783657 92.033657 57.798587 92.122306 C 57.68313 92.090238 57.346142 92.084245 57.341242 92.279923 C 57.334781 92.541887 57.59492 92.711781 57.825459 92.800831 L 57.822875 92.802898 L 58.380474 92.990487 L 58.391843 92.368291 L 58.389259 92.370875 C 58.398807 92.096208 58.300285 91.811407 58.061624 91.801907 C 58.049404 91.799707 58.03676 91.799005 58.02545 91.798806 L 58.024934 91.798806 z M 58.993368 91.798806 C 58.982058 91.799005 58.96993 91.799707 58.95771 91.801907 C 58.71905 91.811407 58.620528 92.096208 58.630076 92.370875 L 58.626975 92.368291 L 58.638344 92.990487 L 59.195943 92.802898 L 59.193876 92.800831 C 59.424415 92.711781 59.684037 92.54137 59.677576 92.279406 C 59.672676 92.083728 59.335688 92.090238 59.220232 92.122306 C 59.235162 92.033657 59.173524 91.796347 58.993885 91.798806 L 58.993368 91.798806 z M 52.874248 91.841181 C 52.694608 91.838722 52.632971 92.076032 52.647901 92.164682 C 52.532444 92.132613 52.195973 92.126621 52.191073 92.322298 C 52.184612 92.584264 52.444235 92.754663 52.674773 92.843723 L 52.672189 92.845273 L 53.229789 93.033379 L 53.241674 92.410666 L 53.238574 92.41325 C 53.248122 92.138583 53.1496 91.854299 52.910939 91.844799 C 52.898719 91.842599 52.886075 91.84138 52.874765 91.841181 L 52.874248 91.841181 z M 53.843199 91.841181 C 53.831889 91.84138 53.819245 91.842599 53.807025 91.844799 C 53.568364 91.854299 53.469842 92.138583 53.47939 92.41325 L 53.47629 92.410666 L 53.487659 93.033379 L 54.045775 92.845273 L 54.043191 92.843206 C 54.273729 92.754146 54.533352 92.584263 54.526891 92.322298 C 54.521991 92.12662 54.185003 92.132613 54.069546 92.164682 C 54.084476 92.076032 54.023356 91.838722 53.843716 91.841181 L 53.843199 91.841181 z M 55.453467 91.841181 C 55.273827 91.838722 55.21219 92.076032 55.22712 92.164682 C 55.111663 92.132613 54.775192 92.126621 54.770292 92.322298 C 54.763831 92.584264 55.023453 92.754663 55.253992 92.843723 L 55.251408 92.845273 L 55.809524 93.033379 L 55.820893 92.410666 L 55.817792 92.41325 C 55.82734 92.138583 55.728818 91.854299 55.490158 91.844799 C 55.477938 91.842599 55.465293 91.84138 55.453983 91.841181 L 55.453467 91.841181 z M 56.422418 91.841181 C 56.411108 91.84138 56.398463 91.842599 56.386243 91.844799 C 56.147582 91.854299 56.049061 92.138583 56.058609 92.41325 L 56.055508 92.410666 L 56.066877 93.033379 L 56.624993 92.845273 L 56.622409 92.843206 C 56.852948 92.754146 57.112571 92.584263 57.10611 92.322298 C 57.10121 92.12662 56.764738 92.132613 56.649281 92.164682 C 56.664211 92.076032 56.602574 91.838722 56.422934 91.841181 L 56.422418 91.841181 z " />
    <path
       id="path4462-6-8-9-8-8"
       style="fill:#000000;fill-opacity:1;stroke-width:2.00004;stroke-linecap:round;stroke-linejoin:round;paint-order:stroke fill markers"
       sodipodi:type="inkscape:offset"
       inkscape:radius="0.33453959"
       inkscape:original="M 56.958984 87.548828 C 56.547294 87.698562 56.15193 87.972785 55.976562 88.150391 C 55.82168 87.821544 55.033116 87.158902 54.375 87.552734 L 54.373047 87.554688 C 54.331747 87.579437 54.287998 87.608978 54.248047 87.642578 C 53.388472 88.186678 53.696644 89.35091 54.382812 90.25 L 54.367188 90.248047 L 55.884766 92.306641 L 57.5 90.480469 L 57.486328 90.480469 C 58.127359 89.687442 58.683726 88.558503 58.039062 87.695312 C 57.798167 87.373012 57.370675 87.399094 56.958984 87.548828 z "
       d="m 54.894531,87.101562 c -0.227692,-0.01454 -0.466146,0.02926 -0.691406,0.164063 a 0.33457305,0.33457305 0 0 0 -0.0078,0.0059 c -0.04181,0.02527 -0.08719,0.058 -0.132812,0.09375 -0.530387,0.340179 -0.723491,0.9304 -0.658203,1.486328 0.06411,0.545877 0.333382,1.088641 0.691406,1.566407 a 0.33457305,0.33457305 0 0 0 0.002,0.0293 l 1.517578,2.058593 a 0.33457305,0.33457305 0 0 0 0.519532,0.02148 L 57.75,90.701172 a 0.33457305,0.33457305 0 0 0 0.01172,-0.03125 c 0.333663,-0.416224 0.649757,-0.918083 0.804687,-1.464844 0.157412,-0.555516 0.132016,-1.184398 -0.259765,-1.708984 a 0.33457305,0.33457305 0 0 0 0,-0.002 c -0.179851,-0.240627 -0.457183,-0.362079 -0.716797,-0.382813 -0.259614,-0.02073 -0.511158,0.0376 -0.746094,0.123047 -0.332153,0.120806 -0.552596,0.306793 -0.78125,0.480469 -0.141796,-0.160455 -0.312466,-0.309175 -0.541016,-0.429688 -0.181288,-0.09559 -0.39926,-0.169049 -0.626953,-0.183594 z" />
    <path
       id="path4462-6-8-9-8"
       style="fill:#44aa00;fill-opacity:1;stroke-width:2.00004;stroke-linecap:round;stroke-linejoin:round;paint-order:stroke fill markers"
       d="m 54.372694,87.554124 c -0.0413,0.02475 -0.08543,0.0548 -0.125381,0.0884 -0.859575,0.5441 -0.549916,1.708353 0.136252,2.607443 l -0.01609,-0.002 1.516631,2.058947 1.616457,-1.826096 -0.01354,-0.0012 c 0.641031,-0.793027 1.197516,-1.920417 0.552853,-2.783607 -0.481791,-0.644602 -1.71229,0.09903 -2.063025,0.454242 -0.154883,-0.328847 -0.944569,-0.991174 -1.602685,-0.597342 z"
       sodipodi:nodetypes="ccccccccccc" />
    <path
       id="path7587-9"
       style="color:#000000;fill:#000000;stroke:none;stroke-width:0.999998;stroke-linecap:square;stroke-linejoin:round;-inkscape-stroke:none;paint-order:stroke fill markers"
       sodipodi:type="inkscape:offset"
       inkscape:radius="0.10588675"
       inkscape:original="M 55.880859 85.871094 L 55.876953 85.953125 L 55.841797 86.693359 L 55.837891 86.775391 L 56.001953 86.783203 L 56.005859 86.701172 L 56.042969 85.960938 L 56.044922 85.878906 L 55.880859 85.871094 z M 55.238281 86.109375 L 55.074219 86.125 L 55.080078 86.207031 L 55.132812 86.794922 L 55.138672 86.876953 L 55.304688 86.863281 L 55.296875 86.78125 L 55.246094 86.191406 L 55.238281 86.109375 z M 56.574219 86.189453 L 56.550781 86.269531 L 56.427734 86.710938 L 56.40625 86.791016 L 56.564453 86.835938 L 56.585938 86.755859 L 56.708984 86.3125 L 56.732422 86.234375 L 56.574219 86.189453 z M 53.634766 91.333984 L 53.572266 91.386719 L 53.113281 91.759766 L 53.050781 91.810547 L 53.152344 91.939453 L 53.216797 91.888672 L 53.675781 91.515625 L 53.740234 91.462891 L 53.634766 91.333984 z M 57.992188 91.349609 L 57.886719 91.476562 L 57.953125 91.529297 L 58.410156 91.902344 L 58.474609 91.953125 L 58.578125 91.824219 L 58.513672 91.771484 L 58.056641 91.400391 L 57.992188 91.349609 z M 54.048828 91.908203 L 53.992188 91.966797 L 53.486328 92.507812 L 53.429688 92.568359 L 53.548828 92.681641 L 53.605469 92.621094 L 54.113281 92.080078 L 54.167969 92.019531 L 54.048828 91.908203 z M 57.580078 91.921875 L 57.458984 92.033203 L 57.515625 92.09375 L 58.021484 92.634766 L 58.080078 92.695312 L 58.199219 92.582031 L 58.142578 92.521484 L 57.636719 91.980469 L 57.580078 91.921875 z M 54.455078 92.304688 L 54.412109 92.375 L 54.181641 92.771484 L 54.140625 92.84375 L 54.283203 92.925781 L 54.324219 92.855469 L 54.554688 92.458984 L 54.595703 92.386719 L 54.455078 92.304688 z M 57.173828 92.318359 L 57.03125 92.400391 L 57.072266 92.472656 L 57.304688 92.869141 L 57.345703 92.939453 L 57.488281 92.857422 L 57.447266 92.785156 L 57.214844 92.388672 L 57.173828 92.318359 z "
       d="m 55.886719,85.765625 a 0.10589734,0.10589734 0 0 0 -0.111328,0.09961 l -0.0039,0.08203 -0.03516,0.740234 -0.0039,0.08203 a 0.10589734,0.10589734 0 0 0 0.09961,0.111328 l 0.164063,0.0078 a 0.10589734,0.10589734 0 0 0 0.111328,-0.09961 l 0.0039,-0.08203 0.03711,-0.740234 a 0.10589734,0.10589734 0 0 0 0,-0.0039 l 0.002,-0.08203 a 0.10589734,0.10589734 0 0 0 -0.09961,-0.107421 z m -0.658203,0.238281 -0.164063,0.01563 a 0.10589734,0.10589734 0 0 0 -0.0957,0.113281 l 0.0059,0.08203 a 0.10589734,0.10589734 0 0 0 0,0.002 l 0.05273,0.585937 0.0059,0.08203 a 0.10589734,0.10589734 0 0 0 0.113281,0.09766 L 55.3125,86.96875 a 0.10589734,0.10589734 0 0 0 0.09766,-0.115234 l -0.0078,-0.08203 -0.05078,-0.589843 -0.0078,-0.08203 a 0.10589734,0.10589734 0 0 0 -0.115234,-0.0957 z m 1.375,0.08398 a 0.10589734,0.10589734 0 0 0 -0.13086,0.07227 l -0.02344,0.08008 -0.123047,0.441407 a 0.10589734,0.10589734 0 0 0 0,0.002 l -0.02148,0.08008 a 0.10589734,0.10589734 0 0 0 0.07227,0.128906 l 0.158203,0.04492 a 0.10589734,0.10589734 0 0 0 0.13086,-0.07422 l 0.02148,-0.08008 0.123047,-0.441406 0.02344,-0.07617 a 0.10589734,0.10589734 0 0 0 -0.07227,-0.132813 z m -2.958985,5.140625 a 0.10589734,0.10589734 0 0 0 -0.07813,0.02539 l -0.0625,0.05078 -0.457031,0.373046 -0.0625,0.05078 a 0.10589734,0.10589734 0 0 0 -0.01758,0.148437 l 0.101562,0.128906 a 0.10589734,0.10589734 0 0 0 0.150391,0.01758 l 0.06445,-0.05078 a 0.10589734,0.10589734 0 0 0 0,-0.002 l 0.458985,-0.373047 0.06445,-0.05273 a 0.10589734,0.10589734 0 0 0 0.01563,-0.148438 l -0.105469,-0.128906 a 0.10589734,0.10589734 0 0 0 -0.07227,-0.03906 z m 4.414063,0.03711 a 0.10589734,0.10589734 0 0 0 -0.148438,0.01563 l -0.105468,0.126953 a 0.10589734,0.10589734 0 0 0 0.01562,0.150391 l 0.06641,0.05273 0.457031,0.373047 a 0.10589734,0.10589734 0 0 0 0,0.002 l 0.06445,0.05078 a 0.10589734,0.10589734 0 0 0 0.148438,-0.01758 l 0.103515,-0.128906 a 0.10589734,0.10589734 0 0 0 -0.01563,-0.148437 l -0.06445,-0.05273 -0.457031,-0.371094 a 0.10589734,0.10589734 0 0 0 0,-0.002 z m -3.9375,0.564453 a 0.10589734,0.10589734 0 0 0 -0.148438,0.0039 l -0.05664,0.05859 a 0.10589734,0.10589734 0 0 0 -0.002,0.002 l -0.505859,0.541016 -0.05664,0.06055 a 0.10589734,0.10589734 0 0 0 0.0059,0.148437 l 0.11914,0.113281 a 0.10589734,0.10589734 0 0 0 0.150391,-0.0039 l 0.05664,-0.06055 0.507812,-0.541015 a 0.10589734,0.10589734 0 0 0 0,-0.002 l 0.05469,-0.06055 a 0.10589734,0.10589734 0 0 0 -0.0059,-0.148438 z m 3.386718,0.01367 -0.121093,0.111328 a 0.10589734,0.10589734 0 0 0 -0.0059,0.150391 l 0.05664,0.06055 0.505859,0.541015 a 0.10589734,0.10589734 0 0 0 0.002,0.002 l 0.05859,0.06055 a 0.10589734,0.10589734 0 0 0 0.148438,0.002 l 0.11914,-0.113281 a 0.10589734,0.10589734 0 0 0 0.0059,-0.148437 l -0.05664,-0.06055 -0.505859,-0.541016 a 0.10589734,0.10589734 0 0 0 -0.002,-0.002 l -0.05664,-0.05859 a 0.10589734,0.10589734 0 0 0 -0.148438,-0.0039 z m -3,0.369141 A 0.10589734,0.10589734 0 0 0 54.365234,92.25 l -0.04297,0.07031 a 0.10589734,0.10589734 0 0 0 -0.002,0.002 l -0.230468,0.396484 -0.04102,0.07227 a 0.10589734,0.10589734 0 0 0 0.03906,0.144531 l 0.142578,0.08203 A 0.10589734,0.10589734 0 0 0 54.375,92.978516 l 0.04102,-0.07031 0.230468,-0.396484 0.04102,-0.07227 a 0.10589734,0.10589734 0 0 0 -0.03906,-0.144531 z m 2.613282,0.01367 -0.142578,0.08203 a 0.10589734,0.10589734 0 0 0 -0.03906,0.144531 l 0.04102,0.07227 0.232422,0.396484 0.04102,0.07031 a 0.10589734,0.10589734 0 0 0 0.144532,0.03906 l 0.142578,-0.08203 a 0.10589734,0.10589734 0 0 0 0.03906,-0.144531 l -0.04102,-0.07227 -0.232421,-0.396484 -0.04102,-0.07031 a 0.10589734,0.10589734 0 0 0 -0.144531,-0.03906 z" />
  </g>
</svg>
