<svg xmlns="http://www.w3.org/2000/svg" xmlns:svg="http://www.w3.org/2000/svg" id="svg31684" width="34" height="34" version="1.1" viewBox="0 0 8.996 8.996"><g id="layer1" transform="translate(-51.391107,-85.067826)"><path id="path1694-1-6-0-0" fill="#cc0" fill-rule="evenodd" stroke="none" d="m 51.655542,93.798844 v -8.466665 h 8.466665 v 8.466665 h -8.466665" style="fill:#fff;fill-opacity:1;stroke-width:.264583"/><path style="color:#000;fill:#000;fill-opacity:1;stroke-width:.264583;stroke-linecap:round;stroke-linejoin:round;-inkscape-stroke:none" id="path424-0-7-3" d="m 51.65569,85.067826 a 0.26460979,0.26460979 0 0 0 -0.264583,0.264583 v 8.466666 a 0.26460979,0.26460979 0 0 0 0.264583,0.264583 h 8.466665 a 0.26460979,0.26460979 0 0 0 0.264584,-0.264583 v -8.466666 a 0.26460979,0.26460979 0 0 0 -0.264584,-0.264583 z m 0.264582,0.529166 h 7.9375 v 7.937499 h -7.9375 z"/><path id="path4462-6-8" style="fill:#8080ff;fill-opacity:1;stroke-width:2.16769;stroke-linecap:round;stroke-linejoin:round;paint-order:stroke fill markers" d="m 58.049208,85.622337 c -0.185989,-0.0028 -0.249804,0.266456 -0.234347,0.367036 -0.119537,-0.03638 -0.468435,-0.04319 -0.473508,0.178828 -0.0067,0.297219 0.262643,0.489964 0.50133,0.591009 l -0.0027,0.0024 0.577305,0.212834 0.01177,-0.705928 -0.0027,0.003 c 0.0098,-0.311631 -0.09211,-0.634172 -0.339214,-0.644951 -0.01265,-0.0025 -0.02574,-0.0038 -0.03745,-0.0041 z m 1.002659,0 c -0.01171,2.26e-4 -0.02427,0.001 -0.03692,0.0035 -0.247095,0.01074 -0.349099,0.333905 -0.339213,0.645537 l -0.0032,-0.003 0.01177,0.705928 0.577305,-0.212834 -0.0022,-0.0024 c 0.238686,-0.101037 0.507484,-0.293791 0.500794,-0.591009 -0.0051,-0.222011 -0.35397,-0.215212 -0.473507,-0.178827 0.01546,-0.100577 -0.04836,-0.369826 -0.234346,-0.367036 z m -6.335376,0.04809 c -0.185988,-0.0028 -0.249804,0.266455 -0.234346,0.367035 -0.119537,-0.03638 -0.4679,-0.04319 -0.472973,0.178827 -0.0067,0.297219 0.262109,0.490551 0.500795,0.591596 l -0.0027,0.0018 0.577306,0.21342 0.0123,-0.705928 -0.0032,0.0024 c 0.0098,-0.311631 -0.09211,-0.634172 -0.339214,-0.644951 -0.01265,-0.0025 -0.02574,-0.0038 -0.03745,-0.0041 z m 1.003195,0 c -0.01171,2.25e-4 -0.0248,0.0016 -0.03745,0.0041 -0.247096,0.01074 -0.3491,0.333321 -0.339214,0.644951 l -0.0032,-0.003 0.01177,0.706515 0.57784,-0.21342 -0.0027,-0.0024 c 0.238685,-0.101048 0.507483,-0.29379 0.500794,-0.591009 -0.0051,-0.22201 -0.353971,-0.215213 -0.473508,-0.178827 0.01546,-0.100577 -0.04782,-0.369826 -0.233811,-0.367036 z m 1.667176,0 c -0.185988,-0.0028 -0.249804,0.266455 -0.234346,0.367035 -0.119537,-0.03638 -0.467899,-0.04319 -0.472973,0.178827 -0.0067,0.297219 0.262108,0.490551 0.500795,0.591596 l -0.0027,0.0018 0.57784,0.21342 0.01177,-0.705928 -0.0032,0.0024 c 0.0098,-0.311631 -0.09211,-0.634172 -0.339213,-0.644951 -0.01265,-0.0025 -0.02574,-0.0038 -0.03746,-0.0041 z m 1.003195,0 c -0.01171,2.25e-4 -0.02481,0.0016 -0.03746,0.0041 -0.247095,0.01074 -0.349098,0.333321 -0.339212,0.644951 l -0.0032,-0.003 0.01177,0.706515 0.57784,-0.21342 -0.0027,-0.0024 c 0.238687,-0.101048 0.507485,-0.29379 0.500796,-0.591009 -0.0051,-0.22201 -0.353437,-0.215213 -0.472974,-0.178827 0.01546,-0.100577 -0.04836,-0.369826 -0.234346,-0.367036 z m 1.659685,1.539086 c -0.186366,-0.0033 -0.250349,0.266377 -0.234881,0.367037 -0.119537,-0.03638 -0.468435,-0.04319 -0.473508,0.178826 -0.0067,0.297219 0.262642,0.490563 0.50133,0.591596 l -0.0027,0.0024 0.577305,0.21342 0.01177,-0.705928 -0.0027,0.0024 c 0.0098,-0.311632 -0.09211,-0.634174 -0.339214,-0.644951 -0.01283,-0.0025 -0.02614,-0.0033 -0.03799,-0.0035 l 5.35e-4,-5.86e-4 z m 1.002125,0 v 5.87e-4 c -0.01171,2.28e-4 -0.02428,0.0015 -0.03692,0.0041 -0.247096,0.01074 -0.349099,0.33332 -0.339213,0.644951 l -0.0032,-0.0024 0.01177,0.705928 0.577305,-0.213419 -0.0022,-0.0024 c 0.238687,-0.101048 0.507484,-0.294376 0.500794,-0.591594 -0.0051,-0.222011 -0.35397,-0.215212 -0.473507,-0.178828 0.01547,-0.100654 -0.04852,-0.370301 -0.234881,-0.367037 z m -6.33484,0.04867 c -0.186366,-0.0033 -0.25035,0.266376 -0.234882,0.367036 -0.119537,-0.03638 -0.4679,-0.04377 -0.472973,0.178241 -0.0067,0.297219 0.262108,0.490562 0.500795,0.591596 l -0.0027,0.003 0.577306,0.212833 0.0123,-0.705928 -0.0032,0.003 c 0.0098,-0.311631 -0.09211,-0.634759 -0.339214,-0.645538 -0.01283,-0.0025 -0.02614,-0.0033 -0.03799,-0.0035 z m 1.002659,0 5.35e-4,5.86e-4 c -0.01184,2.08e-4 -0.02516,0.001 -0.03799,0.0035 -0.247097,0.01074 -0.3491,0.333905 -0.339214,0.645537 l -0.0032,-0.003 0.01177,0.705928 0.57784,-0.212834 -0.0027,-0.003 c 0.238687,-0.101048 0.507484,-0.294375 0.500795,-0.591595 -0.0051,-0.22201 -0.353971,-0.214626 -0.473508,-0.178241 0.01547,-0.100664 -0.04798,-0.370302 -0.234347,-0.367036 z m 1.667711,0 c -0.186365,-0.0033 -0.250349,0.266376 -0.234881,0.367036 -0.119537,-0.03638 -0.467899,-0.04377 -0.472973,0.178241 -0.0067,0.297219 0.262107,0.490562 0.500795,0.591596 l -0.0027,0.003 0.57784,0.212833 0.01177,-0.705928 -0.0032,0.003 c 0.0098,-0.311631 -0.09211,-0.634759 -0.339213,-0.645538 -0.01283,-0.0025 -0.02614,-0.0033 -0.03799,-0.0035 z m 1.00266,0 5.34e-4,5.86e-4 c -0.01184,2.08e-4 -0.02516,0.001 -0.03799,0.0035 -0.247096,0.01074 -0.349099,0.333905 -0.339213,0.645537 l -0.0032,-0.003 0.01177,0.705928 0.57784,-0.212834 -0.0027,-0.003 c 0.238687,-0.101048 0.507484,-0.294375 0.500795,-0.591595 -0.0051,-0.22201 -0.353436,-0.214626 -0.472974,-0.178241 0.01547,-0.100664 -0.04852,-0.370302 -0.23488,-0.367036 z m 1.659151,1.539675 c -0.185989,-0.0028 -0.249804,0.266454 -0.234347,0.367034 -0.119537,-0.03638 -0.468435,-0.04319 -0.473508,0.178828 -0.0067,0.29722 0.262643,0.489964 0.50133,0.591009 l -0.0027,0.0024 0.577305,0.212835 0.01177,-0.705928 -0.0027,0.003 c 0.0098,-0.31163 -0.09211,-0.634758 -0.339214,-0.645537 -0.01265,-0.0025 -0.02574,-0.0033 -0.03745,-0.0035 z m 1.002659,0 c -0.01171,2.26e-4 -0.02427,10e-4 -0.03692,0.0035 -0.247095,0.01074 -0.349099,0.333907 -0.339213,0.645537 l -0.0032,-0.003 0.01177,0.705928 0.577305,-0.212833 -0.0022,-0.0024 c 0.238686,-0.101037 0.507484,-0.29379 0.500794,-0.591009 -0.0051,-0.222012 -0.35397,-0.215213 -0.473507,-0.178827 0.01546,-0.100577 -0.04836,-0.369825 -0.234346,-0.367035 z m -6.335376,0.04809 c -0.185988,-0.0028 -0.249804,0.266457 -0.234346,0.367037 -0.119537,-0.03638 -0.4679,-0.04318 -0.472973,0.178827 -0.0067,0.297217 0.262109,0.49055 0.500795,0.591595 l -0.0027,0.0019 0.577306,0.213418 0.0123,-0.705927 -0.0032,0.0024 c 0.0098,-0.311632 -0.09211,-0.634173 -0.339214,-0.644952 -0.01265,-0.0025 -0.02574,-0.0038 -0.03745,-0.0041 z m 1.003195,0 c -0.01171,2.27e-4 -0.0248,0.0015 -0.03745,0.0041 -0.247096,0.01074 -0.3491,0.333319 -0.339214,0.644951 l -0.0032,-0.003 0.01177,0.706514 0.57784,-0.213419 -0.0027,-0.0024 c 0.238685,-0.101048 0.507483,-0.293792 0.500794,-0.59101 -0.0051,-0.222011 -0.353971,-0.215212 -0.473508,-0.178827 0.01546,-0.100577 -0.04782,-0.369826 -0.233811,-0.367036 z m 1.667176,0 c -0.185988,-0.0028 -0.249804,0.266457 -0.234346,0.367037 -0.119537,-0.03638 -0.467899,-0.04318 -0.472973,0.178827 -0.0067,0.297217 0.262108,0.49055 0.500795,0.591595 l -0.0027,0.0019 0.57784,0.213418 0.01177,-0.705927 -0.0032,0.0024 c 0.0098,-0.311632 -0.09211,-0.634173 -0.339213,-0.644952 -0.01265,-0.0025 -0.02574,-0.0038 -0.03746,-0.0041 z m 1.003195,0 c -0.01171,2.27e-4 -0.02481,0.0015 -0.03746,0.0041 -0.247095,0.01074 -0.349098,0.333319 -0.339212,0.644951 l -0.0032,-0.003 0.01177,0.706514 0.57784,-0.213419 -0.0027,-0.0024 c 0.238687,-0.101048 0.507485,-0.293792 0.500796,-0.59101 -0.0051,-0.222011 -0.353437,-0.215212 -0.472974,-0.178827 0.01546,-0.100577 -0.04836,-0.369826 -0.234346,-0.367036 z m 1.659151,1.539674 c -0.185989,-0.0028 -0.249804,0.266456 -0.234347,0.367036 -0.119537,-0.03638 -0.468435,-0.04319 -0.473508,0.178827 -0.0067,0.29722 0.262108,0.490551 0.500795,0.591597 l -0.0022,0.0018 0.577306,0.213419 0.01177,-0.705928 -0.0027,0.0024 c 0.0098,-0.31163 -0.09211,-0.634172 -0.339213,-0.644951 -0.0096,-0.0019 -0.01979,-0.0031 -0.0289,-0.0035 v -5.87e-4 c -0.0028,-1.56e-4 -0.0057,5.5e-5 -0.0086,0 z m 0.994098,0 c -0.0091,4.98e-4 -0.01874,0.0023 -0.02836,0.0041 -0.247095,0.01074 -0.349099,0.333321 -0.339213,0.644951 l -0.0032,-0.0024 0.01177,0.705928 0.577841,-0.213421 -0.0027,-0.0018 c 0.238686,-0.101048 0.507483,-0.294376 0.500794,-0.591595 -0.0051,-0.222012 -0.353971,-0.215213 -0.473507,-0.178827 0.01546,-0.100577 -0.04836,-0.369827 -0.234346,-0.367037 -0.0029,5.4e-5 -0.0063,-1.57e-4 -0.0091,0 z m -6.326815,0.04866 c -0.185988,-0.0028 -0.249804,0.266455 -0.234346,0.367035 -0.119537,-0.03638 -0.4679,-0.04377 -0.472973,0.178241 -0.0067,0.297218 0.262109,0.490562 0.500795,0.591596 l -0.0027,0.0024 0.577306,0.212834 0.01177,-0.705928 -0.0027,0.003 c 0.0098,-0.31163 -0.09211,-0.63476 -0.339214,-0.645538 -0.0096,-0.0019 -0.01925,-0.0031 -0.02836,-0.0035 h -5.35e-4 c -0.0028,-1.58e-4 -0.0057,5.5e-5 -0.0086,0 z m 0.9941,0 c -0.0091,4.98e-4 -0.01874,0.0018 -0.02836,0.0035 -0.247096,0.01074 -0.3491,0.333322 -0.339214,0.644951 l -0.0032,-0.0024 0.01177,0.705928 0.57784,-0.212833 -0.0027,-0.0024 c 0.238686,-0.101037 0.507484,-0.294376 0.500795,-0.591596 -0.0051,-0.22201 -0.353436,-0.215212 -0.472973,-0.178827 0.01546,-0.100577 -0.04836,-0.369238 -0.234346,-0.366449 h -5.36e-4 c -0.0029,5.5e-5 -0.0063,-1.56e-4 -0.0091,0 z m 1.676271,0 c -0.185988,-0.0028 -0.249804,0.266455 -0.234346,0.367035 -0.119537,-0.03638 -0.467899,-0.04377 -0.472973,0.178241 -0.0067,0.297218 0.262108,0.490562 0.500795,0.591596 l -0.0027,0.0024 0.57784,0.212834 0.01177,-0.705928 -0.0032,0.003 c 0.0098,-0.31163 -0.09211,-0.63476 -0.339213,-0.645538 -0.0096,-0.0019 -0.01925,-0.0031 -0.02836,-0.0035 -0.0028,-1.58e-4 -0.0062,5.5e-5 -0.0091,0 z m 0.9941,0 c -0.0091,4.98e-4 -0.01874,0.0018 -0.02836,0.0035 -0.247096,0.01074 -0.349099,0.333322 -0.339213,0.644951 l -0.0027,-0.0024 0.01177,0.705928 0.577305,-0.212833 -0.0027,-0.0024 c 0.238686,-0.101037 0.507485,-0.294376 0.500795,-0.591596 -0.0051,-0.22201 -0.353436,-0.215212 -0.472973,-0.178827 0.01546,-0.100577 -0.04836,-0.369238 -0.234347,-0.366449 h -5.34e-4 c -0.0029,5.5e-5 -0.0063,-1.56e-4 -0.0091,0 z m 1.668246,1.539087 c -0.185989,-0.0028 -0.249804,0.266455 -0.234347,0.367034 -0.119537,-0.03638 -0.468435,-0.04319 -0.473508,0.178829 -0.0067,0.297218 0.262643,0.489975 0.50133,0.591009 l -0.0027,0.0024 0.577305,0.212834 0.01177,-0.705928 -0.0027,0.003 c 0.0098,-0.31163 -0.09211,-0.634758 -0.339214,-0.645537 -0.01265,-0.0025 -0.02574,-0.0033 -0.03745,-0.0035 z m 1.002659,0 c -0.01171,2.26e-4 -0.02427,10e-4 -0.03692,0.0035 -0.247095,0.01074 -0.349099,0.333907 -0.339213,0.645537 l -0.0032,-0.003 0.01177,0.705928 0.577305,-0.212833 -0.0022,-0.0024 c 0.238686,-0.101037 0.507484,-0.294377 0.500794,-0.591595 -0.0051,-0.222012 -0.35397,-0.214626 -0.473507,-0.178242 0.01546,-0.100576 -0.04836,-0.369825 -0.234346,-0.367035 z m -6.335376,0.04809 c -0.185988,-0.0028 -0.249804,0.266456 -0.234346,0.367036 -0.119537,-0.03638 -0.4679,-0.04319 -0.472973,0.178828 -0.0067,0.29722 0.262109,0.490551 0.500795,0.591595 l -0.0027,0.0018 0.577306,0.21342 0.0123,-0.706514 -0.0032,0.003 c 0.0098,-0.311631 -0.09211,-0.634172 -0.339214,-0.644951 -0.01265,-0.0025 -0.02574,-0.0038 -0.03745,-0.0041 z m 1.003195,0 c -0.01171,2.26e-4 -0.0248,0.0016 -0.03745,0.0041 -0.247096,0.01074 -0.3491,0.33332 -0.339214,0.64495 l -0.0032,-0.003 0.01177,0.706516 0.57784,-0.213421 -0.0027,-0.0024 c 0.238685,-0.101048 0.507483,-0.293792 0.500794,-0.59101 -0.0051,-0.222011 -0.353971,-0.215213 -0.473508,-0.178827 0.01546,-0.100577 -0.04782,-0.369827 -0.233811,-0.367037 z m 1.667176,0 c -0.185988,-0.0028 -0.249804,0.266456 -0.234346,0.367036 -0.119537,-0.03638 -0.467899,-0.04319 -0.472973,0.178828 -0.0067,0.29722 0.262108,0.490551 0.500795,0.591595 l -0.0027,0.0018 0.57784,0.21342 0.01177,-0.706514 -0.0032,0.003 c 0.0098,-0.311631 -0.09211,-0.634172 -0.339213,-0.644951 -0.01265,-0.0025 -0.02574,-0.0038 -0.03746,-0.0041 z m 1.003195,0 c -0.01171,2.26e-4 -0.02481,0.0016 -0.03746,0.0041 -0.247095,0.01074 -0.349098,0.33332 -0.339212,0.64495 l -0.0032,-0.003 0.01177,0.706516 0.57784,-0.213421 -0.0027,-0.0024 c 0.238687,-0.101048 0.507485,-0.293792 0.500796,-0.59101 -0.0051,-0.222011 -0.353437,-0.215213 -0.472974,-0.178827 0.01546,-0.100577 -0.04836,-0.369827 -0.234346,-0.367037 z"/><path id="path2895" style="color:#000;fill:#000;fill-opacity:1;stroke-width:.423341;stroke-dashoffset:14.7;-inkscape-stroke:none;opacity:.30625" d="m 55.484995,86.133217 c -0.28573,0.0073 -0.603307,0.131536 -0.952931,0.372077 l -0.04754,0.04703 c -0.336955,0.479108 -0.178969,1.061218 0.473881,1.745662 l 0.720383,0.735886 c -0.425466,-0.144935 -0.875384,-0.278734 -1.349296,-0.401016 -0.733304,-0.185832 -1.231014,-0.005 -1.49296,0.542096 l -0.01602,0.05323 c -0.08997,0.789387 0.132008,1.28589 0.665605,1.489343 -0.125028,0.557213 0.167704,1.01891 0.877998,1.384437 l 0.06408,0.01912 c 0.581518,0.07014 1.019073,-0.344358 1.313123,-1.243358 l 0.01809,-0.0584 c -0.03581,0.815864 0.04121,1.629571 0.155549,2.420052 l 0.210327,-0.03049 0.209293,-0.02997 c -0.123761,-0.855604 -0.199815,-1.723437 -0.138495,-2.577668 0.03408,0.202983 0.07172,0.409167 0.11369,0.618578 0.151883,0.741045 0.531378,1.11023 1.137936,1.107963 l 0.0553,-0.0088 c 0.749847,-0.262599 1.100211,-0.678021 1.051118,-1.246975 0.556079,-0.129976 0.843616,-0.594642 0.863529,-1.393223 l -0.01034,-0.06615 C 59.217343,89.05857 58.653793,88.844747 57.716431,88.971325 L 56.58728,89.13876 c 0.337421,-0.312731 0.676468,-0.653775 1.017011,-1.022696 0.510697,-0.558081 0.586946,-1.081872 0.228931,-1.571509 l -0.03979,-0.03927 c -0.65285,-0.452783 -1.195081,-0.492668 -1.626804,-0.118858 -0.20237,-0.175223 -0.42951,-0.25962 -0.681625,-0.253219 z"/><path style="fill:#000;fill-opacity:1;stroke:#000;stroke-width:.423341;stroke-dashoffset:14.7" id="path1623" d="m 55.988327,89.202017 c -0.335432,1.285366 -0.252067,2.616945 -0.06609,3.902667"/><g id="g1448" transform="matrix(0.6706093,0,0,0.6706093,24.334092,29.301593)"><path id="path2-3" fill="#600" d="m 47.342467,89.477693 q -0.08243,0.07066 -0.176647,0.07066 l -0.188423,-0.08243 -1.613371,-1.648702 Q 43.903748,86.286279 44.65744,85.214623 l 0.07066,-0.07066 q 1.472055,-1.012773 2.437722,-0.176646 0.965668,-0.836127 2.425946,0.176646 l 0.05888,0.05888 q 0.800798,1.095208 -0.341516,2.34351 -0.989221,1.071656 -1.966665,1.931336" style="fill:#000;fill-opacity:1;fill-rule:evenodd;stroke-width:.235529"/><path id="path6-2" d="m 45.764257,84.861403 -0.188147,0.0115 c -0.188423,0.06281 -0.384698,0.157295 -0.588822,0.28291 h -0.01196 l -0.0115,0.0115 c -0.117764,0.149168 -0.176647,0.353661 -0.176647,0.612743 0.0079,0.431802 0.227403,0.647703 0.659205,0.647703 0.49461,0 0.828276,-0.290762 1.000997,-0.871732 0.0079,-0.463206 -0.219919,-0.694625 -0.683125,-0.694625 z" style="fill:#fff;fill-opacity:1;fill-rule:evenodd;stroke-width:.235529"/><path id="path2-3-9" fill="#600" d="m 46.970805,89.448289 q -0.0088,-0.108216 0.04653,-0.184477 L 47.1947,89.159693 49.476586,88.82179 q 2.096669,-0.283126 2.521592,0.956204 l 0.01571,0.09868 q -0.04454,1.786245 -1.288364,2.076972 0.109806,1.272621 -1.567428,1.859996 l -0.08224,0.01309 q -1.356736,0.0051 -1.696462,-1.652481 -0.286629,-1.429981 -0.408585,-2.725965" style="fill:#000;fill-opacity:1;fill-rule:evenodd;stroke-width:.235529"/><path id="path6-2-7" d="m 51.634205,90.881323 0.101165,-0.159051 c 0.05979,-0.1894 0.09856,-0.403758 0.116731,-0.642747 l 0.007,-0.0097 -0.0026,-0.01606 c -0.0516,-0.182913 -0.182555,-0.350648 -0.392272,-0.502772 -0.354139,-0.247186 -0.657817,-0.196237 -0.911358,0.153291 -0.290419,0.40037 -0.250976,0.841187 0.117883,1.322126 0.370339,0.278335 0.691405,0.229845 0.963385,-0.145104 z" style="fill:#fff;fill-opacity:1;fill-rule:evenodd;stroke-width:.235529"/><path id="path2-3-2" fill="#600" d="m 47.058306,89.135701 q 0.101255,0.03919 0.145834,0.122185 l 0.01654,0.205001 -0.689027,2.20146 q -0.657722,2.010865 -1.958446,1.853979 l -0.09568,-0.02881 q -1.588768,-0.817601 -1.309108,-2.063961 -1.193535,-0.455078 -0.992296,-2.220757 l 0.02401,-0.07973 q 0.585916,-1.223708 2.226149,-0.808045 1.412173,0.364379 2.632029,0.818686" style="fill:#000;fill-opacity:1;fill-rule:evenodd;stroke-width:.235529"/><path id="path6-2-6" d="m 43.738302,92.710398 0.09916,0.160308 c 0.14449,0.136275 0.320603,0.264475 0.527854,0.384863 l 0.0057,0.01054 0.01557,0.0047 c 0.187136,0.03316 0.395149,-0.01173 0.62339,-0.13432 0.376688,-0.211237 0.463002,-0.506815 0.25868,-0.887217 -0.234041,-0.435734 -0.648077,-0.592099 -1.241619,-0.469354 -0.411783,0.212264 -0.507879,0.522426 -0.288697,0.930494 z" style="fill:#fff;fill-opacity:1;fill-rule:evenodd;stroke-width:.235529"/><path id="path4-0" style="fill:#8080ff;fill-opacity:1;fill-rule:evenodd;stroke-width:.235529" d="m 46.129521,84.790469 -0.553293,0.08245 0.188027,-0.01156 c 0.463206,0 0.690606,0.231109 0.682755,0.694314 -0.172721,0.58097 -0.505634,0.872323 -1.000244,0.872323 -0.431801,0 -0.651785,-0.216276 -0.659636,-0.648077 0,-0.259082 0.0587,-0.463462 0.176468,-0.61263 l -0.176468,0.117902 c -0.408249,0.620225 -0.184557,1.373795 0.671196,2.260951 l 0.824545,0.859994 0.188028,0.188027 0.470838,0.494727 0.130232,0.117903 v -0.01156 l 0.02312,-0.01233 v -0.01156 c 0.635927,-0.565268 1.280275,-1.196952 1.931903,-1.895685 0.651628,-0.706585 0.757142,-1.370244 0.317489,-1.990469 l -0.176468,-0.117902 -0.164909,-0.105573 -0.177239,-0.08245 -0.105573,-0.04778 -0.09401,-0.03468 -0.659637,-0.106343 0.01156,0.01233 c -0.298337,0.0157 -0.565129,0.133111 -0.800657,0.352937 l -0.105573,0.105572 -0.117902,-0.105572 C 46.844153,85.053673 46.730453,84.974886 46.61269,84.91993 Z m -2.450519,3.809864 c -0.587083,-0.0071 -1.007708,0.244589 -1.261478,0.755191 l -0.02004,0.211916 -0.01541,0.194963 0.01079,0.194962 0.0085,0.115591 0.01387,0.09941 0.218081,0.631124 0.0054,-0.01541 c 0.155001,0.255395 0.385354,0.434407 0.690461,0.537881 l 0.143332,0.04315 -0.03776,0.154121 c -0.0379,0.145124 -0.05355,0.282522 -0.04624,0.412273 l 0.11482,0.487021 0.334442,0.448491 -0.09941,-0.160285 c -0.219181,-0.408068 -0.122806,-0.718625 0.288977,-0.930889 0.593541,-0.122745 1.007402,0.03356 1.241442,0.469297 0.204322,0.380402 0.117765,0.675728 -0.258923,0.886965 -0.228241,0.122593 -0.436282,0.168019 -0.623418,0.134856 l 0.187257,0.09941 c 0.739572,0.06617 1.297896,-0.486975 1.674521,-1.66065 l 0.367578,-1.133558 0.07706,-0.254299 0.212687,-0.649619 0.04238,-0.169533 -0.01002,0.0054 -0.02158,-0.01541 -0.01079,0.0062 c -0.79889,-0.292752 -1.659936,-0.561077 -2.583834,-0.80451 -0.232703,-0.05993 -0.446989,-0.09164 -0.642683,-0.09401 z m 6.597137,0.406108 c -0.195187,0.0017 -0.406887,0.01865 -0.635748,0.05086 l -1.179794,0.162597 -0.262776,0.04161 -0.67736,0.09093 -0.171074,0.03545 0.0092,0.0069 -0.0046,0.0262 0.01002,0.0069 c 0.08417,0.846667 0.217729,1.739332 0.400714,2.677076 0.189341,0.942356 0.663875,1.417325 1.424075,1.425617 l 0.199587,-0.07398 0.182633,-0.07167 0.170303,-0.09401 0.100178,-0.0578 0.084,-0.05625 0.473151,-0.470839 -0.01695,0.0023 c 0.162464,-0.250713 0.223822,-0.536413 0.184175,-0.85614 l -0.02312,-0.147956 0.154891,-0.03314 c 0.147153,-0.02904 0.277063,-0.07488 0.390696,-0.137938 l 0.388384,-0.314407 0.258923,-0.496268 -0.10172,0.158744 c -0.271979,0.374949 -0.592916,0.423208 -0.963254,0.144874 -0.368859,-0.480939 -0.408321,-0.921217 -0.117903,-1.321586 0.253541,-0.349528 0.557486,-0.400535 0.911624,-0.15335 0.209717,0.152124 0.340639,0.319521 0.392238,0.502434 l 0.0085,-0.211916 c -0.21315,-0.564395 -0.743176,-0.842847 -1.588984,-0.835334 z m -0.431538,3.813717 c 0.02578,0.0041 0.05188,0.0064 0.07937,0.0069 -0.02749,-5e-4 -0.05359,-0.0027 -0.07937,-0.0069 z"/></g><path id="path3733" style="fill:#000;fill-opacity:1;stroke:none;stroke-width:.423341;stroke-dashoffset:14.7" d="m 56.518538,86.143749 c -0.26731,0.02364 -0.386053,0.08142 -0.561217,0.187072 -0.142686,-0.08443 -0.304343,-0.06907 -0.48215,-0.134878 0.315167,0.143982 0.461953,0.372129 0.511606,0.748806 0.07999,-0.405252 0.276566,-0.659751 0.531761,-0.801 z m -1.110547,0.02326 c 0.022,0.01075 0.04358,0.01986 0.06511,0.02791 -0.02111,-0.0096 -0.04248,-0.01904 -0.06511,-0.02791 z m -2.516173,4.050991 c 0.147721,0.224036 0.254841,0.300633 0.43099,0.404634 -0.0065,0.164615 0.08244,0.299368 0.109556,0.48525 -0.0218,-0.343838 0.110138,-0.580246 0.417036,-0.802033 -0.394639,0.12201 -0.712107,0.06968 -0.957582,-0.08785 z m 5.037512,0.267172 c 0.251695,0.32753 0.312916,0.643176 0.250636,0.928126 0.158644,-0.21644 0.193227,-0.343869 0.229447,-0.545197 0.155147,-0.05068 0.250353,-0.179238 0.412386,-0.269239 -0.312826,0.137687 -0.579258,0.09586 -0.892469,-0.11369 z m 0.966368,0.07803 c -0.02527,0.01055 -0.04894,0.02179 -0.07132,0.03411 0.02345,-0.01039 0.0473,-0.0217 0.07132,-0.03411 z m -5.462817,0.550364 c 0.0016,0.02313 0.0038,0.04667 0.0067,0.0708 -9.81e-4,-0.02452 -0.0036,-0.04798 -0.0067,-0.0708 z"/></g></svg>