<svg xmlns="http://www.w3.org/2000/svg" xmlns:svg="http://www.w3.org/2000/svg" id="svg19458" width="34" height="34" version="1.1" viewBox="0 0 8.996 8.996"><g id="layer1" transform="translate(-112.29581,-106.92186)"><path id="path1694-1-8-0-7-6-2-1-5" fill="#cc0" fill-rule="evenodd" stroke="none" d="m 112.56025,115.65288 v -8.46666 h 8.46666 v 8.46666 h -8.46666" style="fill:#9e009e;fill-opacity:1;stroke-width:.264583"/><path style="color:#000;fill:#000;fill-opacity:1;stroke-width:.264583;stroke-linecap:round;stroke-linejoin:round;-inkscape-stroke:none" id="path424-5-4-1-4-0-3-2" d="m 112.56039,106.92186 a 0.26460979,0.26460979 0 0 0 -0.26458,0.26459 v 8.46666 a 0.26460979,0.26460979 0 0 0 0.26458,0.26459 h 8.46667 a 0.26460979,0.26460979 0 0 0 0.26458,-0.26459 v -8.46666 a 0.26460979,0.26460979 0 0 0 -0.26458,-0.26459 z m 0.26459,0.52917 h 7.9375 v 7.9375 h -7.9375 z"/><path id="path15920-91-2-9-08-7" style="fill:#260026;fill-opacity:1;stroke:none;stroke-width:.153818;stroke-dashoffset:14.7;stroke-opacity:1" d="m 117.99084,110.49972 c -0.33678,0.14123 -0.70078,0.47313 -1.11828,1.17944 -0.0909,0.27474 -0.225,0.52322 -0.42623,0.73095 -0.41066,-0.19241 -0.96184,-0.35111 -0.48846,-0.75509 -0.43771,-0.21015 -0.91634,0.12131 -0.93749,0.33369 0.19249,0.46198 0.62645,0.5844 1.06061,0.70654 -0.0943,0.055 -0.19783,0.10421 -0.3117,0.14726 -0.3738,0.0905 -0.36976,0.0936 -0.86667,0.12232 -0.27374,-0.1108 -0.78324,-0.31536 -0.92971,-0.19501 -0.42401,0.43382 -0.45247,0.6191 -0.43696,0.77681 0.14692,0.46256 0.46258,0.75419 1.12874,0.69179 0.29351,0.13112 0.49271,0.30394 0.6435,0.49785 l 0.36401,-0.47344 c -0.40332,-0.0464 -0.56872,-0.28161 -0.78889,-0.47344 -0.3865,0.0287 -0.74689,-0.0605 -0.94688,-0.87392 0.0442,-0.0863 0.25831,-0.2375 0.95895,0.0947 0.38391,0.30072 0.87425,0.18159 1.23818,0.22076 0.33064,-0.0794 0.57755,-0.27014 0.78379,-0.52333 -0.0852,0.34014 -0.11356,0.71763 -0.15262,1.08797 0.27182,0.59988 0.64121,0.69534 1.0075,0.80713 1.77428,0.42067 1.4971,0.0291 1.60245,0.0303 -0.83073,-0.14122 -1.64193,-0.30085 -1.9179,-0.96512 0.0462,-0.41779 0.13745,-0.77498 0.24088,-1.07215 0.0126,0.18825 0.0819,0.35465 0.25563,0.48095 0.55385,-0.1803 1.15336,-0.23196 1.62659,-0.63948 0.4227,-0.57835 0.33369,-0.72285 0.41631,-1.01286 -0.13561,0.0155 -0.21581,-0.0481 -0.29614,-0.11159 -0.39428,0.38299 -0.52486,0.57419 -0.75965,0.84119 -0.29678,0.19347 -0.68692,0.25208 -1.05149,0.34764 0.199,-0.47017 0.28938,-0.75243 0.29962,-0.89565 0.0219,-0.033 0.0352,-0.0543 0.0268,-0.0502 l 0.0912,-0.88599 -0.17114,0.005 c 0.004,-0.006 0.009,-0.0114 0.0132,-0.0169 z"/><path id="path16033-9-5-0-9" style="fill:#260026;fill-opacity:1;stroke:none;stroke-width:.153818;stroke-dashoffset:14.7;stroke-opacity:1" d="m 116.70239,112.29435 -0.58808,0.86454 0.86713,-0.43976 z m 0.9188,0.10283 -0.4594,0.29197 0.64802,0.35192 z m -3.5667,0.37207 c -0.16687,2.7e-4 -0.23802,0.0647 -0.26149,0.11059 0.0293,0.119 0.062,0.22171 0.0977,0.31161 l 0.93535,-0.16485 c -0.0252,-0.0159 -0.0495,-0.0331 -0.0739,-0.0522 -0.32842,-0.15572 -0.5504,-0.2054 -0.69763,-0.20516 z"/><path id="path15920-1-7-1-6" style="fill:#fff;fill-opacity:1;stroke:none;stroke-width:.153818;stroke-dashoffset:14.7;stroke-opacity:1" d="m 117.84734,110.46391 c -0.33678,0.14123 -0.70077,0.47313 -1.11828,1.17944 -0.0909,0.27474 -0.225,0.52322 -0.42623,0.73095 -0.41066,-0.19241 -0.96184,-0.35111 -0.48846,-0.75509 -0.43771,-0.21015 -0.91634,0.12131 -0.93749,0.33369 0.19249,0.46197 0.62645,0.5844 1.06061,0.70654 -0.0943,0.055 -0.19783,0.1042 -0.31169,0.14726 -0.37381,0.0905 -0.36976,0.0936 -0.86668,0.12232 -0.27374,-0.1108 -0.78324,-0.31536 -0.92971,-0.19501 -0.42401,0.43382 -0.45246,0.6191 -0.43696,0.77681 0.14692,0.46256 0.46258,0.75419 1.12875,0.69179 0.2935,0.13112 0.4927,0.30394 0.6435,0.49785 l 0.364,-0.47344 c -0.40331,-0.0464 -0.56872,-0.28161 -0.78889,-0.47344 -0.3865,0.0287 -0.74688,-0.0606 -0.94688,-0.87392 0.0442,-0.0863 0.25831,-0.2375 0.95895,0.0947 0.38392,0.30072 0.87425,0.18158 1.23819,0.22076 0.33063,-0.0794 0.57755,-0.27014 0.78379,-0.52333 -0.0852,0.34014 -0.11356,0.71763 -0.15263,1.08797 0.27182,0.59988 0.64121,0.69534 1.0075,0.80713 1.77429,0.42067 1.49711,0.0291 1.60245,0.0303 -0.83073,-0.14121 -1.64192,-0.30084 -1.9179,-0.96511 0.0462,-0.41779 0.13745,-0.77499 0.24088,-1.07215 0.0126,0.18825 0.0819,0.35465 0.25563,0.48095 0.55386,-0.1803 1.15336,-0.23196 1.62659,-0.63948 0.42271,-0.57835 0.33369,-0.72285 0.41631,-1.01286 -0.13561,0.0155 -0.21581,-0.0481 -0.29614,-0.11159 -0.39428,0.38299 -0.52485,0.57419 -0.75965,0.84119 -0.29678,0.19347 -0.68692,0.25208 -1.05149,0.34764 0.199,-0.47017 0.28938,-0.75243 0.29962,-0.89565 0.0219,-0.033 0.0352,-0.0543 0.0268,-0.0502 l 0.0912,-0.88599 -0.17114,0.005 c 0.004,-0.006 0.009,-0.0114 0.0132,-0.0169 z"/><path style="fill:#260026;fill-opacity:1;stroke:none;stroke-width:.153818;stroke-dashoffset:14.7;stroke-opacity:1" id="path15933-8-0-9-7" d="m 117.84734,110.46391 0.13197,0.23364 0.18375,-0.0636 -0.0657,-0.17006 z"/><path style="fill:#fcf9e0;fill-opacity:1;stroke:#260026;stroke-width:.030961;stroke-dasharray:none;stroke-dashoffset:14.7;stroke-opacity:1" id="path17278-8-6-7-4" d="m 116.70605,112.80068 0.43645,-0.83428"/><path id="path25854-6-1-7-1" style="fill:#fff;fill-opacity:1;stroke:none;stroke-width:.0499999;stroke-dasharray:none;stroke-dashoffset:14.7;stroke-opacity:1" d="m 117.1246,108.06118 -0.46405,0.0837 0.78238,1.88878 0.0729,-0.0553 z m 1.61541,0.008 -0.75344,1.90014 0.091,0.0114 1.05368,-1.64848 z m -2.913,0.6904 -0.43253,0.18706 1.19269,1.66037 0.0584,-0.0703 z m 4.3217,0.44493 -1.65158,1.20458 0.0708,0.0579 1.77095,-0.83147 z"/></g></svg>