<svg xmlns="http://www.w3.org/2000/svg" xmlns:svg="http://www.w3.org/2000/svg" id="svg17388" width="34" height="34" version="1.1" viewBox="0 0 8.996 8.996"><g id="layer1" transform="translate(-63.572047,-51.391106)"><path id="path1694-1-8-8-1-7" fill="#cc0" fill-rule="evenodd" stroke="none" d="m 63.836481,60.122126 v -8.466667 h 8.466668 v 8.466667 h -8.466668" style="fill:#8080ff;fill-opacity:1;stroke-width:.264583"/><path id="path2174-5-7-6-9" style="fill:#00a;fill-opacity:1;stroke:none;stroke-width:.196697;stroke-dasharray:none;stroke-dashoffset:14.7;stroke-opacity:1" d="m 68.166266,51.998121 -0.361218,1.604553 c -0.06368,0.02457 -0.12605,0.0545 -0.187069,0.09147 -0.218621,0.132617 -0.433828,0.275346 -0.639754,0.429948 0.02148,-0.06091 0.03429,-0.129543 0.03307,-0.207223 l -0.487826,-1.88619 -0.43925,1.951302 c 0.0096,0.346673 0.270152,0.491229 0.512631,0.45527 -0.139064,0.124967 -0.271567,0.2566 -0.393775,0.397908 -0.307175,0.360776 -0.278978,0.875954 -0.402559,1.310515 0.154996,0.09039 0.311874,0.0798 0.466638,0.02377 l -0.129708,0.577225 c 0.01826,0.65672 0.937431,0.596497 0.927075,-0.0646 L 66.84593,55.838194 c 0.04014,-0.02419 0.08012,-0.04648 0.118856,-0.06563 0.290091,-0.290047 0.699804,-0.293586 1.083138,-0.250114 l -0.268201,1.191658 c 0.01826,0.65672 0.937431,0.596497 0.927075,-0.06459 L 68.43498,55.598419 c 0.203775,0.1 0.35906,0.287579 0.496094,0.485242 0.169422,0.09713 0.333379,0.205981 0.485242,0.329179 l -0.07493,0.333829 c 0.01373,0.493992 0.537131,0.582121 0.791166,0.314193 0.252183,0.100081 0.541058,0.08516 0.4408,-0.276986 -0.03323,-0.62 0.02586,-1.243321 -0.04082,-1.860868 -0.129298,-0.220513 -0.26736,-0.450928 -0.430982,-0.655774 0.07026,-0.0865 0.116005,-0.20243 0.113688,-0.350366 l -0.487825,-1.88619 -0.375171,1.666049 c -0.02329,-0.0081 -0.04618,-0.01684 -0.07028,-0.02377 -0.230754,-0.05766 -0.475481,-0.118464 -0.719853,-0.14521 z m 3.130558,0.03617 -0.43925,1.951302 c 0.01826,0.65672 0.937424,0.596496 0.927073,-0.0646 z m -6.204272,0.02894 -0.43925,1.951302 c 0.01826,0.65672 0.937428,0.59598 0.927075,-0.06511 z m 6.256982,2.735751 -0.438733,1.951819 c 0.01826,0.656719 0.937429,0.595979 0.927073,-0.06511 z m -6.204272,0.02894 -0.43925,1.951302 c 0.01826,0.65672 0.937426,0.595979 0.927075,-0.06511 z m 3.025138,2.569352 -0.43925,1.951819 c 0.01826,0.656719 0.937428,0.595979 0.927075,-0.06511 z m -1.642794,0.03256 -0.439249,1.951819 c 0.01826,0.65672 0.937428,0.595979 0.927075,-0.06511 z m 3.203939,0 -0.43925,1.951819 c 0.01826,0.65672 0.937429,0.595979 0.927075,-0.06511 z m 1.569413,0.0036 -0.43925,1.951819 c 0.01826,0.65672 0.937428,0.595979 0.927075,-0.06511 z m -6.204789,0.02894 -0.438733,1.951819 c 0.01826,0.65672 0.937431,0.59598 0.927075,-0.06511 z"/><path id="path2174-2-3-0" style="fill:#fff;fill-opacity:1;stroke:none;stroke-width:.196697;stroke-dasharray:none;stroke-dashoffset:14.7;stroke-opacity:1" d="m 67.982801,51.937879 -0.439248,1.951302 c 0.01826,0.65672 0.937427,0.59598 0.927074,-0.06511 z m -1.642792,0.03256 -0.439251,1.951302 c 0.01826,0.656721 0.93743,0.59598 0.927076,-0.06511 z m 3.203937,0 -0.439248,1.951302 c 0.01826,0.656721 0.937427,0.59598 0.927074,-0.06511 z m 1.569413,0.0036 -0.439248,1.951302 c 0.01826,0.65672 0.937428,0.596497 0.927077,-0.0646 z m -6.20427,0.02894 -0.439251,1.951302 c 0.01826,0.65672 0.93743,0.59598 0.927077,-0.06511 z m 3.126422,2.699576 -0.439247,1.951303 c 0.01826,0.65672 0.937429,0.596497 0.927073,-0.0646 z m -1.642792,0.03256 -0.438735,1.951302 c 0.01826,0.65672 0.937432,0.596496 0.927077,-0.0646 z m 3.203938,0 -0.438733,1.951302 c 0.01826,0.65672 0.936914,0.596496 0.926558,-0.0646 z m 1.569412,0.0036 -0.438732,1.951818 c 0.01826,0.656721 0.937433,0.59598 0.927077,-0.06511 z m -6.204272,0.02894 -0.439248,1.951302 c 0.01826,0.656721 0.937427,0.59598 0.927076,-0.06511 z m 3.02514,2.569352 -0.439251,1.951819 c 0.01826,0.656721 0.937429,0.59598 0.927076,-0.06511 z m -1.642796,0.03256 -0.439248,1.951818 c 0.01826,0.656721 0.937427,0.59598 0.927074,-0.06511 z m 3.20394,0 -0.43925,1.951818 c 0.01826,0.656721 0.937429,0.59598 0.927076,-0.06511 z m 1.569414,0.0036 -0.439251,1.951819 c 0.01826,0.656721 0.93743,0.59598 0.927077,-0.06511 z m -6.204789,0.02894 -0.438732,1.951819 c 0.01826,0.65672 0.937429,0.59598 0.927073,-0.06511 z"/><path style="fill:#000;fill-opacity:1;stroke:none;stroke-width:.296333;stroke-dashoffset:14.7;stroke-opacity:1" id="path9721-1-5-3" d="m 65.876287,55.646392 c 0.01717,0.716454 -0.218062,2.156634 0.432644,2.384991 0.650703,0.228358 1.475965,0.338003 2.993419,-0.187088 0.50696,-0.208015 0.7269,-0.482267 0.830204,-0.783434 l -0.07016,-2.11644 z"/><path style="fill:#fff;fill-opacity:1;stroke:none;stroke-width:.296333;stroke-dashoffset:14.7;stroke-opacity:1" id="path9723-5-2-1" d="m 65.663284,56.078646 c 0.399407,0.232929 0.812705,-0.199612 1.16431,-0.373399 0.295793,-0.295749 0.716412,-0.294171 1.106151,-0.248033 0.401627,-0.02025 0.651317,0.258105 0.860025,0.559154 0.364117,0.208739 0.706943,0.468072 0.945682,0.819337 0.217773,0.21718 0.836726,0.386742 0.696778,-0.118772 -0.03323,-0.620001 0.02585,-1.243774 -0.04083,-1.861322 -0.299424,-0.510655 -0.644179,-1.075107 -1.250562,-1.249624 -0.538972,-0.134686 -1.153511,-0.288117 -1.664144,0.02124 -0.517475,0.313905 -1.017233,0.681117 -1.414809,1.140833 -0.307174,0.360776 -0.279014,0.876024 -0.402598,1.310585 z"/><path id="path9777-0-5-4" style="fill:#fff;fill-opacity:1;stroke:none;stroke-width:.296333;stroke-dashoffset:14.7;stroke-opacity:1" d="m 66.84675,55.973267 a 0.4561428,0.47375712 0 0 0 -0.456303,0.473356 0.4561428,0.47375712 0 0 0 0.456303,0.473873 0.4561428,0.47375712 0 0 0 0.456303,-0.473873 0.4561428,0.47375712 0 0 0 -0.456303,-0.473356 z m 1.169438,0 a 0.4561428,0.47375712 0 0 0 -0.456303,0.473356 0.4561428,0.47375712 0 0 0 0.456303,0.473873 0.4561428,0.47375712 0 0 0 0.456302,-0.473873 0.4561428,0.47375712 0 0 0 -0.456302,-0.473356 z"/><path id="path9779-0-7-9" style="fill:#000;fill-opacity:1;stroke:none;stroke-width:.296333;stroke-dashoffset:14.7;stroke-opacity:1" d="m 66.84675,56.174288 a 0.2133575,0.27232755 0 0 0 -0.213424,0.272335 0.2133575,0.27232755 0 0 0 0.213424,0.272335 0.2133575,0.27232755 0 0 0 0.213424,-0.272335 0.2133575,0.27232755 0 0 0 -0.213424,-0.272335 z m 1.169438,0 a 0.2133575,0.27232755 0 0 0 -0.213424,0.272335 0.2133575,0.27232755 0 0 0 0.213424,0.272335 0.2133575,0.27232755 0 0 0 0.213423,-0.272335 0.2133575,0.27232755 0 0 0 -0.213423,-0.272335 z"/><path style="fill:#fff;fill-opacity:1;stroke:none;stroke-width:.296333;stroke-dashoffset:14.7;stroke-opacity:1" id="path9808-1-1-25" d="m 66.846697,57.820909 c 0.144618,-0.08351 0.32676,-0.175855 0.494434,-0.112551 0.11675,0.0511 0.218075,0.213195 0.360688,0.148468 0.151096,-0.0816 0.101121,-0.299717 0.01318,-0.411398 -0.101983,-0.149427 -0.268515,-0.236032 -0.435462,-0.293123 -0.134501,-0.0079 -0.236265,0.09605 -0.34363,0.159533 -0.07252,0.09402 -0.191936,0.138688 -0.253185,0.240189 -0.05736,0.104943 0.0309,0.297022 0.163973,0.268882 z"/><path style="color:#000;fill:#000;fill-opacity:1;stroke-width:.264583;stroke-linecap:round;stroke-linejoin:round;-inkscape-stroke:none" id="path424-5-1-5-2" d="m 63.83663,51.391106 a 0.26460979,0.26460979 0 0 0 -0.264583,0.264584 v 8.466666 a 0.26460979,0.26460979 0 0 0 0.264583,0.264583 h 8.466667 A 0.26460979,0.26460979 0 0 0 72.56788,60.122356 V 51.65569 a 0.26460979,0.26460979 0 0 0 -0.264583,-0.264584 z m 0.264583,0.529167 h 7.937501 v 7.9375 h -7.937501 z"/></g></svg>