<?xml version="1.0" encoding="UTF-8" standalone="no"?>
<!-- Created with Inkscape (http://www.inkscape.org/) -->

<svg
   width="8.9958305mm"
   height="8.9958324mm"
   viewBox="0 0 8.9958305 8.9958324"
   version="1.1"
   id="svg25719"
   inkscape:version="1.2.2 (732a01da63, 2022-12-09)"
   sodipodi:docname="maxLevel.svg"
   xmlns:inkscape="http://www.inkscape.org/namespaces/inkscape"
   xmlns:sodipodi="http://sodipodi.sourceforge.net/DTD/sodipodi-0.dtd"
   xmlns="http://www.w3.org/2000/svg"
   xmlns:svg="http://www.w3.org/2000/svg">
  <sodipodi:namedview
     id="namedview25721"
     pagecolor="#ffffff"
     bordercolor="#000000"
     borderopacity="0.25"
     inkscape:showpageshadow="2"
     inkscape:pageopacity="0.0"
     inkscape:pagecheckerboard="0"
     inkscape:deskcolor="#d1d1d1"
     inkscape:document-units="mm"
     showgrid="false"
     inkscape:zoom="5.9081369"
     inkscape:cx="14.556196"
     inkscape:cy="17.518213"
     inkscape:window-width="958"
     inkscape:window-height="1000"
     inkscape:window-x="946"
     inkscape:window-y="0"
     inkscape:window-maximized="0"
     inkscape:current-layer="layer1" />
  <defs
     id="defs25716" />
  <g
     inkscape:label="Calque 1"
     inkscape:groupmode="layer"
     id="layer1"
     transform="translate(-13.995188,-26.78836)">
    <path
       fill="#cccc00"
       fill-rule="evenodd"
       stroke="none"
       d="M 14.259623,35.51938 V 27.052713 H 22.72629 V 35.51938 H 14.259623"
       id="path1694-1-9"
       style="fill:#b3b3b3;fill-opacity:1;stroke-width:0.264583"
       inkscape:export-filename="victoire.png"
       inkscape:export-xdpi="90.352943"
       inkscape:export-ydpi="90.352943" />
    <path
       id="path1694-1-9-6"
       style="fill:#ffffff;fill-opacity:1;stroke-width:0.264583"
       d="m 14.834627,27.021317 -0.05633,1.100191 0.238745,0.04496 -0.715202,0.784965 v 0.05478 l 0.517798,-0.195853 -0.101803,1.987475 0.512631,0.09612 -0.0078,-0.533817 0.586011,-0.221692 -0.09405,1.83348 -0.671793,-1.061951 -0.74104,0.813904 v 0.05581 l 0.516248,-0.195336 -0.101803,1.986958 0.239262,0.04496 -0.653707,0.717785 v 0.09922 l 0.455786,-0.173116 -0.06305,1.227832 h 0.461987 l -0.01705,-1.211295 0.572575,0.49661 -0.0067,0.126091 0.238745,0.04496 -0.49506,0.543636 h 0.885217 l -0.337964,-0.533817 0.222209,0.04134 -0.02946,-2.067057 0.620117,0.537951 -0.777213,-1.228349 -0.810287,0.889352 -0.0217,-1.526522 0.51108,0.442867 -0.0041,0.08165 0.51263,0.09612 -0.02946,-2.066541 0.620634,0.537952 -0.752409,-1.189075 0.221692,0.04134 -0.02946,-2.06654 0.620634,0.537952 -0.629936,-0.995288 h -0.359667 l -0.598414,0.65629 -0.0093,-0.65629 z m 2.109949,0 -0.08837,1.722375 0.238745,0.04496 -0.791683,0.86868 0.594279,-0.224792 -0.101802,1.987475 0.51263,0.09612 -0.0078,-0.533818 0.58601,-0.221692 -0.09405,1.833997 -0.671793,-1.062468 -0.818555,0.89917 0.593762,-0.224792 -0.101802,1.986959 0.239262,0.04496 -0.791683,0.869198 0.593762,-0.224793 -0.03101,0.605131 h 0.421163 l -0.0083,-0.588594 0.572575,0.496093 -0.0052,0.0925 h 0.50953 l -0.0031,-0.224276 0.592212,-0.224275 -0.02274,0.448551 h 0.410827 l -0.0062,-0.432015 0.498161,0.432015 h 0.05529 l -0.685746,-1.083655 0.222208,0.04186 -0.0078,-0.5333 0.585494,-0.222209 -0.09198,1.797306 h 0.499194 l -0.02532,-1.78077 0.620117,0.537952 -0.777214,-1.228349 -0.810286,0.889868 -0.0217,-1.527038 0.58291,0.505912 -0.0026,0.05116 0.513147,0.09612 -0.02946,-2.066541 0.620117,0.537952 -0.752409,-1.189591 0.222209,0.04186 -0.02946,-2.066541 0.620117,0.537952 -0.777213,-1.228349 -0.810287,0.889351 -0.02067,-1.46761 h -0.387056 l -0.09767,1.911511 0.239262,0.04496 -0.791683,0.868681 0.593763,-0.224792 -0.101803,1.987475 0.513147,0.09612 -0.0078,-0.533817 0.585493,-0.221692 -0.09767,1.910994 -0.741557,-1.172021 -0.818555,0.89917 0.593763,-0.224793 -0.08578,1.680001 -0.748275,-1.182874 -0.810286,0.889869 -0.0217,-1.527039 0.51108,0.443384 -0.0041,0.08113 0.512631,0.09612 -0.02946,-2.06654 0.620634,0.537951 -0.752409,-1.189074 0.221692,0.04186 -0.02946,-2.067057 0.620634,0.537952 -0.777214,-1.228349 -0.810803,0.889351 -0.01809,-1.278474 z m 0.681612,0 0.33383,0.289388 -0.182935,-0.289388 z m 0.995288,0 -0.135909,0.149344 0.393774,-0.149344 z m 0.908472,0 0.551387,0.478523 -0.302824,-0.478523 z m 1.735811,0 -0.702283,0.771529 0.593762,-0.224793 -0.101802,1.986959 0.239262,0.04496 -0.791683,0.869197 0.593762,-0.225309 -0.101802,1.987475 0.513146,0.09612 -0.0078,-0.533818 0.585494,-0.221692 -0.09767,1.910995 -0.741557,-1.171505 -0.818555,0.898653 0.593763,-0.224792 -0.101286,1.986958 0.238745,0.04496 -0.428915,0.470772 h 0.772563 l -0.291972,-0.46147 0.222209,0.04186 -0.0078,-0.5333 0.585494,-0.221692 -0.05994,1.174605 h 0.45837 l -0.01653,-1.158069 0.375688,0.325562 v -0.174667 l -0.532784,-0.841809 -0.810287,0.889869 -0.0217,-1.527039 0.582911,0.505912 -0.0026,0.05116 0.513147,0.09664 -0.02946,-2.067057 0.300757,0.260966 V 31.62208 l -0.433049,-0.684196 0.222209,0.04134 -0.02945,-2.067057 0.240304,0.208256 v -0.270784 l -0.397392,-0.627869 -0.810286,0.889352 -0.0217,-1.526522 0.620117,0.537435 -0.696599,-1.100708 z m -5.39657,0.4408 -0.09353,1.829862 -0.7059,-1.115694 0.221175,0.04134 -0.0078,-0.533818 z m 2.07791,0.622184 -0.09354,1.829862 -0.7059,-1.115694 0.221175,0.04134 -0.0078,-0.533817 z m 2.121317,0.189136 -0.09353,1.829862 -0.706417,-1.115694 0.222209,0.04134 -0.0078,-0.533818 z m -4.867403,0.553454 0.572575,0.496611 -0.0062,0.125573 0.238745,0.04496 -0.783414,0.859896 z m 6.945313,0.06873 -0.09353,1.829862 -0.706417,-1.115694 0.222209,0.04134 -0.0078,-0.533817 z m -4.867404,0.553454 0.572575,0.496611 -0.0062,0.125574 0.239262,0.04496 -0.783931,0.859896 z m 2.121835,0.189136 0.572058,0.496611 -0.0062,0.125573 0.239262,0.04496 -0.783415,0.859896 z m 2.077909,0.622184 0.572575,0.496611 -0.0067,0.12609 0.238745,0.04496 -0.782898,0.859379 z m -7.176823,2.406572 v 0.275952 l 0.386023,0.334346 z m 1.505335,0.244946 -0.09353,1.829863 -0.706416,-1.115695 0.222208,0.04134 -0.0078,-0.533818 z m 6.961332,0.247013 -0.219108,0.240296 0.219108,-0.08268 z m -4.883423,0.375171 -0.09353,1.829863 -0.706417,-1.115694 0.222208,0.04134 -0.0078,-0.533301 z m 0.381889,0.01654 0.590145,0.512113 -0.01447,0.287321 0.238745,0.04496 -0.790133,0.86713 z m -3.965133,1.888256 v 0.04909 h 0.03101 z" />
    <path
       id="path367-5"
       style="fill:#000000;stroke-width:0.262009"
       d="m 19.892939,28.999015 c -0.550778,0.0019 -1.140652,0.234202 -1.692372,0.696283 -0.06526,-0.176716 -0.213141,-0.310113 -0.395625,-0.356872 -0.09814,0.0042 -0.266671,-0.01392 -0.49485,0.0089 -0.22818,0.02286 -0.545911,0.122542 -0.77379,0.367518 -0.02581,0.03862 -0.04683,0.08023 -0.0626,0.123926 l -0.336856,-0.01533 c -0.0612,-0.0028 -0.122447,0.0043 -0.181417,0.02087 -0.160096,0.04505 -0.374897,0.223542 -0.45993,0.385404 -0.08503,0.161863 -0.120783,0.315492 -0.157142,0.527216 -0.07272,0.42345 -0.123738,1.087787 -0.160976,2.282616 -0.0045,0.147652 0.04811,0.291354 0.146922,0.401161 0.485528,0.539775 1.1123,0.725999 1.599109,0.66264 0.453052,-0.05897 0.762242,-0.218158 1.000347,-0.285327 0.02853,0.135651 0.105235,0.256376 0.215912,0.339838 0.309446,0.166937 0.600714,0.190578 0.909214,0.216337 0.308499,0.02576 0.628501,0.03144 0.913046,0.04599 0.348935,0.01793 0.632671,-0.277682 0.600464,-0.62559 -0.0314,-0.338222 -0.063,-0.670722 -0.09454,-1.003329 0.434958,-0.137445 0.811822,-0.329937 1.046341,-0.631552 0.329736,-0.424074 0.409125,-0.923022 0.422454,-1.372124 4.23e-4,-0.01291 4.23e-4,-0.02584 0,-0.03875 -0.03633,-0.967496 -0.92232,-1.753653 -2.043708,-1.749864 z"
       sodipodi:nodetypes="cccsccccssccsccscccsccc" />
    <path
       style="color:#000000;fill:#000000;fill-opacity:1;stroke-width:0.264583;stroke-linecap:round;stroke-linejoin:round;-inkscape-stroke:none"
       d="m 14.259771,26.78836 a 0.26460979,0.26460979 0 0 0 -0.264583,0.264583 v 8.466667 a 0.26460979,0.26460979 0 0 0 0.264583,0.264584 h 8.466667 A 0.26460979,0.26460979 0 0 0 22.991022,35.51961 V 27.052943 A 0.26460979,0.26460979 0 0 0 22.726438,26.78836 Z m 0.264584,0.529167 h 7.9375 v 7.9375 h -7.9375 z"
       id="path424-2" />
    <path
       style="fill:#000000;stroke-width:0.262009"
       d="m 17.699803,29.896753 c 0.0046,0.0231 0.0092,0.0462 0.01386,0.06929"
       id="path365" />
    <path
       id="path367"
       style="fill:#ffffff;stroke-width:0.262009"
       d="m 19.890049,29.571205 c -0.480964,0.0016 -1.033039,0.217167 -1.580728,0.782885 -0.203,1.011183 0.03588,2.188093 0.09722,3.298404 0.315528,0.170218 0.984688,0.163539 1.579793,0.193968 -0.0462,-0.497625 -0.09215,-1.006114 -0.138348,-1.469021 1.231787,-0.160692 1.487372,-0.824096 1.510619,-1.607369 -0.02137,-0.56905 -0.639656,-1.201668 -1.468554,-1.198867 z m -2.413625,0.339328 c -0.192298,0.004 -0.376898,0.03488 -0.524884,0.193969 -0.144249,0.763256 0.0089,1.229013 0.01356,1.843404 -0.135457,0.208305 -0.298969,0.163668 -0.471134,0.0416 0.09068,-0.449085 0.212809,-0.709584 0.235567,-1.566239 l -0.623505,-0.02758 c -0.146534,0.04124 -0.286549,0.292508 -0.360361,2.660877 0.788426,0.876515 1.435404,0.336038 2.120569,0.179946 -0.01386,-1.108673 0.03126,-2.099314 -0.0416,-3.325979 -0.114652,0.0049 -0.23283,-0.0024 -0.348209,0 z m 2.068688,0.80906 c 0.393744,-0.0019 0.266164,0.362632 0.136479,0.729135 l -0.485155,0.01402 -0.01402,-0.679124 c 0.152744,-0.04397 0.271834,-0.06361 0.362698,-0.06403 z" />
  </g>
</svg>
