<svg xmlns="http://www.w3.org/2000/svg" xmlns:svg="http://www.w3.org/2000/svg" id="svg25719" width="34" height="34" version="1.1" viewBox="0 0 8.996 8.996"><g id="layer1" transform="translate(-13.995188,-26.78836)"><path id="path1694-1-6-0-0-2-4-2-9-6-7" fill="#cc0" fill-rule="evenodd" stroke="none" d="m 14.325574,35.519378 v -8.466665 h 8.466665 v 8.466665 h -8.466665" style="fill:#4a0;fill-opacity:1;stroke-width:.264583"/><path style="opacity:.4;fill:#000;fill-opacity:1;stroke:none;stroke-width:.264136;stroke-dasharray:none" id="path14198-2" d="m 17.971188,29.728566 c -0.212105,0.716325 -0.480008,1.189341 -1.085863,1.958811 -0.459451,0.727093 -0.152586,2.105394 0.553577,2.618846 1.138967,0.477386 3.058635,-0.202671 3.300172,-0.89424 0.03951,-0.339668 0.365824,-0.507253 0.681326,-0.681326 -0.340184,-0.0516 -0.658654,-0.190046 -1.107155,0.191623 0.505168,-0.562757 0.250234,-1.294427 0.29808,-1.958811 -0.834146,-7.68e-4 -0.928747,0.401845 -1.171028,0.723908 0.769762,-0.728301 1.076927,-0.9162 0.915531,-3.236297 -0.445507,0.63596 -1.632393,0.894908 -2.2356,2.469806 0.211688,-0.288537 0.313232,-0.622967 -0.14904,-1.19232 z"/><path id="path1694-1-6-0-0-2-4-2-1-9-4-9" style="fill:#fff;fill-opacity:1;stroke-width:.264583" d="m 14.773725,27.091904 -0.506945,0.418062 v 0.188619 l 0.735355,-0.606681 z m 0.647506,0 -1.154451,0.952397 v 0.12299 l 1.303796,-1.075387 z m 0.284737,0 -1.439188,1.187525 v 0.55087 l 2.107881,-1.738395 z m 0.77463,0 -2.213818,1.826245 v 0.188102 l 2.442228,-2.014347 z m 0.369486,0 -2.583304,2.130619 v 0.116272 l 2.724381,-2.246891 z m 0.474907,0 -3.058211,2.522327 v 0.02946 l 3.093351,-2.551787 z m 5.408455,5.826001 -3.200838,2.640666 h 0.03462 l 3.166215,-2.611727 z m 0,0.304374 -2.832902,2.336292 h 0.141594 l 2.691308,-2.22002 z m 0,0.232027 -2.551265,2.104265 h 0.229443 l 2.321822,-1.915129 z m 0,0.275953 -2.216402,1.828312 h 0.668693 l 1.547709,-1.276925 z m 0,0.663008 -1.412317,1.165304 h 0.149345 l 1.262972,-1.041797 z m 0,0.469222 -0.843876,0.696082 h 0.22841 l 0.615466,-0.507463 z"/><path style="color:#000;fill:#000;fill-opacity:1;stroke-width:.264583;stroke-linecap:round;stroke-linejoin:round;-inkscape-stroke:none" id="path424-0-7-3-0-1-8-4-0-5" d="m 14.259771,26.78836 a 0.26460979,0.26460979 0 0 0 -0.264583,0.264583 v 8.466666 a 0.26460979,0.26460979 0 0 0 0.264583,0.264583 h 8.466665 a 0.26460979,0.26460979 0 0 0 0.264583,-0.264583 V 27.052943 A 0.26460979,0.26460979 0 0 0 22.726436,26.78836 Z m 0.264582,0.529166 h 7.937499 v 7.937499 h -7.937499 z"/><path style="fill:#fff;fill-opacity:1;stroke:#000;stroke-width:.264136;stroke-dasharray:none" id="path14209" d="m 16.249299,30.797503 c -0.287346,0.08276 -0.627942,0.263087 -0.6039,0.613611 -0.03145,0.371213 -0.0037,0.855498 0.36638,1.054242 0.234162,0.22287 0.695284,0.320453 0.725557,-0.127509 0.08916,-0.408121 -0.35919,-0.633564 -0.414838,-0.998399 0.01803,-0.174728 0.373988,-0.597278 -0.0732,-0.541945 z"/><path style="fill:#fff;fill-opacity:1;stroke:#000;stroke-width:.264136;stroke-dasharray:none" id="path14198" d="m 17.723302,29.478428 c -0.212105,0.716326 -0.480008,1.189342 -1.085863,1.958812 -0.459451,0.727093 -0.152585,2.105394 0.553577,2.618846 1.138967,0.477386 3.058635,-0.202671 3.300172,-0.89424 0.03951,-0.339668 0.365824,-0.507253 0.681326,-0.681326 -0.340184,-0.0516 -0.658654,-0.190046 -1.107155,0.191623 0.505168,-0.562757 0.250234,-1.294427 0.29808,-1.958812 -0.834146,-7.67e-4 -0.928747,0.401846 -1.171029,0.723909 0.769763,-0.728301 1.076928,-0.9162 0.915532,-3.236297 -0.445507,0.63596 -1.632393,0.894907 -2.2356,2.469806 0.211688,-0.288537 0.313232,-0.622967 -0.14904,-1.192321 z"/><path id="rect17282" style="fill:green;fill-opacity:1;stroke:none;stroke-width:.368797;stroke-dasharray:none" d="m 18.530568,30.609125 c -0.0084,0.0012 -0.01642,0.003 -0.02429,0.0052 l 0.04289,0.02791 c -0.0051,-0.0116 -0.01112,-0.02269 -0.0186,-0.03307 z m -0.0925,0.04031 c -0.0736,0.05819 -0.110567,0.1682 -0.118856,0.277503 l 0.160197,0.103352 c 0.05019,-0.09387 0.09051,-0.203181 0.08837,-0.297656 z m -0.11834,0.376205 c 0.006,0.06822 0.0234,0.129793 0.05116,0.168465 0.02055,-0.02388 0.0437,-0.05665 0.06666,-0.0925 z m -0.06615,0.331246 c -0.01481,0.02345 -0.02984,0.0466 -0.04548,0.06925 l 0.24443,0.157613 c -0.0054,-0.04596 -0.02247,-0.08907 -0.04651,-0.128674 z m -0.10387,0.149345 c -0.02033,0.02647 -0.04147,0.05227 -0.06305,0.07751 l 0.340547,0.219625 c 0.0057,-0.03675 0.01142,-0.07218 0.01757,-0.106453 z m -0.101803,0.121439 c -0.02262,0.02485 -0.04533,0.0493 -0.06925,0.07286 l 0.430465,0.278019 c 8.46e-4,-0.0371 0.0048,-0.07445 0.0093,-0.111621 z m -0.10697,0.108004 c -0.02609,0.0243 -0.05254,0.04849 -0.0801,0.07131 -0.123104,0.158561 -0.314924,0.01181 -0.383956,-0.05013 -0.06698,0.06401 -0.137969,0.129033 -0.207223,0.195337 l 1.46296,0.944129 c 0.05449,-0.117192 0.310713,-0.223861 0.3514,-0.358635 0.0079,-0.01966 0.01345,-0.03686 0.01757,-0.05271 l -0.188102,-0.121439 c -0.120869,0.01599 -0.265435,0.04765 -0.337447,-0.01189 -0.117968,-0.0729 -0.159585,-0.188243 -0.166398,-0.313676 z m 1.554944,0.05064 c -0.02952,0.03308 -0.05139,0.07121 -0.07028,0.110587 l 0.150379,0.09715 c 0.02104,-0.05015 0.03034,-0.09627 0.01809,-0.127124 -0.0084,-0.01619 -0.02042,-0.02924 -0.03411,-0.04082 l -0.05168,-0.03307 c -0.0042,-0.0021 -0.0082,-0.0048 -0.0124,-0.0067 z m -0.09767,0.171566 c -0.0086,0.0209 -0.01672,0.04182 -0.02532,0.06253 l 0.139009,0.0894 c 0.01261,-0.01858 0.02396,-0.03737 0.03462,-0.05633 z m -2.165243,0.02945 c -0.02028,0.01978 -0.03983,0.03995 -0.05943,0.05994 l 1.843815,1.190108 c 0.0061,-0.03343 0.0068,-0.06626 0.0026,-0.09663 L 18.80808,33.004327 c -0.01416,0.0044 -0.02893,0.0097 -0.04444,0.01705 -0.02518,-0.02469 -0.03739,-0.04863 -0.04031,-0.07183 z m 2.119767,0.07855 c -0.01182,0.02541 -0.02505,0.05008 -0.04031,0.07286 l 0.116272,0.07545 c 0.01829,-0.01925 0.03659,-0.04098 0.05426,-0.06408 z m -2.237072,0.04237 c -0.01524,0.01658 -0.03058,0.03288 -0.04496,0.04961 l 1.891874,1.221114 c 0.0092,-0.01471 0.01735,-0.03071 0.0248,-0.04857 0.0017,-0.0036 0.003,-0.0073 0.0047,-0.01085 z m -0.09457,0.116272 c 0.05053,0.109213 0.06925,0.220617 0.0863,0.331246 l 1.487765,0.960665 c 0.117861,0.0036 0.23131,-0.0052 0.312642,-0.0739 z m 2.254642,0.0088 c -0.002,0.06533 0.02929,0.07192 0.07286,0.04703 z m -0.282153,0.122473 0.115755,0.07493 c -0.0019,-0.06072 -0.04935,-0.07646 -0.115755,-0.07493 z m -1.867586,0.310059 c 0.0067,0.03834 0.01426,0.07665 0.02429,0.114205 l 1.135331,0.732772 c 0.04537,-0.0063 0.09521,-0.0055 0.146244,-0.0036 z m 2.241724,0.01033 c -0.165711,0.01631 -0.02293,0.293612 0.04754,0.04858 l -5.29e-4,-0.0248 -0.0078,-0.01809 -0.0083,-0.0052 c -0.01118,-8.46e-4 -0.0218,-0.0014 -0.03101,-5.29e-4 z m -2.18333,0.204639 c 0.01762,0.04222 0.03885,0.08374 0.0677,0.124024 -0.06186,0.119616 -0.03182,0.230036 0.04031,0.299723 l 0.08578,0.05581 c 0.07499,0.02957 0.166545,0.02719 0.251664,-0.02274 0.170578,-0.04207 0.304871,0.05389 0.447518,0.11989 z m 1.699638,0.113689 0.113688,0.07286 c -0.02281,-0.04194 -0.06124,-0.06931 -0.113688,-0.07286 z"/></g></svg>