<svg xmlns="http://www.w3.org/2000/svg" xmlns:svg="http://www.w3.org/2000/svg" id="svg25719" width="34" height="34" version="1.1" viewBox="0 0 8.996 8.996"><g id="layer1" transform="translate(-13.995188,-26.78836)"><path id="path1694-1-6-0-0-2-4-2-9" fill="#cc0" fill-rule="evenodd" stroke="none" d="m 14.325574,35.519378 v -8.466665 h 8.466665 v 8.466665 h -8.466665" style="fill:#4a0;fill-opacity:1;stroke-width:.264583"/><path id="path1694-1-6-0-0-2-4-2-1-9" style="fill:#fff;fill-opacity:1;stroke-width:.264583" d="m 14.773725,27.091904 -0.506945,0.418062 v 0.188619 l 0.735355,-0.606681 z m 0.647506,0 -1.154451,0.952397 v 0.12299 l 1.303796,-1.075387 z m 0.284737,0 -1.439188,1.187525 v 0.55087 l 2.107881,-1.738395 z m 0.77463,0 -2.213818,1.826245 v 0.188102 l 2.442228,-2.014347 z m 0.369486,0 -2.583304,2.130619 v 0.116272 l 2.724381,-2.246891 z m 0.474907,0 -3.058211,2.522327 v 0.02946 l 3.093351,-2.551787 z m 5.408455,5.826001 -3.200838,2.640666 h 0.03462 l 3.166215,-2.611727 z m 0,0.304374 -2.832902,2.336292 h 0.141594 l 2.691308,-2.22002 z m 0,0.232027 -2.551265,2.104265 h 0.229443 l 2.321822,-1.915129 z m 0,0.275953 -2.216402,1.828312 h 0.668693 l 1.547709,-1.276925 z m 0,0.663008 -1.412317,1.165304 h 0.149345 l 1.262972,-1.041797 z m 0,0.469222 -0.843876,0.696082 h 0.22841 l 0.615466,-0.507463 z"/><path style="opacity:.4;fill:#000;fill-opacity:1;stroke:none;stroke-width:.126;stroke-dasharray:none;stroke-dashoffset:14.7;stroke-opacity:1" id="path11064-1-1" d="m 16.837396,33.802955 c 0.325131,-0.179005 0.650261,-0.353869 0.975391,-0.634003 1.031762,0.209925 1.312197,-0.150121 1.609395,-0.49745 0.965131,0.09824 1.207479,0.157525 1.541117,0.07803 0.603634,-0.143823 0.790134,-0.920324 0.419417,-0.907114 -0.877606,0.03127 -0.87835,0.01975 -1.365546,0.04877 -0.176551,-0.145035 -0.182682,-0.270993 -0.04877,-0.390157 0.577066,-0.236156 1.121079,-0.497101 1.49235,-0.887606 0.309791,-0.481485 0.06125,-0.673294 -0.168471,-0.846509 -0.334318,-0.252089 -1.270045,0.432504 -1.918866,0.866019 0.378273,-0.487696 0.853586,-1.171925 0.870465,-1.559646 0.02052,-0.471212 -0.55016,-0.962596 -1.026527,-0.469168 -0.238732,0.247282 -0.673094,0.97371 -0.926621,1.589887 -0.135764,0.03849 -0.364575,0.217464 -0.643758,-0.08778 -0.183998,-0.619546 -1.051322,-1.323523 -1.453333,-0.624252 -0.145324,0.252782 0.314592,0.782776 0.368244,1.05414 0.100092,0.506239 -0.17751,0.874194 0.09019,1.413598 l -0.643759,0.302371 z"/><path style="color:#000;fill:#000;fill-opacity:1;stroke-width:.264583;stroke-linecap:round;stroke-linejoin:round;-inkscape-stroke:none" id="path424-0-7-3-0-1-8-4" d="m 14.259771,26.78836 a 0.26460979,0.26460979 0 0 0 -0.264583,0.264583 v 8.466666 a 0.26460979,0.26460979 0 0 0 0.264583,0.264583 h 8.466665 a 0.26460979,0.26460979 0 0 0 0.264583,-0.264583 V 27.052943 A 0.26460979,0.26460979 0 0 0 22.726436,26.78836 Z m 0.264582,0.529166 h 7.937499 v 7.937499 h -7.937499 z"/><path style="fill:#fff;fill-opacity:1;stroke:#000;stroke-width:.126;stroke-dasharray:none;stroke-dashoffset:14.7;stroke-opacity:1" id="path11064-1" d="m 16.681769,33.604329 c 0.325131,-0.179005 0.650261,-0.353869 0.975391,-0.634003 1.031762,0.209925 1.312197,-0.150121 1.609395,-0.49745 0.965131,0.09824 1.207479,0.157525 1.541117,0.07803 0.603634,-0.143823 0.790134,-0.920324 0.419417,-0.907114 -0.877606,0.03127 -0.87835,0.01975 -1.365546,0.04877 -0.176551,-0.145035 -0.182682,-0.270993 -0.04877,-0.390157 0.577066,-0.236156 1.121079,-0.497101 1.49235,-0.887606 0.309791,-0.481485 0.06125,-0.673294 -0.168471,-0.846509 -0.334318,-0.252089 -1.270045,0.432504 -1.918866,0.866019 0.378273,-0.487696 0.853586,-1.171925 0.870465,-1.559646 0.02052,-0.471212 -0.55016,-0.962596 -1.026527,-0.469168 -0.238732,0.247282 -0.673094,0.97371 -0.926621,1.589887 -0.135764,0.03849 -0.364575,0.217464 -0.643758,-0.08778 -0.183998,-0.619546 -1.051322,-1.323523 -1.453333,-0.624252 -0.145324,0.252782 0.314592,0.782776 0.368244,1.05414 0.100092,0.506239 -0.17751,0.874194 0.09019,1.413598 l -0.643759,0.302371 z"/><path style="fill:#000;fill-opacity:1;stroke:none;stroke-width:.0616044;stroke-dasharray:none;stroke-dashoffset:14.7;stroke-opacity:1" id="path11068-7" d="m 18.288358,30.544749 c 0.2577,0.08099 0.540988,0.27326 0.540798,0.572985 -0.0028,0.336815 -0.198909,0.630345 -0.365228,0.909609 0.05667,-0.373306 0.231433,-0.739761 0.172664,-1.123228 -0.02998,-0.180906 -0.17783,-0.311142 -0.348234,-0.359366 z"/><path id="path14515" style="fill:#4a0;fill-opacity:1;stroke:none;stroke-width:.126;stroke-dasharray:none;stroke-dashoffset:14.7;stroke-opacity:1" d="m 16.75466,29.249852 c -0.01753,4.22e-4 -0.03476,0.0017 -0.05168,0.0041 l 0.643372,0.464571 c -0.04008,-0.07633 -0.08988,-0.15725 -0.14056,-0.22841 l -0.310573,-0.224242 c -0.04654,-0.01161 -0.09445,-0.01713 -0.140559,-0.01602 z m -0.172083,0.04496 c -0.03004,0.01764 -0.05663,0.04063 -0.07803,0.06976 l 1.079004,0.778764 c -0.04626,-0.07477 -0.09209,-0.149293 -0.134876,-0.223759 z m -0.12299,0.164848 c -0.0037,0.01364 -0.0066,0.02828 -0.0088,0.04341 0.0032,0.0318 0.01002,0.06152 0.0186,0.08992 l 1.372009,0.990121 c -0.03686,-0.0716 -0.07718,-0.142289 -0.118856,-0.21239 z m 0.141594,0.355534 c 0.119982,0.135026 0.281126,0.24315 0.371553,0.394808 l 1.001489,0.722953 c -0.005,-0.04851 -0.01682,-0.09615 -0.03772,-0.141593 -0.0023,-0.006 -0.0048,-0.01213 -0.0072,-0.01809 z m 0.435115,0.56689 c 5.3e-5,3.45e-4 -5.2e-5,6.89e-4 0,0.001 0.0062,0.04488 0.0089,0.08992 0.0098,0.134359 l 0.89917,0.648539 c 0.01256,-0.03498 0.02106,-0.07149 0.02636,-0.108521 z m 0.0088,0.261483 c -9.51e-4,0.04197 -0.0022,0.0835 -0.0021,0.125057 l 0.797367,0.574642 c 0.02244,-0.02496 0.04239,-0.05296 0.05994,-0.08268 z m 0.0047,0.256832 c 0.0053,0.04989 0.01439,0.09957 0.03049,0.148828 l 0.574125,0.413928 c 0.03753,-0.0104 0.07313,-0.02737 0.105937,-0.04961 z m 0.154513,0.365352 c 0.03239,0.0377 0.0709,0.07536 0.117305,0.112655 0.05201,0.0418 0.103944,0.06861 0.154513,0.0832 z"/><path style="fill:#000;fill-opacity:1;stroke:none;stroke-width:.126;stroke-dasharray:none;stroke-dashoffset:14.7;stroke-opacity:1" id="path14504" d="m 17.434963,29.897022 c 0.03363,0.161997 0.078,0.322074 0.09516,0.487014 0.221413,0.06886 0.380236,0.282235 0.37024,0.51646 -0.0087,0.175477 -0.0016,0.562244 0.03708,0.598582 -0.07717,-0.332705 0.140637,-0.668364 0.02943,-0.996107 -0.07118,-0.222513 -0.155866,-0.05099 -0.376568,-0.290369 -0.04071,-0.110472 -0.115236,-0.204846 -0.155342,-0.31558 z"/><path id="path14517" style="fill:#4a0;fill-opacity:1;stroke:none;stroke-width:.126;stroke-dasharray:none;stroke-dashoffset:14.7;stroke-opacity:1" d="m 19.242363,28.723786 0.0863,0.06253 c -0.01322,-0.019 -0.02931,-0.03587 -0.04858,-0.05013 -0.0117,-0.0087 -0.02422,-0.01219 -0.03772,-0.0124 z m -0.116789,0.04341 c -0.0076,0.0038 -0.01511,0.0074 -0.02222,0.01034 -0.01567,0.01736 -0.03392,0.03907 -0.05323,0.06201 l 0.315743,0.227893 c 0.0082,-0.04087 0.01211,-0.08115 0.01085,-0.119373 z m -0.14056,0.152445 c -0.02015,0.02606 -0.04101,0.05374 -0.06098,0.08217 l 0.367936,0.266133 c 0.01665,-0.03091 0.03127,-0.06297 0.04341,-0.0956 z m -0.117822,0.168465 c -0.01843,0.02995 -0.03574,0.06013 -0.05064,0.08992 l 0.353467,0.254765 c 0.02396,-0.02315 0.04642,-0.04937 0.06718,-0.07751 z m -0.09095,0.187586 c -0.01339,0.04206 -0.02014,0.0816 -0.01654,0.116272 l 0.186552,0.134359 c 0.02299,0.0016 0.04845,0.002 0.07648,5.16e-4 0.02094,-0.007 0.04152,-0.01676 0.0615,-0.02842 z m 1.681034,0.7059 c -0.01411,0.0044 -0.02905,0.0093 -0.04444,0.01602 -0.02302,0.01 -0.04544,0.01995 -0.06718,0.02997 l 0.33848,0.24443 c 0.01142,-0.03888 0.01709,-0.078 0.01654,-0.114722 v -5.17e-4 z m -0.216524,0.09767 c -0.03563,0.01855 -0.06867,0.03684 -0.0987,0.05529 l 0.438216,0.315743 c 0.02428,-0.02439 0.04489,-0.05181 0.06201,-0.08113 z m -0.188103,0.117306 c -0.03171,0.02521 -0.05677,0.05007 -0.07441,0.07441 l 0.38654,0.279053 c 0.04763,-0.0032 0.09064,-0.01607 0.128674,-0.03566 z m -0.0987,0.183451 c 0.01672,0.04511 0.07114,0.08662 0.171049,0.12299 z m 0.626318,1.466577 c -0.0094,0.0021 -0.01871,0.0043 -0.02842,0.0072 -0.02377,0.0072 -0.06272,0.01354 -0.109554,0.02015 l 0.4439,0.320394 c 0.02155,-0.02854 0.03087,-0.06592 0.02997,-0.10542 z m -0.285254,0.04858 c -0.04705,0.0075 -0.09448,0.01577 -0.137976,0.02687 l 0.385506,0.278019 c 0.03398,0.0061 0.06928,0.0147 0.105937,0.02739 0.0538,0.01863 0.09889,0.02411 0.135909,0.02015 z m -0.254248,0.07028 c -0.03862,0.02163 -0.06266,0.04835 -0.0615,0.08268 l 0.174666,0.12609 c 0.06088,0.01237 0.124558,0.01165 0.192237,0.01189 z"/></g></svg>