<svg xmlns="http://www.w3.org/2000/svg" xmlns:svg="http://www.w3.org/2000/svg" id="svg25719" width="34" height="34" version="1.1" viewBox="0 0 8.996 8.996"><g id="layer1" transform="translate(-13.995188,-26.78836)"><path id="path1694-1-6-0-0-2-4-2" fill="#cc0" fill-rule="evenodd" stroke="none" d="m 14.325574,35.519378 v -8.466665 h 8.466664 v 8.466665 h -8.466664" style="fill:#4a0;fill-opacity:1;stroke-width:.264583"/><path id="path1694-1-6-0-0-2-4-2-1" style="fill:#fff;fill-opacity:1;stroke-width:.264583" d="m 14.773725,27.091904 -0.506945,0.418062 v 0.188619 l 0.735355,-0.606681 z m 0.647506,0 -1.154451,0.952397 v 0.12299 l 1.303796,-1.075387 z m 0.284737,0 -1.439188,1.187525 v 0.55087 l 2.10788,-1.738395 z m 0.77463,0 -2.213818,1.826245 v 0.188102 l 2.442227,-2.014347 z m 0.369485,0 -2.583303,2.130619 v 0.116272 l 2.72438,-2.246891 z m 0.474907,0 -3.05821,2.522327 v 0.02946 l 3.09335,-2.551787 z m 5.408456,5.826001 -3.200839,2.640666 h 0.03462 l 3.166215,-2.611727 z m 0,0.304374 -2.832902,2.336292 h 0.141594 l 2.691308,-2.22002 z m 0,0.232027 -2.551266,2.104265 h 0.229443 l 2.321823,-1.915129 z m 0,0.275953 -2.216403,1.828312 h 0.668693 l 1.54771,-1.276925 z m 0,0.663008 -1.412318,1.165304 h 0.149345 l 1.262973,-1.041797 z m 0,0.469222 -0.843877,0.696082 h 0.22841 l 0.615467,-0.507463 z"/><path id="path467-0-7" style="opacity:.4;fill:#000;fill-opacity:1;stroke:none;stroke-width:.126232;stroke-dasharray:none;stroke-dashoffset:14.7;stroke-opacity:1" d="m 17.613727,28.759766 c -1.139101,0.509146 -1.046618,2.101922 -0.731739,3.266467 0.620356,0.506546 1.176155,1.042284 1.848983,1.338937 -0.0055,-0.0075 -0.01153,-0.01716 -0.01757,-0.02842 l 0.01757,0.02842 c 1.58301,0.803908 2.379858,0.441263 3.097486,-0.03979 l -1.01906,-1.278992 C 20.05878,32.7482 19.292612,32.81044 18.520131,32.615862 18.351807,31.616281 18.350722,29.970679 19.52007,29.727667 18.770283,29.283986 18.389823,28.96667 17.613727,28.759766 Z"/><path style="color:#000;fill:#000;fill-opacity:1;stroke-width:.264583;stroke-linecap:round;stroke-linejoin:round;-inkscape-stroke:none" id="path424-0-7-3-0-1-8" d="m 14.259771,26.78836 a 0.26460979,0.26460979 0 0 0 -0.264583,0.264583 v 8.466666 a 0.26460979,0.26460979 0 0 0 0.264583,0.264583 h 8.466664 a 0.26460979,0.26460979 0 0 0 0.264584,-0.264583 V 27.052943 A 0.26460979,0.26460979 0 0 0 22.726435,26.78836 Z m 0.264582,0.529166 h 7.937499 v 7.937499 h -7.937499 z"/><path style="fill:#fff;fill-opacity:1;stroke:#000;stroke-width:.126232;stroke-dasharray:none;stroke-dashoffset:14.7;stroke-opacity:1" id="path467-0" d="m 20.574228,31.756233 1.019306,1.279131 c -0.717628,0.481055 -1.51488,0.843879 -3.097891,0.03997 l -0.519648,-0.839428 c 0.877064,0.290563 1.747653,0.315601 2.598233,-0.479674 z"/><path style="opacity:.11;fill:#000;fill-opacity:1;stroke:none;stroke-width:.2;stroke-dasharray:none;stroke-dashoffset:14.7;stroke-opacity:1" id="path7706" d="m 16.449739,32.623106 c -0.286402,-0.186426 -0.834614,-0.03097 -0.646179,0.363791 -0.362415,0.230217 0.04497,0.665957 0.340453,0.702687 0.390773,-0.242732 0.508613,0.379827 0.886387,0.378203 0.274981,-0.126468 0.518103,-0.347049 0.828089,-0.137148 0.271944,-0.06814 0.451287,-0.315812 0.645345,-0.461035 0.130433,-0.392735 -0.265251,-0.639312 -0.614419,-0.538024 -0.265136,-0.04915 -0.42358,-0.287965 -0.729223,-0.215597 -0.180171,-0.272617 -0.550129,-0.318654 -0.779066,-0.05714 l -0.0181,0.01143 -0.014,0.0088"/><path style="fill:#fff;fill-opacity:1;stroke:#000;stroke-width:.126232;stroke-dasharray:none;stroke-dashoffset:14.7;stroke-opacity:1" id="path369-0" d="m 17.378518,28.470046 c 0.776097,0.206903 1.156798,0.524084 1.906586,0.967765 -1.617344,0.336114 -0.996567,3.355929 -0.789462,3.637526 -0.672829,-0.296653 -1.228387,-0.832544 -1.848743,-1.33909 -0.31488,-1.164547 -0.407483,-2.757055 0.731619,-3.266201 z"/><path id="path369-0-3" style="fill:#4a0;fill-opacity:1;stroke:none;stroke-width:.11622;stroke-dasharray:none;stroke-dashoffset:14.7;stroke-opacity:1" d="m 16.593954,31.205681 c 0.0036,0.02046 0.0071,0.04065 0.01093,0.061 l 1.639302,1.162272 c -0.004,-0.02009 -0.0074,-0.0406 -0.0114,-0.06147 z m 0.02897,0.152968 c 0.0043,0.02102 0.0088,0.04205 0.0133,0.0629 l 1.643103,1.165132 c -0.005,-0.0205 -0.0099,-0.04259 -0.01473,-0.06433 z m 0.0247,0.113892 c 0.01876,0.08357 0.03843,0.165582 0.05985,0.245417 l 1.670179,1.183716 c -0.02607,-0.05881 -0.05582,-0.149461 -0.08503,-0.262571 z m 0.43037,0.56136 c 0.158835,0.134356 0.315982,0.26634 0.475022,0.390283 l 0.448422,0.31785 c 0.110546,0.06906 0.223775,0.132438 0.340591,0.187756 z"/><path style="fill:#fad6b8;fill-opacity:1;stroke:#000;stroke-width:.1;stroke-dasharray:none;stroke-dashoffset:14.7;stroke-opacity:1" id="path4193-5" d="m 16.253128,33.178793 0.650096,-1.985619"/><path style="fill:#fad6b8;fill-opacity:1;stroke:#000;stroke-width:.1;stroke-dasharray:none;stroke-dashoffset:14.7;stroke-opacity:1" id="path4195-8" d="m 16.783097,33.327186 0.515838,-2.077482"/><path style="fill:#fad6b8;fill-opacity:1;stroke:#000;stroke-width:.1;stroke-dasharray:none;stroke-dashoffset:14.7;stroke-opacity:1" id="path4197-2" d="m 17.270669,33.447311 0.438107,-2.013884"/><path style="fill:#fad6b8;fill-opacity:1;stroke:#000;stroke-width:.1;stroke-dasharray:none;stroke-dashoffset:14.7;stroke-opacity:1" id="path4199-0" d="m 17.751175,33.390782 0.07066,-1.151802"/><path style="fill:#fad6b8;fill-opacity:1;stroke:#000;stroke-width:.1;stroke-dasharray:none;stroke-dashoffset:14.7;stroke-opacity:1" id="path4201-0" d="M 18.274079,33.440246 18.161018,32.641758"/><path style="fill:#fad6b8;fill-opacity:1;stroke:#000;stroke-width:.226;stroke-dasharray:none;stroke-dashoffset:14.7;stroke-opacity:1" id="path4215-4" d="m 17.116581,30.74692 0.429706,-0.005"/><path style="fill:#fad6b8;fill-opacity:1;stroke:#000;stroke-width:.226;stroke-dasharray:none;stroke-dashoffset:14.7;stroke-opacity:1" id="path4217-0" d="m 17.61624,30.02741 0.124916,0.09993"/><path style="fill:#fad6b8;fill-opacity:1;stroke:#000;stroke-width:.226;stroke-dasharray:none;stroke-dashoffset:14.7;stroke-opacity:1" id="path4219-4" d="m 17.416376,29.512759 0.02498,0.30979"/><path style="fill:#fad6b8;fill-opacity:1;stroke:#000;stroke-width:.226;stroke-dasharray:none;stroke-dashoffset:14.7;stroke-opacity:1" id="path4225-6" d="m 16.9417,30.097362 h 0.294798"/><path style="fill:#fad6b8;fill-opacity:1;stroke:#000;stroke-width:.226;stroke-dasharray:none;stroke-dashoffset:14.7;stroke-opacity:1" id="path4227-7" d="m 16.846764,29.852528 -0.02998,0.144902"/><path style="fill:#fad6b8;fill-opacity:1;stroke:#000;stroke-width:.226;stroke-dasharray:none;stroke-dashoffset:14.7;stroke-opacity:1" id="path4229-1" d="m 16.746831,29.20297 0.304794,0.139905"/><path style="fill:#fad6b8;fill-opacity:1;stroke:#000;stroke-width:.226;stroke-dasharray:none;stroke-dashoffset:14.7;stroke-opacity:1" id="path4231-0" d="m 16.676879,31.186621 -0.429708,0.274813"/><path style="fill:#fad6b8;fill-opacity:1;stroke:#000;stroke-width:.226;stroke-dasharray:none;stroke-dashoffset:14.7;stroke-opacity:1" id="path4233-4" d="M 16.501998,30.572039 16.122256,30.432134"/><path style="fill:#fad6b8;fill-opacity:1;stroke:#000;stroke-width:.226;stroke-dasharray:none;stroke-dashoffset:14.7;stroke-opacity:1" id="path4235-6" d="M 16.511991,29.837538 16.2072,29.68764"/><path style="fill:#fad6b8;fill-opacity:1;stroke:#000;stroke-width:.226;stroke-dasharray:none;stroke-dashoffset:14.7;stroke-opacity:1" id="path4237-3" d="m 16.506994,28.918164 0.399729,0.08994"/><path id="path467-0-5" style="fill:#4a0;fill-opacity:1;stroke:none;stroke-width:.126232;stroke-dasharray:none;stroke-dashoffset:14.7;stroke-opacity:1" d="m 20.544923,31.765948 c -0.09531,0.08912 -0.19049,0.168416 -0.286288,0.237712 l 1.000456,1.231966 c 0.104494,-0.05938 0.205863,-0.123958 0.305408,-0.190686 z m -0.317809,0.259932 c -0.0254,0.01782 -0.05105,0.03414 -0.07648,0.05064 l 0.992703,1.222148 c 0.02767,-0.01427 0.05501,-0.02941 0.08217,-0.04444 z m -0.0925,0.0615 c -0.0069,0.0044 -0.01381,0.0086 -0.02067,0.01292 l 0.99012,1.218013 c 0.0074,-0.0037 0.01483,-0.0071 0.02222,-0.01085 z m -0.04134,0.02532 c -0.02663,0.01626 -0.05292,0.03215 -0.07958,0.04703 l 0.982368,1.209229 c 0.0289,-0.01279 0.05752,-0.02606 0.08578,-0.03979 z m -0.09663,0.05633 c -0.0072,0.004 -0.01446,0.008 -0.0217,0.01189 l 0.979785,1.206128 c 0.0078,-0.0033 0.01554,-0.0065 0.02325,-0.0098 z m -0.05426,0.02842 c -0.0073,0.0037 -0.0144,0.0077 -0.0217,0.01137 l 0.976168,1.201477 c 0.0077,-0.003 0.01557,-0.0062 0.02325,-0.0093 z"/></g></svg>