<svg xmlns="http://www.w3.org/2000/svg" xmlns:svg="http://www.w3.org/2000/svg" id="svg25719" width="34" height="34" version="1.1" viewBox="0 0 8.996 8.996"><g id="layer1" transform="translate(-13.995188,-26.78836)"><path id="path20691" style="fill:none;fill-opacity:1;stroke:#000;stroke-width:.141308;stroke-dasharray:none;stroke-dashoffset:14.7;stroke-opacity:1" d="m 17.280019,28.460549 c 0.104205,0.650478 -0.541038,0.733193 -1.283738,0.742076 v 2.05003 l 0.527323,0.439384 0.04301,1.203125 c 0.184409,0.07509 0.29393,0.186602 -0.06277,0.524774 l 3.319429,-0.0099 c -0.01579,-0.416503 0.184179,-0.384388 0.263503,-0.512347 l 0.126812,-0.283257 c 0.167597,-0.395496 0.335193,-0.488874 0.502789,-0.390315 l 0.297914,-0.483353 v -0.985824 c -0.708963,-0.07565 -0.5558,-1.13632 -0.556634,-2.021035 -0.458896,-0.09102 -1.156519,0.136255 -1.376457,-0.27338 z"/><path id="path1694-1-6-0-0-2-4-2-9-6-7" fill="#cc0" fill-rule="evenodd" stroke="none" d="m 14.325574,35.519378 v -8.466665 h 8.466665 v 8.466665 h -8.466665" style="fill:#4a0;fill-opacity:1;stroke-width:.264583"/><path id="path20691-6" style="opacity:.4;fill:#000;fill-opacity:1;stroke:none;stroke-width:.141308;stroke-dasharray:none;stroke-dashoffset:14.7;stroke-opacity:1" d="m 17.518156,28.633699 5.17e-4,0.24443 c -0.0823,0.427818 -0.647192,0.490025 -1.28416,0.497644 v 2.050004 c 0.191086,0.112853 0.382096,0.322339 0.527624,0.451171 -0.01293,0.399014 0.03849,0.797807 0.04237,1.191142 v 5.16e-4 l 0.171566,0.182418 c -0.0044,0.07822 -0.06942,0.185977 -0.234094,0.342098 l 0.04909,0.331763 3.309359,-0.0093 -0.001,-0.0098 0.02584,-0.0052 -0.01137,-0.09715 -0.02584,0.0052 -0.0062,-0.04858 0.02635,-0.0052 -0.0067,-0.05839 -0.02635,0.0052 -0.01395,-0.116789 0.02635,-0.0052 -5.17e-4,-0.0052 h -0.02584 c -0.01258,-0.407024 0.184803,-0.376818 0.26355,-0.503845 l 0.0036,-0.0083 h 0.02222 l 0.001,-0.04186 -0.0047,10e-4 0.104903,-0.234094 c 0.08064,-0.190293 0.161207,-0.310422 0.241846,-0.373104 l 0.133325,-0.01499 0.127641,-0.0021 0.297656,-0.483175 c 0.124814,-0.315633 -0.0345,-0.876812 -0.05839,-0.994781 -0.09826,-0.02693 -0.365984,-0.216093 -0.435584,-0.453598 v -5.17e-4 c -0.01881,-0.223045 -5.36e-4,-0.42967 -3e-5,-0.620616 l -0.06253,-0.937415 c -0.458896,-0.09102 -1.156723,0.136267 -1.376661,-0.273368 z"/><path id="path20691-6-6" style="fill:#fff;fill-opacity:1;stroke:#000;stroke-width:.141308;stroke-dasharray:none;stroke-dashoffset:14.7;stroke-opacity:1" d="m 17.280019,28.460549 c 0.104205,0.650478 -0.541038,0.733193 -1.283738,0.742076 v 2.05003 l 0.527323,0.439384 0.04301,1.203125 c 0.184409,0.07509 0.29393,0.186602 -0.06277,0.524774 l 3.319429,-0.0099 c -0.01579,-0.416503 0.184179,-0.384388 0.263503,-0.512347 l 0.126812,-0.283257 c 0.167597,-0.395496 0.335193,-0.488874 0.502789,-0.390315 l 0.297914,-0.483353 v -0.985824 c -0.708963,-0.07565 -0.5558,-1.13632 -0.556634,-2.021035 -0.458896,-0.09102 -1.156519,0.136255 -1.376457,-0.27338 z"/><path id="path1694-1-6-0-0-2-4-2-1-9-4-9" style="fill:#fff;fill-opacity:1;stroke-width:.264583" d="m 14.773725,27.091904 -0.506945,0.418062 v 0.188619 l 0.735355,-0.606681 z m 0.647506,0 -1.154451,0.952397 v 0.12299 l 1.303796,-1.075387 z m 0.284737,0 -1.439188,1.187525 v 0.55087 l 2.107881,-1.738395 z m 0.77463,0 -2.213818,1.826245 v 0.188102 l 2.442228,-2.014347 z m 0.369486,0 -2.583304,2.130619 v 0.116272 l 2.724381,-2.246891 z m 0.474907,0 -3.058211,2.522327 v 0.02946 l 3.093351,-2.551787 z m 5.408455,5.826001 -3.200838,2.640666 h 0.03462 l 3.166215,-2.611727 z m 0,0.304374 -2.832902,2.336292 h 0.141594 l 2.691308,-2.22002 z m 0,0.232027 -2.551265,2.104265 h 0.229443 l 2.321822,-1.915129 z m 0,0.275953 -2.216402,1.828312 h 0.668693 l 1.547709,-1.276925 z m 0,0.663008 -1.412317,1.165304 h 0.149345 l 1.262972,-1.041797 z m 0,0.469222 -0.843876,0.696082 h 0.22841 l 0.615466,-0.507463 z"/><path style="color:#000;fill:#000;fill-opacity:1;stroke-width:.264583;stroke-linecap:round;stroke-linejoin:round;-inkscape-stroke:none" id="path424-0-7-3-0-1-8-4-0-5" d="m 14.259771,26.78836 a 0.26460979,0.26460979 0 0 0 -0.264583,0.264583 v 8.466666 a 0.26460979,0.26460979 0 0 0 0.264583,0.264583 h 8.466665 a 0.26460979,0.26460979 0 0 0 0.264583,-0.264583 V 27.052943 A 0.26460979,0.26460979 0 0 0 22.726436,26.78836 Z m 0.264582,0.529166 h 7.937499 v 7.937499 h -7.937499 z"/><path id="rect17351" style="fill:#fff;stroke:#000;stroke-width:.114976;stroke-dasharray:none;stroke-dashoffset:0" d="m 15.996453,29.202751 h 1.288628 v 2.050089 h -1.288628 z"/><path id="rect17353" style="fill:#fff;stroke:#000;stroke-width:.114976;stroke-dasharray:none;stroke-dashoffset:0" d="m 17.280197,28.460814 h 1.801149 v 2.157474 h -1.796268 z"/><path id="rect17355" style="fill:#fff;stroke:#000;stroke-width:.114976;stroke-dasharray:none;stroke-dashoffset:0" d="m 19.079576,28.734159 h 1.378262 v 0.907896 h -1.378262 z"/><path id="rect17357" style="opacity:.58;fill:#000;fill-opacity:1;stroke:#000;stroke-width:.078704;stroke-dasharray:none;stroke-dashoffset:14.7;stroke-opacity:1" d="m 19.127586,29.671594 v 0.149115 l 0.756096,-0.149115 z m 1.00781,0 -1.00781,0.198821 v 0.09909 l 1.392707,-0.274337 v -0.02358 z m 0.384897,0.143062 -1.392707,0.274336 v 0.0599 l 1.392707,-0.274335 z m 0,0.109288 -1.392707,0.274654 v 0.09941 l 1.392707,-0.274654 z m 0,0.248846 -1.392707,0.274336 v 0.119802 l 1.392707,-0.274654 z m 0,0.22909 -1.392707,0.274336 v 0.139558 l 1.392707,-0.274654 z m 0,0.198503 -1.392707,0.274654 v 0.05002 l 1.392707,-0.274654 z m 0,0.26892 -1.006216,0.198503 h 1.006216 z"/><rect style="fill:#fff;fill-opacity:1;stroke:#000;stroke-width:.0923529;stroke-dasharray:none;stroke-dashoffset:0;stroke-opacity:1" id="rect17359" width="1.376" height=".986" x="19.638" y="30.755"/><path style="fill:#fff;fill-opacity:1;stroke:#000;stroke-width:.0923529;stroke-dasharray:none;stroke-dashoffset:0;stroke-opacity:1" id="path17363" d="m 16.523619,31.692141 0.546689,-0.107386 0.21477,-0.331919 0.223832,0.327372 h 1.149351 l 0.0034,0.517725 -1.321927,-0.0034 -0.769685,0.579854 z"/><path style="fill:#fff;fill-opacity:1;stroke:#000;stroke-width:.0923529;stroke-dasharray:none;stroke-dashoffset:0;stroke-opacity:1" id="path18094" d="m 17.285078,30.618288 v 0.634551 l 1.404247,-0.0074 0.440836,-0.304964 -0.04882,-0.322158 h -1.796269"/><path style="fill:#fff;fill-opacity:1;stroke:#000;stroke-width:.0923529;stroke-dasharray:none;stroke-dashoffset:0;stroke-opacity:1" id="path19684" d="m 19.074933,30.940445 0.582392,-0.02928 -0.01952,0.829795 -0.278225,0.01952 0.0235,0.482416 -0.500465,-0.03451 -0.220898,-0.110448 0.02761,-0.852524 z"/><path style="fill:#fff;fill-opacity:1;stroke:#000;stroke-width:.0923529;stroke-dasharray:none;stroke-dashoffset:0;stroke-opacity:1" id="path18108" d="m 18.378688,32.09103 0.213994,0.469404"/><path style="fill:#fff;fill-opacity:1;stroke:#000;stroke-width:.0923529;stroke-dasharray:none;stroke-dashoffset:0;stroke-opacity:1" id="path18110" d="m 18.592682,32.560434 1.621097,0.05425 0.01952,-0.42954 -1.350694,0.02324 -0.220898,-0.110446 -0.283025,-0.0069 z"/><path style="fill:#fff;fill-opacity:1;stroke:#000;stroke-width:.0923529;stroke-dasharray:none;stroke-dashoffset:0;stroke-opacity:1" id="path18112" d="m 17.964508,32.905583 2.12236,-0.0078 0.0098,-0.341679 -1.503951,0.0043 z"/><path style="fill:#fff;fill-opacity:1;stroke:#000;stroke-width:.0923529;stroke-dasharray:none;stroke-dashoffset:0;stroke-opacity:1" id="path19776" d="m 16.566648,32.89523 0.171741,0.183165 -0.02929,0.322156 -0.205007,0.01952 0.04882,0.331917 3.309426,-0.0098 -0.03905,-0.331922 h -0.244059 l 0.03905,-0.273345 0.165961,-0.224533 z"/><path id="path17361" style="fill:#fff;fill-opacity:1;stroke:#000;stroke-width:.0923529;stroke-dasharray:none;stroke-dashoffset:0;stroke-opacity:1" d="m 18.8411,31.124681 -0.151665,0.120759 0.165686,0.02772 0.0274,0.935163 0.500558,0.03473 1.333443,-0.0188 0.297915,-0.483353 h -1.376778 l -0.257448,0.01784 -0.0042,-0.609846 z m -0.151665,0.120759 -1.404496,0.0073 0.223993,0.327545 h 1.149278 z m -1.404496,0.0073 -1.111043,-0.0073 0.349849,0.446712 0.546442,-0.107377 z m 1.093838,0.838301 -1.039034,0.0035 -0.769797,0.579896 -0.0032,0.220807 1.397805,0.0102 0.628008,-0.345071 z"/><path id="rect21474-6" style="fill:#4a0;fill-opacity:1;stroke:none;stroke-width:.135686;stroke-dasharray:none;stroke-dashoffset:14.7;stroke-opacity:1" d="m 18.807586,31.142917 -0.124263,0.09909 0.655729,-0.07488 z m 0.535288,0.08699 -0.528597,0.06022 0.0073,0.0013 0.0019,0.06117 0.519995,-0.05958 z m -3.072175,0.03473 -0.118847,0.01338 0.04557,0.05831 0.598695,-0.06818 z m 2.214439,0 -1.160429,0.006 -0.06818,0.0077 0.08029,0.117572 z m -1.239449,0.01498 -1.003029,0.114705 0.09081,0.115979 0.823963,-0.09399 z m 1.40609,0.02931 -1.274816,0.145611 0.04015,0.05863 1.228615,-0.140514 z m 0.692052,0.04716 -0.518721,0.05926 0.0019,0.06309 0.517127,-0.05895 z m -0.70416,0.08062 -1.182415,0.135097 0.01817,0.02676 h 0.301419 l 0.857099,-0.09782 z m 0.705116,0.04588 -0.515853,0.05895 0.0038,0.126174 0.512666,-0.05862 z m -2.231645,0.0019 -0.734111,0.08412 0.04557,0.05799 0.644577,-0.0736 z m 1.51474,0.07998 -0.297276,0.03409 h 0.29409 z m -1.796404,0.0787 -0.361321,0.04142 0.02008,0.02581 z m 2.514583,0.029 -0.511711,0.05863 0.0019,0.06309 0.510119,-0.05831 z m 0.898521,0.08699 -1.404497,0.160587 0.0019,0.06341 1.958902,-0.223993 z m 0.707984,0.04588 -2.108975,0.240881 0.0019,0.06277 2.065324,-0.235782 z m -0.08348,0.135734 -2.021671,0.231003 0.0016,0.0548 0.0462,0.0032 1.931819,-0.220807 z m -0.08411,0.13669 -1.544054,0.176199 0.108651,0.0077 1.060382,-0.01498 0.291223,-0.03314 z m -2.439707,0.03186 -0.05704,3.18e-4 -1.152464,0.131592 -0.09846,0.07424 1.332487,-0.152302 z m -0.627372,0.0022 -0.411663,0.0013 -0.07137,0.05384 z m 0.679307,0.111837 -1.45898,0.166641 -0.09941,0.07488 1.585793,-0.181297 z m 0.0548,0.12044 -1.712287,0.195636 -0.197547,0.148796 1.964638,-0.224311 z m 0.09368,0.242154 -2.011157,0.230048 -6.17e-4,0.06309 1.866502,-0.213478 z m -0.290586,0.159631 -1.484152,0.169509 0.520313,0.0038 0.818546,-0.09336 z m -0.290586,0.15995 -0.15262,0.0172 0.119166,10e-4 z"/><path id="rect17359-4" style="opacity:.58;fill:#000;fill-opacity:1;stroke:none;stroke-width:.078704;stroke-dasharray:none;stroke-dashoffset:14.7;stroke-opacity:1" d="m 17.330329,30.609934 -0.01975,0.0038 v 0.219214 l 1.131434,-0.223037 z m 1.362756,0 -1.38251,0.272423 v 0.0497 l 1.634224,-0.322129 z m 0.423771,0.06596 -1.806281,0.356222 v 0.118846 l 1.823806,-0.359408 z m 0.546441,0.07042 v 0.1574 l -0.507887,0.02549 -0.01784,-0.11821 -1.826992,0.360046 v 0.07328 l 0.759919,-0.0038 2.50598,-0.494186 z m -2.352722,0.49801 -0.108013,0.167278 0.195953,-0.03887 z m 3.517931,-0.49801 -2.499289,0.492592 0.385854,-0.0019 -9.24e-4,0.02549 2.325957,-0.458501 v -0.05767 z m 0.211567,0.177155 -2.329781,0.459456 -0.0019,0.0599 2.331693,-0.459456 z m 0,0.109288 -2.333286,0.460094 -0.0032,0.100048 2.336472,-0.460413 z m 0,0.249165 -2.34157,0.461367 -0.0038,0.12044 2.345395,-0.462324 z m -3.611607,0.134778 -0.262865,0.05162 -0.06978,0.108013 -0.54644,0.107376 3.18e-4,0.0054 0.938667,-0.184802 z m 3.611607,0.09399 -1.125381,0.221762 h 0.706709 l 0.418672,-0.08253 z m -3.289159,0.06117 -1.195797,0.235783 0.0029,0.05926 1.49626,-0.295047 z m 0.555044,0 -1.745743,0.344115 0.0048,0.09845 2.11917,-0.417716 -3.18e-4,-0.02485 z m 2.734115,0.137327 -0.117254,0.02325 h 0.117254 z m -2.354953,0.03696 -2.113117,0.416442 0.0054,0.11821 0.716906,-0.141151 0.07106,-0.05353 0.197866,3.18e-4 1.122514,-0.221124 z m 0.70416,0.08985 -0.698105,0.137646 -0.0038,0.11566 0.03505,0.01752 0.673571,-0.132865 z m -0.701929,0.253306 -6.17e-4,-0.114704 -0.575435,0.113429 z m 0.711488,-0.0564 -0.591367,0.116617 0.07169,0.03569 0.522225,-0.102915 z m -2.301423,0.254899 -0.514898,0.101641 0.0066,0.137965 0.257449,-0.05098 z m 3.0247,0.259679 -0.616219,0.0019 -1.376776,0.271149 -0.134141,0.07392 -0.233552,-0.0013 -0.999205,0.19691 -0.02008,0.222718 2.100054,-0.413893 -0.548035,-0.0029 0.573205,-0.0022 1.251876,-0.246615 z m -0.871756,0.0025 -0.632151,0.0019 -0.348256,0.191176 z m -2.510441,0.007 -0.14816,0.02931 0.0025,0.04939 0.05575,-0.01083 z m 3.378055,0.140194 -0.993152,0.195636 0.256811,-9.23e-4 0.734748,-0.144656 z m -0.0042,0.150391 -0.216027,0.04238 0.214753,-6.17e-4 z m -3.521436,0.03919 0.148161,0.158038 0.775531,-0.152939 z m 2.495785,0.01338 -2.350811,0.463279 -0.0025,0.02868 -0.205194,0.01943 0.006,0.04142 2.797841,-0.551539 z m 0.718816,0.0079 -3.256978,0.642028 0.0172,0.115661 3.136538,-0.618131 z m -0.120759,0.162817 -3.116145,0.614308 0.0086,0.05831 0.817909,-0.0025 2.222404,-0.437791 0.02485,-0.174924 z m -0.07456,0.283257 -1.958266,0.386173 0.511392,-0.0016 1.684886,-0.332007 -6.17e-4,-0.0051 h -0.244042 z m 0.251713,0.16919 -1.083323,0.213479 0.308747,-10e-4 0.781267,-0.153896 z m 0.01242,0.107057 -0.531466,0.104828 0.511392,-0.0016 0.03155,-0.006 z"/></g></svg>