<svg xmlns="http://www.w3.org/2000/svg" xmlns:svg="http://www.w3.org/2000/svg" id="svg23279" width="34" height="34" version="1.1" viewBox="0 0 8.996 8.996"><g id="layer1" transform="translate(-75.752988,-105.13055)"><path id="path1694-8-2-2-2" fill="#cc0" fill-rule="evenodd" stroke="none" d="m 76.01728,113.86178 v -8.46667 h 8.466669 v 8.46667 H 76.01728" style="fill:#4a0;fill-opacity:1;stroke-width:.264583"/><path id="path1694-8-2-3-4-5" style="fill:#fff;fill-opacity:1;stroke-width:.264583" d="m 79.771543,105.46849 c -0.07918,5.3e-4 -0.161197,0.0145 -0.247012,0.0481 -1.045858,-0.0273 -1.606738,0.89818 -2.155426,1.59577 -0.793856,-0.10724 -0.977222,0.64138 -1.09864,1.25987 -0.09729,-0.0131 -0.180998,-0.003 -0.253214,0.0238 v 1.37097 c 0.100608,0.0489 0.220882,0.0531 0.358116,-0.0108 0.626677,-0.66096 1.408579,-0.96372 1.957504,-1.649 0.04771,-0.47664 0.0981,-0.78016 0.699699,-0.90899 0.460758,-0.65265 1.184283,-0.83779 1.694987,-1.53582 -0.322533,0.048 -0.612878,-0.19643 -0.956014,-0.19379 z m 2.283066,0.0899 c -0.568928,0.0359 -0.784238,0.67303 -0.367938,1.23661 -0.627192,0.48835 -0.913643,1.20248 -1.365292,1.80144 -0.541671,0.6276 -1.741591,-0.017 -1.938898,0.90692 0.008,0.80545 -0.892705,0.22606 -1.002522,0.81856 0.166795,0.79585 -0.608479,0.73835 -0.928627,1.2113 0.370819,0.61389 -0.09852,0.92391 -0.434081,1.30328 v 1.02526 h 1.754415 c 0.51195,-0.32777 0.914728,-0.81086 1.512052,-1.02165 1.155496,-0.26381 -0.360561,-1.36919 0.620117,-1.60713 0.726657,-0.0328 0.305033,-0.61014 0.736907,-0.93018 0.689832,-0.16401 0.599397,-0.75806 0.625284,-1.24695 0.656016,-0.24354 0.752732,-0.76588 1.027327,-1.30949 0.687538,-0.37929 0.130903,-1.13796 0.680061,-1.47846 0.772501,-0.36829 0.09881,-0.84491 -0.471805,-0.62993 -0.165544,-0.064 -0.315709,-0.0879 -0.447,-0.0796 z m 2.40347,0.61805 c -0.710674,0.48269 -1.213414,1.26886 -1.288294,2.11408 -0.37262,0.53556 0.36952,1.25524 -0.494543,1.45676 0.06421,0.55778 -0.608158,0.84055 -0.422196,1.44694 -0.415067,0.49878 -0.540057,1.318 -1.301213,1.60507 -0.488934,0.45531 -0.760235,0.80354 -0.881599,1.06247 h 1.661914 c 0.08502,-0.0971 0.153842,-0.20311 0.197403,-0.31678 0.273695,-0.58419 0.626941,0.12454 0.926042,-0.44907 0.804322,-0.408 0.929311,-1.31309 1.469678,-1.9482 0.0523,-0.0833 0.105682,-0.16916 0.158647,-0.2558 v -4.66742 c -0.0089,-0.0159 -0.01675,-0.0322 -0.02585,-0.048 z"/><path id="path1694-8-2-9-2-0" style="fill:#000;fill-opacity:1;stroke-width:.264583" d="m 79.579442,105.38689 c -0.0069,0.0538 -0.01087,0.10786 -0.01085,0.16227 1.25e-4,0.16063 0.05272,0.31227 0.112655,0.45681 -0.06689,0.15046 -0.12677,0.30853 -0.127122,0.47801 a 0.23813947,0.23813947 0 0 0 0,5.3e-4 c 1.3e-4,0.13655 0.07388,0.2511 0.117306,0.37776 -0.01384,0.006 -0.03155,0.007 -0.04496,0.0134 -0.04285,0.0214 -0.08494,0.047 -0.126606,0.091 -0.04166,0.044 -0.08547,0.11787 -0.0863,0.20567 a 0.23813947,0.23813947 0 0 0 0,0.005 c 0.0013,0.10907 0.06442,0.19008 0.116787,0.23409 0.05237,0.044 0.104622,0.0681 0.160198,0.0894 0.03517,0.0135 0.08361,0.0161 0.122472,0.0264 -0.466986,0.10796 -0.909904,0.32737 -1.230931,0.68368 -0.38291,0.425 -0.601932,0.99374 -0.603065,1.5658 a 0.23813947,0.23813947 0 0 0 0,5.3e-4 c 0,0.61431 0.25291,1.22494 0.687298,1.65933 0.434385,0.43438 1.045014,0.68729 1.659329,0.68729 0.614315,0 1.224944,-0.25291 1.659331,-0.68729 0.434388,-0.43439 0.687298,-1.04502 0.687298,-1.65933 -2.41e-4,-0.56649 -0.214111,-1.1303 -0.589627,-1.55443 -0.310009,-0.35014 -0.737915,-0.56909 -1.190627,-0.68523 0.04535,-0.0103 0.101631,-0.0119 0.14211,-0.0259 0.06182,-0.0213 0.118298,-0.0456 0.175183,-0.0894 0.05688,-0.0438 0.129159,-0.12603 0.130742,-0.24443 a 0.23813947,0.23813947 0 0 0 0,-5.3e-4 0.23813947,0.23813947 0 0 0 0,-5.3e-4 0.23813947,0.23813947 0 0 0 0,-5.3e-4 0.23813947,0.23813947 0 0 0 0,-5.3e-4 c 2.64e-4,-0.10125 -0.05486,-0.18212 -0.103355,-0.22685 -0.0485,-0.0447 -0.09671,-0.0695 -0.147277,-0.091 -0.027,-0.0115 -0.06393,-0.0136 -0.09302,-0.0227 0.03693,-0.11825 0.104336,-0.22438 0.104386,-0.35037 -1.35e-4,-0.16013 -0.05255,-0.31159 -0.112139,-0.45578 0.06686,-0.15086 0.126564,-0.30974 0.126609,-0.47956 2.1e-5,-0.0543 -0.0035,-0.10859 -0.01035,-0.16226 H 80.82794 c 0.0028,0.0196 0.0051,0.0393 0.0072,0.0517 2.64e-4,0.0228 0.0026,0.0715 0.0047,0.10335 -0.0016,0.0285 -0.003,0.0657 -0.0036,0.10026 -0.0033,0.0288 -0.0054,0.0543 -0.0078,0.0822 -0.0051,0.0274 -0.0094,0.0519 -0.01344,0.0785 -0.0026,0.01 -0.0048,0.0161 -0.0078,0.0279 a 0.23813947,0.23813947 0 0 0 -0.0987,-0.20723 c -0.11045,-0.0788 -0.245009,-0.12605 -0.381373,-0.12609 a 0.23813947,0.23813947 0 0 0 -0.0026,0 c -0.08956,7.9e-4 -0.178374,0.0217 -0.259416,0.0589 a 0.23813947,0.23813947 0 0 0 -0.132807,0.2527 c -0.0039,-0.0201 -0.006,-0.032 -0.0098,-0.0501 -0.0032,-0.0251 -0.0061,-0.0444 -0.0098,-0.0687 -0.0019,-0.0237 -0.003,-0.0398 -0.0052,-0.063 -5.29e-4,-0.0292 -0.0013,-0.0541 -0.0026,-0.0801 0.0021,-0.0311 0.0048,-0.0845 0.0052,-0.10852 0.0021,-0.0124 0.0044,-0.032 0.0072,-0.0517 z m 0.809771,0.37517 c 0.0055,0.002 0.0091,0.003 0.03152,0.007 0.02191,0.004 0.02649,0.004 0.03359,0.005 0.0035,0.002 0.0067,0.004 0.02585,0.0114 0.09954,0.0367 -0.01273,-0.0124 0.05374,0.0248 0.03323,0.0186 -5.29e-4,-0.002 0.02429,0.0145 0.0249,0.0164 0.0057,0.003 0.02273,0.016 l -0.02016,0.39326 c -0.01468,0.009 -0.01918,0.0122 -0.01913,0.0129 0.0019,-0.001 0.0085,-0.005 -0.02273,0.009 -0.01445,0.007 -0.01516,0.008 -0.0186,0.01 -0.0064,0.002 -0.0094,0.002 -0.02739,0.007 -0.01691,0.005 -0.01707,0.006 -0.02222,0.008 -0.0072,5.3e-4 -0.0081,2.7e-4 -0.02687,0.003 -0.01932,0.003 -0.0195,0.004 -0.02585,0.005 -0.0074,-5.3e-4 -0.0071,-0.001 -0.02532,-0.001 h -0.0016 c -0.0217,-1.4e-4 -0.02432,0.001 -0.03152,0.002 -0.0057,-0.002 -0.0084,-0.004 -0.02997,-0.008 -0.02114,-0.004 -0.02537,-0.004 -0.03256,-0.005 -0.0034,-0.002 -0.0066,-0.004 -0.02585,-0.0114 -0.09953,-0.0367 0.01437,0.0131 -0.05271,-0.0243 -0.03354,-0.0187 0.0016,0.002 -0.02376,-0.0145 -0.02535,-0.0166 -0.0046,-0.002 -0.02222,-0.0155 l 0.0181,-0.39274 c 0.01431,-0.009 0.01873,-0.0123 0.0186,-0.0129 -0.0016,10e-4 -0.0083,0.005 0.0217,-0.009 0.01341,-0.006 0.01349,-0.007 0.01707,-0.009 0.0062,-0.002 0.0093,-0.002 0.02739,-0.008 0.01738,-0.005 0.01799,-0.006 0.02273,-0.008 0.0072,-7.9e-4 0.0075,-7.9e-4 0.02479,-0.004 0.01815,-0.003 0.01791,-0.004 0.02429,-0.005 0.0073,2.7e-4 0.0073,0.001 0.02585,5.3e-4 h 0.0047 c 0.02167,-3e-5 0.02426,-7.9e-4 0.03152,-0.002 z m -0.461986,0.4439 a 0.23813947,0.23813947 0 0 0 0.119888,0.25477 c 0.08962,0.047 0.190785,0.0739 0.292489,0.0749 -0.06624,-10e-4 -0.137843,-0.0115 -0.201539,-0.0315 -0.0105,-0.003 -0.01101,-0.001 -0.0072,0.0481 0.01624,0.21143 0.08626,0.37512 0.1788,0.41703 0.07666,0.0347 0.147458,-0.008 0.205155,-0.12505 0.04298,-0.0869 0.06977,-0.20466 0.06977,-0.308 0,-0.0372 -7.94e-4,-0.0452 -0.0072,-0.0439 -0.0011,1.9e-4 -0.0019,5.3e-4 -0.0031,10e-4 -0.02818,0.0121 -0.104545,0.0319 -0.147796,0.0382 -0.02606,0.004 -0.055,0.005 -0.08475,0.004 0.119049,-5e-5 0.236919,-0.036 0.337963,-0.0977 a 0.23813947,0.23813947 0 0 0 0.112657,-0.21808 c 0.0031,0.0125 0.0055,0.0192 0.0083,0.0295 0.0041,0.0266 0.0084,0.0511 0.01344,0.0785 0.0024,0.0278 0.0045,0.0533 0.0078,0.0822 5.29e-4,0.0346 0.0021,0.0717 0.0036,0.10025 -0.0019,0.0314 -0.0042,0.0785 -0.0047,0.10181 -0.0057,0.0333 -0.01823,0.12382 -0.01707,0.1266 5.3e-4,-0.005 -0.0031,0.0105 -0.01188,0.0455 -0.01844,-0.003 -0.03155,-0.01 -0.05064,-0.0124 l 0.03359,0.0765 c 0.0011,-0.01 -0.05244,0.12684 -0.03721,0.0946 0.0168,-0.0356 -0.06615,0.11178 -0.05581,0.0971 0.01035,-0.0146 -0.07027,0.0805 -0.07752,0.0868 -0.0072,0.006 -0.07251,0.0536 -0.108522,0.0687 -0.03601,0.0152 -0.08388,0.0279 -0.137459,0.0279 -0.05358,5e-5 -0.101452,-0.0127 -0.137459,-0.0279 -0.03601,-0.0152 -0.101274,-0.0624 -0.108519,-0.0687 -0.0072,-0.006 -0.08785,-0.10145 -0.07752,-0.0868 0.01035,0.0146 -0.07261,-0.13274 -0.05581,-0.0971 0.0168,0.0356 -0.05741,-0.15695 -0.04082,-0.10439 0.01267,0.0402 -0.01751,-0.0826 -0.02687,-0.1142 -0.003,-0.0268 -0.01098,-0.0841 -0.0155,-0.11059 -2.64e-4,-0.0235 -0.0026,-0.075 -0.0047,-0.10645 0.0016,-0.0282 0.003,-0.0609 0.0036,-0.0935 0.003,-0.0271 0.005,-0.049 0.0072,-0.0754 0.0048,-0.0271 0.0086,-0.0508 0.01241,-0.077 0.0049,-0.0196 0.0081,-0.0337 0.01291,-0.0553 z"/><path id="path1694-8-2-8-8-1" style="fill:#fff;fill-opacity:1;stroke-width:.264583" d="m 79.821811,105.3949 a 0.53499519,0.7483748 0 0 0 -0.01497,0.16226 0.53499519,0.7483748 0 0 0 0.111104,0.45579 0.53499519,0.7483748 0 0 0 -0.125574,0.47955 0.53499519,0.7483748 0 0 0 0.163814,0.53795 0.72496854,0.18708866 0 0 0 -0.304374,0.15193 0.72496854,0.18708866 0 0 0 0.45062,0.1726 v 0.33745 a 2.1083984,2.1083984 0 0 0 -1.885156,2.09238 2.1083984,2.1083984 0 0 0 2.108398,2.1084 2.1083984,2.1083984 0 0 0 2.108398,-2.1084 2.1083984,2.1083984 0 0 0 -1.852083,-2.09186 v -0.33177 a 0.72496854,0.18708866 0 0 0 0.519864,-0.1788 0.72496854,0.18708866 0 0 0 -0.392224,-0.1664 0.53499519,0.7483748 0 0 0 0.152964,-0.52348 0.53499519,0.7483748 0 0 0 -0.110588,-0.45475 0.53499519,0.7483748 0 0 0 0.125055,-0.48059 0.53499519,0.7483748 0 0 0 -0.01291,-0.16226 h -0.273884 a 0.23193433,0.49170079 0 0 1 0.01447,0.17156 0.23193433,0.49170079 0 0 1 -0.03462,0.2589 0.53499519,0.7483748 0 0 0 -0.24288,-0.0817 0.53499519,0.7483748 0 0 0 -0.162782,0.0372 0.23193433,0.49170079 0 0 1 -0.02376,-0.21446 0.23193433,0.49170079 0 0 1 0.01603,-0.17156 z m 0.536403,0.61495 a 0.23193433,0.49170079 0 0 1 0.07855,0.0289 0.23193433,0.49170079 0 0 1 -0.06408,0.0191 0.23193433,0.49170079 0 0 1 -0.077,-0.0284 0.23193433,0.49170079 0 0 1 0.06253,-0.0196 z m 0.197403,0.23306 a 0.23193433,0.49170079 0 0 1 0.03462,0.2589 0.23193433,0.49170079 0 0 1 -0.232027,0.49144 0.23193433,0.49170079 0 0 1 -0.232029,-0.49144 0.23193433,0.49170079 0 0 1 0.03152,-0.24392 0.53499519,0.7483748 0 0 0 0.18397,0.0475 0.53499519,0.7483748 0 0 0 0.213939,-0.0625 z"/><path id="path1696-1-4-7-2" style="color:#000;fill:#000;fill-opacity:1;stroke-width:.264583;stroke-linecap:round;stroke-linejoin:round;-inkscape-stroke:none" d="m 76.017571,105.13055 a 0.26460979,0.26460979 0 0 0 -0.264583,0.26458 v 8.46667 a 0.26460979,0.26460979 0 0 0 0.264583,0.26458 h 8.466667 a 0.26460979,0.26460979 0 0 0 0.264583,-0.26458 v -8.46667 a 0.26460979,0.26460979 0 0 0 -0.264583,-0.26458 z m 0.264584,0.52917 h 2.962092 c -0.62792,0.1751 -1.212157,0.50883 -1.673283,0.96996 -0.701702,0.7017 -1.110009,1.6881 -1.110009,2.68046 v 10e-4 c 0,0.0511 0.0019,0.10194 0.0041,0.15296 0.03842,-0.94167 0.43915,-1.86542 1.105874,-2.53215 0.701699,-0.7017 1.688105,-1.11001 2.680457,-1.11001 0.992362,0 1.978747,0.40831 2.680456,1.11001 0.667872,0.66788 1.068652,1.59345 1.105877,2.5368 0.0027,-0.0529 0.0041,-0.10564 0.0041,-0.15865 0,-0.99235 -0.408313,-1.97875 -1.110012,-2.68045 -0.46119,-0.46119 -1.045794,-0.79488 -1.673799,-0.96997 h 2.961577 v 7.9375 H 81.35206 c 0.611145,-0.17828 1.179036,-0.50673 1.629357,-0.95705 0.701699,-0.7017 1.110527,-1.6881 1.110527,-2.68045 -2.1e-5,-0.053 -0.0019,-0.10571 -0.0047,-0.15865 -0.03723,0.94335 -0.438005,1.86892 -1.105877,2.53679 -0.701709,0.70171 -1.688091,1.11002 -2.680456,1.11002 -0.992354,0 -1.978755,-0.40831 -2.680457,-1.11002 -0.668068,-0.66807 -1.068842,-1.59418 -1.105874,-2.53782 -0.0026,0.0529 -0.0041,0.10563 -0.0041,0.15864 v 10e-4 c 0,0.99236 0.408308,1.97875 1.110009,2.68046 0.45035,0.45035 1.018162,0.77877 1.62936,0.95704 H 76.28207 Z m 0.182935,3.80441 c -7.7e-5,0.002 -5.29e-4,0.004 -5.29e-4,0.006 h 5.29e-4 c -9.2e-5,-0.002 9e-5,-0.004 0,-0.006 z m 3.827156,-3.14657 c -0.770427,0 -1.53624,0.31719 -2.081009,0.86196 -0.544777,0.54477 -0.861965,1.31058 -0.861965,2.08101 v 5.3e-4 c 0,0.0393 0.0019,0.0781 0.0036,0.1173 0.03014,-0.73063 0.341029,-1.4469 0.858348,-1.96422 0.544769,-0.54477 1.310582,-0.86196 2.081009,-0.86196 0.770435,0 1.536234,0.31719 2.081008,0.86196 0.51851,0.51851 0.829969,1.23701 0.858864,1.96939 0.0021,-0.0411 0.0031,-0.0818 0.0031,-0.12299 0,-0.77042 -0.317193,-1.53623 -0.861965,-2.08101 -0.544774,-0.54477 -1.310574,-0.86196 -2.081009,-0.86196 z m -2.939357,3.06079 c -7.7e-5,0.002 -5.29e-4,0.004 -5.29e-4,0.006 h 5.29e-4 c -9e-5,-0.002 8.7e-5,-0.004 0,-0.006 z m 0.04909,0.50746 c 7.5e-5,0.002 5.3e-4,0.004 5.3e-4,0.006 8.7e-5,-0.002 -9e-5,-0.004 0,-0.006 z m 5.3e-4,0.006 c -0.0019,0.0392 -0.0036,0.0781 -0.0036,0.11731 v 0.001 c 0,0.77042 0.317188,1.53623 0.861965,2.08101 0.544771,0.54477 1.310579,0.86196 2.081008,0.86196 0.770433,0 1.536232,-0.31719 2.081009,-0.86196 0.544772,-0.54478 0.861965,-1.31059 0.861965,-2.08101 -1.8e-5,-0.0412 -0.0011,-0.0824 -0.0031,-0.12351 -0.0289,0.73238 -0.340354,1.45139 -0.858864,1.96991 -0.544777,0.54477 -1.310576,0.86196 -2.081008,0.86196 -0.77043,0 -1.536237,-0.31719 -2.081009,-0.86196 -0.517324,-0.51733 -0.828215,-1.23411 -0.858348,-1.96474 z"/><path id="path8120-8-3" style="fill:#1d310f;fill-opacity:1;stroke:none;stroke-width:.281787;stroke-dashoffset:14.7;stroke-opacity:1" d="m 80.325835,107.8309 a 1.9538017,1.9538017 0 0 0 -0.120404,0.009 l 0.0052,0.4408 a 1.5535042,1.5535042 0 0 1 0.115237,-0.009 1.5535042,1.5535042 0 0 1 0.180869,0.0109 l -0.0052,-0.44287 a 1.9538017,1.9538017 0 0 0 -0.175701,-0.008 z m -0.833541,0.18861 a 1.9538017,1.9538017 0 0 0 -0.257347,0.14728 l 0.223758,0.37311 a 1.5535042,1.5535042 0 0 1 0.260967,-0.14005 z m 1.705324,0.0171 -0.215492,0.38086 a 1.5535042,1.5535042 0 0 1 0.255283,0.14986 l 0.214455,-0.37879 a 1.9538017,1.9538017 0 0 0 -0.254246,-0.15193 z m -0.228412,0.5364 -0.63872,0.99374 a 0.21850455,0.21850455 0 0 0 -0.0047,-5.3e-4 0.21850455,0.21850455 0 0 0 -0.21859,0.21859 0.21850455,0.21850455 0 0 0 0.21859,0.21859 0.21850455,0.21850455 0 0 0 0.218075,-0.21859 0.21850455,0.21850455 0 0 0 -0.01344,-0.0739 l 0.645957,-1.00459 z m -2.260843,0.12041 a 1.9538017,1.9538017 0 0 0 -0.147278,0.25683 l 0.366387,0.20257 a 1.5535042,1.5535042 0 0 1 0.152961,-0.25425 z m 3.239595,0.002 -0.366903,0.21446 a 1.5535042,1.5535042 0 0 1 0.151413,0.25528 l 0.361736,-0.21136 a 1.9538017,1.9538017 0 0 0 -0.146246,-0.25838 z m -0.08062,0.94103 a 1.5535042,1.5535042 0 0 1 0.01188,0.18862 1.5535042,1.5535042 0 0 1 -0.0083,0.108 h 0.397907 a 1.9538017,1.9538017 0 0 0 0.01085,-0.14831 1.9538017,1.9538017 0 0 0 -0.0062,-0.14831 z m -3.082499,0.031 -0.405143,0.008 a 1.9538017,1.9538017 0 0 0 -0.0078,0.10955 1.9538017,1.9538017 0 0 0 0.01344,0.18655 l 0.39791,-0.008 a 1.5535042,1.5535042 0 0 1 -0.01085,-0.13849 1.5535042,1.5535042 0 0 1 0.01241,-0.15762 z m 2.976563,0.73846 a 1.5535042,1.5535042 0 0 1 -0.136425,0.26355 l 0.331245,0.18965 a 1.9538017,1.9538017 0 0 0 0.144696,-0.25889 z m -2.838069,0.0801 -0.327629,0.19689 a 1.9538017,1.9538017 0 0 0 0.156581,0.25218 l 0.320392,-0.19275 a 1.5535042,1.5535042 0 0 1 -0.149344,-0.25632 z m 2.362647,0.55604 a 1.5535042,1.5535042 0 0 1 -0.248047,0.16278 l 0.182935,0.31161 a 1.9538017,1.9538017 0 0 0 0.251664,-0.15555 z m -1.820561,0.0724 -0.179835,0.32297 a 1.9538017,1.9538017 0 0 0 0.262001,0.13695 l 0.179316,-0.32091 a 1.5535042,1.5535042 0 0 1 -0.261482,-0.13901 z m 1.07642,0.24701 a 1.5535042,1.5535042 0 0 1 -0.216008,0.017 1.5535042,1.5535042 0 0 1 -0.0801,-0.006 l 0.0036,0.3607 a 1.9538017,1.9538017 0 0 0 0.07648,0.006 1.9538017,1.9538017 0 0 0 0.219625,-0.016 z"/><g id="path7954-4-2" transform="matrix(0.26458333,0,0,0.26458333,55.529237,115.05167)"><path style="color:#000;fill:#733c2f;stroke-width:1.12;stroke-dashoffset:14.7;-inkscape-stroke:none" id="path7986-5-0" d="m 93.817148,-27.689421 0.09546,7.783171"/></g></g></svg>