<?xml version="1.0" encoding="UTF-8" standalone="no"?>
<!-- Created with Inkscape (http://www.inkscape.org/) -->

<svg
   width="8.9958305mm"
   height="8.9958324mm"
   viewBox="0 0 8.9958305 8.9958324"
   version="1.1"
   id="svg25719"
   inkscape:version="1.2.2 (732a01da63, 2022-12-09)"
   sodipodi:docname="regeneration_potion.svg"
   xmlns:inkscape="http://www.inkscape.org/namespaces/inkscape"
   xmlns:sodipodi="http://sodipodi.sourceforge.net/DTD/sodipodi-0.dtd"
   xmlns="http://www.w3.org/2000/svg"
   xmlns:svg="http://www.w3.org/2000/svg">
  <sodipodi:namedview
     id="namedview25721"
     pagecolor="#ffffff"
     bordercolor="#000000"
     borderopacity="0.25"
     inkscape:showpageshadow="2"
     inkscape:pageopacity="0.0"
     inkscape:pagecheckerboard="0"
     inkscape:deskcolor="#d1d1d1"
     inkscape:document-units="mm"
     showgrid="false"
     inkscape:zoom="5.9081369"
     inkscape:cx="14.556196"
     inkscape:cy="17.518213"
     inkscape:window-width="958"
     inkscape:window-height="1000"
     inkscape:window-x="946"
     inkscape:window-y="0"
     inkscape:window-maximized="0"
     inkscape:current-layer="layer1" />
  <defs
     id="defs25716" />
  <g
     inkscape:label="Calque 1"
     inkscape:groupmode="layer"
     id="layer1"
     transform="translate(-13.995188,-26.78836)">
    <path
       fill="#cccc00"
       fill-rule="evenodd"
       stroke="none"
       d="m 14.239646,35.56095 v -8.466667 h 8.466668 v 8.466667 h -8.466668"
       id="path1694-1-5-6-4"
       style="fill:#44aa00;fill-opacity:1;stroke-width:0.264583"
       inkscape:export-filename="victoire.png"
       inkscape:export-xdpi="90.352943"
       inkscape:export-ydpi="90.352943" />
    <path
       id="path1694-1-5-6-4-9"
       style="fill:#ffffff;fill-opacity:1;stroke-width:0.264583"
       d="m 16.320656,27.094283 c -0.896215,0.447494 -1.623946,1.160219 -2.08101,2.034501 v 4.314983 c 0.269125,0.513916 0.645492,1.009283 0.821656,1.04438 0.181908,0.03624 0.348008,-0.04768 0.411861,-0.208256 0.0683,-0.171746 0.03776,-0.254613 -0.219625,-0.603581 -0.569849,-0.772609 -0.820296,-1.558491 -0.792717,-2.486153 0.01852,-0.622918 0.109506,-1.019198 0.356051,-1.552876 0.464762,-1.006031 1.308043,-1.759878 2.334225,-2.086695 0.337227,-0.107399 1.026571,-0.212618 1.286743,-0.19637 l 0.172599,0.01033 0.02894,0.380339 c 0.0254,0.333432 0.04124,0.389613 0.131775,0.45992 0.05673,0.04405 0.136765,0.07937 0.177767,0.07855 0.0767,-0.0015 1.057698,-0.639826 1.509985,-0.982369 0.129103,-0.09778 0.192609,-0.150735 0.225826,-0.206705 z m 5.292185,0.971001 c -0.129574,-0.0032 -0.273111,0.06869 -0.341067,0.185518 -0.101238,0.174045 -0.08192,0.235271 0.193271,0.620117 0.298836,0.417917 0.590169,1.020164 0.694531,1.436088 0.115268,0.459379 0.133125,1.384901 0.03462,1.784904 -0.353777,1.436633 -1.340713,2.51718 -2.681489,2.935221 -0.219384,0.0684 -0.492436,0.110609 -0.864031,0.133843 l -0.543119,0.03411 -0.02274,-0.366386 c -0.02519,-0.408958 -0.101235,-0.545982 -0.301274,-0.541569 -0.135073,0.003 -1.748801,1.104642 -1.793172,1.224215 -0.0063,0.01698 -0.01014,0.03335 -0.01395,0.04961 h 4.241085 c 1.150096,-0.508557 2.057715,-1.456292 2.490804,-2.600358 V 29.60938 c -0.0059,-0.01528 -0.01042,-0.02815 -0.01654,-0.04393 -0.213265,-0.550006 -0.739992,-1.360739 -0.955498,-1.470711 -0.03691,-0.01884 -0.07825,-0.02839 -0.121438,-0.02946 z" />
    <path
       style="color:#000000;fill:#000000;fill-opacity:1;stroke-width:0.264583;stroke-linecap:round;stroke-linejoin:round;-inkscape-stroke:none"
       d="m 14.259771,26.78836 a 0.26460979,0.26460979 0 0 0 -0.264583,0.264584 v 8.466666 a 0.26460979,0.26460979 0 0 0 0.264583,0.264584 h 8.466667 A 0.26460979,0.26460979 0 0 0 22.991021,35.51961 V 27.052944 A 0.26460979,0.26460979 0 0 0 22.726438,26.78836 Z m 0.264584,0.529167 h 7.937499 v 7.9375 h -7.937499 z"
       id="path424-1-2-2" />
    <path
       style="fill:#000000;fill-opacity:1;stroke-width:0.0266962"
       d="m 18.045329,34.19272 c -0.02937,-0.0072 -0.131479,-0.03124 -0.226918,-0.0534 -1.056757,-0.245398 -1.889992,-1.064729 -2.165836,-2.129692 -0.03345,-0.129133 -0.06295,-0.351346 -0.07305,-0.550299 l -0.01695,-0.333704 -0.230925,-0.01335 c -0.176636,-0.0102 -0.244105,-0.0253 -0.286986,-0.06421 -0.107074,-0.09714 -0.09277,-0.129591 0.363546,-0.824924 l 0.276904,-0.421942 0.112202,0.0081 c 0.103036,0.0075 0.121719,0.02124 0.228661,0.168329 0.207054,0.284786 0.591102,0.901317 0.591102,0.948923 0,0.02545 -0.02293,0.07463 -0.05094,0.109296 -0.04472,0.05532 -0.07979,0.06466 -0.286986,0.07637 l -0.236039,0.01335 -0.0088,0.106785 c -0.01324,0.161233 0.04368,0.590346 0.106229,0.800889 0.190337,0.640682 0.647868,1.173068 1.266447,1.473641 0.328144,0.159447 0.573098,0.220647 0.959378,0.239692 0.575256,0.02836 1.065991,-0.117647 1.552286,-0.461854 0.219646,-0.155469 0.271432,-0.173138 0.377168,-0.128679 0.09886,0.04157 0.148872,0.145419 0.124178,0.257848 -0.02945,0.134077 -0.495421,0.450257 -0.879705,0.596913 -0.385231,0.147017 -0.534694,0.174651 -1.001111,0.185102 -0.242269,0.0054 -0.464515,0.004 -0.493881,-0.0032 z m 3.02072,-1.341663 c -0.07365,-0.02898 -0.737802,-1.043459 -0.738013,-1.127305 -3.18e-4,-0.124171 0.0857,-0.169877 0.339752,-0.180544 l 0.227574,-0.0096 -0.01448,-0.337498 c -0.0099,-0.230846 -0.03286,-0.400767 -0.07264,-0.537719 -0.243124,-0.836986 -0.901393,-1.462461 -1.788496,-1.699393 -0.246997,-0.06597 -0.821466,-0.06599 -1.107896,-3.9e-5 -0.259336,0.05971 -0.636822,0.233226 -0.899752,0.413578 -0.242125,0.166081 -0.280222,0.177127 -0.386985,0.1122 -0.09555,-0.05811 -0.139787,-0.198106 -0.09125,-0.288795 0.07085,-0.132382 0.580299,-0.449374 0.92415,-0.575029 0.388037,-0.141802 0.530479,-0.164965 1.014458,-0.164965 0.483981,0 0.626421,0.02316 1.01446,0.164965 0.762966,0.278814 1.386975,0.897946 1.690287,1.677079 0.127052,0.326363 0.169875,0.529762 0.188292,0.894325 l 0.01685,0.333703 0.236038,0.01335 c 0.207195,0.01172 0.242266,0.02105 0.286985,0.07637 0.02802,0.03466 0.05095,0.08429 0.05095,0.110291 0,0.026 -0.115721,0.22589 -0.257159,0.444206 -0.141439,0.218316 -0.293188,0.4549 -0.337222,0.525743 -0.09574,0.15402 -0.182692,0.199577 -0.295904,0.15503 z"
       id="path7837"
       sodipodi:nodetypes="csssccsscsssssccssssssscccscscccsssssssssscsssssss" />
    <path
       d="m 18.095515,32.514346 c -0.01529,-0.02857 -0.02764,-0.219349 -0.02764,-0.42714 v -0.375502 l -0.380423,-4.23e-4 c -0.209231,-2.11e-4 -0.398442,-0.01178 -0.420467,-0.02567 -0.05088,-0.0321 -0.07474,-0.685038 -0.02821,-0.771986 0.02734,-0.05109 0.05709,-0.05533 0.435894,-0.0622 l 0.40655,-0.0074 0.01335,-0.413792 0.01335,-0.413792 0.38689,-0.0075 c 0.340444,-0.0066 0.39092,-0.0019 0.420466,0.03847 0.02327,0.03182 0.03358,0.163201 0.03358,0.427913 v 0.381994 l 0.380423,4.23e-4 c 0.209232,2.11e-4 0.395772,0.01015 0.414532,0.02206 0.02576,0.01635 0.03229,0.11922 0.0267,0.420058 l -0.0074,0.398411 -0.413793,0.01335 -0.413791,0.01335 -0.0074,0.38528 c -0.0044,0.228488 -0.01932,0.399599 -0.03664,0.420466 -0.02159,0.02602 -0.125505,0.03519 -0.398742,0.03519 -0.338032,0 -0.371897,-0.0044 -0.397176,-0.05164 z"
       style="fill:#ffffff;fill-opacity:1;stroke-width:0.0266962"
       id="path7897" />
  </g>
</svg>
