<?xml version="1.0" encoding="UTF-8" standalone="no"?>
<svg
   height="34"
   width="34"
   version="1.1"
   id="svg4484"
   sodipodi:docname="saboteur.svg"
   inkscape:version="1.2.2 (732a01da63, 2022-12-09)"
   xmlns:inkscape="http://www.inkscape.org/namespaces/inkscape"
   xmlns:sodipodi="http://sodipodi.sourceforge.net/DTD/sodipodi-0.dtd"
   xmlns="http://www.w3.org/2000/svg"
   xmlns:svg="http://www.w3.org/2000/svg">
  <sodipodi:namedview
     id="namedview4486"
     pagecolor="#ffffff"
     bordercolor="#000000"
     borderopacity="0.25"
     inkscape:showpageshadow="2"
     inkscape:pageopacity="0.0"
     inkscape:pagecheckerboard="0"
     inkscape:deskcolor="#d1d1d1"
     showgrid="false"
     inkscape:zoom="6.0955882"
     inkscape:cx="-0.24607961"
     inkscape:cy="11.647768"
     inkscape:window-width="1920"
     inkscape:window-height="1009"
     inkscape:window-x="-8"
     inkscape:window-y="-8"
     inkscape:window-maximized="1"
     inkscape:current-layer="svg4484" />
  <defs
     id="defs4482" />
  <path
     id="path2636-5-0-0"
     style="fill:#ffffff;fill-opacity:1;stroke-width:0.174005;stroke-dashoffset:14.7"
     d="m 17.28943,4.03251 c -0.45912,0 -0.85984,0.151663 -1.125,0.466797 -0.0795,0.09443 -0.15852,0.211119 -0.19727,0.347656 -0.0387,0.136538 -0.041,0.26294 -0.041,0.425781 0,0.222818 0.0207,0.440533 0.24609,1.179688 0.15751,0.516579 0.48253,1.51576 0.91797,2.839844 C 16.88912,8.571995 16.70159,7.853187 16.79529,7.087197 16.39312,5.412559 18.03916,4.945775 19.05506,5.671182 18.81353,5.04912 18.63742,4.794915 18.42615,4.565713 18.09042,4.201487 17.73156,4.03251 17.28944,4.03251 Z m 10.1543,1.449219 c -0.19881,0 -0.38502,0.0067 -0.57618,0.07031 -0.19115,0.0636 -0.36713,0.191362 -0.51171,0.363281 -0.28917,0.343836 -0.52021,0.860117 -0.93946,1.804687 -0.25638,0.577635 -0.88548,2.033525 -1.47461,3.40625 -0.30513,0.711008 -0.41864,0.984822 -0.63672,1.498047 C 26.83024,6.055562 26.50576,7.038954 28.6156,6.38407 28.6126,6.33085 28.6086,6.278571 28.598,6.22782 28.5485,5.989166 28.38624,5.815349 28.26597,5.714149 28.17457,5.637239 28.05043,5.554922 27.90855,5.518836 27.76667,5.482746 27.63434,5.481726 27.44371,5.481726 Z m -8.22657,9.697266 c -0.23488,-0.03645 -0.43638,0.168029 -0.39648,0.402344 l 0.041,0.244141 c 0.0455,0.273958 0.13758,0.547768 0.25976,0.792968 2.42653,-0.03662 3.32265,0.01403 4.88282,-0.30664 -0.13994,-0.16021 -0.26992,-0.299241 -0.375,-0.400391 -6.7e-4,-2e-6 -10e-4,-2e-6 -0.002,0 l -0.20313,-0.195312 c -0.0553,-0.05346 -0.1267,-0.08712 -0.20312,-0.0957 l -1.81641,-0.19336 c -0.49922,-0.053 -0.97616,-0.104653 -1.33985,-0.144531 -0.36261,-0.03976 -0.63735,-0.07175 -0.65429,-0.07422 h -0.002 z m -2.85547,0.169922 c -0.0919,-4.06e-4 -0.17945,0.0085 -0.26562,0.02149 -0.44891,0.06731 -0.83336,0.321685 -0.9961,0.710937 -0.14311,0.342313 -0.12699,0.742869 -0.0137,1.185547 0.57763,1.857158 1.07711,2.448494 1.57227,3.216792 -1.99364,-3.438324 -0.51171,-6.144106 1.88417,-2.703632 l -0.76894,-1.364723 c -0.0617,-0.09588 -0.12512,-0.198293 -0.18359,-0.279296 -0.19047,-0.263885 -0.36969,-0.457586 -0.57422,-0.591797 -0.20453,-0.134213 -0.43605,-0.194347 -0.6543,-0.195313 z m -2.41211,2.603516 c -0.2339,7.25e-4 -0.4667,0.03301 -0.68164,0.164062 -0.2783,0.169692 -0.48832,0.502491 -0.4668,0.855469 0.0215,0.352978 0.17812,0.718425 0.4375,1.238281 0.50753,1.017171 0.84615,1.647002 1.15039,2.0625 -1.32962,-3.420688 -0.10676,-4.090814 1.43556,-2.68164 -0.45566,-0.825377 -0.77231,-1.221003 -1.1914,-1.476563 -0.21418,-0.130627 -0.4483,-0.162839 -0.6836,-0.162109 z"
     sodipodi:nodetypes="ssssscccsscsssscccssccccccccccccscccscsccccsssssssscccss" />
  <rect
     style="fill:#b3b3b3;fill-opacity:1;stroke-width:1.15"
     id="rect4877"
     width="31.625"
     height="32.4375"
     x="0.87500036"
     y="0.93750364" />
  <path
     id="rect4877-6-5"
     style="opacity:0.2;fill:#000000;fill-opacity:1;stroke-width:1.15"
     d="m 27.767051,3.613695 -0.04883,0.05078 h -0.09961 l -0.101562,0.150391 -0.04883,0.04883 0.04883,0.05078 -0.04883,0.05078 0.04883,0.09961 h 0.05078 0.09961 l 0.300782,0.34961 0.199218,0.09961 0.09961,0.05078 0.101562,0.04883 h 0.04883 l 0.09961,0.101563 0.15039,-0.150391 -0.09961,-0.09961 V 4.363696 l -0.09961,-0.04883 -0.05078,-0.09961 -0.15039,-0.15039 -0.449219,-0.400391 z m 2.351562,0.15039 -0.101562,0.150391 v 0.05078 l -0.04883,0.09961 0.04883,0.04883 -0.199219,0.201173 -0.199219,0.150391 -0.05078,0.199218 h -0.05078 v 0.09961 h 0.101562 l 0.09961,0.05078 0.04883,-0.05078 0.15039,-0.199218 0.300779,-0.150391 0.09961,-0.199218 0.09961,-0.101563 0.05078,-0.04883 v -0.09961 l -0.05078,-0.05078 v -0.09961 l -0.04883,0.04883 -0.05078,-0.04883 h -0.09961 -0.05078 z M 28.49752,5.539476 c -0.386458,-0.02552 -0.696355,0.165887 -0.929688,0.574219 v 0.05078 l 0.05078,0.800781 c -0.233333,0.433333 -0.65,0.648438 -1.25,0.648438 -0.366663,0.06667 -0.651561,0.250782 -0.851561,0.550781 l -1.84961,-0.449218 -6.298828,6.949218 -1.851562,-1.900391 -2.449219,2.34961 1.599609,1.601562 -9.749999,9.25 -0.699219,5.59961 5.849609,-0.701172 8.650391,-10.25 1.699218,1.5 2.300782,-2.449219 -2,-2.050781 6.25,-6.5 c 0.1,-0.966664 -0.200394,-1.832945 -0.900391,-2.599609 V 8.314866 l 1.5,-0.349609 0.650391,-0.701172 v -1.25 l 0.04883,-0.04883 c 0.06666,-0.166666 0.250779,-0.267448 0.550779,-0.300782 0.166667,-0.06667 0.116276,-0.09961 -0.150391,-0.09961 -0.05833,-0.0125 -0.114715,-0.02175 -0.169921,-0.02539 z m 1.919921,0.175782 -0.04883,0.04883 h -0.05078 l -0.09961,0.05078 h 0.04883 v 0.04883 l 0.05078,0.05078 v 0.09961 l 0.05078,0.05078 h 0.09961 l 0.04883,0.04883 0.101561,0.05078 0.04883,-0.05078 0.05078,0.05078 h 0.04883 v 0.05078 h 0.15039 l 0.05078,0.09961 v -0.05078 h 0.04883 0.101562 l 0.04883,0.05078 0.201172,0.15039 0.04883,0.09961 0.09961,-0.05078 0.15039,-0.15039 h -0.04883 v -0.04883 l -0.05079,-0.09961 -0.150391,-0.150391 -0.04883,-0.05078 -0.101562,-0.04883 h -0.09961 l -0.04883,-0.05078 h -0.101562 l -0.04883,-0.09961 -0.150391,0.04883 v -0.04883 h -0.09961 l -0.05078,-0.05078 h -0.09961 v -0.04883 l -0.05078,0.04883 h -0.04883 z m -0.599609,1.349609 -0.09961,0.150391 -0.05078,0.04883 -0.04883,0.09961 v 0.05078 l 0.04883,0.05078 v 0.04883 l -0.09961,0.150391 0.05078,0.05078 -0.05078,0.09961 v 0.15039 h 0.05078 v 0.09961 l 0.04883,0.09961 h 0.09961 l 0.101562,-0.05078 0.09961,-0.04883 -0.05078,-0.05078 0.05078,-0.15039 0.04883,-0.04883 v -0.05078 l -0.04883,-0.04883 0.04883,-0.05078 -0.04883,-0.09961 h 0.04883 v -0.05078 -0.04883 l -0.09961,-0.101563 v -0.04883 l 0.05078,-0.05078 v -0.04883 -0.05078 l -0.09961,-0.05078 z m -5.46875,1.123047 c 0.07969,5.21e-4 0.169531,0.01068 0.269531,0.02734 l 0.798828,0.5 v 0.449218 l -0.15039,-0.09961 -0.25,0.199219 -0.04883,0.05078 v 0.150391 l 0.04883,0.04883 0.15039,0.25 0.09961,-0.04883 h 0.201172 l 0.09961,0.09961 0.25,-0.150391 0.150391,-0.09961 c 0.466664,0.2 0.615885,0.59922 0.449218,1.199219 L 25.618614,10.71525 C 25.018617,10.481919 24.534109,10.030354 24.167442,9.36369 23.729945,8.576192 23.791273,8.184263 24.349083,8.187908 Z m -9.03125,9.277343 0.949219,0.949219 -5.199219,5.699219 -0.84961,1 -1.80078,2.201172 v 0.15039 l 0.05078,0.09961 2.449218,-2 6.150391,-6.650391 0.900391,0.949219 -8.201171,9.5 -4.44922,1.201172 1.09961,-4.5 z"
     sodipodi:nodetypes="ccccccccccccccccccccccccccccccccccccccccccccccccccsccccccccccccccccccccccccccscccccccccccccccccccccccccccccccccccccccccccccccccccccccccccccccccccccccccccccccscccccccccccccccccsscccccccccccccc" />
  <path
     id="rect4877-2"
     style="fill:#ffffff;fill-opacity:1;stroke-width:1.15"
     d="m 14.75,16.800781 -8.900391,8.59961 -1.099609,4.5 4.449219,-1.201172 8.201172,-9.5 L 16.5,18.25 l -6.150391,6.650391 -2.449218,2 -0.05078,-0.09961 v -0.15039 l 1.800781,-2.201172 0.199219,-0.25 0.65039,-0.75 L 15.69922,17.75 Z"
     sodipodi:nodetypes="ccccccccccccccc" />
  <path
     id="path4666"
     style="fill:#ffffff"
     d="M 28.40625,1.94336 C 28.36068,1.93976 28.30833,2.02422 28.25,2.199219 L 28.15039,2.75 c 0,0.166667 0.09883,0.282943 0.298828,0.34961 L 28.55078,2.550782 V 2.400391 c -0.0375,-0.3 -0.08594,-0.452344 -0.14453,-0.457031 z m 0.398438,1.783203 c -0.04577,0.0025 -0.197787,0.310287 -0.455079,0.923828 L 27.25,4.599611 l 0.300781,0.451172 0.798828,0.75 0.300782,0.5 0.298828,-1.101563 1.101562,0.550781 -0.550781,-1 0.199219,-0.75 L 28.75,4.150392 c 0.06771,-0.284375 0.086,-0.425521 0.05469,-0.423828 z m 2.408203,0.199219 c -0.075,0 -0.163672,0.0901 -0.263672,0.273437 -0.166667,0.266667 -0.08333,0.334505 0.25,0.201172 l 0.201172,-0.201172 c -0.05,-0.183333 -0.1125,-0.273437 -0.1875,-0.273437 z M 26.09375,4.572266 c -0.1875,-0.0062 -0.168359,0.05273 0.05664,0.177734 0.166666,0.2 0.265494,0.2 0.298828,0 L 26.349608,4.59961 C 26.241275,4.58294 26.156249,4.57435 26.093749,4.57227 Z m 4.263672,1.919922 c -0.03437,5.21e-4 -0.06992,0.0036 -0.107422,0.0078 -0.06667,0.333333 0.06706,0.600782 0.400391,0.800782 l 0.199218,0.09961 c 0.433333,-0.133334 0.433333,-0.350391 0,-0.650391 -0.0875,-0.175 -0.251562,-0.261458 -0.492187,-0.257812 z"
     sodipodi:nodetypes="scccccssccccccccccsscccsscccssccccs" />
  <path
     id="path4666-4"
     style="fill:#ffffff;stroke-width:1.49182"
     d="m 16.987182,23.350758 c -0.06798,-0.0055 -0.146078,0.120628 -0.233095,0.381693 l -0.1486,0.821663 c 0,0.248636 0.147436,0.422098 0.445796,0.521553 l 0.151513,-0.818749 v -0.224355 c -0.05594,-0.447545 -0.128207,-0.674813 -0.215614,-0.681805 z m 0.594396,2.660206 c -0.06828,0.0037 -0.295062,0.462891 -0.678894,1.37818 l -1.640411,-0.07576 0.448709,0.673065 1.191702,1.11886 0.448711,0.745907 0.445796,-1.643325 1.643325,0.821663 -0.821662,-1.491814 0.297197,-1.118861 -1.416058,0.224356 c 0.101011,-0.424235 0.128296,-0.634798 0.08159,-0.632273 z m 3.59259,0.297197 c -0.111886,0 -0.244168,0.134412 -0.39335,0.407918 -0.248636,0.397816 -0.124312,0.499019 0.372954,0.300111 l 0.300111,-0.300111 c -0.07459,-0.273499 -0.167829,-0.407918 -0.279715,-0.407918 z m -7.636805,0.964435 c -0.279715,-0.0093 -0.251161,0.07868 0.0845,0.265146 0.248634,0.298363 0.396067,0.298363 0.445795,0 l -0.1486,-0.224356 c -0.161613,-0.02487 -0.288455,-0.03768 -0.381694,-0.04079 z m 6.360605,2.864166 c -0.05127,7.7e-4 -0.104308,0.0054 -0.160254,0.01163 -0.09946,0.497271 0.100041,0.896255 0.597309,1.194616 l 0.297196,0.1486 c 0.646452,-0.198908 0.646452,-0.522718 0,-0.970261 -0.130534,-0.261067 -0.375284,-0.390048 -0.734251,-0.384607 z"
     sodipodi:nodetypes="scccccssccccccccccsscccsscccssccccs" />
  <path
     id="path4666-4-1"
     style="fill:#ffffff;stroke-width:1.49182"
     d="m 26.103295,13.430554 c -0.06798,-0.0055 -0.146078,0.120628 -0.233095,0.381693 l -0.1486,0.821663 c 0,0.248636 0.147436,0.422098 0.445796,0.521553 l 0.151513,-0.818749 v -0.224355 c -0.05594,-0.447545 -0.128207,-0.674813 -0.215614,-0.681805 z m 0.594396,2.660206 c -0.06828,0.0037 -0.295063,0.462891 -0.678894,1.37818 l -1.640411,-0.07576 0.448709,0.673065 1.191702,1.11886 0.448711,0.745907 0.445796,-1.643325 1.643325,0.821663 -0.821662,-1.491814 0.297197,-1.118861 -1.416058,0.224356 c 0.101011,-0.424235 0.128296,-0.634798 0.08159,-0.632273 z m 3.59259,0.297197 c -0.111886,0 -0.244168,0.134412 -0.39335,0.407918 -0.248637,0.397816 -0.124312,0.499019 0.372954,0.300111 l 0.300111,-0.300111 c -0.07459,-0.273499 -0.167829,-0.407918 -0.279715,-0.407918 z m -7.636805,0.964435 c -0.279715,-0.0093 -0.251161,0.07868 0.0845,0.265146 0.248634,0.298363 0.396067,0.298363 0.445795,0 l -0.1486,-0.224356 c -0.161613,-0.02487 -0.288455,-0.03768 -0.381694,-0.04079 z m 6.360605,2.864166 c -0.05127,7.7e-4 -0.104308,0.0054 -0.160254,0.01163 -0.09946,0.497271 0.100041,0.896255 0.597309,1.194616 l 0.297196,0.1486 c 0.646452,-0.198908 0.646452,-0.522718 0,-0.970261 -0.130534,-0.261067 -0.375284,-0.390048 -0.734251,-0.384607 z"
     sodipodi:nodetypes="scccccssccccccccccsscccsscccssccccs" />
  <path
     id="path4666-4-3"
     style="fill:#ffffff;stroke-width:1.49182"
     d="m 26.280071,21.827447 c -0.06798,-0.0055 -0.146078,0.120628 -0.233095,0.381693 l -0.1486,0.821663 c 0,0.248636 0.147436,0.422098 0.445796,0.521553 l 0.151513,-0.818749 v -0.224355 c -0.05594,-0.447545 -0.128207,-0.674813 -0.215614,-0.681805 z m 0.594396,2.660206 c -0.06828,0.0037 -0.295062,0.462891 -0.678894,1.37818 l -1.640411,-0.07576 0.448709,0.673065 1.191702,1.11886 0.448711,0.745907 0.445796,-1.643325 1.643325,0.821663 -0.821662,-1.491814 0.297197,-1.118861 -1.416058,0.224356 c 0.101011,-0.424235 0.128296,-0.634798 0.08159,-0.632273 z m 3.59259,0.297197 c -0.111886,0 -0.244168,0.134412 -0.39335,0.407918 -0.248636,0.397816 -0.124312,0.499019 0.372954,0.300111 l 0.300111,-0.300111 C 30.672182,24.919269 30.578943,24.78485 30.467057,24.78485 Z m -7.636805,0.964435 c -0.279715,-0.0093 -0.251161,0.07868 0.0845,0.265146 0.248634,0.298363 0.396067,0.298363 0.445795,0 l -0.1486,-0.224356 c -0.161613,-0.02487 -0.288455,-0.03768 -0.381694,-0.04079 z m 6.360605,2.864166 c -0.05127,7.7e-4 -0.104308,0.0054 -0.160254,0.01163 -0.09946,0.497271 0.100041,0.896255 0.597309,1.194616 l 0.297196,0.1486 c 0.646452,-0.198908 0.646452,-0.522718 0,-0.970261 -0.130534,-0.261067 -0.375284,-0.390048 -0.734251,-0.384607 z"
     sodipodi:nodetypes="scccccssccccccccccsscccsscccssccccs" />
  <path
     id="path4666-4-9"
     style="fill:#ffffff;stroke-width:1.49182"
     d="m 5.597198,11.220845 c -0.06798,-0.0055 -0.146078,0.120628 -0.233095,0.381693 l -0.1486,0.821663 c 0,0.248636 0.147436,0.422098 0.445796,0.521553 L 5.812812,12.127005 V 11.90265 C 5.756872,11.455105 5.684605,11.227837 5.597198,11.220845 Z m 0.594396,2.660206 c -0.06828,0.0037 -0.295062,0.462891 -0.678894,1.37818 l -1.640411,-0.07576 0.448709,0.673065 1.191702,1.11886 0.448711,0.745907 0.445796,-1.643325 1.643325,0.821663 -0.821662,-1.491814 0.297197,-1.118861 -1.416058,0.224356 c 0.101011,-0.424235 0.128296,-0.634798 0.08159,-0.632273 z m 3.59259,0.297197 c -0.111886,0 -0.244168,0.134412 -0.39335,0.407918 -0.248636,0.397816 -0.124312,0.499019 0.372954,0.300111 l 0.300111,-0.300111 C 9.989309,14.312667 9.89607,14.178248 9.784184,14.178248 Z m -7.636805,0.964435 c -0.279715,-0.0093 -0.251161,0.07868 0.0845,0.265146 0.248634,0.298363 0.396067,0.298363 0.445795,0 l -0.1486,-0.224356 c -0.161613,-0.02487 -0.288455,-0.03768 -0.381695,-0.04079 z m 6.360605,2.864166 c -0.05127,7.7e-4 -0.104308,0.0054 -0.160254,0.01163 -0.09946,0.497271 0.100041,0.896255 0.597309,1.194616 l 0.297196,0.1486 c 0.646452,-0.198908 0.646452,-0.522718 0,-0.970261 C 9.111701,18.130367 8.866951,18.001386 8.507984,18.006827 Z"
     sodipodi:nodetypes="scccccssccccccccccsscccsscccssccccs" />
  <path
     id="path4666-4-2"
     style="fill:#ffffff;stroke-width:1.49182"
     d="M 8.690791,2.735564 C 8.622811,2.730064 8.544713,2.856192 8.457696,3.117257 l -0.1486,0.821663 c 0,0.248636 0.147436,0.422098 0.445796,0.521553 L 8.906405,3.641724 V 3.417369 C 8.850465,2.969824 8.778198,2.742556 8.690791,2.735564 Z M 9.285187,5.39577 C 9.216907,5.39947 8.990125,5.858661 8.606293,6.77395 L 6.965882,6.69819 7.414591,7.371255 8.606293,8.490115 9.055004,9.236022 9.5008,7.592697 11.144124,8.41436 10.322462,6.922546 10.619659,5.803685 9.203602,6.028041 C 9.304613,5.603806 9.331898,5.393243 9.285192,5.395768 Z m 3.592589,0.297197 c -0.111886,0 -0.244168,0.134412 -0.39335,0.407918 -0.248636,0.397816 -0.124312,0.499019 0.372954,0.300111 L 13.157491,6.100885 C 13.082901,5.827386 12.989662,5.692967 12.877776,5.692967 Z M 5.240972,6.657402 c -0.279715,-0.0093 -0.251161,0.07868 0.0845,0.265146 0.248634,0.298363 0.396067,0.298363 0.445795,0 L 5.622667,6.698192 C 5.461054,6.673322 5.334212,6.660512 5.240972,6.657402 Z m 6.360604,2.864166 c -0.05127,7.7e-4 -0.104308,0.0054 -0.160254,0.01163 -0.09946,0.497271 0.100041,0.896255 0.597309,1.194616 l 0.297196,0.1486 c 0.646452,-0.198908 0.646452,-0.522718 0,-0.970261 C 12.205293,9.645086 11.960543,9.516105 11.601576,9.521546 Z"
     sodipodi:nodetypes="scccccssccccccccccsscccsscccssccccs" />
  <path
     id="path4666-4-4"
     style="fill:#ffffff;stroke-width:1.49182"
     d="m 18.85545,2.205234 c -0.06798,-0.0055 -0.146078,0.120628 -0.233095,0.381693 l -0.1486,0.821663 c 0,0.248636 0.147436,0.422098 0.445796,0.521553 L 19.071064,3.111394 V 2.887039 C 19.015124,2.439494 18.942857,2.212226 18.85545,2.205234 Z m 0.594396,2.660206 c -0.06828,0.0037 -0.295062,0.462891 -0.678894,1.37818 l -1.640411,-0.07576 0.448709,0.673065 1.191702,1.11886 0.448711,0.745907 0.445796,-1.643325 1.643326,0.821663 -0.821662,-1.491814 0.297197,-1.118861 -1.416059,0.224356 c 0.101011,-0.424235 0.128296,-0.634798 0.08159,-0.632273 z m 3.592591,0.297197 c -0.111886,0 -0.244168,0.134412 -0.39335,0.407918 -0.248636,0.397816 -0.124312,0.499019 0.372954,0.300111 L 23.322152,5.570555 C 23.247562,5.297056 23.154323,5.162637 23.042437,5.162637 Z m -7.636806,0.964435 c -0.279715,-0.0093 -0.251161,0.07868 0.0845,0.265146 0.248634,0.298363 0.396067,0.298363 0.445795,0 l -0.1486,-0.224356 c -0.161613,-0.02487 -0.288455,-0.03768 -0.381694,-0.04079 z m 6.360606,2.864166 c -0.05127,7.7e-4 -0.104308,0.0054 -0.160254,0.01163 -0.09946,0.497271 0.100041,0.896255 0.597309,1.194616 l 0.297196,0.1486 c 0.646452,-0.198908 0.646452,-0.522718 0,-0.970261 C 22.369954,9.114756 22.125204,8.985775 21.766237,8.991216 Z"
     sodipodi:nodetypes="scccccssccccccccccsscccsscccssccccs" />
  <path
     id="rect4877-6"
     style="fill:#000000;fill-opacity:1;stroke-width:1.15"
     d="m 27.199219,2.949219 -0.04883,0.05078 h -0.09961 l -0.101562,0.150391 -0.04883,0.04883 0.04883,0.05078 -0.04883,0.05078 0.04883,0.09961 h 0.05078 0.09961 l 0.300782,0.34961 0.199218,0.09961 0.09961,0.05078 0.101562,0.04883 h 0.04883 l 0.09961,0.101563 0.15039,-0.150391 -0.09961,-0.09961 V 3.69922 L 27.900389,3.65039 27.849609,3.55078 27.699219,3.40039 27.25,2.999999 Z M 29.550781,3.099609 29.449219,3.25 v 0.05078 l -0.04883,0.09961 0.04883,0.04883 L 29.25,3.650393 29.050781,3.800784 29.000001,4.000002 h -0.05078 v 0.09961 h 0.101562 l 0.09961,0.05078 0.04883,-0.05078 0.15039,-0.199218 0.300779,-0.150391 0.09961,-0.199218 0.09961,-0.101563 0.05078,-0.04883 v -0.09961 l -0.05078,-0.05078 v -0.09961 l -0.04883,0.04883 -0.05078,-0.04883 h -0.09961 -0.05078 z M 27.929688,4.875 C 27.54323,4.84948 27.233333,5.040887 27,5.449219 v 0.05078 l 0.05078,0.800781 c -0.233333,0.433332 -0.65,0.648438 -1.25,0.648438 C 25.434117,7.015888 25.149219,7.2 24.949219,7.499999 L 23.099609,7.050781 16.800781,13.999999 14.949219,12.099608 12.5,14.449218 14.099609,16.05078 4.34961,25.30078 3.650391,30.90039 9.5,30.199218 l 8.650391,-10.25 1.699218,1.5 2.300782,-2.449219 -2,-2.050781 6.25,-6.5 C 26.500391,9.482554 26.199997,8.616273 25.5,7.849609 V 7.65039 L 27,7.300781 27.650391,6.599609 v -1.25 l 0.04883,-0.04883 C 27.765881,5.134112 27.95,5.033331 28.25,4.999997 c 0.166667,-0.06667 0.116276,-0.09961 -0.150391,-0.09961 -0.05833,-0.0125 -0.114715,-0.02174 -0.169921,-0.02539 z m 1.919921,0.175782 -0.04883,0.04883 h -0.05078 l -0.09961,0.05078 h 0.04883 v 0.04883 l 0.05078,0.05078 v 0.09961 l 0.05078,0.05078 h 0.09961 l 0.04883,0.04883 0.101561,0.05078 0.04883,-0.05078 0.05078,0.05078 h 0.04883 v 0.05078 h 0.15039 l 0.05078,0.09961 v -0.05078 h 0.04883 0.101562 l 0.04883,0.05078 0.201172,0.15039 0.04883,0.09961 0.09961,-0.05078 0.15039,-0.15039 h -0.04883 v -0.04883 l -0.05079,-0.09961 -0.150391,-0.150391 -0.04883,-0.05078 -0.101562,-0.04883 h -0.09961 l -0.04883,-0.05078 h -0.101562 l -0.04883,-0.09961 -0.150391,0.04883 v -0.04883 h -0.09961 l -0.05078,-0.05078 h -0.09961 v -0.04883 l -0.05078,0.04883 h -0.04883 z M 29.25,6.400391 l -0.09961,0.150391 -0.05078,0.04883 -0.04883,0.09961 v 0.05078 l 0.04883,0.05078 v 0.04883 L 29,7.000003 29.05078,7.050783 29,7.150393 v 0.15039 h 0.05078 v 0.09961 l 0.04883,0.09961 h 0.09961 l 0.101562,-0.05078 0.09961,-0.04883 -0.05078,-0.05078 0.05078,-0.15039 0.04883,-0.04883 v -0.05078 l -0.04883,-0.04883 0.04883,-0.05078 -0.04883,-0.09961 h 0.04883 V 6.849613 6.800783 L 29.349612,6.69922 V 6.65039 l 0.05078,-0.05078 V 6.55078 6.5 l -0.09961,-0.05078 z m -5.46875,1.123047 c 0.07969,5.21e-4 0.169531,0.01068 0.269531,0.02734 l 0.798828,0.5 v 0.449218 l -0.15039,-0.09961 -0.25,0.199219 -0.04883,0.05078 v 0.150391 l 0.04883,0.04883 0.15039,0.25 0.09961,-0.04883 h 0.201172 l 0.09961,0.09961 0.25,-0.150391 0.150391,-0.09961 c 0.466664,0.2 0.615885,0.599221 0.449218,1.199219 l -0.798828,-0.04883 C 24.450785,9.817443 23.966277,9.365878 23.59961,8.699214 23.162113,7.911716 23.223441,7.519786 23.781251,7.523432 Z M 14.75,16.800781 15.699219,17.75 10.5,23.449219 l -0.849609,1 -1.800781,2.201172 v 0.15039 l 0.05078,0.09961 2.449218,-2 6.150391,-6.650391 0.900391,0.949219 -8.201172,9.5 -4.449219,1.201172 1.09961,-4.5 z"
     sodipodi:nodetypes="ccccccccccccccccccccccccccccccccccccccccccccccccccsccccccccccccccccccccccccccscccccccccccccccccccccccccccccccccccccccccccccccccccccccccccccccccccccccccccccccscccccccccccccccccsscccccccccccccc" />
  <path
     style="color:#000000;fill:#000000;fill-opacity:1;stroke-linecap:round;stroke-linejoin:round;-inkscape-stroke:none"
     d="M 1,0 A 1.0001,1.0001 0 0 0 0,1 v 32.000001 a 1.0001,1.0001 0 0 0 1,1 h 32 a 1.0001,1.0001 0 0 0 1,-1 V 1 A 1.0001,1.0001 0 0 0 33,0 Z M 2,2 H 32 V 32.000001 H 2 Z"
     id="path424-9" />
</svg>
