<svg xmlns="http://www.w3.org/2000/svg" xmlns:svg="http://www.w3.org/2000/svg" id="svg31684" width="34" height="34" version="1.1" viewBox="0 0 8.996 8.996"><g id="layer1" transform="translate(-51.391107,-85.067826)"><path id="path1694-1-6-0-0-8-0" fill="#cc0" fill-rule="evenodd" stroke="none" d="m 51.671288,93.767901 v -8.466666 h 8.466666 v 8.466666 h -8.466666" style="fill:#b3b3b3;fill-opacity:1;stroke-width:.264583"/><path id="path424-0-2-4" style="color:#000;fill:#000;fill-opacity:1;stroke-width:.264583;stroke-linecap:round;stroke-linejoin:round;-inkscape-stroke:none" d="m 51.65569,85.067826 c -0.146119,1.5e-5 -0.264568,0.118464 -0.264583,0.264583 v 8.466667 c 1.5e-5,0.146119 0.118464,0.264569 0.264583,0.264583 h 8.466667 c 0.146119,-1.4e-5 0.264569,-0.118464 0.264583,-0.264583 v -8.466667 c -1.4e-5,-0.146119 -0.118464,-0.264568 -0.264583,-0.264583 z m 0.264584,0.529167 h 7.9375 v 7.9375 c -7.9375,0 0,0 -7.9375,0 z"/><path id="rect956" style="fill:#fff;stroke-width:.231575;stroke-dashoffset:14.7" d="m 59.739176,88.661663 -5.29e-4,-0.342614 -7.474479,0.0057 5.16e-4,0.343131 5.419307,-0.0047 c 0.03051,0.410851 -0.0457,0.894053 -0.496611,0.661975 0.890403,0.800638 2.255466,1.076893 2.409156,-0.26665 -0.202926,0.122769 -0.481708,-0.155124 -0.648539,-0.396358 z m 0,2.071709 -5.29e-4,-0.343132 -5.418791,0.0047 c -0.03052,-0.410852 0.04518,-0.894052 0.496094,-0.661975 -0.890403,-0.800635 -2.255466,-1.076892 -2.409155,0.266651 0.202925,-0.12277 0.481708,0.155124 0.648539,0.396358 l -0.790649,5.29e-4 v 0.342615 z m -0.0021,-4.583183 -5.29e-4,-0.342615 -7.474479,0.0057 5.16e-4,0.343132 5.419308,-0.0047 c 0.03052,0.410851 -0.0457,0.894053 -0.496611,0.661975 0.890403,0.800636 2.255466,1.076893 2.409155,-0.26665 -0.202925,0.122769 -0.481708,-0.155124 -0.648539,-0.396358 z m 0,2.071708 -5.29e-4,-0.343132 -5.41879,0.0047 c -0.03051,-0.410854 0.04519,-0.894053 0.496102,-0.661976 -0.890402,-0.800635 -2.255465,-1.076892 -2.409155,0.266651 0.202926,-0.12277 0.481708,0.155124 0.648539,0.396358 l -0.790649,5.29e-4 v 0.342615 z m 0,2.971912 -5.29e-4,-0.342615 -7.474479,0.0057 5.16e-4,0.343131 5.419308,-0.0047 c 0.03051,0.410851 -0.0457,0.894053 -0.496611,0.661975 0.890403,0.800636 2.255466,1.076893 2.409155,-0.26665 -0.202925,0.122769 -0.481708,-0.155124 -0.648539,-0.396359 z m 0,2.071708 -5.29e-4,-0.343132 -5.41879,0.0047 c -0.03052,-0.410852 0.04518,-0.894052 0.496093,-0.661975 -0.890402,-0.800635 -2.255465,-1.076892 -2.409155,0.266651 0.202926,-0.12277 0.481708,0.155124 0.648539,0.396358 l -0.790649,0.001 v 0.342615 z"/><path style="fill:#000;stroke-width:.491331;stroke-dashoffset:14.7" id="path738" d="m 52.699846,88.771406 c -0.06253,-0.451988 -0.155353,-1.108139 0.361083,-1.331369 0.49417,-0.188597 1.124842,-0.0965 1.436058,0.370147 0.327772,0.428045 0.598649,0.898696 0.770774,1.409916 0.459573,0.702349 0.831773,1.453027 1.208887,2.201662 0.157292,0.436893 0.469734,0.682516 0.405321,1.135493 -0.797124,0.678867 -0.822984,-0.462711 -2.201729,-0.4444 -0.968554,0.32612 -2.99221,2.354386 -2.143879,0.143079 0.522302,-1.336359 0.211192,-2.514979 0.163485,-3.484528 z"/><path id="path899" style="fill:#fff;stroke-width:.491331;stroke-dashoffset:14.7" d="m 54.691336,89.624015 c -0.08373,0.0051 -0.149237,0.09305 -0.207222,0.147795 -0.04463,0.04264 -0.06129,0.161108 -0.141593,0.145211 0.056,0.149855 0.251637,0.203992 0.393774,0.150895 0.103379,-0.04443 0.259746,-0.06697 0.28422,-0.199471 0.0058,-0.131362 -0.126446,-0.241011 -0.254248,-0.226343 -0.02652,-0.01408 -0.05148,-0.01951 -0.07493,-0.01809 z m -1.18649,0.199988 c -0.03912,8.47e-4 -0.07791,0.0038 -0.114205,0.0067 -0.0921,0.02069 -0.09874,0.125728 -0.106454,0.202055 0.101149,0.114407 0.26189,0.154617 0.408761,0.161747 0.133664,0.0038 0.239159,-0.159011 0.123507,-0.257349 -0.07299,-0.0989 -0.194245,-0.115744 -0.311609,-0.113171 z"/><path id="path1694-1-6-0-0-8-0-3" style="fill:#000;fill-opacity:1;stroke-width:.264583" d="m 57.257509,85.971994 c -0.377602,9.79e-4 -0.801969,0.117485 -1.27279,0.377755 0.461939,0.199579 0.324722,1.022933 0.113171,1.60817 l -0.974617,-1.365808 -0.591695,0.422713 4.922696,6.900354 h 0.68368 v -0.294555 l -2.48202,-3.478858 c 0.672443,-0.558464 1.599959,-1.021505 1.753899,0.04341 0.233742,-2.050944 -0.516048,-4.217439 -2.152324,-4.213179 z"/></g></svg>