<svg xmlns="http://www.w3.org/2000/svg" xmlns:svg="http://www.w3.org/2000/svg" xmlns:xlink="http://www.w3.org/1999/xlink" id="svg38" width="34" height="34" version="1.1"><g id="g4" transform="matrix(1.0, 0.0, 0.0, 1.0, 1, 1)"><g id="use2" style="stroke:none"><g id="use225" style="stroke:none;fill:#b2b2b2;fill-opacity:1"><g id="use231" style="stroke:none;fill:#b2b2b2;fill-opacity:1"><path id="path235" fill="#cc0" fill-rule="evenodd" stroke="none" d="M 0,32 V 0 H 32 V 32 H 0" style="stroke:none;fill:#b2b2b2;fill-opacity:1"/><path id="path237" fill="none" stroke="#733c2f" stroke-linecap="round" stroke-linejoin="round" stroke-width="2" d="M 0,32 V 0 h 32 v 32 z" style="stroke:none;fill:#b3b3b3;fill-opacity:1"/></g></g><g id="use227" style="stroke:none"><path id="path241" fill="#733c2f" fill-rule="evenodd" stroke="none" d="m 27.65,11.45 q 1.55,0 1.9,1.55 l 0.15,2.05 0.15,3.2 -0.2,1.35 -0.15,0.85 0.25,1.3 q 0.05,1.2 -1.5,3.45 -1.9,2.75 -4.2,2.75 -2.1,0 -4.15,-1.2 L 19,26.2 l -1.15,-0.05 -2.4,0.2 H 15.4 q -2,0.05 -2.6,-2.05 v -0.05 -0.1 q -0.05,-1.2 2.25,-1.9 l 1.5,-0.3 -0.05,-0.2 q -1.2,0 -2.85,-0.9 -2.05,-1.1 -1.95,-1.75 0,-0.55 0.5,-1.6 0.75,-1.5 1.6,-1.45 0.75,0 5.5,1.8 L 19.35,17.8 17.25,16 q -1.05,-0.9 -1.05,-2.2 0,-0.65 0.3,-1.35 0.55,-1.3 1.7,-1.3 1.5,0 3.6,2.65 l 2.3,3.55 h 1.1 l -0.1,-1.6 0.2,-2.35 q 0.4,-1.95 2.35,-1.95 m -0.8,2.6 q -0.1,0.65 -0.05,1.4 l -0.5,2.75 -0.05,0.1 -0.15,0.25 -0.3,0.1 H 25.75 L 25.6,18.6 25.4,18.55 q -1.1,0.45 -1.55,0 l -0.9,-0.35 q -0.2,0 -0.3,-0.15 l -0.1,-0.3 0.15,-0.3 -1.7,-2.1 q -2.15,-2.6 -2.8,-2.7 l -0.4,0.45 -0.05,0.1 -0.1,0.6 q 0,0.75 1.35,1.75 1.65,1.35 1.75,2.2 l 0.2,-0.1 0.3,0.05 0.25,0.25 -0.05,0.35 V 18.25 L 21.2,18.5 Q 20.55,18.8 19.6,20 L 19.35,20.2 19,20.15 18.85,19.95 V 19.6 L 19,19.2 16.8,18.5 16.7,18.4 13.9,17.5 13.45,18.05 h 0.05 l -0.35,0.85 q 1.7,1.05 3.3,1.25 1.35,0.2 1.35,1.45 l 0.15,0.35 0.1,0.25 -0.1,0.45 0.25,-0.1 0.35,0.1 H 18.5 l 0.1,0.35 0.05,0.25 0.05,0.1 q 0.3,1.8 2.5,2.6 h 0.05 l 2.6,0.55 q 2.85,-0.05 4.45,-4.75 0,-0.85 -1.05,-2.6 l -0.35,-0.6 -0.1,-0.35 0.15,-0.3 v 0.05 Q 27.1,17.8 27.3,17.8 l 0.25,0.15 0.9,0.95 v -0.15 l -0.2,-3.1 Q 27.9,13.15 27.5,13 q -0.55,0.1 -0.65,1.05 m -11.45,10.9 2.3,-0.2 -0.1,-0.7 0.1,-1.15 0.05,-0.05 -1.95,0.75 q -1.5,0.35 -1.65,0.55 l 0.4,0.4 q 0.35,0.4 0.85,0.4" style="fill:#000;stroke:none"/><path id="path243" fill="#fcf9e0" fill-rule="evenodd" stroke="none" d="m 26.4,13.95 q 0.2,-1.4 1.1,-1.4 0.8,0 1.2,3.05 l 0.2,3.15 -0.15,1.3 -0.5,-0.75 -1,-1.05 0.4,0.7 q 1.1,1.85 1.1,2.8 -1.75,5.2 -4.9,5.2 l -2.7,-0.55 q -2.6,-0.9 -2.9,-2.95 l -0.1,-0.45 -0.1,1.05 q 0,0.6 0.5,1.2 l -0.7,-0.05 -2.45,0.2 q -0.7,0 -1.2,-0.55 -0.5,-0.45 -0.5,-0.7 0,-0.6 2,-1 1.9,-0.45 1.9,-0.95 l -0.25,-0.6 q 0,-0.85 -0.95,-1 -1.85,-0.25 -3.8,-1.5 l 0.45,-1.25 q 0.4,-0.8 0.8,-0.8 l 3.05,1 2.75,0.95 -0.4,0.75 q 1.05,-1.35 1.8,-1.65 -0.75,0.15 -1.1,0.55 l 0.1,-0.15 0.25,-0.65 q 0,-0.7 -1.6,-1.9 Q 17.2,14.7 17.2,13.8 L 17.35,13 q 0.3,-0.8 0.8,-0.8 0.85,0 3.2,2.9 l 2.1,2.7 H 23 q 0.9,0.15 1.15,0.4 l 1.15,-0.1 0.45,0.1 h 0.05 l 0.05,-0.1 0.5,-2.6 Q 26.3,14.7 26.4,13.95" style="stroke:none;fill:#fff"/><path id="path245" fill="#fcf9e0" fill-rule="evenodd" stroke="none" d="M -0.2,6.9 V 0.75 l 12,27.8 L 9.55,29.5 -0.2,6.9" style="stroke:none;fill:#fff"/><path id="path247" fill="#733c2f" fill-rule="evenodd" stroke="none" d="m -0.2,6.9 9.75,22.6 2.25,-0.95 -12,-27.8 h 1.1 l 11.95,27.8 0.05,0.2 V 28.8 L 12.85,29.1 12.6,29.25 9.5,30.6 9.25,30.65 9,30.55 8.85,30.35 -0.2,9.35 V 6.9" style="fill:#000;stroke:none"/><path id="path249" d="M 22 2.3007812 L 21 7.5507812 L 22.849609 7.9003906 L 23.849609 2.6503906 L 22 2.3007812 z M 14.800781 3.0996094 L 13 3.6992188 L 14.800781 8.75 L 16.599609 8.1503906 L 14.800781 3.0996094 z M 30.400391 5.5507812 L 26.900391 9.5996094 L 28.349609 10.800781 L 31.849609 6.75 L 30.400391 5.5507812 z M 7.1992188 8 L 6 9.4492188 L 10.050781 12.949219 L 11.25 11.5 L 7.1992188 8 z" style="stroke:none"/></g></g><path d="m 32.000001,-1 c 0.552264,3.8e-5 0.999949,0.447723 0.999987,0.999987 V 32 c -3.8e-5,0.552264 -0.447723,0.999949 -0.999987,0.999987 H -1.2e-5 C -0.552277,32.999949 -0.999962,32.552264 -1,32 V -1.3e-5 C -0.999962,-0.552277 -0.552277,-0.999962 -1.2e-5,-1 Z M 31.000013,1.000013 H 0.999975 v 29.999999 h 30.000038 z" style="color:#000;display:inline;fill:#000;fill-opacity:1;stroke-width:.999999;stroke-linecap:round;stroke-linejoin:round;-inkscape-stroke:none" id="path2565-5"/></g><defs id="defs36"><g id="sprite0" transform="matrix(1.0, 0.0, 0.0, 1.0, 1.0, 1.0)"><use id="use6" width="34" height="34" transform="matrix(1.0, 0.0, 0.0, 1.0, -1.0, -1.0)" xlink:href="#sprite1"/><use id="use8" width="32.05" height="29.9" transform="matrix(1.0, 0.0, 0.0, 1.0, -0.2, 0.75)" xlink:href="#shape1"/></g><g id="sprite1" transform="matrix(1.0, 0.0, 0.0, 1.0, 1.0, 1.0)"><use id="use11" width="34" height="34" transform="matrix(1.0, 0.0, 0.0, 1.0, -1.0, -1.0)" xlink:href="#shape0"/></g><g id="shape0" transform="matrix(1.0, 0.0, 0.0, 1.0, 1.0, 1.0)"><path id="path14" fill="#cc0" fill-rule="evenodd" stroke="none" d="M0.0 32.0 L0.0 0.0 32.0 0.0 32.0 32.0 0.0 32.0"/><path id="path16" fill="none" stroke="#733c2f" stroke-linecap="round" stroke-linejoin="round" stroke-width="2" d="M0.0 32.0 L0.0 0.0 32.0 0.0 32.0 32.0 0.0 32.0 Z"/></g><g id="shape1" transform="matrix(1.0, 0.0, 0.0, 1.0, 0.2, -0.75)"><path id="path19" fill="#733c2f" fill-rule="evenodd" stroke="none" d="M27.65 11.45 Q29.2 11.45 29.55 13.0 L29.7 15.05 29.85 18.25 29.65 19.6 29.5 20.45 29.75 21.75 Q29.8 22.95 28.25 25.2 26.35 27.95 24.05 27.95 21.95 27.95 19.9 26.75 L19.0 26.2 17.85 26.15 15.45 26.35 15.4 26.35 Q13.4 26.4 12.8 24.3 L12.8 24.25 12.8 24.15 Q12.75 22.95 15.05 22.25 L16.55 21.95 16.5 21.75 Q15.3 21.75 13.65 20.85 11.6 19.75 11.7 19.1 11.7 18.55 12.2 17.5 12.95 16.0 13.8 16.05 14.55 16.05 19.3 17.85 L19.35 17.8 17.25 16.0 Q16.2 15.1 16.2 13.8 16.2 13.15 16.5 12.45 17.05 11.15 18.2 11.15 19.7 11.15 21.8 13.8 L24.1 17.35 25.2 17.35 25.1 15.75 25.3 13.4 Q25.7 11.45 27.65 11.45 M26.85 14.05 Q26.75 14.7 26.8 15.45 L26.3 18.2 26.25 18.3 26.1 18.55 25.8 18.65 25.75 18.65 25.6 18.6 25.4 18.55 Q24.3 19.0 23.85 18.55 L22.95 18.2 Q22.75 18.2 22.65 18.05 L22.55 17.75 22.7 17.45 21.0 15.35 Q18.85 12.75 18.2 12.65 L17.8 13.1 17.75 13.2 17.65 13.8 Q17.65 14.55 19.0 15.55 20.65 16.9 20.75 17.75 L20.95 17.65 21.25 17.7 21.5 17.95 21.45 18.3 21.45 18.25 21.2 18.5 Q20.55 18.8 19.6 20.0 L19.35 20.2 19.0 20.15 18.85 19.95 18.85 19.6 19.0 19.2 16.8 18.5 16.7 18.4 13.9 17.5 13.45 18.05 13.5 18.05 13.15 18.9 Q14.85 19.95 16.45 20.15 17.8 20.35 17.8 21.6 L17.95 21.95 18.05 22.2 17.95 22.65 18.2 22.55 18.55 22.65 18.5 22.65 18.6 23.0 18.65 23.25 18.7 23.35 Q19.0 25.15 21.2 25.95 L21.25 25.95 23.85 26.5 Q26.7 26.45 28.3 21.75 28.3 20.9 27.25 19.15 L26.9 18.55 26.8 18.2 26.95 17.9 26.95 17.95 Q27.1 17.8 27.3 17.8 L27.55 17.95 28.45 18.9 28.45 18.75 28.25 15.65 Q27.9 13.15 27.5 13.0 26.95 13.1 26.85 14.05 M15.4 24.95 L17.7 24.75 17.6 24.05 17.7 22.9 17.75 22.85 15.8 23.6 Q14.3 23.95 14.15 24.15 L14.55 24.55 Q14.9 24.95 15.4 24.95"/><path id="path21" fill="#fcf9e0" fill-rule="evenodd" stroke="none" d="M26.4 13.95 Q26.6 12.55 27.5 12.55 28.3 12.55 28.7 15.6 L28.9 18.75 28.75 20.05 28.25 19.3 27.25 18.25 27.65 18.95 Q28.75 20.8 28.75 21.75 27.0 26.95 23.85 26.95 L21.15 26.4 Q18.55 25.5 18.25 23.45 L18.15 23.0 18.05 24.05 Q18.05 24.65 18.55 25.25 L17.85 25.2 15.4 25.4 Q14.7 25.4 14.2 24.85 13.7 24.4 13.7 24.15 13.7 23.55 15.7 23.15 17.6 22.7 17.6 22.2 L17.35 21.6 Q17.35 20.75 16.4 20.6 14.55 20.35 12.6 19.1 L13.05 17.85 Q13.45 17.05 13.85 17.05 L16.9 18.05 19.65 19.0 19.25 19.75 Q20.3 18.4 21.05 18.1 20.3 18.25 19.95 18.65 L20.05 18.5 20.3 17.85 Q20.3 17.15 18.7 15.95 17.2 14.7 17.2 13.8 L17.35 13.0 Q17.65 12.2 18.15 12.2 19.0 12.2 21.35 15.1 L23.45 17.8 23.0 17.8 Q23.9 17.95 24.15 18.2 L25.3 18.1 25.75 18.2 25.8 18.2 25.85 18.1 26.35 15.5 Q26.3 14.7 26.4 13.95"/><path id="path23" fill="#fcf9e0" fill-rule="evenodd" stroke="none" d="M-0.2 6.9 L-0.2 0.75 11.8 28.55 9.55 29.5 -0.2 6.9"/><path id="path25" fill="#733c2f" fill-rule="evenodd" stroke="none" d="M-0.2 6.9 L9.55 29.5 11.8 28.55 -0.2 0.75 0.9 0.75 12.85 28.55 12.9 28.75 12.9 28.8 12.85 29.1 12.6 29.25 9.5 30.6 9.25 30.65 9.0 30.55 8.85 30.35 -0.2 9.35 -0.2 6.9"/><path id="path27" fill="#733c2f" fill-rule="evenodd" stroke="none" d="M7.2 8.0 L11.25 11.5 10.05 12.95 6.0 9.45 7.2 8.0"/><path id="path29" fill="#733c2f" fill-rule="evenodd" stroke="none" d="M14.8 3.1 L16.6 8.15 14.8 8.75 13.0 3.7 14.8 3.1"/><path id="path31" fill="#733c2f" fill-rule="evenodd" stroke="none" d="M23.85 2.65 L22.85 7.9 21.0 7.55 22.0 2.3 23.85 2.65"/><path id="path33" fill="#733c2f" fill-rule="evenodd" stroke="none" d="M31.85 6.75 L28.35 10.8 26.9 9.6 30.4 5.55 31.85 6.75"/></g></defs></svg>