<svg xmlns="http://www.w3.org/2000/svg" xmlns:svg="http://www.w3.org/2000/svg" id="svg12122" width="34" height="34" version="1.1" viewBox="0 0 8.996 8.996"><g id="layer1" transform="translate(-100.11487,-98.323547)"><g id="g1108" transform="matrix(0.26458333,0,0,0.26458333,104.48049,109.96521)"><path id="path1694-1-6-0-0-2-4-2" fill="#cc0" fill-rule="evenodd" stroke="none" d="M -15.251294,-11.000873 V -43.00087 h 31.999993 v 31.999997 h -31.999993" style="fill:#9e009e;fill-opacity:1"/><path id="path1415" style="opacity:1;fill:#fff;stroke:#000;stroke-width:0" d="m 14.693298,-33.93361 -0.796546,0.777509 0.116862,-1.190082 -2.039558,1.565771 c -0.292428,-0.379947 -0.469594,-0.858031 -0.454871,-1.316058 -0.18442,-1.013975 2.470287,-0.916591 0.936182,-1.80583 -0.789999,-0.612208 -1.368921,-1.427724 -2.121734,-2.074858 -1.013457,-1.457651 -2.524322,-2.561906 -4.273592,-2.938844 -1.817094,-0.559826 -3.503123,0.615657 -4.923555,1.599129 -1.16700098,0.540999 0.47258,-0.0042 0.942368,0.488264 1.08876,0.589781 2.328042,0.894542 3.310365,1.669692 0.858703,0.58041 1.428958,1.584559 2.385977,1.979152 0.796339,-0.51218 0.0023,0.67643 0.640377,1.055382 0.56479,0.704387 1.547037,2.390841 2.359294,0.989829 0.121867,0.231944 0.483249,0.424639 0.846087,0.62515 l -13.459723,10.333971 -1.705285,-2.096314 -0.498433,0.646331 1.712433,1.950832 -9.549104,6.763936 -0.500798,1.28788 0.593857,0.37919 24.268093,-18.587766 c 0.110744,0.225574 0.05262,0.491369 -0.322879,0.827338 -0.416579,1.476017 1.247601,0.156009 1.874427,-0.03752 0.995965,-0.23245 0.847668,-1.604691 -0.243847,-1.095591 -0.320939,0.11767 -0.636052,0.107895 -0.925775,0.01317 l 0.899281,-0.688721 1.085141,-0.121659 z"/><path id="path1415-9" style="fill:#fff;stroke:#000;stroke-width:0" d="m -13.808203,-33.85731 0.796547,0.777508 -0.116862,-1.190082 2.039557,1.565771 c 0.292429,-0.379947 0.469594,-0.858031 0.454872,-1.316057 0.184419,-1.013975 -2.470288,-0.91659 -0.936183,-1.80583 0.79,-0.612208 1.368921,-1.427725 2.1217345,-2.074858 1.0134562,-1.457652 2.5243221,-2.561906 4.2735925,-2.938843 1.817094,-0.559826 3.503123,0.615656 4.92355602,1.599128 1.167001,0.540999 -0.472581,-0.0042 -0.94236802,0.488263 -1.088761,0.589781 -2.328043,0.894543 -3.310366,1.669693 -0.858703,0.580409 -1.428958,1.584559 -2.3859774,1.979152 -0.796339,-0.512181 -0.00226,0.67643 -0.6403766,1.055381 -0.5647903,0.704387 -1.5470375,2.390842 -2.3592943,0.989829 -0.1218677,0.231944 -0.4832487,0.424639 -0.8460867,0.625151 l 13.459724,10.333972 1.705284,-2.096315 0.498434,0.646331 -1.712434,1.950832 9.549103,6.763937 0.500798,1.287879 -0.593857,0.37919 -24.268093,-18.587767 c -0.110743,0.225574 -0.05262,0.491369 0.32288,0.827338 0.416579,1.476018 -1.247602,0.156009 -1.874428,-0.03752 -0.995965,-0.23245 -0.847668,-1.604691 0.243847,-1.09559 0.32094,0.117669 0.636053,0.107895 0.925775,0.01317 l -0.899281,-0.688725 -1.085141,-0.121658 z"/><path style="color:#000;fill:#000;fill-opacity:1;stroke-linecap:round;stroke-linejoin:round;-inkscape-stroke:none" id="path424-0-7-3-0-1-8" d="M -15.500001,-44 A 1.0001,1.0001 0 0 0 -16.5,-43 v 31.999997 a 1.0001,1.0001 0 0 0 0.999999,1.000001 h 31.999995 a 1.0001,1.0001 0 0 0 1,-1 V -43 a 1.0001,1.0001 0 0 0 -1,-1 z m 0.999995,2 h 29.999999 v 29.999997 h -29.999999 z"/><path id="path1181-5" style="stroke:#000;stroke-width:0" d="m 0.95117202,-35.388672 a 1.3610043,1.3610043 0 0 0 -1.076172,0.05078 C -6.078759,-32.432353 -7.306251,-30.27929 -10.382812,-28.035157 a 1.3610043,1.3610043 0 0 0 -0.539063,0.86914 c -0.482555,2.804456 -0.458303,5.254666 0.162109,7.357422 a 1.3610043,1.3610043 0 0 0 0.69336,0.832032 c 2.241482,1.126077 4.259386,1.275913 6.125,1.285156 l 0.05664,1.068359 a 1.3610043,1.3610043 0 0 0 1.195313,1.279297 l 2.56054702,0.310547 a 1.3610043,1.3610043 0 0 0 0.302734,-0.203125 1.3610043,1.3610043 0 0 0 0.572266,0.458984 l 2.93359398,-0.1875 a 1.3610043,1.3610043 0 0 0 0.478515,-0.164062 1.3610043,1.3610043 0 0 0 0.326172,0.166015 l 2.123047,-0.123047 a 1.3610043,1.3610043 0 0 0 1.283203,-1.388671 l -0.03906,-1.816407 c 1.400909,-0.248406 2.792087,-0.489653 3.794922,-1.003906 a 1.3610043,1.3610043 0 0 0 0.732422,-1.070312 c 0.253238,-2.451421 0.120896,-4.97639 -0.324218,-7.552735 A 1.3610043,1.3610043 0 0 0 11.4375,-28.837891 c -0.539887,-0.339076 -1.068199,-0.699278 -1.59375,-1.072265 a 1.3610043,1.3610043 0 0 0 -0.945312,-0.212891 1.3610043,1.3610043 0 0 0 -0.513672,-0.849609 c -2.138504,-1.579998 -4.39598,-3.272876 -7.43359398,-4.416016 z"/><path id="path1181" style="fill:#fff;stroke:#000;stroke-width:0" d="m 0.47937502,-34.1932 c -5.78448602,2.82293 -6.79344102,4.802711 -10.05252792,7.179983 -0.4584781,2.66453 -0.4149781,4.910596 0.1255545,6.742615 2.4813778,1.246597 4.6510724,1.245421 6.8060804,1.186547 l 0.124175,2.311005 2.56073202,0.311814 0.373901,-1.374187 0.249724,1.623913 2.93463298,-0.187641 -0.124175,-1.436272 0.93682,1.436272 2.121985,-0.124173 -0.06209,-2.872543 c 1.931503,-0.230576 3.459535,-0.622977 4.558544,-1.186548 0.238407,-2.307847 0.114295,-4.70566 -0.313194,-7.179982 -0.569942,-0.357952 -1.117584,-0.732937 -1.655644,-1.114801 l -0.364243,0.522908 1.103765,0.883011 -3.708646,7.858797 2.163376,-7.108238 -1.368667,-0.662258 0.693992,-2.57315 C 5.441831,-31.538445 3.31029,-33.127845 0.47937002,-34.1932 Z"/><path id="path1250" style="fill:#000;stroke:#000;stroke-width:0" d="m 9.193359,-25.433594 -5.726562,1.751953 c 2.070381,4.437933 8.132282,3.028142 5.726562,-1.751953 z m -15.8945309,0.980469 c -1.6094352,5.103578 4.5984399,5.524643 5.93164092,0.8125 z m 12.1015629,1.613281 a 0.60096866,0.57755427 80.787758 0 1 0.642578,0.521485 0.60096866,0.57755427 80.787758 0 1 -0.482422,0.669921 0.60096866,0.57755427 80.787758 0 1 -0.660156,-0.501953 l -0.00391,-0.03516 a 0.60096866,0.57755427 80.787758 0 1 0.503907,-0.654297 z m -7.94336,0.337891 a 0.57755427,0.60096866 0 0 1 0.601563,0.566406 l 0.00195,0.0332 a 0.57755427,0.60096866 0 0 1 -0.570313,0.601563 0.57755427,0.60096866 0 0 1 -0.583984,-0.582031 0.57755427,0.60096866 0 0 1 0.550781,-0.619141 z m 4.896485,2.076172 -0.71875,0.779297 0.15625,0.28125 0.59375,-0.46875 0.53125,0.5 0.341796,-0.25 z"/></g></g></svg>