<svg xmlns="http://www.w3.org/2000/svg" xmlns:svg="http://www.w3.org/2000/svg" id="svg25719" width="34" height="34" version="1.1" viewBox="0 0 8.996 8.996"><g id="layer1" transform="translate(-13.995188,-26.78836)"><path id="path1694-1-6-6-0" fill="#cc0" fill-rule="evenodd" stroke="none" d="M 14.259623,35.519379 V 27.05271 h 8.466667 v 8.466669 h -8.466667" style="fill:#8080ff;fill-opacity:1;stroke-width:.264583"/><path id="path1694-1-6-6-0-4" style="fill:#fff;fill-opacity:1;stroke-width:.264583" d="m 17.167087,27.052943 0.253733,2.375567 -2.896465,-2.110984 2.110983,2.896465 -2.375566,-0.253732 v 0.399976 l 2.088245,0.926041 -2.088245,0.926042 v 0.399976 l 2.375566,-0.253733 -2.110983,2.896465 2.896465,-2.110983 -0.253733,2.375566 h 0.399976 l 0.926042,-2.088245 0.926042,2.088245 h 0.399975 l -0.253732,-2.375566 2.896465,2.110983 -2.110984,-2.896465 2.375567,0.253733 v -0.399976 l -2.088245,-0.926042 2.088245,-0.926041 v -0.399976 l -2.375567,0.253732 2.110984,-2.896465 -2.896465,2.110984 0.253732,-2.375567 h -0.399975 l -0.926042,2.088245 -0.926042,-2.088245 z"/><path style="color:#000;fill:#000;fill-opacity:1;stroke-width:.264583;stroke-linecap:round;stroke-linejoin:round;-inkscape-stroke:none" id="path424-0-0-9" d="m 14.259772,26.78836 a 0.26460979,0.26460979 0 0 0 -0.264584,0.264583 v 8.466666 a 0.26460979,0.26460979 0 0 0 0.264584,0.264584 h 8.466666 a 0.26460979,0.26460979 0 0 0 0.264584,-0.264584 V 27.052943 A 0.26460979,0.26460979 0 0 0 22.726438,26.78836 Z m 0.264583,0.529166 h 7.9375 v 7.9375 h -7.9375 z"/><path id="path1537-2" style="fill:#fff;fill-opacity:1;stroke-width:.195134" d="m 18.735733,27.486628 c -0.28049,0.114572 -0.424087,0.41552 -0.615365,0.63686 -0.854319,1.167875 -1.705607,2.342368 -2.450089,3.584267 -0.138245,0.211756 -0.22061,0.462274 -0.148768,0.712851 -0.03588,0.184967 0.175168,0.188338 0.291918,0.261054 0.224308,0.135519 0.486968,-0.01699 0.720198,-0.06415 0.529439,-0.151345 1.036122,-0.341768 1.561833,-0.493438 -0.09346,0.411814 -0.199649,0.77964 -0.312761,1.195483 -0.11602,0.458751 -0.260213,0.913879 -0.315106,1.385239 0.05388,0.160608 0.107143,0.321427 0.160713,0.48214 0.199687,-0.01185 0.416957,0.02291 0.60588,-0.01746 0.372346,-0.295521 0.562698,-0.749509 0.823074,-1.136139 0.714989,-1.215165 1.440894,-2.428565 2.037919,-3.707185 0.105328,-0.215959 0.15802,-0.474216 0.03161,-0.692725 -0.03894,-0.145282 -0.225605,-0.187912 -0.351317,-0.238709 -0.442412,-0.06076 -0.879885,0.09926 -1.306382,0.199062 -0.166833,0.04752 -0.334542,0.09187 -0.501843,0.137686 0.168698,-0.573156 0.419737,-1.130713 0.491958,-1.727025 -0.0094,-0.247542 -0.149537,-0.474553 -0.212908,-0.713652 -0.170188,0.06528 -0.340373,0.130569 -0.510561,0.195854 z"/><path style="fill:#000;stroke-width:.195134" id="path1537" d="m 17.970643,34.679063 c -5.29e-4,-0.100479 0.181647,-0.832763 0.404595,-1.627296 0.222946,-0.794533 0.359577,-1.490388 0.30362,-1.546342 -0.05595,-0.05595 -0.65056,0.08361 -1.32135,0.310137 -0.67079,0.226528 -1.283711,0.411871 -1.362046,0.411871 -0.07833,0 0.527735,-0.962297 1.346827,-2.138439 0.819092,-1.176141 1.515137,-2.112561 1.546765,-2.08093 0.03163,0.03163 -0.118565,0.569284 -0.333769,1.194782 -0.215205,0.625502 -0.356585,1.17197 -0.314182,1.214374 0.0424,0.0424 0.576008,-0.06794 1.185783,-0.245205 0.609777,-0.177265 1.151913,-0.279072 1.204753,-0.226232 0.05284,0.05284 -0.5241,1.180547 -1.282083,2.506017 -0.757981,1.325473 -1.378495,2.327738 -1.378913,2.227263 z"/></g></svg>