<svg xmlns="http://www.w3.org/2000/svg" xmlns:svg="http://www.w3.org/2000/svg" id="svg15243" width="34" height="34" version="1.1" viewBox="0 0 8.996 8.996"><g id="layer1" transform="translate(-5.8917097,-89.008723)"><path id="path1694-6-0-6-7" fill="#cc0" fill-rule="evenodd" stroke="none" d="m 6.1563248,97.739953 v -8.466666 h 8.4666662 v 8.466666 H 6.1563248" style="fill:#4a0;fill-opacity:1;stroke-width:.264583"/><path id="path1694-6-0-9-6-34" style="fill:#fff;fill-opacity:1;stroke-width:.264583" d="m 6.1562243,89.273106 v 1.144633 l 0.3803385,0.209289 c 0.21454,0.117969 0.4825127,0.04039 0.6004798,-0.174149 l 0.5860097,-1.065568 c 0.020214,-0.03675 0.03283,-0.07535 0.04186,-0.114205 z m 4.7278767,0 c -0.07482,0.03894 -0.140105,0.09799 -0.183968,0.177767 l -0.586012,1.066084 c -0.1179671,0.214542 -0.03988,0.481996 0.174667,0.599964 l 1.065567,0.586011 c 0.21454,0.117968 0.481994,0.04039 0.599964,-0.17415 l 0.58601,-1.066085 c 0.117967,-0.214541 0.04039,-0.481995 -0.174149,-0.599963 l -1.065567,-0.586011 c -0.003,-0.0016 -0.0063,-0.002 -0.0093,-0.0036 z M 7.6057467,92.118927 C 7.449034,92.117974 7.2972108,92.200873 7.216108,92.34837 l -0.5860124,1.065568 c -0.1179671,0.214542 -0.040391,0.481995 0.1741514,0.599964 l 1.066083,0.586527 c 0.2145427,0.117969 0.4819967,0.03988 0.5999612,-0.174666 l 0.5860151,-1.065568 c 0.1179644,-0.214542 0.040391,-0.482512 -0.1741514,-0.60048 l -1.066083,-0.586011 c -0.067045,-0.03687 -0.1390915,-0.05434 -0.2103252,-0.05478 z m 5.0746263,0.283187 c -0.156715,-9.53e-4 -0.308539,0.08195 -0.389641,0.229443 l -0.58601,1.065568 c -0.11797,0.214542 -0.04039,0.482512 0.174149,0.60048 l 1.065567,0.586011 c 0.214542,0.117969 0.482512,0.03987 0.600479,-0.174666 l 0.586013,-1.065568 c 0.117967,-0.214542 0.03988,-0.481995 -0.174667,-0.599964 l -1.065567,-0.58601 c -0.06705,-0.03687 -0.139089,-0.05486 -0.210323,-0.05529 z m -3.0168692,2.806547 c -0.1567153,-9.53e-4 -0.3085385,0.08143 -0.3896413,0.228926 l -0.5860097,1.066085 c -0.1179698,0.214542 -0.040394,0.481995 0.1741488,0.599964 l 1.065567,0.58601 c 0.049734,0.02735 0.1026054,0.04307 0.1555454,0.05013 h 0.114208 c 0.134879,-0.01743 0.259929,-0.09552 0.330729,-0.224275 l 0.586007,-1.065568 c 0.11797,-0.214542 0.03988,-0.482512 -0.174665,-0.600481 l -1.0655692,-0.58601 c -0.067045,-0.03686 -0.1390888,-0.05434 -0.21032,-0.05478 z m 4.0224922,0.65474 c -0.156715,-9.52e-4 -0.309055,0.08195 -0.390157,0.229443 l -0.586013,1.065569 c -0.112516,0.20463 -0.0452,0.456079 0.147281,0.581359 h 1.765781 v -1.422135 l -0.726569,-0.399459 c -0.06705,-0.03686 -0.139089,-0.05434 -0.210323,-0.05478 z m -7.5297717,0.784965 v 1.091406 h 1.327568 c 0.04413,-0.188331 -0.03787,-0.389356 -0.2160085,-0.487308 l -1.065567,-0.586011 c -0.014896,-0.0082 -0.030655,-0.01178 -0.045993,-0.01809 z"/><path id="path1696-0-5-0-82" style="color:#000;fill:#000;fill-opacity:1;stroke-width:.264583;stroke-linecap:round;stroke-linejoin:round;-inkscape-stroke:none" d="m 6.156293,89.008723 a 0.26460979,0.26460979 0 0 0 -0.2645833,0.264583 v 8.466667 a 0.26460979,0.26460979 0 0 0 0.2645833,0.264583 h 8.466667 a 0.26460979,0.26460979 0 0 0 0.264583,-0.264583 V 89.273306 A 0.26460979,0.26460979 0 0 0 14.62296,89.008723 Z m 0.2645834,0.529166 h 2.3771145 c -0.3146372,0.281417 -0.6185905,0.573655 -0.9508463,0.834058 -0.5258197,0.346902 -0.9721215,0.816739 -1.3084466,1.349788 -0.01397,0.06694 -0.061129,0.149516 -0.1178216,0.237712 z m 4.0478156,0 h 3.889684 v 4.363042 c -0.02952,0.02732 -0.0585,0.06673 -0.08578,0.121439 -0.232548,0.271405 -0.415131,0.602934 -0.666626,0.84956 -0.209102,-0.08713 0.191686,-0.468479 0.267685,-0.637687 0.01008,-0.220621 0.550111,-0.67106 0.137975,-0.735872 -0.275752,0.299911 -0.47434,0.930514 -0.891935,1.07332 -0.218059,-0.419276 0.569712,-0.656006 0.38344,-1.175639 -0.226997,-0.06398 -0.315156,0.228138 -0.424781,0.364319 -0.155625,0.367277 -0.423285,0.664329 -0.641305,0.996838 -0.307644,0.170014 0.01103,-0.342108 -0.03876,-0.487309 -0.04893,-0.485089 -0.362125,0.128547 -0.494543,0.26665 -0.176398,0.331573 -0.192678,0.694598 -0.193789,1.060401 0.04573,0.31687 -0.168,0.576538 -0.302305,0.870231 -0.151387,0.30814 -0.430959,0.523044 -0.635622,0.796334 -0.06157,0.08704 -0.137596,0.152865 -0.213939,0.211873 H 6.4208764 v -4.274674 c 0.074044,0.04134 0.17467,0.01386 0.2578655,-0.152962 0.2325476,-0.271405 0.4146153,-0.602934 0.6661097,-0.849561 0.2091055,0.08713 -0.1916853,0.46848 -0.2676842,0.637687 -0.010081,0.220622 -0.5501111,0.671577 -0.1379776,0.736389 0.267888,-0.282324 0.401918,-0.674633 0.6934994,-0.927075 0.05879,-0.260864 0.3801851,-0.165369 0.1912011,0.07545 -0.024289,0.343011 -0.5420995,0.619451 -0.3762031,0.953947 0.2269967,0.06397 0.3156718,-0.228655 0.4252966,-0.364836 0.1556252,-0.367277 0.4232857,-0.663812 0.641305,-0.996321 0.3076443,-0.170015 -0.011562,0.342107 0.03824,0.487308 0.048927,0.48509 0.3626406,-0.128546 0.4950592,-0.26665 0.1763845,-0.331573 0.1927305,-0.695115 0.1937888,-1.060917 -0.045728,-0.31687 0.1679998,-0.576021 0.302305,-0.869715 0.1513893,-0.30814 0.43044,-0.52356 0.6351032,-0.79685 0.08211,-0.116072 0.189664,-0.193709 0.289907,-0.268718 z m 3.350699,0.22531 c 0.0099,0.07842 -0.131538,0.244179 -0.809252,0.719336 -0.249272,0.260734 -0.31256,0.45967 -0.409795,0.669726 -0.597754,0.09497 -1.384395,0.126773 -1.538925,0.369487 -0.277243,0.183502 -0.632272,0.79228 -1.058849,1.529105 -0.385228,0.138485 -0.9840886,0.257507 -1.1094931,0.419613 -0.3350393,0.256306 -0.2772093,0.992574 -0.39946,1.508951 -0.2023375,0.131791 -0.6767221,0.161266 -0.7095172,0.50953 -0.029977,0.149888 -0.054337,0.45034 -0.2997227,0.839226 -0.8907753,0.303105 -0.5978657,0.606399 -0.6495732,0.909505 0.1500055,-0.214824 0.1352259,-0.450319 0.8893519,-0.589628 0.2537724,-0.231582 0.1624726,-0.656511 0.3498506,-0.719336 0.9872847,-0.410031 1.1448732,-0.06014 1.6887851,-0.329696 0.5026186,-0.460734 0.6846786,-1.342869 0.9492956,-1.458826 1.156401,-0.362191 1.238684,-0.649573 1.238684,-0.649573 -0.01384,-0.124416 0.377926,-0.202958 0.170016,-1.379243 0.361278,-0.186527 1.063945,-0.343157 0.929143,-0.529684 0.09063,-0.286362 -0.102,-0.511853 0.319876,-0.869197 0.619051,-0.483841 0.488442,-0.462737 0.449585,-0.949296 z M 7.0037852,91.78168 c -0.00315,0.360654 -0.399923,0.654272 -0.5648219,0.982886 -0.00651,0.005 -0.012144,0.01033 -0.018098,0.0155 v -0.278019 c 0.2029883,-0.232603 0.3193044,-0.54392 0.5829088,-0.72037 z m 7.3545908,2.760555 v 0.260449 c -0.117901,0.179572 -0.229613,0.364976 -0.410829,0.486275 0.0024,-0.272419 0.228841,-0.506767 0.410829,-0.746724 z m 0,0.887801 v 2.045353 h -2.141987 c 0.292222,-0.263616 0.577969,-0.533868 0.887799,-0.776697 0.498758,-0.329046 0.924536,-0.769355 1.254188,-1.268656 z"/><path style="fill:#fff;fill-opacity:1;stroke:none;stroke-width:.126618;stroke-dashoffset:14.7" id="path596-2-0" d="m 9.7925464,93.93014 c 0.080296,0.292581 0.1583822,0.584873 -0.3597328,0.7994 -0.106553,-0.408008 0.040299,-0.657637 0.3597328,-0.7994 z"/><path style="fill:#fff;fill-opacity:1;stroke:none;stroke-width:.126618;stroke-dashoffset:14.7" id="path596-9-1-4" d="m 11.381168,92.347943 c 0.08632,0.29086 0.170424,0.581478 -0.343148,0.806655 -0.114957,-0.405722 0.02671,-0.658328 0.343148,-0.806655 z"/></g></svg>