<svg xmlns="http://www.w3.org/2000/svg" xmlns:svg="http://www.w3.org/2000/svg" id="svg25719" width="34" height="34" version="1.1" viewBox="0 0 8.996 8.996"><g id="layer1" transform="translate(-13.995188,-26.78836)"><path id="path1694-1-6-6" fill="#cc0" fill-rule="evenodd" stroke="none" d="M 14.259623,35.519379 V 27.05271 h 8.466666 v 8.466669 h -8.466666" style="fill:#8080ff;fill-opacity:1;stroke-width:.264583"/><path id="path1694-1-6-6-0-4-4" style="fill:#fff;fill-opacity:1;stroke-width:.264583" d="m 17.166939,27.052711 0.253732,2.375566 -2.896465,-2.110982 2.110984,2.896464 -2.375567,-0.253732 v 0.399976 l 2.088245,0.926042 -2.088245,0.926041 v 0.399976 l 2.375567,-0.253731 -2.110984,2.896464 2.896465,-2.110983 -0.253732,2.375566 h 0.399975 l 0.926042,-2.088245 0.926042,2.088245 h 0.399976 l -0.253733,-2.375566 2.896465,2.110983 -2.110983,-2.896464 2.375566,0.253731 v -0.399976 l -2.088245,-0.926041 2.088245,-0.926042 v -0.399976 l -2.375566,0.253732 2.110983,-2.896464 -2.896465,2.110982 0.253733,-2.375566 h -0.399976 l -0.926042,2.088245 -0.926042,-2.088245 z"/><path style="color:#000;fill:#000;fill-opacity:1;stroke-width:.264583;stroke-linecap:round;stroke-linejoin:round;-inkscape-stroke:none" id="path424-0-0" d="m 14.259771,26.78836 a 0.26460979,0.26460979 0 0 0 -0.264583,0.264583 v 8.466666 a 0.26460979,0.26460979 0 0 0 0.264583,0.264584 h 8.466667 a 0.26460979,0.26460979 0 0 0 0.264583,-0.264584 V 27.052943 A 0.26460979,0.26460979 0 0 0 22.726438,26.78836 Z m 0.264583,0.529166 h 7.9375 v 7.9375 h -7.9375 z"/><path id="path1348-7-6" style="fill:#fff;fill-opacity:1;stroke-width:.191502" d="m 16.652991,28.139558 c -0.409128,-0.06813 -0.921078,-0.02846 -1.15497,0.36819 -0.237797,0.439545 -0.211093,0.962016 -0.256987,1.446349 7.94e-4,0.316024 -0.05794,0.672509 0.109193,0.953768 -0.185742,-0.01704 -0.07523,0.275259 -0.125984,0.399163 -0.03895,0.678907 -0.177069,1.3797 0.0076,2.048233 0.197035,0.478158 0.772993,0.589183 1.234736,0.602409 0.164013,-0.0035 0.289465,-0.02652 0.194199,0.168911 -0.05202,0.159121 0.03002,0.332659 0.121052,0.45653 0.312963,0.307827 0.790869,0.280268 1.197729,0.322478 0.586081,0.0095 1.184624,0.05208 1.760535,-0.07858 0.34168,-0.08687 0.595114,-0.364549 0.722437,-0.684195 0.110868,-0.164469 0.342442,-0.06554 0.50482,-0.134646 0.498914,-0.08835 0.858512,-0.547382 0.905216,-1.039763 0.07682,-0.641787 -0.04557,-1.28617 -0.06958,-1.928211 -0.04326,-0.14436 -0.06498,-0.170619 0.01958,-0.340579 0.142266,-0.554922 0.108934,-1.139277 0.07242,-1.705841 -0.0263,-0.417568 -0.284157,-0.831866 -0.70435,-0.943612 -0.256154,-0.08026 -0.535334,-0.109517 -0.798402,-0.04702 0.02371,-0.184706 0.01651,-0.338491 -0.211666,-0.271302 -1.17588,0 -2.35176,0 -3.52764,0 0,0.135909 0,0.271818 0,0.407727 z"/><path style="fill:#000;stroke-width:.191502" id="path1348-7" d="m 17.118583,34.218276 c 0,-0.09406 0.122582,-0.218052 0.272402,-0.275543 0.149818,-0.05749 0.300625,-0.294893 0.335127,-0.52756 0.06146,-0.4145 0.301098,-0.617897 0.972362,-0.825324 0.224255,-0.0693 0.335129,-0.298775 0.335129,-0.69363 v -0.590073 l 1.101135,0.05743 1.101135,0.05743 0.06016,0.8399 c 0.06629,0.925534 -0.136694,1.252736 -0.782338,1.261093 -0.255543,0.0033 -0.502693,0.178439 -0.615868,0.436406 -0.169228,0.385728 -0.32475,0.430879 -1.484138,0.430879 -0.712309,0 -1.295104,-0.07695 -1.295104,-0.171013 z M 15.66355,33.164665 C 15.60717,33.017753 15.58833,32.56533 15.62168,32.159281 l 0.06064,-0.73827 1.388391,-0.05627 c 1.374399,-0.0557 1.388387,-0.05136 1.388387,0.430879 0,0.341434 -0.103105,0.487145 -0.344704,0.487145 -0.441195,0 -0.804307,0.363112 -0.804307,0.804307 0,0.274934 -0.156263,0.344704 -0.77202,0.344704 -0.483708,0 -0.810294,-0.09975 -0.874516,-0.267115 z m 4.646731,-2.350077 c -0.203472,-0.203471 -0.147616,-2.135422 0.06555,-2.267164 0.106267,-0.06568 0.364794,-0.06496 0.574506,0.0016 0.317838,0.100873 0.381288,0.290727 0.381288,1.140878 0,0.753326 -0.07917,1.050245 -0.302913,1.136106 -0.389393,0.149424 -0.560295,0.146705 -0.718429,-0.01143 z m -4.584253,-0.20746 c -0.04106,-0.07899 -0.03746,-0.552962 0.008,-1.05326 0.07353,-0.809469 0.133223,-0.909634 0.542097,-0.909634 0.42927,0 0.459472,0.06924 0.459472,1.05326 0,0.989019 -0.02851,1.05326 -0.467452,1.05326 -0.257099,0 -0.501042,-0.06463 -0.5421,-0.143626 z m 1.392555,-1.101136 v -1.244761 h 0.574506 0.574506 v 1.244761 1.244762 h -0.574506 -0.574506 z m 1.532014,0 v -1.244761 h 0.574506 0.574506 v 1.244761 1.244762 h -0.574506 -0.574506 z"/></g></svg>