<svg xmlns="http://www.w3.org/2000/svg" xmlns:svg="http://www.w3.org/2000/svg" id="svg40692" width="34" height="34" version="1.1" viewBox="0 0 8.996 8.996"><g id="layer1" transform="translate(-109.42971,-161.7361)"><path id="path1694-1-9-0-1-3" fill="#cc0" fill-rule="evenodd" stroke="none" d="m 109.6943,170.46735 v -8.46667 h 8.46666 v 8.46667 h -8.46666" style="fill:#4a0;fill-opacity:1;stroke-width:.264583"/><path id="path40223-8" style="fill:#fff;fill-opacity:1;stroke:none;stroke-width:.127256;stroke-dashoffset:14.7" d="m 115.45898,163.47083 c -0.41549,0.002 -0.82837,0.51954 -1.15909,0.79375 -0.65144,0.38293 -1.34145,-0.16134 -1.81657,-0.62374 -0.98387,-0.61065 -1.66728,1.03203 -2.64334,1.04542 l -0.16832,1.02526 0.0698,0.0625 c 0.74566,0.56474 1.51177,-0.14848 2.01884,-0.71934 0.77347,-0.17043 1.0057,1.27693 1.87778,0.90279 0.76012,-0.0147 1.16629,-1.55224 1.88878,-0.73277 0.42489,0.65044 1.16534,0.80493 1.85531,0.70125 0.77912,0.008 1.02482,-1.3239 0.50065,-1.7632 -0.64351,0.29846 -1.46928,0.17827 -1.93947,-0.41238 -0.15871,-0.20258 -0.3218,-0.28038 -0.48439,-0.27957 z m 0.1162,3.14916 c -0.4155,0.002 -0.8279,0.51954 -1.15861,0.79375 -0.65145,0.38293 -1.34194,-0.16134 -1.81706,-0.62373 -0.98386,-0.61066 -1.66727,1.03202 -2.64333,1.04541 l -0.16832,1.02526 0.0698,0.0625 c 0.74567,0.56474 1.51178,-0.14796 2.01885,-0.71882 0.77347,-0.17043 1.0057,1.27641 1.87778,0.90227 0.76012,-0.0147 1.16629,-1.55224 1.88878,-0.73277 0.42488,0.65044 1.16533,0.80493 1.8553,0.70125 0.77913,0.008 1.0253,-1.32338 0.50113,-1.76268 -0.6435,0.29845 -1.46975,0.17826 -1.93995,-0.41238 -0.1587,-0.20258 -0.3218,-0.28089 -0.48438,-0.28009 z"/><path style="color:#000;fill:#000;fill-opacity:1;stroke-width:.264583;stroke-linecap:round;stroke-linejoin:round;-inkscape-stroke:none" id="path424-1-5-6-6" d="m 109.6943,161.7361 a 0.26460979,0.26460979 0 0 0 -0.26459,0.26458 v 8.46667 a 0.26460979,0.26460979 0 0 0 0.26459,0.26458 h 8.46666 a 0.26460979,0.26460979 0 0 0 0.26459,-0.26458 v -8.46667 a 0.26460979,0.26460979 0 0 0 -0.26459,-0.26458 z m 0.26458,0.52917 h 7.9375 v 7.9375 h -7.9375 z"/><path style="fill:#fff;fill-opacity:1;stroke:none;stroke-width:.132292;stroke-dashoffset:14.7" id="path39277" d="m 112.0094,165.10954 0.62012,0.58704 -0.94258,-0.008 -0.0579,0.53744 1.26504,0.15709 -0.95085,0.7028 0.3142,0.44649 1.03353,-0.62839 -0.40515,1.18236 0.51263,0.19017 0.47956,-0.99219 0.339,0.95085 0.52916,-0.1819 -0.27285,-1.05007 1.12448,0.83509 0.37207,-0.43821 -1.03353,-0.90951 1.23197,0.0331 0.0248,-0.57877 -1.24023,-0.0909 1.03353,-0.64492 -0.33073,-0.51263 -0.97565,0.58704 0.34726,-1.05006 -0.53743,-0.20671 -0.48783,1.13275 -0.42994,-1.09141 -0.50437,0.14056 0.3142,1.26504 -0.96739,-0.76895 z"/><path id="path36823-3-57-9-0" style="fill:#000;fill-opacity:1;stroke-width:.116237" d="m 113.21036,162.65387 -0.63562,0.19327 -0.008,0.002 -0.003,0.005 -0.002,0.0129 -0.002,0.0129 0.13953,0.45372 0.0109,0.0145 c 0.004,0.007 0.009,0.008 0.0129,0.002 l 0.005,0.003 0.0677,-0.0176 0.16072,0.62115 -0.28164,0.0786 -0.005,-0.003 -0.01,0.0145 0.002,0.008 -0.005,0.0176 0.11627,0.36226 0.01,0.006 0.0176,0.005 0.24133,-0.0708 0.22169,0.90227 -0.75396,-0.5519 0.1571,-0.18604 v -0.006 l 0.006,-0.0176 -0.006,-0.0176 -0.29094,-0.23822 -0.0114,-0.006 -0.006,0.006 -0.006,-0.006 -0.006,0.006 -0.006,0.006 -0.18603,0.23254 -0.5116,-0.3948 0.0408,-0.0465 v -0.006 l 0.006,-0.0171 -0.006,-0.0176 -0.37207,-0.29662 h -0.006 l -0.0176,-0.006 -0.0176,0.006 -0.42427,0.5116 -0.006,0.006 v 0.006 l 0.006,0.0119 0.006,0.0114 0.36587,0.30231 0.0176,0.006 c 0.008,0.004 0.0114,0.002 0.0114,-0.006 h 0.006 l 0.0465,-0.0522 0.47645,0.42995 -0.19172,0.22118 h -0.006 v 0.0171 l 0.006,0.006 0.006,0.0171 0.16484,0.13281 -0.31987,-0.0217 -0.0129,0.002 -0.002,0.008 -0.008,-0.001 -0.002,0.008 -0.002,0.008 -10e-4,0.008 10e-4,-0.006 -0.0165,0.29455 -0.64596,-0.0253 0.006,-0.0615 -0.003,-0.005 -0.006,-0.0176 -0.015,-0.0109 -0.47491,-0.0258 -0.005,0.003 -0.0176,0.005 -0.0109,0.015 -0.0491,0.66249 -0.002,0.008 0.004,0.005 0.0114,0.006 0.0114,0.006 0.47387,0.0341 0.0176,-0.006 c 0.009,-0.001 0.0102,-0.005 0.006,-0.0114 l 0.005,-0.003 0.007,-0.0698 0.63769,0.0744 -0.0284,0.29094 -0.005,0.003 0.0103,0.0145 0.008,0.002 0.0145,0.0103 0.37982,0.0227 0.009,-0.007 0.0108,-0.015 0.0217,-0.25063 0.92707,0.11937 -0.71417,0.54984 -0.13487,-0.20258 -0.005,-0.002 -0.0155,-0.0103 -0.0181,0.001 -0.31006,0.21239 -0.009,0.009 0.004,0.007 -0.007,0.004 0.004,0.007 0.004,0.007 0.17105,0.24339 -0.52245,0.38086 -0.0331,-0.0522 -0.006,-0.002 -0.015,-0.0109 -0.0186,0.001 -0.38861,0.27441 -0.002,0.005 -0.0103,0.0155 5.3e-4,0.0181 0.37259,0.55036 0.004,0.007 0.006,0.002 0.0124,-0.002 0.0129,-0.003 0.39274,-0.26716 0.0103,-0.015 c 0.006,-0.006 0.005,-0.0108 -0.003,-0.0129 l 0.002,-0.005 -0.0372,-0.0594 0.5457,-0.33745 0.15865,0.24598 -0.002,0.006 0.0165,0.005 0.007,-0.004 0.0186,-5.3e-4 0.31161,-0.21808 0.003,-0.0114 -5.3e-4,-0.0181 -0.13901,-0.20981 0.79634,-0.47801 -0.30438,0.88315 -0.22376,-0.0951 -0.006,0.002 -0.0186,-5.3e-4 -0.0145,0.0109 -0.14211,0.34778 -0.002,0.0129 0.007,0.004 -0.004,0.007 0.007,0.004 0.007,0.004 0.27698,0.10904 -0.22634,0.60565 -0.0568,-0.0253 -0.005,0.002 -0.0186,-5.3e-4 -0.015,0.0109 -0.17311,0.44287 0.002,0.006 -5.3e-4,0.0186 0.0109,0.0145 0.61392,0.25424 0.007,0.004 0.006,-0.002 0.009,-0.009 0.009,-0.009 0.18087,-0.43925 5.3e-4,-0.0181 c 0.001,-0.009 -0.002,-0.0121 -0.009,-0.01 l -0.002,-0.005 -0.0636,-0.0289 0.26975,-0.58239 0.26768,0.11782 0.002,0.006 0.017,-0.005 0.004,-0.007 0.015,-0.0109 0.14004,-0.35346 -0.004,-0.0114 -0.0103,-0.015 -0.23151,-0.0987 0.36587,-0.76378 0.28836,0.75706 -0.23255,0.0708 -0.004,0.005 -0.014,0.0114 -0.005,0.0176 0.11421,0.35812 0.006,0.0114 0.008,-0.002 0.002,0.008 0.008,-0.002 0.008,-0.002 0.28267,-0.0935 0.21446,0.60978 -0.0594,0.0165 -0.003,0.005 -0.0145,0.0114 -0.005,0.0176 0.15089,0.45114 0.005,0.003 0.0114,0.0145 0.0181,0.005 0.63407,-0.19844 0.008,-0.002 0.003,-0.005 0.002,-0.0129 0.001,-0.0129 v -5.3e-4 l -0.14263,-0.45268 -0.0114,-0.014 c -0.004,-0.007 -0.009,-0.008 -0.0129,-0.002 l -0.005,-0.003 -0.0672,0.0186 -0.16588,-0.62012 0.28112,-0.0811 0.005,0.003 0.009,-0.0145 -0.002,-0.008 0.005,-0.0176 -0.11937,-0.36122 -0.009,-0.006 -0.0181,-0.005 -0.24081,0.0723 -0.21343,-0.83922 0.83096,0.62735 -0.15968,0.18345 v 0.006 l -0.006,0.0176 0.006,0.0176 0.28681,0.24236 0.0119,0.006 0.006,-0.006 0.006,0.006 0.006,-0.006 0.006,-0.006 0.18914,-0.22996 0.50591,0.40308 -0.0413,0.046 v 0.006 l -0.006,0.0171 0.006,0.0176 0.36742,0.30179 0.006,5.3e-4 0.0176,0.006 0.0176,-0.005 0.4315,-0.50539 0.006,-0.006 5.3e-4,-0.006 -0.006,-0.0119 -0.006,-0.0119 -0.36174,-0.30747 -0.0176,-0.006 c -0.008,-0.004 -0.0113,-0.002 -0.0114,0.006 h -0.006 l -0.0475,0.0517 -0.47026,-0.43719 0.19534,-0.21807 0.006,5.3e-4 v -0.0176 l -0.006,-0.006 -0.005,-0.0176 -0.293,-0.24288 h -0.0119 l -0.0176,0.006 -0.16536,0.18913 -0.67645,-0.64492 0.90072,-0.0207 -0.0114,0.24288 0.004,0.005 0.006,0.0176 0.0155,0.0103 0.37569,0.0119 0.0124,-0.002 0.001,-0.008 0.008,0.001 0.001,-0.008 0.001,-0.008 0.006,-0.29766 0.64647,0.003 -0.004,0.0615 0.004,0.005 0.006,0.0176 0.015,0.0103 0.47542,0.009 0.005,-0.004 0.0176,-0.006 0.0103,-0.015 0.0253,-0.66404 0.001,-0.008 -0.004,-0.005 -0.0119,-0.006 -0.0114,-0.006 -0.47439,-0.0171 -0.0176,0.006 c -0.008,0.002 -0.0104,0.005 -0.006,0.0114 l -0.005,0.004 -0.005,0.0698 -0.63975,-0.0512 0.0176,-0.29197 0.005,-0.004 -0.0103,-0.0134 -0.008,-0.001 -0.0155,-0.0103 -0.37982,-0.009 -0.009,0.007 -0.0103,0.015 -0.0124,0.25115 -0.92501,-0.0853 0.76843,-0.53227 0.12403,0.20929 0.006,0.002 0.0145,0.0114 h 0.0186 l 0.31988,-0.19637 0.009,-0.009 -0.004,-0.007 0.008,-0.004 -0.004,-0.007 -0.004,-0.008 -5.3e-4,-0.001 -0.15864,-0.25063 0.54105,-0.35398 0.0305,0.0537 0.006,0.002 0.0145,0.0109 0.0186,5.3e-4 0.40152,-0.25477 0.002,-0.006 0.0109,-0.0145 5.3e-4,-0.0181 -0.34468,-0.56844 -0.004,-0.007 -0.006,-0.002 -0.0124,0.002 -0.0129,0.002 -0.40566,0.24701 -0.0109,0.0145 c -0.006,0.006 -0.006,0.0104 0.002,0.0129 l -0.002,0.006 0.0341,0.061 -0.56224,0.30954 -0.14573,-0.25321 0.002,-0.006 -0.016,-0.006 -0.008,0.004 -0.0181,-5.2e-4 -0.32246,0.20257 -0.004,0.0109 v 0.0181 l 0.12764,0.21653 -0.77979,0.41703 0.22996,-0.71004 0.22582,0.0904 0.006,-0.002 h 0.0186 l 0.0145,-0.0109 0.13539,-0.35088 0.002,-0.0129 -0.007,-0.004 0.004,-0.007 -0.007,-0.004 -0.007,-0.004 -0.27905,-0.10387 0.21549,-0.60979 0.0568,0.0243 0.005,-0.002 h 0.0186 l 0.0145,-0.0109 0.16536,-0.44596 -0.002,-0.006 v -0.0181 l -0.0109,-0.015 -0.61857,-0.24288 -0.007,-0.004 -0.006,0.002 -0.009,0.009 -0.009,0.009 -0.17208,0.44235 v 0.0186 c -10e-4,0.009 0.002,0.0117 0.009,0.009 l 0.002,0.005 0.0641,0.0279 -0.2589,0.58756 -0.26975,-0.11317 -0.002,-0.006 -0.0165,0.006 -0.004,0.007 -0.015,0.0108 -0.13333,0.35605 0.004,0.0114 0.0109,0.0145 0.23306,0.0946 -0.38809,0.85059 -0.31419,-0.84439 0.23358,-0.0693 0.003,-0.005 0.0145,-0.0114 0.005,-0.0176 -0.11111,-0.35915 -0.007,-0.0114 -0.008,0.002 -0.002,-0.008 -0.008,0.002 -0.008,0.002 h -5.3e-4 l -0.28267,0.092 -0.20929,-0.61185 0.0599,-0.016 0.003,-0.005 0.0145,-0.0114 0.005,-0.0176 -0.14727,-0.45217 -0.005,-0.004 -0.0114,-0.0139 z m -0.0279,0.55966 0.21755,0.60978 -0.30437,0.092 -0.17363,-0.62322 z m 1.78645,0.031 0.25321,0.10025 -0.20773,0.6134 -0.29559,-0.11679 z m -3.41116,0.95756 0.51676,0.38912 -0.20309,0.24443 -0.48834,-0.42426 z m 2.01331,0.006 0.35295,0.98754 -0.14521,0.31884 -0.0636,-0.216 -0.0331,-0.11886 -0.0377,-0.12247 -0.003,-0.0367 -0.22479,-0.76791 z m 0.93896,0.002 0.14676,0.0558 -0.3948,0.9927 0.002,0.006 -0.004,0.007 -0.0393,0.15865 -0.0512,0.0274 -0.002,0.003 -0.0925,-0.24908 z m -1.19992,0.0765 0.30644,1.02371 0.005,0.003 0.002,0.008 0.12144,0.26665 -0.0129,0.0289 v 0.002 l -0.28527,-0.20877 -0.28577,-1.07642 z m 1.45107,0.0181 0.14883,0.061 -0.28732,0.84956 -0.30386,0.16278 0.0274,-0.0677 0.0486,-0.11369 0.046,-0.11937 0.0207,-0.031 z m 1.83141,0.0176 0.14056,0.23306 -0.53691,0.36122 -0.16434,-0.27182 z m -0.95033,0.48886 0.0832,0.13332 -0.91622,0.55036 -0.002,0.005 -0.007,0.004 -0.17415,0.14004 0.10439,-0.32246 z m -3.21272,0.007 0.88573,0.66559 0.0388,0.15658 -0.21756,-0.003 -0.0796,-0.0692 -0.0987,-0.0816 -0.0233,-0.0289 -0.6103,-0.51728 z m -0.17467,0.20929 0.72657,0.60771 -0.28422,-0.004 -0.54105,-0.48214 z m 3.53002,0.0114 0.0811,0.13849 -0.91932,0.62012 -0.35967,-0.0331 0.009,-0.0295 0.24857,-0.14831 0.10748,-0.061 0.10904,-0.0672 0.0351,-0.0124 z m -3.70417,0.20929 0.41135,0.38034 -0.67645,-0.009 0.0181,-0.21807 0.0553,0.0444 h 0.0114 l 0.0176,-0.006 z m 1.91462,0.14676 0.0775,0.21601 -0.062,0.26613 -0.0341,0.0941 -0.0651,-0.38292 z m 0.55862,0.0243 -0.12092,0.35812 -0.30541,0.24391 0.0853,-0.25322 0.11783,-0.22375 z m -1.05058,0.20619 0.1173,0.0879 0.0548,0.14831 -0.14004,-0.11679 z m -1.70016,0.1173 0.83509,0.0212 0.25942,0.2403 -0.0253,-0.002 -0.12299,-0.0124 -0.12764,-0.009 -0.0357,-0.0103 -0.79737,-0.0677 z m -1.06763,0.003 0.6475,0.0176 -0.0243,0.31678 -0.64388,-0.0625 z m 2.11666,0.0238 0.32763,0.008 0.20257,0.12713 -0.006,0.006 0.0171,0.006 h 0.006 l 0.0114,-0.006 v -0.0114 l 0.004,-0.008 0.007,0.0295 0.0114,0.0145 0.093,0.0641 -0.26975,-0.007 -0.006,-0.002 -0.0145,0.008 -0.0403,0.031 -0.0589,-0.005 z m 0.50592,0.0558 0.0496,0.0336 0.003,0.0103 z m 1.22783,0.0915 0.16588,0.0124 -0.12144,0.0816 -0.22428,0.005 z m 0.38809,0.0284 1.11001,0.0816 -0.004,0.1571 -1.06763,-0.0455 -0.005,0.004 -0.008,-0.001 -0.29145,0.0279 -0.0233,-0.0222 -0.002,-5.3e-4 z m -3.19154,0.0687 1.06505,0.0837 0.005,-0.003 0.008,0.001 0.12764,-0.007 0.06,0.0553 -0.19017,0.14624 -1.08521,-0.11937 z m 4.71858,0.0884 0.64543,0.0398 -0.0108,0.27182 -0.6475,0.006 z m -2.85926,0.0434 -0.0894,0.045 -0.17312,-0.0264 z m 1.125,0.0791 0.22479,0.0103 0.12299,0.008 0.12815,0.004 0.0362,0.009 0.79892,0.0388 -0.009,0.1602 -1.04851,0.0108 z m -1.61438,0.0155 0.0961,0.0889 0.0176,0.006 -0.20929,-0.0232 z m 1.08573,0.0165 0.41496,0.0698 0.15503,0.14211 -0.22893,0.003 z m -0.39326,0.0884 0.0801,0.001 0.0641,0.42891 -0.13074,0.28681 -0.11627,-0.31626 0.0558,-0.24908 z m -0.95808,0.094 0.34726,0.045 -0.18655,0.12402 -0.10439,0.0667 -0.10542,0.0724 -0.0346,0.0139 -0.66714,0.44132 -0.0879,-0.13436 z m 0.76222,5.3e-4 -0.0863,0.18552 -0.14056,0.0884 0.0491,-0.13746 z m -0.33383,0.0548 0.0315,0.004 0.002,-5.3e-4 -0.11524,0.33383 -0.9431,0.59118 -0.0899,-0.12919 0.8878,-0.5948 0.002,-0.006 0.007,-0.004 z m 0.90641,0.0315 0.0455,0.0403 0.0568,0.2067 -0.0202,-0.0155 z m 0.20774,0.0605 0.0279,0.0217 0.004,0.005 0.0165,0.003 0.0506,-0.001 0.24546,0.21394 0.092,0.0827 0.0977,0.0827 0.0227,0.0294 0.60255,0.52606 -0.10645,0.12041 -0.9679,-0.74931 z m 0.52658,0.0181 0.80409,0.73794 -0.10077,0.1204 -0.80926,-0.69763 h -0.006 l -0.006,-0.006 -0.22634,-0.14676 z m -1.35237,0.17415 0.0279,0.0734 -0.0822,0.19275 -0.0501,0.11265 -0.0486,0.11834 -0.0212,0.031 -0.31368,0.73587 -0.14727,-0.0641 0.37413,-1.04334 z m 0.53692,0.0325 0.24443,0.18449 0.27957,1.01957 -0.14935,0.0486 -0.31419,-1.02113 -0.005,-0.003 -0.002,-0.008 -0.0786,-0.16846 z m -0.47026,0.14263 0.108,0.2837 -0.41289,0.90434 -0.14573,-0.0584 0.4129,-0.98547 -0.002,-0.006 0.004,-0.007 z m 0.40204,0 0.0305,0.10129 0.0336,0.11885 0.0388,0.12196 0.004,0.0372 0.23047,0.76585 -0.15399,0.0455 -0.3266,-0.8909 z m -2.34094,0.39119 0.17725,0.26355 -0.54363,0.35037 -0.15193,-0.22583 z m 4.30878,0.31523 0.48214,0.43149 -0.17776,0.20671 -0.51108,-0.39688 z m -3.18378,0.72398 0.29352,0.12248 -0.26097,0.59169 -0.25166,-0.1049 z m 1.87637,0.0491 0.17932,0.62166 -0.26045,0.0806 -0.22221,-0.60823 z"/></g></svg>