<svg xmlns="http://www.w3.org/2000/svg" xmlns:svg="http://www.w3.org/2000/svg" id="svg44409" width="34" height="34" version="1.1" viewBox="0 0 8.996 8.996"><g id="layer1" transform="translate(-32.403169,-90.44177)"><path id="rect3293" style="fill:#4a0;fill-opacity:1;stroke:none;stroke-width:.529167;stroke-dasharray:none" d="m 34.429919,90.769399 6.719486,6.854358 v -1.891871 l -4.864819,-4.962487 z m 3.709334,0 3.010152,3.070096 v -1.890323 l -1.156518,-1.179773 z m -5.362463,0.204121 -0.09302,0.09095 v 1.705839 l 6.337081,6.464718 h 1.854667 z m -0.09302,3.689698 v 1.890319 l 2.62878,2.68149 h 1.853634 z"/><path id="path424-0-2-4" style="color:#000;fill:#000;fill-opacity:1;stroke-width:.264583;stroke-linecap:round;stroke-linejoin:round;-inkscape-stroke:none" d="m 32.667752,90.44177 c -0.146119,1.5e-5 -0.264568,0.118464 -0.264583,0.264583 v 8.466664 c 1.5e-5,0.14612 0.118464,0.26457 0.264583,0.26459 h 8.466666 c 0.146119,-2e-5 0.26457,-0.11847 0.264583,-0.26459 v -8.466664 c -1.3e-5,-0.146119 -0.118464,-0.264568 -0.264583,-0.264583 z m 0.264584,0.529167 h 7.937499 v 7.9375 c -7.937499,0 0,0 -7.937499,0 z"/><path id="path2348-9-4" style="opacity:.25;stroke-width:.128552" d="m 37.976059,91.243916 c 0.139618,0.0032 0.317023,0.06163 0.532254,0.175776 0.327387,0.172086 0.66409,0.436415 1.010115,0.793061 0.346025,0.356647 0.600056,0.701185 0.762168,1.033623 0.195481,0.392941 0.210645,0.656697 0.04576,0.791343 l -0.0064,0.0065 c -0.136134,0.169674 -0.273425,0.306746 -0.41198,0.411815 l -0.264935,0.513761 -0.274066,-0.432186 c -0.04521,-0.01465 -0.09197,-0.03163 -0.142062,-0.05358 l -0.146914,-0.0728 -0.06389,-0.02668 0.0067,-0.0065 -0.05103,-0.02649 -0.12739,-0.07908 -0.14005,-0.09213 c -0.117252,-0.08646 -0.23566,-0.185047 -0.355314,-0.293399 l -0.49626,0.146228 0.126307,-0.510999 C 37.73132,93.256009 37.534487,92.99728 37.389027,92.746326 l -0.01277,-0.02505 -0.481014,-0.06842 0.3009,-0.378919 -0.04185,-0.16122 3.97e-4,-0.02571 0.01499,-0.141216 0.007,-0.04476 0.07888,-0.114533 c 0.113858,-0.16113 0.268464,-0.31085 0.463407,-0.449327 0.06285,-0.06467 0.148557,-0.09573 0.257149,-0.09327 z"/><path id="path2348-9" d="m 40.427596,93.90729 q 0.24733,-0.201968 -0.04589,-0.791381 -0.243168,-0.498658 -0.762206,-1.033628 -0.519038,-0.53497 -1.010119,-0.793099 -0.57395,-0.304379 -0.789437,-0.08264 -0.292416,0.207716 -0.463206,0.449411 l -0.07887,0.114518 -0.0071,0.04489 -0.01499,0.141197 -3.97e-4,0.02571 0.07898,0.303326 0.0746,0.168265 0.02493,0.0518 0.05619,0.110132 q 0.244333,0.421535 0.681085,0.871693 0.322816,0.332726 0.634333,0.562427 l 0.140031,0.09211 0.127372,0.07907 0.05103,0.02648 -0.0065,0.0063 0.06388,0.02668 0.146749,0.07293 q 0.440638,0.193082 0.629835,0.0095 0.233893,-0.163601 0.463206,-0.449411 l 0.0065,-0.0063 m -2.215285,-1.865562 q 0.375592,0.243526 0.774365,0.65454 0.386114,0.397965 0.618371,0.767892 -0.38883,-0.218011 -0.793933,-0.635549 -0.392462,-0.404474 -0.598818,-0.786866" style="stroke-width:.128552"/><path id="path2350-8" style="fill:#4a0;fill-opacity:1;stroke-width:.128552" d="m 38.050612,91.254887 c 0.120575,-0.0029 0.280454,0.04686 0.479797,0.148981 0.314598,0.167607 0.638571,0.423169 0.971936,0.766767 0.337586,0.347948 0.58746,0.683849 0.749702,1.007718 0.153672,0.32374 0.17412,0.540415 0.06104,0.65013 l -0.0067,0.0065 c -0.144177,0.182099 -0.29211,0.325346 -0.44369,0.430193 -0.149837,0.126439 -0.32467,0.07739 -0.50736,-0.02681 l -0.127583,-0.06622 c -0.0034,-0.0012 -0.0056,-0.0029 -0.0088,-0.0041 l -0.0041,0.0039 -0.01921,-0.01429 c -0.0101,-0.0057 -0.01855,-0.01187 -0.02515,-0.01867 l -0.06389,-0.02668 -0.114534,-0.07888 -0.127389,-0.07908 c -0.203389,-0.148814 -0.412668,-0.334045 -0.627878,-0.555862 -0.278508,-0.287057 -0.494935,-0.566717 -0.649384,-0.839042 l -0.05634,-0.110005 -0.02513,-0.03896 1.94e-4,-0.01286 -0.0748,-0.155432 c -0.01167,-0.02925 -0.02148,-0.05731 -0.03044,-0.08447 l -3.17e-4,2.89e-4 -8.21e-4,-0.0032 5e-6,-2.94e-4 c -0.02211,-0.0676 -0.03629,-0.128969 -0.04152,-0.183503 -7.93e-4,-0.04716 -0.03865,-0.09488 0.01499,-0.141216 l 0.0067,-0.0065 0.04592,-0.06988 c 0.113873,-0.161131 0.261811,-0.304664 0.443707,-0.430481 l 0.0064,-0.0062 c 0.04402,-0.03951 0.10235,-0.06022 0.174695,-0.06194 z m -0.03162,0.220687 c -0.03696,-1.7e-5 -0.07037,0.0051 -0.100528,0.01534 -0.02239,0.06395 -0.01947,0.154023 0.0088,0.27016 l 0.08669,0.219904 0.01866,0.03229 c 0.141272,0.293553 0.363912,0.597031 0.667739,0.910184 0.308047,0.317502 0.608877,0.553564 0.902247,0.707993 l 0.04456,0.01982 c 0.08504,0.04414 0.157458,0.07525 0.217183,0.09329 l 0.25044,0.01036 c 0.04888,-0.114972 0.01521,-0.289259 -0.101257,-0.52244 -0.149841,-0.293683 -0.378738,-0.599256 -0.686785,-0.916758 -0.303826,-0.313153 -0.598119,-0.54683 -0.882919,-0.70113 -0.172166,-0.0926 -0.313911,-0.138936 -0.424799,-0.139005 z"/><path id="path2543" style="fill:#fff;fill-opacity:1;stroke:none;stroke-width:.00747988;stroke-dashoffset:14.7;stroke-opacity:1" d="m 38.192627,91.349329 c 0.03122,0.0035 0.06268,0.0092 0.09287,0.01855 0.01953,0.0071 0.04182,0.0075 0.05884,0.02061 0.07498,0.02928 0.149524,0.06547 0.222308,0.09451 0.0462,0.04282 0.110772,0.06375 0.162203,0.101033 0.40049,0.25143 0.73871,0.59037 1.038264,0.953503 0.112981,0.1379 0.209849,0.288428 0.304254,0.438928 0.01986,0.01381 0.01943,0.04619 0.03443,0.06653 0.02945,0.06605 0.06365,0.1304 0.09535,0.194604 -1.53e-4,0.02465 0.01716,0.04291 0.02649,0.06212 -0.0044,0.02888 0.01485,0.05553 0.02481,0.07924 5.82e-4,0.05644 0.01771,0.113517 0.01113,0.171042 0.0017,0.08169 -0.04426,0.16457 -0.120146,0.197918 -0.0054,-9.78e-4 -0.0088,-0.0033 -0.01163,-0.0059 -0.01354,0.04301 -0.07014,0.01449 -0.103756,0.02101 -0.08733,-0.0036 -0.17907,-8e-5 -0.258522,-0.04277 -0.387151,-0.162132 -0.716926,-0.433159 -1.013134,-0.725671 -0.343226,-0.3455 -0.660258,-0.736141 -0.82652,-1.199757 -0.03458,-0.09343 -0.04526,-0.197619 -0.02582,-0.295277 0.0071,-0.01549 0.01974,-0.0233 0.0347,-0.02748 -0.01379,-0.0095 -0.0163,-0.02613 0.0087,-0.0453 0.04886,-0.05943 0.128393,-0.08239 0.203188,-0.07722 0.01403,-3.01e-4 0.02797,-5.45e-4 0.04201,-2.28e-4 z"/><path style="fill:#000;fill-opacity:1;stroke:#000;stroke-width:0" id="path2240" d="m 38.743004,93.118914 -0.789065,0.783581"/><path id="path2242" style="fill:#fff;fill-opacity:1;stroke:#000;stroke-width:0" d="M 39.982941,93.939089 C 39.835944,93.790107 39.740259,93.83603 39.660903,93.832587 l 0.01588,0.844138 0.353425,-0.684784 c -0.01634,-0.01985 -0.03206,-0.03744 -0.04726,-0.05285 z m -2.108343,-1.908186 -0.844642,0.311287 0.813475,0.116283 c 0.152306,-0.249675 0.05797,-0.338048 0.03117,-0.42757 z m 0.953586,1.169556 c -0.03025,-0.03062 -0.06132,-0.05434 -0.0851,-0.08147 l -0.789187,0.783586 0.973696,-0.287151 c 0.02951,-0.246642 -0.03286,-0.347602 -0.09941,-0.41496 z"/><path id="path2244" style="fill:#000;fill-opacity:1;stroke:#000;stroke-width:0" d="m 37.741838,91.803012 c -0.06604,-0.06929 -0.133723,-0.08819 -0.201471,-0.103142 l -0.510411,0.64232 0.844642,-0.311287 c -0.04324,-0.109453 -0.08757,-0.180482 -0.13276,-0.227891 z m 1.919065,2.029575 c -0.271463,0.0114 -0.33877,0.101001 -0.3962,0.194344 l 0.412077,0.649794 z M 38.743086,93.118984 C 38.485134,92.870917 38.33851,92.888519 38.197368,92.918809 l -0.243469,0.983761 z"/><path style="fill:#000;fill-opacity:1;stroke:#000;stroke-width:0" id="path2240-0" d="m 37.811123,92.099821 -0.693927,0.689104"/><path style="fill:#000;fill-opacity:1;stroke:#000;stroke-width:.0129298;stroke-dasharray:none" id="path5850" d="m 39.425369,92.15873 c -0.251099,-0.264904 -0.540789,-0.494223 -0.860308,-0.671012 -0.103333,-0.0474 -0.205483,-0.102929 -0.316923,-0.128589 -0.09622,-0.01403 -0.207798,-0.02012 -0.285154,0.05022 -0.01585,0.01389 -0.04511,0.03828 -0.02895,0.06048 -0.04817,0.02778 -0.03357,0.09437 -0.03717,0.140577 0.0012,0.148979 0.07183,0.285332 0.132517,0.417696 0.166204,0.333337 0.395923,0.632096 0.659629,0.894079 0.29223,0.307067 0.62373,0.586694 1.010506,0.766597 0.07547,0.03602 0.154176,0.07045 0.239557,0.06941 0.07216,9.79e-4 0.149731,0.0186 0.216794,-0.01641 0.07467,-0.043 0.114169,-0.131253 0.107712,-0.215947 -4.5e-4,-0.07147 -0.01013,-0.14309 -0.03514,-0.210062 -0.0093,-0.04382 -0.03454,-0.08189 -0.05057,-0.123839 -0.0529,-0.11393 -0.105025,-0.228761 -0.179449,-0.330704 -0.154072,-0.245445 -0.342151,-0.467268 -0.545048,-0.67351 -0.0093,-0.0097 -0.01867,-0.01932 -0.02801,-0.02898 z"/><path id="path5921" style="fill:#fff;fill-opacity:1;stroke:none;stroke-width:.0883883;stroke-dasharray:none" d="m 15.851562,12.101562 c -2.616515,6.9e-4 -5.243807,0.390703 -7.6894526,1.291016 a 0.41091855,0.41091855 0 0 1 -0.00195,0.002 c -0.8757505,0.320804 -1.7082459,0.758258 -2.1425781,1.482422 -0.1361719,0.29768 -0.211923,0.578632 -0.1464843,0.707031 L 5.7363281,15.431641 c 0.1022363,0.06939 0.1833732,0.188874 0.2148438,0.283203 0.026998,0.08092 0.027379,0.128514 0.029297,0.164062 a 0.41091855,0.41091855 0 0 1 0.00391,0.0059 c 0.5047622,0.772786 1.4215322,1.215449 2.375,1.544922 a 0.41091855,0.41091855 0 0 1 0.00391,0.002 c 2.6350738,0.93841 5.4671238,1.258461 8.2773438,1.179687 a 0.41091855,0.41091855 0 0 1 0.0098,0 c 1.947387,-0.01144 3.888614,-0.156193 5.761718,-0.605469 l -0.002,0.002 c 1.149044,-0.282695 2.285209,-0.574327 3.261719,-1.121093 0.506783,-0.374307 0.982656,-0.761269 1.275391,-1.228516 0.110818,-0.209183 0.118657,-0.437151 0.03906,-0.681641 -0.08028,-0.246583 -0.255911,-0.492788 -0.458984,-0.65625 a 0.41091855,0.41091855 0 0 1 -0.02539,-0.02344 c -0.812791,-0.773774 -2.005552,-1.076079 -3.195312,-1.455078 -0.0012,-3.27e-4 -0.0027,3.26e-4 -0.0039,0 -1.558743,-0.41274 -3.175287,-0.624802 -4.796875,-0.697266 h -0.0039 c -0.882043,-0.03099 -1.766823,-0.0445 -2.650391,-0.04297 z" transform="matrix(0.10140269,0.10543437,-0.10543437,0.10140269,39.029117,89.271277)"/><path id="path2348-9-4-0" style="opacity:.25;stroke-width:.128552" d="m 34.057781,91.651847 c 0.139618,0.0032 0.317023,0.06163 0.532254,0.175776 0.327387,0.172086 0.66409,0.436415 1.010115,0.793061 0.346025,0.356647 0.600056,0.701185 0.762168,1.033624 0.195482,0.392941 0.210645,0.656697 0.04576,0.791342 l -0.0064,0.0065 c -0.136133,0.169674 -0.273424,0.306746 -0.41198,0.411815 l -0.264934,0.513761 -0.274067,-0.432185 c -0.04521,-0.01465 -0.09197,-0.03163 -0.14206,-0.05358 l -0.146914,-0.0728 -0.06389,-0.02668 0.0067,-0.0065 -0.05103,-0.02649 -0.127389,-0.07908 -0.14005,-0.09213 c -0.117252,-0.08646 -0.23566,-0.185048 -0.355314,-0.2934 l -0.49626,0.146229 0.126307,-0.511 C 33.813043,93.66394 33.61621,93.405211 33.470751,93.154257 l -0.01276,-0.02505 -0.481015,-0.06842 0.300901,-0.378919 -0.04185,-0.16122 3.89e-4,-0.02571 0.01499,-0.141216 0.007,-0.04476 0.07888,-0.114534 c 0.11386,-0.16113 0.268465,-0.31085 0.463409,-0.449327 0.06285,-0.06467 0.148558,-0.09573 0.257149,-0.09327 z"/><path id="path2348-9-2" d="m 36.509318,94.315222 q 0.24733,-0.201969 -0.04589,-0.791381 -0.243168,-0.498659 -0.762206,-1.033629 -0.519038,-0.53497 -1.010118,-0.793099 -0.573951,-0.304379 -0.789438,-0.08264 -0.292415,0.207715 -0.463206,0.449411 l -0.07887,0.114518 -0.0071,0.04489 -0.01499,0.141197 -3.89e-4,0.02571 0.07898,0.303326 0.0746,0.168265 0.02493,0.0518 0.05619,0.110131 q 0.244334,0.421536 0.681085,0.871693 0.322817,0.332726 0.634333,0.562427 l 0.140032,0.09211 0.127371,0.07906 0.05103,0.02648 -0.0065,0.0063 0.06388,0.02668 0.146749,0.07293 q 0.440638,0.193083 0.629834,0.0095 0.233895,-0.163602 0.463207,-0.449411 l 0.0065,-0.0063 m -2.215294,-1.865562 q 0.375592,0.243527 0.774365,0.65454 0.386113,0.397966 0.618371,0.767893 -0.388834,-0.218014 -0.793937,-0.635551 -0.392443,-0.40449 -0.598799,-0.786882" style="stroke-width:.128552"/><path id="path2350-8-1" style="fill:#4a0;fill-opacity:1;stroke-width:.128552" d="m 34.132334,91.662818 c 0.120575,-0.0029 0.280455,0.04686 0.479797,0.148981 0.314598,0.167607 0.638571,0.423169 0.971937,0.766767 0.337585,0.347948 0.58746,0.683849 0.749701,1.007718 0.153672,0.32374 0.17412,0.540416 0.06104,0.650131 l -0.0067,0.0065 c -0.144176,0.1821 -0.29211,0.325347 -0.44369,0.430195 -0.149837,0.126438 -0.324669,0.07739 -0.50736,-0.02681 l -0.127583,-0.06622 c -0.0034,-0.0012 -0.0056,-0.0029 -0.0088,-0.0041 l -0.0041,0.0039 -0.01921,-0.01429 c -0.0101,-0.0057 -0.01856,-0.01187 -0.02515,-0.01867 l -0.06389,-0.02668 -0.114533,-0.07888 -0.12739,-0.07908 c -0.203387,-0.148813 -0.412666,-0.334045 -0.627877,-0.555861 -0.278508,-0.287057 -0.494934,-0.566717 -0.649384,-0.839042 l -0.05634,-0.110006 -0.02513,-0.03896 1.94e-4,-0.01285 -0.0748,-0.155432 c -0.01167,-0.02925 -0.02148,-0.05731 -0.03044,-0.08447 l -2.96e-4,2.88e-4 -8.15e-4,-0.0032 4e-6,-2.93e-4 c -0.02211,-0.0676 -0.03629,-0.128969 -0.04152,-0.183503 -7.83e-4,-0.04716 -0.03866,-0.09488 0.01499,-0.141216 l 0.0067,-0.0065 0.04592,-0.06988 c 0.113873,-0.161132 0.261811,-0.304664 0.443707,-0.430481 l 0.0064,-0.0062 c 0.04399,-0.03951 0.102323,-0.06022 0.174668,-0.06194 z m -0.03162,0.220687 c -0.03696,-1.7e-5 -0.07037,0.0051 -0.100528,0.01534 -0.02239,0.06395 -0.01947,0.154022 0.0088,0.270159 l 0.08668,0.219904 0.01866,0.03229 c 0.141271,0.293554 0.363912,0.597031 0.667738,0.910184 0.308047,0.317502 0.608878,0.553564 0.902247,0.707993 l 0.04456,0.01982 c 0.08504,0.04414 0.157458,0.07525 0.217183,0.09329 l 0.250441,0.01036 c 0.04888,-0.114972 0.01521,-0.28926 -0.101257,-0.52244 -0.149841,-0.293681 -0.378738,-0.599254 -0.686784,-0.916756 -0.303827,-0.313153 -0.59812,-0.54683 -0.88292,-0.701129 -0.172166,-0.0926 -0.313911,-0.138937 -0.424799,-0.139006 z"/><path id="path2543-3" style="fill:#fff;fill-opacity:1;stroke:none;stroke-width:.00747988;stroke-dashoffset:14.7;stroke-opacity:1" d="m 34.27435,91.75726 c 0.03122,0.0035 0.06268,0.0092 0.09287,0.01855 0.01953,0.0071 0.04182,0.0075 0.05884,0.02061 0.07498,0.02928 0.149524,0.06547 0.222308,0.09451 0.0462,0.04282 0.110772,0.06376 0.162203,0.101034 0.40049,0.251429 0.73871,0.590369 1.038265,0.953502 0.112981,0.137901 0.209848,0.288428 0.304253,0.438928 0.01986,0.01381 0.01943,0.04619 0.03443,0.06653 0.02945,0.06605 0.06365,0.130401 0.09535,0.194604 -1.53e-4,0.02465 0.01716,0.04291 0.02649,0.06212 -0.0044,0.02888 0.01485,0.05553 0.0248,0.07924 5.83e-4,0.05644 0.01771,0.113517 0.01113,0.171042 0.0017,0.08169 -0.04426,0.16457 -0.120147,0.197919 -0.0054,-9.79e-4 -0.0088,-0.0033 -0.01163,-0.0059 -0.01354,0.04301 -0.07014,0.01449 -0.103757,0.021 -0.08733,-0.0036 -0.17907,-8.2e-5 -0.258521,-0.04277 -0.38715,-0.162132 -0.716924,-0.433159 -1.013132,-0.725671 -0.343227,-0.345498 -0.66026,-0.736138 -0.826521,-1.199755 -0.03458,-0.09343 -0.04526,-0.197619 -0.02583,-0.295277 0.0071,-0.01549 0.01974,-0.0233 0.0347,-0.02748 -0.01379,-0.0095 -0.01631,-0.02613 0.0087,-0.0453 0.04886,-0.05943 0.128392,-0.08238 0.203187,-0.07722 0.01403,-3.01e-4 0.02797,-5.45e-4 0.04201,-2.28e-4 z"/><path style="fill:#000;fill-opacity:1;stroke:#000;stroke-width:0" id="path2240-7" d="m 34.824727,93.526845 -0.789066,0.783581"/><path id="path2242-3" style="fill:#fff;fill-opacity:1;stroke:#000;stroke-width:0" d="m 36.064663,94.347021 c -0.146997,-0.148983 -0.242681,-0.10306 -0.322038,-0.106502 l 0.01587,0.844137 0.353425,-0.684783 c -0.01634,-0.01985 -0.03206,-0.03744 -0.04726,-0.05285 z m -2.108343,-1.908187 -0.844641,0.311288 0.813474,0.116283 c 0.152306,-0.249676 0.05797,-0.338048 0.03117,-0.427571 z m 0.953586,1.169556 c -0.03025,-0.03062 -0.06132,-0.05434 -0.0851,-0.08147 l -0.789186,0.783586 0.973695,-0.28715 c 0.02951,-0.246642 -0.03286,-0.347603 -0.09941,-0.414961 z"/><path id="path2244-9" style="fill:#000;fill-opacity:1;stroke:#000;stroke-width:0" d="m 33.82356,92.210943 c -0.06604,-0.06929 -0.133723,-0.08818 -0.20147,-0.103142 l -0.510411,0.642321 0.844641,-0.311288 c -0.04324,-0.109452 -0.08757,-0.180482 -0.13276,-0.227891 z m 1.919065,2.029576 c -0.271463,0.0114 -0.33877,0.101 -0.3962,0.194343 l 0.412077,0.649794 z M 34.824808,93.526915 C 34.566856,93.278848 34.420233,93.296451 34.27909,93.32674 l -0.243468,0.983761 z"/><path style="fill:#000;fill-opacity:1;stroke:#000;stroke-width:0" id="path2240-0-1" d="m 33.892845,92.507752 -0.693927,0.689104"/><path style="fill:#000;fill-opacity:1;stroke:#000;stroke-width:.0129298;stroke-dasharray:none" id="path5850-6" d="m 35.507091,92.566662 c -0.251099,-0.264905 -0.540789,-0.494224 -0.860308,-0.671013 -0.103334,-0.0474 -0.205482,-0.102929 -0.316923,-0.128588 -0.09622,-0.01404 -0.207798,-0.02012 -0.285154,0.05022 -0.01585,0.01389 -0.04511,0.03828 -0.02895,0.06048 -0.04817,0.02779 -0.03357,0.09437 -0.03717,0.140577 0.0012,0.148979 0.07182,0.285333 0.132517,0.417696 0.166204,0.333337 0.395922,0.632096 0.659629,0.89408 0.292229,0.307067 0.623729,0.586694 1.010505,0.766596 0.07547,0.03602 0.154176,0.07045 0.239557,0.06941 0.07216,9.79e-4 0.149731,0.01861 0.216795,-0.01641 0.07467,-0.04301 0.114169,-0.131253 0.107712,-0.215946 -4.5e-4,-0.07147 -0.01013,-0.14309 -0.03514,-0.210063 -0.0093,-0.04382 -0.03454,-0.08188 -0.05057,-0.123838 -0.0529,-0.11393 -0.105025,-0.228761 -0.179449,-0.330704 -0.154071,-0.245445 -0.34215,-0.467268 -0.545047,-0.67351 -0.0093,-0.0097 -0.01867,-0.01932 -0.02801,-0.02898 z"/><path id="path5921-5" style="fill:#fff;fill-opacity:1;stroke:none;stroke-width:.0883883;stroke-dasharray:none" d="m 15.851562,12.101562 c -2.616515,6.9e-4 -5.243807,0.390703 -7.6894526,1.291016 a 0.41091855,0.41091855 0 0 1 -0.00195,0.002 c -0.8757505,0.320804 -1.7082459,0.758258 -2.1425781,1.482422 -0.1361719,0.29768 -0.211923,0.578632 -0.1464843,0.707031 L 5.7363281,15.431641 c 0.1022363,0.06939 0.1833732,0.188874 0.2148438,0.283203 0.026998,0.08092 0.027379,0.128514 0.029297,0.164062 a 0.41091855,0.41091855 0 0 1 0.00391,0.0059 c 0.5047622,0.772786 1.4215322,1.215449 2.375,1.544922 a 0.41091855,0.41091855 0 0 1 0.00391,0.002 c 2.6350738,0.93841 5.4671238,1.258461 8.2773438,1.179687 a 0.41091855,0.41091855 0 0 1 0.0098,0 c 1.947387,-0.01144 3.888614,-0.156193 5.761718,-0.605469 l -0.002,0.002 c 1.149044,-0.282695 2.285209,-0.574327 3.261719,-1.121093 0.506783,-0.374307 0.982656,-0.761269 1.275391,-1.228516 0.110818,-0.209183 0.118657,-0.437151 0.03906,-0.681641 -0.08028,-0.246583 -0.255911,-0.492788 -0.458984,-0.65625 a 0.41091855,0.41091855 0 0 1 -0.02539,-0.02344 c -0.812791,-0.773774 -2.005552,-1.076079 -3.195312,-1.455078 -0.0012,-3.27e-4 -0.0027,3.26e-4 -0.0039,0 -1.558743,-0.41274 -3.175287,-0.624802 -4.796875,-0.697266 h -0.0039 c -0.882043,-0.03099 -1.766823,-0.0445 -2.650391,-0.04297 z" transform="matrix(0.10140269,0.10543437,-0.10543437,0.10140269,35.110839,89.679208)"/><path id="path2348-9-4-9" style="opacity:.25;stroke-width:.128552" d="m 37.428413,95.209249 c 0.139618,0.0032 0.317022,0.06163 0.532253,0.175776 0.327387,0.172086 0.66409,0.436412 1.010115,0.793062 0.346025,0.35665 0.600057,0.70118 0.762168,1.03362 0.195482,0.39294 0.210645,0.6567 0.04576,0.79134 l -0.0064,0.006 c -0.136133,0.16967 -0.273424,0.30675 -0.41198,0.41181 l -0.264934,0.51377 -0.274067,-0.43219 c -0.04521,-0.0147 -0.09197,-0.0316 -0.142061,-0.0536 l -0.146915,-0.0728 -0.06389,-0.0267 0.0067,-0.006 -0.05103,-0.0265 -0.127389,-0.0791 -0.14005,-0.0921 c -0.117256,-0.0865 -0.235663,-0.18505 -0.355318,-0.2934 l -0.49626,0.14622 0.126308,-0.51099 c -0.247754,-0.26617 -0.444587,-0.5249 -0.590047,-0.77586 l -0.01277,-0.025 -0.481014,-0.0684 0.3009,-0.37892 -0.04185,-0.16122 3.97e-4,-0.0257 0.01499,-0.14122 0.007,-0.0448 0.07888,-0.114538 c 0.113859,-0.16113 0.268465,-0.31085 0.463408,-0.449327 0.06285,-0.06467 0.148558,-0.09573 0.25715,-0.09327 z"/><path id="path2348-9-20" d="m 39.879949,97.872627 q 0.247331,-0.20197 -0.04589,-0.79138 -0.243168,-0.49866 -0.762206,-1.03363 -0.519038,-0.534973 -1.010119,-0.793102 -0.57395,-0.304379 -0.789438,-0.08265 -0.292415,0.207716 -0.463206,0.449411 l -0.07887,0.114519 -0.0071,0.04489 -0.01499,0.1412 -3.97e-4,0.0257 0.07898,0.30332 0.0746,0.16827 0.02493,0.0518 0.05619,0.11013 q 0.244334,0.42154 0.681085,0.8717 0.322816,0.33272 0.634333,0.56242 l 0.140031,0.0921 0.127372,0.0791 0.05103,0.0265 -0.0065,0.006 0.06388,0.0267 0.14675,0.0729 q 0.440637,0.19308 0.629834,0.01 0.233894,-0.16361 0.463206,-0.44942 l 0.0065,-0.006 m -2.215302,-1.86605 q 0.375591,0.24353 0.774364,0.65454 0.386114,0.39797 0.618371,0.76789 -0.388833,-0.21801 -0.793936,-0.63555 -0.392444,-0.40449 -0.598799,-0.78688" style="stroke-width:.128552"/><path id="path2350-8-4" style="fill:#4a0;fill-opacity:1;stroke-width:.128552" d="m 37.502966,95.22022 c 0.120574,-0.0029 0.280454,0.04686 0.479796,0.148981 0.314598,0.167607 0.638572,0.423166 0.971937,0.766766 0.337585,0.34795 0.58746,0.68385 0.749701,1.00772 0.153672,0.32374 0.17412,0.54041 0.06104,0.65013 l -0.0067,0.006 c -0.144176,0.1821 -0.29211,0.32535 -0.443689,0.4302 -0.149837,0.12643 -0.32467,0.0774 -0.50736,-0.0268 l -0.127583,-0.0662 c -0.0034,-0.001 -0.0056,-0.003 -0.0088,-0.004 l -0.0041,0.004 -0.01921,-0.0143 c -0.0101,-0.006 -0.01856,-0.0119 -0.02515,-0.0187 l -0.06389,-0.0267 -0.114533,-0.0789 -0.127389,-0.0791 c -0.203458,-0.14879 -0.412737,-0.33402 -0.627948,-0.55583 -0.278508,-0.28706 -0.494934,-0.56672 -0.649383,-0.83905 l -0.05634,-0.11 -0.02513,-0.039 1.94e-4,-0.0129 -0.0748,-0.15544 c -0.01167,-0.0292 -0.02148,-0.0573 -0.03044,-0.0845 l -3.18e-4,2.9e-4 -8.2e-4,-0.003 4e-6,-2.9e-4 c -0.02211,-0.0676 -0.03629,-0.12897 -0.04152,-0.1835 -7.94e-4,-0.0472 -0.03866,-0.0949 0.01499,-0.14122 l 0.0067,-0.006 0.04592,-0.06988 c 0.113874,-0.161132 0.261811,-0.304664 0.443707,-0.430481 l 0.0064,-0.0062 c 0.04399,-0.03951 0.102323,-0.06022 0.174667,-0.06194 z m -0.03162,0.220687 c -0.03696,-1.8e-5 -0.07037,0.0051 -0.100527,0.01534 -0.0224,0.06394 -0.01947,0.154022 0.0088,0.270159 l 0.08669,0.219901 0.01866,0.0323 c 0.141272,0.29355 0.363912,0.59703 0.667739,0.91018 0.308046,0.31751 0.608877,0.55357 0.902246,0.708 l 0.04456,0.0198 c 0.08505,0.0441 0.157458,0.0752 0.217184,0.0933 l 0.25044,0.0104 c 0.04888,-0.11497 0.01521,-0.28926 -0.101257,-0.52244 -0.149841,-0.29368 -0.378738,-0.59925 -0.686784,-0.91675 -0.303827,-0.31316 -0.59812,-0.546835 -0.88292,-0.701134 -0.172166,-0.0926 -0.313911,-0.138937 -0.424799,-0.139006 z"/><path id="path2543-9" style="fill:#fff;fill-opacity:1;stroke:none;stroke-width:.00747988;stroke-dashoffset:14.7;stroke-opacity:1" d="m 37.644981,95.314662 c 0.03122,0.0035 0.06268,0.0092 0.09287,0.01855 0.01953,0.0071 0.04182,0.0075 0.05884,0.02061 0.07499,0.02928 0.149524,0.06547 0.222308,0.09451 0.0462,0.04282 0.110773,0.06375 0.162204,0.101033 0.40049,0.251432 0.73871,0.590372 1.038264,0.953502 0.112981,0.1379 0.209848,0.28843 0.304253,0.43893 0.01986,0.0138 0.01943,0.0462 0.03443,0.0665 0.02945,0.0661 0.06365,0.1304 0.09535,0.19461 -1.53e-4,0.0247 0.01716,0.0429 0.02649,0.0621 -0.0044,0.0289 0.01485,0.0555 0.02481,0.0792 5.82e-4,0.0564 0.01771,0.11352 0.01113,0.17104 0.0017,0.0817 -0.04426,0.16457 -0.120146,0.19792 -0.0054,-9.8e-4 -0.0088,-0.003 -0.01163,-0.006 -0.01354,0.043 -0.07014,0.0145 -0.103756,0.021 -0.08733,-0.004 -0.17907,-8e-5 -0.258522,-0.0428 -0.387151,-0.16214 -0.716926,-0.43316 -1.013134,-0.72568 -0.343227,-0.34549 -0.660259,-0.73613 -0.826521,-1.199749 -0.03457,-0.09343 -0.04526,-0.197618 -0.02583,-0.295277 0.0071,-0.01549 0.01974,-0.0233 0.0347,-0.02748 -0.01379,-0.0095 -0.0163,-0.02613 0.0087,-0.0453 0.04886,-0.05943 0.128393,-0.08238 0.203188,-0.07722 0.01404,-3.17e-4 0.02797,-5.29e-4 0.04201,-2.28e-4 z"/><path style="fill:#000;fill-opacity:1;stroke:#000;stroke-width:0" id="path2240-6" d="m 38.195358,97.084247 -0.789065,0.78358"/><path id="path2242-6" style="fill:#fff;fill-opacity:1;stroke:#000;stroke-width:0" d="m 39.435295,97.904427 c -0.146998,-0.14899 -0.242682,-0.10306 -0.322038,-0.10651 l 0.01587,0.84414 0.353425,-0.68478 c -0.01634,-0.0199 -0.03206,-0.0374 -0.04726,-0.0529 z m -2.108343,-1.90819 -0.844642,0.31129 0.813474,0.11628 c 0.152306,-0.24968 0.05797,-0.33805 0.03117,-0.42757 z m 0.953586,1.16955 c -0.03025,-0.0306 -0.06132,-0.0543 -0.0851,-0.0815 l -0.789186,0.78359 0.973696,-0.28715 c 0.02951,-0.24665 -0.03286,-0.34761 -0.09941,-0.41497 z"/><path id="path2244-2" style="fill:#000;fill-opacity:1;stroke:#000;stroke-width:0" d="m 37.194191,95.768347 c -0.06604,-0.06929 -0.133722,-0.08819 -0.20147,-0.103144 l -0.510411,0.642324 0.844642,-0.31129 c -0.04324,-0.10945 -0.08757,-0.18048 -0.132761,-0.22789 z m 1.919066,2.02957 c -0.271463,0.0114 -0.338771,0.101 -0.396201,0.19435 l 0.412077,0.64979 z m -0.917818,-0.7136 c -0.257952,-0.24807 -0.404575,-0.23046 -0.545717,-0.20017 l -0.243469,0.98376 z"/><path style="fill:#000;fill-opacity:1;stroke:#000;stroke-width:0" id="path2240-0-6" d="m 37.263476,96.065157 -0.693927,0.6891"/><path style="fill:#000;fill-opacity:1;stroke:#000;stroke-width:.0129298;stroke-dasharray:none" id="path5850-3" d="m 38.877722,96.124067 c -0.251099,-0.26491 -0.540788,-0.494227 -0.860307,-0.671016 -0.103334,-0.0474 -0.205483,-0.102929 -0.316924,-0.128588 -0.09622,-0.01404 -0.207798,-0.02012 -0.285154,0.05022 -0.01585,0.01389 -0.04511,0.03828 -0.02895,0.06048 -0.04817,0.02778 -0.03357,0.09437 -0.03717,0.140577 0.0012,0.148979 0.07182,0.285337 0.132518,0.417697 0.166204,0.33334 0.395922,0.6321 0.659629,0.89408 0.292229,0.30707 0.623729,0.5867 1.010505,0.7666 0.07547,0.036 0.154176,0.0705 0.239557,0.0694 0.07216,9.8e-4 0.149731,0.0186 0.216794,-0.0164 0.07467,-0.043 0.11417,-0.13125 0.107713,-0.21595 -4.5e-4,-0.0715 -0.01013,-0.14309 -0.03514,-0.21006 -0.0093,-0.0438 -0.03454,-0.0819 -0.05057,-0.12384 -0.0529,-0.11393 -0.105025,-0.22876 -0.179449,-0.3307 -0.154071,-0.24545 -0.342151,-0.46727 -0.545048,-0.67351 -0.0093,-0.01 -0.01867,-0.0193 -0.02801,-0.029 z"/><path id="path5921-0" style="fill:#fff;fill-opacity:1;stroke:none;stroke-width:.0883883;stroke-dasharray:none" d="m 15.851562,12.101562 c -2.616515,6.9e-4 -5.243807,0.390703 -7.6894526,1.291016 a 0.41091855,0.41091855 0 0 1 -0.00195,0.002 c -0.8757505,0.320804 -1.7082459,0.758258 -2.1425781,1.482422 -0.1361719,0.29768 -0.211923,0.578632 -0.1464843,0.707031 L 5.7363281,15.431641 c 0.1022363,0.06939 0.1833732,0.188874 0.2148438,0.283203 0.026998,0.08092 0.027379,0.128514 0.029297,0.164062 a 0.41091855,0.41091855 0 0 1 0.00391,0.0059 c 0.5047622,0.772786 1.4215322,1.215449 2.375,1.544922 a 0.41091855,0.41091855 0 0 1 0.00391,0.002 c 2.6350738,0.93841 5.4671238,1.258461 8.2773438,1.179687 a 0.41091855,0.41091855 0 0 1 0.0098,0 c 1.947387,-0.01144 3.888614,-0.156193 5.761718,-0.605469 l -0.002,0.002 c 1.149044,-0.282695 2.285209,-0.574327 3.261719,-1.121093 0.506783,-0.374307 0.982656,-0.761269 1.275391,-1.228516 0.110818,-0.209183 0.118657,-0.437151 0.03906,-0.681641 -0.08028,-0.246583 -0.255911,-0.492788 -0.458984,-0.65625 a 0.41091855,0.41091855 0 0 1 -0.02539,-0.02344 c -0.812791,-0.773774 -2.005552,-1.076079 -3.195312,-1.455078 -0.0012,-3.27e-4 -0.0027,3.26e-4 -0.0039,0 -1.558743,-0.41274 -3.175287,-0.624802 -4.796875,-0.697266 h -0.0039 c -0.882043,-0.03099 -1.766823,-0.0445 -2.650391,-0.04297 z" transform="matrix(0.10140269,0.10543437,-0.10543437,0.10140269,38.48147,93.23661)"/><path style="fill:#000;fill-opacity:1;stroke:none;stroke-width:.557718;stroke-dasharray:none" id="path9150" d="m 32.667752,98.719017 3.294014,-2.94544 -2.649154,3.32887 -0.557716,0.0523 z"/><path style="fill:#000;fill-opacity:1;stroke:none;stroke-width:.393851;stroke-dasharray:none" id="path9150-4" d="m 33.547899,98.934177 2.326185,-2.08003 -1.870794,2.3508 -0.393852,0.0369 z"/><path style="fill:#000;fill-opacity:1;stroke:none;stroke-width:.37369;stroke-dasharray:none" id="path9150-4-3" d="m 32.490241,98.211347 2.207106,-1.97355 -1.775027,2.23046 -0.37369,0.035 z"/><path style="fill:#000;fill-opacity:1;stroke:none;stroke-width:.275982;stroke-dasharray:none" id="path9150-4-9" d="m 33.822226,99.167777 1.630027,-1.45753 -1.310921,1.64727 -0.275984,0.0259 z"/><path style="fill:#000;fill-opacity:1;stroke:none;stroke-width:.261855;stroke-dasharray:none" id="path9150-4-9-0" d="m 32.440163,97.877037 1.546585,-1.38292 -1.243814,1.56295 -0.261856,0.0246 z"/></g></svg>