<?xml version="1.0" encoding="UTF-8" standalone="no"?>
<!-- Created with Inkscape (http://www.inkscape.org/) -->

<svg
   width="8.9958305mm"
   height="8.9958296mm"
   viewBox="0 0 8.9958305 8.9958296"
   version="1.1"
   id="svg1964"
   inkscape:version="1.2.2 (732a01da63, 2022-12-09)"
   sodipodi:docname="tripleBoost.svg"
   xmlns:inkscape="http://www.inkscape.org/namespaces/inkscape"
   xmlns:sodipodi="http://sodipodi.sourceforge.net/DTD/sodipodi-0.dtd"
   xmlns="http://www.w3.org/2000/svg"
   xmlns:svg="http://www.w3.org/2000/svg">
  <sodipodi:namedview
     id="namedview1966"
     pagecolor="#ffffff"
     bordercolor="#000000"
     borderopacity="0.25"
     inkscape:showpageshadow="2"
     inkscape:pageopacity="0.0"
     inkscape:pagecheckerboard="0"
     inkscape:deskcolor="#d1d1d1"
     inkscape:document-units="mm"
     showgrid="false"
     inkscape:zoom="11.816274"
     inkscape:cx="18.576076"
     inkscape:cy="20.988003"
     inkscape:window-width="1920"
     inkscape:window-height="1009"
     inkscape:window-x="-8"
     inkscape:window-y="-8"
     inkscape:window-maximized="1"
     inkscape:current-layer="layer1" />
  <defs
     id="defs1961" />
  <g
     inkscape:label="Calque 1"
     inkscape:groupmode="layer"
     id="layer1"
     transform="translate(-21.297018,-126.98459)">
    <path
       fill="#cccc00"
       fill-rule="evenodd"
       stroke="none"
       d="m 21.627404,135.71561 v -8.46667 h 8.466665 v 8.46667 h -8.466665"
       id="path1694-1-6-0-0-2-4-2-9-6-7-3"
       style="fill:#9e009e;fill-opacity:1;stroke-width:0.264583"
       inkscape:export-filename="victoire.png"
       inkscape:export-xdpi="90.352943"
       inkscape:export-ydpi="90.352943" />
    <path
       id="path1694-1-6-0-0-2-4-2-9-6-7-3-7-8"
       style="fill:#000000;fill-opacity:1;stroke-width:0.264583"
       d="m 25.81988,127.61376 c -0.0023,-0.002 -0.0043,-0.001 -0.0057,5.3e-4 -0.0016,0.002 -0.0025,0.006 -0.0031,0.0124 -0.0037,0.0352 -0.0071,0.0447 -0.05219,0.14521 -0.02302,0.0513 -0.04186,0.0961 -0.04186,0.0997 0,0.004 -0.02896,0.0706 -0.06408,0.14831 -0.132243,0.29269 -0.131102,0.28928 -0.125057,0.4408 0.0053,0.13381 0.0086,0.14456 0.04961,0.15038 0.04175,0.006 0.04411,0.0138 0.03876,0.13436 l -0.0057,0.12764 -0.216525,0.14573 c -0.119063,0.0801 -0.216693,0.15749 -0.21704,0.17156 -9e-4,0.0393 0.625258,1.2568 0.63872,1.24179 0.0065,-0.007 0.145189,-0.2757 0.308508,-0.59687 0.200732,-0.39474 0.289784,-0.58873 0.274919,-0.59841 -0.01209,-0.008 -0.105213,-0.0914 -0.207222,-0.18552 l -0.185521,-0.17106 v -0.13281 c 0,-0.12002 0.0034,-0.13281 0.03824,-0.13281 0.03571,0 0.03876,-0.0128 0.03876,-0.17208 0,-0.16392 -0.0057,-0.18726 -0.118856,-0.48731 -0.08842,-0.2345 -0.12845,-0.33101 -0.144694,-0.34158 z m 1.137915,0.015 c -0.0035,7.9e-4 -0.0057,0.004 -0.0057,0.009 0,0.004 0.02565,0.0579 0.05736,0.12041 0.03171,0.0625 0.05774,0.14172 0.05788,0.17622 l 5.29e-4,0.063 h -0.21239 -0.21239 v -0.0889 c 0,-0.10438 0.0038,-0.10484 -0.191203,0.0202 l -0.139009,0.0889 0.0062,0.091 0.0057,0.0915 h 0.08113 c 0.07769,0 0.08006,0.002 0.05323,0.0388 -0.01543,0.0212 -0.04147,0.0625 -0.05788,0.092 -0.01641,0.0295 -0.06443,0.10707 -0.106454,0.17209 -0.08323,0.12877 -0.09462,0.20069 -0.04237,0.26458 0.04528,0.0554 0.166416,0.0611 0.213423,0.01 0.01862,-0.0203 0.09234,-0.15636 0.164331,-0.30231 0.072,-0.14595 0.13687,-0.26539 0.144178,-0.26562 0.0073,-2.5e-4 0.178668,-0.003 0.380338,-0.005 l 0.366386,-0.004 0.0052,-0.0677 c 0.0042,-0.0571 -0.005,-0.075 -0.05994,-0.11576 -0.294786,-0.21876 -0.418062,-0.31645 -0.418062,-0.33176 0,-0.01 -0.0084,-0.0123 -0.01912,-0.006 -0.01069,0.007 -0.02464,-0.001 -0.03101,-0.0181 -0.0074,-0.0193 -0.02967,-0.0344 -0.04031,-0.032 z m -2.34611,0.009 c -0.0043,-0.004 -0.135354,0.0885 -0.290938,0.20671 -0.262709,0.19955 -0.28267,0.21948 -0.28267,0.27802 0,0.0841 0.02223,0.0887 0.437182,0.0858 0.185868,-0.001 0.340201,5.3e-4 0.343132,0.004 0.0029,0.004 0.06482,0.12632 0.137976,0.27285 0.101454,0.20323 0.148036,0.2752 0.19482,0.30438 0.07855,0.049 0.146511,0.0333 0.196371,-0.0455 0.04642,-0.0733 0.03971,-0.0943 -0.105937,-0.31781 -0.06006,-0.0921 -0.110531,-0.18037 -0.111621,-0.19585 -0.0014,-0.0195 0.01898,-0.0285 0.06563,-0.0295 0.06619,-0.001 0.06778,-0.004 0.07338,-0.0894 l 0.0057,-0.0873 -0.127641,-0.0811 c -0.07014,-0.0447 -0.135774,-0.0816 -0.145728,-0.0816 -0.01,0 -0.01809,-0.009 -0.01809,-0.0191 0,-0.0106 -0.0085,-0.0191 -0.01912,-0.0191 -0.01061,0 -0.01912,0.0391 -0.01912,0.0868 v 0.0868 h -0.220659 c -0.213797,0 -0.221026,-0.001 -0.227893,-0.0434 -0.0039,-0.0239 0.02219,-0.10296 0.05788,-0.1757 0.03568,-0.0727 0.06167,-0.13573 0.05736,-0.14004 z m 2.323373,0.93793 c -0.0084,0 -0.04781,0.1808 -0.08733,0.40204 -0.03953,0.22124 -0.07599,0.43204 -0.08113,0.46819 -0.01479,0.10394 -0.02056,0.11135 -0.09819,0.12351 -0.146065,0.0229 -0.21108,0.0486 -0.271818,0.108 -0.03402,0.0333 -0.05758,0.0678 -0.05219,0.0765 0.0054,0.009 9.26e-4,0.0212 -0.0098,0.0279 -0.02784,0.0172 -0.02438,0.11554 0.0067,0.18862 0.03819,0.0897 0.118576,0.14998 0.254248,0.19068 0.288227,0.0865 0.50411,0.30694 0.576709,0.5886 0.03832,0.14866 0.03956,0.43322 0.0026,0.62631 -0.04337,0.22666 -0.105556,0.44491 -0.146761,0.51522 -0.05788,0.0987 -0.04526,0.10619 0.05426,0.031 0.106718,-0.0806 0.193948,-0.18469 0.277503,-0.33073 0.03588,-0.0627 0.07991,-0.11213 0.110587,-0.12402 0.05866,-0.0227 0.06466,-0.0211 0.649056,0.20464 0.664532,0.25663 1.947682,0.74744 1.979724,0.75706 0.02544,0.008 0.01944,-0.0326 -0.03462,-0.23823 -0.0358,-0.13612 -0.09382,-0.35884 -0.129191,-0.49454 -0.03538,-0.13571 -0.06926,-0.25168 -0.07545,-0.25787 -0.0062,-0.006 -0.122537,-0.0277 -0.258382,-0.0475 -0.135831,-0.0198 -0.576961,-0.0839 -0.980302,-0.14263 -0.403341,-0.0587 -0.802888,-0.11715 -0.887801,-0.13022 l -0.154512,-0.0238 -0.0057,-0.0884 c -0.0032,-0.0484 0.0031,-0.11098 0.01395,-0.13952 0.01619,-0.0426 0.03176,-0.0522 0.08682,-0.0522 0.0369,0 0.352085,-0.0253 0.700216,-0.0563 0.348133,-0.031 0.765209,-0.0673 0.927075,-0.0806 0.185531,-0.0153 0.294556,-0.0322 0.294556,-0.0455 0,-0.0116 -0.01156,-0.0385 -0.02584,-0.0594 -0.01428,-0.0209 -0.07651,-0.13336 -0.137976,-0.25012 -0.212688,-0.40398 -0.264225,-0.49247 -0.288871,-0.49247 -0.02167,0 -0.312997,0.11005 -1.337386,0.50436 -0.14061,0.0541 -0.266707,0.094 -0.280087,0.0889 -0.01338,-0.005 -0.04031,-0.0539 -0.05994,-0.10852 -0.04294,-0.1194 -0.04145,-0.12131 0.151412,-0.25425 0.07461,-0.0514 0.277271,-0.19739 0.450102,-0.32401 0.172832,-0.12661 0.387134,-0.28096 0.476457,-0.34313 0.08933,-0.0622 0.162631,-0.11768 0.16278,-0.12299 2.29e-4,-0.008 -0.526791,-0.3859 -0.559655,-0.40101 -0.01027,-0.005 -0.405526,0.43639 -0.785483,0.87643 l -0.120923,0.14056 -0.06873,-0.0408 c -0.03778,-0.0223 -0.07267,-0.0509 -0.07751,-0.0636 -0.0048,-0.0126 0.0879,-0.2678 0.206189,-0.56741 0.118292,-0.29961 0.211681,-0.54796 0.207739,-0.5519 -0.0065,-0.006 -0.536726,-0.0868 -0.573091,-0.0868 z m -2.314588,0.005 c -0.05107,-0.003 -0.135385,0.0142 -0.28112,0.0351 -0.136814,0.0197 -0.252112,0.0387 -0.255798,0.0424 -0.0037,0.004 0.07222,0.20169 0.168465,0.43977 0.09624,0.23807 0.181981,0.45457 0.190686,0.4811 0.0087,0.0265 0.02959,0.0806 0.04651,0.11989 l 0.03101,0.0713 -0.0832,0.0574 -0.0832,0.0574 -0.268718,-0.30128 c -0.147931,-0.16542 -0.27774,-0.31017 -0.288354,-0.32194 -0.01061,-0.0118 -0.08477,-0.095 -0.164331,-0.185 -0.178612,-0.20196 -0.187647,-0.21187 -0.199988,-0.21187 -0.0055,0 -0.136982,0.0907 -0.291972,0.20153 -0.271992,0.19453 -0.280216,0.20253 -0.236678,0.22686 0.02481,0.0139 0.148144,0.0989 0.273885,0.18914 0.356767,0.25598 0.477189,0.34171 0.568958,0.40463 0.101877,0.0698 0.314716,0.22681 0.380338,0.2806 l 0.04703,0.0388 -0.03876,0.10438 c -0.02125,0.0576 -0.04648,0.11263 -0.05581,0.12196 -0.0098,0.01 -0.08994,-0.0114 -0.188619,-0.0501 -0.171055,-0.0671 -0.345417,-0.1332 -0.875915,-0.33073 -0.153907,-0.0573 -0.327646,-0.12262 -0.386024,-0.14521 -0.124242,-0.0481 -0.217673,-0.0782 -0.223759,-0.0718 -0.0081,0.008 -0.232631,0.40945 -0.315742,0.56379 -0.04557,0.0846 -0.09533,0.17385 -0.111105,0.19792 -0.03702,0.0565 -0.04356,0.0544 0.313159,0.0816 0.159214,0.0122 0.532725,0.0434 0.829924,0.0693 0.297199,0.0258 0.618124,0.0534 0.713651,0.0615 l 0.17415,0.015 v 0.13487 0.1354 l -0.17415,0.0232 c -0.09553,0.013 -0.615601,0.0878 -1.156001,0.16588 -0.978234,0.14142 -0.982782,0.14216 -0.989604,0.18862 -0.0012,0.008 -0.0077,0.0288 -0.01085,0.0424 v 0.84129 c 0.319531,-0.11904 0.469747,-0.17537 0.815454,-0.30696 0.228206,-0.0869 0.480049,-0.18218 0.559656,-0.21187 0.07961,-0.0297 0.344185,-0.12978 0.588077,-0.22221 0.352686,-0.13367 0.453225,-0.16467 0.490927,-0.15141 0.03151,0.0111 0.07262,0.0634 0.122473,0.15606 0.05078,0.0944 0.11562,0.17707 0.201538,0.2558 0.31495,0.31824 0.03287,-0.23482 -0.0067,-0.3669 -0.04409,-0.16895 -0.05242,-0.24244 -0.05271,-0.45269 -2.52e-4,-0.23177 0.0035,-0.26123 0.05426,-0.38602 0.113002,-0.27759 0.238613,-0.3839 0.61495,-0.52038 0.10254,-0.0372 0.150906,-0.0805 0.195853,-0.17519 0.09232,-0.19454 -0.03964,-0.3621 -0.317293,-0.40256 l -0.08682,-0.0124 -0.04496,-0.24546 c -0.02467,-0.13507 -0.0634,-0.35663 -0.08578,-0.49196 -0.02965,-0.17924 -0.02185,-0.23663 -0.10697,-0.24081 z m -0.575159,3.32124 -2.36678,0.98857 v 2.72645 l 0.05684,0.20257 h 0.642855 l 2.099613,-3.22719 c -0.302566,-0.11912 -0.441763,-0.35303 -0.432532,-0.6904 z m 3.671611,0.047 c 0.0092,0.33737 -0.129965,0.57076 -0.432532,0.68988 l 2.070158,3.18068 h 0.685746 l 0.104903,-0.37362 v -2.48305 z" />
    <g
       id="g1581"
       transform="matrix(0.21705993,0,0,0.21705993,13.623633,125.62783)">
      <path
         id="path802-4-7"
         style="opacity:0.2;fill:#000000;stroke-width:0.301675"
         d="M 57.026096,24.315864 46.607281,42.423066 h 20.837631 z m 0,1.113041 9.41447,16.415901 -18.968069,0.04638 z m -4.684045,8.207226 4.63767,8.208675 4.730423,-8.162298 z m 1.020287,0.602897 7.327517,0.04637 -3.802889,6.260855 z" />
      <g
         id="g1575">
        <path
           id="path797-2"
           style="fill:#ffffff;stroke-width:0.301675"
           d="m 56.021577,24.850384 -9.552887,16.462528 18.966927,-0.04662 z m -4.68345,8.207951 9.367413,0.04611 -4.730075,8.161839 z" />
        <path
           id="path802-8"
           style="fill:#000000;stroke-width:0.301675"
           d="M 56.02175,23.737604 45.602935,41.844806 h 20.837631 z m 0,1.113041 9.41447,16.415901 -18.968069,0.04638 z m -4.684045,8.207226 4.63767,8.208675 4.730423,-8.162298 z m 1.020287,0.602897 7.327517,0.04637 -3.802889,6.260855 z" />
      </g>
    </g>
    <path
       id="path1694-1-6-0-0-2-4-2-9-6-7-3-7"
       style="fill:#ffffff;fill-opacity:1;stroke-width:0.264583"
       d="m 25.768682,127.50934 c -0.0023,-0.002 -0.0043,-10e-4 -0.0057,5.3e-4 -0.0016,0.002 -0.0025,0.006 -0.0031,0.0124 -0.0037,0.0352 -0.0071,0.0447 -0.05219,0.14521 -0.02302,0.0513 -0.04186,0.0961 -0.04186,0.0997 0,0.004 -0.02896,0.0706 -0.06408,0.14831 -0.132243,0.29269 -0.131102,0.28928 -0.125058,0.4408 0.0053,0.13381 0.0086,0.14456 0.04961,0.15038 0.04175,0.006 0.04411,0.0138 0.03876,0.13436 l -0.0057,0.12764 -0.216524,0.14572 c -0.119064,0.0802 -0.216693,0.1575 -0.217041,0.17157 -9e-4,0.0393 0.625258,1.2568 0.638721,1.24178 0.0065,-0.007 0.145189,-0.27569 0.308508,-0.59686 0.200732,-0.39474 0.289783,-0.58873 0.274918,-0.59841 -0.01209,-0.008 -0.105213,-0.0914 -0.207222,-0.18552 l -0.185521,-0.17106 v -0.13281 c 0,-0.12003 0.0034,-0.13281 0.03824,-0.13281 0.03571,0 0.03876,-0.0128 0.03876,-0.17208 0,-0.16392 -0.0057,-0.18726 -0.118855,-0.48731 -0.08842,-0.2345 -0.128451,-0.33102 -0.144694,-0.34158 z m 1.137915,0.015 c -0.0035,7.9e-4 -0.0057,0.004 -0.0057,0.009 0,0.004 0.02565,0.0579 0.05736,0.12041 0.03171,0.0625 0.05774,0.14172 0.05788,0.17621 l 5.29e-4,0.0631 h -0.21239 -0.21239 v -0.0889 c 0,-0.10438 0.0038,-0.10484 -0.191203,0.0202 l -0.13901,0.0889 0.0062,0.091 0.0057,0.0915 h 0.08113 c 0.07769,0 0.08006,0.002 0.05323,0.0388 -0.01543,0.0212 -0.04147,0.0625 -0.05788,0.092 -0.01641,0.0295 -0.06443,0.10707 -0.106454,0.17208 -0.08323,0.12877 -0.09462,0.2007 -0.04238,0.26459 0.04528,0.0554 0.166416,0.0611 0.213424,0.01 0.01862,-0.0203 0.09233,-0.15636 0.164331,-0.30231 0.072,-0.14595 0.136869,-0.26539 0.144177,-0.26562 0.0073,-2.5e-4 0.178668,-0.003 0.380339,-0.005 l 0.366386,-0.004 0.0052,-0.0677 c 0.0042,-0.0571 -0.005,-0.075 -0.05994,-0.11575 -0.294785,-0.21876 -0.418062,-0.31645 -0.418062,-0.33176 0,-0.01 -0.0084,-0.0123 -0.01912,-0.006 -0.01069,0.007 -0.02464,-0.001 -0.03101,-0.0181 -0.0074,-0.0193 -0.02967,-0.0344 -0.04031,-0.032 z m -2.34611,0.009 c -0.0043,-0.004 -0.135354,0.0885 -0.290939,0.20671 -0.262708,0.19955 -0.28267,0.21948 -0.28267,0.27801 0,0.0841 0.02224,0.0887 0.437183,0.0858 0.185868,-0.001 0.3402,5.3e-4 0.343131,0.004 0.0029,0.004 0.06482,0.12632 0.137976,0.27285 0.101455,0.20323 0.148036,0.2752 0.194821,0.30438 0.07855,0.049 0.146511,0.0333 0.19637,-0.0455 0.04642,-0.0733 0.03971,-0.0943 -0.105937,-0.31781 -0.06006,-0.0922 -0.110531,-0.18037 -0.111621,-0.19585 -0.0014,-0.0195 0.01898,-0.0285 0.06563,-0.0295 0.06619,-0.001 0.06778,-0.004 0.07338,-0.0894 l 0.0057,-0.0873 -0.127641,-0.0811 c -0.07014,-0.0447 -0.135774,-0.0816 -0.145727,-0.0816 -0.01,0 -0.01809,-0.009 -0.01809,-0.0191 0,-0.0106 -0.0085,-0.0191 -0.01912,-0.0191 -0.01061,0 -0.01912,0.0391 -0.01912,0.0868 v 0.0868 h -0.220658 c -0.213797,0 -0.221026,-0.001 -0.227893,-0.0434 -0.0039,-0.0239 0.02219,-0.10297 0.05788,-0.1757 0.03568,-0.0727 0.06167,-0.13573 0.05736,-0.14004 z m 2.323372,0.93793 c -0.0084,0 -0.04781,0.1808 -0.08733,0.40204 -0.03953,0.22124 -0.07599,0.43203 -0.08113,0.46819 -0.01479,0.10394 -0.02056,0.11135 -0.09819,0.1235 -0.146066,0.0229 -0.211081,0.0486 -0.271818,0.10801 -0.03402,0.0333 -0.05758,0.0678 -0.05219,0.0765 0.0054,0.009 9.26e-4,0.0212 -0.0098,0.0279 -0.02784,0.0172 -0.02438,0.11555 0.0067,0.18862 0.03819,0.0897 0.118576,0.14999 0.254249,0.19069 0.288227,0.0865 0.504109,0.30694 0.576709,0.58859 0.03832,0.14867 0.03956,0.43322 0.0026,0.62632 -0.04337,0.22666 -0.105555,0.44491 -0.146761,0.51522 -0.05788,0.0988 -0.04526,0.10618 0.05426,0.031 0.106718,-0.0806 0.193949,-0.18469 0.277503,-0.33073 0.03588,-0.0627 0.07991,-0.11213 0.110587,-0.12402 0.05866,-0.0227 0.06466,-0.0211 0.649057,0.20464 0.664532,0.25663 1.947681,0.74744 1.979724,0.75706 0.02544,0.008 0.01944,-0.0327 -0.03462,-0.23823 -0.0358,-0.13612 -0.09382,-0.35884 -0.129191,-0.49454 -0.03537,-0.13571 -0.06926,-0.25168 -0.07545,-0.25787 -0.0062,-0.006 -0.122538,-0.0277 -0.258382,-0.0475 -0.135831,-0.0199 -0.576962,-0.0839 -0.980302,-0.14263 -0.403342,-0.0587 -0.802888,-0.11716 -0.887801,-0.13022 l -0.154513,-0.0238 -0.0057,-0.0884 c -0.0032,-0.0484 0.0031,-0.11099 0.01395,-0.13953 0.01619,-0.0426 0.03176,-0.0522 0.08682,-0.0522 0.0369,0 0.352084,-0.0253 0.700215,-0.0563 0.348133,-0.031 0.765209,-0.0673 0.927075,-0.0806 0.185531,-0.0153 0.294556,-0.0322 0.294556,-0.0455 0,-0.0116 -0.01155,-0.0385 -0.02584,-0.0594 -0.01428,-0.0209 -0.07651,-0.13336 -0.137976,-0.25012 -0.212688,-0.40398 -0.264226,-0.49248 -0.288871,-0.49248 -0.02167,0 -0.312997,0.11005 -1.337386,0.50437 -0.140611,0.0541 -0.266708,0.094 -0.280087,0.0889 -0.01338,-0.005 -0.04032,-0.0539 -0.05994,-0.10852 -0.04293,-0.1194 -0.04144,-0.12131 0.151413,-0.25425 0.07461,-0.0514 0.277271,-0.19739 0.450101,-0.32401 0.172832,-0.12662 0.387134,-0.28096 0.476457,-0.34313 0.08933,-0.0622 0.162631,-0.11768 0.162781,-0.12299 2.29e-4,-0.008 -0.526792,-0.3859 -0.559656,-0.40101 -0.01027,-0.005 -0.405525,0.43639 -0.785482,0.87643 l -0.120923,0.14056 -0.06873,-0.0408 c -0.03778,-0.0223 -0.07267,-0.0509 -0.07751,-0.0636 -0.0048,-0.0126 0.0879,-0.26781 0.206189,-0.56741 0.118292,-0.29961 0.211681,-0.54796 0.207739,-0.55191 -0.0065,-0.006 -0.536727,-0.0868 -0.573092,-0.0868 z m -2.314587,0.005 c -0.05107,-0.003 -0.135386,0.0142 -0.28112,0.0351 -0.136814,0.0197 -0.252113,0.0387 -0.255799,0.0424 -0.0037,0.004 0.07222,0.20169 0.168466,0.43977 0.09624,0.23807 0.18198,0.45457 0.190686,0.4811 0.0087,0.0265 0.02959,0.0806 0.04651,0.11989 l 0.03101,0.0713 -0.0832,0.0574 -0.0832,0.0574 -0.268717,-0.30128 c -0.147932,-0.16542 -0.27774,-0.31017 -0.288355,-0.32194 -0.01061,-0.0118 -0.08477,-0.095 -0.164331,-0.185 -0.178612,-0.20196 -0.187646,-0.21188 -0.199987,-0.21188 -0.0055,0 -0.136982,0.0907 -0.291972,0.20154 -0.271992,0.19453 -0.280217,0.20253 -0.236678,0.22686 0.02481,0.0139 0.148144,0.0989 0.273885,0.18914 0.356766,0.25598 0.477189,0.34171 0.568957,0.40462 0.101878,0.0699 0.314716,0.22682 0.380339,0.28061 l 0.04702,0.0388 -0.03876,0.10439 c -0.02125,0.0576 -0.04648,0.11263 -0.05581,0.12196 -0.0098,0.01 -0.08994,-0.0114 -0.188619,-0.0501 -0.171054,-0.0671 -0.345417,-0.1332 -0.875915,-0.33073 -0.153906,-0.0573 -0.327645,-0.12262 -0.386023,-0.14521 -0.124242,-0.0481 -0.217674,-0.0782 -0.223759,-0.0718 -0.0081,0.008 -0.232632,0.40945 -0.315743,0.56379 -0.04556,0.0846 -0.09533,0.17385 -0.111104,0.19792 -0.03702,0.0565 -0.04356,0.0544 0.313159,0.0817 0.159214,0.0121 0.532725,0.0434 0.829923,0.0692 0.2972,0.0258 0.618124,0.0534 0.713652,0.0615 l 0.174149,0.015 v 0.13487 0.1354 l -0.174149,0.0232 c -0.09553,0.013 -0.615601,0.0878 -1.156002,0.16588 -0.978234,0.14142 -0.982781,0.14216 -0.989603,0.18862 -0.0012,0.008 -0.0077,0.0288 -0.01085,0.0424 v 0.84129 c 0.319531,-0.11904 0.469748,-0.17537 0.815455,-0.30696 0.228206,-0.0869 0.480048,-0.18218 0.559655,-0.21187 0.07961,-0.0297 0.344186,-0.12978 0.588078,-0.22221 0.352686,-0.13367 0.453225,-0.16467 0.490926,-0.15141 0.03151,0.0111 0.07262,0.0634 0.122473,0.15606 0.05078,0.0944 0.11562,0.17707 0.201538,0.2558 0.314951,0.31824 0.03287,-0.23482 -0.0067,-0.36691 -0.04409,-0.16894 -0.05242,-0.24243 -0.05271,-0.45268 -2.51e-4,-0.23177 0.0035,-0.26123 0.05426,-0.38602 0.113001,-0.27759 0.238613,-0.3839 0.614949,-0.52039 0.10254,-0.0372 0.150907,-0.0805 0.195854,-0.17518 0.09232,-0.19454 -0.03964,-0.3621 -0.317293,-0.40256 l -0.08682,-0.0124 -0.04496,-0.24546 c -0.02467,-0.13507 -0.0634,-0.35663 -0.08578,-0.49196 -0.02965,-0.17924 -0.02185,-0.23664 -0.10697,-0.24081 z m -0.575159,3.32125 -2.366781,0.98857 v 2.72645 l 0.05684,0.20257 h 0.642854 l 2.099614,-3.22719 c -0.302566,-0.11912 -0.441763,-0.35303 -0.432532,-0.6904 z m 3.671611,0.047 c 0.0092,0.33738 -0.129966,0.57077 -0.432532,0.68988 l 2.070158,3.18069 h 0.685746 l 0.104903,-0.37362 v -2.48305 z" />
    <path
       style="color:#000000;fill:#000000;fill-opacity:1;stroke-width:0.264583;stroke-linecap:round;stroke-linejoin:round;-inkscape-stroke:none"
       d="m 21.561601,126.98459 a 0.26460979,0.26460979 0 0 0 -0.264583,0.26458 v 8.46667 a 0.26460979,0.26460979 0 0 0 0.264583,0.26458 h 8.466665 a 0.26460979,0.26460979 0 0 0 0.264583,-0.26458 v -8.46667 a 0.26460979,0.26460979 0 0 0 -0.264583,-0.26458 z m 0.264582,0.52917 h 7.937499 v 7.93749 h -7.937499 z"
       id="path424-0-7-3-0-1-8-4-0-5-6" />
  </g>
</svg>
