<svg xmlns="http://www.w3.org/2000/svg" xmlns:svg="http://www.w3.org/2000/svg" id="svg57" width="34" height="34" version="1.1"><g id="g37" transform="matrix(1.0, 0.0, 0.0, 1.0, 1, 1)"><g id="use35"><g id="use317"><path id="path321" fill="#cc0" fill-rule="evenodd" stroke="none" d="m 20.45,0 h 8.65 l -8.05,32 h -3.4 L 20.45,0 M 32,13.9 V 25.85 L 27.45,32 H 24.6 L 32,13.9 M 14.35,32 h -3.4 L 2.9,0 h 8.65 l 2.8,32 M 7.4,32 H 4.55 L 0.05,25.9 0,25.85 V 13.9 L 7.4,32" style="fill:#b3b3b3;fill-opacity:1"/><path id="path323" fill="#fcf9e0" fill-rule="evenodd" stroke="none" d="M 29.1,0 H 32 V 13.9 L 24.6,32 H 21.05 L 29.1,0 M 32,25.85 V 32 H 27.45 L 32,25.85 M 17.65,32 h -3.3 L 11.55,0 h 8.9 l -2.8,32 m -6.7,0 H 7.4 L 0,13.9 V 0 h 2.9 l 8.05,32 m -6.4,0 H 0 v -6.15 l 0.05,0.05 4.5,6.1" style="fill:#fff"/><path id="path327" fill="#fcf9e0" fill-rule="evenodd" stroke="none" d="m 26,11.35 q 1.75,2.05 1.75,4.7 0,3.8 -3.65,6.4 l -1.45,1.05 -1.1,0.7 -2.35,1.2 -3.75,1.1 L 14.8,26.35 12.55,25.65 9.4,24.1 8.3,23.4 8,23.2 7.45,22.8 7,22.45 Q 4.3,20.45 3.65,17.8 L 3.45,16.05 3.65,14.3 Q 4.3,11.6 7,9.6 9.6,7.55 13.35,8.9 l 0.1,0.05 1.75,0.8 0.15,0.05 Q 16.75,9.1 18,8.75 l 4.25,-0.1 1.1,0.45 0.75,0.5 q 1.15,0.8 1.9,1.75" style="fill:#fff"/><path id="path329" fill="none" stroke="#733c2f" stroke-linecap="round" stroke-linejoin="round" stroke-width="2" d="m 26,11.35 q 1.75,2.05 1.75,4.7 0,3.8 -3.65,6.4 l -1.45,1.05 -1.1,0.7 -2.35,1.2 -3.75,1.1 L 14.8,26.35 12.55,25.65 9.4,24.1 8.3,23.4 8,23.2 7.45,22.8 7,22.45 Q 4.3,20.45 3.65,17.8 L 3.45,16.05 3.65,14.3 Q 4.3,11.6 7,9.6 9.6,7.55 13.35,8.9 l 0.1,0.05 1.75,0.8 0.15,0.05 Q 16.75,9.1 18,8.75 l 4.25,-0.1 1.1,0.45 0.75,0.5 q 1.15,0.8 1.9,1.75 z" style="stroke:none"/><path id="path329-0" style="color:#000;fill:#000;stroke-linecap:round;stroke-linejoin:round;-inkscape-stroke:none" d="M 10.707031 7.3828125 C 10.387309 7.3777965 10.072858 7.3929423 9.7636719 7.4277344 C 8.5321705 7.5663129 7.3918741 8.0240323 6.3945312 8.8066406 C 4.4590056 10.243699 3.1706575 12.018879 2.6777344 14.066406 A 1.0001 1.0001 0 0 0 2.65625 14.185547 L 2.4570312 15.935547 A 1.0001 1.0001 0 0 0 2.4570312 16.164062 L 2.65625 17.914062 A 1.0001 1.0001 0 0 0 2.6796875 18.039062 C 3.1754684 20.060322 4.4653925 21.817681 6.4042969 23.253906 L 6.8359375 23.589844 A 1.0001 1.0001 0 0 0 6.8613281 23.609375 L 7.4121094 24.007812 A 1.0001 1.0001 0 0 0 7.4453125 24.03125 L 7.7460938 24.232422 A 1.0001 1.0001 0 0 0 7.7636719 24.244141 L 8.8632812 24.943359 A 1.0001 1.0001 0 0 0 8.9589844 24.998047 L 12.109375 26.546875 A 1.0001 1.0001 0 0 0 12.253906 26.605469 L 14.503906 27.304688 A 1.0001 1.0001 0 0 0 14.574219 27.324219 L 15.224609 27.474609 A 1.0001 1.0001 0 0 0 15.732422 27.458984 L 19.482422 26.359375 A 1.0001 1.0001 0 0 0 19.654297 26.291016 L 22.003906 25.089844 A 1.0001 1.0001 0 0 0 22.085938 25.042969 L 23.1875 24.34375 A 1.0001 1.0001 0 0 0 23.236328 24.310547 L 24.679688 23.263672 C 27.300523 21.396772 28.75 18.904284 28.75 16.050781 C 28.75 14.069369 28.065513 12.24085 26.767578 10.714844 C 26.200535 10.000628 25.500381 9.355649 24.671875 8.7792969 A 1.0001 1.0001 0 0 0 24.654297 8.7675781 L 23.904297 8.2675781 A 1.0001 1.0001 0 0 0 23.728516 8.1738281 L 22.628906 7.7246094 A 1.0001 1.0001 0 0 0 22.226562 7.6503906 L 17.976562 7.75 A 1.0001 1.0001 0 0 0 17.730469 7.7871094 C 16.970944 7.9997765 16.171822 8.3455812 15.361328 8.7246094 L 13.880859 8.046875 L 13.796875 8.0058594 A 1.0001 1.0001 0 0 0 13.689453 7.9589844 C 12.66905 7.5916392 11.666197 7.3978605 10.707031 7.3828125 z M 10.341797 9.3476562 C 11.130118 9.3204049 12.003487 9.4842415 12.992188 9.8378906 L 13.001953 9.84375 A 1.0001 1.0001 0 0 0 13.035156 9.859375 L 14.785156 10.660156 A 1.0001 1.0001 0 0 0 14.882812 10.699219 L 15.033203 10.748047 A 1.0001 1.0001 0 0 0 15.796875 10.695312 C 16.653266 10.267116 17.447034 9.9590599 18.185547 9.7460938 L 22.064453 9.6542969 L 22.878906 9.9882812 L 23.529297 10.421875 C 24.227291 10.907437 24.784281 11.423371 25.214844 11.96875 A 1.0001 1.0001 0 0 0 25.240234 12 C 26.26875 13.204833 26.75 14.504243 26.75 16.050781 C 26.75 18.263934 25.765352 20.035003 23.519531 21.634766 A 1.0001 1.0001 0 0 0 23.513672 21.640625 L 22.087891 22.671875 L 21.052734 23.330078 L 18.828125 24.466797 L 15.419922 25.466797 L 15.060547 25.384766 L 12.921875 24.71875 L 9.890625 23.226562 L 8.8457031 22.5625 L 8.5722656 22.378906 L 8.0507812 22 L 7.6132812 21.660156 A 1.0001 1.0001 0 0 0 7.5957031 21.646484 C 5.9428859 20.422174 5.0055599 19.086839 4.6308594 17.583984 L 4.4570312 16.050781 L 4.6308594 14.515625 C 5.0066499 12.975066 5.9444522 11.627446 7.5957031 10.404297 A 1.0001 1.0001 0 0 0 7.6191406 10.384766 C 8.3521216 9.8068366 9.1298462 9.4652582 10.009766 9.3710938 C 10.119035 9.3594003 10.22918 9.3515493 10.341797 9.3476562 z M 20.75 10.300781 L 20.75 10.449219 L 19.800781 12.650391 C 19.167449 13.917056 18.334114 14.015884 17.300781 12.949219 L 15.25 11.199219 C 13.850001 10.999219 12.483723 11.016667 11.150391 11.25 C 9.1837259 11.483333 8.0170569 12.566669 7.6503906 14.5 C 7.5170574 15.366666 7.5674481 16.232944 7.8007812 17.099609 C 8.0341144 17.999608 8.5496102 18.633334 9.3496094 19 L 11.800781 19.5 L 15 20.099609 L 16.449219 20.5 L 16.349609 21.300781 L 13.349609 21.400391 C 12.982943 21.267057 12.667057 21.082942 12.400391 20.849609 L 11.550781 20.150391 C 10.550782 19.983724 9.8007808 20.332553 9.3007812 21.199219 C 10.967446 22.632551 13.000393 23.465886 15.400391 23.699219 C 16.40039 23.665885 17.367449 23.433333 18.300781 23 C 19.10078 22.733334 19.833334 22.316666 20.5 21.75 L 21.099609 20.949219 C 21.399609 20.082553 21.217447 19.367447 20.550781 18.800781 C 19.850782 18.267448 19.032942 18.083333 18.099609 18.25 L 14.75 18.550781 C 13.616668 18.384115 12.849218 17.866666 12.449219 17 C 12.615885 16.233334 13.100391 15.733333 13.900391 15.5 L 15.699219 15.5 L 17.75 15.949219 L 22 15.849609 C 22.733333 15.64961 23.283724 15.199999 23.650391 14.5 C 24.25039 13.400001 24.033332 12.45039 23 11.650391 L 22.150391 10.949219 L 20.75 10.300781 z"/></g></g></g><path d="M 0.999987,0 C 0.447723,3.78e-5 3.8e-5,0.4477228 0,0.9999874 V 33 c 3.8e-5,0.552264 0.447723,0.999949 0.999987,0.999987 H 33 C 33.552265,33.999949 33.99995,33.552264 33.999988,33 V 0.9999874 C 33.99995,0.4477228 33.552265,3.78e-5 33,0 Z M 1.999975,2.0000126 H 32.000013 V 32.000012 H 1.999975 Z" style="color:#000;display:inline;fill:#000;fill-opacity:1;stroke-width:.999999;stroke-linecap:round;stroke-linejoin:round;-inkscape-stroke:none" id="path2565-5"/></svg>