<svg xmlns="http://www.w3.org/2000/svg" xmlns:svg="http://www.w3.org/2000/svg" xmlns:xlink="http://www.w3.org/1999/xlink" id="svg4640" width="34" height="34" version="1.1"><g id="g4608" transform="matrix(1.0, 0.0, 0.0, 1.0, 1, 1)"><path id="path1694-1-6-0-0-2-4-2" fill="#cc0" fill-rule="evenodd" stroke="none" d="M 0.248706,31.999126 V -8.7e-4 H 32.248699 V 31.999126 H 0.248706" style="fill:#fff;fill-opacity:1"/><path id="path1694-1-6-0-0-2-4-2-9" style="fill:#4a0;fill-opacity:1" d="M 0.248702,-8.72e-4 V 1.0713938 L 1.391281,-8.72e-4 Z m 4.154297,0 -4.154297,3.9003908 v 1.115234 L 5.590499,-8.72e-4 Z m 2.832032,0 -6.986329,6.5585938 v 1.199219 L 8.512374,-8.72e-4 Z m 5.294922,0 -12.281251,11.529297 v 1.373047 L 13.99089,-8.72e-4 Z m 2.648437,0 L 0.248702,14.016706 V 31.999128 H 16.791671 L 32.248702,17.487409 V -8.72e-4 Z m 2.74414,0.4238278 0.34375,0.363282 L 1.133468,16.872175 0.791671,16.50694 Z m 13.117188,14.5136722 0.341797,0.365234 -17.132812,16.083985 -0.341797,-0.365235 z m 1.208984,3.666016 -14.271484,13.396484 h 1.46289 L 32.248702,19.973737 Z m 0,5.142578 -8.791016,8.253906 h 1.277344 l 7.513672,-7.052734 z m 0,2.74414 -5.869141,5.509766 h 1.1875 l 4.681641,-4.396484 z m 0,3.94336 -1.669922,1.566406 h 1.669922 z"/><path id="path5106-1" style="fill:#1b4600;fill-opacity:1;stroke:none;stroke-width:1.6;stroke-dashoffset:14.7" d="m 14.205903,3.8590051 c 1.190953,4.55539 1.622435,9.4834689 1.294922,14.7832039 l 0.0957,-0.002 0.173828,9.738282 3.392579,-0.04492 0.357421,-1.205078 0.402344,-2.72461 -0.357422,-2.457031 -0.357422,-1.205078 c 0,-0.119095 0.164677,-0.387855 0.492188,-0.804688 l 0.402344,-0.402343 -0.04492,-1.294922 -1.169922,0.02344 C 19.848446,9.9255053 18.28987,5.1223902 14.205903,3.8590051 Z m 1.25,1.5625 0.002,0.00195 c 0.151806,0.1149069 0.299629,0.2406302 0.439454,0.3730469 0.140132,0.1327768 0.27425,0.2734572 0.402343,0.4238281 C 16.171535,6.0700139 16.037464,5.9292328 15.89731,5.7965051 15.756814,5.6634549 15.610447,5.5388314 15.457856,5.4234582 c 0.01121,0.051648 0.02023,0.1045056 0.03125,0.15625 -0.01119,-0.052534 -0.02182,-0.1057687 -0.0332,-0.1582031 z m 0.84375,0.8007812 c 0.128042,0.1503911 0.25118,0.3085832 0.367188,0.4765625 C 16.550804,6.5309222 16.427723,6.3726264 16.299653,6.2222863 Z m 9.720703,0.109375 -0.03711,0.037109 -3.808594,0.9433594 -0.07617,0.076172 -0.03711,0.1113282 v 0.039063 l 0.603516,2.7148441 0.07422,0.07617 h 0.07617 l 0.03711,0.03711 0.376953,-0.113282 0.755859,3.734376 -1.736328,0.376953 h 0.03906 l -0.07617,0.03711 -0.03711,0.03906 v 0.03711 h -0.03906 v 0.07617 l 0.529297,2.1875 0.07422,0.07422 h 0.07617 l 0.03711,0.03906 1.396484,-0.378906 1.621094,9.203125 0.03906,0.113281 2.978516,2.564453 h 0.07617 0.07422 l 0.07617,-0.07422 1.660156,-3.621093 0.03711,-0.113281 -2.677734,-9.013672 1.433594,-0.302735 0.07422,-0.07422 0.03906,-0.113281 -0.490235,-2.1875 -0.07617,-0.07617 -0.03711,-0.03711 h -0.03906 l -0.03711,0.03711 -1.660156,0.414063 -1.054687,-3.6582035 0.414062,-0.1132813 0.03711,-0.037109 0.03906,-0.037109 V 9.2359582 L 26.1727,6.5191613 26.133638,6.4058801 26.020356,6.3687707 Z M 8.4129355,6.3746301 v 0.037109 l -0.113282,0.03711 -0.039062,0.1132813 -0.603516,2.7148437 v 0.1132813 l 0.039063,0.039063 0.037109,0.037109 0.416016,0.1132813 -1.056641,3.6582033 -1.660156,-0.414063 -0.03711,-0.03906 h -0.037109 l -0.039062,0.03906 -0.074219,0.07422 -0.490234,2.1875 0.037109,0.113281 0.074219,0.07617 1.433593,0.300781 -2.677734,9.015625 0.039063,0.113282 1.658203,3.61914 0.076171,0.07617 h 0.074219 0.076172 l 2.980469,-2.564453 0.037109,-0.113281 1.6210945,-9.203125 1.396483,0.376953 0.03711,-0.03711 h 0.07617 l 0.07422,-0.07617 0.529297,-2.1875 v -0.07422 h -0.03906 v -0.03906 l -0.03711,-0.03711 -0.07617,-0.03711 h 0.03906 l -1.736327,-0.376953 0.755858,-3.734374 0.376953,0.113281 0.03711,-0.03906 h 0.07617 l 0.07422,-0.07422 0.603516,-2.7167971 V 7.5425988 L 12.33481,7.4293176 12.258638,7.3550988 8.4500445,6.4117395 Z m 8.2539055,0.3261718 c 0.10552,0.1528768 0.205223,0.3149854 0.300781,0.4824219 -0.09558,-0.1673792 -0.195238,-0.3296 -0.300781,-0.4824219 z m 0.361328,0.5917969 c 0.09209,0.1681456 0.181265,0.3411428 0.263672,0.5234375 0.08272,0.1829869 0.159456,0.375022 0.232422,0.5722656 C 17.45145,8.1915787 17.37436,7.9985726 17.291841,7.8160363 17.209209,7.6332516 17.120534,7.4611581 17.028169,7.2925988 Z m 0.552734,1.2519531 c 0.06796,0.1939826 0.132534,0.3923453 0.191407,0.5996094 C 17.713378,8.9368318 17.648932,8.738586 17.580903,8.5445519 Z m 0.191407,0.6015626 c 0.06772,0.2385679 0.12986,0.4860294 0.185546,0.7421874 0.04894,0.2251261 0.09121,0.4585531 0.13086,0.6972661 -0.03958,-0.238181 -0.08202,-0.472615 -0.13086,-0.6972661 C 17.902029,9.6315087 17.840232,9.3852297 17.77231,9.1461145 Z m 0.351562,1.6582035 c 0.03069,0.202404 0.05779,0.40925 0.08203,0.621093 -0.02423,-0.211368 -0.05137,-0.419127 -0.08203,-0.621093 z m 0.109375,0.878906 c 0.02468,0.245937 0.04817,0.497643 0.06445,0.755859 0.01584,0.251116 0.02531,0.508757 0.0332,0.771485 -0.0079,-0.261807 -0.01742,-0.521213 -0.0332,-0.771485 -0.01637,-0.25955 -0.0396,-0.508715 -0.06445,-0.755859 z m 0.105469,1.876953 c 0.0045,0.275385 0.0078,0.556089 0.0039,0.84375 -0.0047,0.34519 -0.01646,0.699632 -0.0332,1.0625 -0.01651,0.357809 -0.03813,0.722659 -0.06641,1.097656 0.0282,-0.374252 0.04992,-0.740528 0.06641,-1.097656 0.01675,-0.362865 0.02855,-0.717314 0.0332,-1.0625 0.0039,-0.288435 6.53e-4,-0.567659 -0.0039,-0.84375 z m -11.3222655,2.205078 0.90625,0.1875 v 0.002 z m 17.9101555,0.523438 h 0.002 l 1.697265,8.636719 2.185547,2.375 -2.1875,-2.375 z m 2.328126,5.109375 0.238281,0.849609 -0.03906,-0.07422 z m -20.0761715,0.04297 -0.199219,0.773437 -0.037109,0.07617 z m -0.878907,2.884765 0.076172,0.03906 -0.076172,-0.03711 -0.074218,0.03711 z"/><path style="color:#000;fill:#000;fill-opacity:1;stroke-linecap:round;stroke-linejoin:round;-inkscape-stroke:none" id="path424-0-7-3-0-1-8" d="m 0,-1 a 1.0001,1.0001 0 0 0 -1,1 v 31.999997 a 1.0001,1.0001 0 0 0 1,1 h 31.999994 a 1.0001,1.0001 0 0 0 1,-1 V 0 a 1.0001,1.0001 0 0 0 -1,-1 z M 0.999994,0.9999998 H 30.999993 V 30.999997 H 0.999994 Z"/><g id="g4835" transform="translate(-1.868533,0.4187858)"><path id="path5106" style="fill:#fff;fill-opacity:1;stroke:none;stroke-width:1.6;stroke-dashoffset:14.7" d="m 26.347049,7.1105113 -2.386719,1.0175781 1.193359,5.0820316 3.09375,-0.751953 z M 9.7064236,7.5519175 7.8079861,12.899574 10.899783,13.651527 12.093142,8.5694957 Z"/><path id="path4821" fill="#733c2f" fill-rule="evenodd" stroke="none" d="m 24.868276,12.831406 -0.754326,-3.7339125 -0.377163,0.1131492 -0.03772,-0.03772 h -0.07543 l -0.07543,-0.07543 -0.60346,-2.7155723 v -0.037716 l 0.03772,-0.1131488 0.07543,-0.075432 3.809345,-0.9429071 0.03772,-0.037716 v 0.037716 l 0.113149,0.037716 0.03772,0.1131489 0.60346,2.7155726 v 0.1131492 l -0.03772,0.03772 -0.03772,0.03772 -0.414878,0.1131491 1.056056,3.6584807 1.659516,-0.41488 0.03772,-0.03772 h 0.03772 l 0.03772,0.03772 0.07543,0.07543 0.490312,2.187543 -0.03772,0.11315 -0.07543,0.07543 -1.433218,0.301731 2.677856,9.014192 -0.03772,0.113148 -1.659516,3.620764 -0.07543,0.07543 h -0.07543 -0.07543 L 26.79182,24.636603 26.7541,24.523454 25.1323,15.32068 l -1.395502,0.377163 -0.03772,-0.03772 h -0.07543 l -0.07543,-0.07543 -0.528028,-2.187545 v -0.07543 h 0.03772 v -0.03772 l 0.03772,-0.03772 0.07543,-0.03772 h -0.03772 l 1.73495,-0.377163 m 3.055018,6.638067 -1.169205,-4.563671 -0.942907,0.226298 1.697234,8.63703 2.187544,2.376125 0.980623,-3.055019 -2.376126,-8.52388 -0.905191,0.188581 1.508651,6.147755 h -0.03772 0.03772 l 0.226299,2.112112 h 0.03772 v 0.07543 l -0.03772,0.03772 -0.03772,0.03772 -0.07543,-0.03772 -0.07543,0.03772 -0.07543,-0.07543 -0.490312,-1.998962 -0.452595,-1.621801 M 24.868292,8.9089102 25.547185,12.680538 27.395283,12.227943 26.452376,8.5317466 24.868292,8.9089102" style="fill:#000;stroke-width:.754325"/><path id="path4821-5" fill="#733c2f" fill-rule="evenodd" stroke="none" d="m 11.33268,12.87381 0.754326,-3.7339125 0.377163,0.1131482 0.03772,-0.03772 h 0.07543 l 0.07543,-0.075428 0.60346,-2.7155727 V 6.3866085 L 13.218495,6.2734596 13.143062,6.1980271 9.3337175,5.25512 9.2960012,5.2174036 v 0.037716 l -0.1131489,0.037716 -0.037716,0.1131488 -0.6034606,2.715573 v 0.1131482 l 0.037716,0.03772 0.037716,0.03772 0.4148792,0.1131492 -1.0560561,3.6584792 -1.6595165,-0.414879 -0.037716,-0.03772 h -0.037716 l -0.037716,0.03772 -0.075432,0.07543 -0.4903118,2.187545 0.037716,0.113149 0.075432,0.07543 1.4332188,0.30173 -2.6778562,9.014193 0.037716,0.113149 1.6595166,3.620764 0.075432,0.07543 h 0.075432 0.075432 l 2.9795864,-2.564707 0.037716,-0.113149 1.6218009,-9.202774 1.395501,0.377163 0.03772,-0.03772 h 0.07543 l 0.07543,-0.07543 0.528028,-2.187544 v -0.07543 h -0.03772 v -0.03772 l -0.03772,-0.03772 -0.07543,-0.03772 h 0.03772 L 11.33268,12.87381 m -3.0550185,6.638065 1.1692048,-4.563669 0.9429067,0.226297 -1.6972324,8.637029 -2.1875445,2.376126 -0.9806234,-3.055019 2.376126,-8.52388 0.9051908,0.188581 -1.5086514,6.147754 h 0.037716 -0.037716 l -0.2262977,2.112112 h -0.037716 v 0.07543 l 0.037716,0.03772 0.037716,0.03772 0.075432,-0.03772 0.075432,0.03772 0.075433,-0.07543 0.4903117,-1.998963 0.4525954,-1.621801 M 11.33268,8.9513227 10.653787,12.722951 8.805689,12.270355 9.7485961,8.57416 11.33268,8.9513227" style="fill:#000;stroke-width:.754325"/><path id="path4825" fill="#733c2f" fill-rule="evenodd" stroke="none" d="M 16.385231,17.485729 Q 16.8765,9.5361199 15.09007,2.703028 q 6.207842,1.9204113 4.644715,14.73804 l -3.349554,0.04466 m 2.634983,-0.893219 Q 20.002751,7.0351191 16.34057,4.2661534 17.591071,10.027388 17.278446,16.592514 h 1.741768" style="fill:#000;stroke-width:.893214"/><path id="path4829" fill="#733c2f" fill-rule="evenodd" stroke="none" d="m 20.092072,19.584782 0.357285,1.20584 0.357286,2.456341 -0.401946,2.724305 -0.357286,1.205839 -3.394215,0.04467 -0.178643,-10.048664 4.466072,-0.08932 0.04466,1.295161 -0.401947,0.401947 q -0.491267,0.62525 -0.491267,0.803892" style="fill:#000;stroke-width:.893214"/><path id="path4823" style="fill:#fff;stroke-width:.754325" d="m 16.341189,4.2667613 c 0.833666,3.8408153 1.145917,7.9494307 0.9375,12.3261717 h 1.742188 C 19.6759,10.22135 18.782639,6.1127347 16.341189,4.2667613 Z m 11.958985,10.2988277 -0.904297,0.189454 1.507812,6.148437 0.226563,2.111328 h 0.03711 v 0.07617 l -0.03711,0.03711 -0.03711,0.03711 -0.07617,-0.03711 -0.07617,0.03711 -0.07422,-0.07422 -0.490235,-2 -0.03906,-0.07422 -0.337891,-1.320312 -0.07617,-0.226563 -1.169921,-4.564453 -0.941407,0.226563 1.697266,8.636718 2.1875,2.376954 0.980469,-3.054688 z m -20.400391,0.04297 -2.375,8.523438 0.9804688,3.054687 2.1874999,-2.375 1.6972653,-8.636719 -0.943359,-0.226562 -1.1699219,4.5625 -0.074219,0.226562 -0.3398438,1.320313 -0.037109,0.07617 -0.4902344,1.998047 -0.076172,0.07617 -0.076172,-0.03711 -0.074219,0.03711 -0.037109,-0.03711 -0.039063,-0.03906 v -0.07422 H 7.071658 L 7.2962674,20.944496 8.806033,14.798011 Z m 10.361328,4.619141 -0.447266,0.177734 -0.177734,0.492188 0.177734,0.490234 c 0.119096,0.119095 0.268624,0.179688 0.447266,0.179688 l 0.447266,-0.222657 0.222656,-0.492187 -0.222656,-0.492188 z m 0.04492,5.269531 -0.447266,0.179688 -0.177734,0.490234 0.177734,0.492187 0.447266,0.177735 0.445312,-0.222656 0.22461,-0.492188 -0.22461,-0.490234 z"/></g></g><defs id="defs4638"><g id="sprite0" transform="matrix(1.0, 0.0, 0.0, 1.0, 1.0, 1.0)"><use id="use4610" width="34" height="34" transform="matrix(1.0, 0.0, 0.0, 1.0, -1.0, -1.0)" xlink:href="#sprite1"/><use id="use4612" width="21.35" height="29.2" transform="matrix(1.0, 0.0, 0.0, 1.0, 5.7, 1.3)" xlink:href="#shape1"/></g><g id="sprite1" transform="matrix(1.0, 0.0, 0.0, 1.0, 1.0, 1.0)"><use id="use4615" width="34" height="34" transform="matrix(1.0, 0.0, 0.0, 1.0, -1.0, -1.0)" xlink:href="#shape0"/></g><g id="shape0" transform="matrix(1.0, 0.0, 0.0, 1.0, 1.0, 1.0)"><path id="path4618" fill="#cc0" fill-rule="evenodd" stroke="none" d="M0.0 32.0 L0.0 0.0 32.0 0.0 32.0 32.0 0.0 32.0"/><path id="path4620" fill="none" stroke="#733c2f" stroke-linecap="round" stroke-linejoin="round" stroke-width="2" d="M0.0 32.0 L0.0 0.0 32.0 0.0 32.0 32.0 0.0 32.0 Z"/></g><g id="shape1" transform="matrix(1.0, 0.0, 0.0, 1.0, -5.7, -1.3)"><path id="path4623" fill="#733c2f" fill-rule="evenodd" stroke="none" d="M18.0 11.45 L17.0 6.5 16.5 6.65 16.45 6.6 16.35 6.6 16.25 6.5 15.45 2.9 15.45 2.85 15.5 2.7 15.6 2.6 20.65 1.35 20.7 1.3 20.7 1.35 20.85 1.4 20.9 1.55 21.7 5.15 21.7 5.3 21.65 5.35 21.6 5.4 21.05 5.55 22.45 10.4 24.65 9.85 24.7 9.8 24.75 9.8 24.8 9.85 24.9 9.95 25.55 12.85 25.5 13.0 25.4 13.1 23.5 13.5 27.05 25.45 27.0 25.6 24.8 30.4 24.7 30.5 24.6 30.5 24.5 30.5 20.55 27.1 20.5 26.95 18.35 14.75 16.5 15.25 16.45 15.2 16.35 15.2 16.25 15.1 15.55 12.2 15.55 12.1 15.6 12.1 15.6 12.05 15.65 12.0 15.75 11.95 15.7 11.95 18.0 11.45 M22.05 20.25 L20.5 14.2 19.25 14.5 21.5 25.95 24.4 29.1 25.7 25.05 22.55 13.75 21.35 14.0 23.35 22.15 23.3 22.15 23.35 22.15 23.65 24.95 23.7 24.95 23.7 25.05 23.65 25.1 23.6 25.15 23.5 25.1 23.4 25.15 23.3 25.05 22.65 22.4 22.05 20.25 M18.0 6.25 L18.9 11.25 21.35 10.65 20.1 5.75 18.0 6.25"/><path id="path4625" fill="#fcf9e0" fill-rule="evenodd" stroke="none" d="M22.65 22.4 L23.3 25.05 23.4 25.15 23.5 25.1 23.6 25.15 23.65 25.1 23.7 25.05 23.7 24.95 23.65 24.95 23.35 22.15 23.3 22.15 23.35 22.15 21.35 14.0 22.55 13.75 25.7 25.05 24.4 29.1 21.5 25.95 19.25 14.5 20.5 14.2 22.05 20.25 22.15 20.55 22.6 22.3 22.65 22.4"/><path id="path4627" fill="#733c2f" fill-rule="evenodd" stroke="none" d="M7.15 18.55 Q7.7 9.65 5.7 2.0 12.65 4.15 10.9 18.5 L7.15 18.55 M10.1 17.55 Q11.2 6.85 7.1 3.75 8.5 10.2 8.15 17.55 L10.1 17.55"/><path id="path4629" fill="#fcf9e0" fill-rule="evenodd" stroke="none" d="M10.1 17.55 L8.15 17.55 Q8.5 10.2 7.1 3.75 11.2 6.85 10.1 17.55"/><path id="path4631" fill="#733c2f" fill-rule="evenodd" stroke="none" d="M11.3 20.9 L11.7 22.25 12.1 25.0 11.65 28.05 11.25 29.4 7.45 29.45 7.25 18.2 12.25 18.1 12.3 19.55 11.85 20.0 Q11.3 20.7 11.3 20.9"/><path id="path4633" fill="#fcf9e0" fill-rule="evenodd" stroke="none" d="M10.0 21.2 L9.75 21.75 9.25 22.0 Q8.95 22.0 8.75 21.8 L8.55 21.25 8.75 20.7 9.25 20.5 9.75 20.65 10.0 21.2"/><path id="path4635" fill="#fcf9e0" fill-rule="evenodd" stroke="none" d="M10.05 27.1 L9.8 27.65 9.3 27.9 8.8 27.7 8.6 27.15 8.8 26.6 9.3 26.4 9.8 26.55 10.05 27.1"/></g></defs></svg>