<svg xmlns="http://www.w3.org/2000/svg" xmlns:svg="http://www.w3.org/2000/svg" id="svg25719" width="34" height="34" version="1.1" viewBox="0 0 8.996 8.996"><g id="layer1" transform="translate(-13.995188,-26.78836)"><rect style="fill:#4a0;fill-opacity:1;stroke-width:3.80399" id="rect1866-9-3" width="8.615" height="8.566" x="14.177" y="27.02"/><path id="rect1866-9-3-1" style="fill:#fff;fill-opacity:1;stroke-width:3.80399" d="m 16.800308,27.073491 c -0.684999,0.263015 -1.321582,0.673372 -1.847949,1.242818 -0.351832,0.380626 -0.629091,0.807889 -0.837159,1.261423 v 0.265615 c 0.210153,-0.526915 0.511405,-1.023756 0.912606,-1.457792 0.580395,-0.627894 1.295514,-1.064597 2.064474,-1.312064 z m 3.386873,0 c 0.682758,0.215657 1.328091,0.572431 1.877922,1.081071 0.246492,0.228026 0.469079,0.48057 0.665592,0.751892 v -0.167432 c -0.180087,-0.235539 -0.378112,-0.457506 -0.596346,-0.659391 -0.483698,-0.447461 -1.039378,-0.78076 -1.629358,-1.00614 z m -1.69292,0.515214 c -1.084904,0.03298 -2.154502,0.472232 -2.936255,1.32085 -1.478833,1.605321 -1.421997,4.193882 0.196371,5.683375 1.529498,1.407697 3.995102,1.353011 5.413106,-0.189137 1.339031,-1.456259 1.286101,-3.803148 -0.182418,-5.15214 -1.385555,-1.272784 -3.617031,-1.222251 -4.899442,0.175183 -1.208905,1.317333 -1.160373,3.438357 0.168465,4.656565 1.251544,1.147345 3.265626,1.100934 4.421952,-0.161751 1.088058,-1.188132 1.043369,-3.0994 -0.155546,-4.196124 -1.127056,-1.030992 -2.939215,-0.988659 -3.978568,0.148828 -0.976097,1.068258 -0.935203,2.785118 0.143143,3.769278 1.01169,0.923327 2.636641,0.884505 3.567741,-0.136941 0.872631,-0.957305 0.835475,-2.494349 -0.131258,-3.374472 -0.905047,-0.823964 -2.357255,-0.788587 -3.188436,0.125574 -0.777276,0.854874 -0.743272,2.226442 0.120406,3.010667 0.806737,0.732526 2.099892,0.700001 2.839103,-0.115236 0.689655,-0.760585 0.658722,-1.9792 -0.11007,-2.67529 -0.71637,-0.648626 -1.863378,-0.619389 -2.518193,0.104902 -0.609388,0.674048 -0.581437,1.752476 0.100252,2.367815 0.633564,0.571899 1.646536,0.545854 2.224154,-0.09508 0.536109,-0.594878 0.511039,-1.545605 -0.09095,-2.08721 -0.557941,-0.501976 -1.448699,-0.477983 -1.955953,0.08682 -0.469451,0.522706 -0.447152,1.356892 0.08216,1.831414 0.489128,0.438491 1.269197,0.416952 1.712557,-0.07855 0.409055,-0.457161 0.388888,-1.185659 -0.07441,-1.599385 -0.426758,-0.381096 -1.10632,-0.361882 -1.491899,0.0708 -0.354565,0.397875 -0.336401,1.030708 0.06718,1.389578 0.37047,0.329428 0.959387,0.312407 1.292944,-0.06356 0.305635,-0.344495 0.289333,-0.891362 -0.06046,-1.200962 -0.319908,-0.283144 -0.827195,-0.268171 -1.114144,0.05685 -0.261918,0.296661 -0.247845,0.766924 0.05374,1.032494 0.27472,0.241908 0.709566,0.228311 0.954981,-0.05116 0.223078,-0.254034 0.210559,-0.655672 -0.04806,-0.882116 -0.234563,-0.205382 -0.604768,-0.193513 -0.813387,0.04547 -0.188783,0.216266 -0.17765,0.557414 0.04289,0.749308 0.199098,0.173239 0.512615,0.162928 0.688847,-0.04031 0.158705,-0.183023 0.148785,-0.470929 -0.03824,-0.632521 -0.167994,-0.145148 -0.431877,-0.136218 -0.579809,0.03566 -0.132527,0.153977 -0.124153,0.395502 0.03359,0.530717 0.140928,0.120801 0.36184,0.112548 0.485242,-0.03204 0.109934,-0.128808 0.1024,-0.329899 -0.02997,-0.442352 -0.117577,-0.09989 -0.300744,-0.09263 -0.403076,0.02842 -0.09062,0.107199 -0.08425,0.273905 0.02636,0.366903 0.0966,0.08122 0.245289,0.07465 0.330212,-0.02326 -9.52e-4,0.0011 -5.82e-4,0.003 -0.0016,0.0041 -0.08506,0.09967 -0.241037,0.105527 -0.340031,0.02066 -0.112953,-0.09682 -0.119718,-0.273947 -0.02325,-0.386022 0.109489,-0.127211 0.309506,-0.134297 0.435632,-0.02532 0.142477,0.1231 0.149814,0.346641 0.02739,0.487825 -0.137699,0.158795 -0.386865,0.166831 -0.544153,0.02997 -0.176208,-0.153321 -0.185382,-0.430133 -0.03307,-0.604615 0.170005,-0.194755 0.476404,-0.204475 0.66921,-0.03565 0.214476,0.187793 0.225188,0.525121 0.03876,0.737423 -0.20673,0.235415 -0.577793,0.247038 -0.810803,0.04186 -0.257619,-0.226852 -0.270072,-0.632826 -0.04496,-0.887802 0.2482,-0.281125 0.691725,-0.294328 0.969967,-0.04806 0.30598,0.27082 0.320363,0.753933 0.05168,1.056783 -0.294749,0.332227 -0.819406,0.347189 -1.14825,0.05478 -0.359908,-0.320035 -0.376399,-0.888617 -0.05891,-1.244886 0.346719,-0.38907 0.962035,-0.406482 1.347204,-0.06253 0.419759,0.374843 0.438004,1.0391 0.06615,1.454689 -0.404453,0.452017 -1.119773,0.47152 -1.567346,0.07028 -0.485892,-0.435592 -0.507074,-1.205553 -0.07493,-1.686719 0.468304,-0.52143 1.29536,-0.543682 1.811776,-0.07906 0.558673,0.502634 0.581899,1.389147 0.0832,1.942517 -0.538628,0.597673 -1.487391,0.622293 -2.07946,0.08785 -0.638473,-0.576331 -0.664903,-1.590556 -0.09302,-2.223122 0.615787,-0.681122 1.698597,-0.708744 2.373498,-0.09767 0.72567,0.657045 0.754901,1.811467 0.102837,2.530597 -0.70015,0.772157 -1.929116,0.802894 -2.69441,0.108003 -0.820641,-0.745149 -0.852778,-2.052013 -0.113171,-2.865459 0.792088,-0.871164 2.180114,-0.905111 3.043742,-0.118856 0.923776,0.841015 0.959425,2.313884 0.12454,3.229777 -0.891978,0.978527 -2.452755,1.01577 -3.423047,0.130225 -1.035465,-0.945026 -1.074706,-2.597714 -0.136426,-3.624585 1.000204,-1.094641 2.748196,-1.135768 3.833875,-0.142627 1.156103,1.057564 1.199004,2.904665 0.148828,4.051432 -1.117151,1.219905 -3.067072,1.264979 -4.277258,0.155547 -1.286092,-1.179018 -1.333225,-3.235884 -0.162264,-4.51187 1.243212,-1.354718 3.410531,-1.403791 4.754748,-0.168982 1.425835,1.309785 1.477245,3.592001 0.176217,5.006929 -1.378783,1.499495 -3.780236,1.553118 -5.268412,0.183452 -1.575743,-1.450258 -1.631462,-3.974672 -0.190686,-5.53868 1.524263,-1.654636 4.17629,-1.712843 5.818766,-0.198437 0.698997,0.644493 1.121567,1.481508 1.278992,2.363163 v -0.456282 c -0.210552,-0.739056 -0.610514,-1.429829 -1.209718,-1.98231 -0.841891,-0.776245 -1.941784,-1.149192 -3.026689,-1.116211 z m -0.0047,4.185791 c 0.0046,0.0074 0.0098,0.01601 0.0098,0.01601 0,0 -0.0016,0.0048 -0.0021,0.0062 l -5.29e-4,-5.29e-4 c -0.0013,0.0016 -0.0069,0.0021 -0.01034,-5.29e-4 -0.0051,-0.004 -0.0034,-0.01323 -5.29e-4,-0.02066 0.0012,-5.29e-4 0.0024,-1.69e-4 0.0036,-5.29e-4 z m 4.241085,0.938445 c -0.142696,0.793009 -0.498639,1.553912 -1.072803,2.176095 -0.276039,0.299125 -0.587786,0.546 -0.920357,0.750343 h 0.190686 c 0.288529,-0.192188 0.560795,-0.416341 0.805119,-0.681096 0.482374,-0.522719 0.812264,-1.141508 0.997355,-1.794725 z m -8.615495,0.734322 v 0.259932 c 0.250983,0.541864 0.60359,1.04403 1.065568,1.470713 0.188013,0.173646 0.389953,0.324498 0.59893,0.461471 H 15.9631 C 15.711673,35.486555 15.472224,35.308208 15.250014,35.102976 14.73731,34.629446 14.362285,34.06062 14.1152,33.447263 Z"/><path style="color:#000;fill:#000;fill-opacity:1;stroke-width:.264583;stroke-linecap:round;stroke-linejoin:round;-inkscape-stroke:none" id="path424-0-3-8-2" d="m 14.259771,26.78836 a 0.26460979,0.26460979 0 0 0 -0.264583,0.264583 v 8.466664 a 0.26460979,0.26460979 0 0 0 0.264583,0.264583 h 8.466667 a 0.26460979,0.26460979 0 0 0 0.264583,-0.264583 V 27.052943 A 0.26460979,0.26460979 0 0 0 22.726438,26.78836 Z m 0.264584,0.529166 h 7.937499 v 7.937498 h -7.937499 z"/><rect style="fill:#fff;stroke:#000;stroke-width:.211667;stroke-dasharray:none;stroke-dashoffset:14.7" id="rect1249-5-2-6-3-5" width=".557" height="5.197" x="-18.811" y="-34.08" transform="matrix(-0.99999978,-6.590619e-4,-9.1406847e-4,-0.99999958,0,0)"/><path id="rect7654-8-9" style="opacity:.25;fill:#000;stroke:none;stroke-width:.211667;stroke-dasharray:none" d="m 18.621189,28.895 -1.6e-5,5.197318 0.221234,2.09e-4 -0.0033,-5.197318 z"/><rect style="fill:#fff;stroke:#000;stroke-width:.211667;stroke-dasharray:none" id="rect4136-1" width="3.097" height="1.914" x="17.01" y="32.008"/><path style="fill:#fff;stroke:#000;stroke-width:.211667;stroke-dasharray:none" id="path6893-6" d="m 21.100163,33.593198 c -0.0085,-0.280722 -0.09848,-0.553135 -0.101642,-0.834061 -0.139549,-0.620758 -0.227444,-1.251546 -0.399201,-1.86383 -0.170643,-0.413082 -0.367453,-0.883083 -0.825823,-1.042943 -0.294259,-0.155131 -0.664342,-0.370408 -0.593201,-0.765136 -0.02167,-0.420757 0.399979,-0.878937 0.827302,-0.677027 0.198416,0.204288 0.347083,0.553568 0.683162,0.299576 0.360127,-0.185814 0.748887,0.192186 0.865648,0.506589 -0.04276,0.374104 -0.312642,0.676501 -0.461809,1.01408 0.0029,0.374799 0.07708,0.741996 0.08831,1.116841 0.07153,0.41001 0.06392,0.830356 0.166841,1.238042 0.03615,0.482031 0.174189,0.949707 0.251124,1.426682 0.153011,0.354881 -0.330144,0.545783 -0.461886,0.188026 -0.190066,-0.08384 -0.613883,-0.0895 -0.320029,-0.385835 0.07543,-0.104339 0.196469,-0.133445 0.281207,-0.221004 z"/><path style="fill:#fff;stroke:#000;stroke-width:.211667;stroke-dasharray:none;stroke-opacity:1" id="path7824-4" d="m 15.477783,34.105467 c 0.21327,0.231241 0.462013,-0.03166 0.478049,-0.267516 0.06681,-0.296847 0.126974,-0.596094 0.258059,-0.873238 0.175308,-0.414723 0.36454,-0.824562 0.537713,-1.239463 0.260466,-0.426836 0.793438,-0.686899 0.872188,-1.217894 -0.09285,-0.427596 0.20129,-0.806146 0.22646,-1.223021 -0.157909,-0.54623 -0.718762,-0.859317 -1.250646,-0.938926 -0.238403,-0.03471 -0.5114,-0.06798 -0.705877,0.109081 -0.196649,0.17311 -0.377547,0.377278 -0.493056,0.61369 -0.272899,0.603817 -0.171807,1.302462 0.05256,1.90445 0.05134,0.575265 0.15733,1.144715 0.213186,1.718834 0.01773,0.474965 0.04193,0.980768 -0.188636,1.414003 z"/></g></svg>