<svg xmlns="http://www.w3.org/2000/svg" xmlns:svg="http://www.w3.org/2000/svg" id="svg54783" width="34" height="34" version="1.1" viewBox="0 0 8.996 8.996"><g id="layer1" transform="translate(-66.079888,-75.394725)"><path id="path1694-1-6-06" fill="#cc0" fill-rule="evenodd" stroke="none" d="m 66.344471,84.125744 v -8.466668 h 8.466667 v 8.466668 h -8.466667" style="fill:#fff;fill-opacity:1;stroke-width:.264583"/><path style="fill:#4a0;fill-opacity:1;stroke:none;stroke-width:.00826823;stroke-dashoffset:14.7" id="path52311" d="m 71.190387,82.930909 c -0.0827,-0.07471 -0.128261,-0.151219 -0.215772,-0.362323 -0.194726,-0.469739 -0.290264,-0.6282 -0.565792,-0.938435 -0.111154,-0.125155 -0.260897,-0.304358 -0.26819,-0.320953 -9.52e-4,-0.0021 -0.06445,0.0073 -0.141136,0.02096 -0.222599,0.03968 -0.466868,0.04708 -0.622154,0.01884 -0.234507,-0.04264 -0.505485,-0.188383 -0.767266,-0.41267 -0.104516,-0.08955 -0.12909,-0.12031 -0.14689,-0.183885 -0.02687,-0.09598 -0.129435,-0.214241 -0.229918,-0.265119 -0.04205,-0.02129 -0.147298,-0.06084 -0.233886,-0.08789 -0.08659,-0.02705 -0.187046,-0.06444 -0.223242,-0.08309 -0.169573,-0.08736 -0.301468,-0.258773 -0.445035,-0.578377 -0.048,-0.106858 -0.110675,-0.240583 -0.139278,-0.297168 -0.04829,-0.09553 -0.052,-0.115022 -0.05194,-0.272852 1.54e-4,-0.393422 0.142238,-0.71034 0.345609,-1.01563 0.149409,-0.224287 0.605517,-0.539631 0.943242,-0.714379 1.222641,-0.423975 -0.154445,-0.05562 1.052922,-0.390543 0.0707,-7.2e-5 0.308826,-0.01585 0.529167,-0.03505 0.409583,-0.0357 0.765934,-0.03547 0.913541,5.82e-4 0.03654,0.0089 0.170486,0.0319 0.297656,0.05105 0.430631,0.06484 0.696864,0.149718 0.860484,0.274318 0.03702,0.02819 0.128753,0.07782 0.203848,0.110289 0.07509,0.03247 0.177613,0.08382 0.227818,0.114106 0.134213,0.08098 0.337184,0.276653 0.429348,0.413914 0.04438,0.06609 0.153543,0.205173 0.242593,0.309073 0.08905,0.1039 0.20218,0.249434 0.251402,0.32341 0.115088,0.172967 0.328172,0.537511 0.393655,0.741932 0.121266,0.37857 0.188641,1.134968 0.123404,1.385431 -0.07182,0.275724 -0.338357,0.584149 -0.528651,0.611725 -0.166523,0.02413 -0.125992,0.145666 -0.227911,0.431691 -0.0846,0.237427 -0.12053,0.290691 -0.241825,0.358501 -0.14259,0.07971 -0.421318,0.169457 -0.599115,0.1929 -0.18875,0.02489 -0.407339,0.01207 -0.600063,-0.0352 -0.142248,-0.03489 -0.153159,-0.03542 -0.192902,-0.0094 -0.147646,-0.0602 -0.121225,0.354091 0.0059,0.595579 -0.04957,0.06302 -0.150082,0.109255 -0.237509,0.109255 -0.06317,0 -0.08564,-0.0096 -0.142134,-0.06063 z"/><path id="path52311-4" style="fill:#fff;fill-opacity:1;stroke:none;stroke-width:.00826823;stroke-dashoffset:14.7" d="m 70.576575,81.066094 c -0.20222,2.64e-4 -0.345961,0.128217 -0.489893,0.251147 0.01607,-0.0022 0.05389,-0.0091 0.05426,-0.0083 0.0073,0.0166 0.157048,0.195756 0.268201,0.320911 0.275529,0.310235 0.371132,0.468706 0.565857,0.938444 0.08751,0.211103 0.13279,0.287537 0.215491,0.362251 0.0565,0.05105 0.07895,0.06098 0.14211,0.06098 0.08743,0 0.18814,-0.04653 0.237712,-0.109554 -0.127136,-0.241488 -0.153847,-0.655508 -0.0062,-0.595313 0.03974,-0.02604 0.05102,-0.02559 0.19327,0.0093 0.192723,0.04727 0.411213,0.06003 0.599963,0.03514 0.177798,-0.02344 0.45634,-0.113039 0.59893,-0.192753 0.121295,-0.06781 0.157244,-0.121208 0.241846,-0.358635 0.03583,-0.100548 0.05344,-0.174386 0.06925,-0.237194 -0.106871,-0.236962 -0.458535,-0.224245 -0.679028,-0.311093 -0.347273,-0.0554 -0.7031,-0.02402 -1.044898,-0.119372 -0.32505,0.04641 -0.642098,-0.02563 -0.966866,-0.04599 z"/><path id="path51929" style="fill:#000;stroke-width:.0313645" d="m 70.544713,76.976243 c -0.367754,0.01427 -0.733247,0.07767 -1.098232,0.06871 -0.361636,0.05328 -0.719423,0.145824 -1.029626,0.344302 -0.34299,0.136694 -0.60578,0.394493 -0.880001,0.631355 -0.315973,0.368023 -0.44126,0.873854 -0.406831,1.353691 0.214928,0.355358 0.28989,0.879373 0.748675,1.010674 0.273447,0.07601 0.536844,0.153966 0.589778,0.458992 0.212925,0.211107 0.471578,0.399087 0.759257,0.493538 0.28916,0.07777 0.59376,0.04031 0.882301,-0.02051 0.240637,0.328385 0.57847,0.589861 0.720898,0.984376 0.151627,0.247469 0.30656,0.947717 0.712717,0.649188 0.221219,-0.19185 -0.289057,-0.574211 0.04279,-0.680896 0.461055,0.168186 1.070712,0.12952 1.484438,-0.132753 0.19969,-0.239516 0.06506,-0.742367 0.489438,-0.732401 0.272635,-0.171635 0.492084,-0.493499 0.474035,-0.822905 -0.01633,-0.522576 -0.04931,-1.069287 -0.314729,-1.534351 -0.13545,-0.363022 -0.372333,-0.659376 -0.635425,-0.936317 -0.191696,-0.344574 -0.484152,-0.596631 -0.864691,-0.71309 -0.313952,-0.278421 -0.746528,-0.300964 -1.142761,-0.367 -0.174379,-0.04099 -0.353048,-0.05754 -0.532031,-0.0546 z m 0.04868,0.06853 c 0.298495,0.04549 -0.193313,0.226281 -0.04081,0.0029 0.01357,-9.45e-4 0.02727,-0.002 0.04081,-0.0029 z m -0.336637,0.04643 c 0.20769,-0.07903 0.517715,0.422372 0.279407,0.333042 -0.09545,-0.144082 -0.173395,-0.12887 -0.07671,0.03211 -0.04251,0.184446 -0.184717,0.477003 -0.343733,0.209203 -0.204758,-0.06146 0.170265,0.235702 0.101815,0.366527 0.02788,0.155615 0.06453,0.404277 0.07551,0.108144 -0.01269,-0.391354 0.286538,-0.654413 0.639644,-0.744101 -0.379971,0.17616 -0.229973,-0.407022 0.05644,-0.25568 0.299775,-0.06463 0.417641,0.341905 0.109564,0.426423 -0.06842,0.180654 -0.166559,0.315131 -0.32811,0.128586 -0.266529,-0.04231 0.209818,0.169707 0.142399,0.335928 0.03142,0.143951 0.05899,0.38407 0.07077,0.0948 0.0039,-0.356742 0.255706,-0.665563 0.611924,-0.717706 0.276642,-0.09768 -0.517432,0.03636 -0.06937,-0.124783 0.211297,-0.133352 0.637344,0.232901 0.555737,0.278914 -0.1571,-0.07714 -0.627816,0.10814 -0.214649,0.0539 0.299972,-0.0932 0.763096,0.388456 0.394236,0.520057 0.01142,0.141861 0.106358,0.506822 0.04888,0.744532 0.05291,-0.115946 0.494832,-0.461618 0.122764,-0.340358 -0.167068,-0.368051 0.439743,-0.676792 0.593392,-0.263876 0.125878,0.158447 0.09085,0.617954 0.14888,0.634364 0.158956,-0.147895 0.24821,0.420736 0.04986,0.51207 -0.08012,0.125646 -0.323307,0.193997 -0.357204,-0.0059 0.05208,0.411395 -0.249294,0.75007 -0.577374,0.936682 0.182668,-0.143554 0.30886,-0.0378 0.308656,0.03002 0.135537,-0.220451 0.232325,-0.535874 0.456946,-0.650163 0.288187,0.154039 0.152094,0.771928 0.296605,0.810659 -0.0063,-0.205593 -0.05398,-0.493659 0.251563,-0.419863 0.369069,-0.131452 0.02377,0.792399 0.007,0.313614 -0.182411,-0.348739 0.01935,0.175743 -0.078,0.293168 -0.04648,0.307044 -0.39248,0.439376 -0.592964,0.197318 0.217358,0.38922 -0.334707,0.270795 -0.534939,0.168878 0.01597,-0.09188 0.177277,-0.585562 0.431007,-0.30885 -0.05957,-0.216834 0.259773,-0.245345 0.259273,-0.368748 -0.320858,0.148107 -0.764737,0.326973 -1.063197,0.03866 -0.178964,-0.01945 -0.528383,0.190897 -0.548667,-0.117835 -0.08637,0.243852 -0.437043,0.16294 -0.532295,0.06541 -0.308879,0.255122 -0.764559,0.2725 -1.119559,0.107717 0.251359,0.289613 -0.303911,0.269692 -0.460194,0.261206 0.119193,0.161554 0.417293,0.284532 0.304258,0.08284 0.317164,-0.170696 0.703352,-0.01204 1.008724,-0.214328 0.368873,-0.168857 0.683024,0.169993 1.004725,-0.0089 0.257096,-0.01037 0.818592,-0.02446 0.665615,0.38131 -0.254968,0.218302 -0.66057,-0.0097 -0.947982,-0.09752 -0.238722,-0.15779 0.0084,0.122502 -0.234639,0.107345 -0.309883,-0.03372 -0.619425,0.04764 -0.924063,-0.03917 -0.238527,-0.05635 -0.08585,0.01 -0.102302,0.135581 -0.360908,0.09401 -0.782621,0.140353 -1.128693,-0.03307 -0.134443,-0.138099 0.628992,-0.04109 0.216444,-0.253411 -0.119411,-0.116393 -0.270282,-0.122083 -0.09681,0.04316 -0.27688,0.200364 -0.862364,-0.194122 -0.587712,-0.509191 0.09981,-0.170921 -0.206949,0.05055 -0.17159,-0.195848 -0.02051,-0.408129 0.430996,-0.6168 0.699708,-0.839543 0.347323,-0.226165 0.725602,0.0851 1.074808,-5.03e-4 0.123827,-0.281925 0.472238,-0.30377 0.744151,-0.297523 -0.02586,0.453127 0.284236,-0.27837 0.51202,0.04196 0.167699,0.04757 0.173714,0.457009 0.240669,0.16361 0.180368,-0.163765 0.551289,0.331292 0.462231,0.0482 0.0985,-0.07427 0.310107,-0.13131 0.06049,-0.12122 -0.265947,0.136598 -0.354571,-0.327885 -0.52337,-0.134602 -0.305112,-0.224998 0.0744,-0.474423 0.268182,-0.607517 -0.02504,-0.08995 -0.502672,0.353586 -0.3353,-0.01356 -0.09353,0.260949 -0.492574,0.707844 -0.711619,0.334693 0.04826,-0.102149 0.125891,-0.403306 -0.06188,-0.240863 0.01504,0.296993 -0.347085,0.642051 -0.585267,0.359001 -0.08435,-0.128838 -0.135075,-0.521948 -0.171913,-0.189375 -0.48352,-0.14797 0.403882,0.327151 -0.03486,0.445981 -0.283408,0.138319 -0.861133,0.06172 -0.751737,-0.365104 0.01196,-0.187229 0.04162,-0.410886 -0.164359,-0.417743 -0.201012,-0.254472 0.100299,0.342688 0.05235,0.469901 0.122935,0.429829 -0.425655,0.68569 -0.63491,0.26152 -0.07696,-0.05882 -0.134803,-0.2694 -0.132837,-0.105588 -0.443887,-0.1498 0.246942,0.235896 0.248135,0.428129 0.05639,0.393334 -0.488463,0.405992 -0.712573,0.213439 -0.286038,-0.01051 -0.527629,-0.367003 -0.418946,-0.657665 0.06041,-0.264771 0.527405,-0.391007 0.388574,0.009 0.08357,0.163547 -0.241612,0.537328 0.02516,0.315019 0.145385,0.01822 0.192869,0.229638 0.113907,-0.02303 -0.201126,-0.303524 -0.01513,-0.860438 0.408911,-0.703498 0.10989,0.09458 0.426972,0.07211 0.192764,-0.04207 -0.116501,-0.110113 0.275072,-0.412909 -0.03741,-0.441206 -0.135032,-0.287251 0.348221,-0.583652 0.450035,-0.259412 0.295235,-0.318604 -0.355612,-0.101848 -0.348326,-0.274476 0.115342,-0.190577 0.518913,-0.191951 0.578608,-0.01516 -0.419253,0.01948 0.332416,0.0154 0.253855,0.288927 0.03045,0.424024 -0.416665,-0.05915 -0.615334,0.191752 0.299241,-0.08792 0.675795,0.184128 0.633356,0.561352 -0.01025,0.206676 0.0658,0.203836 0.105456,0.01549 0.06991,-0.08612 0.236555,-0.407584 0.03756,-0.171317 -0.231516,0.06109 -0.117927,-0.511435 -0.01819,-0.651074 0.06041,-0.121822 0.472607,-0.337346 0.346075,-0.332013 -0.31748,0.0474 0.09631,-0.459798 0.240558,-0.326763 z m -0.593514,0.02621 c 0.205218,-0.08899 0.274889,0.214378 0.03108,0.126565 -0.111536,-0.05051 -0.464122,0.07221 -0.156897,0.04905 0.40684,-0.154502 0.302616,0.494864 -0.03477,0.304082 -0.119526,-0.17269 -0.63055,-0.318001 -0.224176,-0.410982 0.123848,-0.04259 0.254942,-0.05756 0.384765,-0.06872 z m 1.700034,0.05317 c 0.228143,0.05009 -0.100208,0.09093 0,0 z m -2.372933,0.06253 c 0.03584,0.182835 -0.625662,0.271361 -0.270917,0.110726 0.08876,-0.04031 0.175619,-0.08713 0.270917,-0.110726 z m -0.465075,0.290204 c -0.109572,0.111923 -0.402449,0.183096 -0.553205,0.282757 0.129895,-0.163242 0.346351,-0.26767 0.553205,-0.282757 z m 3.733709,0.02921 c 0.197389,0.06233 0.564473,0.292348 0.521344,0.444383 -0.213257,0.02043 -0.452921,-0.319303 -0.521344,-0.444383 z m -0.838784,0.08837 c 0.134633,0.135944 0.0061,0.557393 0.05291,0.538364 0.148463,-0.254902 0.660389,-0.05766 0.692742,-0.138754 -0.189581,-0.199823 -0.665988,0.0934 -0.63805,-0.327708 -0.0247,-0.03583 -0.06106,-0.0704 -0.107599,-0.0719 z m -2.883691,7.46e-4 c 0.145287,0.08967 -0.09532,0.55316 -0.126334,0.180441 -0.348552,0.196623 0.420805,0.31041 0.0821,0.569701 -0.198596,0.129597 -0.541723,-0.121954 -0.530819,0.158682 -0.330611,-0.0048 -0.007,-0.503663 0.09808,-0.648838 0.12142,-0.139211 0.291371,-0.240549 0.476975,-0.259986 z m -0.601004,0.259498 c 0.113445,0.255694 -0.639603,0.392003 -0.25917,0.127107 0.07984,-0.05439 0.168356,-0.09485 0.25917,-0.127107 z m 0.980666,0.06452 c -0.169106,0.02634 -0.248957,0.320625 -0.05107,0.106443 0.01915,-0.02153 0.08917,-0.06527 0.05107,-0.106443 z m -1.140933,0.2167 c 0.07703,0.257307 -0.116386,0.571834 -0.345834,0.650077 -0.163615,-0.265958 0.07745,-0.585119 0.345834,-0.650077 z m 5.461078,0.274102 c 0.149243,0.05151 0.209481,0.453545 0.02996,0.175877 -0.01239,-0.0539 -0.07478,-0.122726 -0.02996,-0.175877 z m -0.331769,0.134805 c -0.110573,0.241943 -0.373731,0.691831 -0.376078,0.80793 0.116449,-0.27799 0.36512,-0.231765 0.569895,-0.174841 -0.278098,-0.08959 -0.268088,-0.319716 -0.180759,-0.553294 l -0.0028,-0.04007 z m -5.622469,0.132558 c 0.135046,0.230543 -0.17325,0.207119 0,0 z m 6.05609,0.08761 c 0.379296,0.19579 0.388631,0.795137 0.177961,1.032898 0.09273,-0.151893 0.283864,-0.202416 0.185859,0.04379 -0.08937,0.465863 -0.760607,-0.129833 -0.422448,-0.385754 0.124873,-0.205609 0.191308,-0.471278 0.05863,-0.690931 z m -5.96959,0.121324 c 0.0144,0.337357 0.14636,0.740172 0.540386,0.770779 -0.235271,0.125918 -0.59838,-0.08814 -0.641178,-0.3768 -0.04062,-0.136038 -0.0205,-0.304297 0.100792,-0.393979 z m 3.422161,0.447476 c -0.229618,0.166342 -0.225051,0.586464 -0.594352,0.571697 -0.209167,0.05215 -0.517312,-0.01586 -0.533539,-0.275125 0.175949,0.393798 -0.3352,0.523124 -0.589291,0.346217 -0.103661,-0.04339 -0.270087,-0.24386 -0.194845,-0.05094 -0.122623,0.04785 -0.426162,0.0016 -0.124384,0.07566 0.408156,0.02262 0.19885,0.351325 0.118277,0.575333 0.170701,-0.235532 0.480565,-0.599001 0.806649,-0.368889 0.171867,0.183941 0.1137,-0.322157 0.3555,-0.191473 0.210279,-0.0224 0.506213,-0.07193 0.634647,0.142928 -0.15764,-0.341198 0.399476,-0.347148 0.592189,-0.277388 0.127038,0.149511 0.195603,0.196123 0.30766,0.03715 0.202473,-0.100131 0.506824,0.293349 0.475224,0.253012 -0.128227,-0.280034 0.329054,-0.5012 0.401895,-0.462727 -0.264437,0.08376 -0.04915,-0.258288 -0.116233,-0.171043 -0.238226,0.143725 -0.650121,0.473428 -0.87018,0.200885 0.191383,-0.369293 -0.217755,0.09766 -0.394071,0.0306 -0.356047,0.07907 -0.508694,-0.14123 -0.275146,-0.435911 z m 2.972812,0.04943 c 0.12421,0.144275 0.120888,0.546476 0.0121,0.564753 -0.0024,-0.18807 -0.06231,-0.378381 -0.0121,-0.564753 z m -6.27627,0.324654 c 0.110123,0.101188 0.287831,0.427246 0.190222,0.102684 0.182745,-0.21209 0.866741,0.153051 0.360276,0.22274 -0.167621,0.120971 0.344918,-0.03296 0.314853,0.206413 -0.0088,0.278866 -0.422373,-0.08543 -0.569046,-0.116931 -0.147257,-0.09059 -0.29061,-0.230757 -0.296305,-0.414906 z m 6.378871,0.310425 c 0.01981,0.20192 0.08865,0.645963 -0.07321,0.678928 -0.06071,-0.228741 0.06688,-0.451732 0.07321,-0.678928 z m -0.163637,0.649683 c 0.190175,0.142926 -0.07016,0.593241 -0.168459,0.391309 -0.03668,0.186255 -0.449297,0.364676 -0.395428,0.09504 0.27833,-0.0839 0.419055,-0.248893 0.563887,-0.486349 z m -2.248614,0.444854 c 0.09752,0.283618 -0.527523,0.550233 -0.500638,0.34654 0.224431,-0.01721 0.302068,-0.279296 0.500638,-0.34654 z m -0.71671,0.0056 c 0.310193,-0.08927 0.119244,0.301156 -0.02845,0.118604 -0.01958,-0.03432 -0.03803,-0.121893 0.02845,-0.118604 z m 0.811073,0.02584 c 0.430258,0.01637 -0.397176,0.562561 -0.05746,0.151912 0.0214,-0.04349 -0.01037,-0.140168 0.05746,-0.151912 z m -1.020394,0.0052 c 0.07706,0.108594 0.335346,0.443554 0.243356,0.440774 -0.108359,-0.05683 -0.520478,-0.360446 -0.243356,-0.440774 z m 0.700609,0.0037 c 0.08518,0.236727 -0.66158,0.330376 -0.283979,0.133966 0.09038,-0.0518 0.173472,-0.132001 0.283979,-0.133966 z m 0.764266,0.0674 c 0.352777,-0.02205 0.701932,0.08254 1.039449,0.153033 0.160629,0.282814 -0.325908,-0.07009 -0.455743,-0.03276 -0.232653,-0.07117 -0.654815,0.009 -0.781606,-0.103154 0.06427,-0.02265 0.132064,-0.0078 0.1979,-0.01712 z m -1.708646,7.41e-4 c 0.0794,0.233441 0.54665,0.437937 0.556002,0.516049 -0.267149,-0.02493 -0.526151,-0.242257 -0.556002,-0.516049 z m 1.650979,0.134804 c 0.341748,0.02349 0.980447,5.03e-4 1.101281,0.296903 -0.307165,-0.08382 -0.612893,-0.227744 -0.948366,-0.197527 -0.150167,0.02496 -0.599094,-0.08146 -0.216105,-0.09723 z m -0.156148,0.149034 c 0.423116,0.01334 0.770402,0.290344 1.16914,0.395111 -0.265929,0.190356 -0.541577,-0.197491 -0.816094,-0.237112 -0.07877,-0.04864 -0.380884,-0.07331 -0.353046,-0.157999 z m -0.275226,0.0337 c 0.455022,0.09825 0.871459,0.313238 1.298586,0.49031 -0.399144,0.0042 -0.745654,-0.243462 -1.128155,-0.326856 -0.05268,-0.02572 -0.33056,-0.09769 -0.170431,-0.163454 z m 0.772879,0.0019 c 0.232299,0.04166 0.6114,0.09085 0.720541,0.248873 -0.244352,0.106873 -0.492348,-0.174341 -0.720541,-0.248873 z m -0.954865,0.07452 c 0.327382,0.173759 0.685227,0.278349 1.031531,0.39161 0.07008,0.160031 -0.375437,-0.04083 -0.488723,-0.055 -0.183206,-0.06562 -0.478862,-0.19687 -0.542808,-0.336615 z m -0.302186,0.02509 c 0.254693,0.260976 0.564844,0.468365 0.921517,0.548978 -0.323366,0.02423 -0.730959,-0.157001 -0.906628,-0.450749 l -0.01314,-0.04867 -0.0017,-0.04955 z m 0.143791,0.0045 c 0.365214,0.227091 0.759926,0.480244 1.207443,0.45855 0.254957,0.101467 -0.282718,0.06064 -0.375974,0.02566 -0.311598,-0.06581 -0.66003,-0.195551 -0.831469,-0.484208 z m -0.367342,0.175246 c 0.39905,0.04055 0.342906,0.551701 0.494816,0.823444 0.09122,0.205057 -0.075,0.338999 -0.144362,0.06633 -0.07252,-0.284589 -0.428022,-0.671303 -0.365665,-0.888245 l 0.01521,-0.0015 z m 0.381197,0.228044 c 0.324553,0.07344 0.217844,0.598426 0.23848,0.758833 -0.127644,-0.207246 -0.183559,-0.537479 -0.23848,-0.758833 z"/><path id="path1694-1-6-06-9-6" style="fill:#2c6e00;fill-opacity:1;stroke-width:.264583" d="m 66.531171,75.716669 v 0.887801 l 1.019819,0.981315 c 0.228572,-0.171801 0.492948,-0.337133 0.717269,-0.453202 0.165936,-0.05754 0.278783,-0.09923 0.376721,-0.135909 l -1.314891,-1.280005 z m 4.923731,0 -0.237459,0.830602 c 0.02506,0.0039 0.03377,0.006 0.05891,0.0098 0.541218,0.0815 0.875435,0.188601 1.081072,0.345198 l 0.366132,-1.185619 z m 3.542936,1.81591 -1.094507,0.393257 c 0.08213,0.102278 0.161784,0.205604 0.204122,0.269235 0.11843,0.177989 0.314263,0.512302 0.428397,0.770495 l 0.461988,-0.165881 z m -7.912179,2.84272 -0.554488,0.199471 v 1.267106 l 1.667082,-0.598929 c -0.05281,-0.0398 -0.105677,-0.07805 -0.15813,-0.12299 -0.131355,-0.112544 -0.162114,-0.151093 -0.184485,-0.230994 -0.03377,-0.120622 -0.162583,-0.26937 -0.288871,-0.333313 -0.05285,-0.02676 -0.185216,-0.07659 -0.294039,-0.110588 -0.07257,-0.02267 -0.128115,-0.04637 -0.187069,-0.06976 z m 2.878377,1.213363 c -0.0012,-0.0027 -0.08139,0.0092 -0.177766,0.02635 -0.162202,0.02891 -0.3308,0.04259 -0.484209,0.04341 l -0.914672,2.52491 h 1.268139 l 0.749309,-2.067573 c -0.03473,-0.04113 -0.06357,-0.07813 -0.10387,-0.123507 -0.139698,-0.157295 -0.327765,-0.382737 -0.336931,-0.403593 z m 3.813205,0.667143 c -0.08577,0.227592 -0.138099,0.298681 -0.274919,0.37517 -0.179208,0.100185 -0.529469,0.2129 -0.752926,0.242363 -0.01132,0.0015 -0.02365,0.0013 -0.03514,0.0026 l 1.289327,1.307404 h 0.994255 v -0.689363 z"/><path id="path1694-1-6-06-9" style="fill:#4a0;fill-opacity:1;stroke-width:.264583" d="m 66.344619,75.659308 v 0.887801 l 1.019819,0.981315 c 0.228572,-0.171801 0.492948,-0.337133 0.717269,-0.453202 0.165936,-0.05754 0.278783,-0.09923 0.376721,-0.135909 l -1.314891,-1.280005 z m 4.923731,0 -0.237459,0.830602 c 0.02506,0.0039 0.03377,0.006 0.05891,0.0098 0.541217,0.0815 0.875434,0.188601 1.081071,0.345198 l 0.366132,-1.185619 z m 3.542936,1.81591 -1.094507,0.393258 c 0.08213,0.102277 0.161784,0.205603 0.204122,0.269234 0.11843,0.17799 0.314263,0.512302 0.428398,0.770495 l 0.461987,-0.165881 z m -7.912179,2.84272 -0.554488,0.199471 v 1.267107 l 1.667082,-0.59893 c -0.05281,-0.0398 -0.105677,-0.07805 -0.15813,-0.12299 -0.131355,-0.112544 -0.162114,-0.151093 -0.184485,-0.230994 -0.03377,-0.120622 -0.162583,-0.26937 -0.288871,-0.333313 -0.05285,-0.02676 -0.185216,-0.07659 -0.294039,-0.110587 -0.07257,-0.02267 -0.128114,-0.04637 -0.187069,-0.06976 z m 2.878378,1.213363 c -0.0012,-0.0027 -0.08139,0.0092 -0.177767,0.02635 -0.162202,0.02891 -0.3308,0.04259 -0.484208,0.04341 l -0.914673,2.524911 h 1.268139 l 0.749309,-2.067574 c -0.03473,-0.04113 -0.06357,-0.07813 -0.10387,-0.123507 -0.139698,-0.157295 -0.327764,-0.382737 -0.33693,-0.403593 z m 3.813204,0.667143 c -0.08576,0.227592 -0.138099,0.298682 -0.274919,0.37517 -0.179207,0.100185 -0.529469,0.2129 -0.752926,0.242363 -0.01132,0.0015 -0.02365,0.0013 -0.03514,0.0026 l 1.289327,1.307405 h 0.994255 v -0.689364 z"/><path style="color:#000;fill:#000;fill-opacity:1;stroke-width:.264583;stroke-linecap:round;stroke-linejoin:round;-inkscape-stroke:none" id="path424-0-5" d="m 66.344471,75.394725 a 0.26460979,0.26460979 0 0 0 -0.264583,0.264583 v 8.466667 a 0.26460979,0.26460979 0 0 0 0.264583,0.264583 h 8.466667 a 0.26460979,0.26460979 0 0 0 0.264583,-0.264583 v -8.466667 a 0.26460979,0.26460979 0 0 0 -0.264583,-0.264583 z m 0.264583,0.529167 h 7.937501 v 7.937499 h -7.937501 z"/></g></svg>