<?xml version="1.0" encoding="UTF-8" standalone="no"?>
<!-- Created with Inkscape (http://www.inkscape.org/) -->

<svg
   width="8.9958324mm"
   height="8.9958324mm"
   viewBox="0 0 8.9958324 8.9958324"
   version="1.1"
   id="svg31684"
   inkscape:version="1.2.2 (732a01da63, 2022-12-09)"
   sodipodi:docname="win.svg"
   xmlns:inkscape="http://www.inkscape.org/namespaces/inkscape"
   xmlns:sodipodi="http://sodipodi.sourceforge.net/DTD/sodipodi-0.dtd"
   xmlns="http://www.w3.org/2000/svg"
   xmlns:svg="http://www.w3.org/2000/svg">
  <sodipodi:namedview
     id="namedview31686"
     pagecolor="#ffffff"
     bordercolor="#000000"
     borderopacity="0.25"
     inkscape:showpageshadow="2"
     inkscape:pageopacity="0.0"
     inkscape:pagecheckerboard="0"
     inkscape:deskcolor="#d1d1d1"
     inkscape:document-units="mm"
     showgrid="false"
     inkscape:zoom="16.710735"
     inkscape:cx="25.881567"
     inkscape:cy="20.346203"
     inkscape:window-width="1920"
     inkscape:window-height="1009"
     inkscape:window-x="-8"
     inkscape:window-y="-8"
     inkscape:window-maximized="1"
     inkscape:current-layer="layer1" />
  <defs
     id="defs31681" />
  <g
     inkscape:label="Calque 1"
     inkscape:groupmode="layer"
     id="layer1"
     transform="translate(-51.391107,-85.067826)">
    <path
       fill="#cccc00"
       fill-rule="evenodd"
       stroke="none"
       d="m 51.671288,93.767901 v -8.466666 h 8.466666 v 8.466666 h -8.466666"
       id="path1694-1-6-0-0-8-0"
       style="fill:#ffffff;fill-opacity:1;stroke-width:0.264583"
       inkscape:export-filename="victoire.png"
       inkscape:export-xdpi="90.352943"
       inkscape:export-ydpi="90.352943" />
    <path
       id="path1694-1-6-0-0-8-0-3"
       style="fill:#44aa00;fill-opacity:1;stroke-width:0.264583"
       d="m 54.308854,85.301235 -2.672645,0.01141 0.03508,3.462795 4.064868,-3.474206 z m 1.698604,0 -4.33617,4.16512 v 1.627291 l 4.787305,-5.792411 z m 0.583943,0 -4.920113,6.446118 v 2.020548 h 0.719336 l 4.650879,-8.466666 z m 0.608749,0 -4.011125,8.466666 h 2.256193 l 2.203483,-8.466666 z m 0.650606,0 -1.390613,8.466666 h 2.252576 l -0.413928,-8.466666 z m 0.571025,0 0.909505,8.466666 h 0.806669 V 89.2643 l -1.269173,-3.963065 z m 0.551387,0 1.164787,3.150712 v -1.916679 l -0.718303,-1.234033 z"
       sodipodi:nodetypes="ccccccccccccccccccccccccccccccccccccc" />
    <path
       id="path424-0-2-4"
       style="color:#000000;fill:#000000;fill-opacity:1;stroke-width:0.264583;stroke-linecap:round;stroke-linejoin:round;-inkscape-stroke:none"
       d="m 51.65569,85.067826 c -0.146119,1.5e-5 -0.264568,0.118464 -0.264583,0.264583 v 8.466667 c 1.5e-5,0.146119 0.118464,0.264569 0.264583,0.264583 h 8.466667 c 0.146119,-1.4e-5 0.264569,-0.118464 0.264583,-0.264583 v -8.466667 c -1.4e-5,-0.146119 -0.118464,-0.264568 -0.264583,-0.264583 z m 0.264584,0.529167 h 7.9375 v 7.9375 c -7.9375,0 0,0 -7.9375,0 z"
       sodipodi:nodetypes="cccccccccccccc" />
    <g
       id="g2960"
       transform="matrix(0.26458333,0,0,0.26458333,51.275429,85.332173)"
       style="fill:#000000">
      <path
         id="path2818"
         style="opacity:1;fill:#000000;fill-opacity:1;stroke-width:1.857;stroke-dashoffset:14.7"
         d="m 16.13252,6.4090961 -3.798828,3.2089844 v 2.2695315 h -1.884765 l -5.1406252,4.564453 v 7.517578 H 29.769239 v -7.517578 l -0.914062,-4.564453 h -5.669922 l -0.951172,4.564453 h -0.002 l 0.953125,-4.564453 0.111328,-5.4785159 z" />
      <path
         id="rect2404-3"
         style="fill:#ffffff;stroke-width:1.89759;stroke-dashoffset:14.7"
         transform="translate(0,0.03125)"
         d="m 12.607422,9.9511719 v 6.4902341 a 0.3437844,0.3437844 0 0 1 -0.34375,0.34375 H 5.5820312 v 6.828125 H 29.355469 v -6.828125 h -7.19336 a 0.3437844,0.3437844 0 0 1 -0.34375,-0.34375 l 0.002,-6.4902341 z" />
    </g>
  </g>
</svg>
