<svg xmlns="http://www.w3.org/2000/svg" xmlns:svg="http://www.w3.org/2000/svg" id="svg31684" width="34" height="34" version="1.1" viewBox="0 0 8.996 8.996"><g id="layer1" transform="translate(-51.391107,-85.067826)"><path id="path1694-1-6-0-0-8-0" fill="#cc0" fill-rule="evenodd" stroke="none" d="m 51.671288,93.767901 v -8.466666 h 8.466666 v 8.466666 h -8.466666" style="fill:#fff;fill-opacity:1;stroke-width:.264583"/><path id="path1694-1-6-0-0-8-0-3" style="fill:#4a0;fill-opacity:1;stroke-width:.264583" d="m 54.308854,85.301235 -2.672645,0.01141 0.03508,3.462795 4.064868,-3.474206 z m 1.698604,0 -4.33617,4.16512 v 1.627291 l 4.787305,-5.792411 z m 0.583943,0 -4.920113,6.446118 v 2.020548 h 0.719336 l 4.650879,-8.466666 z m 0.608749,0 -4.011125,8.466666 h 2.256193 l 2.203483,-8.466666 z m 0.650606,0 -1.390613,8.466666 h 2.252576 l -0.413928,-8.466666 z m 0.571025,0 0.909505,8.466666 h 0.806669 V 89.2643 l -1.269173,-3.963065 z m 0.551387,0 1.164787,3.150712 v -1.916679 l -0.718303,-1.234033 z"/><path id="path424-0-2-4" style="color:#000;fill:#000;fill-opacity:1;stroke-width:.264583;stroke-linecap:round;stroke-linejoin:round;-inkscape-stroke:none" d="m 51.65569,85.067826 c -0.146119,1.5e-5 -0.264568,0.118464 -0.264583,0.264583 v 8.466667 c 1.5e-5,0.146119 0.118464,0.264569 0.264583,0.264583 h 8.466667 c 0.146119,-1.4e-5 0.264569,-0.118464 0.264583,-0.264583 v -8.466667 c -1.4e-5,-0.146119 -0.118464,-0.264568 -0.264583,-0.264583 z m 0.264584,0.529167 h 7.9375 v 7.9375 c -7.9375,0 0,0 -7.9375,0 z"/><g id="g2960" transform="matrix(0.26458333,0,0,0.26458333,51.275429,85.332173)" style="fill:#000"><path id="path2818" style="opacity:1;fill:#000;fill-opacity:1;stroke-width:1.857;stroke-dashoffset:14.7" d="m 16.13252,6.4090961 -3.798828,3.2089844 v 2.2695315 h -1.884765 l -5.1406252,4.564453 v 7.517578 H 29.769239 v -7.517578 l -0.914062,-4.564453 h -5.669922 l -0.951172,4.564453 h -0.002 l 0.953125,-4.564453 0.111328,-5.4785159 z"/><path id="rect2404-3" style="fill:#fff;stroke-width:1.89759;stroke-dashoffset:14.7" d="m 12.607422,9.9511719 v 6.4902341 a 0.3437844,0.3437844 0 0 1 -0.34375,0.34375 H 5.5820312 v 6.828125 H 29.355469 v -6.828125 h -7.19336 a 0.3437844,0.3437844 0 0 1 -0.34375,-0.34375 l 0.002,-6.4902341 z" transform="translate(0,0.03125)"/></g></g></svg>