<svg xmlns="http://www.w3.org/2000/svg" xmlns:svg="http://www.w3.org/2000/svg" id="svg2360" width="34" height="34" version="1.1"><g id="g2358" fill-rule="evenodd" transform="translate(-25.367913,-26.983112)"><path id="path1694-1-6-0-0-2-4" fill="#cc0" fill-rule="evenodd" stroke="none" d="M 26.367353,59.982238 V 27.982242 H 58.367346 V 59.982238 H 26.367353" style="fill:#8080ff;fill-opacity:1"/><path style="color:#000;fill:#000;fill-opacity:1;stroke-linecap:round;stroke-linejoin:round;-inkscape-stroke:none" id="path424-0-7-3-0-1" d="m 26.367913,26.983112 a 1.0001,1.0001 0 0 0 -1,1 v 31.999997 a 1.0001,1.0001 0 0 0 1,1 h 31.999994 a 1.0001,1.0001 0 0 0 1,-1 V 27.983112 a 1.0001,1.0001 0 0 0 -1,-1 z m 0.999994,2 H 57.367906 V 58.983109 H 27.367907 Z"/><path style="fill:#000;stroke-width:.090679" id="path8000-8" d="m 32.960756,56.384242 -5.4e-5,-1.279795 h 1.745621 1.745624 l -0.01338,-0.294704 -0.01338,-0.294709 h 0.929073 0.929072 l 0.136779,-0.348183 c 0.184136,-0.468764 0.658622,-0.815867 1.213824,-0.88795 0.244833,-0.0318 0.506363,-0.110332 0.581171,-0.174535 0.0748,-0.0642 0.251052,-0.145454 0.391648,-0.180547 0.33423,-0.08344 0.69191,-0.840471 1.343277,-2.843106 0.181032,-0.55659 0.350847,-1.497815 0.299448,-1.659758 -0.02935,-0.09251 -0.208918,-0.199797 -0.430289,-0.257097 -0.593514,-0.153624 -1.771398,-0.765754 -2.431549,-1.263641 -0.330426,-0.249208 -0.830662,-0.734097 -1.111636,-1.077532 -0.473677,-0.578975 -0.542558,-0.62863 -0.946345,-0.682193 -2.127769,-0.28226 -4.390664,-2.15091 -5.15313,-4.25535 -0.340845,-0.940748 -0.400613,-1.337806 -0.455093,-3.023279 -0.05429,-1.679494 -0.0496,-1.747065 0.142729,-2.058263 0.109372,-0.176968 0.268243,-0.343129 0.353046,-0.369246 0.3097,-0.09538 0.902604,-0.07299 1.922422,0.07261 1.24217,0.177335 1.218511,0.191643 1.310752,-0.792714 0.03408,-0.363671 0.111107,-0.882517 0.171161,-1.152988 l 0.109206,-0.491766 7.537848,-0.02319 7.537846,-0.02319 0.103953,0.295225 c 0.05717,0.162374 0.14962,0.723683 0.205422,1.247353 0.05814,0.545656 0.151045,0.993592 0.217612,1.049254 0.08289,0.06931 0.305824,0.06427 0.778428,-0.0176 0.364251,-0.0631 0.992575,-0.142506 1.396271,-0.176462 0.727079,-0.06116 0.736901,-0.05913 1.042804,0.214382 l 0.308814,0.276119 v 1.707471 c 0,2.061058 -0.09131,2.559568 -0.699238,3.817682 -0.928877,1.922313 -2.714089,3.308569 -4.811469,3.736217 -0.491509,0.100222 -0.571511,0.156444 -1.314123,0.923614 -1.091316,1.127401 -2.134646,1.791143 -3.263191,2.075963 -0.542648,0.136947 -0.535527,0.113979 -0.335764,1.08333 0.165938,0.805223 0.474976,1.73212 0.932558,2.79702 0.291124,0.677507 0.367557,0.783172 0.612075,0.846131 0.153678,0.03958 0.353827,0.154169 0.44478,0.25467 0.11067,0.122288 0.279664,0.182729 0.510951,0.182729 0.567795,0 0.96675,0.248639 1.194088,0.744183 l 0.199395,0.434642 h 0.878905 0.878905 l 0.02842,0.294709 0.02842,0.294704 1.7411,0.0246 1.7411,0.0246 0.04974,1.23057 z M 50.517652,43.679141 c 1.557772,-0.791396 2.521461,-1.918141 3.134111,-3.664401 0.191013,-0.544453 0.335802,-2.682186 0.222551,-3.285868 l -0.05904,-0.314764 -0.611241,0.06647 c -0.946446,0.102911 -1.769428,0.249144 -1.839676,0.326897 -0.03505,0.0388 -0.110234,0.675804 -0.167078,1.415581 -0.09131,1.188299 -0.207243,1.843553 -0.564231,3.188895 -0.126527,0.476834 -0.71196,1.94602 -0.866202,2.173799 -0.155886,0.230209 -0.154695,0.410548 0.0027,0.410548 0.06811,0 0.404754,-0.142717 0.7481,-0.317148 z M 36.712121,43.384207 C 35.890537,41.571132 35.469152,39.86931 35.33925,37.839694 35.28941,37.061092 35.23961,36.789495 35.137103,36.737632 34.940683,36.638242 33.911679,36.47884 33.278186,36.449664 l -0.544073,-0.02507 -0.02573,1.03034 c -0.06325,2.532238 0.587506,4.098704 2.310922,5.562755 0.376627,0.319947 1.466527,0.877742 1.726208,0.883451 l 0.202885,0.0045 -0.23627,-0.521404 z"/><path style="fill:#fff;stroke-width:.090679" id="path8000" d="m 32.060061,56.033365 -5.4e-5,-1.279795 h 1.745621 1.745624 l -0.01338,-0.294704 -0.01338,-0.294709 h 0.929073 0.929072 l 0.136779,-0.348183 c 0.184136,-0.468764 0.658622,-0.815867 1.213824,-0.88795 0.244833,-0.0318 0.506363,-0.110332 0.581171,-0.174535 0.0748,-0.0642 0.251052,-0.145454 0.391648,-0.180547 0.33423,-0.08344 0.69191,-0.840471 1.343277,-2.843106 0.181032,-0.55659 0.350847,-1.497815 0.299448,-1.659758 -0.02935,-0.09251 -0.208918,-0.199797 -0.430289,-0.257097 -0.593514,-0.153624 -1.771398,-0.765754 -2.431549,-1.263641 -0.330426,-0.249208 -0.830662,-0.734097 -1.111636,-1.077532 -0.473677,-0.578975 -0.542558,-0.62863 -0.946345,-0.682193 -2.127769,-0.28226 -4.390664,-2.15091 -5.15313,-4.25535 -0.340844,-0.940748 -0.400613,-1.337806 -0.455093,-3.023279 -0.05429,-1.679494 -0.0496,-1.747065 0.142729,-2.058263 0.109372,-0.176969 0.268243,-0.343129 0.353046,-0.369247 0.3097,-0.09538 0.902604,-0.07299 1.922422,0.07261 1.24217,0.177336 1.218511,0.191643 1.310752,-0.792713 0.03408,-0.363672 0.111107,-0.882517 0.171161,-1.152989 l 0.109206,-0.491765 7.537848,-0.02319 7.537846,-0.02319 0.103953,0.295225 c 0.05717,0.162373 0.14962,0.723683 0.205422,1.247353 0.05814,0.545656 0.151045,0.993591 0.217612,1.049253 0.08289,0.06931 0.305824,0.06427 0.778428,-0.0176 0.364251,-0.0631 0.992575,-0.142505 1.396271,-0.176461 0.727079,-0.06116 0.736901,-0.05913 1.042804,0.214381 l 0.308814,0.27612 v 1.707471 c 0,2.061058 -0.09131,2.559568 -0.699238,3.817682 -0.928877,1.922313 -2.714089,3.308569 -4.811469,3.736217 -0.491509,0.100222 -0.571511,0.156444 -1.314123,0.923614 -1.091316,1.127401 -2.134646,1.791143 -3.263191,2.075963 -0.542648,0.136947 -0.535527,0.113979 -0.335764,1.08333 0.165938,0.805223 0.474976,1.73212 0.932558,2.79702 0.291124,0.677507 0.367557,0.783172 0.612075,0.846131 0.153678,0.03958 0.353827,0.154169 0.44478,0.25467 0.11067,0.122288 0.279664,0.182729 0.510951,0.182729 0.567795,0 0.96675,0.248639 1.194088,0.744183 l 0.199395,0.434642 h 0.878905 0.878905 l 0.02842,0.294709 0.02842,0.294704 1.7411,0.0246 1.7411,0.0246 0.04974,1.23057 z M 49.616957,43.328264 c 1.557772,-0.791396 2.521461,-1.918141 3.134111,-3.664401 0.191013,-0.544453 0.335802,-2.682187 0.222551,-3.285869 l -0.05904,-0.314763 -0.611241,0.06647 c -0.946446,0.102911 -1.769428,0.249144 -1.839676,0.326896 -0.03505,0.0388 -0.110234,0.675805 -0.167078,1.415582 -0.09131,1.188299 -0.207243,1.843553 -0.564231,3.188895 -0.126527,0.476834 -0.71196,1.94602 -0.866202,2.173799 -0.155886,0.230209 -0.154695,0.410548 0.0027,0.410548 0.06811,0 0.404754,-0.142717 0.7481,-0.317148 z M 35.811426,43.03333 c -0.821584,-1.813075 -1.242969,-3.514897 -1.372871,-5.544513 -0.04984,-0.778602 -0.09964,-1.0502 -0.202147,-1.102062 -0.19642,-0.09939 -1.225424,-0.258792 -1.858917,-0.287969 l -0.544073,-0.02507 -0.02573,1.030341 c -0.06325,2.532238 0.587506,4.098704 2.310922,5.562755 0.376627,0.319947 1.466527,0.877742 1.726208,0.883451 l 0.202885,0.0045 -0.23627,-0.521404 z"/><path style="fill:#000;fill-opacity:1;stroke:#000;stroke-width:.1;stroke-dasharray:none;stroke-dashoffset:14.7;stroke-opacity:0" id="path7917-2-7" d="m 16.999437,12.948893 1.453328,3.568132 3.842598,0.279583 -2.944392,2.48481 0.921528,3.740924 -3.273062,-2.032434 -3.273062,2.032434 0.921529,-3.740924 -2.944392,-2.48481 3.842598,-0.279583 z" transform="matrix(0.88354339,0,0,0.88354339,27.876567,23.168972)"/><path style="fill:#8080ff;fill-opacity:1;stroke:#000;stroke-width:.1;stroke-dasharray:none;stroke-dashoffset:14.7;stroke-opacity:0" id="path7917-2" d="m 16.999437,12.948893 1.453328,3.568132 3.842598,0.279583 -2.944392,2.48481 0.921528,3.740924 -3.273062,-2.032434 -3.273062,2.032434 0.921529,-3.740924 -2.944392,-2.48481 3.842598,-0.279583 z" transform="matrix(0.88354339,0,0,0.88354339,27.158688,22.892865)"/></g></svg>