<svg xmlns="http://www.w3.org/2000/svg" xmlns:svg="http://www.w3.org/2000/svg" id="svg2360" width="34" height="34" version="1.1"><g id="g2358" fill-rule="evenodd" transform="translate(-25.367913,-26.983112)"><path id="path1694-1-6-1-9" fill="#cc0" fill-rule="evenodd" stroke="none" d="m 26.367353,60.044742 v -32.00001 h 32 v 32.00001 h -32" style="fill:#4a0;fill-opacity:1"/><path style="color:#000;fill:#000;fill-opacity:1;stroke-linecap:round;stroke-linejoin:round;-inkscape-stroke:none" id="path424-0-9-4" d="m 26.367913,26.983112 a 1.0001,1.0001 0 0 0 -1,1 v 32 a 1.0001,1.0001 0 0 0 1,1 h 32 a 1.0001,1.0001 0 0 0 1,-1 v -32 a 1.0001,1.0001 0 0 0 -1,-1 z m 0.999997,2 h 30.000003 v 30 H 27.367911 Z"/><g id="g10289" transform="matrix(1.1690825,0,0,1.1690825,22.259814,22.163473)"><path id="path9601-5-5" style="fill:#4a0;fill-opacity:1;stroke:#000;stroke-width:.0197328;stroke-dasharray:none;stroke-dashoffset:14.7;stroke-opacity:0" d="m 16.73117,10.432029 c -2.460626,0.14355 -4.849598,1.371232 -6.31728,3.364759 -1.5333068,2.024384 -2.0198118,4.804851 -1.2084638,7.219253 0.768038,2.459922 2.8016488,4.456 5.2427688,5.257886 2.479205,0.863847 5.346877,0.488832 7.526512,-0.977357 2.126811,-1.402266 3.54955,-3.845569 3.626746,-6.403371 0.12004,-2.351404 -0.916347,-4.699815 -2.652158,-6.275663 -1.679283,-1.520884 -3.959352,-2.304141 -6.218125,-2.185507 z"/><path id="path10232" style="opacity:1;stroke:#000;stroke-width:.1;stroke-dashoffset:14.7;stroke-opacity:0" d="M 22.816942,26.084709 C 21.034389,26.73751 19.251836,27.39031 17.469283,28.043111 15.643461,27.52348 13.817638,27.003848 11.991816,26.484217 10.820127,24.990635 9.6484368,23.497052 8.4767474,22.00347 8.4067363,20.106435 8.3367251,18.209399 8.266714,16.312364 c 1.0584092,-1.575885 2.116819,-3.15177 3.175228,-4.727656 1.782553,-0.6528 3.565106,-1.305601 5.347659,-1.9584016 1.825822,0.5196316 3.651645,1.0392636 5.477467,1.5588946 1.171689,1.493583 2.343379,2.987165 3.515068,4.480747 0.07001,1.897035 0.140023,3.794071 0.210034,5.691106 -1.058409,1.575885 -2.116819,3.15177 -3.175228,4.727655 z"/><path id="path9417-0-0" style="fill:#000;fill-opacity:1;stroke:#000;stroke-width:.00446139;stroke-dasharray:none;stroke-dashoffset:14.7;stroke-opacity:0" d="m 20.761384,8.5623183 a 0.65049815,0.65697228 0 0 0 -0.620852,0.674346 0.65049815,0.65697228 0 0 0 0.170208,0.393908 L 17.238899,12.456018 14.400487,9.9726093 a 0.65049815,0.65697228 0 0 0 0.246396,-0.512245 l -0.0016,-0.03728 a 0.65049815,0.65697228 0 0 0 -0.677588,-0.61923 0.65049815,0.65697228 0 0 0 -0.620852,0.674346 0.65049815,0.65697228 0 0 0 0.658136,0.6403037 0.65049815,0.65697228 0 0 0 0.06808,-0.0081 l 2.040908,5.051114 A 4.3881571,4.1657257 0 0 0 14.15415,16.672312 L 9.5666462,13.764226 a 0.6504981,0.65697231 0 0 0 0.131304,-0.392287 l -0.0017,-0.03728 a 0.6504981,0.65697231 0 0 0 -0.675968,-0.61923 0.6504981,0.65697231 0 0 0 -0.622473,0.674345 0.6504981,0.65697231 0 0 0 0.659757,0.640305 0.6504981,0.65697231 0 0 0 0.196143,-0.03728 l 1.7215118,3.467326 -3.3733508,2.467198 a 0.65049815,0.65697228 0 0 0 -0.371215,-0.113471 0.65049815,0.65697228 0 0 0 -0.622473,0.674346 0.65049815,0.65697228 0 0 0 0.659757,0.638683 0.65049815,0.65697228 0 0 0 0.640305,-0.656515 l -0.0017,-0.03728 a 0.65049815,0.65697228 0 0 0 -0.0843,-0.260987 l 5.5990168,-0.748912 a 4.3881571,4.1657257 0 0 0 0.932088,2.16893 l -4.182242,3.504651 a 0.65049815,0.65697228 0 0 0 -0.5090008,-0.239911 0.65049815,0.65697228 0 0 0 -0.622473,0.674346 0.65049815,0.65697228 0 0 0 0.659757,0.638684 0.65049815,0.65697228 0 0 0 0.6419248,-0.658136 l -0.0032,-0.03728 a 0.65049815,0.65697228 0 0 0 -0.01945,-0.0616 l 3.516003,-0.603021 1.188211,3.921256 a 0.65049815,0.65697228 0 0 0 -0.416603,0.611127 0.65049815,0.65697228 0 0 0 0.659756,0.638683 0.65049815,0.65697228 0 0 0 0.640304,-0.658136 V 29.2855 A 0.65049815,0.65697228 0 0 0 15.3098,28.685721 l 1.325997,-5.660614 a 4.3881571,4.1657257 0 0 0 1.204421,0.144271 4.3881571,4.1657257 0 0 0 1.136338,-0.162103 l 1.810683,5.492028 a 0.65049815,0.65697228 0 0 0 -0.364731,0.594916 0.65049815,0.65697228 0 0 0 0.659757,0.637063 0.65049815,0.65697228 0 0 0 0.640305,-0.656515 v -0.03728 a 0.65049815,0.65697228 0 0 0 -0.583606,-0.598172 l 0.674346,-3.971508 3.811026,0.34852 a 0.65049815,0.65697228 0 0 0 -0.02593,0.11023 0.65049815,0.65697228 0 0 0 0.659755,0.640304 0.65049815,0.65697228 0 0 0 0.641926,-0.658138 v -0.03728 a 0.65049815,0.65697228 0 0 0 -0.679131,-0.619231 0.65049815,0.65697228 0 0 0 -0.496035,0.291785 l -4.41243,-3.089672 a 4.3881571,4.1657257 0 0 0 0.842932,-2.322926 l 4.822546,0.2853 a 0.65049815,0.65697228 0 0 0 -0.0032,0.01134 0.65049815,0.65697228 0 0 0 0.659757,0.637063 0.65049815,0.65697228 0 0 0 0.640304,-0.656514 v -0.03729 a 0.65049815,0.65697228 0 0 0 -0.677634,-0.617609 0.65049815,0.65697228 0 0 0 -0.497655,0.293405 l -3.255016,-2.215939 1.457301,-3.383077 a 0.65049815,0.65697228 0 0 0 0.26909,0.06646 0.65049815,0.65697228 0 0 0 0.640304,-0.656515 v -0.03728 a 0.65049815,0.65697228 0 0 0 -0.677587,-0.619232 0.65049815,0.65697228 0 0 0 -0.622474,0.674347 0.65049815,0.65697228 0 0 0 0.09078,0.311236 l -3.963408,3.04266 a 4.3881571,4.1657257 0 0 0 -2.15272,-1.251429 l 1.69397,-5.1613407 a 0.65049815,0.65697228 0 0 0 0.218838,0.05673 0.65049815,0.65697228 0 0 0 0.643546,-0.656514 l -0.0032,-0.03728 a 0.65049815,0.65697228 0 0 0 -0.677593,-0.61761 z m -3.250152,7.4972357 a 2.907859,2.9684962 0 0 1 3.028073,2.796266 l 0.0048,0.168586 a 2.907859,2.9684962 0 0 1 -2.86759,2.968095 2.907859,2.9684962 0 0 1 -2.947022,-2.882181 2.907859,2.9684962 0 0 1 2.781677,-3.050766 z"/><path id="path9417-3" style="fill:#fff;fill-opacity:1;stroke:#000;stroke-width:.00446139;stroke-dasharray:none;stroke-dashoffset:14.7;stroke-opacity:0" d="m 20.33957,8.1771843 a 0.65049815,0.65697228 0 0 0 -0.620853,0.674346 0.65049815,0.65697228 0 0 0 0.170207,0.393908 L 16.817085,12.070883 13.978672,9.5874753 a 0.65049815,0.65697228 0 0 0 0.246395,-0.512244 l -0.0016,-0.03728 a 0.65049815,0.65697228 0 0 0 -0.677588,-0.619231 0.65049815,0.65697228 0 0 0 -0.620852,0.674346 0.65049815,0.65697228 0 0 0 0.658136,0.640304 0.65049815,0.65697228 0 0 0 0.06808,-0.0081 l 2.040869,5.0511107 a 4.3881571,4.1657257 0 0 0 -1.959818,1.510794 L 9.1447792,13.37905 a 0.6504981,0.65697231 0 0 0 0.131302,-0.392288 l -0.0016,-0.03728 a 0.6504981,0.65697231 0 0 0 -0.675967,-0.61923 0.6504981,0.65697231 0 0 0 -0.622473,0.674346 0.6504981,0.65697231 0 0 0 0.659757,0.640304 0.6504981,0.65697231 0 0 0 0.196144,-0.03728 l 1.7215268,3.467369 -3.3733498,2.467198 a 0.65049815,0.65697228 0 0 0 -0.371215,-0.113471 0.65049815,0.65697228 0 0 0 -0.622473,0.674346 0.65049815,0.65697228 0 0 0 0.659757,0.638682 0.65049815,0.65697228 0 0 0 0.640304,-0.656514 l -0.0016,-0.03728 a 0.65049815,0.65697228 0 0 0 -0.0843,-0.260999 l 5.5990168,-0.748912 a 4.3881571,4.1657257 0 0 0 0.932088,2.16893 l -4.1822418,3.504652 a 0.65049815,0.65697228 0 0 0 -0.508995,-0.239907 0.65049815,0.65697228 0 0 0 -0.622473,0.674346 0.65049815,0.65697228 0 0 0 0.659756,0.638683 0.65049815,0.65697228 0 0 0 0.641926,-0.658136 l -0.0032,-0.03728 a 0.65049815,0.65697228 0 0 0 -0.01945,-0.0616 l 3.5159998,-0.60302 1.188212,3.921255 a 0.65049815,0.65697228 0 0 0 -0.416603,0.611128 0.65049815,0.65697228 0 0 0 0.659757,0.638682 0.65049815,0.65697228 0 0 0 0.640304,-0.658135 v -0.03728 a 0.65049815,0.65697228 0 0 0 -0.59653,-0.599774 l 1.325997,-5.660615 a 4.3881571,4.1657257 0 0 0 1.204421,0.144272 4.3881571,4.1657257 0 0 0 1.136337,-0.162103 l 1.810684,5.492028 a 0.65049815,0.65697228 0 0 0 -0.364731,0.594916 0.65049815,0.65697228 0 0 0 0.659756,0.637063 0.65049815,0.65697228 0 0 0 0.640305,-0.656515 v -0.03728 a 0.65049815,0.65697228 0 0 0 -0.583609,-0.598158 l 0.674346,-3.971508 3.811026,0.34852 a 0.65049815,0.65697228 0 0 0 -0.02593,0.11023 0.65049815,0.65697228 0 0 0 0.659755,0.640304 0.65049815,0.65697228 0 0 0 0.641926,-0.658135 v -0.03728 A 0.65049815,0.65697228 0 0 0 25.799234,23.867092 0.65049815,0.65697228 0 0 0 25.3032,24.158878 l -4.412482,-3.089673 a 4.3881571,4.1657257 0 0 0 0.842933,-2.322926 l 4.822545,0.2853 a 0.65049815,0.65697228 0 0 0 -0.0032,0.01134 0.65049815,0.65697228 0 0 0 0.659756,0.637063 0.65049815,0.65697228 0 0 0 0.640304,-0.656514 v -0.03728 a 0.65049815,0.65697228 0 0 0 -0.677587,-0.617611 0.65049815,0.65697228 0 0 0 -0.497655,0.293406 l -3.255016,-2.21594 1.457301,-3.383077 a 0.65049815,0.65697228 0 0 0 0.26909,0.06646 0.65049815,0.65697228 0 0 0 0.640304,-0.656515 v -0.03728 a 0.65049815,0.65697228 0 0 0 -0.677587,-0.619231 0.65049815,0.65697228 0 0 0 -0.622473,0.674347 0.65049815,0.65697228 0 0 0 0.09078,0.311236 l -3.963404,3.042661 a 4.3881571,4.1657257 0 0 0 -2.152718,-1.25143 l 1.69397,-5.1613407 a 0.65049815,0.65697228 0 0 0 0.218838,0.05673 0.65049815,0.65697228 0 0 0 0.643545,-0.656514 l -0.0032,-0.03728 a 0.65049815,0.65697228 0 0 0 -0.677583,-0.617605 z m -3.250154,7.4972347 a 2.907859,2.9684962 0 0 1 3.028073,2.796267 l 0.005,0.168586 a 2.907859,2.9684962 0 0 1 -2.867591,2.968094 2.907859,2.9684962 0 0 1 -2.947021,-2.882181 2.907859,2.9684962 0 0 1 2.781676,-3.050766 z"/><path style="opacity:1;fill:#fff;fill-opacity:1;stroke:#000;stroke-width:.1;stroke-dasharray:none;stroke-dashoffset:14.7;stroke-opacity:0" id="path10230" d="m 17.114709,17.653733 0.664348,2.032437 -1.856049,-1.31752 -1.727667,1.259891 0.679485,-2.172344 -1.732105,-1.253781 2.275994,-0.02506 0.657167,-2.03477 0.727156,2.156854 2.138257,-0.0038 z" transform="translate(1.1490485,1.281631)"/></g></g></svg>