<svg xmlns="http://www.w3.org/2000/svg" xmlns:svg="http://www.w3.org/2000/svg" id="svg2360" width="34" height="34" version="1.1"><g id="g2358" fill-rule="evenodd" transform="translate(-25.367913,-26.983112)"><path id="path1694-1-6-0-0-2" fill="#cc0" fill-rule="evenodd" stroke="none" d="M 26.367353,59.982238 V 27.982242 H 58.367346 V 59.982238 H 26.367353" style="fill:#9e009e;fill-opacity:1"/><path style="color:#000;fill:#000;fill-opacity:1;stroke-linecap:round;stroke-linejoin:round;-inkscape-stroke:none" id="path424-0-7-3-0" d="m 26.367913,26.983112 a 1.0001,1.0001 0 0 0 -1,1 v 31.999997 a 1.0001,1.0001 0 0 0 1,1 h 31.999994 a 1.0001,1.0001 0 0 0 1,-1 V 27.983112 a 1.0001,1.0001 0 0 0 -1,-1 z m 0.999994,2 H 57.367906 V 58.983109 H 27.367907 Z"/><path id="path7675-2" style="fill:#000;fill-opacity:1;stroke-width:.0691536" d="m 45.836601,31.733288 c 0.391989,0.53374 1.43212,1.359715 1.291356,1.782286 -0.597409,-0.868642 -1.993415,-1.06309 -3.04376,-1.052296 -0.919589,0.340049 1.789261,0.425959 2.085381,0.969051 -1.218809,0.541559 1.840028,0.509758 2.066171,0.550695 -0.734378,-0.735911 -1.178645,-2.340515 -2.399148,-2.249736 z m -5.758813,0.0043 c -1.220502,-0.09078 -1.66477,1.513825 -2.399148,2.249736 0.226143,-0.04094 3.28498,-0.01127 2.066171,-0.552829 0.296121,-0.543093 3.00497,-0.626868 2.085381,-0.966917 -1.050345,-0.0108 -2.446351,0.183655 -3.04376,1.052296 -0.140764,-0.422571 0.899367,-1.248546 1.291356,-1.782286 z m 7.579519,0.484526 c -0.04777,0.0011 -0.09714,0.0095 -0.147278,0.02561 0.298816,0.431033 1.875272,2.3661 0.6873,1.940237 0.02793,0.543642 -2.093369,0.33759 -0.875134,0.712914 0.746174,0.549306 2.367883,-0.309725 2.599789,0.446105 -0.08313,0.655413 -2.728779,0.399501 -1.417291,0.77268 0.357252,0.03681 2.533675,0.303194 1.652084,-0.335112 0.462137,0.163004 0.856722,0.126881 1.144078,0.569904 0.212258,-0.83017 -0.252718,-2.393602 -0.868731,-2.569907 0.05395,0.500555 0.969995,2.644178 -0.08538,1.543225 0.09505,-0.790327 -1.02306,-2.694093 -1.363929,-2.335115 0.371237,0.477556 1.487057,2.61358 0.136607,1.451443 -0.291704,-0.653138 -0.745611,-2.238608 -1.462115,-2.221989 z m -9.400225,0.0043 c -0.716504,-0.01661 -1.170411,1.568858 -1.462115,2.221995 -1.35045,1.162138 -0.23463,-0.973887 0.136606,-1.451442 -0.340867,-0.358979 -1.458974,1.542653 -1.363929,2.33298 -1.055373,1.100952 -0.139333,-1.040536 -0.08538,-1.54109 -0.616012,0.176304 -1.080988,1.739737 -0.86873,2.569907 0.287355,-0.443024 0.68194,-0.409035 1.144078,-0.572039 -0.881591,0.638305 1.294832,0.374054 1.652083,0.337247 1.311488,-0.373179 -1.334158,-0.119402 -1.417291,-0.774815 0.231906,-0.75583 1.855749,0.103201 2.601925,-0.446105 1.218234,-0.375324 -0.905203,-0.167137 -0.87727,-0.71078 -1.187972,0.425864 0.388484,-1.509203 0.6873,-1.940237 -0.05013,-0.01611 -0.09952,-0.02451 -0.147278,-0.02561 z m 10.283897,2.185701 c 0.17637,0.01846 0.918362,0.427291 0.09178,0.151551 -0.145661,-0.120381 -0.150568,-0.157699 -0.09178,-0.151548 z m -11.167569,0.0043 c 0.05878,-0.0062 0.05388,0.03117 -0.09178,0.151548 -0.82658,0.27574 -0.08459,-0.133093 0.09178,-0.151548 z m 14.633956,0.610456 c -0.05274,0.01503 -0.103985,0.100215 -0.149414,0.28175 0.402531,0.816179 -0.685739,0.739734 0.08111,1.054431 0.172274,0.575756 -0.168238,0.875917 0.273213,1.530418 -0.594112,0.822579 -0.576825,-0.970867 -0.969051,-0.02562 -0.617184,-0.124723 -1.922186,0.140208 -0.563502,0.339382 1.246615,-0.0856 1.896124,0.793741 2.800431,1.348987 l 0.05763,-0.04909 0.02134,-0.08538 c -0.145362,-0.792359 0.337689,-2.680369 -0.36072,-2.83671 -0.150532,0.685572 0.06463,2.621676 -0.578443,1.931699 -0.4336,-0.634713 0.439509,-1.384211 0.0064,-2.104592 -0.117946,-0.217874 -0.3905,-1.450424 -0.619042,-1.385271 z m -18.100343,0.0043 c -0.228542,-0.06515 -0.501095,1.167397 -0.618997,1.385273 -0.433062,0.720383 0.440003,1.467745 0.0064,2.102458 -0.643071,0.689977 -0.427911,-1.246127 -0.578442,-1.9317 -0.69841,0.156343 -0.215359,2.046487 -0.360726,2.838852 l 0.02134,0.08538 0.05763,0.04909 c 0.904308,-0.555245 1.553817,-1.434588 2.800432,-1.348986 1.358684,-0.199173 0.05368,-0.464105 -0.563501,-0.339381 -0.392227,-0.945254 -0.374939,0.848192 -0.969052,0.02562 0.441453,-0.6545 0.100939,-0.954662 0.273213,-1.530419 0.76685,-0.314698 -0.321421,-0.240389 0.08111,-1.056567 C 34.011,35.129256 33.95976,35.04621 33.907016,35.031175 Z m 16.260425,0.480257 c 0.05109,0.02493 0.05088,0.237894 -0.06617,0.05977 0.0258,-0.05463 0.04913,-0.06808 0.06617,-0.05977 z m -14.420507,0.0043 c 0.01703,-0.0083 0.04036,0.0051 0.06617,0.05977 -0.11705,0.178129 -0.117264,-0.03483 -0.06617,-0.05977 z m 15.55178,1.030947 c -0.06306,0.01672 -0.07684,0.116365 0.02775,0.354323 -0.243254,-0.203056 -2.404458,-0.310761 -2.068305,0.254002 0.701681,0.0668 1.425544,0.101548 2.121667,-0.02134 0.746851,0.05863 0.108061,-0.637124 -0.08111,-0.58698 z m -16.683052,0.0043 c -0.189172,-0.05014 -0.82796,0.645609 -0.08111,0.586981 0.696124,0.122891 1.419986,0.08814 2.121667,0.02134 0.336152,-0.564763 -1.825051,-0.457059 -2.068305,-0.254003 0.104584,-0.237956 0.0908,-0.337607 0.02775,-0.354323 z m 16.326594,2.266811 c -0.383856,-0.02061 -0.670942,0.03682 -0.623267,0.168624 0.699827,0.258631 1.487181,0.731712 2.236929,0.597653 -0.06601,-0.481768 -0.973902,-0.731922 -1.613662,-0.766277 z m -15.970136,0.0043 c -0.639761,0.03436 -1.547657,0.284508 -1.613664,0.766276 0.749749,0.134059 1.537103,-0.339022 2.23693,-0.597653 0.04768,-0.131802 -0.23941,-0.189236 -0.623266,-0.168623 z m 17.016028,0.07898 c -0.0312,0.02785 0.313866,0.245755 0.187834,0.05763 -0.125485,-0.055 -0.177433,-0.06691 -0.187834,-0.05763 z m -18.061922,0.0043 c -0.0104,-0.0093 -0.06235,0.0026 -0.187833,0.05763 -0.126032,0.188124 0.219034,-0.02978 0.187833,-0.05763 z m 20.132362,0.03202 c -0.754474,0.408813 0.04958,1.643846 -0.636073,1.470652 -0.183679,0.589532 -0.172586,-1.223046 -0.36713,-0.189968 0.06568,0.953268 -1.190799,-0.698725 -1.824975,-0.213447 -1.345595,0.142046 0.937118,0.688249 1.38314,0.779083 0.793118,-0.392545 1.137229,1.296111 1.430097,0.72999 0.282296,-0.693135 0.758775,-2.435007 0.01494,-2.57631 z m -22.202802,0.0043 c -0.743835,0.141303 -0.267355,1.883175 0.01494,2.57631 0.292869,0.566122 0.63698,-1.122534 1.430098,-0.72999 0.446022,-0.09087 2.728734,-0.637071 1.38314,-0.779118 -0.634177,-0.485371 -1.890656,1.166621 -1.824975,0.213354 -0.194545,-1.033079 -0.183452,0.777365 -0.36713,0.187834 -0.685659,0.173193 0.118402,-1.059705 -0.636073,-1.468519 z m 23.321267,2.125907 c -0.638682,0.09102 -2.194527,2.175872 -1.201709,2.21345 0.892082,-0.270985 1.653837,-1.560509 1.201709,-2.21345 z m -24.439731,0.0022 c -0.452129,0.652909 0.309628,1.944568 1.201709,2.215553 0.992818,-0.03758 -0.563028,-2.124561 -1.201709,-2.215584 z m 20.236952,0.164356 c -0.133221,-0.0032 -0.26482,-0.0017 -0.392744,0.0064 0.707651,0.659316 1.526106,1.165009 2.471721,1.393812 0.166303,-0.121245 0.438747,0.47579 0.525081,0.247599 0.185593,-0.584921 -0.146521,-1.323013 -0.273213,-0.394878 -0.386021,-0.910038 -1.398304,-1.230875 -2.330845,-1.252936 z m -16.034171,0.0022 c -0.932543,0.02207 -1.944827,0.342898 -2.330847,1.252936 -0.126692,-0.928135 -0.458806,-0.187909 -0.273213,0.397012 0.08633,0.22819 0.358778,-0.370979 0.525081,-0.249734 0.945615,-0.228804 1.76407,-0.732361 2.471722,-1.391678 -0.127925,-0.0082 -0.259524,-0.01169 -0.392743,-0.0085 z M 51.046852,42.7753 c -0.26423,0.0039 -0.216894,0.238283 0.32444,0.693703 0.868867,0.634454 1.781913,1.857619 2.855927,1.596587 l 0.196372,-0.08965 c 0.878762,-0.04155 2.168887,-2.172864 0.576307,-1.477057 -0.93527,0.07923 -1.503147,1.790033 -1.615796,0.508005 -0.278826,0.91237 -0.761479,-1.076828 -1.562436,-0.988261 -0.343772,-0.164229 -0.616276,-0.245664 -0.774814,-0.243331 z m -16.179315,0.0043 c -0.158538,-0.0023 -0.431041,0.07697 -0.774814,0.241196 -0.800957,-0.08857 -1.28361,1.902765 -1.562436,0.990396 -0.112649,1.282028 -0.680526,-0.428773 -1.615797,-0.508005 -1.59258,-0.695807 -0.302454,1.435506 0.576308,1.477056 l 0.196372,0.08751 c 1.074013,0.261033 1.98706,-0.962134 2.855927,-1.596587 0.541334,-0.455421 0.58867,-0.68768 0.32444,-0.691569 z m 18.093939,0.189969 c -0.129977,0.0297 -0.203918,0.341512 0.202775,0.373533 -0.02664,-0.308781 -0.124789,-0.391352 -0.202775,-0.373533 z m -20.046983,0.0022 c -0.06847,0.01637 -0.142151,0.118351 -0.164355,0.375668 0.447363,-0.03522 0.314992,-0.411687 0.164355,-0.375668 z m 17.118485,0.947707 c 0.641343,1.205884 1.446594,2.251102 2.747067,2.821774 0.353746,0.143493 0.745085,0.04729 1.112062,0.02562 0.780749,-0.116798 1.773075,-0.502451 2.236928,-0.988262 -1.150751,-0.432948 -2.387315,0.05469 -3.178232,0.926361 0.333305,-0.611495 0.204462,-1.456989 -0.221985,-0.358591 -0.391546,-0.798972 -1.298432,-2.518302 -2.69584,-2.426897 z m -14.151565,0.0043 c -1.39741,-0.09176 -2.304296,1.62757 -2.695842,2.426542 -0.426448,-1.098398 -0.555289,-0.252904 -0.221985,0.358591 -0.790916,-0.871672 -2.027481,-1.361444 -3.178232,-0.928496 0.463852,0.485812 1.456179,0.873599 2.236929,0.990397 0.366976,0.02167 0.758315,0.117878 1.112061,-0.02562 1.300474,-0.570672 2.105724,-1.61589 2.747069,-2.821775 z m 14.034168,1.70331 c -0.121097,0.01182 -0.175418,0.171236 -0.117396,0.576307 -0.270495,1.295526 0.749844,2.180249 1.620066,2.870869 l 0.117396,0.0043 0.09818,-0.02988 c 0.26253,-0.463423 0.227425,-1.089577 1.041624,-0.651016 0.983678,0.364933 2.754368,0.161692 3.180366,-0.552828 -1.116856,-0.661723 -2.473233,-0.378997 -3.538958,0.232657 0.448693,-0.652841 0.146458,-1.308035 -0.283884,-0.268944 -0.225468,0.162678 -0.284466,-0.794133 -0.215583,0.175028 -0.319925,1.131604 -0.366933,0.312958 -0.273212,-0.371399 -0.326122,-0.455136 0.983748,-0.419548 0.03842,-0.830311 -0.33882,0.09579 -1.30373,-1.19022 -1.667024,-1.15475 z m -13.916772,0.0043 c -0.363294,-0.03547 -1.328206,1.248403 -1.667025,1.152617 -0.945325,0.410763 0.364541,0.375176 0.03842,0.830311 0.09372,0.684357 0.04671,1.505137 -0.273213,0.373533 0.06888,-0.969161 0.0099,-0.01448 -0.215582,-0.177162 -0.430343,-1.039477 -0.732577,-0.382149 -0.283885,0.270691 -1.065724,-0.611656 -2.4221,-0.894379 -3.538958,-0.232657 0.425998,0.714519 2.196688,0.917761 3.180367,0.552829 0.8142,-0.43856 0.779094,0.187593 1.041624,0.651015 l 0.09819,0.02988 0.117396,-0.0043 c 0.87022,-0.69062 1.89056,-1.575343 1.620065,-2.870869 0.05802,-0.405072 0.0037,-0.564484 -0.117395,-0.576308 z m 12.60407,1.295626 c -0.177941,-0.03553 -0.302841,0.133743 -0.290288,0.655285 -0.45862,1.344532 0.912529,2.252586 0.975455,3.370335 -0.600449,0.210238 -1.647362,1.086399 -1.929565,0.998933 1.114101,-1.177077 0.75762,-3.047677 -0.322306,-4.110997 -0.631404,-0.363422 -1.227653,1.155916 -0.966917,1.752403 -0.443231,1.123991 2.045988,2.413351 0.32444,2.926364 -3.143383,1.677876 -1.299477,-0.297146 -0.725721,-1.64568 -0.0022,-0.619523 -0.268184,-2.705871 -1.077909,-2.339383 -1.222013,0.63365 -1.353851,2.02366 -1.067238,3.227326 0.37839,0.772753 1.183839,1.819875 -0.209178,2.006406 -0.124431,-0.01473 -0.248662,-0.01016 -0.36713,0.01071 -0.112037,-0.01767 -0.22891,-0.02237 -0.345785,-0.0085 -1.393016,-0.18653 -0.587568,-1.231518 -0.209178,-2.004272 0.286614,-1.203665 0.154775,-2.593675 -1.067237,-3.227326 -0.809726,-0.366486 -1.075724,1.71986 -1.07791,2.339384 0.573756,1.348535 2.417662,3.323556 -0.725721,1.645681 -1.721548,-0.513015 0.767671,-1.802374 0.32444,-2.926365 0.260737,-0.596487 -0.335511,-2.115826 -0.966917,-1.752403 -1.079926,1.063321 -1.436407,2.93392 -0.322306,4.110997 -0.282202,0.08746 -1.329116,-0.788694 -1.929565,-0.998934 0.06293,-1.117748 1.434075,-2.025802 0.975456,-3.370334 0.04016,-1.668929 -1.311583,0.270764 -1.391678,0.975454 -0.558548,0.495127 0.625392,2.788295 -0.328708,1.64568 -0.206921,-0.187748 -0.620082,-0.62732 -1.242265,-0.870866 -0.213962,0.372172 1.62017,1.360558 1.449308,1.767345 -1.349897,-0.415543 -3.046049,-0.314424 -3.923164,0.949841 0.581371,0.26338 2.379207,0.734714 3.338319,0.157951 0.791627,-0.797345 1.896062,-1.004775 2.522948,0.07043 -1.126998,0.04638 -2.668786,0.195185 -3.319108,1.406619 -1.163995,1.255908 0.790137,0.624283 1.530419,0.8111 1.023071,-0.169386 1.824884,-0.704413 2.260408,-1.594452 0.179404,-1.026644 2.829363,0.725417 1.423694,0.537887 -0.629724,-0.733962 -0.88944,-0.03058 -1.225188,0.373533 -0.706944,0.247848 -1.98364,1.958573 -1.205978,2.354325 3.571565,0.592697 3.31353,-2.569773 4.969056,-2.166491 7.48e-4,1.99e-4 0.0014,-1.98e-4 0.0022,0 -0.268624,0.253524 -0.287841,0.687741 0.290288,1.233727 -0.379371,0.327951 -0.846477,0.682932 -0.99253,1.060833 0.195955,0.266013 0.594596,-0.513042 0.794025,-0.589115 0.1568,-0.101231 0.286541,-0.198844 0.405549,-0.294557 0.118058,0.09468 0.246272,0.192344 0.401282,0.292422 0.199429,0.07607 0.598069,0.852994 0.794024,0.586982 -0.145589,-0.376701 -0.609508,-0.731602 -0.988262,-1.0587 0.574942,-0.545898 0.55283,-0.979364 0.281751,-1.231592 0.0025,-6.58e-4 0.0039,-0.0015 0.0064,-0.0022 1.655527,-0.403282 1.397492,2.759188 4.969056,2.166492 0.777663,-0.395753 -0.499034,-2.108612 -1.205977,-2.35646 -0.335749,-0.404108 -0.595465,-1.105361 -1.225189,-0.371399 -1.405669,0.18753 1.24429,-1.566665 1.423694,-0.540021 0.435524,0.890039 1.237338,1.4272 2.260409,1.596586 0.740281,-0.186817 2.694413,0.442672 1.530418,-0.813234 -0.650321,-1.211434 -2.192109,-1.360239 -3.319107,-1.406619 0.626885,-1.075212 1.73132,-0.867783 2.522949,-0.07043 0.959111,0.576763 2.759081,0.105427 3.340451,-0.157951 -0.877114,-1.264265 -2.575401,-1.36325 -3.925298,-0.947707 -0.170861,-0.406787 1.663271,-1.397309 1.449308,-1.769479 -0.622182,0.243546 -1.035344,0.683118 -1.242263,0.870866 -0.954102,1.142614 0.229839,-1.148418 -0.32871,-1.643546 -0.05507,-0.484474 -0.709918,-1.554716 -1.101388,-1.632874 z m 3.425831,1.908221 c 0.679206,0.698112 -1.815705,0.841741 -0.226254,1.210247 0.71685,0.301775 1.53204,0.331173 2.275349,0.108859 0.488672,-0.112342 1.58528,-0.05767 0.612595,-0.625402 -0.904743,-0.385005 -1.939674,-0.481774 -2.66169,-0.693704 z m -18.143031,0.0043 c -0.722016,0.21193 -1.756947,0.308698 -2.66169,0.693705 -0.972686,0.567734 0.123923,0.510925 0.612594,0.623266 0.74331,0.222316 1.5585,0.192917 2.27535,-0.108859 1.589452,-0.36862 -0.90546,-0.510116 -0.226254,-1.208227 z m 16.271098,0.192102 c -0.239578,-0.02823 -0.280259,0.84254 0.290288,0.409819 -0.108946,-0.290585 -0.210429,-0.400409 -0.290288,-0.409819 z m -14.399164,0.0043 c -0.07987,0.0094 -0.181342,0.119234 -0.290289,0.409819 0.570547,0.432721 0.529867,-0.438048 0.290289,-0.409819 z m 15.246549,1.229459 c -0.21398,-0.01131 -0.52151,0.468935 0.134472,0.416222 0.04051,-0.304854 -0.03721,-0.411079 -0.134472,-0.416222 z m -16.093935,0.0043 c -0.09726,0.0051 -0.174988,0.111367 -0.134472,0.416222 0.655983,0.05271 0.348452,-0.427539 0.134472,-0.416222 z m 13.686248,0.313766 c -0.267053,-0.03849 -0.696573,0.441499 0.130204,0.465315 0.07894,-0.323509 -0.0089,-0.44782 -0.130204,-0.465315 z m -11.278561,0.0043 c -0.121389,0.0175 -0.209139,0.141806 -0.130204,0.465316 0.826777,-0.02381 0.397257,-0.503804 0.130204,-0.465316 z m 8.710789,1.090718 c -0.315286,-0.01809 -0.711912,0.387286 0.183565,0.618997 0.164796,-0.444978 0.0056,-0.608143 -0.183565,-0.618997 z m -6.143017,0.0022 c -0.189172,0.01082 -0.348361,0.17402 -0.183565,0.618999 0.895477,-0.231712 0.498851,-0.637089 0.183565,-0.618999 z m 3.069374,2.505874 c 0.487847,0.247111 0.340802,0.539753 0.0043,0.864463 -0.338469,-0.325411 -0.489259,-0.616783 -0.0043,-0.864463 z"/><path id="path7675" style="fill:#fff;fill-opacity:1;stroke-width:.0691536" d="m 45.344317,31.673537 c 0.391989,0.533741 1.43212,1.359715 1.291356,1.782286 -0.597409,-0.868641 -1.993415,-1.063089 -3.04376,-1.052295 -0.919589,0.340049 1.789261,0.425958 2.085381,0.969051 -1.218809,0.541558 1.840028,0.509757 2.066171,0.550694 -0.734378,-0.735911 -1.178645,-2.340514 -2.399148,-2.249736 z m -5.758813,0.0043 c -1.220502,-0.09078 -1.66477,1.513826 -2.399148,2.249736 0.226143,-0.04094 3.28498,-0.01127 2.066171,-0.552828 0.296121,-0.543094 3.00497,-0.626868 2.085381,-0.966917 -1.050345,-0.0108 -2.446351,0.183654 -3.04376,1.052296 -0.140764,-0.422571 0.899367,-1.248546 1.291356,-1.782287 z m 7.579519,0.484526 c -0.04777,0.0011 -0.09714,0.0095 -0.147278,0.02561 0.298816,0.431033 1.875272,2.3661 0.6873,1.940237 0.02793,0.543643 -2.093369,0.337591 -0.875134,0.712915 0.746174,0.549305 2.367883,-0.309725 2.599789,0.446105 -0.08313,0.655413 -2.728779,0.399501 -1.417291,0.77268 0.357252,0.03681 2.533675,0.303193 1.652084,-0.335113 0.462137,0.163004 0.856722,0.126881 1.144078,0.569905 0.212258,-0.83017 -0.252718,-2.393602 -0.868731,-2.569907 0.05395,0.500554 0.969995,2.644178 -0.08538,1.543225 0.09505,-0.790327 -1.02306,-2.694093 -1.363929,-2.335115 0.371237,0.477555 1.487057,2.61358 0.136607,1.451442 -0.291704,-0.653137 -0.745611,-2.238607 -1.462115,-2.221988 z m -9.400225,0.0043 c -0.716504,-0.01661 -1.170411,1.568859 -1.462115,2.221996 -1.35045,1.162138 -0.23463,-0.973887 0.136606,-1.451443 -0.340867,-0.358979 -1.458974,1.542654 -1.363929,2.332981 -1.055373,1.100951 -0.139333,-1.040536 -0.08538,-1.541091 -0.616012,0.176305 -1.080988,1.739738 -0.86873,2.569907 0.287355,-0.443023 0.68194,-0.409035 1.144078,-0.572039 -0.881591,0.638305 1.294832,0.374054 1.652083,0.337247 1.311488,-0.373179 -1.334158,-0.119401 -1.417291,-0.774814 0.231906,-0.75583 1.855749,0.1032 2.601925,-0.446105 1.218234,-0.375324 -0.905203,-0.167137 -0.87727,-0.71078 -1.187972,0.425863 0.388484,-1.509203 0.6873,-1.940237 -0.05013,-0.01611 -0.09952,-0.02451 -0.147278,-0.02561 z m 10.283897,2.185702 c 0.17637,0.01846 0.918362,0.42729 0.09178,0.15155 -0.145661,-0.120381 -0.150568,-0.157699 -0.09178,-0.151547 z m -11.167569,0.0043 c 0.05878,-0.0062 0.05388,0.03117 -0.09178,0.151548 -0.82658,0.27574 -0.08459,-0.133094 0.09178,-0.151548 z m 14.633956,0.610455 c -0.05274,0.01504 -0.103985,0.100216 -0.149414,0.281751 0.402531,0.816179 -0.685739,0.739733 0.08111,1.05443 0.172274,0.575756 -0.168238,0.875917 0.273213,1.530418 -0.594112,0.822579 -0.576825,-0.970867 -0.969051,-0.02562 -0.617184,-0.124723 -1.922186,0.140208 -0.563502,0.339382 1.246615,-0.0856 1.896124,0.793741 2.800431,1.348987 l 0.05763,-0.04909 0.02134,-0.08538 c -0.145362,-0.792359 0.337689,-2.680369 -0.36072,-2.83671 -0.150532,0.685572 0.06463,2.621676 -0.578443,1.931699 -0.4336,-0.634713 0.439509,-1.384211 0.0064,-2.104591 -0.117946,-0.217874 -0.3905,-1.450425 -0.619042,-1.385271 z m -18.100343,0.0043 c -0.228543,-0.06515 -0.501095,1.167398 -0.618997,1.385274 -0.433063,0.720382 0.440002,1.467744 0.0064,2.102457 -0.643071,0.689977 -0.427911,-1.246127 -0.578442,-1.9317 -0.69841,0.156343 -0.215359,2.046487 -0.360727,2.838852 l 0.02134,0.08538 0.05763,0.04909 c 0.904309,-0.555245 1.553817,-1.434588 2.800433,-1.348986 1.358684,-0.199173 0.05368,-0.464105 -0.563501,-0.339381 -0.392227,-0.945254 -0.374939,0.848192 -0.969052,0.02562 0.441453,-0.6545 0.100939,-0.954662 0.273212,-1.530418 0.766851,-0.314698 -0.321421,-0.240389 0.08111,-1.056568 -0.04543,-0.181535 -0.09667,-0.26458 -0.149413,-0.279616 z m 16.260425,0.480257 c 0.05109,0.02493 0.05088,0.237895 -0.06617,0.05976 0.0258,-0.05463 0.04913,-0.06808 0.06617,-0.05976 z m -14.420507,0.0043 c 0.01703,-0.0083 0.04036,0.0051 0.06617,0.05976 -0.11705,0.178129 -0.117264,-0.03483 -0.06617,-0.05976 z m 15.55178,1.030947 c -0.06306,0.01672 -0.07684,0.116365 0.02775,0.354323 -0.243254,-0.203056 -2.404458,-0.310761 -2.068305,0.254002 0.701681,0.0668 1.425544,0.101548 2.121667,-0.02134 0.746851,0.05863 0.108061,-0.637124 -0.08111,-0.58698 z m -16.683052,0.0043 c -0.189172,-0.05014 -0.82796,0.645609 -0.08111,0.586981 0.696124,0.122891 1.419986,0.08814 2.121667,0.02134 0.336152,-0.564763 -1.825051,-0.457059 -2.068305,-0.254003 0.104584,-0.237956 0.0908,-0.337607 0.02775,-0.354323 z m 16.326594,2.266811 c -0.383856,-0.02061 -0.670942,0.03682 -0.623267,0.168624 0.699827,0.258631 1.487181,0.731712 2.236929,0.597653 -0.06601,-0.481768 -0.973902,-0.731922 -1.613662,-0.766277 z m -15.970136,0.0043 c -0.639761,0.03436 -1.547657,0.284508 -1.613664,0.766276 0.749749,0.134059 1.537103,-0.339022 2.23693,-0.597653 0.04768,-0.131802 -0.23941,-0.189236 -0.623266,-0.168623 z m 17.016028,0.07898 c -0.0312,0.02785 0.313866,0.245755 0.187834,0.05763 -0.125485,-0.055 -0.177433,-0.06691 -0.187834,-0.05763 z m -18.061922,0.0043 c -0.0104,-0.0093 -0.06235,0.0026 -0.187833,0.05763 -0.126033,0.188124 0.219034,-0.02978 0.187833,-0.05763 z m 20.132362,0.03202 c -0.754474,0.408813 0.04958,1.643846 -0.636073,1.470652 -0.183679,0.589532 -0.172586,-1.223046 -0.36713,-0.189968 0.06568,0.953268 -1.190799,-0.698725 -1.824975,-0.213447 -1.345595,0.142046 0.937118,0.688249 1.38314,0.779083 0.793118,-0.392545 1.137229,1.296111 1.430097,0.72999 0.282296,-0.693135 0.758775,-2.435007 0.01494,-2.57631 z m -22.202802,0.0043 c -0.743835,0.141303 -0.267355,1.883175 0.01494,2.57631 0.292869,0.566122 0.63698,-1.122534 1.430098,-0.72999 0.446022,-0.09087 2.728734,-0.637071 1.38314,-0.779118 -0.634177,-0.485371 -1.890656,1.166621 -1.824976,0.213354 -0.194544,-1.033079 -0.183451,0.777365 -0.367129,0.187834 -0.685659,0.173193 0.118402,-1.059705 -0.636074,-1.468519 z m 23.321267,2.125907 c -0.638682,0.09102 -2.194527,2.175872 -1.201709,2.21345 0.892082,-0.270985 1.653837,-1.560509 1.201709,-2.21345 z m -24.439731,0.0022 c -0.452129,0.652909 0.309628,1.944568 1.201709,2.215553 0.992818,-0.03758 -0.563028,-2.124561 -1.201709,-2.215584 z m 20.236952,0.164356 c -0.133221,-0.0032 -0.26482,-0.0017 -0.392744,0.0064 0.707651,0.659316 1.526106,1.165009 2.471721,1.393812 0.166303,-0.121245 0.438747,0.47579 0.525081,0.247599 0.185593,-0.584921 -0.146521,-1.323013 -0.273213,-0.394878 -0.386021,-0.910038 -1.398304,-1.230875 -2.330845,-1.252936 z m -16.034171,0.0022 c -0.932543,0.02207 -1.944827,0.342898 -2.330847,1.252936 -0.126692,-0.928135 -0.458806,-0.187909 -0.273213,0.397012 0.08633,0.22819 0.358778,-0.370979 0.525081,-0.249734 0.945614,-0.228804 1.76407,-0.732361 2.471722,-1.391678 -0.127925,-0.0082 -0.259524,-0.01169 -0.392743,-0.0085 z m 16.106742,1.538951 c -0.26423,0.0039 -0.216894,0.238283 0.32444,0.693703 0.868867,0.634454 1.781913,1.857619 2.855927,1.596587 l 0.196372,-0.08965 c 0.878762,-0.04155 2.168887,-2.172864 0.576307,-1.477057 -0.93527,0.07923 -1.503147,1.790033 -1.615796,0.508005 -0.278826,0.91237 -0.761479,-1.076828 -1.562436,-0.988261 -0.343772,-0.164229 -0.616276,-0.245664 -0.774814,-0.243331 z m -16.179315,0.0043 c -0.158538,-0.0023 -0.431041,0.07697 -0.774815,0.241196 -0.800956,-0.08857 -1.283609,1.902765 -1.562435,0.990396 -0.112649,1.282028 -0.680526,-0.428773 -1.615797,-0.508005 -1.59258,-0.695807 -0.302454,1.435506 0.576308,1.477056 l 0.196372,0.08751 c 1.074013,0.261033 1.98706,-0.962134 2.855927,-1.596587 0.541334,-0.455421 0.58867,-0.68768 0.32444,-0.691569 z m 18.093939,0.189969 c -0.129977,0.0297 -0.203918,0.341512 0.202775,0.373533 -0.02664,-0.308781 -0.124789,-0.391352 -0.202775,-0.373533 z m -20.046983,0.0022 c -0.06847,0.01637 -0.142152,0.118351 -0.164355,0.375668 0.447362,-0.03522 0.314992,-0.411687 0.164355,-0.375668 z m 17.118485,0.947707 c 0.641343,1.205884 1.446594,2.251102 2.747067,2.821774 0.353746,0.143493 0.745085,0.04729 1.112062,0.02562 0.780749,-0.116798 1.773075,-0.502451 2.236928,-0.988262 -1.150751,-0.432948 -2.387315,0.05469 -3.178232,0.926361 0.333305,-0.611495 0.204462,-1.456989 -0.221985,-0.358591 -0.391546,-0.798972 -1.298432,-2.518302 -2.69584,-2.426897 z m -14.151565,0.0043 c -1.39741,-0.09176 -2.304296,1.62757 -2.695842,2.426542 -0.426448,-1.098398 -0.55529,-0.252904 -0.221985,0.358591 -0.790916,-0.871672 -2.027481,-1.361444 -3.178233,-0.928496 0.463853,0.485812 1.45618,0.873599 2.236929,0.990397 0.366977,0.02167 0.758316,0.117878 1.112062,-0.02562 1.300474,-0.570672 2.105724,-1.61589 2.747069,-2.821775 z m 14.034168,1.70331 c -0.121097,0.01182 -0.175418,0.171236 -0.117396,0.576307 -0.270495,1.295526 0.749844,2.180249 1.620066,2.870869 l 0.117396,0.0043 0.09818,-0.02988 c 0.26253,-0.463423 0.227425,-1.089577 1.041624,-0.651016 0.983678,0.364933 2.754368,0.161692 3.180366,-0.552828 -1.116856,-0.661723 -2.473233,-0.378997 -3.538958,0.232657 0.448693,-0.652841 0.146458,-1.308035 -0.283884,-0.268944 -0.225468,0.162678 -0.284466,-0.794133 -0.215583,0.175028 -0.319925,1.131604 -0.366933,0.312958 -0.273212,-0.371399 -0.326122,-0.455136 0.983748,-0.419548 0.03842,-0.830311 -0.33882,0.09579 -1.30373,-1.19022 -1.667024,-1.15475 z m -13.916772,0.0043 c -0.363294,-0.03547 -1.328206,1.248403 -1.667025,1.152617 -0.945325,0.410763 0.364541,0.375176 0.03842,0.830311 0.09372,0.684357 0.04671,1.505137 -0.273213,0.373533 0.06888,-0.969161 0.0099,-0.01448 -0.215582,-0.177162 -0.430343,-1.039477 -0.732577,-0.382149 -0.283885,0.270691 -1.065724,-0.611656 -2.4221,-0.894379 -3.538958,-0.232657 0.425998,0.714519 2.196688,0.917761 3.180367,0.552829 0.8142,-0.43856 0.779094,0.187593 1.041624,0.651015 l 0.09819,0.02988 0.117396,-0.0043 c 0.87022,-0.69062 1.89056,-1.575343 1.620065,-2.870869 0.05802,-0.405072 0.0037,-0.564484 -0.117395,-0.576308 z m 12.60407,1.295626 c -0.177941,-0.03553 -0.302841,0.133743 -0.290288,0.655285 -0.45862,1.344532 0.912529,2.252586 0.975455,3.370335 -0.600449,0.210238 -1.647362,1.086399 -1.929565,0.998933 1.114101,-1.177077 0.75762,-3.047677 -0.322306,-4.110997 -0.631404,-0.363422 -1.227653,1.155916 -0.966917,1.752403 -0.443231,1.123991 2.045988,2.413351 0.32444,2.926364 -3.143383,1.677876 -1.299477,-0.297146 -0.725721,-1.64568 -0.0022,-0.619523 -0.268184,-2.705871 -1.077909,-2.339383 -1.222013,0.63365 -1.353851,2.02366 -1.067238,3.227326 0.37839,0.772753 1.183839,1.819875 -0.209178,2.006406 -0.124431,-0.01473 -0.248662,-0.01016 -0.36713,0.01071 -0.112037,-0.01767 -0.22891,-0.02237 -0.345785,-0.0085 -1.393016,-0.18653 -0.587568,-1.231518 -0.209178,-2.004272 0.286614,-1.203665 0.154775,-2.593675 -1.067237,-3.227326 -0.809726,-0.366486 -1.075724,1.71986 -1.07791,2.339384 0.573756,1.348535 2.417662,3.323556 -0.725721,1.645681 -1.721548,-0.513015 0.767671,-1.802374 0.32444,-2.926365 0.260737,-0.596487 -0.335511,-2.115826 -0.966917,-1.752403 -1.079926,1.063321 -1.436407,2.93392 -0.322306,4.110997 -0.282202,0.08746 -1.329116,-0.788694 -1.929565,-0.998934 0.06293,-1.117748 1.434075,-2.025802 0.975456,-3.370334 0.04016,-1.668929 -1.311583,0.270764 -1.391678,0.975454 -0.558548,0.495127 0.625392,2.788295 -0.328708,1.64568 -0.206921,-0.187748 -0.620082,-0.62732 -1.242265,-0.870866 -0.213962,0.372172 1.62017,1.360558 1.449308,1.767345 -1.349897,-0.415543 -3.04605,-0.314424 -3.923164,0.949841 0.581371,0.26338 2.379207,0.734714 3.338319,0.157951 0.791627,-0.797345 1.896062,-1.004775 2.522948,0.07043 -1.126998,0.04638 -2.668786,0.195185 -3.319108,1.406619 -1.163995,1.255908 0.790137,0.624283 1.530419,0.8111 1.023071,-0.169386 1.824884,-0.704413 2.260408,-1.594452 0.179404,-1.026644 2.829363,0.725417 1.423694,0.537887 -0.629724,-0.733962 -0.88944,-0.03058 -1.225188,0.373533 -0.706944,0.247848 -1.98364,1.958573 -1.205978,2.354325 3.571565,0.592697 3.31353,-2.569773 4.969056,-2.166491 7.48e-4,1.99e-4 0.0014,-1.98e-4 0.0022,0 -0.268624,0.253524 -0.287841,0.687741 0.290288,1.233727 -0.379371,0.327951 -0.846477,0.682932 -0.99253,1.060833 0.195955,0.266013 0.594596,-0.513042 0.794025,-0.589115 0.1568,-0.101231 0.286541,-0.198844 0.405549,-0.294557 0.118058,0.09468 0.246272,0.192344 0.401282,0.292422 0.199429,0.07607 0.598069,0.852994 0.794024,0.586982 -0.145589,-0.376701 -0.609508,-0.731602 -0.988262,-1.0587 0.574942,-0.545898 0.55283,-0.979364 0.281751,-1.231592 0.0025,-6.58e-4 0.0039,-0.0015 0.0064,-0.0022 1.655527,-0.403282 1.397492,2.759188 4.969056,2.166492 0.777663,-0.395753 -0.499034,-2.108612 -1.205977,-2.35646 -0.335749,-0.404108 -0.595465,-1.105361 -1.225189,-0.371399 -1.405669,0.18753 1.24429,-1.566665 1.423694,-0.540021 0.435524,0.890039 1.237338,1.4272 2.260409,1.596586 0.740281,-0.186817 2.694413,0.442672 1.530418,-0.813234 -0.650321,-1.211434 -2.192109,-1.360239 -3.319107,-1.406619 0.626885,-1.075212 1.73132,-0.867783 2.522949,-0.07043 0.959111,0.576763 2.759081,0.105427 3.340451,-0.157951 -0.877114,-1.264265 -2.575401,-1.36325 -3.925298,-0.947707 -0.170861,-0.406787 1.663271,-1.397309 1.449308,-1.769479 -0.622182,0.243546 -1.035344,0.683118 -1.242263,0.870866 -0.954102,1.142614 0.229839,-1.148418 -0.32871,-1.643546 -0.05507,-0.484474 -0.709918,-1.554716 -1.101388,-1.632874 z m 3.425831,1.908221 c 0.679206,0.698112 -1.815705,0.841741 -0.226254,1.210247 0.71685,0.301775 1.53204,0.331173 2.275349,0.108859 0.488672,-0.112342 1.58528,-0.05767 0.612595,-0.625402 -0.904743,-0.385005 -1.939674,-0.481774 -2.66169,-0.693704 z m -18.143032,0.0043 c -0.722015,0.21193 -1.756946,0.308698 -2.661689,0.693705 -0.972686,0.567734 0.123923,0.510925 0.612594,0.623266 0.74331,0.222316 1.5585,0.192917 2.27535,-0.108859 1.589452,-0.36862 -0.90546,-0.510116 -0.226255,-1.208227 z m 16.271099,0.192102 c -0.239578,-0.02823 -0.280259,0.84254 0.290288,0.409819 -0.108946,-0.290585 -0.210429,-0.400409 -0.290288,-0.409819 z m -14.399164,0.0043 c -0.07987,0.0094 -0.181342,0.119234 -0.290289,0.409819 0.570547,0.432721 0.529867,-0.438048 0.290289,-0.409819 z m 15.246549,1.229459 c -0.21398,-0.01131 -0.52151,0.468935 0.134472,0.416222 0.04051,-0.304854 -0.03721,-0.411079 -0.134472,-0.416222 z m -16.093935,0.0043 c -0.09726,0.0051 -0.174988,0.111367 -0.134472,0.416222 0.655983,0.05271 0.348452,-0.427539 0.134472,-0.416222 z m 13.686248,0.313766 c -0.267053,-0.03849 -0.696573,0.441499 0.130204,0.465315 0.07894,-0.323509 -0.0089,-0.44782 -0.130204,-0.465315 z m -11.278561,0.0043 c -0.121389,0.0175 -0.209139,0.141806 -0.130204,0.465316 0.826777,-0.02381 0.397257,-0.503804 0.130204,-0.465316 z m 8.710789,1.090718 c -0.315286,-0.01809 -0.711912,0.387286 0.183565,0.618997 0.164796,-0.444978 0.0056,-0.608143 -0.183565,-0.618997 z m -6.143017,0.0022 c -0.189172,0.01082 -0.348361,0.17402 -0.183565,0.618999 0.895477,-0.231712 0.498851,-0.637089 0.183565,-0.618999 z m 3.069374,2.505874 c 0.487847,0.247111 0.340802,0.539753 0.0043,0.864463 -0.338469,-0.325411 -0.489259,-0.616783 -0.0043,-0.864463 z"/><path style="fill:#000;fill-opacity:1;stroke:#000;stroke-width:.1;stroke-dasharray:none;stroke-dashoffset:14.7;stroke-opacity:0" id="path7917-5" d="m 16.999437,12.948893 1.453328,3.568132 3.842598,0.279583 -2.944392,2.48481 0.921528,3.740924 -3.273062,-2.032434 -3.273062,2.032434 0.921529,-3.740924 -2.944392,-2.48481 3.842598,-0.279583 z" transform="translate(25.805413,23.211082)"/><path style="fill:#fff;fill-opacity:1;stroke:#000;stroke-width:.1;stroke-dasharray:none;stroke-dashoffset:14.7;stroke-opacity:0" id="path7917" d="m 16.999437,12.948893 1.453328,3.568132 3.842598,0.279583 -2.944392,2.48481 0.921528,3.740924 -3.273062,-2.032434 -3.273062,2.032434 0.921529,-3.740924 -2.944392,-2.48481 3.842598,-0.279583 z" transform="translate(25.367913,22.992332)"/></g></svg>