<?xml version="1.0" encoding="UTF-8" standalone="no"?>
<svg
   height="34"
   width="34"
   version="1.1"
   id="svg2360"
   sodipodi:docname="winAgainst2.svg"
   inkscape:version="1.2.2 (732a01da63, 2022-12-09)"
   xmlns:inkscape="http://www.inkscape.org/namespaces/inkscape"
   xmlns:sodipodi="http://sodipodi.sourceforge.net/DTD/sodipodi-0.dtd"
   xmlns="http://www.w3.org/2000/svg"
   xmlns:svg="http://www.w3.org/2000/svg">
  <defs
     id="defs2364" />
  <sodipodi:namedview
     id="namedview2362"
     pagecolor="#ffffff"
     bordercolor="#000000"
     borderopacity="0.25"
     inkscape:showpageshadow="2"
     inkscape:pageopacity="0.0"
     inkscape:pagecheckerboard="0"
     inkscape:deskcolor="#d1d1d1"
     showgrid="false"
     inkscape:zoom="8.0485437"
     inkscape:cx="-20.686972"
     inkscape:cy="17.767189"
     inkscape:window-width="1920"
     inkscape:window-height="1009"
     inkscape:window-x="-8"
     inkscape:window-y="-8"
     inkscape:window-maximized="1"
     inkscape:current-layer="g2358" />
  <g
     fill-rule="evenodd"
     id="g2358"
     transform="translate(-25.367913,-26.983112)">
    <path
       fill="#cccc00"
       fill-rule="evenodd"
       stroke="none"
       d="m 26.516961,59.938928 v -32.00001 h 32 v 32.00001 h -32"
       id="path1694-1-6-4-3"
       style="fill:#44aa00;fill-opacity:1"
       inkscape:export-filename="victoire.png"
       inkscape:export-xdpi="90.352943"
       inkscape:export-ydpi="90.352943" />
    <path
       id="path1694-1-6-4-3-4-7"
       style="fill:#368700;fill-opacity:1"
       d="m 26.805412,28.045611 v 0.929688 l 28.177734,31.070313 h 2.660156 l 0.207031,-0.1875 -28.851562,-31.812501 z m 5.232422,0 26.767578,29.515626 V 54.211628 L 35.074943,28.045611 Z m 6.074218,0 20.69336,22.816407 V 47.512409 L 41.151115,28.045611 Z m 6.076172,0 L 58.805412,44.1628 V 40.815143 L 47.22338,28.045611 Z m 6.074219,0 8.542969,9.419923 v -3.347657 l -5.50586,-6.072266 z m 6.074219,0 2.46875,2.722656 v -2.722656 z m -29.53125,4.279297 v 3.349609 l 22.101562,24.371095 h 3.039062 z m 0,6.697267 v 3.349609 l 16.029296,17.673828 h 3.035157 z m 0,6.699218 v 3.34961 l 9.953124,10.974609 h 3.03711 z m 0,6.697266 v 3.351563 l 3.876953,4.27539 h 3.039062 z m 0,6.701172 v 0.925781 h 0.839843 z" />
    <path
       id="path1694-1-6-4-3-4"
       style="fill:#ffffff;fill-opacity:1"
       d="M 26.367912,27.983112 V 28.9128 l 28.177734,31.070312 h 2.660156 l 0.207031,-0.1875 -28.851562,-31.8125 z m 5.232422,0 26.767578,29.515625 V 54.149128 L 34.637443,27.983112 Z m 6.074218,0 20.69336,22.816406 V 47.449909 L 40.713615,27.983112 Z m 6.076172,0 L 58.367912,44.1003 V 40.752643 L 46.78588,27.983112 Z m 6.074219,0 8.542969,9.419922 v -3.347656 l -5.50586,-6.072266 z m 6.074219,0 2.46875,2.722656 v -2.722656 z m -29.53125,4.279297 v 3.349609 l 22.101562,24.371094 h 3.039062 z m 0,6.697266 v 3.349609 l 16.029296,17.673828 h 3.035157 z m 0,6.699218 v 3.34961 l 9.953124,10.974609 h 3.03711 z m 0,6.697266 v 3.351563 l 3.876953,4.27539 h 3.039062 z m 0,6.701172 v 0.925781 h 0.839843 z" />
    <path
       id="path424-0-2-4"
       style="color:#000000;fill:#000000;fill-opacity:1;stroke-linecap:round;stroke-linejoin:round;-inkscape-stroke:none"
       d="m 26.367913,26.983112 c -0.552262,5.5e-5 -0.999945,0.447738 -1,1 v 32 c 5.5e-5,0.552262 0.447738,0.999945 1,1 h 32 c 0.552262,-5.5e-5 0.999945,-0.447738 1,-1 v -32 c -5.5e-5,-0.552262 -0.447738,-0.999945 -1,-1 z m 1,2 h 30 v 30 c -30,0 0,0 -30,0 z"
       sodipodi:nodetypes="cccccccccccccc" />
    <path
       d="m 31.651271,51.797053 q -1.669697,-1.40606 0.395454,-5.404543 1.713636,-3.383332 5.316665,-6.986361 3.603028,-3.603029 6.98636,-5.316665 3.954544,-2.021211 5.404544,-0.483333 1.977272,1.45 3.119695,3.119696 l 0.527273,0.790909 0.04394,0.307576 0.08788,0.966666 v 0.175757 l -0.571212,2.065151 -0.527272,1.142424 -0.175758,0.351515 -0.395454,0.746969 q -1.713636,2.856059 -4.745453,5.887876 -2.240908,2.240909 -4.393938,3.778787 l -0.966666,0.615151 -0.878787,0.527273 -0.351515,0.175757 0.04394,0.04394 -0.439394,0.175758 -1.010605,0.483333 q -3.031817,1.274242 -4.306059,0 -1.581821,-1.142425 -3.119699,-3.119697 l -0.04394,-0.04394 M 46.986113,39.274331 q -2.592423,1.625757 -5.360604,4.393937 -2.680302,2.680302 -4.306059,5.184847 2.680302,-1.45 5.492422,-4.26212 2.724242,-2.724241 4.174241,-5.316664"
       id="path2348-9"
       style="stroke-width:0.878788" />
    <path
       id="path2350-8"
       style="fill:#44aa00;fill-opacity:1;stroke-width:0.878788"
       d="m 48.172601,33.912799 c -0.823863,-0.03204 -1.921818,0.291352 -3.294922,0.96875 -2.167674,1.11313 -4.408519,2.826488 -6.722657,5.140625 -2.343431,2.343432 -4.086093,4.613581 -5.228515,6.810547 -1.083837,2.196967 -1.24599,3.675885 -0.484375,4.4375 l 0.04492,0.04492 c 0.966665,1.259594 1.96303,2.254004 2.988281,2.986328 1.01111,0.879722 2.211205,0.562542 3.470703,-0.130859 l 0.878906,-0.439453 c 0.02325,-0.0077 0.03883,-0.01908 0.06055,-0.02734 l 0.02734,0.02734 0.132812,-0.0957 c 0.06963,-0.03783 0.128049,-0.07922 0.173828,-0.125 l 0.439454,-0.175782 0.791015,-0.527343 0.878907,-0.527344 c 1.406058,-0.995958 2.855671,-2.240437 4.349609,-3.734375 1.93333,-1.93333 3.441554,-3.822517 4.525391,-5.667969 l 0.396484,-0.746093 0.175781,-0.263672 v -0.08789 l 0.527344,-1.054687 c 0.0828,-0.198732 0.152718,-0.389532 0.216797,-0.574219 l 0.002,0.002 0.0059,-0.02148 v -0.002 c 0.158135,-0.459795 0.261377,-0.877789 0.302735,-1.25 0.01022,-0.322265 0.274024,-0.644531 -0.08789,-0.966796 l -0.04492,-0.04492 -0.30664,-0.482422 c -0.761705,-1.113139 -1.75807,-2.109504 -2.988372,-2.988291 l -0.04297,-0.04297 c -0.296589,-0.27462 -0.693181,-0.422182 -1.187498,-0.441406 z m 0.193359,1.511719 c 0.252651,0.0037 0.480496,0.042 0.685547,0.115235 0.146464,0.439393 0.11716,1.054795 -0.08789,1.845703 l -0.615234,1.49414 -0.13086,0.21875 c -0.995958,1.991916 -2.549115,4.043256 -4.658203,6.152344 -2.138381,2.138381 -4.219025,3.720843 -6.240234,4.746094 l -0.306641,0.130859 c -0.585858,0.292929 -1.08404,0.498063 -1.49414,0.615235 l -1.712892,0.04492 c -0.322222,-0.790909 -0.07411,-1.978732 0.746094,-3.560547 1.054543,-1.991916 2.650681,-4.056932 4.789062,-6.195313 2.109088,-2.109088 4.144799,-3.675921 6.107422,-4.701172 1.186362,-0.61515 2.160015,-0.917235 2.917969,-0.90625 z"
       sodipodi:nodetypes="scscscccccccccccscccccccccccccccssccccscccccscs" />
    <path
       id="path2543"
       style="fill:#ffffff;fill-opacity:1;stroke:none;stroke-width:0.0511327;stroke-dashoffset:14.7;stroke-opacity:1"
       d="m 47.192132,34.543659 c -0.213788,0.02083 -0.429374,0.05624 -0.636719,0.117187 -0.134189,0.04637 -0.286617,0.04722 -0.404297,0.134766 -0.515563,0.192412 -1.028799,0.432045 -1.529297,0.623047 -0.320222,0.287896 -0.763744,0.424332 -1.11914,0.673828 -2.763427,1.677205 -5.110265,3.959 -7.195313,6.410156 -0.786502,0.930913 -1.464166,1.949797 -2.125,2.96875 -0.137174,0.09238 -0.13758,0.313683 -0.242187,0.451172 -0.208129,0.448447 -0.448552,0.884741 -0.671875,1.320313 -0.0015,0.168508 -0.121694,0.291541 -0.1875,0.421875 0.02701,0.197843 -0.107257,0.378001 -0.177735,0.539062 -0.0098,0.385737 -0.132758,0.774091 -0.09375,1.167969 -0.01994,0.55821 0.285516,1.129447 0.800782,1.365234 0.03709,-0.0061 0.06059,-0.02167 0.08008,-0.03906 0.0881,0.295374 0.477933,0.106327 0.707031,0.154297 0.597328,-0.01588 1.224001,0.01795 1.771484,-0.265625 2.663025,-1.068214 4.945119,-2.88668 7,-4.855469 2.38174,-2.326104 4.5891,-4.963476 5.773438,-8.115235 0.245986,-0.635074 0.329775,-1.346096 0.207031,-2.015625 -0.04705,-0.106627 -0.13252,-0.16132 -0.234375,-0.191406 0.09524,-0.06367 0.114154,-0.176949 -0.05469,-0.310547 -0.327818,-0.411269 -0.869083,-0.576382 -1.38086,-0.548828 -0.0959,-0.0035 -0.19114,-0.0066 -0.287109,-0.0059 z" />
    <g
       aria-label="€"
       transform="matrix(0.51441093,0.58739573,-0.88954359,0.92821879,25.367913,26.983112)"
       id="text2661"
       style="font-family:Arial;-inkscape-font-specification:Arial;stroke-width:1.157;stroke-dashoffset:14.7">
      <path
         d="m 29.310463,-4.3851402 q -0.984375,0 -1.652344,0.4746094 -0.398437,0.28125 -0.720703,0.796875 -0.328125,0.5332031 -0.386719,1.0136719 h 3.996094 l -0.158203,0.7851562 h -3.931641 q -0.0059,0.1230469 -0.0059,0.234375 0,0.45117189 0.0059,0.53906252 h 3.773438 l -0.164063,0.78515625 h -3.486328 q 0.246094,1.34179683 1.183594,1.90429683 0.673828,0.4042969 1.458984,0.4042969 1.095703,0 1.710938,-0.5742187 v 1.2070312 q -0.732422,0.3398438 -1.617188,0.3398438 -2.648437,0 -3.580078,-2.203125 -0.1875,-0.44531253 -0.322265,-1.07812503 h -0.896485 l 0.164063,-0.78515625 h 0.615234 q -0.01758,-0.24609375 -0.01758,-0.53320312 0,-0.1171875 0.0059,-0.2402344 h -0.767578 l 0.164063,-0.7851562 h 0.679687 q 0.363281,-1.9101563 1.892578,-2.7421875 0.94336,-0.515625 2.080078,-0.515625 1.089844,0 1.833985,0.4746093 l -0.234375,1.0898438 q -0.714844,-0.5917969 -1.623047,-0.5917969 z"
         id="path5435" />
    </g>
  </g>
</svg>
