<svg xmlns="http://www.w3.org/2000/svg" xmlns:svg="http://www.w3.org/2000/svg" id="svg3113" width="34" height="34" version="1.1" viewBox="0 0 8.996 8.996"><g id="layer1" transform="translate(-30.253591,-35.627536)"><path id="path17230" fill="#cc0" fill-rule="evenodd" stroke="none" d="m 30.518175,44.358786 v -8.466667 h 8.466666 v 8.466667 h -8.466666" style="fill:#b3b3b3;fill-opacity:1;stroke-width:.264583"/><path id="path17227" style="fill:#fff;fill-opacity:1;stroke:none;stroke-width:.79375;stroke-dashoffset:14.7" d="m 30.622904,36.001482 4.201468,4.254196 -1.578198,-4.628142 h -2.232982 c -0.390288,0.373946 0,0 -0.390288,0.373946 z m 4.201468,4.254196 2.565218,-4.628142 h -1.902726 z m 0,0 4.425053,-1.113629 v -2.664952 z m 0,0 4.425053,2.729031 v -2.246892 z m 0,0 1.191142,4.367691 h 2.083593 z m 0,0 -2.508891,4.367691 h 1.5844 z m 0,0 -4.57078,2.121315 v 1.801442 z m 0,0 -4.57078,-2.479437 v 3.461287 z"/><path id="path17224" style="fill:#000;fill-opacity:1;stroke-width:.0374861" d="m 13.376953,2.7695312 c -0.373617,0.054876 -0.740408,0.1686862 -1.046875,0.3320313 -0.690161,0.3678519 -1.048034,1.1423426 -0.976562,1.9589844 0.05446,0.6223332 0.343306,1.5142007 1.640625,5.3945311 L 14.263672,14.25 v 0.216797 c -0.168898,-0.102263 -0.320954,-0.249357 -0.498047,-0.310547 -0.366029,-0.126472 -0.776914,-0.135833 -1.191406,-0.09766 -0.414492,0.03818 -0.812505,0.118727 -1.146485,0.314453 -0.437767,0.256549 -0.753876,0.663482 -0.892578,1.136719 -0.109879,0.374897 -0.04327,0.801721 0.03906,1.228515 -0.6548587,-0.07591 -1.2855333,-0.01601 -1.7382815,0.357422 -0.6549779,0.540239 -0.7502672,1.500568 -0.4375,2.408203 0.106635,0.30939 0.091797,0.22747 0.091797,0.710938 0,1.813255 0.3388004,3.351919 1.0878906,4.935547 0.075215,0.159009 0.1563128,0.313224 0.2910156,0.464843 0.1347024,0.151619 0.3018144,0.300504 0.6191404,0.585938 0.34941,0.314293 0.67502,0.605986 0.777344,0.695312 v 0.677735 c 0,0.407925 -0.0013,0.626895 0.0098,0.787109 0.0055,0.08011 0.0077,0.146231 0.04883,0.25586 0.0411,0.109628 0.199915,0.269773 0.294922,0.308593 1.05303,0.430291 2.510241,0.719165 3.945312,0.800781 1.719443,0.09779 3.296849,-0.126343 5.507813,-0.771484 l 0.123046,-0.03516 a 0.46766994,0.46766994 0 0 0 0.337891,-0.449219 v -1.162109 -1.00586 l 0.363281,-0.482422 c 0.548767,-0.73286 1.272887,-1.819243 1.673828,-2.509765 0.190096,-0.327393 0.426352,-0.777832 0.619141,-1.169922 0.0964,-0.196045 0.1803,-0.376663 0.244141,-0.521484 0.03192,-0.07241 0.05835,-0.13531 0.08008,-0.19336 0.02173,-0.05805 0.05469,-0.03725 0.05469,-0.251953 10e-7,-0.307082 -0.08731,-0.619232 -0.203125,-1.027344 -0.115819,-0.408111 -0.266022,-0.855223 -0.419922,-1.222656 a 0.46766994,0.46766994 0 0 0 0,-0.002 l -0.117187,-0.277344 -0.04297,-1.449219 c -0.02545,-0.850602 -0.0586,-1.67203 -0.0918,-1.96875 -0.04073,-0.364148 -0.05704,-0.223628 0.01367,-0.4375 0.558625,-1.689517 1.110601,-3.372306 1.539063,-4.695312 0.428461,-1.3230064 0.72642,-2.2568267 0.80664,-2.5488281 0.283172,-1.0307411 0.354802,-1.612328 0.13086,-2.1347657 C 25.942186,4.8469774 25.417745,4.4469937 24.824219,4.2636719 24.075261,4.0323426 23.30592,4.1376746 22.666016,4.5820312 c -0.639904,0.4443567 -1.167202,1.1763539 -1.664063,2.1875 -0.258596,0.5262603 -0.60131,1.3454492 -2.044922,4.8847658 -0.06622,0.162345 -0.04913,0.118291 -0.103515,0.25 C 18.695438,11.387577 18.428657,10.510563 17.933594,8.8828125 17.347415,6.9554809 17.07375,6.0489662 16.90625,5.5390625 16.73875,5.0291588 16.662736,4.887809 16.529297,4.6171875 16.042559,3.6300575 15.349781,2.971163 14.470703,2.7890625 14.132615,2.7190276 13.75057,2.7146555 13.376953,2.7695312 Z m 0.441406,1.6621094 c 0.311305,-0.014884 0.131053,-0.051916 0.351563,0.056641 0.201707,0.0993 0.361511,0.2657616 0.607422,0.7734376 0.238235,0.4918295 0.250034,0.5364871 0.763672,2.2265624 0.219453,0.7220952 0.538286,1.7669525 0.708984,2.3242188 0.170658,0.557135 0.518538,1.689732 0.771484,2.517578 0.126827,0.415077 0.244144,0.795426 0.332032,1.076172 0.04394,0.140373 0.08062,0.256795 0.107422,0.339844 0.0134,0.04152 0.02422,0.07311 0.0332,0.09961 0.0045,0.01325 0.009,0.02629 0.01367,0.03906 0.0023,0.0064 0.0035,0.01284 0.0078,0.02344 0.0043,0.0106 0.03868,0.07556 0.03906,0.07617 1.74e-4,2.77e-4 0.06601,0.07522 0.08203,0.09375 -0.430244,-0.04967 -0.855206,-0.09881 -1.169922,-0.134766 -0.134012,-0.01531 -0.230002,-0.02647 -0.324219,-0.03711 -0.0501,-0.138 -0.112129,-0.319158 -0.179687,-0.525391 C 15.815431,12.930717 15.215828,11.115082 14.630859,9.3417969 13.912533,7.1642477 13.56785,6.1192003 13.40625,5.5859375 13.24465,5.0526747 13.271894,5.1351218 13.269531,4.9082031 c -0.0016,-0.1537104 0.0063,-0.2170179 0.0059,-0.2148437 -4.64e-4,0.00217 -0.01078,0.016955 0.03711,-0.060547 0.08543,-0.1382506 0.14069,-0.1837125 0.505859,-0.2011719 z m 10.207032,1.4375 c 0.146952,5.58e-4 0.221304,0.00798 0.242187,0.011719 0.02088,0.00374 0.0047,-0.00534 0.05664,0.023437 0.06925,0.038352 0.0583,0.040432 0.05859,0.041016 2.99e-4,5.833e-4 0.01905,0.039697 0.01758,0.1621094 -0.0053,0.4379437 -0.134354,0.9290754 -1.136719,4.0800781 -0.383748,1.20634 -0.807199,2.540669 -0.941406,2.962891 -0.134287,0.422469 -0.284887,0.895329 -0.333985,1.048828 -0.04548,0.142199 -0.08484,0.30188 -0.09961,0.529297 -0.01477,0.227416 -0.01728,0.54588 -0.02148,1.15625 -5.3e-5,0.0076 5.4e-5,0.01194 0,0.01953 -0.311096,-0.374366 -0.601976,-0.75808 -0.958985,-1.09375 l -0.308594,-0.291016 a 0.46766994,0.46766994 0 0 0 -0.263671,-0.125 l -0.271485,-0.0332 c -0.0438,-0.0054 -0.29769,-0.03504 -0.380859,-0.04492 0.02153,-0.009 0.0582,-0.02712 0.05859,-0.02734 4.47e-4,-2.47e-4 0.105199,-0.07981 0.105468,-0.08008 1.87e-4,-1.86e-4 0.04193,-0.04628 0.05078,-0.05859 0.0089,-0.01231 0.01341,-0.02065 0.01758,-0.02734 0.0083,-0.01338 0.01195,-0.02061 0.01563,-0.02734 0.0073,-0.01347 0.0129,-0.02175 0.01758,-0.03125 0.0094,-0.019 0.01822,-0.03844 0.0293,-0.0625 0.02215,-0.04813 0.0499,-0.112148 0.08398,-0.189453 0.06817,-0.15461 0.157842,-0.361703 0.253906,-0.587891 1.583774,-3.7290838 2.359389,-5.5599819 2.785156,-6.458984 0.212884,-0.449501 0.343094,-0.6634669 0.402344,-0.7363281 0.05925,-0.072861 0.02464,-0.035976 0.158203,-0.1015625 0.170084,-0.083519 0.05898,-0.059747 0.363282,-0.058594 z m -7.701172,9.7929684 c 0.347948,0.04027 0.839551,0.09298 2.439453,0.259766 l 0.816406,0.08594 0.246094,0.263672 c 0.856397,0.92112 1.574247,1.95294 2.05664,2.94336 0.252787,0.519005 0.375504,0.817654 0.617188,1.519531 l 0.115234,0.335937 -0.300781,0.59375 c -0.750544,1.487379 -1.577349,2.779462 -2.328125,3.654297 L 19.8125,25.521484 a 0.46766994,0.46766994 0 0 0 -0.111328,0.298828 l -0.01172,1.050782 a 0.46766994,0.46766994 0 0 0 0,0.002 l -0.0078,0.699219 c -0.397425,0.110961 -1.253723,0.281456 -1.748047,0.34375 -0.485238,0.06115 -1.837797,0.09244 -2.285156,0.05469 -0.725743,-0.06125 -1.806409,-0.25019 -2.423829,-0.410156 l -0.0059,-0.351563 -0.0098,-0.716796 a 0.46766994,0.46766994 0 0 0 -0.152343,-0.339844 l -0.927735,-0.841797 -0.841797,-0.767578 -0.0957,-0.263672 c -0.06578,-0.178533 -0.20131,-0.596488 -0.28125,-0.880859 -0.01058,-0.03764 -0.02358,-0.106552 -0.03516,-0.150391 0.27977,0.190103 0.5718,0.325349 0.892578,0.375 0.428803,0.06637 0.894615,0.0099 1.310547,-0.148438 0.508677,-0.193654 0.848026,-0.647646 1.046875,-1.169921 0.398797,0.143874 0.7659,0.236425 1.193359,0.21289 0.728822,-0.04013 1.303953,-0.244881 1.703125,-0.68164 0.281403,-0.3079 0.438255,-0.702464 0.501954,-1.175782 0.0452,-0.335896 0.01759,-0.688764 -0.109376,-1.083984 -0.101544,-0.316099 -0.310198,-0.738935 -0.542968,-1.203125 0.299871,0.100949 0.575007,0.230856 0.876953,0.291015 l 0.04492,0.0078 0.0078,0.158203 c 0.0272,0.595568 0.102124,1.185725 0.21875,1.642578 l 0.06641,0.261719 a 0.46766994,0.46766994 0 0 0 0.443359,0.353516 l 0.443359,0.0098 c 0.127468,0.0031 0.249012,0.005 0.345703,0.0039 0.04835,-5.71e-4 0.09052,-0.0019 0.128907,-0.0039 0.01919,-9.89e-4 0.03591,-0.0015 0.05859,-0.0039 0.02268,-0.0024 0.02526,0.0114 0.136719,-0.03125 0.18266,-0.07008 0.282827,-0.261454 0.304688,-0.357422 0.02186,-0.09597 0.0157,-0.149079 0.01172,-0.199219 -0.008,-0.100279 -0.02611,-0.186459 -0.05273,-0.308593 -0.135196,-0.620285 -0.1869,-1.148984 -0.185547,-1.927735 v -0.002 l 0.002,-0.77539 a 0.46766994,0.46766994 0 0 0 -0.466797,-0.46875 h -0.179687 c -0.179042,0 -0.947045,-0.104647 -1.289063,-0.191407 -0.656097,-0.166432 -1.169617,-0.528552 -1.371093,-0.863281 -0.02214,-0.03678 -0.05099,-0.168203 -0.0918,-0.306641 z m -3.492188,0.09375 c 0.23402,-0.01878 0.279736,-0.0043 0.47461,0.173829 0.182119,0.166447 0.233428,0.20846 0.425781,0.535156 0.192353,0.326695 0.494477,0.914212 1.060547,2.02539 0.411804,0.808361 0.644153,1.290054 0.751953,1.578125 0.107799,0.288072 0.100566,0.322553 0.07617,0.451172 -0.02194,0.11571 -0.05136,0.151875 -0.142578,0.199219 -0.04126,0.02141 -0.07119,0.03484 -0.300782,0.04492 -0.315528,0.01385 -0.127583,0.05353 -0.349609,-0.05859 -0.239006,-0.120704 -0.788488,-0.693768 -1.158203,-1.375 -0.240321,-0.442812 -0.510923,-0.963845 -0.732422,-1.404297 -0.221499,-0.440451 -0.405224,-0.840763 -0.425781,-0.896484 -0.216449,-0.586647 -0.162913,-0.998446 -0.06445,-1.136719 -0.02484,0.03488 0.02796,-0.02647 0.111328,-0.06445 0.08337,-0.03798 0.194332,-0.06592 0.273437,-0.07227 z m -2.353515,2.589844 c 0.153313,-0.01239 0.215467,-0.0021 0.287109,0.0293 0.07164,0.03138 0.173652,0.104364 0.332031,0.265625 0.121256,0.12346 0.16609,0.172236 0.259766,0.318359 0.09368,0.146124 0.229413,0.391595 0.46875,0.835938 0.366556,0.680529 0.58029,1.110476 0.68164,1.382812 0.101351,0.272337 0.09945,0.344069 0.07617,0.466797 -0.03105,0.163728 -0.05801,0.174129 -0.0957,0.19336 0.01659,-0.0085 -0.0958,0.02973 -0.197265,0.03906 -0.10147,0.0093 -0.219204,-0.0099 -0.19336,-0.002 -0.158248,-0.04846 -0.398179,-0.228478 -0.628906,-0.587891 -0.14632,-0.227927 -1.033297,-1.90595 -1.189453,-2.263671 -0.08846,-0.202643 -0.124589,-0.343357 -0.132813,-0.423829 -0.0082,-0.08047 -0.0039,-0.0975 0.01953,-0.142578 0.03108,-0.05986 0.04078,-0.08937 0.3125,-0.111328 z" transform="matrix(0.26458333,0,0,0.26458333,30.253591,35.627536)"/><path id="path17221" style="fill:#b3b3b3;fill-opacity:1;stroke:none;stroke-width:.174005;stroke-dashoffset:14.7" d="m 13.863281,3.6542969 c -0.459112,0 -0.859832,0.1516633 -1.125,0.4667969 C 12.658829,4.2155201 12.579762,4.3322133 12.541016,4.46875 12.50227,4.6052867 12.5,4.7316886 12.5,4.8945312 c 0,0.2228173 0.02072,0.4405311 0.246094,1.1796876 0.225376,0.7391564 0.661948,2.0640063 1.519531,4.6640622 0.48067,1.457317 0.790417,2.382257 0.992187,2.949219 0.100886,0.283481 0.173783,0.474657 0.232422,0.609375 0.02932,0.06736 0.05283,0.120068 0.08594,0.173828 0.01655,0.02688 0.03521,0.05425 0.07227,0.0918 0.03706,0.03754 0.101964,0.109306 0.253906,0.113281 -0.04033,-0.0011 0.004,5.81e-4 0.03711,0.0039 0.03312,0.0033 0.08145,0.0092 0.140625,0.01562 0.11834,0.01279 0.283634,0.0301 0.484375,0.05274 0.401482,0.04528 0.942081,0.1079 1.525391,0.175781 l 2.023437,0.236328 0.1875,0.154297 c 0.227965,0.1868 1.109127,1.163211 1.439453,1.623047 l 0.25,0.347656 a 0.34804394,0.34804394 0 0 0 0.63086,-0.195312 l 0.0293,-1.277344 0.03125,-1.224609 1.009765,-3.171875 c 0.822244,-2.5830275 1.24192,-3.913724 1.41211,-4.6875004 0.0851,-0.3868881 0.117843,-0.6402512 0.06836,-0.8789062 -0.04948,-0.2386551 -0.211761,-0.4124715 -0.332031,-0.5136719 -0.0914,-0.076913 -0.215541,-0.1592254 -0.357422,-0.1953125 -0.141881,-0.036087 -0.274206,-0.037109 -0.464844,-0.037109 -0.198793,0 -0.385014,0.00671 -0.576172,0.070312 -0.191158,0.063605 -0.367135,0.1913632 -0.511718,0.3632813 -0.289168,0.3438361 -0.520202,0.8601163 -0.939454,1.8046875 -0.256385,0.5776356 -0.885486,2.0335237 -1.474609,3.4062501 -0.574027,1.337551 -1.076177,2.514516 -1.197266,2.818359 -0.03143,-1.62e-4 -6.6e-5,-0.0036 -0.08594,-0.01172 -0.190569,-0.01803 -0.534715,-0.05111 -0.763672,-0.07227 -0.09321,-0.0086 -0.177753,-0.02072 -0.25,-0.03125 -0.0061,-0.01736 -0.0087,-0.02487 -0.01563,-0.04492 -0.04888,-0.141662 -0.117148,-0.349212 -0.199219,-0.603516 C 17.839765,12.294127 17.620349,11.596219 17.386719,10.832031 16.494498,7.9136503 16.036419,6.4156042 15.734375,5.5644531 15.432331,4.7133021 15.241821,4.449846 15,4.1875 14.664267,3.8232731 14.305407,3.6542969 13.863281,3.6542969 Z m 1.927735,11.1464841 a 0.34804394,0.34804394 0 0 0 -0.396485,0.402344 l 0.04102,0.244141 c 0.06878,0.413988 0.233993,0.834798 0.46875,1.142578 0.30201,0.39596 0.849637,0.730849 1.371094,0.902344 0.486257,0.159922 1.294978,0.314453 1.748047,0.314453 h -0.0918 l 0.02539,0.751953 c 0.02016,0.611239 0.06568,1.245472 0.13086,1.552734 0.01883,0.08878 0.02457,0.12677 0.03711,0.1875 -0.0388,3.2e-5 -0.04882,0.002 -0.09766,0.002 -0.0957,0 -0.172887,-0.0054 -0.246094,-0.0098 -0.02166,-0.100803 -0.04704,-0.23223 -0.07031,-0.38086 -0.04844,-0.309327 -0.09194,-0.682049 -0.109376,-0.960937 l -0.04102,-0.66211 A 0.34804394,0.34804394 0 0 0 18.287109,17.96875 l -0.464843,-0.101562 c -0.496722,-0.107342 -1.079304,-0.300726 -1.359375,-0.441407 -0.0704,-0.03536 -0.135121,-0.06508 -0.195313,-0.08789 -0.0301,-0.0114 -0.05692,-0.02193 -0.0957,-0.03125 -0.01939,-0.0047 -0.04034,-0.0098 -0.08203,-0.01172 -0.02085,-9.64e-4 -0.04735,-6.86e-4 -0.08984,0.0078 -0.02125,0.0042 -0.0776,0.0232 -0.07813,0.02344 -5.3e-4,2.41e-4 -0.103173,0.07192 -0.103516,0.07227 -8.5e-5,8.5e-5 -0.06634,0.09167 -0.06641,0.0918 -6.4e-5,1.29e-4 -0.02535,0.07209 -0.02539,0.07227 -8.4e-5,3.43e-4 -0.0098,0.08543 -0.0098,0.08594 4e-6,0.001 0.0029,0.05561 0.0059,0.07031 0.0059,0.02941 0.01118,0.04337 0.01563,0.05664 0.0089,0.02653 0.01689,0.04704 0.02734,0.07227 0.02091,0.05045 0.04892,0.113578 0.08398,0.189453 0.07013,0.151751 0.169007,0.353997 0.279297,0.574219 0.275809,0.550716 0.432694,0.900634 0.513672,1.16211 0.08098,0.261475 0.0949,0.433159 0.08008,0.703124 -0.02793,0.508671 -0.08733,0.643771 -0.388672,0.916016 -0.148582,0.134236 -0.469917,0.264937 -0.83789,0.310547 -0.367973,0.04561 -0.779846,0.01411 -1.103516,-0.09766 -0.113433,-0.03917 -0.216814,-0.07367 -0.300781,-0.09766 -0.04198,-0.01199 -0.07784,-0.02152 -0.115235,-0.0293 -0.0187,-0.0039 -0.03606,-0.0071 -0.06836,-0.0098 -0.01615,-0.0013 -0.03553,-0.0042 -0.07422,0 -0.01934,0.0021 -0.08139,0.0193 -0.08203,0.01953 -3.19e-4,1.14e-4 -0.06617,0.03111 -0.06641,0.03125 -2.35e-4,1.45e-4 -0.08384,0.07014 -0.08399,0.07031 -3e-4,3.51e-4 -0.02324,0.03335 -0.0293,0.04297 -0.0061,0.0096 -0.01052,0.01564 -0.01367,0.02148 -0.0063,0.01168 -0.01045,0.02034 -0.01367,0.02734 -0.0064,0.01401 -0.0108,0.02511 -0.01563,0.03711 -0.0096,0.02399 -0.01991,0.05075 -0.03125,0.08203 -0.02268,0.06256 -0.04849,0.141788 -0.07617,0.226563 -0.0921,0.282029 -0.345096,0.571339 -0.597656,0.695312 -0.1966,0.09651 -0.226759,0.101224 -0.673828,0.101563 -0.225217,1.8e-4 -0.358819,-0.0065 -0.4375,-0.01953 -0.07868,-0.013 -0.109074,-0.02528 -0.19336,-0.07031 -0.2663,-0.142298 -0.516464,-0.359999 -0.857422,-0.769531 -0.07101,-0.0853 -0.12456,-0.149755 -0.169921,-0.201172 -0.04536,-0.05142 -0.04772,-0.08078 -0.167969,-0.150391 -0.03006,-0.0174 -0.07405,-0.04411 -0.158203,-0.05078 -0.02104,-0.0017 -0.06775,0.0019 -0.06836,0.002 -6.14e-4,7.2e-5 -0.07953,0.01933 -0.08008,0.01953 -0.0011,3.95e-4 -0.1397996,0.09091 -0.1406249,0.0918 -4.126e-4,4.45e-4 -0.029975,0.03675 -0.041016,0.05469 -0.011041,0.01794 -0.018956,0.03536 -0.025391,0.05078 -0.01287,0.03083 -0.019672,0.05552 -0.023437,0.07617 -0.00753,0.0413 -0.00655,0.06689 -0.00586,0.08789 0.00276,0.08399 0.013325,0.115581 0.023437,0.166016 0.1271886,0.634303 0.4047575,1.707697 0.5742185,2.21875 l 0.181641,0.546875 a 0.34804394,0.34804394 0 0 0 0.0957,0.148438 l 0.935547,0.853515 0.826172,0.753906 0.02344,0.580079 0.0293,0.726562 a 0.34804394,0.34804394 0 0 0 0.269531,0.326172 l 0.435547,0.101563 c 0.398311,0.0929 1.361885,0.256485 2.087891,0.361328 0.07582,0.01093 0.117156,0.0095 0.205078,0.01172 0.08792,0.0023 0.201615,0.0051 0.332031,0.0059 0.260833,0.0015 0.59426,-8.22e-4 0.939453,-0.0059 1.283766,-0.01866 1.94859,-0.101404 3.007813,-0.375 l 0.40625,-0.103515 a 0.34804394,0.34804394 0 0 0 0.261719,-0.310547 l 0.03516,-0.431641 v -0.002 c 0.02121,-0.256271 0.0406,-0.72871 0.04492,-1.083984 l 0.0059,-0.509766 0.304688,-0.378906 v -0.002 c 0.755534,-0.941016 1.651576,-2.389222 2.339843,-3.777344 l 0.25,-0.505859 a 0.34804394,0.34804394 0 0 0 0.01758,-0.267578 L 23.191406,20.34375 c -0.312652,-0.912188 -0.88236,-2.072745 -1.392578,-2.830078 -0.431032,-0.639794 -1.188015,-1.588053 -1.595703,-1.980469 a 0.34804394,0.34804394 0 0 0 -0.002,0 l -0.203125,-0.195312 a 0.34804394,0.34804394 0 0 0 -0.203125,-0.0957 l -1.816406,-0.19336 c -0.499213,-0.053 -0.976159,-0.104653 -1.339844,-0.144531 -0.362616,-0.03976 -0.63735,-0.07175 -0.654297,-0.07422 h -0.002 z m -2.855469,0.169922 c -0.09188,-4.06e-4 -0.17945,0.0085 -0.265625,0.02149 -0.448907,0.06731 -0.833358,0.321685 -0.996094,0.710937 -0.162735,0.389252 -0.126552,0.849959 0.0332,1.367187 0.09457,0.306183 0.361081,0.854146 0.669922,1.466797 0.308842,0.612651 0.641036,1.236444 0.855469,1.56836 0.361418,0.559428 0.805657,1.055911 1.248047,1.291015 0.243397,0.129348 0.491185,0.174359 0.78125,0.142578 0.331633,-0.03634 0.616308,-0.116342 0.832031,-0.316406 0.215723,-0.200064 0.303077,-0.497112 0.300781,-0.794922 -0.0016,-0.208094 -0.04317,-0.427902 -0.154297,-0.71289 -0.111123,-0.284988 -0.290845,-0.658125 -0.591796,-1.261719 -0.668319,-1.34039 -1.103444,-2.167542 -1.484376,-2.695313 -0.190465,-0.263885 -0.369689,-0.457584 -0.574218,-0.591796 -0.204529,-0.134213 -0.436047,-0.194347 -0.654297,-0.195313 z m -2.412109,2.603516 c -0.233899,7.25e-4 -0.466699,0.03301 -0.6816411,0.164062 C 9.5634964,17.907973 9.3534788,18.240772 9.375,18.59375 c 0.021521,0.352978 0.1781146,0.718424 0.4375,1.238281 0.879559,1.762806 1.253155,2.382455 1.816406,2.689453 0.211792,0.115437 0.439129,0.145001 0.664063,0.132813 0.224933,-0.01219 0.448489,-0.06352 0.644531,-0.208985 0.284285,-0.210947 0.459851,-0.577057 0.425781,-0.960937 -0.03407,-0.38388 -0.203951,-0.797809 -0.490234,-1.367187 -0.744781,-1.481274 -1.11589,-2.045398 -1.666016,-2.38086 -0.214178,-0.130627 -0.448295,-0.162839 -0.683593,-0.162109 z" transform="matrix(0.26458333,0,0,0.26458333,30.253591,35.627536)"/><path style="color:#000;fill:#000;fill-opacity:1;stroke-width:.264583;stroke-linecap:round;stroke-linejoin:round;-inkscape-stroke:none" id="path17218" d="m 30.518175,35.627536 a 0.26460979,0.26460979 0 0 0 -0.264584,0.264583 v 8.466667 a 0.26460979,0.26460979 0 0 0 0.264584,0.264583 h 8.466666 a 0.26460979,0.26460979 0 0 0 0.264584,-0.264583 v -8.466667 a 0.26460979,0.26460979 0 0 0 -0.264584,-0.264583 z m 0.264583,0.529167 h 7.9375 v 7.937499 h -7.9375 z"/><path id="path2636-5-0-4" style="fill:#fff;fill-opacity:1;stroke-width:.0460388;stroke-dashoffset:14.7" d="m 33.916934,36.553062 c -0.121475,0 -0.227499,0.04013 -0.297656,0.123504 -0.02103,0.02498 -0.04194,0.05586 -0.05219,0.09199 -0.01024,0.03613 -0.01085,0.06957 -0.01085,0.112654 0,0.05895 0.0055,0.116557 0.06511,0.312126 0.04167,0.136679 0.12767,0.401045 0.24288,0.751374 -0.05321,-0.190574 -0.102825,-0.380759 -0.07803,-0.583427 -0.106408,-0.443082 0.329107,-0.566584 0.597898,-0.374653 -0.0639,-0.164586 -0.110501,-0.231846 -0.1664,-0.292489 -0.08883,-0.09637 -0.183777,-0.141075 -0.300754,-0.141075 z m 2.686659,0.383436 c -0.0526,0 -0.10187,0.0019 -0.152448,0.0186 -0.05057,0.01683 -0.09714,0.05063 -0.13539,0.09612 -0.07651,0.09097 -0.137639,0.227571 -0.248565,0.477488 -0.06783,0.152834 -0.234284,0.538038 -0.390158,0.901237 -0.08073,0.188122 -0.110765,0.26057 -0.168465,0.396359 0.932706,-1.737979 0.846854,-1.47779 1.405083,-1.65106 -7.94e-4,-0.01408 -0.0019,-0.02791 -0.0047,-0.04134 -0.0131,-0.06314 -0.05603,-0.109132 -0.08785,-0.135908 -0.02418,-0.02035 -0.05703,-0.04213 -0.09457,-0.05168 -0.03754,-0.0096 -0.07255,-0.0098 -0.122989,-0.0098 z m -2.932123,2.610694 c -0.02432,-1.05e-4 -0.04748,0.0024 -0.07028,0.0057 -0.118774,0.01781 -0.220493,0.08511 -0.263551,0.188103 -0.03787,0.09057 -0.0336,0.196551 -0.0036,0.313677 0.152831,0.491371 0.284985,0.647829 0.415996,0.851109 -0.527483,-0.909725 -0.13539,-1.625629 0.49852,-0.715336 L 34.045107,39.82936 c -0.01632,-0.02537 -0.0331,-0.05246 -0.04857,-0.0739 -0.0504,-0.06982 -0.09781,-0.121071 -0.151929,-0.156581 -0.05412,-0.03551 -0.115372,-0.05142 -0.173117,-0.05167 z m -0.638205,0.688848 c -0.06189,1.91e-4 -0.123481,0.0087 -0.18035,0.04341 -0.07363,0.0449 -0.129201,0.13295 -0.123508,0.226343 0.0057,0.09339 0.04713,0.190082 0.115756,0.327628 0.134284,0.269127 0.223877,0.435769 0.304374,0.545703 -0.351796,-0.905057 -0.02825,-1.08236 0.379825,-0.709517 -0.12056,-0.218382 -0.20434,-0.323056 -0.315225,-0.390673 -0.05667,-0.03456 -0.118612,-0.04308 -0.180869,-0.04289 z"/></g></svg>