<svg xmlns="http://www.w3.org/2000/svg" xmlns:svg="http://www.w3.org/2000/svg" xmlns:xlink="http://www.w3.org/1999/xlink" id="svg2559" width="34" height="34" version="1.1"><g id="g2529" transform="matrix(1.0, 0.0, 0.0, 1.0, 1, 1)"><g id="use2527"><g id="use2713"><path id="path2717" fill="#cc0" fill-rule="evenodd" stroke="none" d="m 32,12 v 2.7 L 15.2,28.8 32,12 m 0,5.05 v 3.9 L 15.2,28.8 32,17.05 m 0,7.25 v 1.55 L 15.2,28.8 32,24.3 m 0,6 v 1.5 L 15.2,28.8 32,30.3 M 27.15,32 H 24 L 15.2,28.8 27.15,32 m -5.1,0 H 19.8 L 15.2,28.8 0,27.5 v -4.2 l 15.2,5.5 6.85,3.2 M 17.9,32 H 17.45 L 15.2,28.8 17.9,32 m -0.85,0 H 16.7 l -1.5,-3.2 1.85,3.2 m -0.65,0 h -0.9 l -0.3,-3.2 1.2,3.2 m -1.2,0 H 14.65 L 15.2,28.8 V 32 m -0.85,0 h -0.3 L 15.2,28.8 14.35,32 M 13.7,32 H 12.95 L 15.2,28.8 13.7,32 M 12,32 H 11.4 L 15.2,28.8 12,32 m -1.35,0 h -1 L 15.2,28.8 10.65,32 M 6.4,32 H 3.3 L 15.2,28.8 6.4,32 M 0,30.15 V 28.8 H 15.2 L 0,30.15 M 0,21.7 V 20.05 L 15.2,28.8 0,21.7 m 0,-11 V 7.1 L 15.2,28.8 0,10.7 M 0,2.5 V 0 H 1.75 L 15.2,28.8 0,2.5 M 7.5,0 h 5.2 L 15.2,28.8 7.5,0 m 10.2,0 h 2.6 L 15.2,28.8 28.65,0 h 3.2 L 15.2,28.8 17.7,0 m 5.25,0 H 25.7 L 15.2,28.8 22.95,0" style="fill:#9e009e;fill-opacity:1"/><path id="path2719" fill="#faf8c3" fill-rule="evenodd" stroke="none" d="M 31.85,0 H 32 V 12 L 15.2,28.8 31.85,0 M 32,14.7 v 2.35 L 15.2,28.8 32,20.95 V 24.3 L 15.2,28.8 32,25.85 V 30.3 L 15.2,28.8 32,31.8 V 32 H 27.15 L 15.2,28.8 24,32 H 22.05 L 15.2,28.8 0,23.3 V 21.7 L 15.2,28.8 0,20.05 V 10.7 L 15.2,28.8 0,7.1 V 2.5 L 15.2,28.8 1.75,0 H 7.5 L 15.2,28.8 12.7,0 h 5 L 15.2,28.8 9.65,32 H 6.4 L 15.2,28.8 3.3,32 H 0 V 30.15 L 15.2,28.8 H 0 v -1.3 l 15.2,1.3 4.6,3.2 h -1.9 l -2.7,-3.2 2.25,3.2 h -0.4 L 15.2,28.8 16.7,32 H 16.4 L 15.2,28.8 15.5,32 H 15.2 V 28.8 L 14.65,32 h -0.3 L 15.2,28.8 14.05,32 H 13.7 L 15.2,28.8 12.95,32 H 12 L 15.2,28.8 11.4,32 H 10.65 L 15.2,28.8 32,14.7 M 20.3,0 h 2.65 L 15.2,28.8 25.7,0 h 2.95 L 15.2,28.8 20.3,0" style="fill:#fff"/><path id="path2723" fill="#733c2f" fill-rule="evenodd" stroke="none" d="m 18.95,7.3 c 0.530272,-0.131836 0.995521,0.4530906 1.47523,0.7147175 0.618346,0.3372377 1.349359,0.5620383 1.804203,1.0998093 0.915968,1.0829662 1.270653,2.5664842 1.581227,3.9504482 0.112707,0.50224 0.18191,1.034212 0.09378,1.541342 -0.08033,0.462234 -0.162764,1.035414 -0.55444,1.293683 -0.876584,0.578014 -2.417766,0.752551 -3.15,0 -0.373385,-0.383745 -0.108043,-1.09227 0.04395,-1.605666 0.110731,-0.374022 0.648127,-0.610471 0.609956,-0.998668 C 20.774275,12.485813 19.984242,11.282821 19.2,11.5 c -1.506336,0.417147 -0.692945,3.054938 -0.95,4.591845 0.03803,0.851633 -0.07684,1.724742 0.05862,2.562689 l 2.291383,7.995466 4,2.55 c -0.105114,0.344929 0.256689,1.058402 -0.275932,1.065894 -1.046679,0.224325 -2.097367,0.551886 -3.141566,0.712333 L 16.6,29.5 c 0.0058,-1.149616 0.04769,-2.30199 -0.204333,-3.431948 L 15.25,18.6 c -0.377022,2.897704 -0.804495,5.792031 -1.15,8.691845 V 30.15 L 9.35,31.35 6.4,30.4 C 6.3965442,29.966046 6.2841071,29.475294 6.806945,29.315629 L 10.55,26.7 c 0.530631,-3.283552 1.082802,-6.565358 1.6,-9.85 -0.09659,-0.43131 0.442277,-0.738 0.620633,-1.115389 0,0 2.797012,-7.5936919 6.179367,-8.434611 z m -8.2,8.75 C 10.11181,16.632709 9.2375301,16.726536 8.45,17 8.45,17 7.0809452,14.452307 6.95,13.05 6.8177774,11.634014 6.9681054,9.3549068 7.7,8.85 8.4283219,8.3475579 9.0040632,7.3 9.8709227,7.3 H 13.15 C 13.127844,6.8800805 13.207066,6.4661038 13.25,6.05 12.717378,5.6712865 12.229969,5.177896 12.271875,4.459375 12.147214,3.1677081 12.406611,1.3896459 13.896094,1.0296875 15.198158,0.88050053 16.758189,0.7037619 17.846875,1.59375 18.838409,2.7455808 18.301312,4.3955528 17.922461,5.6894531 17.451747,5.9669439 16.678949,6.4254001 17.3,7.15 17.933568,7.3602302 16.903144,7.779931 16.699717,8.1019766 L 8.9,15.05 Z" style="fill:#000"/><path id="path2725" fill="#fcf9e0" fill-rule="evenodd" stroke="none" d="m 12.1,16.65 -0.25,-1.35 -1.1,0.75 -1.85,-1 8.7,-7.75 h 0.05 1.3 l -6.85,9.35" style="fill:#fff"/><path id="path2727" d="M 13.800781 3.3007812 L 13.75 3.3496094 L 13.650391 3.4003906 L 13.400391 3.8496094 C 13.400391 4.2162757 13.650391 4.4003906 14.150391 4.4003906 L 15.050781 4.1992188 L 15.099609 4.1992188 L 15.099609 4.1503906 L 13.800781 3.3007812 z M 16.939453 3.3007812 C 16.822396 3.3179362 16.393098 3.6014328 15.650391 4.1503906 L 15.650391 4.1992188 L 15.699219 4.1992188 L 16.599609 4.4003906 C 17.099609 4.4003906 17.349609 4.2162757 17.349609 3.8496094 L 17.099609 3.4003906 L 17 3.3496094 L 16.949219 3.3007812 C 16.946094 3.3007812 16.943229 3.3002279 16.939453 3.3007812 z" style="fill:#fff"/><path id="path2733" fill="#733c2f" fill-rule="evenodd" stroke="none" d="M 19.05,19.95 V 17.5 h 1.15 v -1.6 h 3.15 l -1.8,4.15 h -1.7 -0.8 v -0.1" style="fill:#000"/><path id="path2737" fill="none" stroke="#733c2f" stroke-linecap="round" stroke-linejoin="round" stroke-width="1" d="m 19.85,20.05 1.05,6.8 0.9,0.25 q 1.55,0.4 2.3,0.9 l 0.65,0.7 q 0.25,3 -4.45,2.85 L 16,29.9 v -1.5 l -1.1,-7.85 4.15,-0.6 M 8.45,13.65 H 16.4 V 17 H 8.45 v -3.35" style="fill:#fff;stroke:#000"/></g></g></g><defs id="defs2557"><g id="sprite0" transform="matrix(1.0, 0.0, 0.0, 1.0, 1.0, 1.0)"><use id="use2531" width="34" height="34" transform="matrix(1.0, 0.0, 0.0, 1.0, -1.0, -1.0)" xlink:href="#shape0"/></g><g id="shape0" transform="matrix(1.0, 0.0, 0.0, 1.0, 1.0, 1.0)"><path id="path2534" fill="#cc0" fill-rule="evenodd" stroke="none" d="M32.0 12.0 L32.0 14.7 15.2 28.8 32.0 12.0 M32.0 17.05 L32.0 20.95 15.2 28.8 32.0 17.05 M32.0 24.3 L32.0 25.85 15.2 28.8 32.0 24.3 M32.0 30.3 L32.0 31.8 15.2 28.8 32.0 30.3 M27.15 32.0 L24.0 32.0 15.2 28.8 27.15 32.0 M22.05 32.0 L19.8 32.0 15.2 28.8 0.0 27.5 0.0 23.3 15.2 28.8 22.05 32.0 M17.9 32.0 L17.45 32.0 15.2 28.8 17.9 32.0 M17.05 32.0 L16.7 32.0 15.2 28.8 17.05 32.0 M16.4 32.0 L15.5 32.0 15.2 28.8 16.4 32.0 M15.2 32.0 L14.65 32.0 15.2 28.8 15.2 32.0 M14.35 32.0 L14.05 32.0 15.2 28.8 14.35 32.0 M13.7 32.0 L12.95 32.0 15.2 28.8 13.7 32.0 M12.0 32.0 L11.4 32.0 15.2 28.8 12.0 32.0 M10.65 32.0 L9.65 32.0 15.2 28.8 10.65 32.0 M6.4 32.0 L3.3 32.0 15.2 28.8 6.4 32.0 M0.0 30.15 L0.0 28.8 15.2 28.8 0.0 30.15 M0.0 21.7 L0.0 20.05 15.2 28.8 0.0 21.7 M0.0 10.7 L0.0 7.1 15.2 28.8 0.0 10.7 M0.0 2.5 L0.0 0.0 1.75 0.0 15.2 28.8 0.0 2.5 M7.5 0.0 L12.7 0.0 15.2 28.8 7.5 0.0 M17.7 0.0 L20.3 0.0 15.2 28.8 28.65 0.0 31.85 0.0 15.2 28.8 17.7 0.0 M22.95 0.0 L25.7 0.0 15.2 28.8 22.95 0.0"/><path id="path2536" fill="#faf8c3" fill-rule="evenodd" stroke="none" d="M31.85 0.0 L32.0 0.0 32.0 12.0 15.2 28.8 31.85 0.0 M32.0 14.7 L32.0 17.05 15.2 28.8 32.0 20.95 32.0 24.3 15.2 28.8 32.0 25.85 32.0 30.3 15.2 28.8 32.0 31.8 32.0 32.0 27.15 32.0 15.2 28.8 24.0 32.0 22.05 32.0 15.2 28.8 0.0 23.3 0.0 21.7 15.2 28.8 0.0 20.05 0.0 10.7 15.2 28.8 0.0 7.1 0.0 2.5 15.2 28.8 1.75 0.0 7.5 0.0 15.2 28.8 12.7 0.0 17.7 0.0 15.2 28.8 9.65 32.0 6.4 32.0 15.2 28.8 3.3 32.0 0.0 32.0 0.0 30.15 15.2 28.8 0.0 28.8 0.0 27.5 15.2 28.8 19.8 32.0 17.9 32.0 15.2 28.8 17.45 32.0 17.05 32.0 15.2 28.8 16.7 32.0 16.4 32.0 15.2 28.8 15.5 32.0 15.2 32.0 15.2 28.8 14.65 32.0 14.35 32.0 15.2 28.8 14.05 32.0 13.7 32.0 15.2 28.8 12.95 32.0 12.0 32.0 15.2 28.8 11.4 32.0 10.65 32.0 15.2 28.8 32.0 14.7 M20.3 0.0 L22.95 0.0 15.2 28.8 25.7 0.0 28.65 0.0 15.2 28.8 20.3 0.0"/><path id="path2538" fill="none" stroke="#733c2f" stroke-linecap="round" stroke-linejoin="round" stroke-width="2" d="M31.85 0.0 L32.0 0.0 32.0 12.0 32.0 14.7 32.0 17.05 32.0 20.95 32.0 24.3 32.0 25.85 32.0 30.3 32.0 31.8 32.0 32.0 27.15 32.0 24.0 32.0 22.05 32.0 19.8 32.0 17.9 32.0 17.45 32.0 17.05 32.0 16.7 32.0 16.4 32.0 15.5 32.0 15.2 32.0 14.65 32.0 14.35 32.0 14.05 32.0 13.7 32.0 12.95 32.0 12.0 32.0 11.4 32.0 10.65 32.0 9.65 32.0 6.4 32.0 3.3 32.0 0.0 32.0 0.0 30.15 0.0 28.8 0.0 27.5 0.0 23.3 0.0 21.7 0.0 20.05 0.0 10.7 0.0 7.1 0.0 2.5 0.0 0.0 1.75 0.0 7.5 0.0 12.7 0.0 17.7 0.0 20.3 0.0 22.95 0.0 25.7 0.0 28.65 0.0 31.85 0.0 Z"/><path id="path2540" fill="#733c2f" fill-rule="evenodd" stroke="none" d="M18.95 7.3 L19.2 7.3 22.2 9.05 23.5 11.9 24.1 14.15 23.35 15.9 20.2 15.9 20.2 14.35 20.95 13.4 19.2 11.5 18.25 15.95 18.25 18.45 20.6 26.65 24.6 29.2 24.6 30.2 21.25 31.0 16.6 29.5 16.6 27.4 15.25 18.6 14.1 27.15 14.1 30.15 9.35 31.35 6.4 30.4 6.4 29.6 10.55 26.7 12.15 16.9 12.15 16.85 12.1 16.65 18.95 7.3 M10.75 16.05 L10.1 16.5 8.45 17.0 6.95 13.05 7.7 8.85 9.8 7.3 13.15 7.3 13.15 6.9 13.25 6.05 12.6 5.5 Q12.25 5.05 12.25 3.95 12.25 1.1 14.4 0.95 16.55 0.8 17.45 1.3 18.35 1.8 18.4 3.0 18.45 4.2 17.85 5.9 16.75 6.05 17.2 6.9 17.2 7.2 17.6 7.3 L8.9 15.05 10.75 16.05"/><path id="path2542" fill="#fcf9e0" fill-rule="evenodd" stroke="none" d="M12.1 16.65 L11.85 15.3 10.75 16.05 8.9 15.05 17.6 7.3 17.65 7.3 18.95 7.3 12.1 16.65"/><path id="path2544" fill="#fcf9e0" fill-rule="evenodd" stroke="none" d="M17.1 3.4 L17.35 3.85 Q17.35 4.4 16.6 4.4 L15.7 4.2 15.65 4.2 15.65 4.15 Q16.8 3.3 16.95 3.3 L17.0 3.35 17.1 3.4"/><path id="path2546" fill="#fcf9e0" fill-rule="evenodd" stroke="none" d="M13.65 3.4 L13.75 3.35 13.8 3.3 15.1 4.15 15.1 4.2 15.05 4.2 14.15 4.4 Q13.4 4.4 13.4 3.85 L13.65 3.4"/><path id="path2548" fill="#fff" fill-rule="evenodd" stroke="none" d="M19.05 19.95 L19.05 20.05 19.05 19.95"/><path id="path2550" fill="#733c2f" fill-rule="evenodd" stroke="none" d="M19.05 19.95 L19.05 17.5 20.2 17.5 20.2 15.9 23.35 15.9 21.55 20.05 19.85 20.05 19.05 20.05 19.05 19.95"/><path id="path2552" fill="#fcf9e0" fill-rule="evenodd" stroke="none" d="M19.85 20.05 L20.9 26.85 21.8 27.1 Q23.35 27.5 24.1 28.0 L24.75 28.7 Q25.0 31.7 20.3 31.55 L16.0 29.9 16.0 28.4 14.9 20.55 19.05 19.95 19.05 20.05 19.85 20.05 M8.45 13.65 L16.4 13.65 16.4 17.0 8.45 17.0 8.45 13.65"/><path id="path2554" fill="none" stroke="#733c2f" stroke-linecap="round" stroke-linejoin="round" stroke-width="1" d="M19.85 20.05 L20.9 26.85 21.8 27.1 Q23.35 27.5 24.1 28.0 L24.75 28.7 Q25.0 31.7 20.3 31.55 L16.0 29.9 16.0 28.4 14.9 20.55 19.05 19.95 M8.45 13.65 L16.4 13.65 16.4 17.0 8.45 17.0 8.45 13.65"/></g></defs><path d="m 0.99999928,1.254e-5 c -0.552264,3.8e-5 -0.999949,0.447723 -0.999987,0.99998696 V 33.000013 c 3.8e-5,0.552264 0.447723,0.999949 0.999987,0.999987 H 33.000012 C 33.552277,33.999962 33.999962,33.552277 34,33.000013 V 0.9999995 C 33.999962,0.44773554 33.552277,5.054e-5 33.000012,1.254e-5 Z M 1.9999873,2.0000255 H 32.000025 V 32.000025 H 1.9999873 Z" style="color:#000;display:inline;fill:#000;fill-opacity:1;stroke-width:.999999;stroke-linecap:round;stroke-linejoin:round;-inkscape-stroke:none" id="path2565-5-2"/></svg>