<?xml version="1.0" encoding="UTF-8" standalone="no"?>
<svg xmlns:xlink="http://www.w3.org/1999/xlink" height="57.95px" width="207.0px" xmlns="http://www.w3.org/2000/svg">
  <g transform="matrix(1.0, 0.0, 0.0, 1.0, -5.3, 29.05)">
    <use height="57.95" transform="matrix(1.0, 0.0, 0.0, 1.0, 5.3, -29.05)" width="207.0" xlink:href="#shape0"/>
  </g>
  <defs>
    <g id="shape0" transform="matrix(1.0, 0.0, 0.0, 1.0, -5.3, 29.05)">
      <path d="M211.75 19.35 L210.9 23.6 Q209.65 28.05 207.8 28.65 206.05 29.2 193.9 28.6 194.7 27.05 194.8 25.45 194.85 24.9 195.35 24.6 195.65 24.35 196.2 24.25 L199.3 23.5 199.5 23.4 199.15 21.45 199.15 20.65 199.15 20.6 Q201.1 20.3 205.05 18.95 L209.0 17.75 Q209.75 17.75 211.75 19.35" fill="#faf6ca" fill-rule="evenodd" stroke="none"/>
      <path d="M208.15 14.25 L208.55 15.05 209.35 16.3 211.75 19.35 Q209.75 17.75 209.0 17.75 L205.05 18.95 Q201.1 20.3 199.15 20.6 L199.15 20.65 199.15 21.45 199.5 23.4 199.3 23.5 196.2 24.25 Q195.65 24.35 195.35 24.6 L194.05 22.15 193.6 21.1 Q194.45 20.0 196.0 18.9 L197.05 17.45 197.35 17.1 Q197.85 16.4 198.65 16.0 199.7 15.4 201.3 14.85 L202.9 14.45 205.35 14.15 208.15 14.25 M197.05 19.75 L199.3 23.5 197.05 19.75 M197.35 17.1 L197.95 18.1 199.15 20.6 197.95 18.1 197.35 17.1" fill="#d8c09e" fill-rule="evenodd" stroke="none"/>
      <path d="M193.9 28.6 L192.9 24.85 192.3 24.0 Q192.45 22.85 193.05 21.85 L193.6 21.1 194.05 22.15 195.35 24.6 Q194.85 24.9 194.8 25.45 194.7 27.05 193.9 28.6" fill="#e4d5b4" fill-rule="evenodd" stroke="none"/>
      <path d="M208.15 14.25 L208.55 15.05 209.35 16.3 211.75 19.35 210.9 23.6 Q209.65 28.05 207.8 28.65 206.05 29.2 193.9 28.6 L192.9 24.85 192.3 24.0 M199.15 20.6 Q201.1 20.3 205.05 18.95 L209.0 17.75 Q209.75 17.75 211.75 19.35 M193.6 21.1 L194.05 22.15 195.35 24.6 Q195.65 24.35 196.2 24.25 L199.3 23.5 197.05 19.75 M199.3 23.5 L199.5 23.4 199.15 21.45 199.15 20.65 199.15 20.6 197.95 18.1 197.35 17.1 M199.15 20.65 L199.15 20.6 M193.9 28.6 Q194.7 27.05 194.8 25.45 194.85 24.9 195.35 24.6" fill="none" stroke="#330101" stroke-linecap="round" stroke-linejoin="round" stroke-opacity="0.4" stroke-width="0.05"/>
      <path d="M132.4 26.15 L130.75 24.6 130.35 24.15 129.5 25.05 127.05 21.9 128.65 21.35 129.75 20.9 Q132.65 19.85 135.35 19.5 L135.65 19.35 141.2 16.4 141.2 16.35 140.9 16.0 141.1 16.05 141.15 16.05 141.2 16.35 141.25 16.35 141.2 16.4 141.25 16.35 Q144.0 18.55 145.7 20.5 L149.1 24.65 Q145.9 22.5 142.55 22.3 L141.95 21.35 Q141.3 20.5 140.5 20.5 140.3 20.5 139.85 20.8 L139.35 21.25 140.2 19.0 141.2 16.4 140.2 19.0 139.35 21.25 138.6 22.6 Q135.65 23.15 134.3 24.65 133.0 26.15 132.4 26.15 M147.95 -3.8 L147.9 -3.9 147.95 -3.8 Q147.6 -1.15 147.6 -0.25 L147.95 2.1 Q147.95 3.05 146.95 4.1 L146.85 4.05 Q141.8 13.8 141.15 15.85 140.95 14.55 141.75 11.0 L142.15 9.4 Q141.35 12.95 141.55 14.25 142.15 12.35 146.5 3.9 L147.25 2.45 Q145.95 1.85 145.0 1.8 145.95 0.95 146.65 -0.65 L147.9 -3.9 147.95 -4.05 147.95 -3.9 147.95 -3.8 M154.75 15.3 L154.85 15.3 Q156.2 15.3 156.85 16.1 157.35 16.7 157.45 17.75 157.7 20.5 159.9 21.15 162.7 21.95 164.0 22.95 L164.65 23.6 165.7 25.05 162.2 25.05 150.6 25.35 Q154.75 22.0 154.75 17.4 L154.75 15.55 154.75 15.35 154.75 15.55 154.35 15.55 154.75 15.35 154.85 15.3 154.75 15.35 154.75 15.3 M141.15 15.85 L141.15 16.05 141.1 16.05 141.15 15.85 M130.35 24.15 L135.65 19.35 130.35 24.15" fill="#faf6ca" fill-rule="evenodd" stroke="none"/>
      <path d="M8.95 -19.55 L9.0 -19.45 8.5 -18.75 8.95 -19.55 M212.05 -17.5 L212.0 -17.6 212.05 -17.5" fill="#ffffe6" fill-rule="evenodd" stroke="none"/>
      <path d="M128.65 21.35 L127.2 17.75 128.3 14.3 140.9 16.0 141.2 16.35 141.2 16.4 135.65 19.35 135.35 19.5 Q132.65 19.85 129.75 20.9 L128.65 21.35 M150.6 25.35 L149.1 24.65 145.7 20.5 Q144.0 18.55 141.25 16.35 L141.75 16.3 147.55 15.9 154.35 15.55 154.75 15.55 154.75 17.4 Q154.75 22.0 150.6 25.35" fill="#f2eec4" fill-rule="evenodd" stroke="none"/>
      <path d="M142.55 22.3 Q141.8 22.25 141.0 21.8 140.2 21.35 138.6 22.6 L139.35 21.25 139.85 20.8 Q140.3 20.5 140.5 20.5 141.3 20.5 141.95 21.35 L142.55 22.3" fill="#fbf8d9" fill-rule="evenodd" stroke="none"/>
      <path d="M9.0 -19.45 L12.0 -22.55 38.45 -23.6 75.25 -22.9 82.9 -22.85 92.3 -22.9 113.65 -22.95 136.6 -23.3 150.75 -22.2 154.45 -21.9 162.55 -22.6 175.9 -23.25 186.5 -22.55 191.7 -22.2 199.35 -21.85 Q204.1 -21.8 207.3 -20.85 209.1 -20.35 210.25 -19.55 L210.85 -19.1 211.85 -17.95 212.0 -17.6 212.05 -17.5 212.3 -16.1 212.25 -3.6 212.0 1.55 211.95 2.55 211.2 9.65 Q211.15 13.45 210.75 16.55 208.75 14.95 208.0 14.95 L204.05 16.15 Q200.1 17.5 198.15 17.8 L198.15 18.65 198.5 20.6 195.2 21.45 Q193.85 21.75 193.8 22.65 193.7 24.6 192.8 25.8 L192.6 25.8 192.05 25.75 185.0 25.45 184.95 25.45 183.15 25.35 165.7 25.05 164.65 23.6 164.0 22.95 165.7 22.2 167.3 21.6 169.8 23.55 167.3 21.6 165.7 22.2 164.0 22.95 Q162.7 21.95 159.9 21.15 157.7 20.5 157.45 17.75 157.35 16.7 156.85 16.1 156.2 15.3 154.85 15.3 L154.75 15.3 154.45 13.1 153.45 11.2 150.9 6.8 Q148.65 4.9 146.95 4.1 147.95 3.05 147.95 2.1 L147.6 -0.25 Q147.6 -1.15 147.95 -3.8 L147.95 -3.9 147.95 -4.05 147.9 -3.9 147.65 -5.15 150.9 -5.95 154.05 -6.75 150.9 -5.95 147.65 -5.15 147.9 -3.9 146.65 -0.65 Q145.95 0.95 145.0 1.8 L144.8 1.8 144.1 1.9 143.7 3.5 Q143.15 3.05 142.25 3.15 141.3 3.25 138.3 4.55 L134.35 6.25 133.4 7.0 133.3 7.1 Q131.8 8.55 129.5 12.2 L128.3 14.3 127.2 17.75 128.65 21.35 127.05 21.9 129.5 25.05 130.35 24.15 130.75 24.6 132.4 26.15 92.3 26.4 89.95 26.5 65.65 25.75 62.05 26.35 59.05 22.8 58.6 23.9 57.9 25.65 Q45.95 23.85 33.55 25.0 L31.35 25.25 26.9 25.95 25.0 26.45 22.6 26.8 Q20.8 26.95 17.05 25.45 13.3 23.85 11.85 24.05 10.3 24.2 7.7 20.55 5.05 16.9 5.35 6.45 5.6 -4.0 6.3 -9.25 L7.0 -15.95 Q7.4 -17.3 8.5 -18.75 L9.0 -19.45 M122.4 1.25 L124.3 3.3 127.3 3.8 129.1 3.8 130.5 3.75 131.15 3.25 132.05 5.1 Q132.9 6.7 133.4 7.0 132.9 6.7 132.05 5.1 L131.15 3.25 130.5 3.75 129.1 3.8 127.3 3.8 124.3 3.3 122.4 1.25 M161.6 14.4 L159.15 15.15 156.85 16.1 159.15 15.15 161.6 14.4 M127.3 3.8 L126.3 1.85 125.65 0.35 126.3 1.85 127.3 3.8" fill="#faf8c3" fill-rule="evenodd" stroke="none"/>
      <path d="M133.3 7.1 L133.4 7.0 134.35 6.25 138.3 4.55 Q141.3 3.25 142.25 3.15 143.15 3.05 143.7 3.5 L144.1 1.9 144.8 1.8 145.0 1.8 Q145.95 1.85 147.25 2.45 L146.5 3.9 Q142.15 12.35 141.55 14.25 141.35 12.95 142.15 9.4 L141.75 11.0 Q140.95 14.55 141.15 15.85 141.8 13.8 146.85 4.05 L146.95 4.1 Q148.65 4.9 150.9 6.8 L153.45 11.2 Q152.75 11.4 151.85 11.9 L150.05 12.8 148.2 13.15 Q147.4 13.3 146.65 13.85 144.9 15.05 143.75 15.5 L141.75 16.3 141.25 16.35 141.2 16.35 141.15 16.05 141.15 15.85 141.1 16.05 140.9 16.0 Q137.05 11.9 133.3 7.1 M142.15 9.4 L143.25 5.25 143.7 3.5 143.25 5.25 142.15 9.4" fill="#d9cd9e" fill-rule="evenodd" stroke="none"/>
      <path d="M128.3 14.3 L129.5 12.2 Q131.8 8.55 133.3 7.1 137.05 11.9 140.9 16.0 L128.3 14.3 M153.45 11.2 L154.45 13.1 154.75 15.3 154.75 15.35 154.35 15.55 147.55 15.9 141.75 16.3 143.75 15.5 Q144.9 15.05 146.65 13.85 147.4 13.3 148.2 13.15 L150.05 12.8 151.85 11.9 Q152.75 11.4 153.45 11.2" fill="#e3deb2" fill-rule="evenodd" stroke="none"/>
      <path d="M210.85 -19.1 L210.25 -19.55 Q209.1 -20.35 207.3 -20.85 204.1 -21.8 199.35 -21.85 L191.7 -22.2 186.5 -22.55 175.9 -23.25 162.55 -22.6 154.45 -21.9 150.75 -22.2 136.6 -23.3 113.65 -22.95 92.3 -22.9 82.9 -22.85 75.25 -22.9 38.45 -23.6 12.0 -22.55 9.0 -19.45 8.95 -19.55 Q11.65 -24.6 15.3 -27.9 L40.9 -28.95 76.4 -28.25 83.8 -28.2 92.9 -28.25 113.5 -28.3 135.65 -28.65 149.3 -27.55 152.9 -27.25 160.7 -27.95 173.6 -28.6 183.85 -27.9 188.85 -27.55 196.25 -27.2 Q200.8 -27.15 203.9 -26.25 208.4 -24.9 211.85 -17.95 L210.85 -19.1" fill="#f8ed8f" fill-rule="evenodd" stroke="none"/>
      <path d="M210.85 -19.1 L211.85 -17.95 Q208.4 -24.9 203.9 -26.25 200.8 -27.15 196.25 -27.2 L188.85 -27.55 183.85 -27.9 173.6 -28.6 160.7 -27.95 152.9 -27.25 149.3 -27.55 135.65 -28.65 113.5 -28.3 92.9 -28.25 83.8 -28.2 76.4 -28.25 40.9 -28.95 15.3 -27.9 Q11.65 -24.6 8.95 -19.55 L8.5 -18.75 Q7.4 -17.3 7.0 -15.95 L6.3 -9.25 Q5.6 -4.0 5.35 6.45 5.05 16.9 7.7 20.55 10.3 24.2 11.85 24.05 13.3 23.85 17.05 25.45 20.8 26.95 22.6 26.8 L25.0 26.45 26.9 25.95 31.35 25.25 33.55 25.0 Q45.95 23.85 57.9 25.65 M62.05 26.35 L65.65 25.75 89.95 26.5 92.3 26.4 132.4 26.15 Q133.0 26.15 134.3 24.65 135.65 23.15 138.6 22.6 140.2 21.35 141.0 21.8 141.8 22.25 142.55 22.3 145.9 22.5 149.1 24.65 L150.6 25.35 162.2 25.05 165.7 25.05 183.15 25.35 184.95 25.45 185.0 25.45 192.05 25.75 192.6 25.8 M212.05 -17.5 L212.3 -16.1 212.25 -3.6 212.0 1.55 211.95 2.55 211.2 9.65 Q211.15 13.45 210.75 16.55 208.75 14.95 208.0 14.95 L204.05 16.15 Q200.1 17.5 198.15 17.8 L198.15 18.65 198.5 20.6 195.2 21.45 Q193.85 21.75 193.8 22.65 193.7 24.6 192.8 25.8 M212.05 -17.5 L212.0 -17.6 211.85 -17.95 M212.0 -17.6 L212.05 -17.5" fill="none" stroke="#330101" stroke-linecap="round" stroke-linejoin="round" stroke-opacity="0.4" stroke-width="0.05"/>
      <path d="M9.0 -19.45 L12.0 -22.55 38.45 -23.6 75.25 -22.9 82.9 -22.85 92.3 -22.9 113.65 -22.95 136.6 -23.3 150.75 -22.2 154.45 -21.9 162.55 -22.6 175.9 -23.25 186.5 -22.55 191.7 -22.2 199.35 -21.85 Q204.1 -21.8 207.3 -20.85 209.1 -20.35 210.25 -19.55 L210.85 -19.1 M9.0 -19.45 L8.5 -18.75 M57.9 25.65 L58.6 23.9 59.05 22.8 62.05 26.35 M192.8 25.8 L192.6 25.8" fill="none" stroke="#330101" stroke-linecap="round" stroke-linejoin="round" stroke-opacity="0.3019608" stroke-width="0.05"/>
      <path d="M132.4 26.15 L130.75 24.6 130.35 24.15 129.5 25.05 127.05 21.9 128.65 21.35 127.2 17.75 128.3 14.3 129.5 12.2 Q131.8 8.55 133.3 7.1 L133.4 7.0 Q132.9 6.7 132.05 5.1 L131.15 3.25 130.5 3.75 129.1 3.8 127.3 3.8 124.3 3.3 122.4 1.25 M147.9 -3.9 L147.95 -3.8 147.95 -3.9 147.95 -4.05 147.9 -3.9 147.65 -5.15 150.9 -5.95 154.05 -6.75 M146.95 4.1 Q147.95 3.05 147.95 2.1 L147.6 -0.25 Q147.6 -1.15 147.95 -3.8 M147.9 -3.9 L146.65 -0.65 Q145.95 0.95 145.0 1.8 145.95 1.85 147.25 2.45 L146.5 3.9 Q142.15 12.35 141.55 14.25 141.35 12.95 142.15 9.4 L141.75 11.0 Q140.95 14.55 141.15 15.85 141.8 13.8 146.85 4.05 L146.95 4.1 Q148.65 4.9 150.9 6.8 L153.45 11.2 154.45 13.1 154.75 15.3 154.75 15.35 154.75 15.55 154.75 17.4 Q154.75 22.0 150.6 25.35 M154.85 15.3 Q156.2 15.3 156.85 16.1 L159.15 15.15 161.6 14.4 M164.0 22.95 L165.7 22.2 167.3 21.6 169.8 23.55 M164.0 22.95 L164.65 23.6 165.7 25.05 M143.7 3.5 L143.25 5.25 142.15 9.4 M133.4 7.0 L134.35 6.25 138.3 4.55 Q141.3 3.25 142.25 3.15 143.15 3.05 143.7 3.5 L144.1 1.9 144.8 1.8 145.0 1.8 M141.25 16.35 Q144.0 18.55 145.7 20.5 L149.1 24.65 M139.35 21.25 L139.85 20.8 Q140.3 20.5 140.5 20.5 141.3 20.5 141.95 21.35 L142.55 22.3 M141.75 16.3 L143.75 15.5 Q144.9 15.05 146.65 13.85 147.4 13.3 148.2 13.15 L150.05 12.8 151.85 11.9 Q152.75 11.4 153.45 11.2 M154.75 15.35 L154.85 15.3 M154.35 15.55 L154.75 15.35 M154.35 15.55 L154.75 15.55 M156.85 16.1 Q157.35 16.7 157.45 17.75 157.7 20.5 159.9 21.15 162.7 21.95 164.0 22.95 M141.75 16.3 L147.55 15.9 154.35 15.55 M125.65 0.35 L126.3 1.85 127.3 3.8 M135.65 19.35 L135.35 19.5 Q132.65 19.85 129.75 20.9 L128.65 21.35 M141.15 15.85 L141.15 16.05 141.2 16.35 141.25 16.35 141.75 16.3 M141.1 16.05 L140.9 16.0 141.2 16.35 141.2 16.4 141.25 16.35 M141.15 16.05 L141.1 16.05 M141.2 16.4 L140.2 19.0 139.35 21.25 138.6 22.6 M141.2 16.4 L135.65 19.35 130.35 24.15 M140.9 16.0 Q137.05 11.9 133.3 7.1 M140.9 16.0 L128.3 14.3" fill="none" stroke="#330101" stroke-linecap="round" stroke-linejoin="round" stroke-opacity="0.15294118" stroke-width="0.05"/>
      <path d="M11.9 -1.65 L16.45 -0.4 20.75 0.3 22.3 0.35 24.6 0.3 24.4 0.95 23.9 1.55 23.9 2.25 24.85 3.05 25.7 3.35 Q26.3 3.35 28.5 1.15 26.3 3.35 25.7 3.35 L24.85 3.05 23.9 2.25 23.9 1.55 24.4 0.95 24.6 0.3 Q26.65 -0.7 29.25 0.35 28.5 0.4 28.5 1.05 L28.5 1.15 27.75 4.3 24.95 7.45 23.45 8.1 21.05 8.85 14.05 8.2 Q13.15 6.3 12.6 3.6 11.95 0.75 11.9 -1.65 M30.25 -0.25 L32.35 -1.05 39.7 -2.0 41.05 -2.25 49.4 -2.95 Q50.4 -0.2 50.4 2.5 50.4 3.65 49.3 5.65 L48.7 6.7 Q45.7 5.1 44.35 4.55 L43.25 4.15 39.35 3.2 37.9 2.95 Q36.0 2.5 34.0 1.5 31.55 0.25 30.25 -0.25" fill="#f2eec4" fill-rule="evenodd" stroke="none"/>
      <path d="M24.95 7.45 L27.75 4.3 28.5 1.15 28.5 1.1 28.5 1.05 Q28.5 0.4 29.25 0.35 30.25 2.1 31.8 8.6 L33.75 17.1 Q30.85 17.95 29.25 18.05 L29.1 18.05 28.25 17.95 Q25.25 17.35 20.95 14.85 L19.0 13.65 21.45 11.0 24.0 8.4 24.9 7.5 24.95 7.45 M46.8 11.25 Q46.5 9.3 44.7 5.4 L50.55 8.15 47.1 11.25 46.8 11.25" fill="#fbf8d9" fill-rule="evenodd" stroke="none"/>
      <path d="M15.95 -11.65 L16.65 -12.55 Q19.85 -16.4 21.65 -16.9 L22.4 -17.35 Q22.7 -16.2 24.35 -12.45 L25.95 -8.8 26.8 -6.95 29.25 0.35 26.9 -9.1 25.75 -13.2 Q24.7 -16.6 23.8 -17.8 L25.15 -18.0 26.05 -17.75 Q26.85 -17.75 27.7 -18.15 28.55 -18.35 31.1 -16.4 L31.25 -16.65 31.75 -16.65 Q36.1 -17.0 39.6 -15.75 L37.45 -11.8 Q36.0 -8.85 35.9 -8.0 L35.65 -7.65 29.4 -0.55 29.4 -2.9 29.45 -6.15 Q29.55 -7.7 30.25 -9.4 L30.55 -10.1 Q30.95 -10.95 30.75 -13.6 30.65 -15.05 30.9 -15.85 L31.1 -16.4 30.9 -15.85 Q30.65 -15.05 30.75 -13.6 30.95 -10.95 30.55 -10.1 L30.25 -9.4 Q29.55 -7.7 29.45 -6.15 L29.4 -2.9 29.4 -0.55 29.25 0.35 26.9 -1.25 24.0 -4.05 22.55 -6.2 20.8 -8.85 Q19.15 -11.35 15.95 -11.65 M39.5 -14.2 L41.2 -17.5 44.0 -16.1 40.9 -13.5 Q38.75 -11.75 37.4 -9.95 37.9 -11.45 39.5 -14.2" fill="#d9cd9e" fill-rule="evenodd" stroke="none"/>
      <path d="M11.9 -1.7 Q11.95 -2.9 12.75 -4.75 L15.95 -11.65 Q19.15 -11.35 20.8 -8.85 L22.55 -6.2 24.0 -4.05 26.9 -1.25 29.25 0.35 Q26.65 -0.7 24.6 0.3 L22.3 0.35 20.75 0.3 16.45 -0.4 11.9 -1.65 11.9 -1.7 M29.4 -0.55 L35.65 -7.65 35.9 -8.0 42.7 -14.4 Q45.0 -13.1 45.55 -11.4 L48.7 -4.55 49.0 -3.95 41.6 -3.3 39.6 -2.95 Q35.75 -2.3 32.35 -1.05 L30.25 -0.25 29.4 -0.55" fill="#e3deb2" fill-rule="evenodd" stroke="none"/>
      <path d="M38.95 -23.5 L40.8 -24.35 Q41.9 -24.8 41.85 -25.1 L41.9 -27.5 42.25 -29.05" fill="none" stroke="#330101" stroke-linecap="round" stroke-linejoin="round" stroke-opacity="0.3019608" stroke-width="0.05"/>
      <path d="M6.3 -11.85 L7.75 -10.25 8.65 -8.7 9.75 -8.75 10.8 -5.0 11.9 -1.7 Q11.95 -2.9 12.75 -4.75 L15.95 -11.65 16.65 -12.55 Q19.85 -16.4 21.65 -16.9 L22.4 -17.35 Q22.7 -16.2 24.35 -12.45 L25.95 -8.8 M29.25 0.35 L26.9 -9.1 25.75 -13.2 Q24.7 -16.6 23.8 -17.8 L25.15 -18.0 26.05 -17.75 Q26.85 -17.75 27.7 -18.15 28.55 -18.35 31.1 -16.4 L31.25 -16.65 31.75 -16.65 32.85 -17.55 34.5 -18.8 35.1 -22.0 Q35.3 -23.45 36.4 -23.7 M8.65 -8.7 L6.15 -8.15 M20.75 0.3 L16.45 -0.4 11.9 -1.65 Q11.95 0.75 12.6 3.6 13.15 6.3 14.05 8.2 L21.05 8.85 23.45 8.1 M11.9 -1.65 L11.9 -1.7 M31.1 -16.4 L30.9 -15.85 Q30.65 -15.05 30.75 -13.6 30.95 -10.95 30.55 -10.1 L30.25 -9.4 Q29.55 -7.7 29.45 -6.15 L29.4 -2.9 29.4 -0.55 29.25 0.35 M35.9 -8.0 Q36.0 -8.85 37.45 -11.8 L39.6 -15.75 Q36.1 -17.0 31.75 -16.65 M39.6 -2.95 L41.6 -3.3 49.0 -3.95 48.7 -4.55 45.55 -11.4 Q45.0 -13.1 42.7 -14.4 L35.9 -8.0 M15.95 -11.65 Q19.15 -11.35 20.8 -8.85 L22.55 -6.2 M39.7 -2.0 L41.05 -2.25 49.4 -2.95 56.35 -2.5 Q57.85 -2.5 59.9 -3.85 L63.5 -5.9 66.15 -7.1 67.95 -7.25 68.15 -7.25 71.1 -7.25 72.35 -7.45 Q74.8 -8.25 78.35 -12.3 80.75 -11.8 81.75 -13.15 L83.9 -15.8 83.2 -16.35 80.85 -18.3 M39.5 -14.2 L41.2 -17.5 44.0 -16.1 40.9 -13.5 Q38.75 -11.75 37.4 -9.95 37.9 -11.45 39.5 -14.2 M93.6 -16.5 L93.15 -16.35 93.0 -16.35 Q93.0 -15.55 92.25 -14.95 L90.95 -14.0 92.55 -12.75 92.8 -12.9 93.85 -13.1 95.3 -13.25 95.6 -13.35 96.05 -16.05 93.5 -16.25 93.6 -16.5 94.65 -18.45 Q94.95 -18.9 95.8 -18.9 L101.4 -18.6 100.55 -18.6 Q102.3 -18.3 103.5 -18.9 L108.5 -21.2 M95.6 -13.35 L95.95 -13.2 97.1 -13.05 98.25 -12.35 100.05 -12.85 102.3 -12.85 Q103.35 -7.55 103.3 -5.55 L105.1 -5.55 119.25 -7.05 M90.95 -14.0 L89.95 -15.25 Q89.25 -16.1 88.5 -16.05 L84.15 -15.8 83.9 -15.8 M92.8 -12.9 L92.85 -10.5 93.15 -9.5 87.45 -6.75 M194.75 9.75 Q194.35 10.15 193.85 12.7 194.95 13.2 195.65 13.8 197.2 15.05 197.8 17.75 M193.85 12.7 L189.3 13.35 187.1 11.15 M49.4 -2.95 Q50.4 -0.2 50.4 2.5 50.4 3.65 49.3 5.65 L48.7 6.7 Q45.7 5.1 44.35 4.55 L43.25 4.15 Q43.7 5.6 44.7 7.6 L45.45 9.6 45.45 9.8 46.95 13.05 Q47.4 13.7 50.15 13.9 L53.25 14.1 Q54.6 14.55 59.4 21.2 L59.05 22.8 M45.45 9.8 L45.45 10.35 Q44.75 10.7 42.6 13.85 37.25 16.05 33.75 17.1 30.85 17.95 29.25 18.05 L30.55 19.15 Q31.65 20.05 31.85 21.65 M46.8 11.25 Q46.5 9.3 44.7 5.4 L50.55 8.15 47.1 11.25 46.8 11.25 M37.9 2.95 L39.35 3.2 43.25 4.15 M31.8 8.6 L33.75 17.1 M24.0 8.4 L21.45 11.0 19.0 13.65 20.95 14.85 Q25.25 17.35 28.25 17.95 L29.1 18.05 29.25 18.05 M29.1 18.05 L28.6 19.85 28.05 21.5 Q28.05 21.95 30.0 24.9 M19.0 13.65 Q16.25 11.8 15.1 10.1 L14.05 8.2" fill="none" stroke="#330101" stroke-linecap="round" stroke-linejoin="round" stroke-opacity="0.15294118" stroke-width="0.05"/>
      <path d="M25.95 -8.8 L26.8 -6.95 29.25 0.35 Q26.65 -0.7 24.6 0.3 L22.3 0.35 20.75 0.3 M23.45 8.1 L24.95 7.45 27.75 4.3 28.5 1.15 Q26.3 3.35 25.7 3.35 L24.85 3.05 23.9 2.25 23.9 1.55 24.4 0.95 24.6 0.3 M29.4 -0.55 L35.65 -7.65 35.9 -8.0 M29.4 -0.55 L30.25 -0.25 32.35 -1.05 Q35.75 -2.3 39.6 -2.95 M22.55 -6.2 L24.0 -4.05 26.9 -1.25 29.25 0.35 Q30.25 2.1 31.8 8.6 M32.35 -1.05 L39.7 -2.0 M30.25 -0.25 Q31.55 0.25 34.0 1.5 36.0 2.5 37.9 2.95 M28.5 1.05 Q28.5 0.4 29.25 0.35 M28.5 1.15 L28.5 1.1 28.5 1.05 28.5 1.15 M24.95 7.45 L24.9 7.5 24.0 8.4" fill="none" stroke="#330101" stroke-linecap="round" stroke-linejoin="round" stroke-opacity="0.2" stroke-width="0.05"/>
      <path d="M177.6 -28.4 L177.35 -26.65 Q177.35 -23.05 178.4 -22.7 L181.25 -21.5 Q183.75 -22.2 185.5 -17.25 L185.85 -17.55 M198.15 -27.15 L200.0 -21.75 201.95 -24.4 203.25 -26.35 M185.5 -17.25 L184.05 -16.3 Q182.0 -15.05 182.0 -13.55 182.0 -11.9 182.5 -8.0 L182.85 -5.1 183.0 -5.1 183.8 -7.3 184.55 -9.5 189.3 -8.9 Q192.3 -8.9 193.1 -12.15 194.2 -16.7 194.8 -17.4 195.6 -18.3 198.5 -19.25 200.05 -19.75 200.25 -21.0 L200.0 -21.75 200.25 -21.75 200.25 -21.0 M182.85 -5.1 L183.0 -3.4 Q183.0 -2.3 179.75 3.8 176.15 10.65 175.3 13.55 174.45 16.75 172.75 19.0 170.75 21.7 168.4 21.75" fill="none" stroke="#330101" stroke-linecap="round" stroke-linejoin="round" stroke-opacity="0.2" stroke-width="0.05"/>
    </g>
  </defs>
</svg>
