<?xml version="1.0" encoding="UTF-8" standalone="no"?>
<svg xmlns:xlink="http://www.w3.org/1999/xlink" height="33.4px" width="25.45px" xmlns="http://www.w3.org/2000/svg">
  <g transform="matrix(1.0, 0.0, 0.0, 1.0, 12.75, 16.7)">
    <path d="M9.0 -12.95 L9.65 -9.55 9.8 -8.4 9.8 -7.25 Q9.95 -4.35 10.6 -1.25 11.25 1.65 12.4 4.75 L12.7 6.55 10.8 11.25 Q8.0 9.15 6.25 11.75 L5.9 12.55 4.75 11.4 5.9 12.55 6.25 11.75 Q8.0 9.15 10.8 11.25 L10.6 13.35 10.45 14.3 Q8.65 15.45 7.7 14.65 L6.05 13.5 Q5.9 17.25 1.85 16.6 -0.1 16.75 0.05 14.65 -1.7 17.55 -5.3 15.6 L-5.6 14.95 -4.95 12.4 -4.65 8.95 -4.95 12.4 -5.6 14.95 -7.55 16.45 -10.5 15.95 -12.45 14.3 -12.45 14.0 Q-12.1 12.7 -10.35 12.2 L-7.4 13.35 -6.45 13.2 -6.75 12.2 -6.25 10.9 -4.65 8.95 Q-4.15 8.95 -3.85 9.6 -3.5 10.25 -3.5 11.25 -4.55 11.55 -4.15 12.2 L-3.65 12.7 -3.65 13.2 -2.35 13.5 -2.05 13.35 -1.9 13.35 -0.1 13.5 -0.1 12.4 -0.1 12.05 0.2 11.4 0.7 12.2 1.7 13.05 1.7 13.35 1.85 13.85 3.95 13.85 1.85 13.85 1.7 13.35 3.95 13.85 4.45 13.65 4.6 13.2 4.6 11.4 4.75 11.4 6.25 7.65 3.15 3.45 1.05 -0.1 Q1.2 -2.55 1.5 -4.5 1.7 -6.6 0.85 -11.3 L-0.1 -16.5 -0.1 -16.7 Q3.0 -16.7 5.25 -15.85 L6.4 -15.4 7.7 -14.75 8.85 -13.6 Q8.85 -13.25 9.0 -12.95 M-0.1 13.5 L0.05 14.65 -0.1 13.5 M7.55 12.2 L7.85 11.9 Q8.85 11.9 9.0 12.55 L9.0 13.05 7.55 12.7 7.55 12.2 7.55 12.7 9.0 13.05 9.0 12.55 Q8.85 11.9 7.85 11.9 L7.55 12.2 M5.9 12.55 L6.05 13.5 5.9 12.55" fill="#d6baba" fill-rule="evenodd" stroke="none"/>
    <path d="M9.65 -9.55 L9.0 -12.95 9.3 -12.15 9.65 -9.55 M-0.1 -16.5 L0.85 -11.3 Q1.7 -6.6 1.5 -4.5 1.2 -2.55 1.05 -0.1 L3.15 3.45 6.25 7.65 4.75 11.4 4.6 11.4 2.8 10.6 Q1.35 10.1 0.2 11.4 1.35 10.1 2.8 10.6 L4.6 11.4 4.6 13.2 4.45 13.65 Q4.1 11.75 2.0 12.7 L1.7 13.05 2.0 12.7 Q4.1 11.75 4.45 13.65 L3.95 13.85 1.7 13.35 1.7 13.05 0.7 12.2 0.2 11.4 -0.1 12.05 -0.25 12.05 -3.0 11.1 -3.5 11.25 -3.0 11.1 -0.25 12.05 -0.1 12.4 -0.1 13.5 -1.9 13.35 Q-0.75 12.4 -3.0 12.4 -3.35 12.4 -3.65 12.7 -3.35 12.4 -3.0 12.4 -0.75 12.4 -1.9 13.35 L-2.05 13.35 -2.35 13.5 -3.65 13.2 -1.9 13.35 -3.65 13.2 -3.65 12.7 -4.15 12.2 Q-4.55 11.55 -3.5 11.25 -3.5 10.25 -3.85 9.6 -4.15 8.95 -4.65 8.95 L-6.25 10.9 -6.75 12.2 -6.45 13.2 -7.4 13.35 -10.35 12.2 Q-12.1 12.7 -12.45 14.0 L-12.45 14.3 -12.6 14.0 -12.75 13.2 Q-12.6 11.55 -12.1 9.95 -11.8 7.2 -11.15 4.6 L-9.5 -0.3 Q-8.85 -1.9 -8.55 -3.35 L-7.55 -7.45 -6.75 -10.85 Q-6.75 -16.5 -0.75 -16.5 L-0.1 -16.5 M-7.4 8.3 L-9.85 8.15 -12.1 9.95 -9.85 8.15 -7.4 8.3" fill="#ffffff" fill-rule="evenodd" stroke="none"/>
    <path d="M-0.1 12.4 L-0.25 12.05 -0.1 12.05 -0.1 12.4" fill="#d19558" fill-rule="evenodd" stroke="none"/>
    <path d="M9.0 -12.95 L9.65 -9.55 M9.0 -12.95 Q8.85 -13.25 8.85 -13.6 M4.75 11.4 L5.9 12.55 6.25 11.75 Q8.0 9.15 10.8 11.25 L12.7 6.55 12.4 4.75 Q11.25 1.65 10.6 -1.25 9.95 -4.35 9.8 -7.25 L9.8 -8.4 9.65 -9.55 M-12.45 14.3 L-12.6 14.0 -12.75 13.2 Q-12.6 11.55 -12.1 9.95 -11.8 7.2 -11.15 4.6 L-9.5 -0.3 Q-8.85 -1.9 -8.55 -3.35 L-7.55 -7.45 -6.75 -10.85 M-0.25 12.05 L-3.0 11.1 -3.5 11.25 M-0.1 13.5 L-0.1 12.4 M-0.25 12.05 L-0.1 12.05 0.2 11.4 Q1.35 10.1 2.8 10.6 L4.6 11.4 4.75 11.4 M-4.65 8.95 L-4.95 12.4 -5.6 14.95 -5.3 15.6 Q-1.7 17.55 0.05 14.65 L-0.1 13.5 M-0.1 12.05 L-0.1 12.4 M-12.45 14.3 L-10.5 15.95 -7.55 16.45 -5.6 14.95 M-12.1 9.95 L-9.85 8.15 -7.4 8.3 M10.8 11.25 L10.6 13.35 10.45 14.3 Q8.65 15.45 7.7 14.65 L6.05 13.5 Q5.9 17.25 1.85 16.6 -0.1 16.75 0.05 14.65 M6.05 13.5 L5.9 12.55" fill="none" stroke="#000000" stroke-linecap="round" stroke-linejoin="round" stroke-opacity="0.4" stroke-width="0.05"/>
    <path d="M-3.65 12.7 Q-3.35 12.4 -3.0 12.4 -0.75 12.4 -1.9 13.35 L-3.65 13.2 -3.65 12.7 M3.95 13.85 L1.85 13.85 1.7 13.35 1.7 13.05 2.0 12.7 Q4.1 11.75 4.45 13.65 M-6.75 12.2 L-6.45 13.2 -7.4 13.35 -10.35 12.2 M7.55 12.2 L7.55 12.7 9.0 13.05 9.0 12.55 Q8.85 11.9 7.85 11.9 L7.55 12.2 M3.95 13.85 L4.45 13.65" fill="none" stroke="#000000" stroke-linecap="round" stroke-linejoin="round" stroke-opacity="0.15294118" stroke-width="0.05"/>
  </g>
</svg>
