<svg xmlns="http://www.w3.org/2000/svg" xmlns:xlink="http://www.w3.org/1999/xlink" width="34" height="34"><g transform="matrix(1.0, 0.0, 0.0, 1.0, 1, 1)"><use width="34" height="34" transform="matrix(1.0, 0.0, 0.0, 1.0, -1.0, -1.0)" xlink:href="#sprite0"/></g><defs><g id="sprite0" transform="matrix(1.0, 0.0, 0.0, 1.0, 1.0, 1.0)"><use width="34" height="34" transform="matrix(1.0, 0.0, 0.0, 1.0, -1.0, -1.0)" xlink:href="#sprite1"/><use width="29.25" height="21.8" transform="matrix(1.0, 0.0, 0.0, 1.0, 1.35, 5.35)" xlink:href="#shape1"/></g><g id="sprite1" transform="matrix(1.0, 0.0, 0.0, 1.0, 1.0, 1.0)"><use width="34" height="34" transform="matrix(1.0, 0.0, 0.0, 1.0, -1.0, -1.0)" xlink:href="#shape0"/></g><g id="shape0"><path fill="#cc0" fill-rule="evenodd" stroke="none" d="M0.0 32.0 L0.0 0.0 32.0 0.0 32.0 32.0 0.0 32.0" transform="matrix(1.0, 0.0, 0.0, 1.0, 1.0, 1.0)"/><path fill="none" stroke="#733c2f" stroke-linecap="round" stroke-linejoin="round" stroke-width="2" d="M0.0 32.0 L0.0 0.0 32.0 0.0 32.0 32.0 0.0 32.0 Z" transform="matrix(1.0, 0.0, 0.0, 1.0, 1.0, 1.0)"/></g><g id="shape1"><path fill="#733c2f" fill-rule="evenodd" stroke="none" d="M21.95 5.9 L21.55 6.2 Q21.35 6.35 21.3 6.6 21.05 7.4 20.95 8.45 L21.05 8.9 Q21.45 10.1 22.25 11.15 L22.35 11.2 24.55 13.05 24.6 13.1 26.1 13.85 26.35 14.4 26.45 16.95 26.2 18.75 24.85 19.85 25.25 22.85 Q25.25 24.05 23.4 25.1 22.0 26.05 20.7 26.2 L20.65 26.3 Q20.05 27.15 18.25 27.15 L16.5 27.1 15.95 27.05 15.45 27.1 13.7 27.15 Q11.9 27.15 11.35 26.3 L11.3 26.2 Q10.0 26.05 8.55 25.1 6.7 24.05 6.7 22.85 L7.1 19.85 5.75 18.75 5.55 16.95 5.65 14.4 5.9 13.85 7.4 13.1 7.45 13.05 9.65 11.2 9.7 11.15 Q10.55 10.1 11.0 8.9 L11.05 8.45 10.65 6.55 10.45 6.15 10.05 5.9 9.45 5.7 12.0 5.35 12.3 5.4 12.6 8.0 12.6 8.35 Q13.1 9.15 13.9 9.6 L15.95 10.3 18.1 9.6 19.4 8.35 19.4 8.0 19.7 5.4 19.95 5.35 22.55 5.7 21.95 5.9 M25.2 16.7 L25.25 16.7 25.25 16.5 25.25 15.75 25.0 13.55 21.45 12.25 17.25 13.3 17.25 19.0 20.35 19.8 Q21.1 19.85 21.65 19.35 L25.2 16.7 M6.7 15.75 L6.75 16.7 11.05 19.8 14.7 19.0 14.75 13.3 10.55 12.25 7.05 13.55 6.7 15.75 M12.5 22.25 L12.5 23.05 15.95 21.95 19.45 23.05 19.45 22.25 15.95 21.05 12.5 22.25 M15.95 22.8 L12.5 23.95 12.5 24.8 15.95 23.7 19.45 24.8 19.45 23.95 15.95 22.8" transform="matrix(1.0, 0.0, 0.0, 1.0, -1.35, -5.35)"/><path fill="#fcf9e0" fill-rule="evenodd" stroke="none" d="M25.25 16.5 L25.2 16.7 21.65 19.35 Q21.1 19.85 20.35 19.8 L17.25 19.0 17.25 13.3 21.45 12.25 25.0 13.55 25.25 15.75 25.25 16.5 M6.7 15.75 L7.05 13.55 10.55 12.25 14.75 13.3 14.7 19.0 11.05 19.8 6.75 16.7 6.7 15.75 M12.5 22.25 L15.95 21.05 19.45 22.25 19.45 23.05 15.95 21.95 12.5 23.05 12.5 22.25 M15.95 22.8 L19.45 23.95 19.45 24.8 15.95 23.7 12.5 24.8 12.5 23.95 15.95 22.8" transform="matrix(1.0, 0.0, 0.0, 1.0, -1.35, -5.35)"/><path fill="#733c2f" fill-rule="evenodd" stroke="none" d="M23.2 12.3 L23.4 12.35 23.55 12.45 25.7 13.95 25.65 14.8 25.9 15.3 26.15 15.7 26.1 15.9 25.8 16.1 23.05 13.8 20.6 11.3 Q20.6 10.45 21.35 11.15 L22.85 12.6 Q23.05 12.3 23.2 12.3 M11.45 11.3 L9.0 13.8 6.25 16.1 5.95 15.9 5.9 15.7 6.15 15.3 6.4 14.8 6.35 13.95 8.5 12.45 8.65 12.35 8.85 12.3 9.2 12.6 10.7 11.15 Q11.45 10.45 11.45 11.3" transform="matrix(1.0, 0.0, 0.0, 1.0, -1.35, -5.35)"/><path fill="#733c2f" fill-rule="evenodd" stroke="none" d="M25.15 12.25 L23.05 10.5 Q22.35 9.6 21.95 8.55 L22.25 6.85 23.35 6.45 Q25.7 6.2 27.6 7.5 30.9 9.5 30.6 13.4 L28.25 13.35 Q26.55 13.15 25.15 12.25 M1.35 13.4 Q1.1 9.5 4.35 7.5 6.25 6.2 8.65 6.45 L9.7 6.85 10.05 8.55 8.9 10.5 6.85 12.25 Q5.4 13.15 3.75 13.35 L1.35 13.4" transform="matrix(1.0, 0.0, 0.0, 1.0, -1.35, -5.35)"/></g></defs></svg>