<?xml version="1.0" encoding="UTF-8" standalone="no"?>
<svg xmlns:xlink="http://www.w3.org/1999/xlink" height="34" width="34" xmlns="http://www.w3.org/2000/svg">
  <g transform="matrix(1.0, 0.0, 0.0, 1.0, 1, 1)">
    <use height="34.0" transform="matrix(1.0, 0.0, 0.0, 1.0, -1.0, -1.0)" width="34.0" xlink:href="#sprite0"/>
  </g>
  <defs>
    <g id="sprite0" transform="matrix(1.0, 0.0, 0.0, 1.0, 1.0, 1.0)">
      <use height="34.0" transform="matrix(1.0, 0.0, 0.0, 1.0, -1.0, -1.0)" width="34.0" xlink:href="#sprite1"/>
      <use height="26.65" transform="matrix(1.0, 0.0, 0.0, 1.0, 2.05, 3.1)" width="25.8" xlink:href="#shape1"/>
    </g>
    <g id="sprite1" transform="matrix(1.0, 0.0, 0.0, 1.0, 1.0, 1.0)">
      <use height="34.0" transform="matrix(1.0, 0.0, 0.0, 1.0, -1.0, -1.0)" width="34.0" xlink:href="#shape0"/>
    </g>
    <g id="shape0" transform="matrix(1.0, 0.0, 0.0, 1.0, 1.0, 1.0)">
      <path d="M0.0 32.0 L0.0 0.0 32.0 0.0 32.0 32.0 0.0 32.0" fill="#cccc00" fill-rule="evenodd" stroke="none"/>
      <path d="M0.0 32.0 L0.0 0.0 32.0 0.0 32.0 32.0 0.0 32.0 Z" fill="none" stroke="#733c2f" stroke-linecap="round" stroke-linejoin="round" stroke-width="2.0"/>
    </g>
    <g id="shape1" transform="matrix(1.0, 0.0, 0.0, 1.0, -2.05, -3.1)">
      <path d="M4.4 19.0 L4.5 19.3 Q4.5 19.8 3.95 19.85 L3.6 19.45 Q3.6 19.2 3.9 19.05 L4.4 19.0 M3.65 22.8 L3.6 23.15 3.25 23.25 Q2.6 23.25 2.15 22.15 2.15 21.45 2.9 21.9 3.65 22.3 3.65 22.8 M7.1 22.6 L8.05 22.8 Q8.75 23.05 9.15 23.4 9.2 23.9 8.6 23.9 8.0 23.9 7.55 23.45 7.1 23.0 7.1 22.6 M6.6 25.1 L6.4 25.15 5.9 25.0 5.85 24.65 6.55 24.75 6.55 24.8 6.6 25.0 6.6 25.1" fill="#733c2f" fill-rule="evenodd" stroke="none"/>
      <path d="M9.2 26.4 L9.25 26.5 9.2 26.5 9.2 26.4" fill="#f4ecdf" fill-rule="evenodd" stroke="none"/>
      <path d="M5.9 18.05 L6.25 18.6 6.55 19.2 6.35 19.6 5.9 19.85 5.3 19.5 5.2 19.1 Q5.2 18.55 5.75 18.5 5.75 18.15 5.9 18.05 M2.6 21.55 Q2.05 21.55 2.05 21.1 2.05 20.55 2.75 20.3 3.45 20.05 3.45 20.6 3.45 21.55 2.6 21.55 M4.65 21.8 Q4.65 21.35 5.2 21.45 5.75 21.55 5.75 21.95 L5.55 22.35 Q5.35 22.55 5.15 22.55 4.9 22.55 4.75 22.15 L4.65 21.8 M3.65 23.9 Q3.85 23.4 4.2 23.35 4.65 23.2 5.55 24.3 L5.25 24.8 Q4.85 25.2 4.2 25.2 3.75 25.2 3.6 24.9 L3.5 24.55 3.65 23.9 M6.6 21.75 Q6.6 20.95 7.35 21.1 8.1 21.25 8.1 21.9 L7.85 22.3 7.1 22.5 Q6.65 22.5 6.6 22.1 L6.6 21.75 M6.55 24.75 Q6.7 24.25 7.65 24.25 L8.3 24.35 8.65 24.15 Q9.0 23.9 9.35 23.9 L10.3 24.05 10.35 24.3 10.0 25.0 9.55 25.25 9.3 25.4 9.25 25.45 Q8.8 25.9 8.8 26.7 L9.0 27.55 9.2 27.3 9.4 27.5 9.35 27.75 9.15 27.8 8.15 27.55 Q7.75 27.55 7.75 27.2 L7.8 26.8 Q7.15 26.8 7.1 26.55 L7.05 25.9 6.6 25.1 6.6 25.0 6.55 24.8 6.55 24.75 M9.2 26.4 Q9.8 25.45 11.3 25.3 L11.9 25.25 12.2 25.3 12.3 26.05 12.3 26.2 11.9 26.15 11.6 26.15 9.65 26.35 9.25 26.5 9.2 26.4" fill="#fcf9e0" fill-rule="evenodd" stroke="none"/>
      <path d="M27.85 13.75 Q27.85 18.15 24.8 21.25 25.75 22.3 25.75 22.75 25.75 23.65 24.4 24.95 22.8 26.45 21.0 26.5 20.75 27.35 19.6 27.75 L18.1 28.25 18.3 28.25 Q16.7 28.4 14.95 26.85 13.35 25.45 12.2 25.3 L11.9 25.25 11.3 25.3 Q9.8 25.45 9.2 26.4 L9.2 26.5 9.25 26.5 9.65 26.35 11.6 26.15 11.9 26.15 12.3 26.2 Q13.7 26.45 15.35 27.6 17.4 29.0 18.45 29.0 19.9 29.0 20.95 27.9 L21.95 26.65 22.05 26.65 22.15 26.85 Q22.15 27.5 21.25 28.5 20.05 29.75 18.45 29.75 17.25 29.75 15.05 28.3 12.9 26.8 10.6 26.8 9.75 26.8 9.35 27.1 L9.2 27.3 9.0 27.55 8.8 26.7 Q8.8 25.9 9.25 25.45 L9.3 25.4 9.55 25.25 10.0 25.0 11.9 24.6 Q14.45 25.2 15.9 26.45 17.05 27.5 18.1 27.5 19.85 27.5 20.25 26.5 17.75 26.25 17.65 24.4 L17.25 24.4 Q12.85 24.4 9.7 21.25 6.6 18.15 6.6 13.75 6.6 9.35 9.7 6.2 12.85 3.1 17.25 3.1 21.65 3.1 24.75 6.2 27.85 9.35 27.85 13.75" fill="#733c2f" fill-rule="evenodd" stroke="none"/>
      <path d="M20.4 10.55 Q20.4 10.3 20.65 10.15 L21.25 10.05 21.9 10.25 22.1 10.8 21.9 11.3 21.3 11.45 20.7 11.0 20.45 10.65 20.4 10.55 M17.3 8.25 L16.95 7.2 Q16.95 6.15 18.65 6.75 20.35 7.4 20.35 8.55 20.35 9.3 19.0 9.3 17.9 9.3 17.3 8.25" fill="#fcf9e0" fill-rule="evenodd" stroke="none"/>
    </g>
  </defs>
</svg>
