<svg xmlns="http://www.w3.org/2000/svg" xmlns:svg="http://www.w3.org/2000/svg" id="svg13" width="34" height="34" version="1.1" viewBox="0 0 34 34" xml:space="preserve"><g id="use302-0" transform="translate(1,1)" style="fill:maroon"><g id="use586-6"><g id="use608-8" transform="translate(-1,-1)"><path id="path612-7" fill="#cc0" fill-rule="evenodd" stroke="none" d="M 0,32 V 0 H 32 V 32 H 0" transform="translate(1,1)"/><path id="path614-5" fill="none" stroke="#733c2f" stroke-linecap="round" stroke-linejoin="round" stroke-width="2" d="M 0,32 V 0 h 32 v 32 z" transform="translate(1,1)"/></g></g></g><g id="g1733" transform="translate(-99.541723,-37.473471)"><path id="path970" fill="#733c2f" fill-rule="evenodd" stroke="none" d="m 117.22153,60.00552 -0.74249,-0.890906 q -0.61302,-0.294469 -1.20669,-0.09434 -0.63038,0.166181 -0.92485,0.779197 l -2.13747,4.152559 -3.24902,1.96694 -0.42749,0.830512 0.29013,1.085507 q 0.34144,0.588148 0.84432,0.780776 0.50289,0.192629 0.95249,-0.07263 l 2.28193,-1.363003 0.74052,-0.06434 q 0.59643,-0.129471 0.85695,-0.705777 l 2.62733,-5.197805 q 0.29446,-0.613015 0.0943,-1.206689"/><path style="fill:#733c2f;fill-opacity:1;stroke-width:1.6;stroke-linecap:round" id="path1246" d="m 112.74548,50.942969 c -1.66228,-2.052257 4.19325,-5.065751 4.51146,-3.117008 0.31821,1.948742 2.75601,7.370445 2.13269,9.761157 -0.62332,2.390713 -3.4013,4.511035 -4.67551,2.37877 -1.27422,-2.132265 -0.30636,-6.970662 -1.96864,-9.022919 z"/><g id="g980" transform="matrix(-0.04134505,0.54050854,-0.54050854,-0.04134505,117.93541,54.914422)"><g id="g978"><path id="path976" fill="#733c2f" fill-rule="evenodd" stroke="none" d="M 0,2.75 Q 0,1.6 0.8,0.8 1.65,0 2.8,0 3.95,0 4.75,0.8 5.55,1.6 5.55,2.75 V 13.3 q 0,1.15 -0.8,1.95 -0.8,0.8 -1.95,0.8 -1.15,0 -2,-0.8 Q 0,14.45 0,13.3 V 2.75"/></g></g><g id="g992" transform="matrix(0.50031243,0.15898741,0.15898741,-0.50031243,115.65359,49.371627)"><g id="g990"><path id="path988" fill="#733c2f" fill-rule="evenodd" stroke="none" d="M 0,2.75 Q 0,1.6 0.8,0.8 1.65,0 2.8,0 3.95,0 4.75,0.8 5.55,1.6 5.55,2.75 V 13.3 q 0,1.15 -0.8,1.95 -0.8,0.8 -1.95,0.8 -1.15,0 -2,-0.8 Q 0,14.45 0,13.3 V 2.75"/></g></g><g id="g998" transform="matrix(-0.29246516,0.43586311,0.43586311,0.29246516,80.950677,47.415685)"><g id="g996"><path id="path994" fill="#733c2f" fill-rule="evenodd" stroke="none" d="m -29.515514,54.246296 q -1.134469,0.188365 -1.792627,1.108597 -0.649969,0.969557 -0.461604,2.104025 0.188365,1.134468 1.108597,1.792627 0.920232,0.658159 2.054701,0.469794 l 10.407514,-1.728046 q 1.134468,-0.188365 1.792627,-1.108597 0.658159,-0.920232 0.469794,-2.054701 -0.188365,-1.134468 -1.116787,-1.841952 -0.920232,-0.658158 -2.054701,-0.469793 l -10.407514,1.728046"/></g></g><g id="g1004" transform="matrix(-0.43817659,0.33688612,-0.33688612,-0.43817659,123.5329,62.022301)"><g id="g1002"><path id="path1000" fill="#733c2f" fill-rule="evenodd" stroke="none" d="M 0,2.75 Q 0,1.6 0.8,0.8 1.65,0 2.8,0 3.95,0 4.75,0.8 5.55,1.6 5.55,2.75 V 13.3 q 0,1.15 -0.8,1.95 -0.8,0.8 -1.95,0.8 -1.15,0 -2,-0.8 Q 0,14.45 0,13.3 V 2.75"/></g></g><path id="path1006" fill="#733c2f" fill-rule="evenodd" stroke="none" d="m 114.88535,50.106721 q -1.15,1.15 -2.75,1.15 -1.65,0 -2.8,-1.15 -1.1,-1.1 -1.1,-2.7 0,-1.65 1.1,-2.8 1.15,-1.15 2.8,-1.15 1.6,0 2.75,1.15 1.15,1.15 1.15,2.8 0,1.6 -1.15,2.7"/><path id="path1012" fill="#733c2f" fill-rule="evenodd" stroke="none" d="m 120.47389,43.594598 q -0.65,0.65 -1.55,0.65 -0.95,0 -1.6,-0.65 -0.65,-0.65 -0.65,-1.55 0,-0.95 0.65,-1.6 0.65,-0.65 1.6,-0.65 0.9,0 1.55,0.65 0.65,0.65 0.65,1.6 0,0.9 -0.65,1.55"/><g id="g1020" transform="matrix(-0.5512,0.0405,-0.0405,-0.5512,123.32558,69.142668)"><g id="g1018"><path id="path1016" fill="#733c2f" fill-rule="evenodd" stroke="none" d="M 0,2.75 Q 0,1.6 0.8,0.8 1.65,0 2.8,0 3.95,0 4.75,0.8 5.55,1.6 5.55,2.75 V 13.3 q 0,1.15 -0.8,1.95 -0.8,0.8 -1.95,0.8 -1.15,0 -2,-0.8 Q 0,14.45 0,13.3 V 2.75"/></g></g></g><path style="fill:#f5f5eb;fill-opacity:1;fill-rule:evenodd;stroke:none" id="path6" d="m 21.657741,5.2514005 c 0.01563,1.011719 0,0.953125 0.316407,1.222656 1.195312,1.0039065 2.160156,2.5117195 2.667969,4.1640635 0.136718,0.437501 0.273437,1.117188 0.480468,2.390625 0.234375,1.429688 0.226563,3.417969 -0.01953,4.574219 -0.05859,0.269531 -0.113281,0.574219 -0.121094,0.675781 l -0.01953,0.179688 0.08594,-0.0625 c 0.05078,-0.03516 0.09766,-0.101562 0.109374,-0.144531 0.01172,-0.04687 0.06641,-0.175781 0.117188,-0.289063 0.148438,-0.316406 0.425781,-1.167968 0.574219,-1.773437 C 26.978049,11.700621 26.253377,5.7224061 22.708518,4.1771815 M 15.333505,7.278747 c -0.03906,0.01953 -0.117188,0.07031 -0.171875,0.109376 -0.05469,0.03906 -0.140625,0.08203 -0.1875,0.09766 -0.04687,0.01563 -0.113281,0.05078 -0.152344,0.08594 -0.03906,0.03125 -0.152344,0.101563 -0.253906,0.152344 -0.105456,0.05078 -0.22655,0.113281 -0.273425,0.140625 -0.05078,0.02734 -0.191405,0.04687 -0.359374,0.04687 -0.316406,0 -0.445312,0.07422 -0.351562,0.195313 0.285156,0.375 0.710936,0.488281 0.98828,0.265624 0.08203,-0.06641 0.179687,-0.136718 0.222656,-0.160156 0.03906,-0.01953 0.08984,-0.07422 0.109375,-0.125 0.02344,-0.04687 0.08203,-0.140625 0.132813,-0.207031 0.05078,-0.06641 0.113281,-0.164063 0.132812,-0.214844 0.02344,-0.05078 0.05469,-0.09375 0.07031,-0.09375 0.03125,0 0.191406,-0.300781 0.171875,-0.320312 -0.0078,-0.0078 -0.04297,0.0039 -0.07813,0.02734 m 6.234375,0.359376 c -0.03811,0.083018 -0.05359,0.1607762 -0.164061,0.49219 -0.08984,0.507813 -0.05469,0.632813 0.199219,0.769531 0.429687,0.222656 1.207031,1.0937498 1.503906,1.679688 0.269531,0.535157 0.34375,0.695313 0.464844,1.003907 0.07422,0.195312 0.148437,0.402344 0.160156,0.460938 0.299738,0.723612 0.08206,-0.419075 0.03126,-0.699217 -0.04297,-0.140625 -0.121093,-0.40625 -0.171875,-0.59375 -0.05469,-0.187501 -0.160156,-0.464845 -0.242187,-0.621095 C 23.267114,9.9779678 23.15383,9.7318748 23.095236,9.5873428 22.958518,9.243593 22.876486,9.079531 22.767112,8.931093 22.716332,8.864683 22.599143,8.696718 22.505393,8.552187 22.157736,8.017031 22.075705,7.907656 21.923362,7.767031 21.657736,7.520937 21.65383,7.520937 21.567893,7.638125"/></svg>