<?xml version="1.0" encoding="UTF-8" standalone="no"?>
<svg xmlns:xlink="http://www.w3.org/1999/xlink" height="34" width="34" xmlns="http://www.w3.org/2000/svg">
  <g transform="matrix(1.0, 0.0, 0.0, 1.0, 1, 1)">
    <use height="34.0" transform="matrix(1.0, 0.0, 0.0, 1.0, -1.0, -1.0)" width="34.0" xlink:href="#sprite0"/>
  </g>
  <defs>
    <g id="sprite0" transform="matrix(1.0, 0.0, 0.0, 1.0, 1.0, 1.0)">
      <use height="34.0" transform="matrix(1.0, 0.0, 0.0, 1.0, -1.0, -1.0)" width="34.0" xlink:href="#sprite1"/>
      <use height="32.45" transform="matrix(1.0, 0.0, 0.0, 1.0, 0.55, -0.05)" width="31.75" xlink:href="#shape1"/>
    </g>
    <g id="sprite1" transform="matrix(1.0, 0.0, 0.0, 1.0, 1.0, 1.0)">
      <use height="34.0" transform="matrix(1.0, 0.0, 0.0, 1.0, -1.0, -1.0)" width="34.0" xlink:href="#shape0"/>
    </g>
    <g id="shape0" transform="matrix(1.0, 0.0, 0.0, 1.0, 1.0, 1.0)">
      <path d="M0.0 32.0 L0.0 0.0 32.0 0.0 32.0 32.0 0.0 32.0" fill="#cccc00" fill-rule="evenodd" stroke="none"/>
      <path d="M0.0 32.0 L0.0 0.0 32.0 0.0 32.0 32.0 0.0 32.0 Z" fill="none" stroke="#733c2f" stroke-linecap="round" stroke-linejoin="round" stroke-width="2.0"/>
    </g>
    <g id="shape1" transform="matrix(1.0, 0.0, 0.0, 1.0, -0.55, 0.05)">
      <path d="M12.9 29.25 Q6.35 27.9 2.45 29.3 7.25 31.1 12.9 29.25 M14.45 29.45 L13.55 32.3 1.75 32.3 0.55 29.0 Q6.95 25.95 14.0 28.6 L14.45 29.45" fill="#733c2f" fill-rule="evenodd" stroke="none"/>
      <path d="M25.35 15.75 L26.5 17.5 Q27.0 18.3 27.8 18.55 L30.75 18.55 Q31.3 18.75 31.7 19.15 L32.3 19.9 32.3 32.4 18.65 32.4 18.5 30.8 15.0 28.85 14.85 28.55 14.6 27.8 14.5 27.55 Q14.35 27.0 14.6 26.5 L15.6 25.25 12.5 22.4 11.45 22.75 10.45 22.4 10.4 22.25 10.1 21.85 10.0 21.6 9.9 21.1 9.85 20.9 9.9 20.0 9.95 19.9 Q10.55 18.95 11.7 19.15 12.45 19.35 12.7 19.7 L12.95 20.15 13.0 21.6 13.2 21.8 13.55 22.1 Q14.95 23.55 16.6 24.2 L17.55 23.55 17.55 23.1 Q17.5 22.75 17.75 22.4 L18.35 21.8 Q19.2 21.0 20.35 21.1 L21.45 20.35 Q21.45 19.75 21.75 19.1 L22.1 18.4 22.85 16.85 23.9 15.9 24.0 14.35 25.35 15.75" fill="#733c2f" fill-rule="evenodd" stroke="none"/>
      <path d="M3.3 19.3 L3.35 19.15 3.55 19.1 3.3 19.3 M7.35 20.0 L7.5 20.4 7.15 21.0 7.35 20.1 7.35 20.0" fill="#cccc00" fill-rule="evenodd" stroke="none"/>
      <path d="M2.9 19.0 L3.15 18.8 4.1 18.5 5.85 18.45 Q6.9 18.6 6.95 19.7 L6.95 19.8 6.75 20.7 6.2 21.5 6.2 21.7 6.15 22.6 6.15 22.65 5.9 22.85 5.55 23.1 5.35 23.15 Q4.9 23.45 4.65 22.95 L4.25 22.8 Q3.75 22.8 3.7 22.15 2.75 22.05 2.45 21.15 2.2 20.4 2.4 19.5 L2.9 19.0 M3.15 21.35 Q3.95 22.35 4.8 21.25 L4.8 20.55 3.15 20.5 3.15 21.35 M4.4 22.1 L4.5 22.3 4.7 22.4 4.9 22.3 5.0 22.1 4.9 21.9 4.7 21.8 4.5 21.9 4.4 22.1 M5.2 21.25 L5.4 21.55 Q5.95 21.85 6.15 21.15 6.3 20.65 5.85 20.5 4.95 20.35 5.2 21.25 M5.45 22.15 Q5.75 22.25 5.5 21.9 4.8 21.95 5.45 22.15" fill="#733c2f" fill-rule="evenodd" stroke="none"/>
      <path d="M7.45 25.35 Q7.35 24.85 7.5 24.3 L7.8 24.05 8.0 23.95 8.6 23.8 9.65 23.9 Q10.3 24.1 10.3 24.75 L10.25 24.8 10.05 25.3 9.65 25.8 9.65 25.9 9.6 26.45 9.6 26.5 9.45 26.55 9.25 26.7 9.1 26.75 Q8.8 26.9 8.7 26.6 L8.45 26.45 Q8.15 26.45 8.15 26.05 7.55 25.95 7.45 25.35 M7.85 25.5 L8.85 25.55 8.9 25.1 7.9 25.0 7.85 25.5 M8.6 26.05 L8.65 26.2 8.7 26.25 8.9 26.2 8.95 26.05 8.9 25.95 8.75 25.9 8.65 25.95 8.6 26.05 M9.1 25.6 L9.2 25.75 Q9.5 25.95 9.7 25.6 9.8 25.3 9.55 25.15 9.0 25.0 9.1 25.6 M9.2 26.15 L9.25 26.0 Q8.8 25.95 9.2 26.15" fill="#733c2f" fill-rule="evenodd" stroke="none"/>
      <path d="M2.25 12.6 Q1.85 11.4 2.2 10.0 L2.95 9.2 3.35 8.9 4.85 8.4 7.65 8.35 Q9.3 8.55 9.35 10.3 L9.35 10.45 Q9.45 11.25 9.05 11.9 L8.2 13.15 8.2 13.45 Q8.35 14.25 8.1 14.9 L8.1 15.0 7.7 15.3 7.15 15.7 6.85 15.75 Q6.15 16.25 5.75 15.45 L5.1 15.2 Q4.3 15.2 4.25 14.2 2.75 14.05 2.25 12.6 M3.35 12.9 Q4.65 14.5 5.95 12.75 L5.95 11.65 3.35 11.6 3.35 12.9 M5.35 14.1 L5.5 14.4 5.8 14.6 6.15 14.4 6.3 14.1 6.15 13.8 5.8 13.65 Q5.65 13.65 5.5 13.8 L5.35 14.1 M6.6 12.75 L6.9 13.25 Q7.8 13.7 8.1 12.6 8.35 11.8 7.65 11.6 6.2 11.35 6.6 12.75 M7.0 14.2 Q7.45 14.35 7.1 13.8 5.95 13.85 7.0 14.2" fill="#733c2f" fill-rule="evenodd" stroke="none"/>
      <path d="M24.15 12.25 L24.5 12.45 24.75 12.65 24.95 12.85 25.05 13.0 25.2 13.2 25.25 13.4 25.3 13.6 25.4 13.75 25.45 13.95 25.45 14.15 25.45 14.7 25.45 15.25 25.45 16.0 25.4 17.15 25.3 17.35 25.15 17.7 24.95 18.05 24.65 18.45 24.15 19.0 23.95 19.2 23.25 19.6 Q22.55 20.05 21.7 20.15 20.25 20.4 19.0 19.75 L18.8 19.6 18.45 19.2 18.05 18.85 17.5 18.25 17.1 17.7 17.0 17.5 17.0 17.35 16.95 17.15 16.85 16.95 16.75 16.75 16.75 16.6 16.7 16.4 16.55 16.2 16.5 16.0 16.45 15.65 16.45 15.25 16.45 14.9 16.4 14.5 16.5 13.95 16.5 13.75 16.6 13.6 16.7 13.4 16.8 13.2 16.9 13.05 17.0 12.85 17.3 12.45 17.7 12.1 18.0 11.9 18.4 11.7 18.65 11.6 18.75 11.5 19.05 11.45 19.55 11.35 20.05 11.2 20.45 11.2 20.45 11.15 21.7 11.15 22.9 11.5 23.95 12.1 24.15 12.25" fill="#733c2f" fill-rule="evenodd" stroke="none"/>
      <path d="M23.45 17.3 Q21.15 18.9 20.4 17.3 L23.45 17.3" fill="#fcf9e0" fill-rule="evenodd" stroke="none"/>
      <path d="M17.25 17.4 Q18.9 19.0 19.45 17.4 L17.25 17.4" fill="#fcf9e0" fill-rule="evenodd" stroke="none"/>
      <path d="M17.1 16.9 L16.95 16.85 16.65 16.7 16.6 16.65 16.6 16.6 16.55 16.55 16.5 16.5 16.5 16.4 16.45 16.35 16.45 16.25 16.4 16.25 16.4 16.05 16.4 15.95 16.4 15.85 16.45 15.8 16.45 15.75 16.5 15.7 16.5 15.65 16.55 15.6 16.65 15.55 16.75 15.5 16.8 15.5 16.9 15.45 16.95 15.4 16.95 15.35 16.9 15.3 16.9 15.2 16.85 15.1 16.85 15.0 16.8 14.95 16.6 14.7 16.35 14.4 17.8 14.1 Q19.85 13.1 20.2 11.9 L23.3 11.6 23.35 11.65 23.35 11.7 23.4 11.75 23.4 11.85 23.45 11.9 23.45 11.95 23.5 12.0 23.55 12.0 23.6 12.1 23.75 12.25 23.75 12.35 23.8 12.3 23.9 12.3 24.0 12.3 24.0 12.25 24.25 12.3 24.45 12.3 24.65 12.35 24.7 12.4 24.75 12.45 24.8 12.5 24.8 12.55 24.85 12.6 24.85 12.65 24.85 12.75 24.9 12.8 24.9 12.9 24.85 12.95 24.85 13.05 24.8 13.05 24.8 13.1 24.7 13.2 24.5 13.3 24.3 13.35 24.3 13.25 23.7 14.15 22.0 15.35 19.6 16.45 17.45 16.85 17.6 16.75 17.45 16.8 17.4 16.85 17.25 16.9 17.1 16.9 M16.45 1.25 Q19.35 -0.3 20.8 2.4 L21.25 3.95 Q22.85 3.4 23.9 4.4 25.95 6.35 24.45 9.15 L23.4 10.55 23.1 10.8 Q21.85 11.8 19.95 11.85 19.6 13.15 18.15 13.5 16.45 13.8 15.45 12.8 15.0 12.35 14.7 11.65 L14.55 11.7 Q11.85 12.3 11.2 9.6 10.15 5.2 14.35 3.95 14.85 2.1 16.45 1.25" fill="#fcf9e0" fill-rule="evenodd" stroke="none"/>
      <path d="M17.1 16.9 L17.05 16.9 16.5 16.95 15.95 16.75 15.8 16.6 15.8 16.55 15.75 16.5 15.75 16.4 15.7 16.35 15.7 16.25 15.65 16.25 15.65 16.05 15.65 15.95 15.65 15.9 15.7 15.85 15.7 15.75 15.75 15.7 15.75 15.6 15.8 15.55 15.8 15.5 15.85 15.5 15.85 15.35 15.65 15.15 15.6 15.1 15.55 15.05 15.55 15.0 15.5 14.95 15.5 14.9 15.45 14.85 15.4 14.8 15.35 14.75 15.3 14.75 15.3 14.65 15.25 14.6 15.25 14.5 15.2 14.45 15.15 14.4 15.15 14.25 15.1 14.2 15.05 14.15 15.05 14.1 15.0 14.05 15.0 13.95 14.95 13.9 14.95 13.85 14.1 12.95 Q11.45 13.15 10.25 10.65 9.5 9.15 9.95 7.35 10.65 4.45 13.45 3.3 L14.5 1.8 Q16.05 -0.15 18.45 -0.05 21.35 0.15 22.05 2.8 L24.0 3.4 Q26.3 4.5 25.95 7.05 L25.5 8.95 Q25.05 10.35 24.15 11.1 L24.2 11.15 24.25 11.2 24.3 11.25 24.35 11.4 24.4 11.45 24.4 11.55 24.45 11.6 24.5 11.65 24.5 11.7 24.55 11.75 24.65 11.85 24.75 11.95 24.75 12.0 24.8 11.95 24.9 11.95 25.1 11.95 25.2 11.95 25.3 12.0 25.45 12.15 25.45 12.2 25.5 12.25 25.5 12.45 25.55 12.5 25.55 12.65 25.5 12.7 25.5 12.8 25.45 12.85 25.45 12.9 25.4 12.95 25.3 13.0 25.25 13.0 25.2 13.05 25.2 13.1 25.15 13.15 25.05 13.25 24.95 13.25 24.9 13.3 24.85 13.3 24.7 13.35 24.6 13.3 24.5 13.3 24.7 13.2 24.8 13.1 24.8 13.05 24.85 13.05 24.85 12.95 24.9 12.9 24.9 12.8 24.85 12.75 24.85 12.65 24.85 12.6 24.8 12.55 24.8 12.5 24.75 12.45 24.7 12.4 24.65 12.35 24.45 12.3 24.25 12.3 24.0 12.25 24.0 12.3 23.9 12.3 23.8 12.3 23.75 12.35 23.75 12.25 23.6 12.1 23.55 12.0 23.5 12.0 23.45 11.95 23.45 11.9 23.4 11.85 23.4 11.75 23.35 11.7 23.35 11.65 23.3 11.6 20.2 11.9 Q19.85 13.1 17.8 14.1 L16.35 14.4 16.6 14.7 16.8 14.95 16.85 15.0 16.85 15.1 16.9 15.2 16.9 15.3 16.95 15.35 16.95 15.4 16.9 15.45 16.8 15.5 16.75 15.5 16.65 15.55 16.55 15.6 16.5 15.65 16.5 15.7 16.45 15.75 16.45 15.8 16.4 15.85 16.4 15.95 16.4 16.05 16.4 16.25 16.45 16.25 16.45 16.35 16.5 16.4 16.5 16.5 16.55 16.55 16.6 16.6 16.6 16.65 16.65 16.7 16.95 16.85 17.1 16.9 M16.45 1.25 Q14.85 2.1 14.35 3.95 10.15 5.2 11.2 9.6 11.85 12.3 14.55 11.7 L14.7 11.65 Q15.0 12.35 15.45 12.8 16.45 13.8 18.15 13.5 19.6 13.15 19.95 11.85 21.85 11.8 23.1 10.8 L23.4 10.55 24.45 9.15 Q25.95 6.35 23.9 4.4 22.85 3.4 21.25 3.95 L20.8 2.4 Q19.35 -0.3 16.45 1.25" fill="#733c2f" fill-rule="evenodd" stroke="none"/>
    </g>
  </defs>
</svg>
