<?xml version="1.0" encoding="UTF-8" standalone="no"?>
<svg xmlns:xlink="http://www.w3.org/1999/xlink" height="34" width="34" xmlns="http://www.w3.org/2000/svg">
  <g transform="matrix(1.0, 0.0, 0.0, 1.0, 1, 1)">
    <use height="37.75" transform="matrix(1.0, 0.0, 0.0, 1.0, -4.6, -4.35)" width="37.6" xlink:href="#sprite0"/>
  </g>
  <defs>
    <g id="sprite0" transform="matrix(1.0, 0.0, 0.0, 1.0, 4.6, 4.35)">
      <use height="34.0" transform="matrix(1.0, 0.0, 0.0, 1.0, -1.0, -1.0)" width="34.0" xlink:href="#sprite1"/>
      <clipPath id="clipPath0" transform="matrix(0.9375, 0.0, 0.0, 0.9375, 1.0, 1.0)">
        <path d="M0.0 32.0 L0.0 0.0 32.0 0.0 32.0 32.0 0.0 32.0" fill="#ff0000" fill-rule="evenodd" stroke="none"/>
      </clipPath>
      <g clip-path="url(#clipPath0)">
        <use height="37.75" transform="matrix(1.0, 0.0, 0.0, 1.0, -4.6, -4.35)" width="37.15" xlink:href="#shape2"/>
      </g>
    </g>
    <g id="sprite1" transform="matrix(1.0, 0.0, 0.0, 1.0, 1.0, 1.0)">
      <use height="34.0" transform="matrix(1.0, 0.0, 0.0, 1.0, -1.0, -1.0)" width="34.0" xlink:href="#shape0"/>
    </g>
    <g id="shape0" transform="matrix(1.0, 0.0, 0.0, 1.0, 1.0, 1.0)">
      <path d="M0.0 32.0 L0.0 0.0 32.0 0.0 32.0 32.0 0.0 32.0" fill="#cccc00" fill-rule="evenodd" stroke="none"/>
      <path d="M0.0 32.0 L0.0 0.0 32.0 0.0 32.0 32.0 0.0 32.0 Z" fill="none" stroke="#733c2f" stroke-linecap="round" stroke-linejoin="round" stroke-width="2.0"/>
    </g>
    <g id="shape2" transform="matrix(1.0, 0.0, 0.0, 1.0, 4.6, 4.35)">
      <path d="M16.3 12.25 Q20.9 15.85 22.1 21.05 23.25 26.15 20.25 29.75 17.25 33.4 11.85 33.4 6.5 33.4 1.9 29.75 -2.7 26.15 -3.9 21.0 -5.05 15.85 -2.05 12.25 0.95 8.6 6.3 8.6 11.7 8.6 16.3 12.25" fill="#733c2f" fill-rule="evenodd" stroke="none"/>
      <path d="M13.35 24.1 L14.65 29.85 Q17.55 29.25 19.35 27.05 L19.55 26.9 18.65 23.2 16.5 13.15 16.2 12.95 Q13.35 10.75 10.15 10.2 L11.5 16.0 13.35 24.1 M19.8 26.55 Q21.65 23.8 20.85 20.05 20.0 16.3 16.85 13.5 L19.8 26.55 M20.9 28.3 Q18.1 31.75 13.0 31.75 10.55 31.75 8.3 30.95 L8.3 31.0 8.1 30.9 Q5.8 30.05 3.6 28.3 -0.75 24.9 -1.8 20.05 -2.9 15.25 -0.1 11.8 2.7 8.35 7.75 8.35 12.85 8.35 17.2 11.8 21.55 15.25 22.65 20.05 23.7 24.9 20.9 28.3 M11.15 15.85 L9.85 10.15 8.1 10.0 Q5.85 10.0 4.1 10.85 L4.15 11.1 4.4 12.7 5.6 18.35 6.3 21.65 7.9 29.1 Q10.15 30.05 12.6 30.05 L14.25 29.95 13.05 24.25 11.15 15.85 M3.3 11.25 Q2.2 11.95 1.4 12.95 -1.05 15.9 -0.1 20.0 0.8 24.15 4.55 27.05 6.1 28.25 7.7 29.0 L3.8 12.75 3.3 11.25" fill="#fcf9e0" fill-rule="evenodd" stroke="none"/>
      <path d="M11.5 16.0 L10.15 10.2 Q13.35 10.75 16.2 12.95 L16.5 13.15 18.65 23.2 19.55 26.9 19.35 27.05 Q17.55 29.25 14.65 29.85 L13.35 24.1 14.4 23.2 Q15.45 21.85 15.05 20.05 14.6 18.15 12.95 16.85 L11.5 16.0 M19.8 26.55 L16.85 13.5 Q20.0 16.3 20.85 20.05 21.65 23.8 19.8 26.55 M20.9 28.3 Q23.7 24.9 22.65 20.05 21.55 15.25 17.2 11.8 12.85 8.35 7.75 8.35 2.7 8.35 -0.1 11.8 -2.9 15.25 -1.8 20.05 -0.75 24.9 3.6 28.3 5.8 30.05 8.1 30.9 L8.3 31.0 8.3 30.95 Q10.55 31.75 13.0 31.75 18.1 31.75 20.9 28.3 M21.6 28.8 Q18.6 32.45 13.2 32.45 7.85 32.45 3.25 28.8 -1.35 25.15 -2.5 20.0 -3.65 14.9 -0.7 11.25 2.3 7.65 7.65 7.65 13.05 7.65 17.65 11.25 22.3 14.9 23.45 20.05 24.6 25.15 21.6 28.8 M5.6 18.35 L4.4 12.7 4.15 11.1 4.1 10.85 Q5.85 10.0 8.1 10.0 L9.85 10.15 11.15 15.85 Q10.25 15.5 9.3 15.5 7.35 15.5 6.3 16.85 5.75 17.5 5.6 18.35 M13.05 24.25 L14.25 29.95 12.6 30.05 Q10.15 30.05 7.9 29.1 L6.3 21.65 Q6.85 22.5 7.75 23.2 9.4 24.55 11.35 24.55 L13.05 24.25 M3.3 11.25 L3.8 12.75 7.7 29.0 Q6.1 28.25 4.55 27.05 0.8 24.15 -0.1 20.0 -1.05 15.9 1.4 12.95 2.2 11.95 3.3 11.25" fill="#733c2f" fill-rule="evenodd" stroke="none"/>
      <path d="M5.6 19.95 Q5.2 18.1 6.3 16.8 7.35 15.5 9.3 15.5 11.25 15.5 12.95 16.8 14.6 18.1 15.0 20.0 15.4 21.85 14.35 23.15 13.25 24.5 11.3 24.5 9.35 24.5 7.7 23.15 6.0 21.85 5.6 19.95 M10.8 23.5 Q13.1 23.5 13.95 20.9 L9.9 19.55 10.8 23.5" fill="#fcf9e0" fill-rule="evenodd" stroke="none"/>
      <path d="M10.8 23.5 L9.9 19.55 13.95 20.9 Q13.1 23.5 10.8 23.5" fill="#733c2f" fill-rule="evenodd" stroke="none"/>
      <path d="M7.35 12.9 Q7.2 12.2 7.6 11.75 7.95 11.25 8.65 11.25 9.35 11.25 10.0 11.75 10.6 12.2 10.75 12.9 10.9 13.55 10.5 14.05 10.1 14.55 9.4 14.55 8.7 14.55 8.1 14.05 7.5 13.55 7.35 12.9 M9.25 14.15 Q10.05 14.15 10.35 13.2 L8.9 12.75 9.25 14.15" fill="#fcf9e0" fill-rule="evenodd" stroke="none"/>
      <path d="M9.25 14.15 L8.9 12.75 10.35 13.2 Q10.05 14.15 9.25 14.15" fill="#733c2f" fill-rule="evenodd" stroke="none"/>
      <path d="M15.35 17.85 Q15.2 17.15 15.6 16.7 15.95 16.2 16.65 16.2 17.35 16.2 18.0 16.7 18.6 17.15 18.75 17.85 18.9 18.5 18.5 19.0 18.1 19.5 17.4 19.5 16.7 19.5 16.1 19.0 15.5 18.5 15.35 17.85 M17.25 19.1 Q18.05 19.1 18.35 18.15 L16.9 17.7 17.25 19.1" fill="#fcf9e0" fill-rule="evenodd" stroke="none"/>
      <path d="M17.25 19.1 L16.9 17.7 18.35 18.15 Q18.05 19.1 17.25 19.1" fill="#733c2f" fill-rule="evenodd" stroke="none"/>
      <path d="M14.25 25.95 Q14.1 25.25 14.5 24.8 14.85 24.3 15.55 24.3 16.25 24.3 16.9 24.8 17.5 25.25 17.65 25.95 17.8 26.6 17.4 27.1 17.0 27.6 16.3 27.6 15.6 27.6 15.0 27.1 14.4 26.6 14.25 25.95 M16.15 27.2 Q16.95 27.2 17.25 26.25 L15.8 25.8 16.15 27.2" fill="#fcf9e0" fill-rule="evenodd" stroke="none"/>
      <path d="M16.15 27.2 L15.8 25.8 17.25 26.25 Q16.95 27.2 16.15 27.2" fill="#733c2f" fill-rule="evenodd" stroke="none"/>
      <path d="M5.15 25.55 Q5.0 24.85 5.4 24.4 5.75 23.9 6.45 23.9 7.15 23.9 7.8 24.4 8.4 24.85 8.55 25.55 8.7 26.2 8.3 26.7 7.9 27.2 7.2 27.2 6.5 27.2 5.9 26.7 5.3 26.2 5.15 25.55 M7.05 26.8 Q7.85 26.8 8.15 25.85 L6.7 25.4 7.05 26.8" fill="#fcf9e0" fill-rule="evenodd" stroke="none"/>
      <path d="M7.05 26.8 L6.7 25.4 8.15 25.85 Q7.85 26.8 7.05 26.8" fill="#733c2f" fill-rule="evenodd" stroke="none"/>
      <path d="M0.95 17.95 Q0.8 17.25 1.2 16.8 1.55 16.3 2.25 16.3 2.95 16.3 3.6 16.8 4.2 17.25 4.35 17.95 4.5 18.6 4.1 19.1 3.7 19.6 3.0 19.6 2.3 19.6 1.7 19.1 1.1 18.6 0.95 17.95 M2.85 19.2 Q3.65 19.2 3.95 18.25 L2.5 17.8 2.85 19.2" fill="#fcf9e0" fill-rule="evenodd" stroke="none"/>
      <path d="M2.85 19.2 L2.5 17.8 3.95 18.25 Q3.65 19.2 2.85 19.2" fill="#733c2f" fill-rule="evenodd" stroke="none"/>
      <path d="M8.5 17.05 L-4.6 16.3 6.15 11.7 0.5 0.05 12.75 6.35 22.4 -4.35 18.3 9.85 32.55 7.95 18.35 14.75 20.65 20.75 13.9 18.25 10.1 26.3 8.5 17.05" fill="#fcf9e0" fill-rule="evenodd" stroke="none"/>
      <path d="M26.2 14.85 L26.2 14.95 26.2 15.0 26.15 15.1 26.15 15.05 24.7 16.9 28.8 20.2 29.1 19.8 29.15 19.8 29.2 19.7 29.35 19.75 32.45 22.05 32.45 22.1 32.5 22.2 32.5 22.35 29.3 26.7 29.3 26.75 29.25 26.75 29.15 26.75 29.0 26.75 26.0 24.45 25.9 24.25 25.9 24.15 25.9 24.1 26.2 23.65 21.95 20.8 20.55 22.65 20.55 22.7 20.45 22.75 20.25 22.75 17.8 20.85 17.75 20.75 17.75 20.6 19.0 19.0 8.3 11.85 8.25 11.8 6.8 6.5 6.8 6.35 6.9 6.3 7.0 6.25 12.35 6.3 12.45 6.35 22.25 14.6 23.4 13.0 23.45 13.0 23.55 12.9 23.7 12.95 26.2 14.75 26.2 14.85 M15.7 12.7 L20.85 16.45 21.7 15.4 12.4 7.8 7.95 7.25 9.7 11.35 19.6 18.2 20.4 17.15 13.4 12.05 13.4 12.0 13.35 12.0 11.3 10.05 11.3 10.1 11.2 9.95 11.25 9.9 11.25 9.8 11.3 9.8 11.4 9.75 11.55 9.75 13.75 11.4 15.7 12.7 M28.2 21.1 L24.15 17.75 22.6 19.8 26.85 22.9 28.2 21.1" fill="#733c2f" fill-rule="evenodd" stroke="none"/>
      <path d="M13.75 11.4 L11.55 9.75 11.4 9.75 11.3 9.8 11.25 9.8 11.25 9.9 11.2 9.95 11.3 10.1 11.3 10.05 13.35 12.0 13.4 12.0 13.4 12.05 20.4 17.15 19.6 18.2 9.7 11.35 7.95 7.25 12.4 7.8 21.7 15.4 20.85 16.45 15.7 12.7 15.45 12.5 13.95 11.4 13.75 11.4" fill="#fcf9e0" fill-rule="evenodd" stroke="none"/>
      <path d="M28.2 21.1 L26.85 22.9 22.6 19.8 24.15 17.75 28.2 21.1" fill="#cccc00" fill-rule="evenodd" stroke="none"/>
    </g>
  </defs>
</svg>
