<svg xmlns="http://www.w3.org/2000/svg" xmlns:xlink="http://www.w3.org/1999/xlink" width="34" height="34"><g transform="matrix(1.0, 0.0, 0.0, 1.0, 1, 1)"><use width="34.65" height="34" transform="matrix(1.0, 0.0, 0.0, 1.0, -1.65, -1.0)" xlink:href="#sprite0"/></g><defs><g id="sprite0" transform="matrix(1.0, 0.0, 0.0, 1.0, 1.65, 1.0)"><use width="34" height="34" transform="matrix(1.0, 0.0, 0.0, 1.0, -1.0, -1.0)" xlink:href="#sprite1"/><clipPath id="clipPath0" transform="matrix(1.0, 0.0, 0.0, 1.0, 0.0, 0.0)"><path fill="red" fill-rule="evenodd" stroke="none" d="M0.0 32.0 L0.0 0.0 32.0 0.0 32.0 32.0 0.0 32.0"/></clipPath><g clip-path="url(#clipPath0)"><use width="31.75" height="29.35" transform="matrix(1.0, 0.0, 0.0, 1.0, -1.65, 2.05)" xlink:href="#shape2"/></g><use width="34" height="34" transform="matrix(1.0, 0.0, 0.0, 1.0, -1.0, -1.0)" xlink:href="#shape3"/></g><g id="sprite1" transform="matrix(1.0, 0.0, 0.0, 1.0, 1.0, 1.0)"><use width="34" height="34" transform="matrix(1.0, 0.0, 0.0, 1.0, -1.0, -1.0)" xlink:href="#shape0"/></g><g id="shape0"><path fill="#cc0" fill-rule="evenodd" stroke="none" d="M0.0 32.0 L0.0 0.0 32.0 0.0 32.0 32.0 0.0 32.0" transform="matrix(1.0, 0.0, 0.0, 1.0, 1.0, 1.0)"/><path fill="none" stroke="#733c2f" stroke-linecap="round" stroke-linejoin="round" stroke-width="2" d="M0.0 32.0 L0.0 0.0 32.0 0.0 32.0 32.0 0.0 32.0 Z" transform="matrix(1.0, 0.0, 0.0, 1.0, 1.0, 1.0)"/></g><g id="shape2"><path fill="#fcf9e0" fill-rule="evenodd" stroke="none" d="M3.0 11.75 Q3.4 11.65 3.4 12.15 3.4 12.55 3.0 12.55 2.5 12.55 2.55 12.15 2.55 11.85 3.0 11.75 M8.55 18.5 L8.6 18.85 Q8.6 19.35 8.15 19.35 L7.7 19.15 7.65 18.9 7.9 18.55 8.55 18.5 M3.3 16.05 Q6.2 16.05 7.05 21.15 L7.1 21.3 Q7.75 20.75 8.5 20.75 10.1 20.75 11.05 22.5 11.7 23.6 11.8 24.6 L12.6 24.35 Q14.05 24.35 14.5 27.0 L14.15 28.0 14.9 29.05 Q15.6 29.8 14.7 29.6 L13.5 29.25 13.2 29.05 12.65 29.7 Q12.2 30.25 10.95 30.2 L9.5 29.85 9.1 29.5 8.75 29.7 7.5 29.9 Q5.9 29.9 4.85 28.8 L4.25 29.55 Q3.05 30.5 0.25 30.5 -2.6 30.5 -1.15 26.1 L-1.55 22.3 -1.5 18.8 Q-1.15 15.7 0.4 15.7 1.55 15.7 2.55 16.3 L2.8 16.2 Q2.95 16.05 3.3 16.05 M5.35 21.4 L5.4 21.65 5.9 21.9 Q6.4 21.9 6.4 21.4 6.4 20.85 5.9 20.85 5.35 20.85 5.35 21.4 M13.65 23.0 Q13.15 23.0 13.05 22.7 L13.05 22.4 Q13.05 21.85 13.65 21.8 14.2 21.75 14.2 22.35 14.2 23.0 13.65 23.0 M5.2 25.65 L5.65 25.2 5.2 24.85 Q4.75 24.75 4.75 25.25 L4.75 25.45 Q4.85 25.65 5.2 25.65 M12.4 28.6 L12.45 28.9 12.8 28.95 13.15 28.9 13.2 28.6 13.15 28.35 12.45 28.35 12.4 28.6 M10.2 25.45 Q10.3 25.7 10.7 25.7 11.15 25.7 11.15 25.2 11.15 24.75 10.65 24.7 10.15 24.65 10.15 25.2 L10.2 25.45 M5.0 30.35 Q5.5 30.35 5.5 30.85 5.4 31.4 5.0 31.4 4.6 31.4 4.5 31.15 L4.45 30.85 Q4.45 30.35 5.0 30.35 M1.45 25.55 Q1.45 26.15 1.95 26.15 L2.15 26.05 2.2 25.9 Q1.95 25.55 1.45 25.55 M-0.2 20.1 L-0.35 20.0 -0.35 20.15 -0.2 20.1" transform="matrix(1.0, 0.0, 0.0, 1.0, 1.65, -2.05)"/><path fill="#733c2f" fill-rule="evenodd" stroke="none" d="M5.35 21.4 Q5.35 20.85 5.9 20.85 6.4 20.85 6.4 21.4 6.4 21.9 5.9 21.9 L5.4 21.65 5.35 21.4 M10.2 25.45 L10.15 25.2 Q10.15 24.65 10.65 24.7 11.15 24.75 11.15 25.2 11.15 25.7 10.7 25.7 10.3 25.7 10.2 25.45 M12.4 28.6 L12.45 28.35 13.15 28.35 13.2 28.6 13.15 28.9 12.8 28.95 12.45 28.9 12.4 28.6 M5.2 25.65 Q4.85 25.65 4.75 25.45 L4.75 25.25 Q4.75 24.75 5.2 24.85 L5.65 25.2 5.2 25.65 M1.45 25.55 Q1.95 25.55 2.2 25.9 L2.15 26.05 1.95 26.15 Q1.45 26.15 1.45 25.55" transform="matrix(1.0, 0.0, 0.0, 1.0, 1.65, -2.05)"/><path fill="#733c2f" fill-rule="evenodd" stroke="none" d="M26.95 5.1 L26.25 4.4 25.8 4.3 Q22.7 4.1 19.85 5.45 17.35 6.55 15.05 8.15 14.3 8.6 13.65 9.15 L14.7 8.6 Q18.45 6.55 21.3 6.55 L19.45 7.45 Q17.4 8.35 15.4 9.55 13.2 10.75 11.7 13.5 L14.45 14.1 18.35 13.7 Q20.6 13.2 22.95 11.9 L26.65 9.55 23.45 10.8 Q20.2 12.1 17.95 12.15 19.25 12.05 20.9 11.15 L24.45 8.45 Q26.4 6.65 26.95 5.1 M29.9 4.8 L29.7 5.6 28.85 7.2 30.1 7.65 30.0 8.1 29.45 9.4 Q28.95 10.4 27.75 10.7 L29.0 10.95 29.1 11.55 29.1 12.05 28.85 13.0 Q28.5 13.95 27.3 14.15 L28.3 14.5 28.1 14.95 27.5 16.0 26.35 17.25 26.95 17.9 27.3 18.45 25.75 19.95 26.15 20.55 25.8 21.4 Q25.35 22.3 24.5 22.85 L24.35 23.45 24.1 23.9 23.45 24.65 Q22.7 25.55 21.5 25.6 20.15 28.25 14.45 29.75 17.9 27.35 19.25 25.7 L18.3 25.2 18.5 24.7 18.55 24.2 18.5 23.85 18.25 23.5 17.7 21.95 17.3 21.55 16.2 19.8 14.95 19.05 14.45 19.1 13.55 18.85 Q12.35 18.7 11.75 17.45 L11.25 17.45 10.8 17.4 10.0 17.1 Q9.2 16.65 8.85 15.9 L9.05 14.9 Q7.65 14.6 6.8 13.4 7.4 11.35 9.0 10.05 12.3 7.5 16.35 6.3 L17.05 6.05 16.85 6.0 Q12.6 6.15 8.7 8.1 L10.5 6.9 Q15.0 4.0 20.2 2.5 26.05 0.95 29.9 4.8 M22.5 16.5 L25.45 15.2 22.25 17.45 Q24.4 16.8 26.0 14.95 24.1 15.15 22.65 16.3 L22.5 16.5 M24.15 14.2 L25.85 12.6 Q22.55 13.9 19.75 15.9 L18.55 16.8 18.8 16.85 20.7 16.25 20.15 16.85 24.65 14.05 24.15 14.2 M21.55 20.3 L23.2 18.45 21.35 19.25 22.3 19.0 21.55 20.3 M11.5 10.5 L10.5 11.45 Q9.25 12.6 9.45 14.25 10.55 15.2 12.25 15.15 14.2 15.5 15.8 14.55 L13.45 14.85 Q11.7 15.0 9.95 14.2 9.95 13.8 10.1 13.55 11.15 11.35 12.8 9.7 L11.5 10.5" transform="matrix(1.0, 0.0, 0.0, 1.0, 1.65, -2.05)"/><path fill="#fcf9e0" fill-rule="evenodd" stroke="none" d="M26.95 5.1 Q26.4 6.65 24.45 8.45 L20.9 11.15 Q19.25 12.05 17.95 12.15 20.2 12.1 23.45 10.8 L26.65 9.55 22.95 11.9 Q20.6 13.2 18.35 13.7 L14.45 14.1 11.7 13.5 Q13.2 10.75 15.4 9.55 17.4 8.35 19.45 7.45 L21.3 6.55 Q18.45 6.55 14.7 8.6 L13.65 9.15 Q14.3 8.6 15.05 8.15 17.35 6.55 19.85 5.45 22.7 4.1 25.8 4.3 L26.25 4.4 26.95 5.1 M21.55 20.3 L22.3 19.0 21.35 19.25 23.2 18.45 21.55 20.3 M24.15 14.2 L24.65 14.05 20.15 16.85 20.7 16.25 18.8 16.85 18.55 16.8 19.75 15.9 Q22.55 13.9 25.85 12.6 L24.15 14.2 M22.5 16.5 L22.65 16.3 Q24.1 15.15 26.0 14.95 24.4 16.8 22.25 17.45 L25.45 15.2 22.5 16.5 M11.5 10.5 L12.8 9.7 Q11.15 11.35 10.1 13.55 9.95 13.8 9.95 14.2 11.7 15.0 13.45 14.85 L15.8 14.55 Q14.2 15.5 12.25 15.15 10.55 15.2 9.45 14.25 9.25 12.6 10.5 11.45 L11.5 10.5" transform="matrix(1.0, 0.0, 0.0, 1.0, 1.65, -2.05)"/></g><g id="shape3"><path fill="none" stroke="#733c2f" stroke-linecap="round" stroke-linejoin="round" stroke-width="2" d="M0.0 32.0 L0.0 0.0 32.0 0.0 32.0 32.0 0.0 32.0 Z" transform="matrix(1.0, 0.0, 0.0, 1.0, 1.0, 1.0)"/></g></defs></svg>