<svg xmlns="http://www.w3.org/2000/svg" xmlns:xlink="http://www.w3.org/1999/xlink" width="34" height="34"><g transform="matrix(1.0, 0.0, 0.0, 1.0, 1, 1)"><use width="34" height="34" transform="matrix(1.0, 0.0, 0.0, 1.0, -1.0, -1.0)" xlink:href="#sprite0"/></g><defs><g id="sprite0" transform="matrix(1.0, 0.0, 0.0, 1.0, 1.0, 1.0)"><use width="34" height="34" transform="matrix(1.0, 0.0, 0.0, 1.0, -1.0, -1.0)" xlink:href="#sprite1"/><use width="32" height="32" transform="matrix(1.0, 0.0, 0.0, 1.0, 0.0, 0.0)" xlink:href="#shape1"/></g><g id="sprite1" transform="matrix(1.0, 0.0, 0.0, 1.0, 1.0, 1.0)"><use width="34" height="34" transform="matrix(1.0, 0.0, 0.0, 1.0, -1.0, -1.0)" xlink:href="#shape0"/></g><g id="shape0"><path fill="#cc0" fill-rule="evenodd" stroke="none" d="M0.0 32.0 L0.0 0.0 32.0 0.0 32.0 32.0 0.0 32.0" transform="matrix(1.0, 0.0, 0.0, 1.0, 1.0, 1.0)"/><path fill="none" stroke="#733c2f" stroke-linecap="round" stroke-linejoin="round" stroke-width="2" d="M0.0 32.0 L0.0 0.0 32.0 0.0 32.0 32.0 0.0 32.0 Z" transform="matrix(1.0, 0.0, 0.0, 1.0, 1.0, 1.0)"/></g><g id="shape1"><path fill="#733c2f" fill-rule="evenodd" stroke="none" d="M24.45 12.0 L24.35 12.05 24.35 12.2 24.4 12.5 24.6 12.5 24.8 12.3 24.65 12.0 24.45 12.0 M20.75 3.85 L21.0 0.95 Q21.15 0.35 20.1 0.35 L18.9 0.4 17.95 0.45 16.0 0.55 15.35 1.25 15.5 1.6 15.15 2.8 Q14.75 3.75 14.35 3.75 L13.9 3.5 13.8 3.2 14.1 2.5 14.4 1.9 13.85 0.45 13.75 0.4 11.1 0.35 10.95 0.6 Q10.25 1.95 8.75 1.95 7.55 1.95 6.9 1.25 L6.4 0.4 4.55 0.2 3.75 0.3 3.65 0.55 4.3 1.3 Q4.9 1.8 4.9 2.3 4.9 3.05 4.5 4.0 L3.65 5.65 3.65 5.85 3.4 6.15 3.5 6.35 3.6 6.6 4.55 6.65 Q5.9 6.65 5.9 6.15 L5.75 5.85 5.75 5.45 Q5.55 4.85 6.4 4.0 7.25 3.2 7.95 3.2 L8.9 4.5 Q9.8 5.75 11.05 5.75 11.75 5.75 13.0 4.85 14.3 3.95 14.65 3.95 L15.6 4.95 16.15 5.7 16.05 6.1 16.25 6.55 16.7 7.2 16.85 7.7 Q17.1 8.2 17.6 8.2 18.4 8.2 19.1 7.0 L19.55 6.0 20.75 3.85 M24.45 20.95 L24.65 20.35 Q24.85 19.65 23.55 19.65 L21.6 19.95 Q20.6 20.3 20.6 20.9 L20.2 22.35 19.8 22.95 20.1 23.4 22.75 23.5 23.7 23.75 Q24.4 23.75 24.85 23.1 L25.15 22.25 Q25.15 21.7 24.25 21.65 L24.25 21.5 24.45 20.95 M21.2 16.95 Q21.2 16.3 20.5 16.3 19.8 16.3 19.8 16.95 L19.85 17.2 Q20.0 17.6 20.45 17.6 L20.85 17.45 21.2 16.95 M26.55 17.35 Q26.55 17.65 26.85 17.75 L27.3 17.3 26.85 17.0 26.65 17.1 26.55 17.35 M15.4 14.5 L15.6 13.8 15.8 13.2 Q15.8 12.05 13.65 12.15 11.5 12.3 11.5 14.1 L11.9 14.7 Q11.75 14.95 11.9 15.5 12.1 16.1 12.65 16.1 14.0 16.1 14.8 15.5 15.4 15.0 15.4 14.5 M16.65 9.9 Q15.85 10.75 15.85 11.45 L15.85 11.75 16.3 12.05 Q16.8 12.05 17.15 11.25 L17.45 10.25 Q17.45 9.05 16.65 9.9 M15.8 5.75 L15.6 5.35 13.85 5.6 Q12.55 5.55 12.25 5.95 12.1 6.15 12.1 7.0 L12.1 8.05 12.15 8.35 9.45 8.45 8.15 8.6 7.1 8.7 Q6.65 8.7 6.45 8.0 6.25 7.3 5.1 7.3 L3.5 7.55 Q3.35 7.65 3.35 7.95 3.35 8.45 3.9 9.8 L3.95 10.75 Q4.3 11.6 5.8 11.6 L8.0 11.3 10.0 11.1 12.35 11.2 15.2 10.95 Q16.5 10.35 16.5 8.9 16.5 8.1 16.05 7.5 L15.6 6.5 15.8 5.75 M17.2 19.4 Q17.2 18.6 16.3 19.05 15.4 19.45 15.4 19.85 L15.45 20.15 Q15.55 20.4 15.95 20.4 16.65 20.4 17.2 19.4 M18.15 21.45 L18.1 21.15 Q16.85 21.05 16.85 21.7 16.85 22.05 17.25 22.05 L17.75 21.85 18.15 21.45 M11.8 22.55 L11.7 22.55 11.85 22.0 Q11.85 21.2 10.95 21.2 10.0 21.15 10.0 22.2 L10.15 22.5 10.95 22.8 11.25 22.8 11.2 23.0 11.25 23.3 Q11.35 23.55 11.75 23.55 L12.4 23.4 12.7 23.0 Q12.7 22.55 11.8 22.55 M11.0 17.15 L11.3 17.45 10.7 19.6 11.65 20.35 Q12.7 21.05 13.3 21.05 13.8 21.05 14.35 19.4 L14.8 17.45 Q14.8 16.7 14.4 16.8 L12.05 17.1 11.0 17.0 11.0 17.15 M18.95 27.15 Q18.95 27.7 19.35 28.05 19.9 28.6 21.15 28.35 L21.15 28.9 Q21.15 29.3 21.7 29.3 22.6 29.3 22.9 28.5 L23.05 27.35 Q23.1 26.8 23.7 26.3 L24.25 25.45 Q24.25 24.5 21.6 24.6 18.95 24.7 18.95 27.15 M20.05 29.45 Q19.4 29.5 19.05 29.85 18.4 30.05 18.35 32.0 L0.0 32.0 0.0 0.0 32.0 0.0 32.0 32.0 22.75 32.0 Q23.2 31.75 23.2 31.0 23.2 29.95 22.0 30.15 L21.6 30.25 Q21.25 29.35 20.05 29.45 M8.95 25.5 L9.3 25.3 9.5 25.0 Q9.5 24.65 9.05 24.7 8.55 24.75 8.55 25.1 8.55 25.5 8.95 25.5 M14.85 30.65 L15.0 30.75 15.15 30.6 14.85 30.45 14.85 30.65 M13.45 25.15 L12.85 25.75 Q12.85 26.15 13.2 26.15 L13.7 25.85 14.0 25.4 Q14.0 24.8 13.45 25.15" transform="matrix(1.0, 0.0, 0.0, 1.0, 0.0, 0.0)"/><path fill="#fcf9e0" fill-rule="evenodd" stroke="none" d="M24.45 12.0 L24.65 12.0 24.8 12.3 24.6 12.5 24.4 12.5 24.35 12.2 24.35 12.05 24.45 12.0 M26.55 17.35 L26.65 17.1 26.85 17.0 27.3 17.3 26.85 17.75 Q26.55 17.65 26.55 17.35 M21.2 16.95 L20.85 17.45 20.45 17.6 Q20.0 17.6 19.85 17.2 L19.8 16.95 Q19.8 16.3 20.5 16.3 21.2 16.3 21.2 16.95 M24.45 20.95 L24.25 21.5 24.25 21.65 Q25.15 21.7 25.15 22.25 L24.85 23.1 Q24.4 23.75 23.7 23.75 L22.75 23.5 20.1 23.4 19.8 22.95 20.2 22.35 20.6 20.9 Q20.6 20.3 21.6 19.95 L23.55 19.65 Q24.85 19.65 24.65 20.35 L24.45 20.95 M11.0 17.15 L11.0 17.0 12.05 17.1 14.4 16.8 Q14.8 16.7 14.8 17.45 L14.35 19.4 Q13.8 21.05 13.3 21.05 12.7 21.05 11.65 20.35 L10.7 19.6 11.3 17.45 11.0 17.15 M11.8 22.55 Q12.7 22.55 12.7 23.0 L12.4 23.4 11.75 23.55 Q11.35 23.55 11.25 23.3 L11.2 23.0 11.25 22.8 10.95 22.8 10.15 22.5 10.0 22.2 Q10.0 21.15 10.95 21.2 11.85 21.2 11.85 22.0 L11.7 22.55 11.8 22.55 M18.15 21.45 L17.75 21.85 17.25 22.05 Q16.85 22.05 16.85 21.7 16.85 21.05 18.1 21.15 L18.15 21.45 M17.2 19.4 Q16.65 20.4 15.95 20.4 15.55 20.4 15.45 20.15 L15.4 19.85 Q15.4 19.45 16.3 19.05 17.2 18.6 17.2 19.4 M13.45 25.15 Q14.0 24.8 14.0 25.4 L13.7 25.85 13.2 26.15 Q12.85 26.15 12.85 25.75 L13.45 25.15 M14.85 30.65 L14.85 30.45 15.15 30.6 15.0 30.75 14.85 30.65 M8.95 25.5 Q8.55 25.5 8.55 25.1 8.55 24.75 9.05 24.7 9.5 24.65 9.5 25.0 L9.3 25.3 8.95 25.5" transform="matrix(1.0, 0.0, 0.0, 1.0, 0.0, 0.0)"/></g></defs></svg>