<svg xmlns="http://www.w3.org/2000/svg" xmlns:xlink="http://www.w3.org/1999/xlink" width="34" height="34"><g transform="matrix(1.0, 0.0, 0.0, 1.0, 1, 1)"><use width="37.85" height="50.25" transform="matrix(1.0, 0.0, 0.0, 1.0, -2.55, -17.25)" xlink:href="#sprite0"/></g><defs><g id="sprite0" transform="matrix(1.0, 0.0, 0.0, 1.0, 2.55, 17.25)"><use width="34" height="34" transform="matrix(1.0, 0.0, 0.0, 1.0, -1.0, -1.0)" xlink:href="#sprite1"/><clipPath id="clipPath0" transform="matrix(1.0031, 0.0, 0.0, 1.0, 0.0, 0.0)"><path fill="#0f0" fill-rule="evenodd" stroke="none" d="M31.9 32.0 L0.0 32.0 0.0 0.0 31.9 0.0 31.9 32.0"/></clipPath><g clip-path="url(#clipPath0)"><use width="37.85" height="48.3" transform="matrix(1.0, 0.0, 0.0, 1.0, -2.55, -17.25)" xlink:href="#shape2"/></g><use width="34" height="34" transform="matrix(1.0, 0.0, 0.0, 1.0, -1.0, -1.0)" xlink:href="#shape3"/></g><g id="sprite1" transform="matrix(1.0, 0.0, 0.0, 1.0, 1.0, 1.0)"><use width="34" height="34" transform="matrix(1.0, 0.0, 0.0, 1.0, -1.0, -1.0)" xlink:href="#shape0"/></g><g id="shape0"><path fill="#cc0" fill-rule="evenodd" stroke="none" d="M0.0 32.0 L0.0 0.0 32.0 0.0 32.0 32.0 0.0 32.0" transform="matrix(1.0, 0.0, 0.0, 1.0, 1.0, 1.0)"/><path fill="none" stroke="#733c2f" stroke-linecap="round" stroke-linejoin="round" stroke-width="2" d="M0.0 32.0 L0.0 0.0 32.0 0.0 32.0 32.0 0.0 32.0 Z" transform="matrix(1.0, 0.0, 0.0, 1.0, 1.0, 1.0)"/></g><g id="shape2"><path fill="#733c2f" fill-rule="evenodd" stroke="none" d="M18.95 26.8 L20.95 26.7 22.05 26.6 24.0 27.1 26.25 27.55 27.95 28.35 28.65 28.8 28.85 29.15 Q28.85 29.65 27.25 29.9 L23.5 30.35 21.4 30.75 20.95 30.95 20.45 30.9 15.75 30.85 12.9 31.05 11.3 30.7 10.3 30.4 7.15 30.05 Q1.65 29.6 1.65 28.6 1.65 27.95 3.55 27.7 L7.85 27.25 10.7 27.2 13.3 27.05 14.85 26.8 18.95 26.8" transform="matrix(1.0, 0.0, 0.0, 1.0, 2.55, 17.25)"/><path fill="#fcf9e0" fill-rule="evenodd" stroke="none" d="M21.25 23.65 Q21.25 24.5 20.55 25.9 L19.3 28.25 20.75 28.5 Q20.75 29.05 18.9 29.05 18.0 29.05 18.0 28.5 18.0 28.15 18.85 26.65 19.6 25.1 19.6 23.95 L19.5 23.4 18.05 23.2 14.8 23.25 11.5 23.6 10.65 23.45 Q10.25 23.45 10.0 23.8 L9.75 24.15 10.35 25.65 10.8 27.75 Q10.8 28.85 9.7 28.85 8.05 28.85 8.05 28.45 8.05 28.0 9.0 28.25 L9.55 28.25 9.85 28.0 9.1 26.45 Q8.65 25.45 8.65 24.55 8.65 23.55 9.45 23.1 10.35 22.55 13.0 22.5 L12.9 21.95 13.0 20.3 13.3 19.45 13.35 19.45 13.15 20.5 13.25 20.9 Q13.25 20.5 13.55 19.95 L13.7 20.15 13.55 21.25 13.7 20.75 14.0 20.75 13.9 22.55 14.25 21.3 14.4 21.25 Q14.8 21.25 14.55 21.75 L14.55 22.55 15.05 21.2 15.15 21.1 15.3 21.4 15.15 22.1 15.15 22.4 Q15.65 20.35 16.25 18.9 L16.4 19.25 16.2 21.3 16.2 21.8 16.35 21.3 16.5 21.25 16.55 22.4 16.55 22.5 16.75 21.3 Q16.9 20.55 17.25 20.3 L17.4 20.6 17.15 22.0 Q17.15 22.2 18.05 22.2 L19.4 22.1 Q20.35 22.1 20.75 22.5 21.25 22.95 21.25 23.65 M16.35 14.9 Q16.9 14.9 16.9 15.5 16.9 16.0 16.25 16.0 15.7 16.0 15.7 15.45 15.7 14.9 16.35 14.9 M13.7 14.9 Q14.35 14.9 14.35 15.3 14.35 16.0 13.55 16.0 13.0 16.0 13.0 15.3 13.0 14.9 13.7 14.9 M19.3 27.2 L19.25 27.2 19.25 27.25 19.3 27.2" transform="matrix(1.0, 0.0, 0.0, 1.0, 2.55, 17.25)"/><path fill="#733c2f" fill-rule="evenodd" stroke="none" d="M21.25 23.65 Q21.25 22.95 20.75 22.5 20.35 22.1 19.4 22.1 L18.05 22.2 Q17.15 22.2 17.15 22.0 L17.4 20.6 17.25 20.3 Q16.9 20.55 16.75 21.3 L16.55 22.5 16.55 22.4 16.5 21.25 16.35 21.3 16.2 21.8 16.2 21.3 16.4 19.25 16.25 18.9 Q15.65 20.35 15.15 22.4 L15.15 22.1 15.3 21.4 15.15 21.1 15.05 21.2 14.55 22.55 14.55 21.75 Q14.8 21.25 14.4 21.25 L14.25 21.3 13.9 22.55 14.0 20.75 13.7 20.75 13.55 21.25 13.7 20.15 13.55 19.95 Q13.25 20.5 13.25 20.9 L13.15 20.5 13.35 19.45 13.3 19.45 13.0 20.3 12.9 21.95 13.0 22.5 Q10.35 22.55 9.45 23.1 8.65 23.55 8.65 24.55 8.65 25.45 9.1 26.45 L9.85 28.0 9.55 28.25 9.0 28.25 Q8.05 28.0 8.05 28.45 8.05 28.85 9.7 28.85 10.8 28.85 10.8 27.75 L10.35 25.65 9.75 24.15 10.0 23.8 Q10.25 23.45 10.65 23.45 L11.5 23.6 14.8 23.25 18.05 23.2 19.5 23.4 19.6 23.95 Q19.6 25.1 18.85 26.65 18.0 28.15 18.0 28.5 18.0 29.05 18.9 29.05 20.75 29.05 20.75 28.5 L19.3 28.25 20.55 25.9 Q21.25 24.5 21.25 23.65 M21.75 7.3 L21.4 8.25 Q21.05 8.95 21.05 9.7 18.6 16.9 17.7 17.45 L17.6 17.7 17.95 18.5 18.3 19.95 Q18.35 20.85 17.8 22.0 21.45 21.45 21.55 23.45 L21.55 24.35 Q21.4 25.25 20.85 26.2 L19.8 27.95 19.75 28.0 20.9 27.9 Q21.6 27.9 21.6 28.65 L20.75 29.45 19.05 29.8 Q18.0 29.8 17.7 29.35 L17.6 28.85 18.4 26.35 Q19.2 24.45 19.1 23.95 L15.8 24.2 14.7 24.45 12.7 24.2 12.05 24.35 11.1 24.45 10.9 24.45 10.45 24.5 10.95 25.2 11.0 25.3 11.15 26.3 11.45 28.35 11.0 29.15 Q10.55 29.55 9.75 29.55 8.4 29.55 7.85 29.15 L7.65 28.65 7.85 28.1 9.3 27.95 Q7.9 25.25 7.85 24.65 7.85 22.4 10.8 22.3 L11.5 22.2 12.0 22.2 12.2 22.2 12.1 21.65 12.45 19.1 Q12.45 18.35 13.1 17.85 L13.15 17.85 12.55 17.15 12.1 16.15 12.0 16.15 Q11.2 16.15 10.25 12.65 9.5 9.75 9.5 9.0 9.5 8.45 9.85 8.1 10.25 7.75 10.6 8.95 10.8 9.65 11.65 10.75 L12.7 13.35 Q13.35 12.45 15.15 12.35 16.8 12.2 17.65 12.9 L18.3 11.15 Q18.9 9.15 19.75 8.6 19.65 8.3 20.7 7.2 21.65 6.1 21.75 7.3 M13.7 14.9 Q13.0 14.9 13.0 15.3 13.0 16.0 13.55 16.0 14.35 16.0 14.35 15.3 14.35 14.9 13.7 14.9 M16.35 14.9 Q15.7 14.9 15.7 15.45 15.7 16.0 16.25 16.0 16.9 16.0 16.9 15.5 16.9 14.9 16.35 14.9 M19.3 27.2 L19.25 27.25 19.25 27.2 19.3 27.2" transform="matrix(1.0, 0.0, 0.0, 1.0, 2.55, 17.25)"/><path fill="#733c2f" fill-rule="evenodd" stroke="none" d="M11.9 -16.7 L14.45 -16.5 17.4 -17.25 Q19.45 -17.25 20.35 -16.7 L21.3 -15.75 Q22.65 -15.0 24.35 -14.65 28.15 -13.95 30.6 -12.1 31.95 -11.2 32.5 -10.2 L33.0 -8.5 Q33.35 -7.65 34.6 -6.75 35.3 -6.4 35.3 -4.95 L35.2 -3.1 35.2 -2.6 34.75 -1.9 34.95 -1.15 33.85 0.9 Q32.65 2.85 32.4 3.9 32.3 4.5 31.25 5.2 L29.5 6.25 Q28.9 6.5 28.3 7.7 28.05 8.1 25.45 8.1 23.3 8.1 19.2 9.9 L14.45 11.7 Q13.35 11.7 9.3 9.65 7.85 9.0 7.55 8.3 L7.5 7.05 Q2.65 6.8 1.05 3.2 0.65 2.3 -1.1 0.85 -2.55 -0.4 -2.55 -1.2 -2.55 -1.85 -1.45 -3.45 L-0.1 -5.25 Q1.2 -7.3 1.05 -9.3 1.05 -12.2 4.05 -13.25 5.5 -13.8 7.0 -14.9 L9.3 -16.55 11.9 -16.7" transform="matrix(1.0, 0.0, 0.0, 1.0, 2.55, 17.25)"/></g><g id="shape3"><path fill="none" stroke="#733c2f" stroke-linecap="round" stroke-linejoin="round" stroke-width="2" d="M0.0 32.0 L0.0 0.0 32.0 0.0 32.0 32.0 0.0 32.0 Z" transform="matrix(1.0, 0.0, 0.0, 1.0, 1.0, 1.0)"/></g></defs></svg>