<?xml version="1.0" encoding="UTF-8" standalone="no"?>
<svg xmlns:xlink="http://www.w3.org/1999/xlink" height="34" width="34" xmlns="http://www.w3.org/2000/svg">
  <g transform="matrix(1.0, 0.0, 0.0, 1.0, 1, 1)">
    <use height="36.15" transform="matrix(1.0, 0.0, 0.0, 1.0, -1.0, -1.0)" width="34.0" xlink:href="#sprite0"/>
  </g>
  <defs>
    <g id="sprite0" transform="matrix(1.0, 0.0, 0.0, 1.0, 1.0, 1.0)">
      <use height="34.0" transform="matrix(1.0, 0.0, 0.0, 1.0, -1.0, -1.0)" width="34.0" xlink:href="#sprite1"/>
      <clipPath id="clipPath0" transform="matrix(1.0, 0.0, 0.0, 1.0, 0.0, 0.0)">
        <path d="M0.0 32.0 L0.0 0.0 32.0 0.0 32.0 32.0 0.0 32.0" fill="#ff0000" fill-rule="evenodd" stroke="none"/>
      </clipPath>
      <g clip-path="url(#clipPath0)">
        <use height="31.25" transform="matrix(1.0, 0.0, 0.0, 1.0, 0.8, 3.9)" width="30.5" xlink:href="#shape2"/>
      </g>
      <use height="34.0" transform="matrix(1.0, 0.0, 0.0, 1.0, -1.0, -1.0)" width="34.0" xlink:href="#shape3"/>
    </g>
    <g id="sprite1" transform="matrix(1.0, 0.0, 0.0, 1.0, 1.0, 1.0)">
      <use height="34.0" transform="matrix(1.0, 0.0, 0.0, 1.0, -1.0, -1.0)" width="34.0" xlink:href="#shape0"/>
    </g>
    <g id="shape0" transform="matrix(1.0, 0.0, 0.0, 1.0, 1.0, 1.0)">
      <path d="M0.0 32.0 L0.0 0.0 32.0 0.0 32.0 32.0 0.0 32.0" fill="#cccc00" fill-rule="evenodd" stroke="none"/>
      <path d="M0.0 32.0 L0.0 0.0 32.0 0.0 32.0 32.0 0.0 32.0 Z" fill="none" stroke="#733c2f" stroke-linecap="round" stroke-linejoin="round" stroke-width="2.0"/>
    </g>
    <g id="shape2" transform="matrix(1.0, 0.0, 0.0, 1.0, -0.8, -3.9)">
      <path d="M21.75 20.2 Q21.75 22.4 22.3 24.15 L23.15 28.0 23.15 28.15 24.1 29.85 26.1 33.85 25.0 35.15 Q24.4 35.15 23.3 33.2 L22.9 33.6 22.45 33.85 Q22.0 33.85 20.75 31.4 L19.8 29.45 18.65 29.4 18.55 29.75 18.15 32.05 18.65 34.0 Q18.65 34.5 18.2 34.5 17.6 34.5 17.45 33.95 L17.45 33.2 17.05 33.35 Q16.2 33.35 15.45 28.15 L14.9 22.9 14.9 22.6 14.9 22.2 15.7 18.9 16.6 16.15 Q17.05 14.85 18.75 13.1 20.8 11.05 23.55 13.8 L22.75 15.65 Q22.0 17.4 22.0 17.9 L21.75 20.2 M7.7 15.75 L7.4 14.9 7.05 13.9 Q7.05 13.2 7.85 13.2 8.65 13.2 10.0 13.95 10.15 13.5 10.45 13.5 11.1 13.5 11.75 15.4 L12.75 18.35 13.55 21.05 13.9 23.1 14.1 24.5 14.1 25.9 Q14.0 34.0 13.0 34.0 L12.9 33.9 12.65 34.35 Q12.2 34.4 12.15 34.05 L12.25 33.6 Q11.25 33.6 11.2 32.25 L11.3 29.95 11.2 28.7 9.6 28.45 Q8.65 35.0 7.7 35.0 7.35 35.0 7.2 34.65 L7.15 34.25 7.15 34.2 6.6 34.75 Q5.6 34.75 6.15 33.1 5.65 33.1 5.4 32.7 4.85 34.55 4.3 34.55 L3.9 34.3 3.85 34.05 4.65 31.6 5.65 29.15 6.75 26.15 6.3 24.95 5.55 22.65 Q5.1 21.45 5.1 20.6 5.1 19.15 6.4 17.45 L7.7 15.75" fill="#733c2f" fill-rule="evenodd" stroke="none"/>
      <path d="M29.0 18.3 Q29.45 25.8 28.0 26.9 26.7 27.95 25.8 27.6 L25.1 26.9 Q23.95 25.45 25.45 22.7 25.7 22.35 25.55 20.6 L25.3 18.85 Q25.15 18.7 23.6 18.05 22.1 17.45 21.4 16.6 20.35 15.25 22.05 14.55 23.7 13.9 25.25 15.45 27.95 17.0 29.0 18.3 M17.35 12.15 L17.35 12.05 17.75 12.15 17.35 12.15 M4.85 17.8 Q5.55 15.75 7.4 15.7 9.25 15.7 8.8 17.35 8.5 18.4 7.35 19.65 L6.15 20.95 6.6 22.7 Q7.15 24.3 7.5 24.55 10.05 26.4 9.55 28.25 L9.15 29.15 Q8.5 29.85 6.9 29.45 5.1 29.0 2.5 21.9 2.95 20.25 4.85 17.8" fill="#733c2f" fill-rule="evenodd" stroke="none"/>
      <path d="M28.8 10.2 L29.0 9.6 Q29.0 8.75 28.2 8.75 27.45 8.75 27.45 9.45 L27.5 10.05 Q27.65 10.65 28.2 10.65 L28.8 10.2 M24.35 7.75 L24.8 7.6 Q25.25 7.6 25.5 8.4 L25.95 9.45 Q26.3 9.25 26.3 8.7 26.3 7.9 25.65 7.3 L23.3 7.25 23.4 7.6 24.35 7.75 M29.55 9.5 Q29.55 11.8 27.9 13.4 26.3 15.1 23.95 15.1 21.65 15.1 20.0 13.4 18.4 11.8 18.4 9.45 18.4 7.2 20.0 5.5 21.65 3.9 23.95 3.9 26.3 3.9 27.9 5.5 29.55 7.2 29.55 9.5 M27.15 12.9 L27.4 12.3 Q27.4 11.65 26.8 11.9 26.1 12.2 26.1 12.7 L26.15 13.0 Q26.3 13.3 26.7 13.3 L27.15 12.9" fill="#733c2f" fill-rule="evenodd" stroke="none"/>
      <path d="M24.35 7.75 L23.4 7.6 23.3 7.25 25.65 7.3 Q26.3 7.9 26.3 8.7 26.3 9.25 25.95 9.45 L25.5 8.4 Q25.25 7.6 24.8 7.6 L24.35 7.75 M28.8 10.2 L28.2 10.65 Q27.65 10.65 27.5 10.05 L27.45 9.45 Q27.45 8.75 28.2 8.75 29.0 8.75 29.0 9.6 L28.8 10.2 M27.15 12.9 L26.7 13.3 Q26.3 13.3 26.15 13.0 L26.1 12.7 Q26.1 12.2 26.8 11.9 27.4 11.65 27.4 12.3 L27.15 12.9" fill="#fcf9e0" fill-rule="evenodd" stroke="none"/>
      <path d="M8.5 7.6 L7.55 7.75 7.1 7.6 Q6.65 7.6 6.4 8.4 L5.95 9.45 Q5.6 9.25 5.6 8.7 5.6 7.9 6.25 7.3 L8.6 7.25 8.5 7.6 M2.35 9.5 Q2.35 11.8 4.0 13.4 5.6 15.1 7.95 15.1 10.25 15.1 11.9 13.4 13.5 11.8 13.5 9.45 13.5 7.2 11.9 5.5 10.25 3.9 7.95 3.9 5.6 3.9 4.0 5.5 2.35 7.2 2.35 9.5 M4.75 12.9 L4.5 12.3 Q4.5 11.65 5.1 11.9 5.8 12.2 5.8 12.7 L5.75 13.0 5.2 13.3 4.75 12.9 M3.1 10.2 L2.9 9.6 Q2.9 8.75 3.7 8.75 4.45 8.75 4.45 9.45 L4.4 10.05 Q4.25 10.65 3.7 10.65 3.35 10.65 3.1 10.2" fill="#733c2f" fill-rule="evenodd" stroke="none"/>
      <path d="M8.5 7.6 L8.6 7.25 6.25 7.3 Q5.6 7.9 5.6 8.7 5.6 9.25 5.95 9.45 L6.4 8.4 Q6.65 7.6 7.1 7.6 L7.55 7.75 8.5 7.6 M3.1 10.2 Q3.35 10.65 3.7 10.65 4.25 10.65 4.4 10.05 L4.45 9.45 Q4.45 8.75 3.7 8.75 2.9 8.75 2.9 9.6 L3.1 10.2 M4.75 12.9 L5.2 13.3 5.75 13.0 5.8 12.7 Q5.8 12.2 5.1 11.9 4.5 11.65 4.5 12.3 L4.75 12.9" fill="#fcf9e0" fill-rule="evenodd" stroke="none"/>
      <path d="M26.3 11.1 L26.3 12.4 26.3 12.5 26.25 13.4 Q25.95 16.5 22.8 17.25 L22.85 17.2 Q20.1 17.95 18.45 16.15 L17.85 16.15 17.35 16.05 Q16.15 15.35 15.9 13.95 L15.9 14.0 15.75 13.35 15.65 13.4 15.5 13.45 Q14.5 16.5 11.0 16.5 8.6 16.45 7.4 14.65 L7.4 14.7 6.6 13.45 Q5.75 12.0 5.95 10.35 6.15 8.65 7.5 7.8 10.55 5.55 13.95 6.6 L14.0 6.6 Q15.85 7.25 16.3 9.0 L16.3 9.1 16.35 9.1 16.35 9.15 16.55 9.75 16.6 9.7 Q18.5 7.45 21.7 7.4 L21.75 7.4 Q25.5 7.2 26.3 11.0 L26.3 11.1 M24.15 21.35 L24.45 20.9 24.6 20.7 Q25.0 20.3 25.4 20.35 L27.15 20.45 28.3 20.45 28.45 20.5 Q29.9 20.85 30.45 21.95 L30.5 22.0 Q31.65 23.95 31.1 26.35 30.6 28.1 29.8 29.35 L29.8 29.3 Q28.55 31.2 26.25 30.95 L26.1 30.95 24.85 30.55 24.8 30.55 22.9 29.55 22.85 29.55 Q21.0 28.2 21.05 25.95 21.05 24.15 22.1 22.75 L22.15 22.7 Q22.9 21.7 24.15 21.35 M4.05 23.25 Q4.1 23.15 4.25 23.1 5.6 21.65 7.55 22.25 8.15 22.4 8.6 22.85 L10.0 23.2 Q12.0 24.2 12.75 26.45 L12.75 26.5 Q13.4 28.7 11.9 30.4 L10.4 31.9 10.3 32.0 10.2 32.15 Q8.15 33.6 6.1 32.55 L6.05 32.55 Q4.05 31.55 3.0 29.45 2.25 27.8 2.35 26.2 2.4 24.25 3.95 23.3 L4.05 23.25" fill="#733c2f" fill-rule="evenodd" stroke="none"/>
      <path d="M24.5 9.4 Q24.95 9.85 25.3 11.1 L25.3 11.2 25.3 13.2 25.3 13.3 Q24.8 15.65 22.55 16.25 L20.45 16.35 20.2 16.2 19.65 15.85 19.6 15.8 19.05 15.4 18.95 15.25 18.9 15.15 18.0 15.2 17.85 15.15 17.5 14.9 16.45 15.85 Q12.4 19.25 11.45 18.45 L10.3 17.2 10.25 16.6 10.0 15.95 10.0 15.5 10.0 15.45 9.95 15.4 Q9.0 15.1 8.2 14.25 L8.15 14.15 7.1 12.25 7.1 12.3 Q6.75 11.1 6.85 10.45 7.05 9.0 8.75 8.1 10.85 7.1 12.65 7.3 13.95 7.4 14.65 8.1 L14.8 8.25 Q16.75 7.4 17.85 7.4 L19.1 8.1 19.7 8.65 19.95 8.6 21.75 8.3 Q23.6 8.2 24.5 9.4 M24.95 22.2 Q25.05 21.6 25.3 21.4 L25.4 21.35 Q26.25 20.8 27.1 21.1 L27.15 21.1 28.2 21.45 28.25 21.5 Q30.05 21.95 30.3 24.15 30.45 26.05 29.4 28.05 L29.4 28.0 Q28.55 29.8 27.15 29.95 L27.1 29.95 25.35 29.75 23.4 28.7 23.35 28.65 Q21.55 27.05 22.15 24.85 22.45 23.55 23.15 22.95 L23.95 22.5 24.0 22.5 24.7 22.25 24.8 22.2 24.95 22.2 M15.7 11.85 L15.55 12.15 15.5 12.15 15.35 12.35 15.3 12.45 15.15 12.5 Q14.65 12.75 14.6 13.05 L14.45 13.6 14.15 14.1 Q14.15 14.45 14.5 14.45 L15.75 13.5 16.7 12.25 Q16.7 11.8 16.5 11.8 L16.55 11.8 16.55 11.7 15.8 11.65 15.7 11.8 15.7 11.85 M4.55 24.1 L5.5 23.4 5.6 23.3 7.25 23.2 7.2 23.15 8.0 23.85 8.1 23.85 8.2 23.85 8.9 23.9 8.95 23.9 9.85 24.2 9.95 24.25 Q10.7 24.7 11.3 25.7 12.5 27.7 11.2 29.75 L11.1 29.8 9.45 31.35 9.6 31.3 Q8.5 31.95 7.85 31.95 L7.8 31.95 Q6.35 32.15 5.15 30.75 3.55 29.0 3.3 27.2 2.95 24.95 4.55 24.1 M14.75 12.65 L14.65 12.65 14.65 12.7 14.75 12.65" fill="#733c2f" fill-rule="evenodd" stroke="none"/>
      <path d="M30.7 9.2 Q30.3 9.2 30.2 8.95 L30.15 8.65 Q30.15 8.25 30.7 8.2 31.25 8.15 31.25 8.65 31.25 9.2 30.7 9.2 M31.05 12.25 Q31.05 12.6 30.6 12.6 30.2 12.6 30.2 12.25 30.2 11.9 30.65 11.9 31.05 11.9 31.05 12.25 M28.35 15.3 L28.1 14.85 28.6 15.0 28.5 15.25 28.35 15.3 M3.25 15.1 Q2.65 15.1 2.8 14.7 2.8 14.2 3.3 14.3 L3.75 14.7 Q3.75 15.1 3.25 15.1 M0.8 12.75 Q0.8 12.25 1.35 12.25 1.9 12.25 1.9 12.75 L1.75 13.1 Q1.55 13.3 1.35 13.3 0.85 13.3 0.8 12.75 M0.9 15.65 Q0.9 15.2 1.4 15.2 1.9 15.2 1.9 15.65 1.9 16.1 1.35 16.1 0.9 16.1 0.9 15.65" fill="#fcf9e0" fill-rule="evenodd" stroke="none"/>
      <path d="M14.85 9.45 L15.3 10.6 Q15.5 11.25 15.1 11.85 L14.5 12.15 Q14.15 12.25 14.15 12.75 L13.9 13.4 13.5 14.05 Q13.0 14.65 11.9 14.95 9.95 15.45 8.55 13.9 L7.55 12.15 Q7.25 11.1 7.35 10.5 7.55 9.3 8.95 8.55 10.95 7.6 12.6 7.8 14.45 7.95 14.85 9.45" fill="#fcf9e0" fill-rule="evenodd" stroke="none"/>
      <path d="M21.75 8.8 Q19.6 8.9 18.15 9.95 16.7 10.95 17.1 12.45 L17.3 13.7 Q17.5 14.35 18.1 14.7 L18.75 14.65 Q19.1 14.55 19.35 15.0 L19.9 15.4 20.55 15.85 22.4 15.75 Q24.35 15.25 24.8 13.2 L24.8 11.2 Q24.5 10.1 24.1 9.7 23.35 8.7 21.75 8.8" fill="#fcf9e0" fill-rule="evenodd" stroke="none"/>
      <path d="M28.95 27.8 Q29.95 25.95 29.8 24.2 29.6 22.35 28.1 21.95 L26.95 21.55 25.65 21.75 25.4 22.3 24.85 22.7 Q24.5 22.75 24.15 22.95 L23.5 23.3 Q22.9 23.85 22.6 24.95 22.1 26.9 23.65 28.25 L25.35 29.25 27.05 29.45 Q28.25 29.3 28.95 27.8" fill="#fcf9e0" fill-rule="evenodd" stroke="none"/>
      <path d="M5.5 30.4 Q4.05 28.8 3.8 27.1 3.5 25.25 4.8 24.5 L5.8 23.75 7.1 23.65 7.55 24.1 Q7.75 24.4 8.15 24.35 L8.85 24.4 9.6 24.6 Q10.3 25.0 10.85 25.95 11.9 27.7 10.75 29.45 L9.3 30.85 Q8.35 31.45 7.8 31.45 6.55 31.6 5.5 30.4" fill="#fcf9e0" fill-rule="evenodd" stroke="none"/>
    </g>
    <g id="shape3" transform="matrix(1.0, 0.0, 0.0, 1.0, 1.0, 1.0)">
      <path d="M0.0 32.0 L0.0 0.0 32.0 0.0 32.0 32.0 0.0 32.0 Z" fill="none" stroke="#733c2f" stroke-linecap="round" stroke-linejoin="round" stroke-width="2.0"/>
    </g>
  </defs>
</svg>
