<?xml version="1.0" encoding="UTF-8" standalone="no"?>
<svg xmlns:xlink="http://www.w3.org/1999/xlink" height="34" width="34" xmlns="http://www.w3.org/2000/svg">
  <g transform="matrix(1.0, 0.0, 0.0, 1.0, 1, 1)">
    <use height="51.8" transform="matrix(1.0, 0.0, 0.0, 1.0, -1.0, -7.0)" width="34.0" xlink:href="#sprite0"/>
  </g>
  <defs>
    <g id="sprite0" transform="matrix(1.0, 0.0, 0.0, 1.0, 1.0, 7.0)">
      <use height="34.0" transform="matrix(1.0, 0.0, 0.0, 1.0, -1.0, -1.0)" width="34.0" xlink:href="#sprite1"/>
      <clipPath id="clipPath0" transform="matrix(1.0, 0.0, 0.0, 1.0, 0.0, 0.0)">
        <path d="M0.0 32.0 L0.0 0.0 32.0 0.0 32.0 32.0 0.0 32.0" fill="#ff0000" fill-rule="evenodd" stroke="none"/>
      </clipPath>
      <g clip-path="url(#clipPath0)">
        <use height="51.8" transform="matrix(1.0, 0.0, 0.0, 1.0, 0.75, -7.0)" width="30.2" xlink:href="#shape2"/>
      </g>
      <use height="34.0" transform="matrix(1.0, 0.0, 0.0, 1.0, -1.0, -1.0)" width="34.0" xlink:href="#shape3"/>
    </g>
    <g id="sprite1" transform="matrix(1.0, 0.0, 0.0, 1.0, 1.0, 1.0)">
      <use height="34.0" transform="matrix(1.0, 0.0, 0.0, 1.0, -1.0, -1.0)" width="34.0" xlink:href="#shape0"/>
    </g>
    <g id="shape0" transform="matrix(1.0, 0.0, 0.0, 1.0, 1.0, 1.0)">
      <path d="M0.0 32.0 L0.0 0.0 32.0 0.0 32.0 32.0 0.0 32.0" fill="#cccc00" fill-rule="evenodd" stroke="none"/>
      <path d="M0.0 32.0 L0.0 0.0 32.0 0.0 32.0 32.0 0.0 32.0 Z" fill="none" stroke="#733c2f" stroke-linecap="round" stroke-linejoin="round" stroke-width="2.0"/>
    </g>
    <g id="shape2" transform="matrix(1.0, 0.0, 0.0, 1.0, -0.75, 7.0)">
      <path d="M12.95 18.15 Q11.4 18.15 11.15 16.75 L9.2 6.9 Q8.55 3.6 11.0 3.6 L20.8 3.6 Q23.25 3.6 22.6 6.9 L20.65 16.75 Q20.4 18.15 18.95 18.15 L12.95 18.15" fill="#733c2f" fill-rule="evenodd" stroke="none"/>
      <path d="M12.05 6.2 Q12.05 7.1 11.45 7.7 L4.65 14.5 Q4.0 15.15 3.05 15.2 2.15 15.1 1.55 14.5 0.9 13.85 0.85 13.0 0.9 12.05 1.55 11.4 L8.35 4.6 Q8.95 4.0 9.85 4.0 10.75 4.0 11.4 4.65 12.0 5.25 12.05 6.2" fill="#733c2f" fill-rule="evenodd" stroke="none"/>
      <path d="M21.4 -1.7 Q21.4 0.5 19.85 2.05 18.3 3.65 16.05 3.65 13.85 3.65 12.3 2.05 10.75 0.5 10.75 -1.7 10.75 -2.8 11.15 -3.7 11.55 -4.7 12.3 -5.45 13.85 -7.0 16.05 -7.0 18.3 -7.0 19.85 -5.45 20.6 -4.7 21.0 -3.7 21.4 -2.8 21.4 -1.7" fill="#733c2f" fill-rule="evenodd" stroke="none"/>
      <path d="M3.55 11.65 Q4.35 11.65 4.9 12.2 L11.05 18.35 Q11.65 18.95 11.65 19.75 11.6 20.6 11.0 21.2 10.45 21.75 9.65 21.75 8.85 21.75 8.25 21.15 L2.1 15.0 Q1.55 14.45 1.55 13.65 1.55 12.85 2.1 12.3 2.7 11.7 3.55 11.65" fill="#733c2f" fill-rule="evenodd" stroke="none"/>
      <path d="M13.9 22.1 Q12.85 22.1 12.65 21.5 L11.35 17.4 Q10.9 16.05 12.55 16.05 L19.35 16.05 Q21.0 16.05 20.6 17.4 L19.25 21.5 Q19.05 22.1 18.05 22.1 L13.9 22.1" fill="#733c2f" fill-rule="evenodd" stroke="none"/>
      <path d="M15.55 19.6 Q16.15 20.4 15.9 21.3 L13.35 30.8 Q13.1 31.7 12.2 32.2 L10.0 32.25 Q8.9 31.95 8.3 31.15 7.65 30.25 7.9 29.35 L10.45 19.85 Q10.7 18.95 11.65 18.55 L13.7 18.45 Q14.85 18.75 15.55 19.6" fill="#733c2f" fill-rule="evenodd" stroke="none"/>
      <path d="M11.4 31.9 Q11.85 32.7 11.6 33.6 L9.05 43.1 Q8.8 44.0 8.05 44.5 L6.35 44.7 Q5.5 44.5 5.15 43.75 4.7 42.9 4.95 42.0 L7.5 32.5 Q7.75 31.6 8.5 31.15 9.2 30.7 10.05 30.9 10.9 31.15 11.4 31.9" fill="#733c2f" fill-rule="evenodd" stroke="none"/>
      <path d="M19.55 6.2 Q19.55 7.1 20.15 7.7 L26.95 14.5 Q27.6 15.15 28.55 15.2 29.45 15.1 30.05 14.5 30.7 13.85 30.75 13.0 30.7 12.05 30.05 11.4 L23.25 4.6 Q22.65 4.0 21.75 4.0 20.85 4.0 20.2 4.65 19.6 5.25 19.55 6.2" fill="#733c2f" fill-rule="evenodd" stroke="none"/>
      <path d="M28.05 11.65 Q27.25 11.65 26.7 12.2 L20.55 18.35 Q19.95 18.95 19.95 19.75 20.0 20.6 20.6 21.2 21.15 21.75 21.95 21.75 22.75 21.75 23.35 21.15 L29.5 15.0 Q30.05 14.45 30.05 13.65 30.05 12.85 29.5 12.3 28.9 11.7 28.05 11.65" fill="#733c2f" fill-rule="evenodd" stroke="none"/>
      <path d="M16.1 19.6 Q15.5 20.4 15.75 21.3 L18.3 30.8 Q18.55 31.7 19.45 32.2 L21.65 32.25 Q22.75 31.95 23.35 31.15 24.0 30.25 23.75 29.35 L21.2 19.85 Q20.95 18.95 20.0 18.55 L17.95 18.45 Q16.8 18.75 16.1 19.6" fill="#733c2f" fill-rule="evenodd" stroke="none"/>
      <path d="M20.25 31.9 Q19.8 32.7 20.05 33.6 L22.6 43.1 Q22.85 44.0 23.6 44.5 L25.3 44.7 Q26.15 44.5 26.5 43.75 26.95 42.9 26.7 42.0 L24.15 32.5 Q23.9 31.6 23.15 31.15 L21.6 30.9 Q20.75 31.15 20.25 31.9" fill="#733c2f" fill-rule="evenodd" stroke="none"/>
      <path d="M9.3 24.3 L15.9 24.4 11.05 43.0 3.65 41.0 9.3 24.3 M14.9 25.2 L9.85 25.15 4.75 40.5 10.45 42.0 14.9 25.2" fill="#733c2f" fill-rule="evenodd" stroke="none"/>
      <path d="M14.9 25.2 L10.45 42.0 4.75 40.5 9.85 25.15 14.9 25.2" fill="#fcf9e0" fill-rule="evenodd" stroke="none"/>
      <path d="M17.0 25.9 L22.05 25.85 27.15 41.2 21.45 42.7 17.0 25.9 M22.6 25.0 L16.0 25.1 20.85 43.7 28.25 41.7 22.6 25.0" fill="#733c2f" fill-rule="evenodd" stroke="none"/>
      <path d="M17.0 25.9 L21.45 42.7 27.15 41.2 22.05 25.85 17.0 25.9" fill="#fcf9e0" fill-rule="evenodd" stroke="none"/>
      <path d="M20.3 3.5 L22.7 3.5 30.95 11.45 30.95 13.7 26.4 20.6 22.05 15.15 24.9 12.8 21.6 9.85 20.8 17.25 23.65 24.9 15.85 27.0 8.05 24.9 11.05 18.1 10.05 9.85 6.75 12.8 9.6 15.15 5.25 20.6 0.75 13.7 0.75 11.45 8.95 3.5 11.4 3.5 15.85 9.95 20.3 3.5 M21.1 9.25 Q21.3 9.0 21.6 9.0 21.95 9.0 22.2 9.25 L25.5 12.2 25.75 12.65 25.75 13.05 25.5 13.45 23.2 15.3 26.3 19.15 30.1 13.45 30.1 11.8 22.4 4.3 20.7 4.3 16.5 10.45 16.1 10.8 15.6 10.8 15.15 10.45 10.95 4.3 9.3 4.3 1.55 11.8 1.55 13.45 5.35 19.15 8.45 15.3 6.25 13.45 6.0 13.05 6.0 12.65 6.25 12.2 9.55 9.25 Q9.7 9.0 10.05 9.0 L10.65 9.25 10.9 9.8 11.9 18.0 11.8 18.4 9.2 24.4 15.85 26.15 22.55 24.4 20.05 17.6 19.95 17.15 20.8 9.8 Q20.85 9.45 21.1 9.25" fill="#733c2f" fill-rule="evenodd" stroke="none"/>
      <path d="M21.1 9.25 Q20.85 9.45 20.8 9.8 L19.95 17.15 20.05 17.6 22.55 24.4 15.85 26.15 9.2 24.4 11.8 18.4 11.9 18.0 10.9 9.8 10.65 9.25 10.05 9.0 Q9.7 9.0 9.55 9.25 L6.25 12.2 6.0 12.65 6.0 13.05 6.25 13.45 8.45 15.3 5.35 19.15 1.55 13.45 1.55 11.8 9.3 4.3 10.95 4.3 15.15 10.45 15.6 10.8 16.1 10.8 16.5 10.45 20.7 4.3 22.4 4.3 30.1 11.8 30.1 13.45 26.3 19.15 23.2 15.3 25.5 13.45 25.75 13.05 25.75 12.65 25.5 12.2 22.2 9.25 Q21.95 9.0 21.6 9.0 21.3 9.0 21.1 9.25" fill="#fcf9e0" fill-rule="evenodd" stroke="none"/>
      <path d="M14.15 7.8 L20.5 17.0 19.95 17.35 13.6 8.15 14.15 7.8" fill="#733c2f" fill-rule="evenodd" stroke="none"/>
      <path d="M8.95 3.65 L18.05 16.8 17.5 17.15 8.4 4.0 8.95 3.65" fill="#733c2f" fill-rule="evenodd" stroke="none"/>
      <path d="M22.6 3.7 L16.85 12.0 17.4 12.35 23.15 4.05 22.6 3.7" fill="#733c2f" fill-rule="evenodd" stroke="none"/>
      <path d="M11.2 16.25 L20.6 16.3 20.6 18.65 11.2 18.6 11.2 16.25" fill="#733c2f" fill-rule="evenodd" stroke="none"/>
      <path d="M10.75 25.55 L13.7 16.7 15.65 17.3 12.65 26.2 10.75 25.55" fill="#733c2f" fill-rule="evenodd" stroke="none"/>
      <path d="M20.25 23.85 L17.85 16.6 15.65 17.3 18.05 24.55 20.25 23.85" fill="#733c2f" fill-rule="evenodd" stroke="none"/>
    </g>
    <g id="shape3" transform="matrix(1.0, 0.0, 0.0, 1.0, 1.0, 1.0)">
      <path d="M0.0 32.0 L0.0 0.0 32.0 0.0 32.0 32.0 0.0 32.0 Z" fill="none" stroke="#733c2f" stroke-linecap="round" stroke-linejoin="round" stroke-width="2.0"/>
    </g>
  </defs>
</svg>
