<?xml version="1.0" encoding="UTF-8" standalone="no"?>
<svg xmlns:xlink="http://www.w3.org/1999/xlink" height="34" width="34" xmlns="http://www.w3.org/2000/svg">
  <g transform="matrix(1.0, 0.0, 0.0, 1.0, 1, 1)">
    <use height="33.95" transform="matrix(1.0, 0.0, 0.0, 1.0, -1.0, -1.0)" width="34.0" xlink:href="#sprite0"/>
  </g>
  <defs>
    <g id="sprite0" transform="matrix(1.0, 0.0, 0.0, 1.0, 1.0, 0.85)">
      <use height="34.0" transform="matrix(1.0, 0.0, 0.0, 0.9984, -1.0, -0.8484)" width="34.0" xlink:href="#sprite1"/>
      <clipPath id="clipPath0" transform="matrix(1.0, 0.0, 0.0, 0.9984, 0.0, 0.15)">
        <path d="M0.0 32.0 L0.0 0.0 32.0 0.0 32.0 32.0 0.0 32.0" fill="#ff0000" fill-rule="evenodd" stroke="none"/>
      </clipPath>
      <g clip-path="url(#clipPath0)">
        <use height="31.1" transform="matrix(1.0, 0.0, 0.0, 1.0, 9.45, 0.7)" width="19.0" xlink:href="#shape2"/>
      </g>
    </g>
    <g id="sprite1" transform="matrix(1.0, 0.0, 0.0, 1.0, 1.0, 1.0)">
      <use height="34.0" transform="matrix(1.0, 0.0, 0.0, 1.0, -1.0, -1.0)" width="34.0" xlink:href="#shape0"/>
    </g>
    <g id="shape0" transform="matrix(1.0, 0.0, 0.0, 1.0, 1.0, 1.0)">
      <path d="M0.0 32.0 L0.0 0.0 32.0 0.0 32.0 32.0 0.0 32.0" fill="#cccc00" fill-rule="evenodd" stroke="none"/>
      <path d="M0.0 32.0 L0.0 0.0 32.0 0.0 32.0 32.0 0.0 32.0 Z" fill="none" stroke="#733c2f" stroke-linecap="round" stroke-linejoin="round" stroke-width="2.0"/>
    </g>
    <g id="shape2" transform="matrix(1.0, 0.0, 0.0, 1.0, -9.45, -0.7)">
      <path d="M23.6 17.1 L23.85 16.7 24.5 18.1 Q25.95 21.6 25.95 22.35 L25.75 27.15 27.1 28.5 Q28.45 29.7 28.45 30.25 28.45 30.75 27.85 31.25 27.2 31.8 26.25 31.8 24.85 31.8 24.0 30.35 23.4 29.35 23.3 28.45 L23.3 28.2 23.65 26.2 23.7 26.1 23.95 25.25 Q23.95 24.75 23.55 24.1 23.1 23.45 23.6 21.2 24.1 18.95 23.7 17.9 23.3 16.85 23.6 17.1 M20.55 21.55 L20.25 21.2 Q19.6 20.2 19.4 19.1 L18.85 19.45 Q16.9 20.65 14.2 21.35 15.15 22.9 15.35 24.65 15.45 25.35 16.75 27.85 16.75 28.5 16.15 29.25 15.35 30.3 13.85 30.3 11.3 30.3 10.6 29.45 10.25 29.0 10.4 28.5 10.4 27.65 10.65 27.35 11.05 26.75 12.6 26.3 L11.1 23.65 Q9.85 21.25 9.85 20.85 9.85 18.8 13.2 17.0 15.9 15.55 17.05 15.55 17.75 15.55 17.75 16.15 L17.65 16.3 17.9 16.3 19.65 16.7 20.05 16.5 20.4 16.55 20.8 18.85 20.5 21.25 20.55 21.55 M15.75 4.75 Q15.75 5.75 16.25 6.55 L15.75 7.4 Q14.5 9.75 13.9 9.75 L13.7 9.75 13.2 10.85 Q12.5 11.85 11.35 11.85 10.5 11.85 10.05 10.95 9.85 10.5 9.8 10.05 L9.9 9.5 9.7 9.05 9.45 7.65 Q9.45 6.1 10.35 6.0 L10.35 5.9 Q10.35 5.1 11.0 5.2 L12.25 5.45 Q12.8 5.65 12.8 6.25 12.8 6.8 12.35 6.95 L12.6 7.25 13.8 5.25 Q14.5 3.75 15.75 3.75 L15.9 3.75 15.75 4.75 M13.4 8.35 L13.0 7.6 13.15 8.9 12.9 9.4 10.05 9.55 Q11.3 10.7 13.0 9.95 L13.25 9.6 Q13.55 9.1 13.4 8.35 M17.4 17.8 L18.0 17.95 18.15 18.1 18.4 17.9 17.55 17.7 17.4 17.8" fill="#733c2f" fill-rule="evenodd" stroke="none"/>
      <path d="M13.4 8.35 Q13.55 9.1 13.25 9.6 L13.0 9.95 Q11.3 10.7 10.05 9.55 L12.9 9.4 13.15 8.9 13.0 7.6 13.4 8.35" fill="#fcf9e0" fill-rule="evenodd" stroke="none"/>
      <path d="M22.05 6.2 Q23.45 7.95 23.45 8.45 L23.2 9.3 Q22.85 9.9 22.2 9.5 L22.45 12.05 Q22.45 13.4 22.05 14.55 L21.6 15.45 21.65 15.55 22.0 16.95 Q22.0 18.45 19.15 18.45 17.65 18.45 16.65 17.6 15.95 16.95 15.95 16.45 L15.9 14.6 16.0 13.65 15.65 12.6 15.05 8.5 Q15.05 6.7 15.35 5.95 16.1 4.05 18.65 4.05 20.35 4.05 22.05 6.2" fill="#733c2f" fill-rule="evenodd" stroke="none"/>
      <path d="M25.25 11.55 Q25.25 12.45 24.7 13.35 L24.65 13.35 24.2 13.9 24.4 15.2 24.4 15.25 24.35 16.8 24.2 17.3 24.1 17.45 24.2 17.75 Q24.65 18.85 24.1 21.3 23.65 23.25 23.95 23.85 24.5 24.65 24.45 25.25 L24.15 26.35 Q24.1 27.7 23.75 28.45 L23.75 28.4 Q23.3 29.4 22.35 29.4 21.5 29.4 21.3 29.0 L21.3 28.95 Q19.95 28.95 19.55 25.05 L19.55 25.0 Q19.55 24.0 20.25 23.9 L20.3 23.7 20.05 21.65 20.0 21.25 20.0 21.15 20.3 18.95 19.9 16.6 19.9 16.55 19.9 16.45 19.9 16.4 20.25 13.95 Q19.6 12.0 19.6 10.75 19.6 9.5 20.9 8.8 22.15 8.05 23.7 8.45 25.25 8.8 25.25 11.55" fill="#fcf9e0" fill-rule="evenodd" stroke="none"/>
      <path d="M23.4 4.75 Q23.4 6.45 22.2 7.6 21.05 8.8 19.35 8.8 17.7 8.8 16.5 7.6 L15.85 6.8 Q15.3 5.9 15.3 4.75 15.3 4.15 15.45 3.65 L15.45 3.6 Q15.75 2.65 16.5 1.9 17.7 0.7 19.35 0.7 21.05 0.7 22.2 1.9 23.4 3.1 23.4 4.75" fill="#fcf9e0" fill-rule="evenodd" stroke="none"/>
      <path d="M22.9 24.85 Q23.55 24.95 23.65 25.4 L23.65 25.9 Q23.65 28.9 22.35 28.9 21.85 28.9 21.7 28.7 L21.4 28.45 Q20.4 28.45 20.05 25.0 20.05 24.4 20.5 24.4 21.1 24.4 21.1 25.5 L21.1 25.55 21.4 25.2 21.85 25.15 22.05 24.55 22.2 23.8 Q22.65 23.5 22.85 24.05 L22.9 24.85" fill="#733c2f" fill-rule="evenodd" stroke="none"/>
      <path d="M24.25 13.05 Q23.7 13.8 23.7 13.9 L23.9 15.25 Q23.9 17.35 23.6 17.1 23.3 16.85 23.7 17.9 24.1 18.95 23.6 21.2 23.1 23.45 23.55 24.1 23.95 24.75 23.95 25.25 L23.7 26.1 Q23.4 26.75 22.9 26.75 21.8 26.75 21.05 25.9 20.45 25.2 20.45 24.65 L20.8 23.65 20.5 21.25 20.8 18.85 20.4 16.45 20.75 13.9 20.1 11.65 Q20.1 7.7 22.45 8.4 24.75 9.15 24.75 11.55 24.75 12.3 24.25 13.05" fill="#733c2f" fill-rule="evenodd" stroke="none"/>
      <path d="M19.7 6.9 Q19.8 7.25 20.2 7.25 L20.6 7.15 21.05 6.95 21.3 6.55 21.25 6.3 21.1 6.35 Q20.95 6.05 20.45 6.15 19.7 6.3 19.7 6.9 M18.2 7.35 Q18.75 7.35 18.75 6.9 18.75 6.45 18.05 6.3 17.3 6.2 17.3 6.75 17.3 7.35 18.2 7.35 M21.8 7.25 Q20.8 8.3 19.3 8.3 17.85 8.3 16.8 7.25 15.75 6.25 15.75 4.75 15.75 3.3 16.8 2.25 17.85 1.2 19.3 1.2 20.8 1.2 21.8 2.25 22.85 3.3 22.85 4.75 22.85 6.25 21.8 7.25" fill="#733c2f" fill-rule="evenodd" stroke="none"/>
      <path d="M18.2 7.35 Q17.3 7.35 17.3 6.75 17.3 6.2 18.05 6.3 18.75 6.45 18.75 6.9 18.75 7.35 18.2 7.35 M19.7 6.9 Q19.7 6.3 20.45 6.15 20.95 6.05 21.1 6.35 L21.25 6.3 21.3 6.55 21.05 6.95 20.6 7.15 20.2 7.25 Q19.8 7.25 19.7 6.9" fill="#fcf9e0" fill-rule="evenodd" stroke="none"/>
    </g>
  </defs>
</svg>
