<svg xmlns="http://www.w3.org/2000/svg" xmlns:xlink="http://www.w3.org/1999/xlink" width="34" height="34"><g transform="matrix(1.0, 0.0, 0.0, 1.0, 1, 1)"><use width="34" height="34" transform="matrix(1.0, 0.0, 0.0, 1.0, -1.0, -1.0)" xlink:href="#sprite0"/></g><defs><g id="sprite0" transform="matrix(1.0, 0.0, 0.0, 1.0, 1.0, 1.0)"><use width="34" height="34" transform="matrix(1.0, 0.0, 0.0, 1.0, -1.0, -1.0)" xlink:href="#sprite1"/><use width="24.65" height="24.7" transform="matrix(1.0, 0.0, 0.0, 1.0, 3.8, 3.4)" xlink:href="#shape1"/></g><g id="sprite1" transform="matrix(1.0, 0.0, 0.0, 1.0, 1.0, 1.0)"><use width="34" height="34" transform="matrix(1.0, 0.0, 0.0, 1.0, -1.0, -1.0)" xlink:href="#shape0"/></g><g id="shape0"><path fill="#cc0" fill-rule="evenodd" stroke="none" d="M0.0 32.0 L0.0 0.0 32.0 0.0 32.0 32.0 0.0 32.0" transform="matrix(1.0, 0.0, 0.0, 1.0, 1.0, 1.0)"/><path fill="none" stroke="#733c2f" stroke-linecap="round" stroke-linejoin="round" stroke-width="2" d="M0.0 32.0 L0.0 0.0 32.0 0.0 32.0 32.0 0.0 32.0 Z" transform="matrix(1.0, 0.0, 0.0, 1.0, 1.0, 1.0)"/></g><g id="shape1"><path fill="#fcf9e0" fill-rule="evenodd" stroke="none" d="M21.35 11.75 L21.25 11.85 21.25 11.95 21.25 12.1 21.2 12.15 21.3 12.25 21.3 12.35 21.5 12.55 21.6 12.5 21.7 12.65 21.85 12.55 22.2 12.45 22.35 12.3 22.35 12.2 22.4 12.0 22.4 11.8 22.35 11.75 22.4 11.7 22.2 11.45 22.05 11.45 21.95 11.45 21.9 11.4 21.8 11.4 21.65 11.45 21.6 11.55 21.45 11.55 21.35 11.65 21.35 11.75 M22.35 6.7 L22.25 6.7 22.2 6.65 22.05 6.65 21.95 6.5 21.7 6.7 21.45 6.8 21.35 6.9 21.25 7.0 21.25 7.15 21.2 7.3 21.2 7.4 21.2 7.5 21.45 7.8 21.65 7.85 21.75 7.85 21.9 7.8 22.15 7.7 22.35 7.35 22.5 7.05 22.4 6.95 22.4 6.85 22.3 6.75 22.35 6.7 M23.9 9.1 L23.85 9.15 23.6 9.15 23.45 9.35 23.3 9.4 23.35 9.45 23.25 9.55 23.1 9.65 23.1 9.75 23.1 9.9 23.1 10.0 23.35 10.2 23.45 10.3 23.5 10.35 23.6 10.35 23.7 10.35 23.9 10.3 23.95 10.25 24.1 10.2 24.1 10.1 24.25 9.8 24.35 9.65 24.35 9.35 24.1 9.1 24.0 9.1 23.9 9.1 M27.25 10.15 L22.35 15.05 Q19.2 12.85 16.8 9.5 L21.7 4.6 27.25 10.15 M20.7 15.65 L20.6 15.45 Q18.35 12.65 15.95 10.8 L15.7 10.7 15.5 10.8 Q13.05 12.5 11.4 14.9 L11.3 15.1 11.35 15.3 Q13.15 18.25 16.1 20.05 L16.3 20.1 16.5 20.1 Q19.3 18.75 20.65 15.9 L20.7 15.65 M12.0 21.0 L11.8 21.0 11.7 21.1 11.55 21.2 11.5 21.25 11.5 21.5 11.5 21.6 11.5 21.7 11.55 21.75 11.5 21.8 11.8 22.1 11.9 22.1 12.1 22.1 12.3 22.05 12.35 22.0 12.45 21.85 12.55 21.75 12.55 21.55 12.55 21.45 12.55 21.3 12.5 21.25 12.55 21.2 12.4 21.05 12.3 21.05 12.15 21.05 12.1 21.0 12.0 21.0 M5.0 21.3 L9.85 16.45 Q12.9 18.05 15.4 22.0 L10.55 26.85 5.0 21.3 M10.1 23.25 L10.05 23.3 9.9 23.4 9.75 23.55 9.7 23.75 9.75 23.8 9.7 23.85 9.75 23.9 9.75 24.0 10.05 24.3 10.15 24.3 10.25 24.3 10.3 24.35 10.35 24.3 10.45 24.3 10.65 24.25 10.7 24.2 10.8 24.05 10.85 24.0 10.85 23.9 10.85 23.8 10.85 23.7 10.85 23.55 10.8 23.5 10.85 23.45 10.75 23.35 10.6 23.2 10.5 23.25 10.45 23.2 10.35 23.2 10.3 23.25 10.25 23.2 10.1 23.25 M8.4 20.65 L8.45 20.6 8.3 20.6 8.25 20.55 8.15 20.55 8.1 20.5 8.0 20.5 7.9 20.5 7.75 20.6 7.55 20.7 7.5 20.75 7.4 20.9 7.3 21.0 7.1 21.15 6.95 21.3 6.95 21.45 6.9 21.6 6.95 21.75 7.0 21.8 7.1 21.9 7.4 22.2 7.65 22.15 7.9 22.05 7.95 22.0 8.1 21.8 8.3 21.5 8.45 21.35 8.4 21.3 8.45 21.15 8.55 21.05 8.5 20.9 8.45 20.8 8.5 20.75 8.4 20.65 M10.1 18.75 L10.05 18.7 9.8 18.7 9.7 18.7 9.6 18.7 9.5 18.8 9.4 18.85 9.25 19.0 9.2 19.05 9.2 19.15 9.2 19.3 9.15 19.35 9.15 19.45 9.25 19.55 9.2 19.6 9.5 19.9 9.6 19.9 9.65 19.95 9.8 19.9 9.9 19.9 9.95 19.85 10.15 19.8 10.25 19.65 10.3 19.6 10.3 19.5 10.4 19.4 10.35 19.35 10.35 19.25 10.4 19.15 10.4 19.05 10.2 18.85 10.1 18.75 M7.2 10.35 L7.15 10.45 7.15 10.55 7.7 11.1 7.85 11.1 7.9 11.05 8.0 11.05 8.15 11.0 8.2 10.9 8.3 10.8 8.4 10.65 8.45 10.5 8.55 10.35 8.55 10.25 8.6 10.1 8.6 9.9 8.55 9.8 8.5 9.65 8.4 9.55 8.3 9.6 8.15 9.45 8.1 9.5 8.05 9.45 7.95 9.45 7.85 9.55 7.7 9.55 7.6 9.65 7.5 9.75 7.4 10.0 7.2 10.25 7.2 10.35 M19.3 9.15 L19.15 9.2 19.1 9.25 19.0 9.4 18.9 9.5 18.9 9.6 18.85 9.65 18.85 9.75 18.9 9.8 18.85 10.0 19.05 10.2 19.15 10.2 19.25 10.2 19.4 10.3 19.5 10.3 19.65 10.25 19.75 10.25 19.85 10.15 20.05 10.1 20.1 9.95 20.2 9.8 20.2 9.7 20.15 9.65 20.15 9.55 20.15 9.45 20.0 9.25 20.05 9.2 19.95 9.2 19.75 9.05 19.7 9.1 19.6 9.1 19.55 9.05 19.45 9.05 19.3 9.15 M11.0 11.3 L10.9 11.2 10.75 11.15 10.65 11.05 10.6 11.0 10.45 11.0 10.35 11.0 10.3 11.05 10.15 11.1 10.1 11.15 9.95 11.25 9.95 11.35 9.9 11.4 9.7 11.75 9.65 11.9 9.65 12.25 9.6 12.3 9.7 12.4 9.8 12.5 9.85 12.55 9.9 12.5 10.05 12.65 10.1 12.55 10.25 12.5 10.35 12.5 10.45 12.4 10.65 12.35 10.95 12.25 11.0 12.2 11.15 12.1 11.15 11.95 11.2 11.9 11.2 11.8 11.2 11.7 11.2 11.6 11.15 11.55 11.15 11.4 11.0 11.3 M12.45 8.9 L12.35 9.0 12.25 9.0 12.1 9.1 12.05 9.15 12.05 9.25 11.95 9.4 11.95 9.5 12.0 9.55 12.0 9.65 12.1 9.75 12.05 9.8 12.35 10.1 12.4 10.05 12.45 10.1 12.55 10.1 12.65 10.1 12.8 10.1 12.95 10.05 13.0 10.0 13.1 9.9 13.1 9.75 13.15 9.6 13.15 9.5 13.15 9.4 12.7 8.95 12.6 8.95 12.5 8.95 12.45 8.9 M10.75 7.4 L10.65 7.4 10.6 7.35 10.45 7.35 10.3 7.3 10.2 7.3 10.1 7.3 9.9 7.45 9.8 7.55 9.7 7.7 9.7 7.8 9.65 7.95 9.7 8.0 9.75 8.15 9.8 8.35 10.05 8.55 10.15 8.55 10.25 8.55 10.3 8.6 10.45 8.55 10.6 8.55 10.85 8.4 11.0 8.1 11.0 8.0 11.05 7.85 10.95 7.75 11.0 7.7 10.9 7.55 10.9 7.45 10.8 7.45 10.75 7.4 M21.4 23.8 L21.4 23.9 21.4 24.0 21.45 24.05 21.4 24.1 21.5 24.25 21.45 24.3 21.65 24.45 21.75 24.45 21.8 24.5 21.85 24.45 21.9 24.5 22.0 24.5 22.25 24.5 22.35 24.4 22.45 24.4 22.5 24.25 22.6 24.1 22.55 24.05 22.55 23.95 22.6 23.9 22.55 23.85 22.55 23.75 22.45 23.65 22.5 23.55 22.4 23.45 22.3 23.45 22.25 23.4 22.15 23.4 22.05 23.35 21.95 23.35 21.85 23.35 21.8 23.4 21.7 23.4 21.6 23.5 21.5 23.55 21.4 23.7 21.45 23.75 21.4 23.8 M20.3 21.6 L20.35 21.45 20.4 21.35 20.05 21.0 20.0 21.05 19.85 21.05 19.7 21.0 19.5 21.2 19.25 21.3 19.15 21.45 19.1 21.5 19.0 21.6 19.05 21.65 18.95 21.75 19.0 21.9 19.0 22.05 19.0 22.15 19.05 22.2 19.15 22.3 19.3 22.45 19.45 22.45 19.55 22.45 19.7 22.55 19.85 22.45 20.0 22.35 20.05 22.3 20.15 22.2 20.3 22.05 20.35 21.85 20.25 21.75 20.3 21.7 20.3 21.6 M22.7 18.9 L22.5 18.75 22.45 18.8 22.4 18.75 22.3 18.75 22.15 18.8 21.95 18.85 21.75 18.95 21.65 19.05 21.65 19.15 21.65 19.4 21.7 19.45 21.7 19.55 21.9 19.8 22.0 19.8 22.05 19.85 22.2 19.85 22.25 19.8 Q22.3 19.7 22.4 19.7 L22.45 19.65 22.55 19.55 22.55 19.45 22.75 19.15 22.7 19.1 22.75 19.05 22.7 19.0 22.7 18.9 M24.0 20.9 L23.9 20.9 23.8 20.9 23.7 20.95 23.6 21.05 23.4 21.25 23.35 21.45 23.4 21.5 23.4 21.6 23.4 21.7 23.7 22.05 23.8 22.0 23.95 22.05 24.05 22.05 24.1 22.0 24.25 21.9 24.4 21.8 24.5 21.7 24.5 21.6 24.6 21.5 24.6 21.35 24.5 21.25 24.5 21.15 24.25 20.95 24.15 20.95 24.1 20.9 24.0 20.9 M16.35 19.25 Q12.9 18.1 12.2 15.1 12.9 12.45 15.7 11.6 18.35 12.75 19.85 15.75 18.95 18.5 16.35 19.25 M10.55 4.65 Q19.4 12.1 27.25 21.35 L21.7 26.9 Q12.95 19.25 5.0 10.2 L10.55 4.65" transform="matrix(1.0, 0.0, 0.0, 1.0, -3.8, -3.4)"/><path fill="#733c2f" fill-rule="evenodd" stroke="none" d="M21.7 3.4 L22.05 3.55 28.3 9.8 28.45 10.15 28.3 10.5 23.05 15.75 28.3 21.0 28.45 21.35 28.3 21.7 22.05 27.95 21.7 28.1 21.35 27.95 16.1 22.7 10.9 27.9 10.55 28.05 10.2 27.9 3.95 21.65 3.8 21.3 3.95 20.95 9.15 15.75 3.95 10.55 3.8 10.2 3.95 9.85 10.2 3.6 10.55 3.45 Q10.75 3.45 10.9 3.6 L16.1 8.8 21.35 3.55 Q21.5 3.4 21.7 3.4 M23.9 9.1 L24.0 9.1 24.1 9.1 24.35 9.35 24.35 9.65 24.25 9.8 24.1 10.1 24.1 10.2 23.95 10.25 23.9 10.3 23.7 10.35 23.6 10.35 23.5 10.35 23.45 10.3 23.35 10.2 23.1 10.0 23.1 9.9 23.1 9.75 23.1 9.65 23.25 9.55 23.35 9.45 23.3 9.4 23.45 9.35 23.6 9.15 23.85 9.15 23.9 9.1 M22.35 6.7 L22.3 6.75 22.4 6.85 22.4 6.95 22.5 7.05 22.35 7.35 22.15 7.7 21.9 7.8 21.75 7.85 21.65 7.85 21.45 7.8 21.2 7.5 21.2 7.4 21.2 7.3 21.25 7.15 21.25 7.0 21.35 6.9 21.45 6.8 21.7 6.7 21.95 6.5 22.05 6.65 22.2 6.65 22.25 6.7 22.35 6.7 M21.35 11.75 L21.35 11.65 21.45 11.55 21.6 11.55 21.65 11.45 21.8 11.4 21.9 11.4 21.95 11.45 22.05 11.45 22.2 11.45 22.4 11.7 22.35 11.75 22.4 11.8 22.4 12.0 22.35 12.2 22.35 12.3 22.2 12.45 21.85 12.55 21.7 12.65 21.6 12.5 21.5 12.55 21.3 12.35 21.3 12.25 21.2 12.15 21.25 12.1 21.25 11.95 21.25 11.85 21.35 11.75 M20.7 15.65 L20.65 15.9 Q19.3 18.75 16.5 20.1 L16.3 20.1 16.1 20.05 Q13.15 18.25 11.35 15.3 L11.3 15.1 11.4 14.9 Q13.05 12.5 15.5 10.8 L15.7 10.7 15.95 10.8 Q18.35 12.65 20.6 15.45 L20.7 15.65 M27.25 10.15 L21.7 4.6 16.8 9.5 Q19.2 12.85 22.35 15.05 L27.25 10.15 M24.0 20.9 L24.1 20.9 24.15 20.95 24.25 20.95 24.5 21.15 24.5 21.25 24.6 21.35 24.6 21.5 24.5 21.6 24.5 21.7 24.4 21.8 24.25 21.9 24.1 22.0 24.05 22.05 23.95 22.05 23.8 22.0 23.7 22.05 23.4 21.7 23.4 21.6 23.4 21.5 23.35 21.45 23.4 21.25 23.6 21.05 23.7 20.95 23.8 20.9 23.9 20.9 24.0 20.9 M22.7 18.9 L22.7 19.0 22.75 19.05 22.7 19.1 22.75 19.15 22.55 19.45 22.55 19.55 22.45 19.65 22.4 19.7 Q22.3 19.7 22.25 19.8 L22.2 19.85 22.05 19.85 22.0 19.8 21.9 19.8 21.7 19.55 21.7 19.45 21.65 19.4 21.65 19.15 21.65 19.05 21.75 18.95 21.95 18.85 22.15 18.8 22.3 18.75 22.4 18.75 22.45 18.8 22.5 18.75 22.7 18.9 M20.3 21.6 L20.3 21.7 20.25 21.75 20.35 21.85 20.3 22.05 20.15 22.2 20.05 22.3 20.0 22.35 19.85 22.45 19.7 22.55 19.55 22.45 19.45 22.45 19.3 22.45 19.15 22.3 19.05 22.2 19.0 22.15 19.0 22.05 19.0 21.9 18.95 21.75 19.05 21.65 19.0 21.6 19.1 21.5 19.15 21.45 19.25 21.3 19.5 21.2 19.7 21.0 19.85 21.05 20.0 21.05 20.05 21.0 20.4 21.35 20.35 21.45 20.3 21.6 M21.4 23.8 L21.45 23.75 21.4 23.7 21.5 23.55 21.6 23.5 21.7 23.4 21.8 23.4 21.85 23.35 21.95 23.35 22.05 23.35 22.15 23.4 22.25 23.4 22.3 23.45 22.4 23.45 22.5 23.55 22.45 23.65 22.55 23.75 22.55 23.85 22.6 23.9 22.55 23.95 22.55 24.05 22.6 24.1 22.5 24.25 22.45 24.4 22.35 24.4 22.25 24.5 22.0 24.5 21.9 24.5 21.85 24.45 21.8 24.5 21.75 24.45 21.65 24.45 21.45 24.3 21.5 24.25 21.4 24.1 21.45 24.05 21.4 24.0 21.4 23.9 21.4 23.8 M10.75 7.4 L10.8 7.45 10.9 7.45 10.9 7.55 11.0 7.7 10.95 7.75 11.05 7.85 11.0 8.0 11.0 8.1 10.85 8.4 10.6 8.55 10.45 8.55 10.3 8.6 10.25 8.55 10.15 8.55 10.05 8.55 9.8 8.35 9.75 8.15 9.7 8.0 9.65 7.95 9.7 7.8 9.7 7.7 9.8 7.55 9.9 7.45 10.1 7.3 10.2 7.3 10.3 7.3 10.45 7.35 10.6 7.35 10.65 7.4 10.75 7.4 M12.45 8.9 L12.5 8.95 12.6 8.95 12.7 8.95 13.15 9.4 13.15 9.5 13.15 9.6 13.1 9.75 13.1 9.9 13.0 10.0 12.95 10.05 12.8 10.1 12.65 10.1 12.55 10.1 12.45 10.1 12.4 10.05 12.35 10.1 12.05 9.8 12.1 9.75 12.0 9.65 12.0 9.55 11.95 9.5 11.95 9.4 12.05 9.25 12.05 9.15 12.1 9.1 12.25 9.0 12.35 9.0 12.45 8.9 M11.0 11.3 L11.15 11.4 11.15 11.55 11.2 11.6 11.2 11.7 11.2 11.8 11.2 11.9 11.15 11.95 11.15 12.1 11.0 12.2 10.95 12.25 10.65 12.35 10.45 12.4 10.35 12.5 10.25 12.5 10.1 12.55 10.05 12.65 9.9 12.5 9.85 12.55 9.8 12.5 9.7 12.4 9.6 12.3 9.65 12.25 9.65 11.9 9.7 11.75 9.9 11.4 9.95 11.35 9.95 11.25 10.1 11.15 10.15 11.1 10.3 11.05 10.35 11.0 10.45 11.0 10.6 11.0 10.65 11.05 10.75 11.15 10.9 11.2 11.0 11.3 M19.3 9.15 L19.45 9.05 19.55 9.05 19.6 9.1 19.7 9.1 19.75 9.05 19.95 9.2 20.05 9.2 20.0 9.25 20.15 9.45 20.15 9.55 20.15 9.65 20.2 9.7 20.2 9.8 20.1 9.95 20.05 10.1 19.85 10.15 19.75 10.25 19.65 10.25 19.5 10.3 19.4 10.3 19.25 10.2 19.15 10.2 19.05 10.2 18.85 10.0 18.9 9.8 18.85 9.75 18.85 9.65 18.9 9.6 18.9 9.5 19.0 9.4 19.1 9.25 19.15 9.2 19.3 9.15 M7.2 10.35 L7.2 10.25 7.4 10.0 7.5 9.75 7.6 9.65 7.7 9.55 7.85 9.55 7.95 9.45 8.05 9.45 8.1 9.5 8.15 9.45 8.3 9.6 8.4 9.55 8.5 9.65 8.55 9.8 8.6 9.9 8.6 10.1 8.55 10.25 8.55 10.35 8.45 10.5 8.4 10.65 8.3 10.8 8.2 10.9 8.15 11.0 8.0 11.05 7.9 11.05 7.85 11.1 7.7 11.1 7.15 10.55 7.15 10.45 7.2 10.35 M10.1 18.75 L10.2 18.85 10.4 19.05 10.4 19.15 10.35 19.25 10.35 19.35 10.4 19.4 10.3 19.5 10.3 19.6 10.25 19.65 10.15 19.8 9.95 19.85 9.9 19.9 9.8 19.9 9.65 19.95 9.6 19.9 9.5 19.9 9.2 19.6 9.25 19.55 9.15 19.45 9.15 19.35 9.2 19.3 9.2 19.15 9.2 19.05 9.25 19.0 9.4 18.85 9.5 18.8 9.6 18.7 9.7 18.7 9.8 18.7 10.05 18.7 10.1 18.75 M8.4 20.65 L8.5 20.75 8.45 20.8 8.5 20.9 8.55 21.05 8.45 21.15 8.4 21.3 8.45 21.35 8.3 21.5 8.1 21.8 7.95 22.0 7.9 22.05 7.65 22.15 7.4 22.2 7.1 21.9 7.0 21.8 6.95 21.75 6.9 21.6 6.95 21.45 6.95 21.3 7.1 21.15 7.3 21.0 7.4 20.9 7.5 20.75 7.55 20.7 7.75 20.6 7.9 20.5 8.0 20.5 8.1 20.5 8.15 20.55 8.25 20.55 8.3 20.6 8.45 20.6 8.4 20.65 M10.1 23.25 L10.25 23.2 10.3 23.25 10.35 23.2 10.45 23.2 10.5 23.25 10.6 23.2 10.75 23.35 10.85 23.45 10.8 23.5 10.85 23.55 10.85 23.7 10.85 23.8 10.85 23.9 10.85 24.0 10.8 24.05 10.7 24.2 10.65 24.25 10.45 24.3 10.35 24.3 10.3 24.35 10.25 24.3 10.15 24.3 10.05 24.3 9.75 24.0 9.75 23.9 9.7 23.85 9.75 23.8 9.7 23.75 9.75 23.55 9.9 23.4 10.05 23.3 10.1 23.25 M5.0 21.3 L10.55 26.85 15.4 22.0 Q12.9 18.05 9.85 16.45 L5.0 21.3 M12.0 21.0 L12.1 21.0 12.15 21.05 12.3 21.05 12.4 21.05 12.55 21.2 12.5 21.25 12.55 21.3 12.55 21.45 12.55 21.55 12.55 21.75 12.45 21.85 12.35 22.0 12.3 22.05 12.1 22.1 11.9 22.1 11.8 22.1 11.5 21.8 11.55 21.75 11.5 21.7 11.5 21.6 11.5 21.5 11.5 21.25 11.55 21.2 11.7 21.1 11.8 21.0 12.0 21.0 M10.55 4.65 L5.0 10.2 Q12.95 19.25 21.7 26.9 L27.25 21.35 Q19.4 12.1 10.55 4.65 M16.35 19.25 Q18.95 18.5 19.85 15.75 18.35 12.75 15.7 11.6 12.9 12.45 12.2 15.1 12.9 18.1 16.35 19.25" transform="matrix(1.0, 0.0, 0.0, 1.0, -3.8, -3.4)"/></g></defs></svg>