<?xml version="1.0" encoding="UTF-8" standalone="no"?>
<svg xmlns:xlink="http://www.w3.org/1999/xlink" height="34" width="34" xmlns="http://www.w3.org/2000/svg">
  <g transform="matrix(1.0, 0.0, 0.0, 1.0, 1, 1)">
    <use height="34.0" transform="matrix(1.0, 0.0, 0.0, 1.0, -1.0, -1.0)" width="34.0" xlink:href="#sprite0"/>
  </g>
  <defs>
    <g id="sprite0" transform="matrix(1.0, 0.0, 0.0, 1.0, 1.0, 1.0)">
      <use height="34.0" transform="matrix(1.0, 0.0, 0.0, 1.0, -1.0, -1.0)" width="34.0" xlink:href="#shape0"/>
    </g>
    <g id="shape0" transform="matrix(1.0, 0.0, 0.0, 1.0, 1.0, 1.0)">
      <path d="M0.0 18.55 L31.95 0.1 32.0 0.0 31.9 0.2 0.0 26.95 0.0 18.55 M5.15 32.0 L31.9 0.2 13.6 32.0 5.15 32.0 M20.4 32.0 L32.0 0.0 26.4 32.0 20.4 32.0 M0.0 11.6 L0.0 5.65 32.0 0.0 0.0 11.6" fill="#cccc00" fill-rule="evenodd" stroke="none"/>
      <path d="M0.0 26.95 L31.9 0.2 32.0 0.0 31.95 0.1 0.0 18.55 0.0 11.6 32.0 0.0 0.0 5.65 0.0 0.0 32.0 0.0 20.4 32.0 13.6 32.0 31.9 0.2 5.15 32.0 0.0 32.0 0.0 26.95 M32.0 0.0 L32.0 32.0 26.4 32.0 32.0 0.0" fill="#faf8c3" fill-rule="evenodd" stroke="none"/>
      <path d="M0.0 18.55 L0.0 26.95 0.0 32.0 5.15 32.0 13.6 32.0 20.4 32.0 26.4 32.0 32.0 32.0 32.0 0.0 0.0 0.0 0.0 5.65 0.0 11.6 0.0 18.55 Z" fill="none" stroke="#733c2f" stroke-linecap="round" stroke-linejoin="round" stroke-width="2.0"/>
      <path d="M26.05 7.85 Q26.65 9.05 26.25 9.55 L26.5 9.8 27.15 10.3 Q27.85 10.75 28.15 12.1 28.45 13.45 27.9 14.25 L27.15 16.4 Q27.75 17.6 27.2 18.35 26.7 19.05 25.25 19.0 L24.35 19.95 Q22.8 21.35 21.05 21.4 L23.7 24.0 Q24.1 24.4 25.15 27.6 L26.2 31.95 19.2 31.95 18.85 31.3 18.65 30.75 18.3 30.05 Q17.95 29.6 17.95 29.35 17.9 28.35 17.25 27.55 L16.15 26.45 16.3 29.25 Q16.35 30.9 15.75 31.95 L10.25 31.95 10.7 31.6 10.5 30.6 10.6 29.15 Q10.05 27.45 10.05 26.25 10.05 24.1 10.65 22.5 L10.75 22.3 9.9 22.2 Q10.65 20.85 9.35 19.65 8.0 18.35 7.8 17.85 7.6 17.4 7.75 17.1 L7.05 16.3 6.2 15.75 Q6.05 15.6 6.05 15.15 L9.8 9.7 Q10.45 8.45 12.9 8.3 L14.35 8.45 14.7 8.25 15.05 8.1 15.3 7.0 15.35 6.85 Q14.3 6.65 13.6 5.8 13.0 5.1 13.0 4.6 L13.15 3.15 Q13.15 0.95 16.75 1.05 20.4 1.15 20.4 3.15 L20.15 4.3 20.25 4.4 20.3 4.9 20.0 6.65 20.3 6.85 20.75 7.2 23.25 6.75 Q25.45 6.65 26.05 7.85 M21.5 15.05 Q20.95 15.5 20.55 16.7 20.2 17.85 20.45 17.85 L21.9 15.9 21.65 14.95 21.5 15.05 M13.85 3.7 L14.55 3.0 Q14.55 2.55 14.0 2.75 13.45 2.95 13.45 3.3 13.45 3.7 13.85 3.7 M17.05 2.6 Q16.7 2.3 16.25 2.3 15.8 2.3 15.8 2.7 L15.85 3.05 16.7 3.3 17.25 2.95 17.05 2.6 M12.8 13.4 L12.8 13.35 12.25 13.35 Q12.05 16.0 11.4 16.05 L11.9 16.55 12.0 16.75 12.3 17.25 12.4 17.4 12.95 16.1 13.45 15.2 12.8 13.4" fill="#733c2f" fill-rule="evenodd" stroke="none"/>
      <path d="M17.05 2.6 L17.25 2.95 16.7 3.3 15.85 3.05 15.8 2.7 Q15.8 2.3 16.25 2.3 16.7 2.3 17.05 2.6 M13.85 3.7 Q13.45 3.7 13.45 3.3 13.45 2.95 14.0 2.75 14.55 2.55 14.55 3.0 L13.85 3.7" fill="#faf8c3" fill-rule="evenodd" stroke="none"/>
      <path d="M2.65 25.3 L11.9 20.7 11.9 24.15 5.65 29.3 0.7 29.45 2.65 25.3" fill="#733c2f" fill-rule="evenodd" stroke="none"/>
    </g>
  </defs>
</svg>
