<svg xmlns="http://www.w3.org/2000/svg" xmlns:svg="http://www.w3.org/2000/svg" id="svg13" width="34" height="34" version="1.1" viewBox="0 0 34 34" xml:space="preserve"><g id="use302-0" transform="translate(1,1)" style="fill:maroon"><g id="use586-6"><g id="use608-8" transform="translate(-1,-1)"><path id="path612-7" fill="#cc0" fill-rule="evenodd" stroke="none" d="M 0,32 V 0 H 32 V 32 H 0" transform="translate(1,1)"/><path id="path614-5" fill="none" stroke="#733c2f" stroke-linecap="round" stroke-linejoin="round" stroke-width="2" d="M 0,32 V 0 h 32 v 32 z" transform="translate(1,1)"/></g></g></g><path style="fill:#cc0;fill-opacity:1;fill-rule:evenodd" id="path5" d="m 29.675612,21.548899 c -0.05513,0.42329 -0.129623,0.888411 -0.314582,1.25833 -0.02345,0.04689 0.01658,0.107551 0,0.157291 -0.02199,0.06596 -0.07907,0.132363 -0.104861,0.209721 -0.04179,0.125378 0,0.338539 0,0.471874 0,0.08334 -0.0265,0.235091 0,0.314583 0.0078,0.02345 0.04462,0.02898 0.05243,0.05243 0.01105,0.03316 -0.01105,0.0717 0,0.104861 0.06154,0.184628 0.230415,0.355967 0.314583,0.524304 0.02688,0.05377 0.02555,0.155956 0.05243,0.209722 0.02783,0.05565 0.07703,0.04921 0.104861,0.10486 0.07849,0.156976 0.127812,0.273628 0.314583,0.367013 0.03126,0.01563 0.08015,-0.02472 0.10486,0 0.01236,0.01236 -0.01236,0.04007 0,0.05243 0.03533,0.03533 0.339124,0.05243 0.419444,0.05243 0.127048,0 0.591249,0.04517 0.681595,0 0.06085,-0.03043 0.174417,-0.08668 0.209722,-0.157291 0.0078,-0.01563 -0.01236,-0.04007 0,-0.05243 0.01236,-0.01236 0.04007,0.01236 0.05243,0 0.01236,-0.01236 -0.01236,-0.04007 0,-0.05243 0.01236,-0.01236 0.04007,0.01236 0.05243,0 0.02622,-0.02622 -0.02622,-0.131076 0,-0.157291 0.01236,-0.01236 0.04007,0.01236 0.05243,0 0.05243,-0.05243 -0.05243,-0.262152 0,-0.314583 0.01236,-0.01236 0.04007,0.01236 0.05243,0 0.02424,-0.02424 -0.01583,-0.125635 0,-0.157291 0.110127,-0.220252 0.04741,-0.48191 -0.05243,-0.681595 -0.02688,-0.05377 -0.02555,-0.155956 -0.05243,-0.209722 -0.04246,-0.08491 -0.1287,-0.176376 -0.157292,-0.262152 -0.01105,-0.03316 0.01105,-0.0717 0,-0.104861 -0.0174,-0.05221 -0.08746,-0.105079 -0.10486,-0.157291 -0.01105,-0.03316 0.0085,-0.07095 0,-0.104861 -0.03031,-0.121217 -0.17295,-0.204265 -0.209722,-0.314582 -0.01105,-0.03316 0.01105,-0.0717 0,-0.104861 -0.02298,-0.06894 -0.193773,-0.266737 -0.209722,-0.314583 -0.01105,-0.03316 0.01563,-0.0736 0,-0.10486 -0.0078,-0.01563 -0.04007,0.01236 -0.05243,0 -0.02472,-0.02472 0.01563,-0.0736 0,-0.104861 -0.03823,-0.07647 -0.08387,-0.08387 -0.104861,-0.104861 -0.02472,-0.02472 0.02472,-0.08014 0,-0.104861 -0.01236,-0.01236 -0.04462,0.01563 -0.05243,0 -0.01563,-0.03126 0.01105,-0.0717 0,-0.104861 -0.01336,-0.04007 -0.08562,-0.118805 -0.104861,-0.157291 -0.04161,-0.08322 -0.175123,-0.122692 -0.209722,-0.157291 -0.02622,-0.02622 -0.02622,-0.07865 -0.05243,-0.104861 -0.08646,-0.08646 -0.438745,-0.05243 -0.576735,-0.05243 -0.06395,0 -0.254026,-0.03028 -0.314582,0 -0.129577,0.06479 -0.03133,0.05243 0,0.05243"/><path style="opacity:1;fill:#733c2f;fill-opacity:1;fill-rule:evenodd;stroke-width:.0663072" id="path7" d="M 20.057926,31.288629 C 17.074533,31.004916 14.425551,29.69752 12.195786,27.408299 10.376452,25.540452 9.2427817,23.439898 8.0677505,19.759543 7.44166,17.798545 7.368008,17.540571 7.4277933,17.518031 c 0.029499,-0.01112 0.5098827,0.114528 1.0675198,0.279222 0.5576371,0.164694 1.0226779,0.290651 1.0334237,0.279905 C 9.551386,18.054508 8.3994385,15.551572 5.0388324,8.3215527 2.1590843,2.1260535 2.4106459,2.6960995 2.5800431,2.749864 2.6532111,2.773087 5.6310059,4.0989364 9.1973639,5.6961964 17.98815,9.6333147 18.06592,9.6675447 18.088997,9.6098467 c 0.01116,-0.0279 -0.11408,-0.492374 -0.278308,-1.03217 -0.164227,-0.539796 -0.28442,-0.995622 -0.267095,-1.012947 0.05074,-0.05074 3.342765,0.960018 4.329378,1.329259 2.678883,1.002575 4.486319,2.0987383 6.067158,3.6795763 2.569574,2.569574 3.82695,5.740053 3.665075,9.241501 -0.05187,1.122072 -0.185598,1.895332 -0.481605,2.784902 -0.48611,1.46087 -1.249048,2.684129 -2.378508,3.813588 -2.244571,2.244572 -5.162454,3.210264 -8.687166,2.875073 z m 3.166948,-1.812221 c 2.963545,-0.546184 4.979187,-2.075992 5.958846,-4.522573 0.531978,-1.328555 0.813625,-3.272412 0.661291,-4.564076 -0.266769,-2.261969 -1.120904,-4.257037 -2.472466,-5.77513 -0.448576,-0.503846 -1.704699,-1.647484 -1.754656,-1.597527 -0.01658,0.01658 0.0609,0.501248 0.172189,1.077032 0.111288,0.575785 0.202342,1.103343 0.202342,1.172352 0,0.08103 -0.144732,-0.05666 -0.408666,-0.388791 -1.094719,-1.37759 -2.902338,-2.856808 -4.647258,-3.802965 l -0.513881,-0.278644 3.9e-5,0.320952 c 2.1e-5,0.176524 0.03122,0.86911 0.06934,1.53908 0.03812,0.669969 0.05665,1.230777 0.04119,1.246239 -0.01546,0.01546 -2.792597,-1.243569 -6.171411,-2.797845 C 10.982954,9.5502357 8.1942931,8.2882297 8.1647447,8.3000537 c -0.029548,0.01182 1.2495896,2.7516973 2.8425293,6.0886073 1.592939,3.336909 2.893515,6.071911 2.890168,6.077783 -0.01,0.01748 -2.63711,-0.105142 -2.907025,-0.135686 -0.143707,-0.01626 -0.248652,5.07e-4 -0.248652,0.03973 0,0.141976 0.886151,1.557288 1.438254,2.297101 0.655792,0.878755 2.009726,2.26639 2.723632,2.791428 0.26501,0.194899 0.472034,0.364165 0.460053,0.376146 -0.01198,0.01198 -0.557027,-0.07852 -1.211215,-0.201116 -0.654188,-0.122594 -1.200657,-0.212674 -1.214374,-0.200179 -0.04065,0.03702 0.838538,0.994584 1.386293,1.509872 1.342909,1.263313 3.261333,2.176416 5.401982,2.571157 0.809971,0.149361 2.585195,0.129829 3.498484,-0.03849 z"/><path style="opacity:.7;fill:#733c2f;fill-opacity:1;fill-rule:evenodd;stroke-width:.0663072" id="path8" d="m 19.892158,29.479864 c -2.598451,-0.46104 -4.587561,-1.523394 -6.266766,-3.346985 -0.278686,-0.302649 -0.493615,-0.563358 -0.477618,-0.579355 0.02317,-0.02317 1.898776,0.291858 2.384686,0.400529 0.211043,0.0472 0.120851,-0.07226 -0.232075,-0.307396 -0.73989,-0.492939 -1.809709,-1.501094 -2.623509,-2.472293 -0.519761,-0.620289 -1.436241,-1.960116 -1.709217,-2.498752 l -0.157417,-0.310614 0.214413,0.03067 c 0.274209,0.03923 2.925651,0.150306 2.955321,0.12381 0.01227,-0.01096 -1.267007,-2.723957 -2.842842,-6.028885 C 9.5612999,11.185668 8.2868601,8.4667572 8.3050458,8.4485716 c 0.018186,-0.018186 2.6700232,1.180319 5.8929722,2.6633434 3.22295,1.483025 5.990607,2.752995 6.150351,2.822155 l 0.290442,0.125747 -0.04075,-0.647841 c -0.02241,-0.356313 -0.06037,-1.061967 -0.08435,-1.568121 l -0.0436,-0.92028 0.490129,0.257157 c 1.687715,0.885496 3.669357,2.547659 4.751605,3.985555 0.201043,0.267109 0.378764,0.472422 0.394936,0.45625 0.0285,-0.0285 -0.343993,-2.130134 -0.423808,-2.391179 -0.05378,-0.175896 0.49956,0.283682 1.273401,1.057626 1.316052,1.316229 2.246695,3.11651 2.690858,5.205331 0.117216,0.551243 0.147872,0.910248 0.147214,1.723987 -0.0013,1.602767 -0.278688,2.904731 -0.884957,4.153616 -1.064595,2.193016 -2.954443,3.530003 -5.715064,4.043165 -0.755833,0.140499 -2.664494,0.177941 -3.302276,0.06478 z m 3.978431,-2.198185 c 0.581371,-0.13655 1.395374,-0.539464 1.941059,-0.960783 0.68961,-0.532441 1.273693,-1.385366 1.609859,-2.350846 0.188474,-0.541301 0.209745,-1.805711 0.04157,-2.470768 -0.34344,-1.35812 -1.181562,-2.711077 -2.496857,-4.030607 -0.633287,-0.635326 -1.283365,-1.190392 -1.334392,-1.139364 -0.02014,0.02013 -0.0085,0.583848 0.02595,1.252694 0.03441,0.668846 0.05689,1.223239 0.04995,1.231984 -0.0069,0.0087 -2.098324,-0.983637 -4.64753,-2.205292 -2.549205,-1.221656 -4.653974,-2.213473 -4.677264,-2.204038 -0.02329,0.0094 0.981649,2.085435 2.233196,4.613333 l 2.27554,4.596178 -0.345176,-0.03562 c -0.886146,-0.09144 -2.234931,-0.116625 -2.234931,-0.04173 0,0.153149 1.89976,1.967668 2.519674,2.406617 0.838181,0.5935 1.813472,1.073438 2.58598,1.272553 0.757073,0.195136 1.785056,0.222662 2.453366,0.06569 z"/><path style="opacity:1;fill:#fff;fill-opacity:1;fill-rule:evenodd;stroke-width:.0663072" id="path9" d="m 21.648169,27.217566 c -1.174679,-0.258158 -2.559896,-1.053888 -3.828543,-2.199287 -0.718813,-0.648981 -1.427051,-1.428869 -1.327677,-1.461994 0.03545,-0.01182 0.598672,0.0054 1.251604,0.0382 0.652933,0.03282 1.196049,0.05223 1.206925,0.04313 0.01088,-0.0091 -0.981246,-2.039005 -2.204714,-4.5109 -1.223469,-2.471896 -2.224489,-4.51975 -2.224489,-4.550787 0,-0.07692 -0.116936,-0.131172 4.7991,2.226624 2.402457,1.15225 4.395987,2.095 4.430068,2.095 0.03412,0 0.04642,-0.12663 0.02737,-0.281806 -0.08677,-0.706982 -0.113878,-2.17156 -0.04019,-2.17156 0.147551,0 2.031578,1.965043 2.447577,2.552827 0.520058,0.734813 1.023366,1.764061 1.199605,2.45315 0.162666,0.636018 0.177779,1.684053 0.03255,2.257306 -0.139952,0.552424 -0.562482,1.383434 -0.941835,1.852349 -0.625819,0.773572 -1.670446,1.437683 -2.604941,1.656067 -0.52497,0.122681 -1.667911,0.123547 -2.22242,0.0017 z"/></svg>