<?xml version="1.0" encoding="UTF-8" standalone="no"?>
<svg xmlns:xlink="http://www.w3.org/1999/xlink" height="34" width="34" xmlns="http://www.w3.org/2000/svg">
  <g transform="matrix(1.0, 0.0, 0.0, 1.0, 1, 1)">
    <use height="34.0" transform="matrix(1.0, 0.0, 0.0, 1.0, -1.0, -1.0)" width="34.0" xlink:href="#sprite0"/>
  </g>
  <defs>
    <g id="sprite0" transform="matrix(1.0, 0.0, 0.0, 1.0, 1.0, 1.0)">
      <use height="34.0" transform="matrix(1.0, 0.0, 0.0, 1.0, -1.0, -1.0)" width="34.0" xlink:href="#sprite1"/>
      <use height="34.0" transform="matrix(1.0, 0.0, 0.0, 1.0, -1.0, -1.0)" width="34.0" xlink:href="#shape1"/>
    </g>
    <g id="sprite1" transform="matrix(1.0, 0.0, 0.0, 1.0, 1.0, 1.0)">
      <use height="34.0" transform="matrix(1.0, 0.0, 0.0, 1.0, -1.0, -1.0)" width="34.0" xlink:href="#shape0"/>
    </g>
    <g id="shape0" transform="matrix(1.0, 0.0, 0.0, 1.0, 1.0, 1.0)">
      <path d="M0.0 32.0 L0.0 0.0 32.0 0.0 32.0 32.0 0.0 32.0" fill="#cccc00" fill-rule="evenodd" stroke="none"/>
      <path d="M0.0 32.0 L0.0 0.0 32.0 0.0 32.0 32.0 0.0 32.0 Z" fill="none" stroke="#733c2f" stroke-linecap="round" stroke-linejoin="round" stroke-width="2.0"/>
    </g>
    <g id="shape1" transform="matrix(1.0, 0.0, 0.0, 1.0, 1.0, 1.0)">
      <path d="M29.5 0.0 L29.5 32.0 29.0 32.0 29.0 0.0 29.5 0.0 M27.5 0.0 L27.5 32.0 25.4 32.0 25.4 0.0 27.5 0.0 M7.4 0.0 L7.4 32.0 5.25 32.0 5.25 0.0 7.4 0.0 M3.5 0.0 L3.5 32.0 3.0 32.0 3.0 0.0 3.5 0.0 M24.4 32.0 L8.4 32.0 8.4 0.0 24.4 0.0 24.4 32.0" fill="#fcf9e0" fill-rule="evenodd" stroke="none"/>
      <path d="M22.25 4.4 L21.4 3.55 22.45 2.8 23.15 3.5 25.1 1.5 26.15 2.25 24.25 4.6 25.35 5.7 24.55 6.9 23.4 5.65 22.85 5.05 22.25 4.4 M12.65 5.95 L12.65 6.25 Q12.75 7.05 13.15 7.75 L12.65 8.6 Q11.4 10.95 10.8 10.95 L10.6 10.95 10.1 12.05 Q9.4 13.05 8.25 13.05 7.4 13.05 6.95 12.15 L6.7 11.25 6.8 10.7 6.6 10.25 6.35 8.85 Q6.35 7.3 7.25 7.2 L7.25 7.1 Q7.25 6.3 7.9 6.4 L9.15 6.65 Q9.7 6.85 9.7 7.45 9.7 8.0 9.25 8.15 L9.5 8.45 10.7 6.45 10.8 6.25 Q11.5 4.95 12.65 4.95 L12.8 4.95 Q12.65 5.45 12.65 5.95" fill="#733c2f" fill-rule="evenodd" stroke="none"/>
      <path d="M22.25 4.4 L22.85 5.05 23.4 5.65 19.4 10.45 18.45 9.6 17.65 8.95 22.25 4.4 M22.85 5.05 L18.45 9.6 22.85 5.05" fill="#fcf9e0" fill-rule="evenodd" stroke="none"/>
      <path d="M18.45 9.6 L16.65 11.45" fill="none" stroke="#ff0000" stroke-linecap="round" stroke-linejoin="round" stroke-width="0.05"/>
      <path d="M23.4 5.65 L19.4 10.45 18.45 9.6 22.85 5.05 M22.25 4.4 L17.65 8.95 18.45 9.6 Z" fill="none" stroke="#733c2f" stroke-linecap="round" stroke-linejoin="round" stroke-width="0.05"/>
      <path d="M21.4 19.3 Q22.85 22.8 22.85 23.55 L22.65 28.35 24.0 29.7 Q25.35 30.9 25.35 31.45 25.35 31.95 24.75 32.45 24.1 33.0 23.15 33.0 21.75 33.0 20.9 31.55 20.3 30.55 20.2 29.65 L20.2 29.4 Q20.45 28.85 17.4 22.65 L17.15 22.4 Q16.5 21.4 16.3 20.3 L15.75 20.65 Q13.8 21.85 11.1 22.55 12.05 24.1 12.25 25.85 12.35 26.55 13.65 29.05 13.65 29.7 13.05 30.45 12.25 31.5 10.75 31.5 8.2 31.5 7.5 30.65 7.15 30.2 7.3 29.7 7.3 28.85 7.55 28.55 7.95 27.95 9.5 27.5 L8.0 24.85 Q6.75 22.45 6.75 22.05 6.75 20.0 10.1 18.2 12.8 16.75 13.95 16.75 14.65 16.75 14.65 17.35 L14.55 17.5 14.8 17.5 15.95 17.7 18.25 15.75 Q21.0 18.4 21.4 19.3 M14.45 18.9 L14.3 19.0 14.45 19.0 14.45 18.9" fill="#733c2f" fill-rule="evenodd" stroke="none"/>
      <path d="M18.95 7.4 Q20.35 9.15 20.35 9.65 L20.1 10.5 Q19.75 11.1 19.1 10.7 L19.35 13.25 Q19.35 14.6 18.95 15.75 L18.5 16.65 18.55 16.75 18.9 18.15 Q18.9 19.65 16.05 19.65 14.55 19.65 13.55 18.8 12.85 18.15 12.85 17.65 L12.8 15.8 12.9 14.85 12.55 13.8 11.95 9.7 Q11.95 7.9 12.25 7.15 13.0 5.25 15.55 5.25 17.25 5.25 18.95 7.4" fill="#733c2f" fill-rule="evenodd" stroke="none"/>
      <path d="M22.85 9.85 Q24.25 8.75 25.3 9.3 L25.4 10.65 25.7 11.1 25.8 12.1 25.85 13.55 Q25.2 16.0 23.95 18.1 L22.25 18.35 20.9 17.05 19.7 14.8 17.85 13.35 Q15.5 10.2 17.8 9.35 20.1 8.6 21.5 10.55 21.75 10.85 22.0 12.4 L22.7 13.7 23.6 13.25 23.6 13.15 23.6 13.05 23.45 12.85 22.8 12.5 Q22.3 12.25 22.55 11.9 L22.85 9.85" fill="#733c2f" fill-rule="evenodd" stroke="none"/>
      <path d="M15.1 8.55 Q15.65 8.55 15.65 8.1 15.65 7.65 14.95 7.5 14.2 7.4 14.2 7.95 14.2 8.55 15.1 8.55 M16.6 8.1 L17.1 8.45 17.5 8.35 17.95 8.15 18.2 7.75 18.15 7.5 18.0 7.55 Q17.85 7.25 17.35 7.35 16.6 7.5 16.6 8.1 M18.7 8.45 Q17.7 9.5 16.2 9.5 14.75 9.5 13.7 8.45 12.65 7.45 12.65 5.95 12.65 4.5 13.7 3.45 14.75 2.4 16.2 2.4 17.7 2.4 18.7 3.45 19.75 4.5 19.75 5.95 19.75 7.45 18.7 8.45" fill="#733c2f" fill-rule="evenodd" stroke="none"/>
      <path d="M16.6 8.1 Q16.6 7.5 17.35 7.35 17.85 7.25 18.0 7.55 L18.15 7.5 18.2 7.75 17.95 8.15 17.5 8.35 17.1 8.45 16.6 8.1 M15.1 8.55 Q14.2 8.55 14.2 7.95 14.2 7.4 14.95 7.5 15.65 7.65 15.65 8.1 15.65 8.55 15.1 8.55" fill="#fcf9e0" fill-rule="evenodd" stroke="none"/>
      <path d="M32.0 0.0 L32.0 32.0 0.0 32.0 0.0 0.0 32.0 0.0 Z" fill="none" stroke="#733c2f" stroke-linecap="round" stroke-linejoin="round" stroke-width="2.0"/>
    </g>
  </defs>
</svg>
