<?xml version="1.0" encoding="UTF-8" standalone="no"?>
<svg xmlns:xlink="http://www.w3.org/1999/xlink" height="34" width="34" xmlns="http://www.w3.org/2000/svg">
  <g transform="matrix(1.0, 0.0, 0.0, 1.0, 1, 1)">
    <use height="34.0" transform="matrix(1.0, 0.0, 0.0, 1.0, -1.0, -1.0)" width="34.0" xlink:href="#sprite0"/>
  </g>
  <defs>
    <g id="sprite0" transform="matrix(1.0, 0.0, 0.0, 1.0, 1.0, 1.0)">
      <use height="34.0" transform="matrix(1.0, 0.0, 0.0, 1.0, -1.0, -1.0)" width="34.0" xlink:href="#sprite1"/>
      <use height="30.05" transform="matrix(1.0, 0.0, 0.0, 1.0, 0.0, 0.9)" width="31.0" xlink:href="#shape1"/>
    </g>
    <g id="sprite1" transform="matrix(1.0, 0.0, 0.0, 1.0, 1.0, 1.0)">
      <use height="34.0" transform="matrix(1.0, 0.0, 0.0, 1.0, -1.0, -1.0)" width="34.0" xlink:href="#shape0"/>
    </g>
    <g id="shape0" transform="matrix(1.0, 0.0, 0.0, 1.0, 1.0, 1.0)">
      <path d="M0.0 32.0 L0.0 0.0 32.0 0.0 32.0 32.0 0.0 32.0" fill="#cccc00" fill-rule="evenodd" stroke="none"/>
      <path d="M0.0 32.0 L0.0 0.0 32.0 0.0 32.0 32.0 0.0 32.0 Z" fill="none" stroke="#733c2f" stroke-linecap="round" stroke-linejoin="round" stroke-width="2.0"/>
    </g>
    <g id="shape1" transform="matrix(1.0, 0.0, 0.0, 1.0, 0.0, -0.9)">
      <path d="M21.8 24.6 L24.75 26.15 24.85 26.1 24.95 26.0 25.05 25.95 25.0 25.85 25.05 25.8 24.95 25.7 24.95 25.75 22.1 23.8 22.05 23.75 22.05 23.65 18.9 22.05 19.25 20.25 26.75 23.9 29.45 28.55 24.1 28.6 20.75 26.6 21.0 25.4 19.9 23.7 20.5 23.95 21.2 24.35 21.55 24.55 21.8 24.6" fill="#fcf9e0" fill-rule="evenodd" stroke="none"/>
      <path d="M20.5 23.95 L19.9 23.7 21.0 25.4 20.75 26.6 24.1 28.6 29.45 28.55 26.75 23.9 19.25 20.25 18.9 22.05 22.05 23.65 22.05 23.75 22.1 23.8 24.95 25.75 24.95 25.7 25.05 25.8 25.0 25.85 25.05 25.95 24.95 26.0 24.85 26.1 24.75 26.15 21.8 24.6 20.5 23.95 M28.4 23.05 L31.0 29.2 31.0 29.4 30.95 29.5 30.85 29.55 24.4 30.35 24.35 30.4 24.3 30.3 20.5 28.05 20.55 27.95 18.9 26.75 18.95 26.75 19.5 25.7 17.65 23.65 19.0 23.0 17.65 22.05 18.6 19.45 19.5 18.9 28.2 23.0 28.4 23.05" fill="#733c2f" fill-rule="evenodd" stroke="none"/>
      <path d="M18.55 23.55 L19.65 24.65 19.95 25.35 19.65 26.05 18.55 27.15 18.2 27.4 18.5 27.7 18.8 28.4 18.5 29.1 16.95 30.65 16.25 30.95 Q15.85 30.95 15.55 30.65 L14.0 29.1 Q13.7 28.8 13.7 28.4 13.7 28.0 14.0 27.7 L15.55 26.15 15.95 25.9 15.75 25.35 Q15.75 24.95 16.05 24.65 L17.15 23.55 Q17.45 23.25 17.85 23.25 18.25 23.25 18.55 23.55" fill="#733c2f" fill-rule="evenodd" stroke="none"/>
      <path d="M14.3 8.75 L16.45 11.7 16.45 11.9 16.35 12.05 14.45 13.55 18.15 18.05 18.1 18.15 18.8 19.0 17.3 21.35 17.3 25.1 15.4 26.3 15.1 26.7 9.15 17.4 7.2 18.85 7.15 18.85 7.0 18.9 6.85 18.85 4.55 15.8 4.6 15.75 4.6 15.65 4.65 15.6 4.75 15.45 4.7 15.55 7.1 13.8 3.5 8.6 3.05 9.0 3.0 8.95 2.85 9.0 2.7 8.9 0.0 5.2 0.05 5.15 0.0 5.0 0.05 4.85 5.25 0.95 5.25 0.9 5.3 0.9 5.45 0.95 5.6 1.0 8.25 4.7 8.35 5.0 8.3 5.1 8.3 5.15 7.7 5.55 11.6 10.35 13.95 8.65 13.95 8.6 14.1 8.65 14.15 8.65 14.3 8.75 M4.55 7.8 L8.0 13.1 10.55 11.25 6.7 6.25 4.55 7.8 M12.15 15.1 L16.25 20.6 17.35 19.15 13.45 14.2 12.15 15.1 M16.0 22.0 L11.35 15.8 9.95 16.7 15.95 25.6 16.7 24.55 16.45 22.55 16.25 22.25 16.0 22.0" fill="#733c2f" fill-rule="evenodd" stroke="none"/>
      <path d="M16.0 22.0 L16.25 22.25 16.45 22.55 16.7 24.55 15.95 25.6 9.95 16.7 11.35 15.8 16.0 22.0 M12.15 15.1 L13.45 14.2 17.35 19.15 16.25 20.6 12.15 15.1" fill="#fcf9e0" fill-rule="evenodd" stroke="none"/>
      <path d="M16.7 29.35 L16.15 29.9 14.6 28.35 15.15 27.8 16.7 29.35" fill="#733c2f" fill-rule="evenodd" stroke="none"/>
      <path d="M15.15 27.8 L16.15 26.8 17.7 28.35 16.7 29.35 15.15 27.8" fill="#fcf9e0" fill-rule="evenodd" stroke="none"/>
      <path d="M17.75 24.2 L18.85 25.3 17.75 26.4 16.65 25.3 17.75 24.2" fill="#fcf9e0" fill-rule="evenodd" stroke="none"/>
    </g>
  </defs>
</svg>
