<?xml version="1.0" encoding="UTF-8" standalone="no"?>
<svg xmlns:xlink="http://www.w3.org/1999/xlink" height="34" width="34" xmlns="http://www.w3.org/2000/svg">
  <g transform="matrix(1.0, 0.0, 0.0, 1.0, 1, 1)">
    <use height="34.0" transform="matrix(1.0, 0.0, 0.0, 1.0, -1.0, -1.0)" width="34.0" xlink:href="#sprite0"/>
  </g>
  <defs>
    <g id="sprite0" transform="matrix(1.0, 0.0, 0.0, 1.0, 1.0, 1.0)">
      <use height="34.0" transform="matrix(1.0, 0.0, 0.0, 1.0, -1.0, -1.0)" width="34.0" xlink:href="#sprite1"/>
      <use height="27.1" transform="matrix(1.0, 0.0, 0.0, 1.0, 2.6, 2.4)" width="26.9" xlink:href="#shape1"/>
    </g>
    <g id="sprite1" transform="matrix(1.0, 0.0, 0.0, 1.0, 1.0, 1.0)">
      <use height="34.0" transform="matrix(1.0, 0.0, 0.0, 1.0, -1.0, -1.0)" width="34.0" xlink:href="#shape0"/>
    </g>
    <g id="shape0" transform="matrix(1.0, 0.0, 0.0, 1.0, 1.0, 1.0)">
      <path d="M0.0 32.0 L0.0 0.0 32.0 0.0 32.0 32.0 0.0 32.0" fill="#cccc00" fill-rule="evenodd" stroke="none"/>
      <path d="M0.0 32.0 L0.0 0.0 32.0 0.0 32.0 32.0 0.0 32.0 Z" fill="none" stroke="#733c2f" stroke-linecap="round" stroke-linejoin="round" stroke-width="2.0"/>
    </g>
    <g id="shape1" transform="matrix(1.0, 0.0, 0.0, 1.0, -2.6, -2.4)">
      <path d="M7.35 25.7 Q3.55 21.9 3.55 16.5 3.55 11.15 7.35 7.35 11.15 3.55 16.5 3.55 21.9 3.55 25.7 7.35 29.5 11.15 29.5 16.55 29.5 21.9 25.7 25.7 21.9 29.5 16.5 29.5 11.15 29.5 7.35 25.7" fill="#733c2f" fill-rule="evenodd" stroke="none"/>
      <path d="M17.55 19.65 L17.55 25.65 Q20.6 25.05 22.9 22.75 L23.15 22.55 23.05 18.7 23.15 8.2 22.9 7.95 Q20.55 5.65 17.5 5.1 L17.55 11.15 17.55 19.65 M24.15 24.05 Q20.6 27.65 15.5 27.65 13.05 27.65 10.95 26.8 L10.95 26.85 10.8 26.75 Q8.65 25.85 6.85 24.05 3.3 20.45 3.3 15.4 3.3 10.35 6.85 6.75 10.45 3.15 15.5 3.15 20.6 3.15 24.15 6.75 27.75 10.35 27.75 15.4 27.75 20.45 24.15 24.05 M23.45 22.2 Q25.95 19.3 25.95 15.4 25.95 11.45 23.45 8.55 L23.45 22.2 M17.2 11.0 L17.2 5.05 15.45 4.9 Q13.2 4.9 11.3 5.75 L11.25 6.05 11.15 7.7 11.1 13.6 11.05 17.05 11.0 24.85 Q13.0 25.85 15.45 25.85 L17.15 25.75 17.2 19.8 17.2 11.0 M10.4 6.2 Q9.15 6.9 8.1 7.95 5.0 11.05 5.0 15.35 5.0 19.7 8.1 22.75 L10.8 24.75 10.55 7.75 10.4 6.2" fill="#fcf9e0" fill-rule="evenodd" stroke="none"/>
      <path d="M17.55 11.15 L17.5 5.1 Q20.55 5.65 22.9 7.95 L23.15 8.2 23.05 18.7 23.15 22.55 22.9 22.75 Q20.6 25.05 17.55 25.65 L17.55 19.65 18.8 18.7 Q20.15 17.3 20.15 15.4 20.15 13.4 18.8 12.05 L17.55 11.15 M24.15 24.05 Q27.75 20.45 27.75 15.4 27.75 10.35 24.15 6.75 20.6 3.15 15.5 3.15 10.45 3.15 6.85 6.75 3.3 10.35 3.3 15.4 3.3 20.45 6.85 24.05 8.65 25.85 10.8 26.75 L10.95 26.85 10.95 26.8 Q13.05 27.65 15.5 27.65 20.6 27.65 24.15 24.05 M24.75 24.55 Q20.95 28.35 15.55 28.35 10.2 28.35 6.4 24.55 2.6 20.75 2.6 15.35 2.6 10.0 6.4 6.2 10.2 2.4 15.55 2.4 20.95 2.4 24.75 6.2 28.55 10.0 28.55 15.4 28.55 20.75 24.75 24.55 M23.45 22.2 L23.45 8.55 Q25.95 11.45 25.95 15.4 25.95 19.3 23.45 22.2 M17.2 11.0 L15.45 10.65 Q13.5 10.65 12.15 12.05 11.45 12.75 11.1 13.6 L11.15 7.7 11.25 6.05 11.3 5.75 Q13.2 4.9 15.45 4.9 L17.2 5.05 17.2 11.0 M11.05 17.05 Q11.4 17.95 12.15 18.7 13.5 20.1 15.45 20.1 L17.2 19.8 17.15 25.75 15.45 25.85 Q13.0 25.85 11.0 24.85 L11.05 17.05 M10.4 6.2 L10.55 7.75 10.8 24.75 8.1 22.75 Q5.0 19.7 5.0 15.35 5.0 11.05 8.1 7.95 9.15 6.9 10.4 6.2" fill="#733c2f" fill-rule="evenodd" stroke="none"/>
      <path d="M10.75 15.35 Q10.75 13.4 12.15 12.05 13.5 10.65 15.45 10.65 17.4 10.65 18.8 12.05 20.15 13.4 20.15 15.4 20.15 17.3 18.8 18.7 17.4 20.1 15.45 20.1 13.5 20.1 12.15 18.7 10.75 17.3 10.75 15.35 M15.15 19.05 Q17.45 19.05 18.9 16.3 L15.15 14.9 15.15 19.05" fill="#fcf9e0" fill-rule="evenodd" stroke="none"/>
      <path d="M15.15 19.05 L15.15 14.9 18.9 16.3 Q17.45 19.05 15.15 19.05" fill="#733c2f" fill-rule="evenodd" stroke="none"/>
      <path d="M14.1 7.9 Q14.1 7.2 14.6 6.7 15.1 6.2 15.8 6.2 16.5 6.2 17.0 6.7 17.5 7.2 17.5 7.95 17.5 8.6 17.0 9.1 16.5 9.65 15.8 9.65 15.1 9.65 14.6 9.1 14.1 8.6 14.1 7.9 M15.7 9.25 Q16.5 9.25 17.05 8.25 L15.7 7.75 15.7 9.25" fill="#fcf9e0" fill-rule="evenodd" stroke="none"/>
      <path d="M15.7 9.25 L15.7 7.75 17.05 8.25 Q16.5 9.25 15.7 9.25" fill="#733c2f" fill-rule="evenodd" stroke="none"/>
      <path d="M20.95 13.1 Q20.95 12.4 21.45 11.9 21.95 11.4 22.65 11.4 23.35 11.4 23.85 11.9 24.35 12.4 24.35 13.15 24.35 13.8 23.85 14.3 23.35 14.85 22.65 14.85 21.95 14.85 21.45 14.3 20.95 13.8 20.95 13.1 M22.55 14.45 Q23.35 14.45 23.9 13.45 L22.55 12.95 22.55 14.45" fill="#fcf9e0" fill-rule="evenodd" stroke="none"/>
      <path d="M22.55 14.45 L22.55 12.95 23.9 13.45 Q23.35 14.45 22.55 14.45" fill="#733c2f" fill-rule="evenodd" stroke="none"/>
      <path d="M18.05 21.6 Q18.05 20.9 18.55 20.4 19.05 19.9 19.75 19.9 20.45 19.9 20.95 20.4 21.45 20.9 21.45 21.65 21.45 22.3 20.95 22.8 20.45 23.35 19.75 23.35 19.05 23.35 18.55 22.8 18.05 22.3 18.05 21.6 M19.65 22.95 Q20.45 22.95 21.0 21.95 L19.65 21.45 19.65 22.95" fill="#fcf9e0" fill-rule="evenodd" stroke="none"/>
      <path d="M19.65 22.95 L19.65 21.45 21.0 21.95 Q20.45 22.95 19.65 22.95" fill="#733c2f" fill-rule="evenodd" stroke="none"/>
      <path d="M9.05 21.15 Q9.05 20.45 9.55 19.95 10.05 19.45 10.75 19.45 11.45 19.45 11.95 19.95 12.45 20.45 12.45 21.2 12.45 21.85 11.95 22.35 11.45 22.9 10.75 22.9 10.05 22.9 9.55 22.35 9.05 21.85 9.05 21.15 M10.65 22.5 Q11.45 22.5 12.0 21.5 L10.65 21.0 10.65 22.5" fill="#fcf9e0" fill-rule="evenodd" stroke="none"/>
      <path d="M10.65 22.5 L10.65 21.0 12.0 21.5 Q11.45 22.5 10.65 22.5" fill="#733c2f" fill-rule="evenodd" stroke="none"/>
      <path d="M6.55 13.2 Q6.55 12.5 7.05 12.0 7.55 11.5 8.25 11.5 8.95 11.5 9.45 12.0 9.95 12.5 9.95 13.25 9.95 13.9 9.45 14.4 8.95 14.95 8.25 14.95 7.55 14.95 7.05 14.4 6.55 13.9 6.55 13.2 M8.15 14.55 Q8.95 14.55 9.5 13.55 L8.15 13.05 8.15 14.55" fill="#fcf9e0" fill-rule="evenodd" stroke="none"/>
      <path d="M8.15 14.55 L8.15 13.05 9.5 13.55 Q8.95 14.55 8.15 14.55" fill="#733c2f" fill-rule="evenodd" stroke="none"/>
    </g>
  </defs>
</svg>
