<svg xmlns="http://www.w3.org/2000/svg" xmlns:xlink="http://www.w3.org/1999/xlink" width="34" height="34"><g transform="matrix(1.0, 0.0, 0.0, 1.0, 1, 1)"><use width="34" height="34" transform="matrix(1.0, 0.0, 0.0, 0.9984, -1.0, -0.9984)" xlink:href="#sprite0"/></g><defs><g id="sprite0" transform="matrix(1.0, 0.0, 0.0, 1.0, 1.0, 1.0)"><use width="34" height="34" transform="matrix(1.0, 0.0, 0.0, 1.0, -1.0, -1.0)" xlink:href="#sprite1"/><use width="29.7" height="30.9" transform="matrix(1.0, 0.0, 0.0, 1.0, 1.2, -0.15)" xlink:href="#shape1"/></g><g id="sprite1" transform="matrix(1.0, 0.0, 0.0, 1.0, 1.0, 1.0)"><use width="34" height="34" transform="matrix(1.0, 0.0, 0.0, 1.0, -1.0, -1.0)" xlink:href="#shape0"/></g><g id="shape0"><path fill="#cc0" fill-rule="evenodd" stroke="none" d="M0.0 32.0 L0.0 0.0 32.0 0.0 32.0 32.0 0.0 32.0" transform="matrix(1.0, 0.0, 0.0, 1.0, 1.0, 1.0)"/><path fill="none" stroke="#733c2f" stroke-linecap="round" stroke-linejoin="round" stroke-width="2" d="M0.0 32.0 L0.0 0.0 32.0 0.0 32.0 32.0 0.0 32.0 Z" transform="matrix(1.0, 0.0, 0.0, 1.0, 1.0, 1.0)"/></g><g id="shape1"><path fill="#733c2f" fill-rule="evenodd" stroke="none" d="M12.6 -0.15 Q13.05 0.25 13.3 1.45 L13.5 2.6 Q13.6 4.35 12.75 5.8 L13.3 6.5 13.3 6.8 Q13.3 8.3 12.75 9.7 L12.9 10.2 12.3 11.85 Q11.5 13.55 10.25 14.5 L9.6 14.15 9.2 13.75 9.45 12.9 Q9.7 11.45 9.45 10.1 L8.7 6.55 9.1 6.0 10.1 4.65 10.8 3.25 11.5 1.4 Q12.05 0.05 12.6 -0.15 M29.1 3.85 L28.15 4.5 26.85 5.0 23.95 5.7 20.2 5.9 Q18.45 5.8 17.9 7.4 17.3 8.95 17.0 10.45 L16.25 12.7 Q15.55 14.05 14.45 14.85 L17.05 15.3 Q19.1 15.5 20.6 13.55 L19.7 13.25 18.65 12.3 18.95 12.5 21.7 12.6 Q23.7 12.4 25.75 10.5 26.45 9.45 25.4 9.0 L24.0 9.3 20.3 9.75 20.25 9.75 21.9 9.15 25.4 7.7 Q26.75 7.05 27.95 6.1 L29.3 4.75 29.1 3.85 M30.4 4.45 Q29.9 5.85 28.5 7.05 L26.55 8.4 27.3 10.0 Q26.75 11.25 25.8 11.95 24.2 13.1 22.15 13.65 L21.65 14.4 Q20.1 16.3 17.45 16.25 L15.6 16.0 Q13.85 15.8 12.2 14.95 14.3 13.65 15.3 11.3 L16.95 6.85 Q17.55 4.95 19.5 4.9 L21.9 4.85 25.3 4.4 27.95 3.5 29.45 2.9 Q30.3 2.9 30.4 4.45" transform="matrix(1.0, 0.0, 0.0, 1.0, -1.2, 0.15)"/><path fill="#fcf9e0" fill-rule="evenodd" stroke="none" d="M29.1 3.85 L29.3 4.75 27.95 6.1 Q26.75 7.05 25.4 7.7 L21.9 9.15 20.25 9.75 20.3 9.75 24.0 9.3 25.4 9.0 Q26.45 9.45 25.75 10.5 23.7 12.4 21.7 12.6 L18.95 12.5 18.65 12.3 19.7 13.25 20.6 13.55 Q19.1 15.5 17.05 15.3 L14.45 14.85 Q15.55 14.05 16.25 12.7 L17.0 10.45 Q17.3 8.95 17.9 7.4 18.45 5.8 20.2 5.9 L23.95 5.7 26.85 5.0 28.15 4.5 29.1 3.85" transform="matrix(1.0, 0.0, 0.0, 1.0, -1.2, 0.15)"/><path fill="#733c2f" fill-rule="evenodd" stroke="none" d="M21.8 21.1 L26.65 23.9 26.9 23.4 26.95 23.4 27.05 23.3 27.2 23.3 30.8 25.25 30.8 25.3 30.9 25.4 30.9 25.55 28.25 30.65 28.25 30.7 28.2 30.7 28.1 30.75 27.95 30.75 24.35 28.8 24.25 28.65 24.25 28.55 24.25 28.5 24.5 27.95 19.5 25.6 18.35 27.85 18.35 27.9 18.25 27.95 18.2 27.95 18.05 27.95 15.2 26.4 15.1 26.25 15.1 26.1 16.1 24.2 3.65 18.45 3.55 18.35 1.2 13.0 1.2 12.85 1.25 12.75 1.35 12.7 7.0 11.9 7.05 11.9 7.15 11.95 18.85 19.05 19.8 17.15 19.85 17.15 19.95 17.05 20.1 17.05 23.0 18.55 23.05 18.6 23.05 18.65 23.1 18.75 23.1 18.8 23.05 18.9 23.05 18.85 21.8 21.1 M11.6 18.1 L17.7 21.2 18.4 19.95 7.3 13.45 2.55 13.6 5.0 17.65 16.65 23.25 17.3 22.05 9.1 17.8 9.1 17.75 9.05 17.75 6.55 16.0 6.55 16.05 6.45 15.95 6.45 15.9 6.45 15.8 6.5 15.75 6.6 15.65 6.75 15.65 9.35 17.0 11.6 18.1 M26.15 24.9 L21.35 22.05 20.05 24.5 25.05 27.0 26.15 24.9" transform="matrix(1.0, 0.0, 0.0, 1.0, -1.2, 0.15)"/><path fill="#fcf9e0" fill-rule="evenodd" stroke="none" d="M9.35 17.0 L6.75 15.65 6.6 15.65 6.5 15.75 6.45 15.8 6.45 15.9 6.45 15.95 6.55 16.05 6.55 16.0 9.05 17.75 9.1 17.75 9.1 17.8 17.3 22.05 16.65 23.25 5.0 17.65 2.55 13.6 7.3 13.45 18.4 19.95 17.7 21.2 11.6 18.1 11.3 17.95 9.55 17.05 9.35 17.0" transform="matrix(1.0, 0.0, 0.0, 1.0, -1.2, 0.15)"/></g></defs></svg>