<?xml version="1.0" encoding="UTF-8" standalone="no"?>
<svg xmlns:xlink="http://www.w3.org/1999/xlink" height="34" width="34" xmlns="http://www.w3.org/2000/svg">
  <g transform="matrix(1.0, 0.0, 0.0, 1.0, 1, 1)">
    <use height="34.0" transform="matrix(1.0, 0.0, 0.0, 1.0, -1.0, -1.0)" width="34.0" xlink:href="#sprite0"/>
  </g>
  <defs>
    <g id="sprite0" transform="matrix(1.0, 0.0, 0.0, 1.0, 1.0, 1.0)">
      <use height="34.0" transform="matrix(1.0, 0.0, 0.0, 1.0, -1.0, -1.0)" width="34.0" xlink:href="#sprite1"/>
      <use height="26.75" transform="matrix(1.0, 0.0, 0.0, 1.0, 2.4, 3.4)" width="27.2" xlink:href="#shape1"/>
    </g>
    <g id="sprite1" transform="matrix(1.0, 0.0, 0.0, 1.0, 1.0, 1.0)">
      <use height="34.0" transform="matrix(1.0, 0.0, 0.0, 1.0, -1.0, -1.0)" width="34.0" xlink:href="#shape0"/>
    </g>
    <g id="shape0" transform="matrix(1.0, 0.0, 0.0, 1.0, 1.0, 1.0)">
      <path d="M0.0 32.0 L0.0 0.0 32.0 0.0 32.0 32.0 0.0 32.0" fill="#cccc00" fill-rule="evenodd" stroke="none"/>
      <path d="M0.0 32.0 L0.0 0.0 32.0 0.0 32.0 32.0 0.0 32.0 Z" fill="none" stroke="#733c2f" stroke-linecap="round" stroke-linejoin="round" stroke-width="2.0"/>
    </g>
    <g id="shape1" transform="matrix(1.0, 0.0, 0.0, 1.0, -2.4, -3.4)">
      <path d="M23.8 9.5 L25.35 9.5 25.55 9.45 25.6 9.25 25.6 7.75 27.9 7.75 27.9 9.25 28.0 9.45 28.15 9.5 29.6 9.5 29.6 11.8 28.15 11.8 28.0 11.9 27.9 12.05 27.9 13.55 25.6 13.55 25.6 12.05 25.55 11.9 25.35 11.8 23.8 11.8 23.8 9.5" fill="#fcf9e0" fill-rule="evenodd" stroke="none"/>
      <path d="M4.6 4.6 L5.7 4.6 5.85 4.6 5.9 4.45 5.9 3.4 7.5 3.4 7.5 4.45 7.6 4.6 7.7 4.6 8.7 4.6 8.7 6.25 7.7 6.25 7.6 6.3 7.5 6.4 7.5 7.5 5.9 7.5 5.9 6.4 5.85 6.3 5.7 6.25 4.6 6.25 4.6 4.6" fill="#fcf9e0" fill-rule="evenodd" stroke="none"/>
      <path d="M2.4 13.0 L3.75 13.0 3.9 13.0 3.95 12.8 3.95 11.5 5.95 11.5 5.95 12.8 6.05 13.0 6.15 13.0 7.4 13.0 7.4 15.0 6.15 15.0 6.05 15.1 5.95 15.25 5.95 16.55 3.95 16.55 3.95 15.25 3.9 15.1 3.75 15.0 2.4 15.0 2.4 13.0" fill="#fcf9e0" fill-rule="evenodd" stroke="none"/>
      <path d="M23.85 20.1 Q23.85 23.3 21.65 25.6 19.3 27.85 16.1 27.85 12.9 27.85 10.65 25.6 8.35 23.3 8.35 20.1 8.35 18.35 9.05 16.9 L23.2 16.9 Q23.85 18.35 23.85 20.1 M26.2 20.1 Q26.2 24.3 23.25 27.25 20.65 29.85 17.1 30.15 L15.1 30.15 Q11.55 29.85 8.95 27.25 6.0 24.3 6.0 20.1 6.0 18.4 6.5 16.9 L6.9 15.9 Q7.65 14.3 8.95 12.95 11.9 10.0 16.1 10.0 20.3 10.0 23.25 12.95 24.6 14.3 25.35 15.9 L25.75 16.9 Q26.2 18.4 26.2 20.1 M23.9 15.9 Q23.3 14.8 22.35 13.85 19.75 11.3 16.1 11.3 12.45 11.3 9.85 13.85 8.9 14.8 8.3 15.9 L7.9 16.9 Q7.3 18.4 7.3 20.1 7.3 23.8 9.85 26.35 12.45 28.9 16.1 28.9 19.75 28.9 22.35 26.35 24.9 23.8 24.9 20.1 24.9 18.4 24.35 16.9 L23.9 15.9" fill="#733c2f" fill-rule="evenodd" stroke="none"/>
      <path d="M22.35 22.85 L18.9 22.85 18.9 26.35 13.25 26.35 13.25 22.85 9.7 22.85 9.7 17.25 13.25 17.25 13.25 13.75 18.9 13.75 18.9 17.25 22.35 17.25 22.35 22.85" fill="#733c2f" fill-rule="evenodd" stroke="none"/>
      <path d="M21.6 22.1 L18.9 22.1 Q18.6 22.1 18.4 22.35 18.15 22.55 18.15 22.85 L18.15 25.6 14.05 25.6 14.05 22.85 13.85 22.35 Q13.55 22.1 13.25 22.1 L10.5 22.1 10.5 18.0 13.25 18.0 13.85 17.8 14.05 17.25 14.05 14.5 18.15 14.5 18.15 17.25 18.4 17.8 18.9 18.0 21.6 18.0 21.6 22.1" fill="#fcf9e0" fill-rule="evenodd" stroke="none"/>
      <path d="M19.55 6.55 L19.55 4.65 12.65 4.65 12.65 6.55 19.55 6.55 M19.0 7.5 L19.0 11.25 17.95 11.25 17.95 7.5 14.2 7.5 14.2 11.25 13.15 11.25 13.15 7.5 11.6 7.5 11.6 3.75 20.45 3.75 20.45 7.5 19.0 7.5" fill="#733c2f" fill-rule="evenodd" stroke="none"/>
    </g>
  </defs>
</svg>
