<svg xmlns="http://www.w3.org/2000/svg" xmlns:xlink="http://www.w3.org/1999/xlink" width="34" height="34"><g transform="matrix(1.0, 0.0, 0.0, 1.0, 1, 1)"><use width="34" height="34" transform="matrix(1.0, 0.0, 0.0, 1.0, -1.0, -1.0)" xlink:href="#sprite0"/></g><defs><g id="sprite0" transform="matrix(1.0, 0.0, 0.0, 1.0, 1.0, 1.0)"><use width="34" height="34" transform="matrix(1.0, 0.0, 0.0, 1.0, -1.0, -1.0)" xlink:href="#sprite1"/><clipPath id="clipPath0" transform="matrix(1.0, 0.0, 0.0, 1.0, 0.0, 0.0)"><path fill="red" fill-rule="evenodd" stroke="none" d="M0.0 32.0 L0.0 0.0 32.0 0.0 32.0 32.0 0.0 32.0"/></clipPath><g clip-path="url(#clipPath0)"><use width="20.35" height="30.25" transform="matrix(1.0, 0.0, 0.0, 1.0, 2.6, 1.05)" xlink:href="#shape2"/></g><use width="34" height="34" transform="matrix(1.0, 0.0, 0.0, 1.0, -1.0, -1.0)" xlink:href="#shape3"/></g><g id="sprite1" transform="matrix(1.0, 0.0, 0.0, 1.0, 1.0, 1.0)"><use width="34" height="34" transform="matrix(1.0, 0.0, 0.0, 1.0, -1.0, -1.0)" xlink:href="#shape0"/></g><g id="shape0"><path fill="#cc0" fill-rule="evenodd" stroke="none" d="M0.0 32.0 L0.0 0.0 32.0 0.0 32.0 32.0 0.0 32.0" transform="matrix(1.0, 0.0, 0.0, 1.0, 1.0, 1.0)"/><path fill="none" stroke="#733c2f" stroke-linecap="round" stroke-linejoin="round" stroke-width="2" d="M0.0 32.0 L0.0 0.0 32.0 0.0 32.0 32.0 0.0 32.0 Z" transform="matrix(1.0, 0.0, 0.0, 1.0, 1.0, 1.0)"/></g><g id="shape2"><path fill="#733c2f" fill-rule="evenodd" stroke="none" d="M22.9 16.55 L22.9 16.7 22.95 17.5 22.95 18.05 22.45 20.25 21.55 21.45 20.7 22.5 19.4 25.55 17.8 29.2 20.8 29.5 21.05 30.0 20.9 30.55 18.6 30.85 16.05 30.75 15.65 30.15 Q15.35 29.9 15.35 29.45 16.6 26.75 17.95 24.55 L12.1 29.0 14.4 29.55 Q15.0 29.85 15.0 30.45 15.0 30.9 14.65 31.15 L14.1 31.3 Q12.65 31.3 10.8 30.6 8.85 29.8 8.85 29.0 8.85 28.45 15.2 24.5 18.95 22.2 20.5 20.25 21.35 19.15 21.5 18.25 L21.5 18.15 Q21.05 15.05 16.6 14.1 L13.2 13.35 12.6 13.05 12.25 13.1 Q11.4 13.9 9.4 13.9 L6.35 13.55 5.3 13.2 Q4.75 13.0 3.55 11.95 2.35 10.9 2.7 8.95 3.05 7.0 3.8 6.5 L4.6 6.0 Q5.45 5.65 6.35 5.45 L7.55 5.6 7.8 6.05 Q7.8 6.35 6.35 6.85 L5.95 7.2 5.85 7.35 4.7 7.6 4.3 8.4 Q4.0 9.0 4.2 9.8 L4.65 10.95 5.35 11.6 6.35 12.05 8.2 12.2 11.45 11.85 11.2 11.1 Q8.3 10.05 8.3 9.85 L10.55 9.65 10.75 9.7 Q10.85 9.45 11.15 9.5 L14.05 9.75 14.15 9.75 14.9 9.1 16.05 7.75 16.4 6.9 16.4 6.55 Q16.4 4.75 14.65 4.5 13.2 4.35 12.95 4.0 L10.95 3.65 Q10.95 2.55 14.3 2.9 17.6 3.3 17.6 6.35 L17.6 6.4 17.6 6.55 Q17.6 7.6 16.95 8.95 L16.3 9.95 Q19.35 10.55 21.25 12.95 22.9 15.1 22.9 16.55" transform="matrix(1.0, 0.0, 0.0, 1.0, -2.6, -1.05)"/><path fill="#733c2f" fill-rule="evenodd" stroke="none" d="M5.7 2.6 Q7.3 1.05 9.55 1.05 11.75 1.05 13.3 2.6 14.85 4.15 14.85 6.35 14.85 8.55 13.3 10.1 11.75 11.65 9.55 11.65 7.3 11.65 5.7 10.1 4.15 8.55 4.15 6.35 4.15 4.15 5.7 2.6" transform="matrix(1.0, 0.0, 0.0, 1.0, -2.6, -1.05)"/><path fill="#fcf9e0" fill-rule="evenodd" stroke="none" d="M9.15 6.3 L8.65 6.75 8.3 6.55 Q8.05 6.3 7.8 6.3 L7.25 6.8 6.75 7.25 6.45 7.0 6.4 6.75 Q6.4 6.55 6.75 6.1 7.2 5.55 7.4 5.5 8.05 5.15 8.65 5.65 9.15 6.0 9.15 6.3 M10.9 6.35 Q10.9 6.1 11.45 5.65 12.05 5.15 12.4 5.3 L12.95 5.95 13.4 6.75 13.35 7.0 13.05 7.05 12.5 6.55 12.05 5.95 11.1 6.7 10.9 6.35 M10.8 10.25 Q10.8 10.75 10.25 10.75 9.6 10.75 9.6 9.95 9.6 9.35 10.2 9.35 10.8 9.35 10.8 10.25" transform="matrix(1.0, 0.0, 0.0, 1.0, -2.6, -1.05)"/></g><g id="shape3"><path fill="#733c2f" fill-rule="evenodd" stroke="none" d="M30.55 7.75 L30.6 7.95 30.6 9.4 30.55 9.7 30.3 9.9 30.0 9.9 24.9 8.85 20.15 10.75 19.85 10.75 19.55 10.55 19.45 10.25 19.45 8.8 19.6 8.5 21.2 6.5 20.45 5.75 20.3 5.4 20.3 3.95 20.4 3.7 20.6 3.5 20.9 3.45 24.4 4.05 27.3 3.15 27.6 3.15 27.85 3.3 27.95 3.6 27.95 5.05 27.9 5.25 27.75 5.65 30.4 7.55 30.55 7.75 M4.05 17.1 L4.15 16.85 4.3 16.7 4.55 16.6 9.1 16.7 11.75 15.35 12.05 15.3 12.35 15.45 12.45 15.75 12.65 17.4 17.3 19.25 17.55 19.45 17.6 19.7 17.6 21.15 17.55 21.4 17.35 21.6 17.1 21.65 11.35 21.5 6.8 24.75 6.45 24.85 6.15 24.7 6.0 24.35 6.0 22.9 6.05 22.8 6.75 20.35 4.3 19.0 4.15 18.8 4.05 18.55 4.05 17.1" transform="matrix(1.0, 0.0, 0.0, 1.0, 1.0, 1.0)"/><path fill="#733c2f" fill-rule="evenodd" stroke="none" d="M25.5 6.0 L24.7 6.25 23.8 6.05 23.55 5.85 23.45 5.65 Q23.4 5.35 23.7 5.2 24.0 4.95 24.45 4.95 L25.25 5.1 25.7 5.5 25.7 5.6 25.5 6.0 M27.1 5.8 L26.6 5.45 26.7 5.3 27.45 3.6 27.45 5.05 27.1 5.8 M20.8 3.95 L22.5 5.7 21.85 6.5 20.8 5.4 20.8 3.95 M19.95 8.8 L21.75 8.1 24.85 6.85 27.25 7.35 30.1 7.95 30.1 9.4 24.85 8.3 19.95 10.25 19.95 8.8 M9.55 17.65 Q10.05 17.5 10.5 17.65 L10.95 17.8 11.25 18.0 11.35 18.5 10.6 18.95 9.5 18.95 8.85 18.65 8.75 18.55 Q8.6 18.3 8.8 18.0 9.05 17.75 9.55 17.65 M7.3 20.05 L4.55 18.55 4.55 17.1 7.3 18.6 7.65 18.8 7.3 20.05 M17.1 19.7 L17.1 21.15 11.2 21.0 6.5 24.35 6.5 22.9 7.0 22.55 11.2 19.55 13.2 19.6 17.1 19.7" transform="matrix(1.0, 0.0, 0.0, 1.0, 1.0, 1.0)"/><path fill="#fcf9e0" fill-rule="evenodd" stroke="none" d="M25.5 6.0 L25.7 5.6 25.7 5.5 25.25 5.1 24.45 4.95 Q24.0 4.95 23.7 5.2 23.4 5.35 23.45 5.65 L23.55 5.85 23.8 6.05 24.7 6.25 25.5 6.0 M27.45 3.6 L26.7 5.3 26.6 5.45 27.1 5.8 30.1 7.95 27.25 7.35 24.85 6.85 21.75 8.1 19.95 8.8 21.85 6.5 22.5 5.7 20.8 3.95 24.4 4.55 27.45 3.6 M9.55 17.65 Q9.05 17.75 8.8 18.0 8.6 18.3 8.75 18.55 L8.85 18.65 9.5 18.95 10.6 18.95 11.35 18.5 11.25 18.0 10.95 17.8 10.5 17.65 Q10.05 17.5 9.55 17.65 M7.3 20.05 L7.65 18.8 7.3 18.6 4.55 17.1 9.2 17.2 11.95 15.8 12.15 17.75 17.1 19.7 13.2 19.6 11.2 19.55 7.0 22.55 6.5 22.9 7.3 20.05" transform="matrix(1.0, 0.0, 0.0, 1.0, 1.0, 1.0)"/><path fill="none" stroke="#733c2f" stroke-linecap="round" stroke-linejoin="round" stroke-width="2" d="M0.0 0.0 L32.0 0.0 32.0 32.0 0.0 32.0 0.0 0.0 Z" transform="matrix(1.0, 0.0, 0.0, 1.0, 1.0, 1.0)"/></g></defs></svg>