<?xml version="1.0" encoding="UTF-8" standalone="no"?>
<svg xmlns:xlink="http://www.w3.org/1999/xlink" height="34" width="34" xmlns="http://www.w3.org/2000/svg">
  <g transform="matrix(1.0, 0.0, 0.0, 1.0, 1, 1)">
    <use height="34.0" transform="matrix(1.0, 0.0, 0.0, 1.0, -1.0, -1.0)" width="34.0" xlink:href="#sprite0"/>
  </g>
  <defs>
    <g id="sprite0" transform="matrix(1.0, 0.0, 0.0, 1.0, 1.0, 1.0)">
      <use height="34.0" transform="matrix(1.0, 0.0, 0.0, 1.0, -1.0, -1.0)" width="34.0" xlink:href="#shape0"/>
    </g>
    <g id="shape0" transform="matrix(1.0, 0.0, 0.0, 1.0, 1.0, 1.0)">
      <path d="M20.45 0.0 L29.1 0.0 21.05 32.0 17.65 32.0 20.45 0.0 M32.0 13.9 L32.0 25.85 27.45 32.0 24.6 32.0 32.0 13.9 M14.35 32.0 L10.95 32.0 2.9 0.0 11.55 0.0 14.35 32.0 M7.4 32.0 L4.55 32.0 0.05 25.9 0.0 25.85 0.0 13.9 7.4 32.0" fill="#cccc00" fill-rule="evenodd" stroke="none"/>
      <path d="M29.1 0.0 L32.0 0.0 32.0 13.9 24.6 32.0 21.05 32.0 29.1 0.0 M32.0 25.85 L32.0 32.0 27.45 32.0 32.0 25.85 M17.65 32.0 L14.35 32.0 11.55 0.0 20.45 0.0 17.65 32.0 M10.95 32.0 L7.4 32.0 0.0 13.9 0.0 0.0 2.9 0.0 10.95 32.0 M4.55 32.0 L0.0 32.0 0.0 25.85 0.05 25.9 4.55 32.0" fill="#fcf9e0" fill-rule="evenodd" stroke="none"/>
      <path d="M20.45 0.0 L29.1 0.0 32.0 0.0 32.0 13.9 32.0 25.85 32.0 32.0 27.45 32.0 24.6 32.0 21.05 32.0 17.65 32.0 14.35 32.0 10.95 32.0 7.4 32.0 4.55 32.0 0.0 32.0 0.0 25.85 0.0 13.9 0.0 0.0 2.9 0.0 11.55 0.0 20.45 0.0 Z" fill="none" stroke="#733c2f" stroke-linecap="round" stroke-linejoin="round" stroke-width="2.0"/>
      <path d="M26.0 11.35 Q27.75 13.4 27.75 16.05 27.75 19.85 24.1 22.45 L22.65 23.5 21.55 24.2 19.2 25.4 15.45 26.5 14.8 26.35 12.55 25.65 9.4 24.1 8.3 23.4 8.0 23.2 7.45 22.8 7.0 22.45 Q4.3 20.45 3.65 17.8 L3.45 16.05 3.65 14.3 Q4.3 11.6 7.0 9.6 9.6 7.55 13.35 8.9 L13.45 8.95 15.2 9.75 15.35 9.8 Q16.75 9.1 18.0 8.75 L22.25 8.65 23.35 9.1 24.1 9.6 Q25.25 10.4 26.0 11.35" fill="#fcf9e0" fill-rule="evenodd" stroke="none"/>
      <path d="M26.0 11.35 Q27.75 13.4 27.75 16.05 27.75 19.85 24.1 22.45 L22.65 23.5 21.55 24.2 19.2 25.4 15.45 26.5 14.8 26.35 12.55 25.65 9.4 24.1 8.3 23.4 8.0 23.2 7.45 22.8 7.0 22.45 Q4.3 20.45 3.65 17.8 L3.45 16.05 3.65 14.3 Q4.3 11.6 7.0 9.6 9.6 7.55 13.35 8.9 L13.45 8.95 15.2 9.75 15.35 9.8 Q16.75 9.1 18.0 8.75 L22.25 8.65 23.35 9.1 24.1 9.6 Q25.25 10.4 26.0 11.35 Z" fill="none" stroke="#733c2f" stroke-linecap="round" stroke-linejoin="round" stroke-width="2.0"/>
      <path d="M20.75 10.3 L22.15 10.95 23.0 11.65 Q24.55 12.85 23.65 14.5 23.1 15.55 22.0 15.85 L17.75 15.95 15.7 15.5 13.9 15.5 Q12.7 15.85 12.45 17.0 13.05 18.3 14.75 18.55 L18.1 18.25 Q19.5 18.0 20.55 18.8 21.55 19.65 21.1 20.95 L20.5 21.75 Q19.5 22.6 18.3 23.0 16.9 23.65 15.4 23.7 11.8 23.35 9.3 21.2 10.05 19.9 11.55 20.15 L12.4 20.85 Q12.8 21.2 13.35 21.4 L16.35 21.3 16.45 20.5 15.0 20.1 11.8 19.5 9.35 19.0 Q8.15 18.45 7.8 17.1 7.45 15.8 7.65 14.5 8.2 11.6 11.15 11.25 13.15 10.9 15.25 11.2 L17.3 12.95 Q18.85 14.55 19.8 12.65 L20.75 10.45 20.75 10.3" fill="#733c2f" fill-rule="evenodd" stroke="none"/>
    </g>
  </defs>
</svg>
