<?xml version="1.0" encoding="UTF-8" standalone="no"?>
<svg xmlns:xlink="http://www.w3.org/1999/xlink" height="34" width="34" xmlns="http://www.w3.org/2000/svg">
  <g transform="matrix(1.0, 0.0, 0.0, 1.0, 1, 1)">
    <use height="34.0" transform="matrix(1.0, 0.0, 0.0, 1.0, -1.0, -1.0)" width="34.0" xlink:href="#sprite0"/>
  </g>
  <defs>
    <g id="sprite0" transform="matrix(1.0, 0.0, 0.0, 1.0, 1.0, 1.0)">
      <use height="34.0" transform="matrix(1.0, 0.0, 0.0, 1.0, -1.0, -1.0)" width="34.0" xlink:href="#sprite1"/>
      <use height="29.2" transform="matrix(1.0, 0.0, 0.0, 1.0, 5.7, 1.3)" width="21.35" xlink:href="#shape1"/>
    </g>
    <g id="sprite1" transform="matrix(1.0, 0.0, 0.0, 1.0, 1.0, 1.0)">
      <use height="34.0" transform="matrix(1.0, 0.0, 0.0, 1.0, -1.0, -1.0)" width="34.0" xlink:href="#shape0"/>
    </g>
    <g id="shape0" transform="matrix(1.0, 0.0, 0.0, 1.0, 1.0, 1.0)">
      <path d="M0.0 32.0 L0.0 0.0 32.0 0.0 32.0 32.0 0.0 32.0" fill="#cccc00" fill-rule="evenodd" stroke="none"/>
      <path d="M0.0 32.0 L0.0 0.0 32.0 0.0 32.0 32.0 0.0 32.0 Z" fill="none" stroke="#733c2f" stroke-linecap="round" stroke-linejoin="round" stroke-width="2.0"/>
    </g>
    <g id="shape1" transform="matrix(1.0, 0.0, 0.0, 1.0, -5.7, -1.3)">
      <path d="M18.0 11.45 L17.0 6.5 16.5 6.65 16.45 6.6 16.35 6.6 16.25 6.5 15.45 2.9 15.45 2.85 15.5 2.7 15.6 2.6 20.65 1.35 20.7 1.3 20.7 1.35 20.85 1.4 20.9 1.55 21.7 5.15 21.7 5.3 21.65 5.35 21.6 5.4 21.05 5.55 22.45 10.4 24.65 9.85 24.7 9.8 24.75 9.8 24.8 9.85 24.9 9.95 25.55 12.85 25.5 13.0 25.4 13.1 23.5 13.5 27.05 25.45 27.0 25.6 24.8 30.4 24.7 30.5 24.6 30.5 24.5 30.5 20.55 27.1 20.5 26.95 18.35 14.75 16.5 15.25 16.45 15.2 16.35 15.2 16.25 15.1 15.55 12.2 15.55 12.1 15.6 12.1 15.6 12.05 15.65 12.0 15.75 11.95 15.7 11.95 18.0 11.45 M22.05 20.25 L20.5 14.2 19.25 14.5 21.5 25.95 24.4 29.1 25.7 25.05 22.55 13.75 21.35 14.0 23.35 22.15 23.3 22.15 23.35 22.15 23.65 24.95 23.7 24.95 23.7 25.05 23.65 25.1 23.6 25.15 23.5 25.1 23.4 25.15 23.3 25.05 22.65 22.4 22.05 20.25 M18.0 6.25 L18.9 11.25 21.35 10.65 20.1 5.75 18.0 6.25" fill="#733c2f" fill-rule="evenodd" stroke="none"/>
      <path d="M22.65 22.4 L23.3 25.05 23.4 25.15 23.5 25.1 23.6 25.15 23.65 25.1 23.7 25.05 23.7 24.95 23.65 24.95 23.35 22.15 23.3 22.15 23.35 22.15 21.35 14.0 22.55 13.75 25.7 25.05 24.4 29.1 21.5 25.95 19.25 14.5 20.5 14.2 22.05 20.25 22.15 20.55 22.6 22.3 22.65 22.4" fill="#fcf9e0" fill-rule="evenodd" stroke="none"/>
      <path d="M7.15 18.55 Q7.7 9.65 5.7 2.0 12.65 4.15 10.9 18.5 L7.15 18.55 M10.1 17.55 Q11.2 6.85 7.1 3.75 8.5 10.2 8.15 17.55 L10.1 17.55" fill="#733c2f" fill-rule="evenodd" stroke="none"/>
      <path d="M10.1 17.55 L8.15 17.55 Q8.5 10.2 7.1 3.75 11.2 6.85 10.1 17.55" fill="#fcf9e0" fill-rule="evenodd" stroke="none"/>
      <path d="M11.3 20.9 L11.7 22.25 12.1 25.0 11.65 28.05 11.25 29.4 7.45 29.45 7.25 18.2 12.25 18.1 12.3 19.55 11.85 20.0 Q11.3 20.7 11.3 20.9" fill="#733c2f" fill-rule="evenodd" stroke="none"/>
      <path d="M10.0 21.2 L9.75 21.75 9.25 22.0 Q8.95 22.0 8.75 21.8 L8.55 21.25 8.75 20.7 9.25 20.5 9.75 20.65 10.0 21.2" fill="#fcf9e0" fill-rule="evenodd" stroke="none"/>
      <path d="M10.05 27.1 L9.8 27.65 9.3 27.9 8.8 27.7 8.6 27.15 8.8 26.6 9.3 26.4 9.8 26.55 10.05 27.1" fill="#fcf9e0" fill-rule="evenodd" stroke="none"/>
    </g>
  </defs>
</svg>
