<?xml version="1.0" encoding="UTF-8" standalone="no"?>
<svg xmlns:xlink="http://www.w3.org/1999/xlink" height="3.45px" width="5.5px" xmlns="http://www.w3.org/2000/svg">
  <g transform="matrix(1.0, 0.0, 0.0, 1.0, 3.0, 2.15)">
    <path d="M0.5 0.75 L0.2 0.85 0.05 0.9 -1.0 1.1 -1.1 1.1 -1.5 0.9 -1.6 0.75 -1.7 0.5 -1.8 0.1 -1.65 -0.65 -0.8 -0.95 -0.15 -1.2 0.5 -0.5 0.6 -0.05 0.55 0.65 0.5 0.75 M0.05 0.4 L0.0 0.35 -1.2 0.6 -1.3 0.7 -0.45 0.85 0.05 0.4 M-0.2 -0.05 L-0.3 -0.15 -0.6 0.0 -1.05 0.4 -0.9 0.35 -0.2 0.15 -0.2 0.1 -0.2 -0.05" fill="#096f6f" fill-rule="evenodd" stroke="none"/>
    <path d="M1.8 -0.75 L1.8 -0.45 1.75 -0.2 1.6 0.0 1.3 0.4 1.1 0.5 0.5 0.75 0.55 0.65 0.6 -0.05 0.5 -0.5 -0.15 -1.2 1.6 -1.05 1.8 -0.75 M-1.65 -0.65 L-1.8 0.1 -1.7 0.5 -1.6 0.75 -1.5 0.9 -1.1 1.1 -1.0 1.1 -2.35 1.2 -2.5 1.2 -2.55 1.1 -2.6 0.55 -2.35 0.2 -1.7 -0.55 -1.65 -0.65" fill="#fbfbfb" fill-rule="evenodd" stroke="none"/>
    <path d="M0.05 0.4 L-0.45 0.85 -1.3 0.7 -1.2 0.6 0.0 0.35 0.05 0.4" fill="#00ffff" fill-rule="evenodd" stroke="none"/>
    <path d="M-0.2 -0.05 L-0.2 0.1 -0.2 0.15 -0.9 0.35 -1.05 0.4 -0.6 0.0 -0.3 -0.15 -0.2 -0.05" fill="#054746" fill-rule="evenodd" stroke="none"/>
    <path d="M0.5 0.75 L0.55 0.65 0.6 -0.05 0.5 -0.5 -0.15 -1.2 M-1.65 -0.65 L-1.8 0.1 -1.7 0.5 -1.6 0.75 -1.5 0.9 -1.1 1.1 -1.0 1.1" fill="none" stroke="#000000" stroke-linecap="round" stroke-linejoin="round" stroke-opacity="0.4" stroke-width="0.05"/>
    <path d="M0.3 -2.05 L0.2 -1.65 M0.05 0.9 L0.35 1.15 M-2.15 -0.6 L-1.7 -0.55 M-0.8 -0.95 L-1.1 -1.5 M-2.5 1.2 L-2.55 1.1 -2.6 0.55 M-2.35 0.2 L-2.9 0.0" fill="none" stroke="#000000" stroke-linecap="round" stroke-linejoin="round" stroke-opacity="0.5019608" stroke-width="0.2"/>
    <path d="M1.8 -0.75 L1.8 -0.45 M1.8 -0.75 Q1.8 -1.35 2.2 -1.65 M-0.15 -1.2 L1.6 -1.05 1.8 -0.75 M-0.15 -1.2 L-0.8 -0.95 -1.65 -0.65 M-1.7 -0.55 L-1.65 -0.65 M-2.6 0.55 L-2.35 0.2 -1.7 -0.55" fill="none" stroke="#000000" stroke-linecap="round" stroke-linejoin="round" stroke-opacity="0.5019608" stroke-width="0.6000000000000001"/>
    <path d="M1.3 0.4 L1.1 0.5" fill="none" stroke="#000000" stroke-linecap="round" stroke-linejoin="round" stroke-opacity="0.3529412" stroke-width="0.2"/>
    <path d="M1.6 0.0 L1.3 0.4 M1.1 0.5 L0.5 0.75 0.2 0.85 0.05 0.9 M-1.0 1.1 L0.05 0.9" fill="none" stroke="#000000" stroke-linecap="round" stroke-linejoin="round" stroke-opacity="0.3529412" stroke-width="0.4"/>
  </g>
</svg>
