<svg xmlns="http://www.w3.org/2000/svg" xmlns:svg="http://www.w3.org/2000/svg" id="svg1" width="34" height="34" version="1.1" viewBox="0 0 8.996 8.996" xml:space="preserve"><rect style="fill:#e21c1c;fill-opacity:1;stroke:#733c2f;stroke-width:.529176;stroke-dasharray:none;stroke-opacity:1" id="rect1" width="8.465" height="8.467" x="196.554" y="166.1" ry=".087" transform="translate(-196.28793,-165.83455)"/><g id="layer2"><path id="rect3" d="M 7.3844723,0.74518352 V 1.2748696 h -0.567316 v 0.3693481 h 0.567316 V 2.2184703 H 7.7304945 V 1.6442177 H 8.2906149 V 1.2748696 H 7.7304945 V 0.74518352 Z" style="fill:#fff;fill-opacity:1;stroke:none;stroke-width:.175935;stroke-linecap:butt;stroke-linejoin:round;stroke-dasharray:none;stroke-opacity:1;paint-order:stroke fill markers"/><path id="rect3-7" d="M 5.1868742,0.72360518 V 1.0431137 H 4.8446671 V 1.2659059 H 5.1868742 V 1.6122972 H 5.3955961 V 1.2659059 H 5.7334628 V 1.0431137 H 5.3955961 V 0.72360518 Z" style="fill:#fff;fill-opacity:1;stroke:none;stroke-width:.106125;stroke-linecap:butt;stroke-linejoin:round;stroke-dasharray:none;stroke-opacity:1;paint-order:stroke fill markers"/><path id="rect3-9" d="M 3.2765418,1.0904529 V 1.4309572 H 2.9118474 V 1.6683896 H 3.2765418 V 2.0375431 H 3.4989793 V 1.6683896 H 3.859048 V 1.4309572 H 3.4989793 V 1.0904529 Z" style="fill:#fff;fill-opacity:1;stroke:none;stroke-width:.113098;stroke-linecap:butt;stroke-linejoin:round;stroke-dasharray:none;stroke-opacity:1;paint-order:stroke fill markers"/><path id="rect3-0" d="M 1.2501077,0.82150795 V 1.3511941 H 0.68279165 V 1.7205422 H 1.2501077 V 2.2947948 H 1.5961299 V 1.7205422 H 2.1562503 V 1.3511941 H 1.5961299 V 0.82150795 Z" style="fill:#fff;fill-opacity:1;stroke:none;stroke-width:.175935;stroke-linecap:butt;stroke-linejoin:round;stroke-dasharray:none;stroke-opacity:1;paint-order:stroke fill markers"/><path id="rect3-02" d="M 1.4080835,4.0197272 V 4.6545256 H 0.72818793 V 5.097168 H 1.4080835 V 5.7853768 H 1.8227713 V 5.097168 H 2.4940434 V 4.6545256 H 1.8227713 V 4.0197272 Z" style="fill:#fff;fill-opacity:1;stroke:none;stroke-width:.210848;stroke-linecap:butt;stroke-linejoin:round;stroke-dasharray:none;stroke-opacity:1;paint-order:stroke fill markers"/><path id="rect3-5" d="m 7.2125187,6.784145 v 0.5296861 h -0.567316 v 0.3693481 h 0.567316 V 8.2574318 H 7.5585409 V 7.6831792 H 8.1186613 V 7.3138311 H 7.5585409 V 6.784145 Z" style="fill:#fff;fill-opacity:1;stroke:none;stroke-width:.175935;stroke-linecap:butt;stroke-linejoin:round;stroke-dasharray:none;stroke-opacity:1;paint-order:stroke fill markers"/><path id="rect3-06" d="M 1.5428914,6.6935788 V 7.2232649 H 0.97557539 V 7.592613 H 1.5428914 V 8.1668656 H 1.8889136 V 7.592613 H 2.449034 V 7.2232649 H 1.8889136 V 6.6935788 Z" style="fill:#fff;fill-opacity:1;stroke:none;stroke-width:.175935;stroke-linecap:butt;stroke-linejoin:round;stroke-dasharray:none;stroke-opacity:1;paint-order:stroke fill markers"/><path id="rect3-93" d="M 5.9344781,5.7844845 V 6.2006748 H 5.4887209 v 0.2902078 h 0.4457572 v 0.4512075 h 0.27188 V 6.4908826 H 6.6464615 V 6.2006748 H 6.2063581 V 5.7844845 Z" style="fill:#fff;fill-opacity:1;stroke:none;stroke-width:.138237;stroke-linecap:butt;stroke-linejoin:round;stroke-dasharray:none;stroke-opacity:1;paint-order:stroke fill markers"/><path id="rect3-066" d="m 7.2622716,3.8434037 v 0.5296861 h -0.567316 v 0.3693481 h 0.567316 V 5.3166905 H 7.6082938 V 4.7424379 H 8.1684142 V 4.3730898 H 7.6082938 V 3.8434037 Z" style="fill:#fff;fill-opacity:1;stroke:none;stroke-width:.175935;stroke-linecap:butt;stroke-linejoin:round;stroke-dasharray:none;stroke-opacity:1;paint-order:stroke fill markers"/><path id="rect3-066-8" d="M 3.8222658,7.6084069 V 7.8438445 H 3.5701022 V 8.0080143 H 3.8222658 V 8.263261 H 3.9760675 V 8.0080143 H 4.2250327 V 7.8438445 H 3.9760675 V 7.6084069 Z" style="fill:#fff;fill-opacity:1;stroke:none;stroke-width:.0782005;stroke-linecap:butt;stroke-linejoin:round;stroke-dasharray:none;stroke-opacity:1;paint-order:stroke fill markers"/><path id="rect3-066-8-3" d="M 2.1806265,5.8298806 V 6.0653182 H 1.9284629 V 6.229488 H 2.1806265 V 6.4847347 H 2.3344282 V 6.229488 H 2.5833934 V 6.0653182 H 2.3344282 V 5.8298806 Z" style="fill:#fff;fill-opacity:1;stroke:none;stroke-width:.0782005;stroke-linecap:butt;stroke-linejoin:round;stroke-dasharray:none;stroke-opacity:1;paint-order:stroke fill markers"/><path id="rect3-066-8-4" d="M 5.2426572,7.6086328 V 7.8440704 H 4.9904936 V 8.0082402 H 5.2426572 V 8.2634869 H 5.3964589 V 8.0082402 H 5.6454241 V 7.8440704 H 5.3964589 V 7.6086328 Z" style="fill:#fff;fill-opacity:1;stroke:none;stroke-width:.0782005;stroke-linecap:butt;stroke-linejoin:round;stroke-dasharray:none;stroke-opacity:1;paint-order:stroke fill markers"/><path id="rect3-96" d="m 3.1829274,5.8938546 v 0.5296861 h -0.567316 v 0.3693481 h 0.567316 V 7.3671414 H 3.5289496 V 6.7928888 H 4.08907 V 6.4235407 H 3.5289496 V 5.8938546 Z" style="fill:#fff;fill-opacity:1;stroke:none;stroke-width:.175935;stroke-linecap:butt;stroke-linejoin:round;stroke-dasharray:none;stroke-opacity:1;paint-order:stroke fill markers"/></g><path id="path1-8" d="M 3.283602,2.0724558 C 2.456418,2.0772558 1.6983632,2.7999832 1.6606985,3.543583 1.6188165,4.3704512 4.5324092,6.9860909 4.5447216,6.997141 v 0.00201 l 0.00102,-0.001 0.00102,0.001 V 6.997141 C 4.5590838,6.9860909 7.4726767,4.3704512 7.4307946,3.543583 7.3734206,2.4108653 5.6444775,1.3262887 4.5457465,2.7545284 4.1683039,2.2638911 3.7164587,2.0699413 3.283602,2.0724558 Z" style="fill:#fff;fill-opacity:1;stroke:none;stroke-width:.519502;stroke-linecap:butt;stroke-linejoin:round;stroke-dasharray:none;stroke-opacity:1"/><g id="layer1"><path style="fill:#e21c1c;fill-opacity:1;stroke:none;stroke-width:.529176;stroke-linecap:butt;stroke-linejoin:round;stroke-dasharray:none;stroke-opacity:1" id="path3-3-1" d="M 7.2064996,3.0443776 5.9553209,5.371336 5.2888051,6.1197047 6.6218366,2.5064876 Z"/><path style="fill:#e21c1c;fill-opacity:1;stroke:none;stroke-width:.529176;stroke-linecap:butt;stroke-linejoin:round;stroke-dasharray:none;stroke-opacity:1" id="path3-34" d="M 6.0784394,2.2065938 4.8740337,7.059296 4.6050887,7.0008299 5.1078988,2.2533668 Z"/><path style="fill:#e21c1c;fill-opacity:1;stroke:none;stroke-width:.529176;stroke-linecap:butt;stroke-linejoin:round;stroke-dasharray:none;stroke-opacity:1" id="path3" d="M 3.0051674,2.2451057 4.2095731,7.0978079 4.4785181,7.0393418 3.975708,2.2918787 Z"/><path style="fill:#e21c1c;fill-opacity:1;stroke:none;stroke-width:.529176;stroke-linecap:butt;stroke-linejoin:round;stroke-dasharray:none;stroke-opacity:1" id="path3-3" d="M 1.9238802,3.0828895 3.0815129,5.3163019 3.6310961,6.0880571 2.4149972,2.2643614 Z"/></g><path id="path1" d="M 3.2667304,2.031144 C 2.4325537,2.036084 1.6680906,2.779691 1.6301075,3.5447747 1.5878715,4.3955325 4.5260945,7.0867426 4.538511,7.098112 v 0.00207 l 0.00103,-0.00103 0.00103,0.00103 V 7.098112 C 4.5529946,7.0867426 7.4912178,4.3955325 7.4489816,3.5447747 7.3911226,2.3793308 5.6475638,1.2634189 4.5395445,2.7329229 4.1589112,2.2281102 3.7032463,2.0285569 3.2667304,2.031144 Z" style="fill:none;fill-opacity:1;stroke:#733c2f;stroke-width:.529176;stroke-linecap:butt;stroke-linejoin:round;stroke-dasharray:none;stroke-opacity:1"/></svg>