<?xml version="1.0" encoding="UTF-8" standalone="no"?>
<!-- Created with Inkscape (http://www.inkscape.org/) -->

<svg
   width="8.9958334mm"
   height="8.9814396mm"
   viewBox="0 0 8.9958334 8.9814396"
   version="1.1"
   id="svg1"
   inkscape:version="1.4.2 (f4327f4, 2025-05-13)"
   sodipodi:docname="copie.svg"
   xmlns:inkscape="http://www.inkscape.org/namespaces/inkscape"
   xmlns:sodipodi="http://sodipodi.sourceforge.net/DTD/sodipodi-0.dtd"
   xmlns="http://www.w3.org/2000/svg"
   xmlns:svg="http://www.w3.org/2000/svg">
  <sodipodi:namedview
     id="namedview1"
     pagecolor="#ffffff"
     bordercolor="#000000"
     borderopacity="0.25"
     inkscape:showpageshadow="2"
     inkscape:pageopacity="0.0"
     inkscape:pagecheckerboard="0"
     inkscape:deskcolor="#d1d1d1"
     inkscape:document-units="mm"
     showguides="false"
     inkscape:zoom="11.313708"
     inkscape:cx="10.562408"
     inkscape:cy="23.732272"
     inkscape:window-width="1920"
     inkscape:window-height="1009"
     inkscape:window-x="1912"
     inkscape:window-y="-8"
     inkscape:window-maximized="1"
     inkscape:current-layer="g55"
     showgrid="false" />
  <defs
     id="defs1" />
  <g
     inkscape:label="Calque 1"
     inkscape:groupmode="layer"
     id="layer1"
     transform="translate(-131.23333,-151.0775)">
    <g
       transform="matrix(0.26458333,0,0,0.26458333,131.49791,151.34166)"
       id="g1">
      <g
         id="use1"
         transform="translate(0,-0.15)">
        <clipPath
           id="clipPath25"
           transform="matrix(1.0, 0.0, 0.0, 0.9984, 0.0, 0.15)">
          <path
             d="M 0,32 V 0 H 32 V 32 H 0"
             fill="#ff0000"
             fill-rule="evenodd"
             stroke="none"
             id="path25" />
        </clipPath>
        <path
           d="M 32.000014,32.1516 H 1.2585827e-5 V 0.15159999 H 32.000014 V 32.1516"
           fill="#e21c1c"
           fill-rule="evenodd"
           stroke="none"
           id="path62-1" />
        <path
           id="path69-6-4-1-8-0"
           style="fill:#ffffff;stroke-width:1.02945"
           sodipodi:type="inkscape:offset"
           inkscape:radius="0.22252429"
           inkscape:original="M 9.4804688 2.2246094 C 8.9518889 2.3274142 8.4444447 2.5396826 7.9589844 2.8613281 C 6.9476104 3.5314212 6.3258227 4.4366795 6.09375 5.5800781 C 5.854854 6.7571068 6.0730813 7.8347553 6.75 8.8125 C 7.3864647 9.8170495 8.2765232 10.435899 9.4199219 10.667969 C 10.59695 10.906867 11.674598 10.688639 12.652344 10.011719 C 13.656893 9.375255 14.278681 8.4680436 14.517578 7.2910156 C 14.749649 6.147617 14.531422 5.0699686 13.861328 4.0585938 C 13.218039 3.0876734 12.307887 2.4830368 11.130859 2.2441406 C 10.55916 2.1281048 10.009049 2.1218046 9.4804688 2.2246094 z "
           d="M 10.292969,1.9296875 C 10.003195,1.9262919 9.716827,1.9515324 9.4375,2.0058594 8.8787714,2.1145279 8.3433395,2.3395981 7.8359375,2.6757813 6.7826463,3.3736469 6.1179304,4.3382626 5.875,5.5351562 5.6261836,6.7610621 5.858749,7.9112206 6.5625,8.9316406 7.2270489,9.9805162 8.178088,10.643787 9.375,10.886719 c 1.225906,0.248818 2.376063,0.01625 3.396484,-0.6875 C 13.821721,9.5338081 14.486893,8.5648853 14.736328,7.3359375 14.97923,6.1391778 14.744882,4.9890503 14.046875,3.9355469 13.373703,2.9195236 12.402624,2.2743974 11.175781,2.0253906 10.877066,1.9647614 10.582742,1.9330831 10.292969,1.9296875 Z"
           transform="matrix(0.87853427,0,0,0.87853427,6.6565135,15.700133)" />
        <path
           d="m 17.814283,24.59413 q -1.297902,0.898572 -2.860339,0.581449 -1.517796,-0.30806 -2.362666,-1.641542 -0.898571,-1.2979 -0.58145,-2.860338 0.308063,-1.517796 1.650604,-2.407306 1.288841,-0.853932 2.806637,-0.54587 1.562437,0.317121 2.416367,1.605962 0.889511,1.342542 0.58145,2.860338 -0.317122,1.562437 -1.650603,2.407307"
           fill="#733c2f"
           fill-rule="evenodd"
           stroke="none"
           id="path69-6-4"
           style="stroke-width:0.911026" />
        <path
           style="fill:#ffffff;fill-opacity:1;stroke:#ffffff;stroke-width:0.755906;stroke-dasharray:none"
           d="m 10.427105,20.451351 -8.1562504,-0.5"
           id="path12" />
        <path
           d="M 32.000014,32.1516 H 1.2585827e-5 V 0.15159999 H 32.000014 Z"
           fill="none"
           stroke="#733c2f"
           stroke-linecap="round"
           stroke-linejoin="round"
           stroke-width="2"
           id="path63-9" />
        <path
           style="fill:#733c2f;fill-opacity:1;stroke:none;stroke-width:0.755906;stroke-dasharray:none"
           d="m 13.739605,23.763851 -0.875,3.25 h 5.625 l -0.8125,-3.75 z"
           id="path4" />
        <path
           style="fill:#733c2f;fill-opacity:1;stroke:none;stroke-width:0.755906;stroke-dasharray:none"
           d="m 13.427105,26.388851 c -1.291037,-0.0141 -2.878054,-0.39478 -4.1227564,-0.07072 -1.098685,1.214095 -1.961472,2.546951 -3.011682,3.819657 l 0.02846,1.528113 2.467904,0.243678 1.4400804,-2.527437 0.137051,2.168494 9.392209,0.11422 0.187356,-2.194714 1.886967,2.458959 3.555408,0.282811 -1.003523,-3.023995 c -0.816763,-1.303202 -1.949073,-2.546245 -3.26627,-3.274268 -1.404517,0.09779 -2.835883,0.0076 -4.253704,0.03771"
           id="path5"
           sodipodi:nodetypes="cccccccccccccc" />
        <path
           id="path69-6-4-1-8"
           style="fill:#ffffff;stroke-width:1.02945"
           sodipodi:type="inkscape:offset"
           inkscape:radius="0.22252429"
           inkscape:original="M 9.4804688 2.2246094 C 8.9518889 2.3274142 8.4444447 2.5396826 7.9589844 2.8613281 C 6.9476104 3.5314212 6.3258227 4.4366795 6.09375 5.5800781 C 5.854854 6.7571068 6.0730813 7.8347553 6.75 8.8125 C 7.3864647 9.8170495 8.2765232 10.435899 9.4199219 10.667969 C 10.59695 10.906867 11.674598 10.688639 12.652344 10.011719 C 13.656893 9.375255 14.278681 8.4680436 14.517578 7.2910156 C 14.749649 6.147617 14.531422 5.0699686 13.861328 4.0585938 C 13.218039 3.0876734 12.307887 2.4830368 11.130859 2.2441406 C 10.55916 2.1281048 10.009049 2.1218046 9.4804688 2.2246094 z "
           d="M 10.292969,1.9296875 C 10.003195,1.9262919 9.716827,1.9515324 9.4375,2.0058594 8.8787714,2.1145279 8.3433395,2.3395981 7.8359375,2.6757813 6.7826463,3.3736469 6.1179304,4.3382626 5.875,5.5351562 5.6261836,6.7610621 5.858749,7.9112206 6.5625,8.9316406 7.2270489,9.9805162 8.178088,10.643787 9.375,10.886719 c 1.225906,0.248818 2.376063,0.01625 3.396484,-0.6875 C 13.821721,9.5338081 14.486893,8.5648853 14.736328,7.3359375 14.97923,6.1391778 14.744882,4.9890503 14.046875,3.9355469 13.373703,2.9195236 12.402624,2.2743974 11.175781,2.0253906 10.877066,1.9647614 10.582742,1.9330831 10.292969,1.9296875 Z"
           transform="translate(5.2149126,0.95017475)" />
        <path
           d="m 17.886802,11.029513 q -1.466619,1.01538 -3.232161,0.657033 -1.715098,-0.348105 -2.669795,-1.8549296 -1.015378,-1.466617 -0.657034,-3.23216 0.348109,-1.7150979 1.86517,-2.7202375 1.456381,-0.9649365 3.171479,-0.6168289 1.765542,0.3583443 2.730476,1.8147248 1.005141,1.5170623 0.657034,3.2321602 -0.358345,1.765542 -1.865169,2.720238"
           fill="#733c2f"
           fill-rule="evenodd"
           stroke="none"
           id="path69-6-4-1"
           style="stroke-width:1.02945" />
        <path
           style="fill:#733c2f;fill-opacity:1;stroke:none;stroke-width:0.854168;stroke-dasharray:none"
           d="M 13.469947,9.1225546 12.481204,12.79503 h 6.356207 L 17.919292,8.5575584 Z"
           id="path4-4" />
        <path
           style="fill:#ffffff;fill-opacity:1;stroke:#ffffff;stroke-width:0.755906;stroke-dasharray:none"
           d="m 20.770855,20.951351 8.09375,-0.75"
           id="path14" />
        <path
           style="fill:#733c2f;fill-opacity:1;stroke:none;stroke-width:0.854168;stroke-dasharray:none"
           d="m 13.116825,12.088784 c -1.458862,-0.01593 -2.969682,-0.02235 -4.3761854,0.34383 -1.241506,1.371918 -1.6323965,3.470754 -2.8191255,4.908902 l -0.3298451,2.26166 2.3378891,-0.678077 1.5735575,-3.453923 2.2736024,2.591631 c 1.684095,-2.370361 6.183102,-2.845795 7.435021,0.02313 l 1.271079,-2.515323 2.132258,2.778605 0.838859,1.160837 1.943726,-0.641282 -0.871246,-2.6448 c -0.922936,-1.472608 -1.230166,-3.849509 -2.718589,-4.67217 -1.587093,0.110502 -3.204526,0.0086 -4.806653,0.04261"
           id="path5-6"
           sodipodi:nodetypes="ccccccccccccccc" />
        <path
           style="fill:#ffffff;fill-opacity:1;stroke:#ffffff;stroke-width:0.755906;stroke-dasharray:none"
           d="M 12.208355,18.170101 4.0208546,9.2638514"
           id="path10" />
        <path
           style="fill:#ffffff;fill-opacity:1;stroke:#ffffff;stroke-width:0.755906;stroke-dasharray:none"
           d="m 18.770855,18.045101 8.0625,-8.9687496"
           id="path13" />
        <ellipse
           style="fill:#ffffff;fill-opacity:1;stroke:none;stroke-width:0.854168;stroke-dasharray:none"
           id="path7"
           cx="14.308343"
           cy="8.9684649"
           rx="0.86144912"
           ry="0.46193647" />
        <ellipse
           style="fill:#ffffff;fill-opacity:1;stroke:none;stroke-width:0.854168;stroke-dasharray:none"
           id="path7-5"
           cx="16.92448"
           cy="9.00949"
           rx="0.86144912"
           ry="0.46193647" />
        <ellipse
           style="fill:#ffffff;fill-opacity:1;stroke:none;stroke-width:0.755906;stroke-dasharray:none"
           id="path7-8"
           cx="14.626955"
           cy="19.485147"
           rx="0.76234949"
           ry="0.4087961" />
        <ellipse
           style="fill:#ffffff;fill-opacity:1;stroke:none;stroke-width:0.755906;stroke-dasharray:none"
           id="path7-5-2"
           cx="16.936239"
           cy="19.57439"
           rx="0.76234949"
           ry="0.4087961" />
        <path
           style="fill:#ffffff;fill-opacity:1;stroke:#ffffff;stroke-width:0.755906;stroke-dasharray:none"
           d="m 10.114605,23.263851 -7.8437504,5.46875"
           id="path11" />
        <path
           style="fill:#ffffff;fill-opacity:1;stroke:#ffffff;stroke-width:0.755906;stroke-dasharray:none"
           d="m 20.239605,23.263851 7.65625,5.09375"
           id="path15" />
        <path
           style="fill:#733c2f;fill-opacity:1;stroke:#ffffff;stroke-width:0.755906;stroke-dasharray:none"
           d="M 6.0710804,2.0242213 13.760867,17.006046"
           id="path18" />
        <path
           style="fill:#733c2f;fill-opacity:1;stroke:#ffffff;stroke-width:0.755906;stroke-dasharray:none"
           d="M 24.632634,2.1126097 16.942848,16.961852"
           id="path19" />
        <path
           style="fill:#ffffff;fill-opacity:1;stroke:none;stroke-width:0.755906;stroke-dasharray:none"
           d="m 14.265638,10.30785 c 1.201723,0.791632 1.982673,0.4357 2.734375,0 -0.845129,0.232153 -1.723969,0.346318 -2.734375,0 z"
           id="path20"
           sodipodi:nodetypes="ccc" />
        <g
           id="use1-8"
           transform="translate(36.849256,-0.351002)">
          <g
             id="g55">
            <path
               d="m -15.772482,20.338037 q -0.494888,0.142679 -0.629314,-0.156264 -0.119477,-0.26573 0.833838,-0.854137 l 1.016418,-0.536914 0.454207,-0.144344 -0.174436,0.278099 -0.199402,0.488983 0.172764,-0.237414 q 0.450189,-0.641687 0.765736,-0.783581 1.988587,-0.195406 2.459074,0.850881 l 0.220589,0.978966 q 0.0894,0.998028 -0.54671,1.403864 l -0.134533,0.100427 0.363698,-0.123612 q 0.199315,-0.08957 0.323906,-0.345311 l 0.08794,0.239978 0.432367,0.783906 q 0.104562,0.232504 -0.0035,0.480734 -0.07479,0.233291 -0.157828,0.270631 -0.199313,0.08957 -0.630877,-0.514949 -0.433254,-0.563881 -0.599332,-0.489201 l -0.161953,0.172655 q -0.282342,0.126936 -0.190262,0.464908 0.193279,0.651827 0.06934,1.48623 l -0.482406,0.03723 q -0.325468,-0.01337 -0.385212,-0.146235 l -0.123397,-1.162433 -0.0952,-1.055318 0.308861,0.02084 q -0.605237,-0.147125 -0.816905,-0.351432 0.161847,0.22671 0.346982,0.28322 l -0.06476,-0.01081 -0.25324,0.01405 q -0.232505,0.104562 -0.392117,0.815233 -0.191151,0.684934 -0.490091,0.819359 l -0.288128,0.06967 q -0.310532,0.01984 -0.385213,-0.146236 -0.126935,-0.282342 0.485294,-1.496042 l 0.58316,-1.100799 0.06719,0.149476 q -0.08461,-0.321342 -0.0389,-0.441722 l -0.204982,-0.367042 -0.034,-0.164406 -0.0075,-0.01661 -0.04068,-0.0017 -0.938283,0.222262 q -0.258255,0.136096 -0.522308,0.2149"
               fill="#fcf9e0"
               fill-rule="evenodd"
               stroke="none"
               id="path49-1"
               style="fill:#733c2f;fill-opacity:1;stroke-width:0.364192" />
            <path
               d="m -27.101682,20.416425 q 0.494888,0.142679 0.629314,-0.156264 0.119477,-0.26573 -0.833838,-0.854137 l -1.016417,-0.536914 -0.454207,-0.144344 0.174436,0.278099 0.199402,0.488983 -0.172764,-0.237414 q -0.450189,-0.641687 -0.765736,-0.783581 -1.988588,-0.195406 -2.459075,0.850881 l -0.220589,0.978966 q -0.0894,0.998028 0.54671,1.403864 l 0.134533,0.100427 -0.363698,-0.123612 q -0.199315,-0.08957 -0.323906,-0.345311 l -0.08794,0.239978 -0.432367,0.783906 q -0.104562,0.232504 0.0035,0.480734 0.07479,0.233291 0.157828,0.270631 0.199313,0.08957 0.630877,-0.514949 0.433254,-0.563881 0.599333,-0.489201 l 0.161953,0.172655 q 0.282342,0.126936 0.190262,0.464908 -0.193279,0.651827 -0.06934,1.48623 l 0.482406,0.03723 q 0.325468,-0.01337 0.385212,-0.146235 l 0.123397,-1.162433 0.0952,-1.055318 -0.308861,0.02084 q 0.605237,-0.147125 0.816905,-0.351432 -0.161847,0.22671 -0.346982,0.28322 l 0.06476,-0.01081 0.25324,0.01405 q 0.232505,0.104562 0.392117,0.815233 0.191151,0.684934 0.490091,0.819359 l 0.288128,0.06967 q 0.310532,0.01984 0.385213,-0.146236 0.126934,-0.282342 -0.485294,-1.496042 l -0.58316,-1.100799 -0.06719,0.149476 q 0.08461,-0.321342 0.0389,-0.441722 l 0.204982,-0.367042 0.034,-0.164406 0.0075,-0.01661 0.04068,-0.0017 0.938282,0.222262 q 0.258255,0.136096 0.522308,0.2149"
               fill="#fcf9e0"
               fill-rule="evenodd"
               stroke="none"
               id="path49-1-2"
               style="fill:#733c2f;fill-opacity:1;stroke-width:0.364192" />
          </g>
        </g>
      </g>
    </g>
  </g>
</svg>
