<?xml version="1.0" standalone="no"?>
<!DOCTYPE svg PUBLIC "-//W3C//DTD SVG 20010904//EN"
 "http://www.w3.org/TR/2001/REC-SVG-20010904/DTD/svg10.dtd">
<svg version="1.0" xmlns="http://www.w3.org/2000/svg"
 width="512.000000pt" height="512.000000pt" viewBox="0 0 512.000000 512.000000"
 preserveAspectRatio="xMidYMid meet">
<metadata>
Created by potrace 1.14, written by Peter Selinger 2001-2017
</metadata>
<g transform="translate(0.000000,512.000000) scale(0.100000,-0.100000)"
fill="#000000" stroke="none">
<path d="M925 5090 c-228 -46 -412 -145 -576 -309 -168 -169 -269 -358 -313
-586 -15 -80 -17 -332 -2 -400 34 -156 88 -288 171 -417 38 -59 341 -367 1552
-1578 827 -828 1532 -1526 1566 -1552 378 -285 923 -290 1317 -10 138 99 292
282 362 432 31 65 76 199 83 243 3 18 10 57 15 87 9 57 6 283 -5 335 -34 162
-84 289 -162 410 -35 53 -392 416 -1577 1600 -959 960 -1553 1546 -1591 1572
-75 50 -198 113 -223 113 -10 0 -22 -3 -26 -7 -4 -5 -11 -8 -14 -9 -28 -3 -40
-18 -36 -42 3 -15 9 -29 13 -32 5 -3 14 -30 21 -60 7 -30 17 -67 22 -82 6 -15
8 -29 7 -32 -2 -2 4 -12 13 -22 9 -11 17 -23 19 -29 2 -13 5 -22 16 -65 6 -21
6 -44 1 -55 -8 -18 -8 -18 -4 3 2 13 -1 22 -9 22 -7 0 -18 14 -25 30 -7 17
-16 30 -21 30 -5 0 -8 3 -7 8 2 11 -13 45 -31 66 -13 16 -13 18 -1 11 12 -7
12 -5 -1 11 -20 24 -49 83 -49 101 0 7 -4 13 -10 13 -5 0 -10 7 -10 15 0 19
-21 57 -37 68 -7 4 -9 15 -6 24 4 11 3 14 -5 9 -7 -4 -12 -1 -12 8 0 9 -4 16
-10 16 -5 0 -10 4 -10 9 0 6 -12 23 -27 38 -14 15 -23 22 -18 14 6 -11 2 -10
-16 2 -33 24 -222 22 -344 -3z m465 -667 c12 -21 23 -42 24 -48 1 -5 8 -21 16
-35 19 -35 93 -183 96 -192 1 -5 2 -18 3 -30 0 -12 4 -18 8 -15 6 7 37 -74 94
-248 26 -77 90 -244 119 -310 17 -40 23 -68 11 -61 -6 4 -11 16 -11 27 0 13
-4 18 -12 13 -7 -4 -10 -4 -6 1 4 4 1 20 -6 34 -44 86 -57 115 -86 201 -17 52
-38 108 -45 125 -8 16 -11 33 -9 37 3 4 0 8 -5 8 -6 0 -11 11 -11 25 0 14 -5
25 -11 25 -5 0 -8 4 -4 9 3 5 1 12 -5 16 -6 4 -8 11 -5 16 4 5 1 9 -5 9 -6 0
-8 4 -5 10 3 5 -2 21 -11 35 -9 14 -14 32 -10 40 3 9 2 13 -4 10 -6 -3 -10 -1
-10 4 0 22 -2 27 -22 59 -11 17 -17 32 -14 32 4 0 -5 21 -18 48 -14 26 -26 54
-28 62 -2 8 -9 21 -16 29 -7 7 -11 20 -8 27 3 7 -3 18 -12 23 -9 6 -13 11 -9
11 4 0 3 9 -3 20 -19 35 -3 21 20 -17z m417 -621 c26 -53 48 -99 48 -102 6
-21 36 -92 46 -110 5 -8 18 -33 30 -54 12 -22 43 -61 70 -87 53 -51 111 -137
103 -150 -3 -5 0 -9 6 -9 6 0 8 -4 5 -10 -3 -5 -1 -10 4 -10 6 0 11 -9 11 -20
0 -11 5 -20 12 -20 6 0 9 -3 6 -6 -4 -3 -2 -20 3 -37 30 -99 14 -82 -32 33
-39 99 -68 145 -136 216 -45 48 -121 177 -116 196 2 4 -1 8 -5 8 -9 0 -37 70
-34 83 1 4 -3 7 -9 7 -6 0 -9 7 -5 15 3 8 -2 19 -12 24 -9 6 -13 11 -8 11 4 0
2 10 -6 23 -21 33 -50 109 -38 102 5 -3 31 -50 57 -103z m971 -477 c46 -19
504 -473 533 -527 24 -48 24 -101 -1 -152 -27 -57 -762 -790 -812 -811 -49
-20 -94 -19 -143 4 -26 12 -127 107 -286 267 -226 228 -247 253 -254 292 -4
23 -4 61 0 85 7 39 33 68 394 431 258 259 399 395 426 407 49 23 94 24 143 4z
m315 -1307 c-2 -5 0 -8 4 -8 10 0 80 -114 107 -175 10 -22 24 -53 32 -69 8
-16 14 -37 14 -47 0 -10 5 -21 10 -24 6 -4 8 -11 5 -16 -4 -5 -2 -9 3 -9 5 0
9 -6 9 -13 0 -6 13 -32 29 -57 15 -25 29 -47 29 -50 1 -7 97 -153 109 -166 30
-32 102 -119 110 -133 5 -9 16 -22 24 -28 10 -8 11 -13 4 -13 -7 0 -32 20 -56
44 -25 24 -47 41 -50 38 -4 -3 -6 2 -6 12 0 20 -25 48 -34 39 -3 -4 -6 0 -6 8
0 8 -10 25 -23 39 -26 29 -58 77 -57 86 1 3 -8 14 -19 23 -11 10 -18 21 -14
25 3 3 1 6 -6 6 -7 0 -10 4 -7 8 3 5 -3 18 -12 28 -19 21 -67 123 -77 167 -4
15 -11 30 -16 33 -5 3 -7 10 -4 15 4 5 1 9 -4 9 -6 0 -10 3 -9 8 2 12 -20 60
-32 67 -5 3 -8 11 -5 16 4 5 1 9 -4 9 -6 0 -11 9 -11 19 0 11 -5 21 -11 23 -5
2 -11 12 -13 21 -1 10 -8 22 -15 26 -7 5 -13 12 -13 17 0 5 -9 27 -20 49 l-21
40 30 -30 c17 -16 28 -33 26 -37z"/>
<path d="M2675 3228 c-11 -6 -186 -177 -388 -379 -320 -320 -369 -373 -374
-404 -6 -36 -5 -37 233 -276 206 -206 244 -240 276 -245 l37 -6 380 379 c235
235 382 389 386 406 4 14 4 34 1 44 -3 10 -113 125 -244 256 -247 246 -257
253 -307 225z"/>
<path d="M3810 5099 c-90 -14 -260 -72 -348 -119 -87 -47 -200 -131 -259 -192
-23 -24 -64 -88 -91 -143 -57 -112 -72 -129 -122 -132 -64 -5 -74 -12 -192
-130 l-118 -118 790 -790 790 -790 288 288 c287 289 349 359 416 474 151 259
186 604 90 893 -54 161 -144 308 -264 431 -166 170 -354 271 -605 324 -53 12
-308 14 -375 4z"/>
<path d="M745 2330 c-65 -65 -122 -126 -126 -136 -8 -20 -79 -100 -79 -89 0
15 -91 -101 -97 -123 -7 -28 16 -59 29 -40 8 10 11 10 15 0 2 -6 10 -9 16 -5
6 3 40 7 76 8 36 2 78 7 92 13 15 6 30 8 33 5 3 -4 6 -1 6 6 0 7 5 9 10 6 28
-17 -12 -38 -90 -48 -14 -2 -32 -7 -39 -12 -10 -6 -12 -4 -6 6 7 12 6 12 -7 1
-15 -12 -78 -23 -150 -26 -20 -1 -40 -4 -43 -8 -4 -4 -14 -4 -23 -1 -11 5 -13
3 -7 -7 6 -10 4 -12 -9 -7 -10 4 -15 3 -11 -3 3 -6 2 -10 -3 -10 -14 0 -44
-79 -46 -124 -2 -30 -8 -42 -24 -49 -12 -6 -22 -14 -22 -19 0 -5 5 -6 12 -2 7
5 8 3 4 -5 -5 -7 -10 -10 -13 -7 -3 3 -18 -1 -34 -10 -16 -8 -29 -12 -29 -9 0
4 -6 0 -14 -7 -7 -7 -23 -19 -34 -27 -12 -8 -18 -20 -14 -29 3 -10 1 -13 -6
-8 -8 5 -12 0 -12 -13 0 -10 -4 -21 -10 -23 -5 -1 -22 -48 -37 -103 -23 -89
-26 -119 -27 -270 -1 -183 8 -243 60 -387 57 -157 138 -284 263 -409 167 -167
368 -273 593 -313 83 -15 328 -16 393 -2 161 35 316 101 439 186 45 31 190
166 371 345 l297 294 -511 511 -511 511 -42 -6 c-24 -3 -54 -8 -68 -10 -14 -2
-51 -7 -82 -10 -31 -3 -91 -12 -132 -19 -92 -16 -226 -21 -226 -8 0 5 18 9 41
8 22 -1 42 1 44 4 2 3 21 7 42 9 21 2 47 4 58 5 11 1 25 4 30 7 6 4 27 5 47 4
21 -1 35 1 33 5 -3 5 3 7 12 5 10 -1 25 1 33 5 8 5 53 11 99 14 46 3 85 7 86
8 2 2 -117 123 -264 270 l-267 266 -119 -118z m113 -492 c-2 -6 -15 -13 -29
-14 -26 -4 -88 -15 -104 -20 -5 -1 -44 -12 -85 -24 -103 -30 -120 -32 -120
-19 0 7 3 10 6 7 3 -4 17 0 31 7 15 8 30 12 35 9 4 -3 8 -1 8 4 0 6 13 9 30 8
16 -1 31 2 33 7 1 4 14 10 27 12 14 2 36 6 50 9 14 4 42 8 64 11 21 2 41 6 44
9 9 10 14 7 10 -6z m-348 -86 c0 -5 -7 -9 -15 -9 -8 0 -12 4 -9 9 3 4 9 8 15
8 5 0 9 -4 9 -8z"/>
</g>
</svg>
