<?xml version="1.0" encoding="UTF-8" standalone="no"?>
<svg xmlns:xlink="http://www.w3.org/1999/xlink" height="86.9px" width="85.85px" xmlns="http://www.w3.org/2000/svg">
  <g transform="matrix(1.0, 0.0, 0.0, 1.0, 42.9, 43.45)">
    <path d="M22.5 -34.8 L22.65 -34.95 22.65 -34.8 22.5 -34.8 M-30.1 3.7 Q-29.75 2.85 -29.05 2.35 L-29.05 2.5 -30.1 3.7" fill="#996600" fill-rule="evenodd" stroke="none"/>
    <path d="M22.5 -34.8 L22.65 -34.8 23.45 -33.25 24.9 -30.1 25.3 -28.8 25.8 -27.35 26.35 -26.05 28.8 -22.25 28.9 -22.1 29.05 -21.95 31.7 -19.35 35.15 -15.95 36.35 -14.85 38.45 -12.5 40.2 -10.15 Q41.75 -7.55 42.25 -4.95 42.95 -2.15 42.95 0.6 L42.6 4.85 42.45 5.45 42.45 5.5 42.25 6.3 42.05 5.35 37.55 -3.9 37.9 -0.55 37.9 -0.45 37.05 4.65 36.35 6.3 Q33.75 12.05 32.9 18.8 L32.9 18.85 Q32.7 20.4 33.05 21.95 33.4 24.2 34.3 26.3 L35.3 28.9 35.65 29.55 Q36.25 30.5 37.5 31.3 L35.15 31.45 25.1 31.85 30.0 37.35 31.95 38.75 Q25.9 39.65 20.4 35.8 L20.25 35.65 Q21.25 39.85 23.85 42.95 L23.85 43.45 Q20.55 42.25 18.3 40.35 L14.15 36.7 12.85 35.3 11.7 33.9 Q11.2 33.4 11.05 32.9 L11.05 32.85 Q12.4 30.95 15.2 29.9 16.95 27.65 17.45 25.05 L17.75 24.05 17.95 23.0 17.9 21.9 17.8 21.4 13.3 20.4 12.6 20.05 Q11.05 19.0 10.5 17.6 10.35 15.7 11.9 13.8 L12.6 12.75 Q15.7 8.95 12.95 4.95 L11.15 2.95 10.0 1.8 7.6 0.6 3.9 -0.55 3.75 -0.55 3.55 -0.6 -1.45 -0.45 -2.15 -0.25 -2.75 -0.1 -3.35 0.1 -6.3 0.9 -9.25 1.8 -13.45 -0.25 -24.0 -0.6 -24.2 -0.45 Q-26.6 0.4 -29.05 2.5 L-29.05 2.35 Q-29.75 2.85 -30.1 3.7 -31.5 4.95 -32.15 6.3 L-33.1 8.45 -35.55 15.5 -35.8 16.2 -36.25 17.55 -37.2 21.75 -37.2 21.8 Q-37.55 24.55 -37.55 27.5 L-37.55 30.45 -38.4 28.9 -39.3 26.8 Q-40.65 22.3 -40.65 17.45 -40.5 11.2 -39.45 5.1 -38.05 -2.35 -32.15 -6.85 -34.45 -3.55 -36.35 0.25 -38.4 4.75 -38.4 9.8 -38.4 12.2 -37.9 14.65 -37.05 -2.85 -19.5 -5.15 -16.75 -5.45 -14.3 -4.1 -7.35 0.1 0.25 -4.1 6.15 -7.2 12.6 -6.35 13.1 -14.0 12.25 -20.2 17.3 -19.85 21.45 -17.25 20.9 -21.45 19.35 -25.1 16.75 -31.0 11.7 -34.6 13.8 -33.9 15.55 -32.35 L15.8 -32.15 19.65 -28.9 21.45 -27.7 22.3 -27.15 22.5 -34.8 M-5.45 -29.4 L-3.0 -25.6 Q-0.75 -22.8 4.45 -22.15 L4.45 -20.9 Q3.9 -20.4 0.8 -19.2 L-0.4 -18.85 Q-3.0 -17.6 -5.65 -16.4 L-6.3 -16.6 Q-5.95 -17.6 -5.65 -20.05 -5.1 -21.9 -3.45 -22.9 L-3.35 -22.8 -2.5 -21.95 Q-1.45 -20.9 0.8 -19.2 -1.45 -20.9 -2.5 -21.95 L-3.35 -22.8 -3.35 -23.0 Q-4.4 -24.4 -4.95 -26.1 -5.45 -27.7 -5.45 -29.4 M28.05 -6.85 Q32.55 -5.15 33.6 -1.65 L33.6 -2.5 Q33.6 -10.85 28.4 -15.0 33.6 -10.85 33.6 -2.5 L33.6 -1.65 Q32.55 -5.15 28.05 -6.85 M24.05 -24.55 Q24.75 -23.5 25.25 -21.25 L25.45 -17.8 25.25 -15.7 25.45 -17.8 25.25 -21.25 Q24.75 -23.5 24.05 -24.55" fill="#d6baba" fill-rule="evenodd" stroke="none"/>
    <path d="M11.7 -34.6 Q16.75 -31.0 19.35 -25.1 20.9 -21.45 21.45 -17.25 17.3 -19.85 12.25 -20.2 13.1 -14.0 12.6 -6.35 6.15 -7.2 0.25 -4.1 -7.35 0.1 -14.3 -4.1 -16.75 -5.45 -19.5 -5.15 -37.05 -2.85 -37.9 14.65 -38.4 12.2 -38.4 9.8 -38.4 4.75 -36.35 0.25 -34.45 -3.55 -32.15 -6.85 -38.05 -2.35 -39.45 5.1 -40.5 11.2 -40.65 17.45 -40.65 22.3 -39.3 26.8 -41.0 22.5 -42.05 17.6 -42.6 15.0 -42.75 12.4 -43.25 7.9 -42.05 3.9 L-40.35 -1.1 -40.15 -1.8 -39.85 -2.65 -37.1 -8.05 -36.95 -8.2 -36.85 -8.4 -36.7 -8.55 -33.4 -12.65 -32.15 -13.95 -32.0 -13.95 -32.0 -14.0 -31.75 -15.2 -31.75 -15.4 -30.7 -20.45 -30.45 -21.05 Q-30.1 -21.4 -28.7 -23.3 -27.5 -25.25 -25.4 -25.9 L-21.4 -27.65 -21.4 -27.7 -21.95 -28.45 -21.4 -27.7 -21.95 -28.45 -33.2 -43.45 Q-27.65 -37.7 -20.55 -34.95 L-10.8 -32.75 -7.9 -32.85 3.2 -34.75 7.8 -35.25 11.7 -34.6 M-36.25 17.55 L-35.8 16.2 -35.55 15.5 -35.8 16.25 -36.25 17.55 M-33.1 8.45 L-32.15 6.3 Q-31.5 4.95 -30.1 3.7 L-29.05 2.5 Q-26.6 0.4 -24.2 -0.45 L-23.9 -0.05 -24.2 -0.4 Q-26.6 0.45 -29.05 2.55 L-30.1 3.75 Q-31.5 4.95 -32.15 6.35 L-33.1 8.45 M-9.25 1.8 L-6.3 0.9 -9.25 1.85 -9.3 1.9 -9.25 1.8 M-3.35 0.1 L-2.75 -0.1 -2.7 -0.1 -2.15 -0.25 -1.45 -0.45 3.55 -0.6 -1.45 -0.4 -2.15 -0.25 -2.7 -0.05 -3.35 0.1 M7.6 0.6 L10.0 1.8 11.15 2.95 10.0 1.85 7.6 0.6 M13.3 20.4 L17.8 21.4 17.9 21.9 17.8 21.45 13.3 20.4 M11.05 32.9 Q11.2 33.4 11.7 33.9 L12.85 35.3 11.7 33.95 11.05 32.9 M20.25 35.65 L20.4 35.8 Q25.9 39.65 31.95 38.75 L32.0 38.8 Q25.95 39.65 20.4 35.85 L20.25 35.65 M35.15 31.45 L37.5 31.3 37.55 31.35 35.15 31.45 M32.9 18.85 L32.9 18.8 Q33.75 12.05 36.35 6.3 L37.05 4.65 36.35 6.35 Q33.75 12.05 32.9 18.85 M42.05 5.35 L42.25 6.3 42.45 5.5 42.45 5.45 42.6 4.85 42.45 5.5 42.25 6.35 42.05 5.35 M-5.3 -8.75 Q-6.3 -10.0 -7.35 -10.7 L-12.4 -14.15 Q-15.15 -15.7 -18.1 -16.75 L-21.95 -17.1 -25.25 -16.75 -29.05 -15.7 -32.0 -14.0 -29.05 -15.7 -25.25 -16.75 -21.95 -17.1 -18.1 -16.75 Q-15.15 -15.7 -12.4 -14.15 L-7.35 -10.7 Q-6.3 -10.0 -5.3 -8.75 M-3.45 -22.9 Q-5.1 -21.9 -5.65 -20.05 -5.95 -17.6 -6.3 -16.6 L-5.65 -16.4 Q-3.0 -17.6 -0.4 -18.85 L0.8 -19.2 Q3.9 -20.4 4.45 -20.9 L4.45 -22.15 Q-0.75 -22.8 -3.0 -25.6 L-5.45 -29.4 Q-5.45 -27.7 -4.95 -26.1 -4.4 -24.4 -3.35 -23.0 L-3.45 -22.9 M2.35 -25.95 Q-1.3 -26.8 -2.5 -27.7 L-5.65 -30.3 -5.45 -29.4 -5.65 -30.3 -2.5 -27.7 Q-1.3 -26.8 2.35 -25.95" fill="#ffffff" fill-rule="evenodd" stroke="none"/>
    <path d="M-3.45 -22.9 L-3.35 -23.0 -3.35 -22.8 -3.45 -22.9 M37.5 31.3 L37.55 31.3 37.5 31.3 M31.95 38.75 L32.0 38.75 31.95 38.75" fill="#660000" fill-opacity="0.28235295" fill-rule="evenodd" stroke="none"/>
    <path d="M-2.75 -0.1 L-2.15 -0.25 -2.7 -0.1 -2.75 -0.1" fill="#7e4b01" fill-rule="evenodd" stroke="none"/>
    <path d="M22.65 -34.8 L22.65 -34.95 22.5 -34.95 22.5 -34.8 22.3 -27.15 21.45 -27.7 19.65 -28.9 15.8 -32.15 15.55 -32.35 Q13.8 -33.9 11.7 -34.6 M-39.3 26.8 L-38.4 28.9 -37.55 30.45 -37.55 27.5 Q-37.55 24.55 -37.2 21.8 L-37.2 21.75 -36.25 17.55 -35.8 16.2 -35.55 15.5 -33.1 8.45 -32.15 6.3 Q-31.5 4.95 -30.1 3.7 L-29.05 2.5 Q-26.6 0.4 -24.2 -0.45 L-24.0 -0.6 -13.45 -0.25 -9.25 1.8 -6.3 0.9 -3.35 0.1 -2.75 -0.1 -2.15 -0.25 -1.45 -0.45 3.55 -0.6 3.75 -0.55 3.9 -0.55 7.6 0.6 10.0 1.8 11.15 2.95 12.95 4.95 Q15.7 8.95 12.6 12.75 L11.9 13.8 Q10.35 15.7 10.5 17.6 11.05 19.0 12.6 20.05 L13.3 20.4 17.8 21.4 17.9 21.9 17.95 23.0 17.75 24.05 17.45 25.05 Q16.95 27.65 15.2 29.9 12.4 30.95 11.05 32.85 L11.05 32.9 Q11.2 33.4 11.7 33.9 L12.85 35.3 14.15 36.7 18.3 40.35 Q20.55 42.25 23.85 43.45 M23.85 42.95 Q21.25 39.85 20.25 35.65 L20.4 35.8 Q25.9 39.65 31.95 38.75 L30.0 37.35 25.1 31.85 35.15 31.45 37.5 31.3 Q36.25 30.5 35.65 29.55 L35.3 28.9 34.3 26.3 Q33.4 24.2 33.05 21.95 32.7 20.4 32.9 18.85 L32.9 18.8 Q33.75 12.05 36.35 6.3 L37.05 4.65 37.9 -0.45 37.9 -0.55 37.55 -3.9 42.05 5.35 42.25 6.3 42.45 5.5 42.45 5.45 42.6 4.85 42.95 0.6 Q42.95 -2.15 42.25 -4.95 41.75 -7.55 40.2 -10.15 L38.45 -12.5 36.35 -14.85 35.15 -15.95 31.7 -19.35 29.05 -21.95 28.9 -22.1 28.8 -22.25 26.35 -26.05 25.8 -27.35 25.3 -28.8 24.9 -30.1 23.45 -33.25 22.65 -34.8 M-10.8 -32.75 L-7.9 -32.9 3.2 -34.8 7.8 -35.25 11.7 -34.6 M-10.8 -32.75 L-20.55 -34.95 Q-27.65 -37.7 -33.2 -43.45 L-21.95 -28.45 -21.4 -27.7 M-30.7 -20.45 L-31.75 -15.4 -31.75 -15.2 -32.0 -14.0 -29.05 -15.7 -25.25 -16.75 -21.95 -17.1 -18.1 -16.75 Q-15.15 -15.7 -12.4 -14.15 L-7.35 -10.7 Q-6.3 -10.0 -5.3 -8.75 M-3.35 -23.0 Q-4.4 -24.4 -4.95 -26.1 -5.45 -27.7 -5.45 -29.4 L-5.65 -30.3 -2.5 -27.7 Q-1.3 -26.8 2.35 -25.95 M25.25 -15.7 L25.45 -17.8 25.25 -21.25 Q24.75 -23.5 24.05 -24.55 M28.4 -15.0 Q33.6 -10.85 33.6 -2.5 L33.6 -1.65 Q32.55 -5.15 28.05 -6.85 M37.5 31.3 L37.55 31.3 37.5 31.3 M23.85 42.95 L24.05 43.45 23.85 43.45 M31.95 38.75 L32.0 38.75 31.95 38.75 M-30.7 -20.45 L-30.45 -21.1 Q-30.1 -21.45 -28.7 -23.35 -27.5 -25.25 -25.4 -25.95 L-21.4 -27.7 M-33.4 -12.65 L-32.15 -14.0 -32.0 -14.0 M-33.4 -12.65 L-36.7 -8.55 -36.85 -8.4 -36.95 -8.2 -37.1 -8.05 -39.85 -2.65 M-40.35 -1.1 L-42.05 3.9 Q-43.25 7.9 -42.75 12.4 -42.6 15.0 -42.05 17.6 -41.0 22.5 -39.3 26.8 M-40.35 -1.1 L-40.15 -1.85 -39.85 -2.65 M-23.9 -0.05 L-24.2 -0.45 M-3.35 -22.8 L-2.5 -21.95 Q-1.45 -20.9 0.8 -19.2 M-3.35 -23.0 L-3.35 -22.8 M-9.25 1.8 L-9.3 1.9 -9.45 2.0 -10.5 2.7 M-23.9 -0.05 L-23.3 0.6 -22.8 1.1" fill="none" stroke="#000000" stroke-linecap="round" stroke-linejoin="round" stroke-opacity="0.3019608" stroke-width="0.05"/>
  </g>
</svg>
