<?xml version="1.0" encoding="UTF-8" standalone="no"?>
<svg xmlns:xlink="http://www.w3.org/1999/xlink" height="58.25px" width="80.8px" xmlns="http://www.w3.org/2000/svg">
  <g transform="matrix(1.0, 0.0, 0.0, 1.0, 40.4, 29.15)">
    <path d="M11.05 -11.3 L17.2 -5.15 Q20.6 -1.3 23.4 2.6 19.7 -1.15 10.25 -4.25 -3.5 -8.8 -5.55 -9.7 L-5.6 -9.6 Q-5.1 -9.55 -2.9 -7.5 -0.25 -5.05 1.1 -2.75 2.45 -0.55 3.8 2.45 L5.1 5.2 5.0 5.2 Q1.15 2.9 0.3 2.6 -1.9 1.8 -6.35 -0.2 L-11.35 -2.55 -7.45 1.4 -1.7 7.2 Q1.0 9.75 3.65 13.65 L6.15 17.5 5.25 17.5 Q0.85 16.3 -5.75 12.8 -12.8 9.05 -15.75 6.0 -18.8 2.85 -21.1 -1.1 L-22.7 -4.0 -22.95 -3.95 -23.1 -4.8 -23.15 -5.25 Q-23.15 -7.5 -18.6 -7.95 -23.15 -7.5 -23.15 -5.25 L-23.1 -4.8 -22.95 -3.95 Q-28.55 -2.75 -32.9 1.2 -37.85 5.7 -37.85 10.75 L-37.6 15.8 Q-40.4 10.8 -40.4 4.9 -40.4 -0.4 -36.3 -3.35 L-35.8 -3.75 -33.6 -4.7 -33.85 -5.45 -33.9 -7.25 Q-33.9 -14.9 -28.75 -18.85 -21.75 -24.2 0.15 -29.15 L-3.75 -25.3 -0.4 -26.35 Q3.55 -27.35 7.1 -27.35 12.4 -27.35 23.9 -20.2 L29.05 -16.95 22.2 -18.5 Q14.65 -19.9 8.5 -19.9 L1.9 -18.9 -3.15 -17.4 -0.25 -16.75 Q2.85 -16.05 6.3 -14.3 L8.5 -13.15 11.05 -11.3 M-14.55 -15.05 Q-13.7 -16.1 -12.15 -16.9 -10.15 -18.0 -7.95 -18.0 L-3.15 -17.4 -7.95 -18.0 Q-10.15 -18.0 -12.15 -16.9 -13.7 -16.1 -14.55 -15.05 M-8.35 -23.1 Q-6.3 -24.4 -3.75 -25.3 -6.3 -24.4 -8.35 -23.1 M37.75 28.4 L37.75 28.45 37.7 28.45 37.75 28.4 M-29.3 -5.65 L-33.6 -4.7 -29.3 -5.65 M-18.45 -10.9 Q-18.65 -11.75 -19.65 -13.1 L-20.9 -14.4 -21.75 -14.4 -20.9 -14.4 -19.65 -13.1 Q-18.65 -11.75 -18.45 -10.9" fill="#ffffff" fill-rule="evenodd" stroke="none"/>
    <path d="M-22.95 -3.95 L-22.7 -4.0 -21.1 -1.1 Q-18.8 2.85 -15.75 6.0 -12.8 9.05 -5.75 12.8 0.85 16.3 5.25 17.5 L6.15 17.5 3.65 13.65 Q1.0 9.75 -1.7 7.2 L-7.45 1.4 -11.35 -2.55 -6.35 -0.2 Q-1.9 1.8 0.3 2.6 1.15 2.9 5.0 5.2 L5.1 5.2 3.8 2.45 Q2.45 -0.55 1.1 -2.75 -0.25 -5.05 -2.9 -7.5 -5.1 -9.55 -5.6 -9.6 L-5.55 -9.7 Q-3.5 -8.8 10.25 -4.25 19.7 -1.15 23.4 2.6 20.6 -1.3 17.2 -5.15 L11.05 -11.3 8.5 -13.15 6.3 -14.3 Q2.85 -16.05 -0.25 -16.75 L-3.15 -17.4 1.9 -18.9 8.5 -19.9 Q14.65 -19.9 22.2 -18.5 L29.05 -16.95 39.3 -10.35 36.05 -11.1 25.3 -12.9 Q29.75 -11.5 34.0 -5.55 38.1 0.2 38.7 5.4 L39.9 14.5 40.4 18.75 34.75 12.2 32.5 9.9 32.2 9.55 Q31.6 12.15 31.05 13.05 L32.85 17.1 33.0 17.5 37.75 28.4 37.7 28.45 37.65 28.4 33.25 25.5 32.7 25.2 28.5 23.45 Q24.15 21.65 22.6 20.75 L20.15 19.15 18.65 20.5 Q17.4 21.5 17.4 22.6 L17.2 24.2 18.65 26.65 Q19.9 28.8 20.3 29.1 L20.1 29.1 14.0 27.05 Q7.6 24.5 0.0 20.0 -15.55 10.75 -21.6 0.15 L-21.65 0.1 Q-24.9 1.6 -28.55 9.5 -30.65 13.95 -31.35 16.3 L-31.45 16.55 -31.5 17.0 Q-32.85 19.0 -33.25 21.55 -35.4 19.35 -36.9 17.0 L-37.6 15.8 -37.85 10.75 Q-37.85 5.7 -32.9 1.2 -28.55 -2.75 -22.95 -3.95 L-21.6 0.15 -22.95 -3.95 M17.2 24.2 L16.4 22.9 13.4 17.8 Q10.7 13.45 6.95 9.4 L3.35 5.6 9.75 11.25 18.7 18.2 20.15 19.15 18.7 18.2 9.75 11.25 3.35 5.6 6.95 9.4 Q10.7 13.45 13.4 17.8 L16.4 22.9 17.2 24.2 M31.05 13.05 L30.75 12.4 30.6 12.05 30.5 11.8 Q28.4 7.35 27.4 6.25 28.7 6.25 31.6 8.95 L32.2 9.55 31.6 8.95 Q28.7 6.25 27.4 6.25 28.4 7.35 30.5 11.8 L30.6 12.05 30.75 12.4 31.05 13.05" fill="#d6baba" fill-rule="evenodd" stroke="none"/>
    <path d="M11.05 -11.3 L8.5 -13.15 6.3 -14.3 Q2.85 -16.05 -0.25 -16.75 L-3.15 -17.4 -7.95 -18.0 Q-10.15 -18.0 -12.15 -16.9 -13.7 -16.1 -14.55 -15.05 M29.05 -16.95 L23.9 -20.2 Q12.4 -27.35 7.1 -27.35 3.55 -27.35 -0.4 -26.35 L-3.75 -25.3 Q-6.3 -24.4 -8.35 -23.1 M39.75 -10.2 L39.3 -10.35 39.55 -10.2 39.75 -10.2 M39.3 -10.35 L36.05 -11.1 25.3 -12.9 Q29.75 -11.5 34.0 -5.55 38.1 0.2 38.7 5.4 L39.9 14.5 40.4 18.75 34.75 12.2 32.5 9.9 32.2 9.55 31.6 8.95 Q28.7 6.25 27.4 6.25 28.4 7.35 30.5 11.8 L30.6 12.05 30.75 12.4 31.05 13.05 32.85 17.1 33.0 17.5 37.75 28.4 37.75 28.45 37.7 28.45 37.65 28.4 33.25 25.5 32.7 25.2 28.5 23.45 Q24.15 21.65 22.6 20.75 L20.15 19.15 18.7 18.2 9.75 11.25 3.35 5.6 6.95 9.4 Q10.7 13.45 13.4 17.8 L16.4 22.9 17.2 24.2 18.65 26.65 Q19.9 28.8 20.3 29.1 L20.1 29.1 14.0 27.05 Q7.6 24.5 0.0 20.0 -15.55 10.75 -21.6 0.15 L-21.65 0.1 Q-24.9 1.6 -28.55 9.5 -30.65 13.95 -31.35 16.3 L-31.45 16.55 -31.5 17.0 M-33.25 21.55 Q-35.4 19.35 -36.9 17.0 L-37.6 15.8 Q-40.4 10.8 -40.4 4.9 -40.4 -0.4 -36.3 -3.35 L-35.8 -3.75 -33.6 -4.7 -33.85 -5.45 -33.9 -7.25 Q-33.9 -14.9 -28.75 -18.85 -21.75 -24.2 0.15 -29.15 L-3.75 -25.3 M29.05 -16.95 L39.3 -10.35 M-21.75 -14.4 L-20.9 -14.4 -19.65 -13.1 Q-18.65 -11.75 -18.45 -10.9 M-22.95 -3.95 L-23.1 -4.8 -23.15 -5.25 Q-23.15 -7.5 -18.6 -7.95 M-33.6 -4.7 L-29.3 -5.65 M-21.6 0.15 L-22.95 -3.95" fill="none" stroke="#000000" stroke-linecap="round" stroke-linejoin="round" stroke-opacity="0.3019608" stroke-width="0.05"/>
  </g>
</svg>
