<?xml version="1.0" encoding="UTF-8" standalone="no"?>
<svg xmlns:xlink="http://www.w3.org/1999/xlink" height="79.05px" width="84.15px" xmlns="http://www.w3.org/2000/svg">
  <g transform="matrix(1.0, 0.0, 0.0, 1.0, 42.05, 39.55)">
    <path d="M8.05 -25.65 L8.95 -25.55 15.75 -26.15 23.9 -27.75 Q27.7 -28.4 29.55 -29.05 L35.45 -30.6 Q32.05 -28.5 29.0 -27.2 L40.4 -29.5 28.5 -22.65 Q15.45 -15.0 12.95 -13.4 L12.45 -13.0 12.7 -13.25 12.95 -13.4 16.4 -17.25 Q19.6 -21.1 20.35 -21.75 L20.35 -22.1 Q19.55 -20.45 10.95 -15.55 3.65 -11.5 2.0 -10.9 L1.7 -10.5 1.7 -10.85 2.0 -10.9 4.7 -14.9 4.7 -15.2 Q-0.9 -10.35 -4.25 -9.45 L-4.3 -9.15 -4.3 -9.45 -4.25 -9.45 -3.8 -11.35 -3.8 -16.0 -5.45 -15.65 Q-6.6 -15.2 -6.95 -15.2 -7.45 -15.2 -10.45 -17.5 L-12.6 -19.1 -12.3 -20.35 -11.95 -21.6 -12.3 -20.35 -12.6 -19.1 -13.7 -19.85 -16.5 -19.35 -18.55 -18.75 -18.75 -20.15 -18.95 -20.05 -19.85 -19.6 -19.85 -20.45 Q-23.7 -16.5 -25.15 -13.6 -26.45 -11.05 -27.85 -4.5 -28.9 -7.75 -28.9 -10.0 L-28.75 -12.85 -28.35 -16.0 -28.35 -16.35 Q-29.85 -13.05 -30.2 -9.05 L-30.3 -3.4 -30.1 0.9 -32.4 0.3 -33.15 0.05 -33.5 -0.6 Q-33.95 -1.1 -34.8 -1.15 L-35.25 -1.15 -35.25 -1.2 -35.25 -1.35 Q-35.25 -3.05 -37.1 -3.2 L-37.4 -3.2 -38.1 -3.1 -38.65 -3.6 -39.65 -5.7 Q-40.55 -3.15 -41.15 2.6 -42.1 -1.8 -42.05 -5.35 L-41.9 -7.85 Q-41.55 -11.35 -40.3 -14.7 L-38.75 -19.05 Q-37.7 -22.1 -35.95 -25.0 L-37.2 -20.15 -36.25 -21.45 Q-34.25 -24.25 -31.7 -26.7 L-24.15 -33.05 Q-22.15 -34.75 -19.85 -36.15 L-17.3 -37.65 -19.25 -35.25 -17.85 -35.7 Q-17.2 -35.95 -16.5 -36.35 L-15.6 -36.9 -11.5 -39.55 -15.1 -35.95 -14.6 -35.6 -13.35 -35.25 -12.85 -35.05 -13.95 -32.75 -13.1 -31.8 -14.4 -30.8 -15.2 -30.0 -15.2 -29.45 -12.35 -29.2 -8.1 -29.5 -3.6 -28.2 -6.25 -26.7 -6.25 -26.45 -4.3 -26.7 -2.15 -26.7 Q-5.25 -24.45 -6.65 -23.55 -9.05 -22.0 -11.35 -21.5 L-11.5 -21.2 -11.65 -20.95 -10.05 -20.95 5.4 -25.85 3.8 -25.05 1.95 -24.25 Q3.2 -24.25 8.05 -25.65 M-36.7 -19.0 Q-38.7 -15.9 -39.2 -12.2 L-39.6 -7.95 -39.65 -5.7 -39.6 -7.95 -39.2 -12.2 Q-38.7 -15.9 -36.7 -19.0 M-37.2 -3.85 L-37.4 -3.2 -37.2 -3.85 M-30.9 -21.35 Q-32.15 -20.4 -33.4 -18.0 L-35.4 -13.95 -33.4 -18.0 Q-32.15 -20.4 -30.9 -21.35 M-23.2 -20.35 L-19.8 -22.85 -17.55 -24.45 Q-19.55 -20.75 -19.85 -20.5 L-19.85 -20.45 -19.85 -20.5 Q-19.55 -20.75 -17.55 -24.45 L-19.8 -22.85 -23.2 -20.35 M-34.6 -2.1 L-35.25 -1.2 -34.6 -2.1 M-1.85 -11.5 L-0.7 -15.85 -0.9 -16.5 Q-1.45 -16.6 -2.8 -15.9 -1.45 -16.6 -0.9 -16.5 L-0.7 -15.85 -1.85 -11.5 M-17.55 -20.8 L-18.75 -20.15 -17.55 -20.8" fill="#ffffff" fill-rule="evenodd" stroke="none"/>
    <path d="M8.05 -25.65 Q3.2 -24.25 1.95 -24.25 L3.8 -25.05 5.4 -25.85 -10.05 -20.95 -11.65 -20.95 -11.5 -21.2 -11.35 -21.5 Q-9.05 -22.0 -6.65 -23.55 -5.25 -24.45 -2.15 -26.7 L-4.3 -26.7 -6.25 -26.45 -6.25 -26.7 -3.6 -28.2 5.45 -26.1 8.05 -25.65 M-8.1 -29.5 L-12.35 -29.2 -15.2 -29.45 -15.2 -30.0 -14.4 -30.8 -13.1 -31.8 Q-11.6 -30.55 -9.6 -29.95 L-8.1 -29.5 M-12.6 -19.1 L-10.45 -17.5 Q-7.45 -15.2 -6.95 -15.2 -6.6 -15.2 -5.45 -15.65 L-3.8 -16.0 -3.8 -11.35 -4.25 -9.45 -4.3 -9.45 -4.3 -9.15 -4.25 -9.45 Q-0.9 -10.35 4.7 -15.2 L4.7 -14.9 2.0 -10.9 1.7 -10.85 1.7 -10.5 2.0 -10.9 Q3.65 -11.5 10.95 -15.55 19.55 -20.45 20.35 -22.1 L20.35 -21.75 Q19.6 -21.1 16.4 -17.25 L12.95 -13.4 12.7 -13.25 12.45 -13.0 12.95 -13.4 Q15.45 -15.0 28.5 -22.65 L40.4 -29.5 41.8 -29.8 41.85 -29.3 39.4 -24.9 35.5 -19.25 30.45 -12.05 28.4 -9.5 Q27.4 -8.45 26.95 -7.1 L29.3 -7.1 Q31.05 -7.3 32.75 -8.05 L34.95 -9.1 Q36.1 -9.9 36.25 -9.45 L28.65 4.6 29.7 4.85 32.65 4.1 Q33.55 3.6 34.3 3.35 L34.0 3.75 33.4 4.55 28.8 10.75 23.4 17.8 20.9 20.85 20.3 21.35 Q15.8 24.3 10.4 25.95 L9.6 27.35 Q8.7 29.1 9.5 31.35 10.25 33.6 11.45 35.75 L13.2 39.5 11.75 39.35 8.8 38.25 Q5.45 36.85 3.7 33.95 L4.25 38.1 Q3.0 37.1 2.2 35.7 0.9 33.8 0.25 31.85 -0.7 29.4 0.0 26.25 L0.9 21.5 1.3 18.1 Q1.55 16.35 0.55 15.1 -0.5 13.85 0.55 11.4 1.6 8.95 0.5 8.3 -0.6 7.65 -1.5 6.15 -2.15 5.05 -3.6 3.8 -3.75 2.35 -5.45 2.1 L-6.0 2.1 Q-7.4 1.3 -9.1 0.9 L-9.5 0.85 Q-10.0 0.3 -11.0 0.3 L-12.15 0.5 -14.2 0.45 -14.55 0.45 -15.85 0.2 -16.75 0.4 -17.25 0.65 -17.65 0.7 -22.45 1.1 -23.1 0.7 -23.9 0.6 Q-24.95 0.55 -25.4 1.1 L-25.55 1.3 -28.8 1.2 -30.1 0.9 -30.3 -3.4 -30.2 -9.05 Q-29.85 -13.05 -28.35 -16.35 L-28.35 -16.0 -28.75 -12.85 -28.9 -10.0 Q-28.9 -7.75 -27.85 -4.5 -26.45 -11.05 -25.15 -13.6 -23.7 -16.5 -19.85 -20.45 L-19.85 -19.6 -18.95 -20.05 -18.75 -20.15 -18.55 -18.75 -16.5 -19.35 -13.7 -19.85 -12.6 -19.1 -12.65 -18.45 -12.6 -19.1 M1.6 -3.75 L2.8 -6.65 Q3.45 -8.2 3.5 -9.55 3.45 -8.2 2.8 -6.65 L1.6 -3.75 M-23.3 -0.65 L-23.4 -0.2 -23.1 0.7 -23.4 -0.2 -23.3 -0.65 M-25.2 -1.75 Q-25.75 -1.0 -25.75 -0.05 L-25.4 1.1 -25.75 -0.05 Q-25.75 -1.0 -25.2 -1.75 M-16.65 -3.8 L-16.55 -3.25 -16.75 0.4 -16.55 -3.25 -16.65 -3.8 M-8.2 -1.5 L-9.1 0.9 -8.2 -1.5 M-14.0 -1.25 L-14.2 0.45 -14.0 -1.25" fill="#d6baba" fill-rule="evenodd" stroke="none"/>
    <path d="M40.4 -29.5 L29.0 -27.2 Q32.05 -28.5 35.45 -30.6 L29.55 -29.05 Q27.7 -28.4 23.9 -27.75 L15.75 -26.15 8.95 -25.55 8.05 -25.65 5.45 -26.1 -3.6 -28.2 -8.1 -29.5 -9.6 -29.95 Q-11.6 -30.55 -13.1 -31.8 L-13.95 -32.75 -12.85 -35.05 -13.35 -35.25 -14.6 -35.6 -15.1 -35.95 -11.5 -39.55 -15.6 -36.9 -16.5 -36.35 Q-17.2 -35.95 -17.85 -35.7 L-19.25 -35.25 -17.3 -37.65 -19.85 -36.15 Q-22.15 -34.75 -24.15 -33.05 L-31.7 -26.7 Q-34.25 -24.25 -36.25 -21.45 L-37.2 -20.15 -35.95 -25.0 Q-37.7 -22.1 -38.75 -19.05 L-40.3 -14.7 Q-41.55 -11.35 -41.9 -7.85 L-42.05 -5.35 Q-42.1 -1.8 -41.15 2.6 -40.55 -3.15 -39.65 -5.7 L-39.6 -7.95 -39.2 -12.2 Q-38.7 -15.9 -36.7 -19.0 M-12.6 -19.1 L-12.65 -18.45 M3.5 -9.55 Q3.45 -8.2 2.8 -6.65 L1.6 -3.75 M-3.6 3.8 Q-2.15 5.05 -1.5 6.15 -0.6 7.65 0.5 8.3 1.6 8.95 0.55 11.4 -0.5 13.85 0.55 15.1 1.55 16.35 1.3 18.1 L0.9 21.5 0.0 26.25 Q-0.7 29.4 0.25 31.85 0.9 33.8 2.2 35.7 3.0 37.1 4.25 38.1 L3.7 33.95 Q5.45 36.85 8.8 38.25 L11.75 39.35 13.2 39.5 11.45 35.75 Q10.25 33.6 9.5 31.35 8.7 29.1 9.6 27.35 L10.4 25.95 Q15.8 24.3 20.3 21.35 L20.9 20.85 23.4 17.8 28.8 10.75 33.4 4.55 34.0 3.75 34.3 3.35 Q33.55 3.6 32.65 4.1 L29.7 4.85 28.65 4.6 36.25 -9.45 Q36.1 -9.9 34.95 -9.1 L32.75 -8.05 Q31.05 -7.3 29.3 -7.1 L26.95 -7.1 Q27.4 -8.45 28.4 -9.5 L30.45 -12.05 35.5 -19.25 39.4 -24.9 41.85 -29.3 42.1 -29.8 41.8 -29.8 40.4 -29.5 M-19.85 -20.45 L-19.85 -20.5 Q-19.55 -20.75 -17.55 -24.45 L-19.8 -22.85 -23.2 -20.35 M-35.4 -13.95 L-33.4 -18.0 Q-32.15 -20.4 -30.9 -21.35 M-37.4 -3.2 L-37.2 -3.85 M-35.25 -1.2 L-34.6 -2.1 M-39.65 -5.7 L-38.65 -3.6 -38.1 -3.1 M-37.4 -3.2 L-37.85 -1.85 M-33.15 0.05 L-32.4 0.3 -30.1 0.9 -28.8 1.2 -25.55 1.3 M-25.4 1.1 L-25.75 -0.05 Q-25.75 -1.0 -25.2 -1.75 M-23.1 0.7 L-23.4 -0.2 -23.3 -0.65 M-2.8 -15.9 Q-1.45 -16.6 -0.9 -16.5 L-0.7 -15.85 -1.85 -11.5 M-12.6 -19.1 L-12.3 -20.35 -11.95 -21.6 M-19.85 -20.45 L-19.85 -19.6 -18.95 -20.05 -18.75 -20.15 -17.55 -20.8 M-16.75 0.4 L-16.55 -3.25 -16.65 -3.8 M-9.1 0.9 Q-7.4 1.3 -6.0 2.1 M-9.1 0.9 L-9.5 0.85 M-12.15 0.5 L-14.2 0.45 -14.55 0.45 M-17.25 0.65 L-17.65 0.7 -22.45 1.1 M-25.4 1.1 L-25.2 1.4 M-9.35 1.65 L-9.1 0.9 -8.2 -1.5 M-33.5 -0.6 L-33.9 0.0 M-14.2 0.45 L-14.0 -1.25" fill="none" stroke="#000000" stroke-linecap="round" stroke-linejoin="round" stroke-opacity="0.3019608" stroke-width="0.05"/>
  </g>
</svg>
