<?xml version="1.0" encoding="UTF-8" standalone="no"?>
<svg xmlns:xlink="http://www.w3.org/1999/xlink" height="43.2px" width="58.95px" xmlns="http://www.w3.org/2000/svg">
  <g transform="matrix(1.0, 0.0, 0.0, 1.0, 33.5, 25.9)">
    <use height="43.2" transform="matrix(1.0, 0.0, 0.0, 1.0, -33.5, -25.9)" width="58.95" xlink:href="#shape0"/>
  </g>
  <defs>
    <g id="shape0" transform="matrix(1.0, 0.0, 0.0, 1.0, 33.5, 25.9)">
      <path d="M13.75 -13.15 L14.55 -14.4 M12.95 -18.3 L13.75 -19.3 M6.45 -21.1 L7.15 -22.2 M1.6 -19.7 L2.45 -21.35 M5.3 -5.75 L5.55 -6.55 M4.15 -11.7 L4.3 -12.3 4.7 -13.35 M11.5 -5.75 L11.5 -7.0 M19.5 -10.45 Q19.8 -10.15 20.1 -10.45 M16.85 -0.8 L17.65 -1.0 M23.0 -6.15 L24.0 -6.35 M19.3 -3.7 L20.55 -4.1 M23.8 4.95 L25.45 5.35 M23.0 1.05 L24.65 1.05 M21.95 9.65 L22.6 8.85 M18.7 11.75 L18.7 12.15 Q19.25 11.6 19.5 11.5 M17.05 6.6 L17.85 5.55 M12.15 3.45 L12.7 2.25 M10.25 3.5 L10.25 4.35 M4.5 8.45 L5.55 8.25 M4.5 3.7 Q5.05 3.7 5.55 3.3 M1.2 0.85 L2.0 0.55 2.45 0.2 M9.45 10.1 L10.05 10.1 M6.15 14.6 L6.75 14.6 M7.15 17.05 L7.15 17.3 8.8 16.85 M11.5 17.05 L11.7 16.75 11.9 16.45 M12.5 12.95 L12.65 12.75 13.75 11.75 M-3.85 -25.3 L-2.9 -25.9 M-28.4 -15.6 L-28.4 -16.85 M-24.35 -20.9 L-24.5 -21.75 M-33.5 -5.75 L-33.3 -6.75 M-28.0 -7.0 L-28.0 -7.8 M-27.95 -1.2 L-27.85 -1.45 -27.75 -1.85 M-23.45 -11.3 L-23.45 -12.55 M-32.5 -11.9 L-32.9 -12.75 M-10.5 -15.8 L-10.1 -15.8 -9.9 -17.65 M-2.9 -16.25 L-3.1 -17.25 M-10.3 -23.6 L-10.3 -24.45 M-18.6 -12.55 L-18.5 -12.75 -18.75 -12.55 -18.6 -12.55 M-14.2 -8.2 L-14.2 -8.85 M-16.15 0.0 Q-15.65 -0.25 -15.45 -0.6 M-19.75 -2.85 L-19.55 -3.9 M-1.45 -8.2 L-1.25 -8.85 M-8.05 -7.4 L-8.65 -7.4 -8.45 -8.2 M-20.35 -18.9 L-19.95 -20.15 M-24.3 1.45 L-24.05 1.45 -23.85 0.2 M-8.85 0.85 Q-8.85 0.0 -8.45 -0.8 M-3.5 0.0 Q-3.5 -0.6 -3.1 -1.2" fill="none" stroke="#000000" stroke-linecap="round" stroke-linejoin="round" stroke-opacity="0.3019608" stroke-width="0.05"/>
    </g>
  </defs>
</svg>
