<?xml version="1.0" encoding="UTF-8" standalone="no"?>
<svg xmlns:xlink="http://www.w3.org/1999/xlink" height="68.6px" width="71.55px" xmlns="http://www.w3.org/2000/svg">
  <g transform="matrix(1.0, 0.0, 0.0, 1.0, 35.8, 34.3)">
    <path d="M31.45 -34.2 L31.45 -34.15 31.3 -34.15 31.45 -34.2 31.3 -34.15 Q28.5 -31.9 26.55 -28.55 23.15 -22.45 17.45 -18.6 L19.55 -25.0 Q17.0 -23.1 15.1 -20.6 L13.75 -19.45 7.9 -15.85 4.15 -20.7 Q5.1 -23.05 7.1 -25.3 L10.6 -28.8 Q14.35 -32.2 19.55 -31.2 24.5 -31.85 29.35 -33.0 L31.3 -34.2 31.45 -34.2 M24.6 -13.25 L25.3 -13.0 24.55 -13.25 24.6 -13.25 M-26.6 33.95 L-27.15 34.3 Q-28.55 26.4 -27.5 18.65 -27.1 15.6 -25.45 12.75 L-24.0 11.4 -23.9 11.35 Q-21.0 8.85 -17.4 8.25 L-16.25 8.05 -14.95 9.15 -13.7 9.95 Q-12.9 10.4 -12.1 10.8 -18.25 13.55 -22.7 18.55 L-14.05 14.4 -19.85 21.2 -23.2 24.9 Q-27.0 28.8 -26.6 33.95 M-27.9 10.4 Q-32.3 9.05 -35.8 7.2 L-26.7 2.45 -25.55 1.75 Q-23.45 0.5 -21.25 1.15 L-21.3 1.1 Q-24.45 -2.4 -29.45 -2.35 -32.6 -2.3 -35.65 -1.5 -30.9 -7.4 -23.2 -11.95 L-21.45 -12.55 Q-18.15 -13.1 -15.15 -12.5 L-14.95 -12.2 -10.4 -7.0 Q-8.15 -4.2 -6.55 -1.15 L-12.65 -5.15 Q-17.65 -8.2 -22.1 -7.85 -14.9 -4.4 -9.85 2.0 -8.0 4.55 -10.9 5.05 -15.9 6.15 -19.55 3.7 L-21.25 1.15 Q-21.25 4.95 -23.2 7.65 -25.15 10.3 -27.9 10.4 M-12.6 -11.8 L-12.35 -11.75 Q-14.1 -15.6 -11.5 -19.5 -9.8 -22.05 -7.55 -24.3 -4.35 -27.35 -3.15 -31.2 L-2.85 -30.25 -1.7 -27.25 -2.65 -29.45 Q-2.8 -23.95 -1.2 -18.05 0.35 -12.2 -2.1 -6.85 L-12.3 -11.7 -12.6 -11.8 M17.1 -17.2 L17.1 -17.05 Q15.9 -14.8 15.55 -12.35 L14.55 -11.35 Q11.4 -8.4 7.55 -6.65 7.25 -6.5 7.05 -6.5 2.15 -0.05 -1.55 -6.55 L-1.7 -6.85 Q-1.7 -9.05 1.35 -10.6 4.45 -12.2 8.85 -12.2 L10.9 -12.7 Q13.65 -13.4 15.55 -15.85 L17.1 -17.2 M23.8 -7.85 Q22.55 -11.2 26.25 -11.7 28.15 -11.85 29.4 -10.55 31.75 -7.95 33.15 -5.5 L32.8 -3.55 Q30.3 -7.25 25.7 -6.8 24.25 -6.8 23.8 -7.85 M-2.65 -29.45 L-2.85 -30.25 -2.65 -29.45 M-12.35 -11.75 L-12.3 -11.7 -12.35 -11.75 M-1.9 4.9 L1.35 7.0 Q0.75 8.25 -0.7 7.7 -2.8 7.05 -4.85 5.8 L-1.9 4.9 M-25.45 12.75 L-23.9 11.35 -25.45 12.75" fill="#ffffff" fill-rule="evenodd" stroke="none"/>
    <path d="M31.45 -34.15 L30.6 -32.65 31.3 -34.15 31.45 -34.15 M15.2 -6.85 L15.05 -6.85 15.05 -7.0 15.2 -6.85 M11.9 -0.95 L11.75 -1.15 12.1 -1.15 11.9 -0.95" fill="#cccccc" fill-rule="evenodd" stroke="none"/>
    <path d="M30.6 -32.65 Q29.65 -29.25 29.25 -25.75 28.75 -21.55 27.9 -17.45 27.65 -16.2 26.8 -15.2 L24.6 -13.25 24.55 -13.25 25.3 -13.0 26.5 -12.6 Q31.25 -11.05 33.7 -6.75 L35.75 -2.65 34.4 5.8 34.4 6.1 Q32.25 2.05 27.7 0.6 L22.95 -0.65 19.3 -2.75 17.1 3.7 13.5 -0.65 12.0 -0.9 12.1 -1.15 11.75 -1.15 11.9 -0.95 4.0 1.65 Q4.95 1.65 5.65 3.05 6.25 4.45 6.25 6.45 L6.05 6.3 1.35 4.55 Q3.2 5.8 3.25 8.1 L3.3 10.4 Q-0.2 6.8 -4.85 8.3 -2.45 10.7 -2.7 14.0 -2.95 18.95 -7.15 21.9 -10.7 24.45 -14.9 25.65 L-20.25 28.55 Q-23.85 30.75 -26.6 33.95 -27.0 28.8 -23.2 24.9 L-19.85 21.2 -14.05 14.4 -22.7 18.55 Q-18.25 13.55 -12.1 10.8 -12.9 10.4 -13.7 9.95 L-14.95 9.15 -16.25 8.05 -17.4 8.25 Q-21.0 8.85 -23.9 11.35 L-24.0 11.4 -27.9 10.4 Q-25.15 10.3 -23.2 7.65 -21.25 4.95 -21.25 1.15 L-19.55 3.7 Q-15.9 6.15 -10.9 5.05 -8.0 4.55 -9.85 2.0 -14.9 -4.4 -22.1 -7.85 -17.65 -8.2 -12.65 -5.15 L-6.55 -1.15 Q-8.15 -4.2 -10.4 -7.0 L-14.95 -12.2 -15.15 -12.5 -12.85 -11.85 -12.75 -11.85 -12.6 -11.8 -12.3 -11.7 -2.1 -6.85 Q0.35 -12.2 -1.2 -18.05 -2.8 -23.95 -2.65 -29.45 L-1.7 -27.25 4.15 -20.7 7.9 -15.85 13.75 -19.45 15.1 -20.6 Q17.0 -23.1 19.55 -25.0 L17.45 -18.6 Q23.15 -22.45 26.55 -28.55 28.5 -31.9 31.3 -34.15 L30.6 -32.65 M17.1 -17.4 L17.1 -17.2 17.2 -17.35 17.1 -17.4 M17.1 -17.05 L17.1 -17.2 15.55 -15.85 Q13.65 -13.4 10.9 -12.7 L8.85 -12.2 Q4.45 -12.2 1.35 -10.6 -1.7 -9.05 -1.7 -6.85 L-1.7 -6.5 -2.1 -6.85 -1.7 -6.5 -1.55 -6.55 Q2.15 -0.05 7.05 -6.5 7.25 -6.5 7.55 -6.65 11.4 -8.4 14.55 -11.35 L15.55 -12.35 Q15.9 -14.8 17.1 -17.05 M19.3 -2.75 L15.2 -6.85 20.9 -4.55 21.25 -4.8 19.15 -7.95 18.65 -8.5 19.15 -7.95 21.25 -4.8 20.9 -4.55 15.2 -6.85 19.3 -2.75 M23.8 -7.85 Q24.25 -6.8 25.7 -6.8 30.3 -7.25 32.8 -3.55 L33.15 -5.5 Q31.75 -7.95 29.4 -10.55 28.15 -11.85 26.25 -11.7 22.55 -11.2 23.8 -7.85 M18.65 -8.5 L17.2 -8.9 16.75 -8.9 18.65 -8.5 M15.55 -12.35 L15.05 -7.0 15.55 -12.35 M15.05 -6.85 L15.2 -6.85 15.05 -7.0 15.05 -6.85 Q14.6 -3.65 12.7 -1.7 L12.1 -1.15 12.7 -1.7 Q14.6 -3.65 15.05 -6.85 M17.2 -8.9 L24.55 -13.25 17.2 -8.9 M8.85 -12.2 Q8.65 -14.1 7.9 -15.85 8.65 -14.1 8.85 -12.2 M-19.55 3.7 L-18.0 6.3 -16.25 8.05 -18.0 6.3 -19.55 3.7 M4.0 1.65 L2.95 1.5 1.0 -0.3 0.5 0.6 Q1.1 -2.3 -0.6 -4.75 L-1.7 -6.5 -0.6 -4.75 Q1.1 -2.3 0.5 0.6 L1.0 -0.3 2.95 1.5 4.0 1.65 M-1.9 4.9 L-4.85 5.8 Q-2.8 7.05 -0.7 7.7 0.75 8.25 1.35 7.0 L-1.9 4.9 M0.5 0.6 L-1.2 4.2 1.35 4.55 -1.2 4.2 0.5 0.6" fill="#d6baba" fill-rule="evenodd" stroke="none"/>
    <path d="M12.0 -0.9 L11.9 -0.95 12.1 -1.15 12.0 -0.9 M6.25 6.45 L6.2 6.5 6.05 6.3 6.25 6.45 M17.1 -17.4 L17.2 -17.35 17.1 -17.2 17.1 -17.4 M-1.7 -6.85 L-1.55 -6.55 -1.7 -6.5 -1.7 -6.85 M16.75 -8.9 L17.2 -8.9 18.65 -8.5 16.75 -8.9" fill="#660000" fill-opacity="0.2784314" fill-rule="evenodd" stroke="none"/>
    <path d="M31.3 -34.2 L31.45 -34.3 31.45 -34.2 31.3 -34.15 30.6 -32.65 Q29.65 -29.25 29.25 -25.75 28.75 -21.55 27.9 -17.45 27.65 -16.2 26.8 -15.2 L24.6 -13.25 24.55 -13.25 25.3 -13.0 26.5 -12.6 Q31.25 -11.05 33.7 -6.75 L35.75 -2.65 34.4 5.8 M34.4 6.1 Q32.25 2.05 27.7 0.6 L22.95 -0.65 19.3 -2.75 17.1 3.7 13.5 -0.65 12.0 -0.9 11.9 -0.95 4.0 1.65 Q4.95 1.65 5.65 3.05 6.25 4.45 6.25 6.45 L6.2 6.5 6.05 6.3 1.35 4.55 Q3.2 5.8 3.25 8.1 L3.3 10.4 Q-0.2 6.8 -4.85 8.3 -2.45 10.7 -2.7 14.0 -2.95 18.95 -7.15 21.9 -10.7 24.45 -14.9 25.65 L-20.25 28.55 Q-23.85 30.75 -26.6 33.95 L-27.15 34.3 Q-28.55 26.4 -27.5 18.65 -27.1 15.6 -25.45 12.75 M-24.0 11.4 L-27.9 10.4 Q-32.3 9.05 -35.8 7.2 L-26.7 2.45 -25.55 1.75 Q-23.45 0.5 -21.25 1.15 L-21.3 1.1 Q-24.45 -2.4 -29.45 -2.35 -32.6 -2.3 -35.65 -1.5 -30.9 -7.4 -23.2 -11.95 L-21.45 -12.55 Q-18.15 -13.1 -15.15 -12.5 L-12.85 -11.85 M-12.75 -11.85 L-12.6 -11.8 M-12.35 -11.75 Q-14.1 -15.6 -11.5 -19.5 -9.8 -22.05 -7.55 -24.3 -4.35 -27.35 -3.15 -31.2 L-2.85 -30.25 -2.65 -29.45 -1.7 -27.25 4.15 -20.7 Q5.1 -23.05 7.1 -25.3 L10.6 -28.8 Q14.35 -32.2 19.55 -31.2 24.5 -31.85 29.35 -33.0 L31.3 -34.2 M17.1 -17.2 L15.55 -15.85 Q13.65 -13.4 10.9 -12.7 L8.85 -12.2 Q4.45 -12.2 1.35 -10.6 -1.7 -9.05 -1.7 -6.85 M15.55 -12.35 Q15.9 -14.8 17.1 -17.05 M18.65 -8.5 L19.15 -7.95 21.25 -4.8 20.9 -4.55 15.2 -6.85 19.3 -2.75 M18.65 -8.5 L17.2 -8.9 16.75 -8.9 M15.05 -7.0 L15.55 -12.35 M15.2 -6.85 L15.05 -6.85 Q14.6 -3.65 12.7 -1.7 L12.1 -1.15 11.9 -0.95 M15.2 -6.85 L15.05 -7.0 15.05 -6.85 M24.55 -13.25 L17.2 -8.9 M4.15 -20.7 L7.9 -15.85 Q8.65 -14.1 8.85 -12.2 M-2.1 -6.85 L-1.7 -6.5 -1.7 -6.85 M-2.1 -6.85 L-12.3 -11.7 -12.6 -11.8 M-12.3 -11.7 L-12.35 -11.75 M-24.0 11.4 L-23.9 11.35 Q-21.0 8.85 -17.4 8.25 L-16.25 8.05 -18.0 6.3 -19.55 3.7 -21.25 1.15 M-13.7 9.95 L-14.95 9.15 -16.25 8.05 M-1.7 -6.5 L-0.6 -4.75 Q1.1 -2.3 0.5 0.6 L1.0 -0.3 2.95 1.5 4.0 1.65 M1.35 4.55 L-1.2 4.2 0.5 0.6 M-23.9 11.35 L-25.45 12.75" fill="none" stroke="#000000" stroke-linecap="round" stroke-linejoin="round" stroke-opacity="0.3019608" stroke-width="0.05"/>
  </g>
</svg>
