<?xml version="1.0" encoding="UTF-8" standalone="no"?>
<svg xmlns:xlink="http://www.w3.org/1999/xlink" height="59.3px" width="60.05px" xmlns="http://www.w3.org/2000/svg">
  <g transform="matrix(1.0, 0.0, 0.0, 1.0, 27.2, 33.55)">
    <path d="M21.6 -25.5 Q23.1 -24.15 26.45 -19.35 28.4 -14.15 29.6 -7.6 26.5 -14.85 22.35 -17.3 18.2 -19.8 13.35 -19.65 L9.2 -19.35 10.35 -17.45 10.35 -17.15 6.2 -18.8 Q2.95 -18.15 0.75 -17.0 L-1.15 -15.65 -1.5 -15.3 -1.95 -14.65 -7.25 -8.45 -7.7 -13.95 -7.65 -12.8 Q-7.95 -11.8 -9.15 -11.5 L-9.35 -12.15 Q-9.55 -16.65 -9.2 -18.85 L-8.55 -21.15 -8.2 -21.8 -8.05 -21.8 -7.75 -22.5 -6.95 -23.05 -6.55 -23.6 -6.1 -24.5 Q-5.2 -25.15 0.15 -26.15 2.15 -28.5 3.35 -28.5 4.75 -28.5 4.85 -26.3 8.4 -29.65 16.7 -27.3 L21.6 -25.5 M-10.75 -8.15 L-12.15 -8.3 -12.2 -8.6 -11.95 -10.95 -11.35 -13.15 -10.95 -12.95 -11.35 -10.5 -10.75 -8.15 M-16.4 -8.8 L-17.1 -8.95 -17.45 -9.15 -17.8 -9.15 -17.55 -11.65 -17.95 -12.95 -17.85 -14.5 -17.7 -14.5 Q-16.5 -11.8 -16.4 -8.95 L-16.4 -8.8 M-18.45 -9.3 L-18.65 -9.3 -19.0 -9.5 -19.0 -9.3 -22.65 -9.15 -20.25 -9.8 Q-20.8 -9.95 -21.15 -10.15 -19.6 -10.95 -19.7 -13.3 L-20.05 -16.45 -20.4 -17.45 -20.25 -18.3 -19.9 -18.3 Q-18.5 -13.65 -18.45 -12.15 L-18.45 -9.3 M0.95 -20.45 L0.55 -17.45 0.75 -17.0 0.55 -17.45 0.95 -20.45 M20.2 4.05 L21.55 3.7 29.65 1.25 Q32.9 -0.1 32.85 3.25 32.85 6.4 30.9 10.4 29.0 14.25 28.15 14.7 21.95 16.25 18.85 18.05 15.3 20.1 12.25 25.75 L6.45 25.75 8.75 22.4 Q9.4 20.75 11.05 19.25 13.75 16.6 15.7 9.75 L17.2 4.85 19.15 4.4 19.65 4.85 20.2 4.05 M20.0 4.85 Q18.95 4.85 18.15 5.75 17.65 6.4 17.65 6.9 L17.7 7.55 Q17.9 8.1 18.6 8.1 L19.6 6.9 20.25 5.4 20.0 4.85 M-7.8 -15.65 L-7.7 -13.95 -7.8 -15.65 M-8.55 -21.15 L-8.05 -21.8 -8.55 -21.15" fill="#d6baba" fill-rule="evenodd" stroke="none"/>
    <path d="M9.3 -32.65 L9.35 -31.35 Q13.2 -30.35 16.45 -28.65 20.0 -27.0 21.6 -25.5 L16.7 -27.3 Q8.4 -29.65 4.85 -26.3 4.75 -28.5 3.35 -28.5 2.15 -28.5 0.15 -26.15 -5.2 -25.15 -6.1 -24.5 L-6.55 -23.6 -6.95 -23.05 -7.75 -22.5 -8.05 -21.8 -8.2 -21.8 Q-9.25 -20.9 -9.7 -19.45 L-9.9 -18.7 -10.4 -15.65 -9.9 -18.7 -9.7 -19.45 Q-9.25 -20.9 -8.2 -21.8 L-8.55 -21.15 -9.2 -18.85 Q-9.55 -16.65 -9.35 -12.15 L-9.15 -11.5 Q-7.95 -11.8 -7.65 -12.8 L-7.7 -13.95 -7.25 -8.45 -7.45 -8.45 -7.45 -8.15 Q-8.3 -7.95 -10.75 -8.15 L-11.35 -10.5 -10.95 -12.95 -11.35 -13.15 -11.95 -10.95 -12.2 -8.6 -12.15 -8.3 -13.35 -8.45 -16.4 -8.8 -16.4 -8.95 Q-16.5 -11.8 -17.7 -14.5 L-17.85 -14.5 -17.95 -12.95 -17.55 -11.65 -17.8 -9.15 -18.45 -9.3 -18.45 -12.15 Q-18.5 -13.65 -19.9 -18.3 L-20.25 -18.3 -20.4 -17.45 -20.05 -16.45 -19.7 -13.3 Q-19.6 -10.95 -21.15 -10.15 L-23.1 -10.95 -23.65 -11.15 -23.5 -12.15 -24.85 -14.5 -27.2 -17.45 Q-26.15 -17.15 -24.35 -16.0 L-23.25 -15.1 -23.35 -16.8 Q-23.5 -20.35 -24.25 -24.65 -24.25 -25.3 -23.6 -25.5 -19.3 -28.3 -15.75 -30.0 L-14.9 -30.5 -14.6 -28.3 -14.3 -29.3 -14.45 -32.2 Q-13.9 -31.5 -13.9 -31.0 -8.6 -33.2 -3.5 -33.55 1.7 -33.65 6.85 -32.2 8.6 -32.2 9.3 -32.65 M6.85 -32.2 L9.35 -31.35 6.85 -32.2 M20.2 4.05 L19.65 4.85 19.15 4.4 20.2 4.05 M17.2 4.85 L15.7 9.75 Q13.75 16.6 11.05 19.25 9.4 20.75 8.75 22.4 L6.45 25.75 8.4 22.3 8.4 22.1 Q9.05 20.6 11.0 17.25 13.05 13.45 12.95 11.25 12.75 6.05 14.8 5.55 L17.2 4.85 M20.0 4.85 L20.25 5.4 19.6 6.9 18.6 8.1 Q17.9 8.1 17.7 7.55 L17.65 6.9 Q17.65 6.4 18.15 5.75 18.95 4.85 20.0 4.85 M-14.3 -29.3 L-13.9 -31.0 -14.3 -29.3 M-14.35 -18.3 L-14.35 -25.65 Q-14.45 -25.15 -18.75 -19.45 -19.45 -19.45 -19.7 -24.95 -19.45 -19.45 -18.75 -19.45 -14.45 -25.15 -14.35 -25.65 L-14.35 -18.3" fill="#ffffff" fill-rule="evenodd" stroke="none"/>
    <path d="M9.3 -32.65 L9.35 -31.35 Q13.2 -30.35 16.45 -28.65 20.0 -27.0 21.6 -25.5 23.1 -24.15 26.45 -19.35 28.4 -14.15 29.6 -7.6 26.5 -14.85 22.35 -17.3 18.2 -19.8 13.35 -19.65 L9.2 -19.35 10.35 -17.45 10.35 -17.15 6.2 -18.8 Q2.95 -18.15 0.75 -17.0 L-1.15 -15.65 -1.5 -15.3 -1.95 -14.65 -7.25 -8.45 -7.45 -8.45 -7.45 -8.15 Q-8.3 -7.95 -10.75 -8.15 L-12.15 -8.3 -13.35 -8.45 -16.4 -8.8 -17.1 -8.95 -17.45 -9.15 M-17.8 -9.15 L-18.45 -9.3 -18.65 -9.3 -19.0 -9.3 -22.65 -9.15 -20.25 -9.8 Q-20.8 -9.95 -21.15 -10.15 L-23.1 -10.95 -23.65 -11.15 -23.5 -12.15 -24.85 -14.5 -27.2 -17.45 Q-26.15 -17.15 -24.35 -16.0 L-23.25 -15.1 -23.35 -16.8 Q-23.5 -20.35 -24.25 -24.65 -24.25 -25.3 -23.6 -25.5 -19.3 -28.3 -15.75 -30.0 L-14.9 -30.5 -14.6 -28.3 -14.3 -29.3 -14.45 -32.2 Q-13.9 -31.5 -13.9 -31.0 -8.6 -33.2 -3.5 -33.55 1.7 -33.65 6.85 -32.2 8.6 -32.2 9.3 -32.65 L9.3 -32.85 9.45 -32.85 9.3 -32.65 M9.35 -31.35 L6.85 -32.2 M0.75 -17.0 L0.55 -17.45 0.95 -20.45 M12.25 25.75 Q15.3 20.1 18.85 18.05 21.95 16.25 28.15 14.7 29.0 14.25 30.9 10.4 32.85 6.4 32.85 3.25 32.9 -0.1 29.65 1.25 L21.55 3.7 20.2 4.05 19.15 4.4 M17.2 4.85 L14.8 5.55 Q12.75 6.05 12.95 11.25 13.05 13.45 11.0 17.25 9.05 20.6 8.4 22.1 L8.4 22.3 6.45 25.75 M-13.9 -31.0 L-14.3 -29.3 M-8.2 -21.8 L-8.05 -21.8 -7.75 -22.5 M-8.2 -21.8 Q-9.25 -20.9 -9.7 -19.45 L-9.9 -18.7 -10.4 -15.65 M-8.05 -21.8 L-8.55 -21.15 M-7.7 -13.95 L-7.8 -15.65 M-18.65 -9.3 L-19.0 -9.5 M-7.25 -8.45 L-7.7 -13.95 M-19.7 -24.95 Q-19.45 -19.45 -18.75 -19.45 -14.45 -25.15 -14.35 -25.65 L-14.35 -18.3" fill="none" stroke="#000000" stroke-linecap="round" stroke-linejoin="round" stroke-opacity="0.3019608" stroke-width="0.05"/>
  </g>
</svg>
