<?xml version="1.0" encoding="UTF-8" standalone="no"?>
<svg xmlns:xlink="http://www.w3.org/1999/xlink" height="22.4px" width="22.8px" xmlns="http://www.w3.org/2000/svg">
  <g transform="matrix(1.0, 0.0, 0.0, 1.0, 11.4, 11.2)">
    <path d="M-10.85 2.95 L-11.0 0.55 Q-11.0 -1.35 -10.6 -2.4 -10.25 -3.4 -9.4 -4.1 L-10.3 -3.95 -11.4 -3.95 Q-8.95 -5.0 -7.2 -7.35 -5.85 -9.1 -4.05 -9.1 L-3.4 -9.0 -3.4 -9.6 -3.3 -10.8 Q-2.65 -9.55 0.45 -9.9 3.6 -10.3 4.3 -9.25 4.1 -9.8 4.8 -10.45 L5.7 -11.2 5.6 -10.3 Q5.6 -9.45 6.45 -8.25 L6.85 -7.75 6.55 -7.5 Q6.05 -6.95 5.65 -6.95 L4.75 -6.65 2.8 -6.4 2.05 -6.4 Q1.75 -6.45 2.2 -6.25 L4.1 -5.6 4.1 -5.55 Q3.55 -4.9 3.6 -4.4 L2.85 -2.85 2.2 -1.95 2.15 -2.05 2.4 -3.6 1.65 -2.85 0.95 -2.3 0.2 -0.95 -0.85 0.05 -2.1 1.0 -2.2 1.05 -2.25 0.95 Q-2.25 0.45 -1.4 -0.2 L-0.3 -1.35 -0.15 -1.7 0.25 -1.9 -1.75 -1.2 -3.0 -0.9 Q-2.35 -0.45 -4.2 1.05 -5.35 1.95 -5.35 3.25 L-5.1 4.65 -4.9 5.1 Q-5.3 4.85 -5.85 4.55 L-7.25 3.55 Q-6.6 1.85 -6.6 1.2 L-6.6 1.05 Q-6.65 0.9 -6.8 0.9 -7.95 2.4 -8.35 3.9 L-8.6 5.35 -9.0 4.6 Q-9.85 3.2 -9.5 2.05 L-9.55 2.3 Q-8.9 0.8 -8.15 -0.15 -9.25 -0.05 -10.45 2.15 L-10.85 2.95 M8.1 -6.9 L8.3 -6.9 8.9 -7.15 9.55 -7.35 9.0 -6.8 Q8.3 -6.15 7.8 -6.15 L7.45 -6.4 8.1 -6.9 M8.6 7.5 L8.55 7.5 8.35 7.4 8.35 7.25 8.4 7.05 8.6 7.5 M6.55 4.35 L6.55 4.3 6.6 4.3 6.55 4.35 M-2.6 6.3 L-2.65 6.3 -2.65 5.75 -2.9 4.95 -2.95 4.85 -3.1 4.45 -3.3 4.1 -3.3 4.05 -3.1 4.45 -3.3 4.05 -3.4 3.6 Q-3.4 2.85 -3.1 2.55 -2.75 2.2 -2.7 3.35 L-2.55 4.35 -2.3 5.35 -2.5 6.05 -2.6 6.3 -2.65 5.75 -2.6 6.3 M-4.5 4.15 L-4.3 4.9 -4.65 4.25 -4.5 4.15 M-2.3 -8.8 L-3.4 -9.0 -2.3 -8.8 M1.75 -8.45 L1.0 -8.95 0.0 -9.1 Q-1.2 -9.1 -2.6 -8.0 -3.75 -7.15 -4.9 -6.9 -3.75 -7.15 -2.6 -8.0 -1.2 -9.1 0.0 -9.1 L1.0 -8.95 1.75 -8.45 M-5.5 -6.7 L-5.55 -6.65 -3.65 -6.0 Q-4.9 -5.25 -5.2 -4.5 -5.0 -4.5 -4.55 -4.85 L-3.95 -5.25 -2.3 -5.45 -2.75 -5.1 -4.85 -3.35 -3.1 -3.6 -0.8 -3.45 Q0.05 -3.45 0.3 -3.7 L0.55 -4.2 0.95 -4.65 Q1.3 -5.0 1.45 -5.75 L1.25 -5.3 1.0 -5.3 -0.75 -5.8 0.0 -6.35 0.85 -7.2 0.3 -7.4 -1.05 -7.0 -3.3 -6.65 -4.85 -6.9 -4.9 -6.9 -5.5 -6.8 -5.5 -6.7 -5.6 -6.8 -5.65 -6.8 -5.7 -6.85 -5.6 -6.8 -5.5 -6.8 -5.6 -6.8 -5.7 -6.85 -5.65 -6.8 -5.6 -6.8 -5.5 -6.7 M-7.75 -0.55 L-7.75 -2.15 Q-7.65 -3.25 -7.2 -4.0 L-6.5 -4.75 -7.2 -4.0 Q-7.65 -3.25 -7.75 -2.15 L-7.75 -0.55 -7.85 -0.35 -7.85 0.0 -7.6 0.05 -7.5 0.0 -6.85 -1.3 -6.5 -1.3 -6.65 -0.3 Q-6.7 0.2 -6.4 0.2 -6.25 0.2 -5.95 -1.15 L-5.2 -2.55 -5.35 -2.75 -5.65 -2.55 -6.05 -2.45 -5.85 -2.65 -5.9 -2.65 -7.2 -1.55 -7.75 -0.55 M-9.15 -4.35 L-9.4 -4.1 -9.15 -4.35 M7.1 -5.0 L6.95 -4.7 6.75 -5.0 6.3 -5.3 Q5.45 -5.55 5.45 -5.9 5.45 -6.75 6.3 -6.1 7.1 -5.45 7.1 -5.0 M0.75 2.75 L0.5 4.05 Q0.3 4.65 0.65 5.25 L0.65 5.35 0.55 5.45 -0.6 4.3 -0.85 3.15 Q-0.7 1.7 -0.1 1.7 L0.1 1.85 Q0.85 2.0 0.75 2.75 M4.45 3.6 L4.6 4.3 4.35 5.25 4.05 6.25 4.05 7.25 3.65 7.8 3.0 8.1 2.75 7.85 2.95 7.35 3.35 6.8 Q3.35 6.05 3.5 5.7 L4.1 4.55 4.15 3.95 Q4.15 3.6 4.45 3.6 M3.8 8.55 Q2.8 10.25 2.35 10.25 L2.15 10.15 2.1 10.05 Q3.0 8.8 3.65 8.35 L3.8 8.55" fill="#ffffff" fill-rule="evenodd" stroke="none"/>
    <path d="M6.85 -7.75 Q7.45 -7.05 8.1 -6.9 L7.45 -6.4 7.8 -6.15 Q8.3 -6.15 9.0 -6.8 L9.55 -7.35 8.9 -7.15 9.55 -7.4 9.9 -7.4 Q9.45 -7.3 9.25 -6.85 L9.1 -6.1 10.55 -6.0 10.55 -5.7 10.3 -5.2 Q11.0 -4.35 11.15 -2.85 L11.25 -0.2 10.35 4.15 10.8 5.55 11.15 6.45 11.4 6.95 10.85 7.05 9.4 6.85 8.6 7.5 8.4 7.05 7.6 5.45 7.45 6.15 7.35 6.15 6.95 5.35 6.55 4.35 6.6 4.3 6.6 4.25 6.55 4.0 6.55 3.95 6.5 4.0 6.2 4.6 6.15 6.1 6.4 7.3 6.65 8.85 6.1 8.3 5.65 7.55 Q5.9 8.95 4.9 10.0 L3.05 11.2 3.05 11.1 3.6 10.1 Q2.0 10.9 1.15 10.9 L0.3 10.8 0.3 10.7 Q0.85 10.55 1.75 9.8 L2.85 8.55 Q2.65 8.55 2.05 8.9 L1.25 9.25 0.9 9.15 2.4 8.1 3.05 6.9 Q3.05 6.2 3.45 5.6 3.8 4.95 3.8 3.85 L3.6 2.6 Q2.25 6.0 2.25 6.5 L2.35 7.0 0.25 5.65 Q-1.15 4.55 -1.35 3.85 L-2.7 6.85 -2.75 6.8 -2.6 6.3 -2.5 6.05 -2.3 5.35 -2.55 4.35 -2.7 3.35 Q-2.75 2.2 -3.1 2.55 -3.4 2.85 -3.4 3.6 L-3.3 4.05 -4.3 3.2 -4.5 4.15 -4.65 4.25 -4.3 4.9 -4.25 5.0 -3.9 5.65 -4.9 5.1 -5.1 4.65 -5.35 3.25 Q-5.35 1.95 -4.2 1.05 -2.35 -0.45 -3.0 -0.9 L-1.75 -1.2 0.25 -1.9 -0.15 -1.7 -0.3 -1.35 -1.4 -0.2 Q-2.25 0.45 -2.25 0.95 L-2.2 1.05 -2.1 1.0 -0.85 0.05 0.2 -0.95 0.95 -2.3 1.65 -2.85 2.4 -3.6 2.15 -2.05 2.2 -1.95 2.85 -2.85 3.6 -4.4 Q3.55 -4.9 4.1 -5.55 L4.1 -5.6 2.2 -6.25 Q1.75 -6.45 2.05 -6.4 L2.8 -6.4 4.75 -6.65 5.65 -6.95 Q6.05 -6.95 6.55 -7.5 L6.85 -7.75 M-7.25 3.55 L-7.4 3.3 -8.25 6.8 -8.3 6.8 -8.3 6.75 -8.25 6.65 -8.25 6.6 -8.35 6.05 -8.6 5.4 -8.6 5.35 -8.35 3.9 Q-7.95 2.4 -6.8 0.9 -6.65 0.9 -6.6 1.05 L-6.6 1.2 Q-6.6 1.85 -7.25 3.55 M-9.5 2.05 L-9.45 2.0 -9.45 1.9 -10.7 4.4 -10.75 4.35 -10.85 2.95 -10.45 2.15 Q-9.25 -0.05 -8.15 -0.15 -8.9 0.8 -9.55 2.3 L-9.5 2.05 M-4.9 -6.9 L-4.85 -6.9 -3.3 -6.65 -1.05 -7.0 0.3 -7.4 0.85 -7.2 0.0 -6.35 -0.75 -5.8 1.0 -5.3 1.25 -5.3 1.45 -5.75 Q1.3 -5.0 0.95 -4.65 L0.55 -4.2 0.3 -3.7 Q0.05 -3.45 -0.8 -3.45 L-3.1 -3.6 -4.85 -3.35 -2.75 -5.1 -2.3 -5.45 -3.95 -5.25 -4.55 -4.85 Q-5.0 -4.5 -5.2 -4.5 -4.9 -5.25 -3.65 -6.0 L-5.55 -6.65 -5.5 -6.7 -5.5 -6.8 -4.9 -6.9 M-7.75 -0.55 L-7.2 -1.55 -5.9 -2.65 -5.85 -2.65 -6.05 -2.45 -5.65 -2.55 -5.35 -2.75 -5.2 -2.55 -5.95 -1.15 Q-6.25 0.2 -6.4 0.2 -6.7 0.2 -6.65 -0.3 L-6.5 -1.3 -6.85 -1.3 -7.5 0.0 -7.6 0.05 -7.85 0.0 -7.85 -0.35 -7.75 -0.55 -7.75 -0.15 -7.7 -0.1 -7.15 -1.05 -6.0 -1.9 -7.15 -1.05 -7.7 -0.1 -7.75 -0.15 -7.75 -0.55 M-1.4 -6.15 Q-4.1 -5.9 -5.5 -6.7 -4.1 -5.9 -1.4 -6.15 M7.1 -5.0 Q7.1 -5.45 6.3 -6.1 5.45 -6.75 5.45 -5.9 5.45 -5.55 6.3 -5.3 L6.75 -5.0 6.95 -4.7 7.1 -5.0 M6.65 3.0 Q6.5 3.0 6.5 3.8 L6.5 4.0 6.5 3.8 Q6.5 3.0 6.65 3.0 M3.8 8.55 L3.65 8.35 Q3.0 8.8 2.1 10.05 L2.15 10.15 2.35 10.25 Q2.8 10.25 3.8 8.55 M4.45 3.6 Q4.15 3.6 4.15 3.95 L4.1 4.55 3.5 5.7 Q3.35 6.05 3.35 6.8 L2.95 7.35 2.75 7.85 3.0 8.1 3.65 7.8 4.05 7.25 4.05 6.25 4.35 5.25 4.6 4.3 4.45 3.6 M0.75 2.75 Q0.85 2.0 0.1 1.85 L-0.1 1.7 Q-0.7 1.7 -0.85 3.15 L-0.6 4.3 0.55 5.45 0.65 5.35 0.65 5.25 Q0.3 4.65 0.5 4.05 L0.75 2.75 M-8.35 6.05 L-8.6 5.35 -8.35 6.05" fill="#d6baba" fill-rule="evenodd" stroke="none"/>
    <path d="M-10.85 2.95 L-11.0 0.55 Q-11.0 -1.35 -10.6 -2.4 -10.25 -3.4 -9.4 -4.1 L-10.3 -3.95 -11.4 -3.95 Q-8.95 -5.0 -7.2 -7.35 -5.85 -9.1 -4.05 -9.1 L-3.4 -9.0 -3.4 -9.6 -3.3 -10.8 Q-2.65 -9.55 0.45 -9.9 3.6 -10.3 4.3 -9.25 4.1 -9.8 4.8 -10.45 L5.7 -11.2 5.6 -10.3 Q5.6 -9.45 6.45 -8.25 L6.85 -7.75 Q7.45 -7.05 8.1 -6.9 L8.3 -6.9 8.9 -7.15 9.55 -7.4 9.9 -7.4 Q9.45 -7.3 9.25 -6.85 L9.1 -6.1 10.55 -6.0 10.55 -5.7 10.3 -5.2 Q11.0 -4.35 11.15 -2.85 L11.25 -0.2 10.35 4.15 10.8 5.55 11.15 6.45 11.4 6.95 M8.4 7.05 L7.6 5.45 7.45 6.15 7.35 6.15 6.95 5.35 6.55 4.35 6.55 4.3 6.5 4.05 6.5 4.0 6.2 4.6 6.15 6.1 6.4 7.3 6.65 8.85 6.1 8.3 5.65 7.55 Q5.9 8.95 4.9 10.0 L3.05 11.2 3.05 11.1 3.6 10.1 Q2.0 10.9 1.15 10.9 L0.3 10.8 0.3 10.7 Q0.85 10.55 1.75 9.8 L2.85 8.55 Q2.65 8.55 2.05 8.9 L1.25 9.25 0.9 9.15 2.4 8.1 3.05 6.9 Q3.05 6.2 3.45 5.6 3.8 4.95 3.8 3.85 L3.6 2.6 Q2.25 6.0 2.25 6.5 L2.35 7.0 0.25 5.65 Q-1.15 4.55 -1.35 3.85 L-2.7 6.85 -2.75 6.9 -2.75 6.8 -2.6 6.3 -2.65 5.75 -2.9 4.95 -2.95 4.85 -3.1 4.45 -3.3 4.05 -4.3 3.2 -4.5 4.15 -4.3 4.9 -4.25 5.0 -3.9 5.65 -4.9 5.1 Q-5.3 4.85 -5.85 4.55 L-7.25 3.55 -7.4 3.3 -8.25 6.8 M-8.25 6.65 L-8.25 6.6 -8.35 6.05 M-8.6 5.35 L-9.0 4.6 Q-9.85 3.2 -9.5 2.05 L-9.45 2.0 -9.45 1.9 -10.7 4.4 -10.75 4.45 -10.75 4.35 -10.85 2.95 M-4.9 -6.9 Q-3.75 -7.15 -2.6 -8.0 -1.2 -9.1 0.0 -9.1 L1.0 -8.95 1.75 -8.45 M-3.4 -9.0 L-2.3 -8.8 M-5.5 -6.7 L-5.6 -6.8 -5.65 -6.8 -5.7 -6.85 -5.6 -6.8 -5.5 -6.8 -4.9 -6.9 M-6.5 -4.75 L-7.2 -4.0 Q-7.65 -3.25 -7.75 -2.15 L-7.75 -0.55 -7.75 -0.15 -7.7 -0.1 -7.15 -1.05 -6.0 -1.9 M-9.4 -4.1 L-9.15 -4.35 M-5.5 -6.7 Q-4.1 -5.9 -1.4 -6.15 M6.55 3.95 L6.5 4.0 6.5 3.8 Q6.5 3.0 6.65 3.0 M8.6 7.5 L8.4 7.05 M-8.6 5.35 L-8.35 6.05" fill="none" stroke="#000000" stroke-linecap="round" stroke-linejoin="round" stroke-opacity="0.3019608" stroke-width="0.05"/>
  </g>
</svg>
