<?xml version="1.0" encoding="UTF-8" standalone="no"?>
<svg xmlns:xlink="http://www.w3.org/1999/xlink" height="67.65px" width="73.0px" xmlns="http://www.w3.org/2000/svg">
  <g transform="matrix(1.0, 0.0, 0.0, 1.0, 36.5, 33.85)">
    <path d="M26.35 -30.0 Q27.7 -30.6 28.45 -31.3 L28.45 -31.0 26.0 -22.75 Q27.25 -22.5 28.5 -23.65 29.85 -24.8 30.7 -26.85 L30.8 -26.85 31.1 -22.95 31.4 -19.75 30.95 -12.75 30.5 -7.6 30.8 -7.9 33.35 -11.25 Q35.95 -14.65 36.5 -14.95 L34.4 -1.25 Q33.05 7.5 30.5 10.15 27.8 12.9 27.75 13.8 L27.55 15.65 Q27.35 16.65 26.35 18.45 25.35 20.25 23.8 24.3 22.45 27.75 18.55 30.25 L17.2 31.05 Q12.1 33.8 8.5 33.8 5.75 33.8 9.15 30.25 L11.85 27.7 Q18.8 21.55 15.4 15.0 12.1 19.0 9.4 23.35 8.2 25.25 7.25 25.3 7.25 25.2 6.3 24.95 5.35 24.7 5.4 23.75 5.45 22.75 6.8 20.2 8.1 17.6 8.1 16.7 8.1 16.1 6.85 15.25 5.55 14.45 5.55 13.35 5.55 9.35 3.2 4.35 L1.3 1.05 Q4.1 -0.85 7.6 -4.2 L12.3 -8.85 Q8.25 -6.2 -3.35 -2.5 L-4.55 -2.7 Q-9.15 -3.05 -13.45 -1.55 -17.35 -0.2 -23.0 3.1 -12.0 -9.25 -4.15 -12.85 L2.85 -15.6 Q7.3 -17.35 11.45 -20.05 L11.55 -19.9 8.8 -15.9 6.25 -12.5 6.5 -12.5 Q8.55 -14.6 17.15 -20.65 20.25 -22.85 26.35 -30.0 M-26.1 1.2 L-27.5 -0.65 Q-26.8 -1.55 -24.9 -6.5 L-22.85 -12.1 Q-24.0 -2.4 -24.2 -1.9 L-26.1 1.2 M4.65 -26.0 L4.75 -25.85 Q1.95 -24.85 -2.45 -21.8 L-7.5 -18.1 Q-4.4 -23.95 -2.1 -24.95 L4.65 -26.0 M26.0 -22.75 L25.95 -22.75 25.95 -22.5 26.0 -22.75" fill="#d6baba" fill-rule="evenodd" stroke="none"/>
    <path d="M-21.1 -30.7 Q-21.1 -30.15 -22.25 -27.0 L-23.45 -23.65 -19.35 -26.3 Q-15.9 -28.2 -9.65 -28.05 L0.5 -28.85 Q5.9 -30.15 11.35 -33.85 L9.65 -30.8 7.65 -27.45 17.4 -28.15 Q23.35 -28.75 26.35 -30.0 20.25 -22.85 17.15 -20.65 8.55 -14.6 6.5 -12.5 L6.25 -12.5 8.8 -15.9 11.55 -19.9 11.45 -20.05 Q7.3 -17.35 2.85 -15.6 L-4.15 -12.85 Q-12.0 -9.25 -23.0 3.1 L-24.25 3.8 -26.1 1.2 -24.2 -1.9 Q-24.0 -2.4 -22.85 -12.1 L-24.9 -6.5 Q-26.8 -1.55 -27.5 -0.65 L-28.15 -1.4 Q-30.5 -4.35 -31.3 -4.35 L-33.2 -3.7 Q-34.4 -3.0 -35.7 -1.25 L-36.05 -2.5 -36.5 -4.1 -35.35 -8.35 Q-34.3 -11.85 -34.3 -14.8 L-35.1 -17.45 -35.95 -21.3 -35.65 -21.3 -31.35 -15.75 Q-32.5 -18.1 -28.35 -22.55 -22.4 -28.9 -21.2 -30.85 L-21.1 -30.7 M1.3 1.05 Q-0.8 -1.8 -3.35 -2.5 8.25 -6.2 12.3 -8.85 L7.6 -4.2 Q4.1 -0.85 1.3 1.05 M4.65 -26.0 L-2.1 -24.95 Q-4.4 -23.95 -7.5 -18.1 L-2.45 -21.8 Q1.95 -24.85 4.75 -25.85 L4.65 -26.0" fill="#ffffff" fill-rule="evenodd" stroke="none"/>
    <path d="M-21.1 -30.7 Q-21.1 -30.15 -22.25 -27.0 L-23.45 -23.65 -19.35 -26.3 Q-15.9 -28.2 -9.65 -28.05 L0.5 -28.85 Q5.9 -30.15 11.35 -33.85 L9.65 -30.8 7.65 -27.45 17.4 -28.15 Q23.35 -28.75 26.35 -30.0 27.7 -30.6 28.45 -31.3 L28.45 -31.0 26.0 -22.75 Q27.25 -22.5 28.5 -23.65 29.85 -24.8 30.7 -26.85 L30.8 -27.15 30.8 -26.85 31.1 -22.95 31.4 -19.75 30.95 -12.75 30.5 -7.6 30.8 -7.9 33.35 -11.25 Q35.95 -14.65 36.5 -14.95 L34.4 -1.25 Q33.05 7.5 30.5 10.15 27.8 12.9 27.75 13.8 L27.55 15.65 Q27.35 16.65 26.35 18.45 25.35 20.25 23.8 24.3 22.45 27.75 18.55 30.25 L17.2 31.05 Q12.1 33.8 8.5 33.8 5.75 33.8 9.15 30.25 L11.85 27.7 Q18.8 21.55 15.4 15.0 12.1 19.0 9.4 23.35 8.2 25.25 7.25 25.3 7.25 25.2 6.3 24.95 5.35 24.7 5.4 23.75 5.45 22.75 6.8 20.2 8.1 17.6 8.1 16.7 8.1 16.1 6.85 15.25 5.55 14.45 5.55 13.35 5.55 9.35 3.2 4.35 L1.3 1.05 Q-0.8 -1.8 -3.35 -2.5 L-4.55 -2.7 Q-9.15 -3.05 -13.45 -1.55 -17.35 -0.2 -23.0 3.1 L-24.25 3.8 -26.1 1.2 -27.5 -0.65 -28.15 -1.4 Q-30.5 -4.35 -31.3 -4.35 L-33.2 -3.7 Q-34.4 -3.0 -35.7 -1.25 L-36.05 -2.5 -36.5 -4.1 -35.35 -8.35 Q-34.3 -11.85 -34.3 -14.8 L-35.1 -17.45 -35.95 -21.3 -35.65 -21.3 -31.35 -15.75 Q-32.5 -18.1 -28.35 -22.55 -22.4 -28.9 -21.2 -30.85 L-21.1 -31.0 -21.1 -30.7 M26.0 -22.75 L25.95 -22.5 25.95 -22.75 26.0 -22.75 M4.3 25.55 L5.65 26.15 Q6.75 26.7 7.1 27.05" fill="none" stroke="#000000" stroke-linecap="round" stroke-linejoin="round" stroke-opacity="0.3019608" stroke-width="0.05"/>
  </g>
</svg>
