<?xml version="1.0" encoding="UTF-8" standalone="no"?>
<svg xmlns:xlink="http://www.w3.org/1999/xlink" height="28.55px" width="22.85px" xmlns="http://www.w3.org/2000/svg">
  <g transform="matrix(1.0, 0.0, 0.0, 1.0, 11.65, 19.7)">
    <path d="M11.15 -15.15 Q10.65 -15.0 10.25 -13.8 L10.0 -12.95 10.0 -12.7 9.95 -7.55 Q10.65 -8.8 11.2 -9.0 L11.2 -8.95 9.95 -6.55 9.9 -3.2 9.65 -2.3 9.2 -0.95 9.25 0.3 Q9.2 1.65 7.15 4.25 L5.95 7.3 Q5.35 8.85 4.5 8.85 L3.3 8.6 3.05 8.5 3.55 7.85 4.05 6.9 6.55 3.8 6.55 3.75 6.45 3.75 Q6.2 3.8 4.6 5.2 3.15 6.3 2.5 6.2 1.85 6.05 1.9 5.75 L2.3 4.8 2.8 3.9 2.85 3.15 2.7 2.45 3.0 0.85 Q3.0 0.1 2.4 -0.5 L2.15 -0.7 1.3 -1.3 Q-0.45 -2.25 -2.15 -2.2 -3.9 -2.25 -6.0 -1.55 L-6.15 -2.1 -6.2 -2.2 -6.0 -1.7 Q-5.85 -1.75 -5.8 -3.0 L-5.8 -3.2 -5.95 -3.2 -5.85 -10.55 -6.0 -12.3 -6.05 -12.55 -5.8 -12.55 -5.75 -12.95 -5.9 -12.9 -6.1 -12.95 -6.15 -13.75 Q-6.15 -14.75 -5.8 -15.05 L-6.1 -15.3 -5.9 -15.2 -5.7 -15.1 -5.7 -15.15 Q-5.25 -15.45 -5.25 -14.65 L-5.35 -14.0 -5.15 -14.2 -5.05 -14.35 -5.05 -13.95 -5.1 -13.5 -5.15 -13.45 -5.45 -8.45 -5.55 -4.85 Q-5.65 -3.95 -5.2 -3.95 -4.85 -3.95 -4.8 -4.15 L-4.8 -4.65 -4.75 -4.65 -4.6 -3.6 -4.25 -2.85 Q-4.15 -2.85 -4.05 -2.95 L-4.0 -7.95 -3.8 -12.55 -3.7 -12.55 -3.5 -13.45 -3.4 -14.2 -3.4 -14.4 -3.2 -14.35 -2.9 -14.1 -2.35 -13.6 -1.15 -13.4 -0.9 -13.4 -1.4 -12.7 -1.4 -12.55 -1.05 -12.55 -1.1 -12.2 -1.1 -9.4 -1.35 -3.75 -1.3 -3.2 -1.4 -3.2 -1.45 -2.65 Q-1.45 -2.3 -1.25 -2.3 L-1.15 -2.5 -1.1 -2.3 -1.0 -2.3 -0.9 -3.0 -0.8 -3.2 -0.9 -3.2 -0.55 -6.4 -0.1 -11.5 -0.6 -12.95 -0.4 -13.45 -0.4 -13.55 0.4 -13.65 0.6 -13.6 1.3 -13.4 1.35 -13.3 1.2 -13.05 Q1.1 -12.9 0.95 -12.9 L1.15 -13.3 1.1 -13.4 0.55 -12.75 0.45 -12.55 0.7 -12.55 0.85 -12.75 0.75 -12.55 1.05 -12.55 1.6 -13.25 1.65 -13.25 2.4 -12.95 3.35 -12.55 3.6 -12.55 3.55 -12.6 3.5 -12.75 3.6 -12.95 3.65 -13.25 4.35 -13.5 4.65 -13.6 4.8 -13.75 4.85 -14.15 4.85 -14.25 4.9 -14.25 5.6 -14.5 5.2 -13.55 5.4 -13.4 6.1 -14.75 6.75 -15.15 7.05 -15.35 7.05 -14.95 7.15 -14.65 6.95 -14.0 7.2 -13.95 7.45 -14.65 7.2 -15.4 7.85 -15.8 8.65 -16.1 9.35 -15.35 9.5 -15.15 9.95 -14.05 10.5 -14.75 11.15 -15.2 11.15 -15.15 M2.1 -13.65 Q2.2 -13.85 2.45 -13.85 L3.05 -13.8 3.75 -14.0 4.3 -14.1 4.35 -13.95 Q4.35 -13.85 3.7 -13.5 3.0 -13.15 2.7 -13.15 2.3 -13.15 2.45 -13.5 2.1 -13.5 2.1 -13.65 M9.95 -7.55 L9.95 -6.55 9.95 -7.55 M9.95 -14.05 L10.0 -13.55 10.0 -12.95 10.0 -13.55 9.95 -14.05 M1.0 -11.95 L0.65 -9.3 Q0.15 -5.9 0.15 -4.95 0.15 -4.25 0.4 -4.0 L0.5 -4.05 0.8 -7.5 0.9 -8.5 1.0 -9.25 1.1 -10.25 1.15 -11.05 1.0 -11.95 M3.9 -9.95 L3.85 -9.95 3.35 -4.3 3.55 -4.0 4.15 -8.55 3.9 -9.95 M3.2 -11.25 L3.0 -11.55 Q2.55 -10.8 2.1 -7.55 L1.7 -2.85 1.8 -1.95 1.95 -1.95 3.2 -11.25 M3.35 -3.2 L3.55 -3.15 3.6 -3.2 3.35 -3.2 M6.3 -0.5 L6.25 -0.55 Q5.55 -0.75 4.35 -0.1 3.15 0.5 3.15 0.95 L3.2 1.1 3.4 1.15 3.95 0.85 4.7 0.3 6.3 -0.5 M0.7 -3.1 L0.65 -3.15 0.7 -3.2 0.45 -3.2 0.2 -2.7 0.4 -2.45 1.05 -3.2 0.75 -3.2 0.7 -3.1 M-7.4 -3.15 L-7.4 -3.2 -7.75 -3.2 -7.65 -3.9 -7.5 -7.95 -7.35 -11.55 -7.45 -13.5 -7.35 -14.65 Q-7.15 -15.45 -6.15 -16.0 L-6.1 -15.95 Q-6.8 -14.95 -6.9 -13.6 L-6.85 -12.55 -6.45 -12.55 Q-6.85 -9.3 -6.85 -5.0 L-6.85 -3.2 -6.85 -3.05 -7.3 -3.15 -7.4 -3.15 M2.95 5.1 L3.2 4.7 3.2 4.6 3.15 4.65 Q2.85 4.65 2.85 5.05 L2.95 5.1 M4.75 2.6 L4.7 2.55 Q3.3 2.8 3.3 3.55 L3.35 3.55 4.15 3.1 4.75 2.6 M5.7 0.75 L5.65 0.7 Q5.05 0.7 4.15 1.15 3.15 1.6 3.15 2.0 L3.35 2.25 5.7 0.75 M-8.75 -16.2 L-8.55 -16.5 -8.5 -16.45 -8.75 -16.2 -9.0 -15.9 -9.15 -15.7 -9.0 -15.95 -8.75 -16.2 M-9.55 -14.6 L-8.6 -16.15 -8.55 -16.0 -9.4 -12.95 -9.4 -12.55 -8.9 -12.55 -9.2 -5.0 Q-9.2 -3.7 -8.85 -3.2 L-9.4 -3.2 -9.15 -1.75 -9.1 -1.65 -9.25 -1.3 -9.45 -2.45 -9.45 -2.55 -9.55 -3.2 -9.6 -5.85 -9.6 -5.95 -9.6 -6.0 Q-9.65 -7.15 -10.3 -8.85 L-11.45 -11.1 -11.4 -11.1 -10.35 -10.2 -9.65 -9.0 -9.7 -11.8 -9.75 -12.6 -11.45 -16.75 -10.65 -16.0 -9.7 -14.9 -9.85 -14.7 -9.95 -14.55 -9.85 -14.1 -9.85 -14.0 -9.8 -13.7 -9.8 -13.65 -9.75 -12.6 -9.8 -13.65 -9.8 -13.7 -9.55 -14.6 M-8.75 -2.35 L-8.8 -3.15 -8.75 -3.2 Q-8.5 -6.35 -8.5 -9.9 L-8.65 -13.0 -8.85 -13.0 -8.85 -13.25 -8.65 -15.0 Q-8.3 -16.05 -7.15 -16.65 L-7.9 -14.9 -8.25 -13.35 -8.2 -12.55 -8.25 -12.85 -8.25 -11.9 -8.35 -7.95 Q-8.35 -4.05 -7.8 -3.2 L-8.2 -3.2 -8.15 -2.95 -8.1 -2.85 -8.35 -2.7 -8.4 -2.7 -8.75 -2.35 M-9.0 -15.95 L-9.0 -15.9 -9.0 -15.95 M-4.55 -14.15 L-4.2 -14.4 -4.05 -14.65 -4.05 -14.6 -3.7 -14.5 -3.95 -13.5 -4.1 -13.55 Q-4.45 -13.55 -4.6 -12.4 L-4.65 -12.4 -4.65 -12.8 -4.6 -13.25 -4.55 -14.15 M-9.65 -9.0 L-9.65 -8.55 -9.6 -6.0 -9.65 -8.55 -9.65 -9.0 M-3.75 -8.45 L-3.75 -6.5 -3.45 -6.4 Q-3.15 -6.4 -3.1 -7.1 L-3.05 -7.8 -3.05 -5.25 Q-3.1 -3.55 -2.5 -2.65 L-2.4 -2.75 -2.55 -7.95 Q-2.55 -11.15 -3.05 -13.1 L-3.5 -10.85 -3.75 -8.45 M-3.9 -3.2 L-3.8 -3.1 -3.7 -3.2 -3.9 -3.2 M-5.2 -3.05 L-5.1 -2.9 -4.75 -3.2 -5.2 -3.2 -5.2 -3.05" fill="#d6baba" fill-rule="evenodd" stroke="none"/>
    <path d="M-8.75 -16.25 L-8.05 -17.05 -6.4 -18.4 Q-5.45 -19.05 -3.45 -19.35 L0.35 -19.7 Q2.25 -19.7 4.6 -18.75 6.65 -17.9 7.7 -17.0 L8.65 -16.1 7.85 -15.8 7.2 -15.4 7.45 -14.65 7.2 -13.95 6.95 -14.0 7.15 -14.65 7.05 -14.95 7.05 -15.35 6.75 -15.15 6.1 -14.75 5.4 -13.4 5.2 -13.55 5.6 -14.5 4.9 -14.25 4.85 -14.25 4.85 -14.15 4.8 -13.75 4.65 -13.6 4.35 -13.5 3.65 -13.25 3.6 -12.95 3.5 -12.75 3.55 -12.6 3.6 -12.55 3.35 -12.55 2.4 -12.95 1.65 -13.25 1.6 -13.25 1.05 -12.55 0.75 -12.55 0.85 -12.75 0.7 -12.55 0.45 -12.55 0.55 -12.75 1.1 -13.4 1.15 -13.3 0.95 -12.9 Q1.1 -12.9 1.2 -13.05 L1.35 -13.3 1.3 -13.4 0.6 -13.6 0.4 -13.65 -0.4 -13.55 -0.4 -13.45 -0.6 -12.95 -0.1 -11.5 -0.55 -6.4 -0.9 -3.2 -0.8 -3.2 -0.9 -3.0 -1.0 -2.3 -1.1 -2.3 -1.15 -2.5 -1.25 -2.3 Q-1.45 -2.3 -1.45 -2.65 L-1.4 -3.2 -1.3 -3.2 -1.35 -3.75 -1.1 -9.4 -1.1 -12.2 -1.05 -12.55 -1.4 -12.55 -1.4 -12.7 -0.9 -13.4 -1.15 -13.4 -2.35 -13.6 -2.9 -14.1 -3.2 -14.35 -3.4 -14.4 -3.4 -14.2 -3.5 -13.45 -3.7 -12.55 -3.8 -12.55 -4.0 -7.95 -4.05 -2.95 Q-4.15 -2.85 -4.25 -2.85 L-4.6 -3.6 -4.75 -4.65 -4.8 -4.65 -4.8 -4.15 Q-4.85 -3.95 -5.2 -3.95 -5.65 -3.95 -5.55 -4.85 L-5.45 -8.45 -5.15 -13.45 -5.1 -13.5 -5.05 -13.95 -5.05 -14.35 -5.15 -14.2 -5.35 -14.0 -5.25 -14.65 Q-5.25 -15.45 -5.7 -15.15 L-5.7 -15.1 -5.9 -15.2 -6.1 -15.3 -5.8 -15.05 Q-6.15 -14.75 -6.15 -13.75 L-6.1 -12.95 -5.9 -12.9 -5.75 -12.95 -5.8 -12.55 -6.05 -12.55 -6.0 -12.3 -5.85 -10.55 -5.95 -3.2 -5.8 -3.2 -5.8 -3.0 Q-5.85 -1.75 -6.0 -1.7 L-6.2 -2.2 -6.45 -2.65 -6.5 -2.7 -6.5 -2.75 -6.85 -3.05 -6.85 -3.2 -6.85 -5.0 Q-6.85 -9.3 -6.45 -12.55 L-6.85 -12.55 -6.9 -13.6 Q-6.8 -14.95 -6.1 -15.95 L-6.15 -16.0 Q-7.15 -15.45 -7.35 -14.65 L-7.45 -13.5 -7.35 -11.55 -7.5 -7.95 -7.65 -3.9 -7.75 -3.2 -7.4 -3.2 -7.4 -3.15 -8.1 -2.85 -8.15 -2.95 -8.2 -3.2 -7.8 -3.2 Q-8.35 -4.05 -8.35 -7.95 L-8.25 -11.9 -8.25 -12.85 -8.2 -12.55 -8.25 -13.35 -7.9 -14.9 -7.15 -16.65 Q-8.3 -16.05 -8.65 -15.0 L-8.85 -13.25 -8.85 -13.0 -8.65 -13.0 -8.5 -9.9 Q-8.5 -6.35 -8.75 -3.2 L-8.8 -3.15 -8.75 -2.35 -9.1 -1.65 -9.15 -1.75 -9.4 -3.2 -8.85 -3.2 Q-9.2 -3.7 -9.2 -5.0 L-8.9 -12.55 -9.4 -12.55 -9.4 -12.95 -8.55 -16.0 -8.6 -16.15 -9.55 -14.6 -9.7 -14.9 -9.55 -14.6 -9.8 -13.7 -9.85 -14.0 -9.85 -14.1 -9.95 -14.55 -9.85 -14.7 -9.7 -14.9 -9.15 -15.7 -9.0 -15.9 -8.75 -16.2 -8.5 -16.45 -8.55 -16.5 -8.75 -16.2 -9.0 -15.95 -8.75 -16.25 -8.75 -16.2 -8.75 -16.25 M2.1 -13.65 Q2.1 -13.5 2.45 -13.5 2.3 -13.15 2.7 -13.15 3.0 -13.15 3.7 -13.5 4.35 -13.85 4.35 -13.95 L4.3 -14.1 3.75 -14.0 3.05 -13.8 2.45 -13.85 Q2.2 -13.85 2.1 -13.65 M3.2 -11.25 L1.95 -1.95 1.8 -1.95 1.7 -2.85 2.1 -7.55 Q2.55 -10.8 3.0 -11.55 L3.2 -11.25 M3.9 -9.95 L4.15 -8.55 3.55 -4.0 3.35 -4.3 3.85 -9.95 3.9 -9.95 M1.0 -11.95 L1.15 -11.05 1.1 -10.25 1.0 -9.25 0.9 -8.5 0.8 -7.5 0.5 -4.05 0.4 -4.0 Q0.15 -4.25 0.15 -4.95 0.15 -5.9 0.65 -9.3 L1.0 -11.95 M3.35 -3.2 L3.6 -3.2 3.55 -3.15 3.35 -3.2 M0.7 -3.1 L0.75 -3.2 1.05 -3.2 0.4 -2.45 0.2 -2.7 0.45 -3.2 0.7 -3.2 0.65 -3.15 0.7 -3.1 M6.3 -0.5 L4.7 0.3 3.95 0.85 3.4 1.15 3.2 1.1 3.15 0.95 Q3.15 0.5 4.35 -0.1 5.55 -0.75 6.25 -0.55 L6.3 -0.5 M5.7 0.75 L3.35 2.25 3.15 2.0 Q3.15 1.6 4.15 1.15 5.05 0.7 5.65 0.7 L5.7 0.75 M4.75 2.6 L4.15 3.1 3.35 3.55 3.3 3.55 Q3.3 2.8 4.7 2.55 L4.75 2.6 M2.95 5.1 L2.85 5.05 Q2.85 4.65 3.15 4.65 L3.2 4.6 3.2 4.7 2.95 5.1 M-4.55 -14.15 L-4.6 -13.25 -4.65 -12.8 -4.65 -12.4 -4.6 -12.4 Q-4.45 -13.55 -4.1 -13.55 L-3.95 -13.5 -3.7 -14.5 -4.05 -14.6 -4.05 -14.65 -4.2 -14.4 -4.55 -14.15 M-3.75 -8.45 L-3.5 -10.85 -3.05 -13.1 Q-2.55 -11.15 -2.55 -7.95 L-2.4 -2.75 -2.5 -2.65 Q-3.1 -3.55 -3.05 -5.25 L-3.05 -7.8 -3.1 -7.1 Q-3.15 -6.4 -3.45 -6.4 L-3.75 -6.5 -3.75 -8.45 M-5.2 -3.05 L-5.2 -3.2 -4.75 -3.2 -5.1 -2.9 -5.2 -3.05 M-3.9 -3.2 L-3.7 -3.2 -3.8 -3.1 -3.9 -3.2" fill="#ffffff" fill-rule="evenodd" stroke="none"/>
    <path d="M11.15 -15.15 Q10.65 -15.0 10.25 -13.8 L10.0 -12.95 10.0 -12.7 9.95 -7.55 Q10.65 -8.8 11.2 -9.0 L11.2 -8.95 9.95 -6.55 9.9 -3.2 9.65 -2.3 9.2 -0.95 9.25 0.3 Q9.2 1.65 7.15 4.25 L5.95 7.3 Q5.35 8.85 4.5 8.85 L3.3 8.6 3.05 8.5 2.55 8.05 M8.65 -16.1 L9.35 -15.35 9.5 -15.15 9.95 -14.05 10.5 -14.75 11.15 -15.2 11.15 -15.15 M-8.75 -16.25 L-8.05 -17.05 -6.4 -18.4 Q-5.45 -19.05 -3.45 -19.35 L0.35 -19.7 Q2.25 -19.7 4.6 -18.75 6.65 -17.9 7.7 -17.0 L8.65 -16.1 M2.15 -0.7 L2.4 -0.5 Q3.0 0.1 3.0 0.85 L2.7 2.45 2.85 3.15 2.8 3.9 2.3 4.8 1.9 5.75 Q1.85 6.05 2.5 6.2 3.15 6.3 4.6 5.2 6.2 3.8 6.45 3.75 L6.55 3.75 6.55 3.8 4.05 6.9 3.55 7.85 3.05 8.5 M10.0 -12.95 L10.0 -13.55 9.95 -14.05 M9.95 -6.55 L9.95 -7.55 M-7.4 -3.15 L-7.3 -3.15 M-6.5 -2.7 L-6.45 -2.65 M-9.0 -15.95 L-9.1 -16.6 -9.1 -16.65 -8.75 -16.25 -8.75 -16.2 M-9.15 -15.7 L-9.7 -14.9 -9.55 -14.6 M-9.0 -15.9 L-9.0 -15.95 -9.15 -15.7 M-9.0 -15.95 L-8.75 -16.25 M-9.85 -14.0 L-9.85 -14.1 -9.95 -14.55 -9.85 -14.7 -9.7 -14.9 -10.65 -16.0 -11.45 -16.75 -9.75 -12.6 -9.8 -13.65 -9.8 -13.7 M-11.45 -16.75 L-11.65 -16.9 -11.55 -16.9 -11.45 -16.75 M-11.4 -11.1 L-11.45 -11.15 -11.45 -11.1 -10.3 -8.85 Q-9.65 -7.15 -9.6 -6.0 L-9.65 -8.55 -9.65 -9.0 -9.7 -11.8 -9.75 -12.6 M-11.4 -11.1 L-10.35 -10.2 -9.65 -9.0 M-9.6 -6.0 L-9.6 -5.95 -9.6 -5.85 -9.55 -3.2 -9.45 -2.55 -9.45 -2.45 -9.25 -1.3 -9.1 -1.65" fill="none" stroke="#000000" stroke-linecap="round" stroke-linejoin="round" stroke-opacity="0.3019608" stroke-width="0.05"/>
  </g>
</svg>
