<?xml version="1.0" encoding="UTF-8" standalone="no"?>
<svg xmlns:xlink="http://www.w3.org/1999/xlink" height="79.65px" width="81.4px" xmlns="http://www.w3.org/2000/svg">
  <g transform="matrix(1.0, 0.0, 0.0, 1.0, 40.7, 39.85)">
    <path d="M6.3 -39.85 Q6.2 -37.3 8.45 -34.6 11.05 -31.35 14.8 -31.05 18.15 -30.85 23.65 -26.2 L25.95 -24.25 Q25.5 -22.05 25.35 -19.95 L25.2 -16.7 Q25.2 -14.35 25.8 -11.9 L26.35 -9.7 26.55 -9.5 Q26.1 -9.85 24.5 -11.95 L22.35 -14.6 Q22.1 -11.45 18.15 -8.05 L13.2 -3.7 13.4 -5.8 13.65 -7.7 Q13.65 -11.3 12.1 -12.6 9.15 -6.05 6.0 -2.35 4.6 -0.75 3.2 0.3 -0.75 3.25 -4.2 8.8 L-6.75 9.6 -5.3 6.9 Q-4.3 4.85 -4.3 2.65 -4.3 -0.35 -4.75 -2.65 L-4.8 -2.9 -5.05 -4.05 -5.25 -5.25 -5.1 -5.1 -5.2 -6.05 -5.9 -11.5 -6.15 -11.5 Q-6.6 -9.95 -9.2 -7.7 -11.85 -5.4 -13.7 -0.85 -15.55 3.65 -18.1 5.4 L-18.3 5.4 -17.4 4.35 Q-16.8 3.6 -16.8 2.0 -16.8 -0.05 -17.4 -2.5 L-17.75 -2.3 -17.05 -4.1 -16.15 -6.6 -16.45 -9.1 Q-17.9 -7.55 -20.25 -7.3 -22.65 -7.05 -25.1 -3.95 -27.05 -1.1 -27.05 4.85 -27.05 6.5 -26.05 10.05 L-25.55 11.85 -29.55 6.65 Q-32.25 2.3 -31.5 -0.55 L-31.45 -0.8 -31.65 -0.65 -33.2 2.55 Q-34.15 4.95 -33.95 5.85 -35.0 4.1 -35.0 0.05 L-34.85 -1.7 Q-34.75 -3.35 -34.95 -4.05 L-37.7 -2.4 Q-39.9 -0.9 -40.7 0.0 -40.85 -4.65 -36.95 -8.65 -34.45 -11.25 -31.65 -12.55 L-33.45 -13.7 Q-34.9 -14.65 -35.7 -15.75 -33.45 -15.75 -30.55 -18.4 L-24.35 -24.5 Q-14.65 -33.55 -1.7 -33.55 1.75 -33.55 5.05 -32.1 L5.05 -33.1 Q4.4 -34.2 4.4 -36.2 4.4 -37.3 5.05 -38.2 L6.15 -39.85 6.3 -39.85 M16.75 -24.4 L13.95 -24.4 14.1 -21.75 14.55 -21.75 Q14.75 -22.25 15.35 -22.55 16.15 -22.95 17.65 -23.05 L20.35 -23.05 Q17.7 -23.95 16.75 -24.4 M8.65 -29.65 L5.65 -32.85 7.8 -28.65 8.3 -26.9 8.4 -26.85 10.1 -25.95 Q11.15 -25.15 12.05 -24.9 L13.8 -26.0 14.4 -26.45 Q16.75 -27.85 18.3 -27.75 L16.55 -27.95 14.45 -27.6 13.3 -27.25 Q12.25 -26.9 11.65 -26.4 L9.7 -28.6 8.65 -29.65" fill="#ffffff" fill-rule="evenodd" stroke="none"/>
    <path d="M25.95 -24.25 L29.15 -21.35 29.55 -21.0 Q29.3 -22.2 30.5 -23.75 31.7 -25.35 32.65 -24.95 L32.75 -24.85 Q30.95 -20.1 30.95 -19.5 30.95 -18.85 32.45 -17.5 L35.75 -14.05 Q40.55 -7.6 40.55 4.7 L40.55 6.55 37.75 2.8 37.6 2.8 37.6 2.85 38.35 9.65 Q38.65 13.75 40.7 14.55 L40.7 14.7 39.4 14.7 35.9 13.7 36.05 16.65 Q36.05 19.65 33.15 25.85 32.05 28.05 31.6 30.15 L31.6 25.85 31.25 28.95 Q30.8 31.9 30.8 34.0 30.8 35.05 31.15 36.5 L31.45 38.85 31.4 38.95 Q27.55 35.85 27.3 34.9 26.5 35.25 25.35 37.1 L23.45 39.8 Q22.25 36.8 19.85 34.15 18.45 32.5 18.45 28.6 L19.15 22.65 19.8 17.5 18.65 19.9 Q17.45 22.8 17.3 25.05 16.75 22.9 16.75 21.1 L16.9 19.35 16.9 19.25 16.75 19.25 Q16.4 21.85 13.6 25.6 11.0 29.25 9.65 29.35 L9.65 27.75 Q10.75 26.6 12.05 23.25 13.65 19.0 13.65 15.3 L13.5 13.15 13.05 11.65 12.1 14.55 Q11.1 16.95 10.1 17.15 6.75 10.6 6.75 5.05 6.75 3.6 7.05 2.65 L3.3 5.9 Q1.9 6.75 -4.2 8.8 -0.75 3.25 3.2 0.3 4.6 -0.75 6.0 -2.35 9.15 -6.05 12.1 -12.6 13.65 -11.3 13.65 -7.7 L13.4 -5.8 13.2 -3.7 18.15 -8.05 Q22.1 -11.45 22.35 -14.6 L24.5 -11.95 Q26.1 -9.85 26.55 -9.5 L26.35 -9.7 25.8 -11.9 Q25.2 -14.35 25.2 -16.7 L25.35 -19.95 Q25.5 -22.05 25.95 -24.25 M-5.25 -5.25 Q-7.7 -2.25 -10.05 0.25 -14.6 5.15 -17.25 5.4 L-18.1 5.4 Q-15.55 3.65 -13.7 -0.85 -11.85 -5.4 -9.2 -7.7 -6.6 -9.95 -6.15 -11.5 L-5.9 -11.5 -5.2 -6.05 -5.1 -5.1 -5.25 -5.25 M-17.75 -2.3 Q-20.6 -1.0 -21.95 0.3 -25.45 3.75 -25.45 9.95 L-25.3 12.15 -25.55 11.85 -26.05 10.05 Q-27.05 6.5 -27.05 4.85 -27.05 -1.1 -25.1 -3.95 -22.65 -7.05 -20.25 -7.3 -17.9 -7.55 -16.45 -9.1 L-16.15 -6.6 -17.05 -4.1 -17.75 -2.3 M8.65 -29.65 L9.7 -28.6 11.65 -26.4 Q12.25 -26.9 13.3 -27.25 L14.45 -27.6 16.55 -27.95 18.3 -27.75 Q16.75 -27.85 14.4 -26.45 L13.8 -26.0 12.05 -24.9 Q11.15 -25.15 10.1 -25.95 L8.4 -26.85 8.3 -26.9 7.8 -28.65 5.65 -32.85 8.65 -29.65 M16.75 -24.4 Q17.7 -23.95 20.35 -23.05 L17.65 -23.05 Q16.15 -22.95 15.35 -22.55 14.75 -22.25 14.55 -21.75 L14.1 -21.75 13.95 -24.4 16.75 -24.4 M20.95 15.75 L20.25 16.8 19.8 17.5 20.25 16.8 20.95 15.75 M35.75 13.15 L35.9 13.7 35.75 13.15" fill="#d6baba" fill-rule="evenodd" stroke="none"/>
    <path d="M6.3 -39.85 Q6.2 -37.3 8.45 -34.6 11.05 -31.35 14.8 -31.05 18.15 -30.85 23.65 -26.2 L25.95 -24.25 29.15 -21.35 29.55 -21.0 Q29.3 -22.2 30.5 -23.75 31.7 -25.35 32.65 -24.95 M32.75 -24.85 Q30.95 -20.1 30.95 -19.5 30.95 -18.85 32.45 -17.5 L35.75 -14.05 Q40.55 -7.6 40.55 4.7 L40.55 6.55 37.75 2.8 37.6 2.8 37.6 2.85 38.35 9.65 Q38.65 13.75 40.7 14.55 L40.7 14.7 39.4 14.7 35.9 13.7 36.05 16.65 Q36.05 19.65 33.15 25.85 32.05 28.05 31.6 30.15 L31.6 25.85 31.25 28.95 Q30.8 31.9 30.8 34.0 30.8 35.05 31.15 36.5 L31.45 38.85 M31.4 38.95 Q27.55 35.85 27.3 34.9 26.5 35.25 25.35 37.1 L23.45 39.8 Q22.25 36.8 19.85 34.15 18.45 32.5 18.45 28.6 L19.15 22.65 19.8 17.5 18.65 19.9 Q17.45 22.8 17.3 25.05 16.75 22.9 16.75 21.1 L16.9 19.35 16.9 19.25 16.75 19.25 Q16.4 21.85 13.6 25.6 11.0 29.25 9.65 29.35 L9.65 27.75 Q10.75 26.6 12.05 23.25 13.65 19.0 13.65 15.3 L13.5 13.15 13.05 11.65 12.1 14.55 Q11.1 16.95 10.1 17.15 6.75 10.6 6.75 5.05 6.75 3.6 7.05 2.65 L3.3 5.9 Q1.9 6.75 -4.2 8.8 L-6.75 9.6 -5.3 6.9 Q-4.3 4.85 -4.3 2.65 -4.3 -0.35 -4.75 -2.65 L-4.8 -2.9 -5.05 -4.05 -5.25 -5.25 Q-7.7 -2.25 -10.05 0.25 -14.6 5.15 -17.25 5.4 L-18.1 5.4 -18.3 5.4 -17.4 4.35 Q-16.8 3.6 -16.8 2.0 -16.8 -0.05 -17.4 -2.5 L-17.75 -2.3 Q-20.6 -1.0 -21.95 0.3 -25.45 3.75 -25.45 9.95 L-25.3 12.15 -25.55 11.85 -29.55 6.65 Q-32.25 2.3 -31.5 -0.55 L-31.45 -0.8 -31.65 -0.65 -33.2 2.55 Q-34.15 4.95 -33.95 5.85 -35.0 4.1 -35.0 0.05 L-34.85 -1.7 Q-34.75 -3.35 -34.95 -4.05 L-37.7 -2.4 Q-39.9 -0.9 -40.7 0.0 -40.85 -4.65 -36.95 -8.65 -34.45 -11.25 -31.65 -12.55 L-33.45 -13.7 Q-34.9 -14.65 -35.7 -15.75 -33.45 -15.75 -30.55 -18.4 L-24.35 -24.5 Q-14.65 -33.55 -1.7 -33.55 1.75 -33.55 5.05 -32.1 L5.05 -33.1 Q4.4 -34.2 4.4 -36.2 4.4 -37.3 5.05 -38.2 L6.15 -39.85 M35.9 13.7 L35.75 13.15 M19.8 17.5 L20.25 16.8 20.95 15.75" fill="none" stroke="#000000" stroke-linecap="round" stroke-linejoin="round" stroke-opacity="0.3019608" stroke-width="0.05"/>
  </g>
</svg>
