<?xml version="1.0" encoding="UTF-8" standalone="no"?>
<svg xmlns:xlink="http://www.w3.org/1999/xlink" height="102.9px" width="101.25px" xmlns="http://www.w3.org/2000/svg">
  <g transform="matrix(1.0, 0.0, 0.0, 1.0, 50.65, 51.45)">
    <path d="M16.15 -29.15 Q18.9 -27.7 20.5 -26.35 L21.7 -25.15 Q24.15 -22.0 25.35 -17.95 L26.6 -12.55 Q25.75 -14.75 23.15 -15.95 L16.0 -18.2 15.65 -18.3 Q9.75 -20.05 7.15 -21.55 5.5 -22.5 3.8 -24.4 L3.55 -24.4 Q6.45 -17.55 8.1 -14.75 9.0 -13.25 11.25 -11.6 L13.8 -9.4 14.05 -9.4 Q10.2 -8.4 6.65 -6.9 -3.45 -5.4 -9.95 -1.55 -12.15 -0.7 -15.65 0.05 -20.25 1.0 -22.75 2.05 -32.2 5.9 -44.4 20.6 L-44.25 20.3 Q-42.35 16.15 -39.35 11.25 -35.35 4.55 -33.55 3.9 L-33.55 3.85 -33.6 3.85 -33.75 3.8 -32.0 2.6 -28.3 -0.2 Q-30.4 0.45 -34.85 -1.2 -37.1 -2.05 -39.9 -3.5 -45.2 -6.2 -48.55 -8.7 -49.8 -10.55 -50.65 -12.35 -45.85 -10.25 -40.45 -8.1 -32.95 -5.2 -30.3 -4.7 L-30.15 -4.65 -28.8 -4.7 -28.6 -4.7 -28.6 -4.95 -28.8 -5.05 Q-25.9 -5.55 -19.5 -7.5 -11.2 -10.1 -6.35 -12.25 -14.1 -13.1 -17.8 -14.0 L-18.2 -14.1 Q-24.4 -15.7 -28.7 -19.05 -38.7 -26.85 -42.9 -48.75 L-42.8 -50.4 -42.55 -50.4 Q-40.95 -45.9 -29.5 -39.5 -16.95 -32.45 -6.2 -30.5 L-6.25 -30.9 Q-4.75 -29.95 -3.4 -29.5 L-2.15 -29.15 2.3 -29.05 Q0.3 -30.15 -1.7 -32.8 L-4.2 -36.8 Q-6.7 -41.3 -8.35 -46.45 -6.65 -43.85 -2.85 -40.05 0.0 -37.2 3.0 -35.05 5.5 -33.2 8.2 -31.9 11.9 -30.05 15.9 -29.2 L16.15 -29.15 M-32.1 14.15 L-31.95 13.85 Q-31.05 11.7 -30.0 10.15 L-22.9 5.8 -11.6 -0.5 -13.25 0.7 Q-16.2 3.05 -19.9 7.4 L-23.75 12.0 -26.05 14.0 Q-29.45 17.1 -35.7 27.05 -35.3 23.25 -33.55 18.0 L-32.1 14.15 M-14.2 28.4 L-9.2 19.9 Q-4.45 12.05 -2.5 9.65 L1.3 7.55 Q4.9 6.0 12.3 3.75 L12.55 3.75 4.7 11.45 Q2.0 14.15 -2.15 17.45 -9.05 23.0 -14.2 28.4 M-42.55 -50.4 L-42.8 -50.5 -42.8 -51.45 -42.7 -50.9 -42.55 -50.4" fill="#ffffff" fill-rule="evenodd" stroke="none"/>
    <path d="M-44.4 20.6 Q-32.2 5.9 -22.75 2.05 -20.25 1.0 -15.65 0.05 -12.15 -0.7 -9.95 -1.55 -3.45 -5.4 6.65 -6.9 10.2 -8.4 14.05 -9.4 L13.8 -9.4 11.25 -11.6 Q9.0 -13.25 8.1 -14.75 6.45 -17.55 3.55 -24.4 L3.8 -24.4 Q5.5 -22.5 7.15 -21.55 9.75 -20.05 15.65 -18.3 L16.0 -18.2 23.15 -15.95 Q25.75 -14.75 26.6 -12.55 L25.35 -17.95 Q24.15 -22.0 21.7 -25.15 L20.5 -26.35 Q18.9 -27.7 16.15 -29.15 18.75 -28.6 21.5 -27.4 23.55 -26.55 25.65 -25.4 L32.95 -21.0 Q35.65 -19.35 37.95 -12.3 L38.95 -8.9 45.85 -22.35 Q45.8 -19.05 46.05 -13.55 L46.45 -5.55 Q46.3 2.3 44.15 8.15 49.35 4.1 50.6 2.15 47.4 13.15 41.4 22.35 36.45 30.05 30.95 34.45 L35.85 36.85 Q39.65 38.5 40.65 38.75 39.1 39.85 33.85 40.3 L26.1 40.95 29.25 51.45 20.45 47.2 Q17.45 45.7 15.65 41.3 31.9 28.75 29.85 24.35 28.3 21.05 25.8 23.35 L20.45 31.4 18.7 34.2 18.6 34.25 18.6 34.0 19.35 31.3 19.45 30.75 20.5 25.8 20.5 25.75 20.15 25.75 Q13.5 33.05 11.4 33.1 11.6 31.95 14.7 23.8 17.7 15.85 18.55 14.1 L18.6 13.7 Q18.5 13.7 18.45 13.8 L13.05 15.3 Q7.85 16.95 3.0 19.35 -0.1 20.9 -7.25 25.35 L-13.35 29.2 -15.2 30.35 -14.4 28.75 -14.2 28.4 Q-9.05 23.0 -2.15 17.45 2.0 14.15 4.7 11.45 L12.55 3.75 12.3 3.75 Q4.9 6.0 1.3 7.55 L-2.5 9.65 -1.75 8.8 -3.1 9.4 -3.4 9.5 Q-21.25 16.85 -26.2 19.9 -28.3 21.15 -35.35 27.8 L-35.65 28.05 -35.8 27.9 -35.75 27.75 -35.7 27.05 Q-29.45 17.1 -26.05 14.0 L-23.75 12.0 -19.9 7.4 Q-16.2 3.05 -13.25 0.7 L-11.6 -0.5 -22.9 5.8 -30.0 10.15 Q-31.05 11.7 -31.95 13.85 L-32.1 14.15 Q-34.55 15.25 -39.1 17.9 -42.2 19.6 -43.7 20.55 L-44.65 21.1 -44.4 20.6 M-8.35 -46.45 Q-6.7 -41.3 -4.2 -36.8 L-1.7 -32.8 Q0.3 -30.15 2.3 -29.05 L-2.15 -29.15 -3.4 -29.5 Q-4.75 -29.95 -6.25 -30.9 L-8.35 -41.05 -9.8 -49.5 Q-9.55 -48.25 -8.35 -46.45 M-42.55 -50.4 L-42.8 -50.4 -42.8 -50.5 -42.55 -50.4 M-42.9 -48.75 Q-38.7 -26.85 -28.7 -19.05 -24.4 -15.7 -18.2 -14.1 L-17.8 -14.0 Q-14.1 -13.1 -6.35 -12.25 -11.2 -10.1 -19.5 -7.5 -25.9 -5.55 -28.8 -5.05 L-29.15 -5.35 -29.3 -5.45 Q-34.1 -9.1 -38.1 -16.85 -43.65 -27.45 -43.65 -39.6 L-43.2 -44.8 -42.9 -48.75 M-28.8 -4.7 L-30.15 -4.65 -29.95 -4.65 -28.8 -4.7 M-48.55 -8.7 Q-45.2 -6.2 -39.9 -3.5 -37.1 -2.05 -34.85 -1.2 -30.4 0.45 -28.3 -0.2 L-32.0 2.6 -33.75 3.8 -33.85 3.6 Q-35.6 3.55 -38.4 1.5 L-42.3 -1.75 Q-46.15 -5.3 -48.55 -8.7 M-27.5 7.2 L-28.0 7.65 -30.0 10.15 -28.0 7.65 -27.5 7.2 M39.05 -8.35 L38.95 -8.9 39.05 -8.35" fill="#d6baba" fill-rule="evenodd" stroke="none"/>
    <path d="M16.15 -29.15 L15.9 -29.2 Q11.9 -30.05 8.2 -31.9 5.5 -33.2 3.0 -35.05 0.0 -37.2 -2.85 -40.05 -6.65 -43.85 -8.35 -46.45 M-6.25 -30.9 L-6.2 -30.5 Q-16.95 -32.45 -29.5 -39.5 -40.95 -45.9 -42.55 -50.4 M-42.8 -50.4 L-42.9 -48.75 M-28.8 -5.05 L-28.6 -4.95 -28.6 -4.7 -28.8 -4.7 M-30.15 -4.65 L-30.3 -4.7 Q-32.95 -5.2 -40.45 -8.1 -45.85 -10.25 -50.65 -12.35 -49.8 -10.55 -48.55 -8.7 M-33.75 3.8 L-33.6 3.85 -33.55 3.85 -33.55 3.9 Q-35.35 4.55 -39.35 11.25 -42.35 16.15 -44.25 20.3 L-44.4 20.6 -44.65 21.1 -43.7 20.55 Q-42.2 19.6 -39.1 17.9 -34.55 15.25 -32.1 14.15 L-31.95 13.85 Q-31.05 11.7 -30.0 10.15 L-28.0 7.65 -27.5 7.2 M16.15 -29.15 Q18.75 -28.6 21.5 -27.4 23.55 -26.55 25.65 -25.4 L32.95 -21.0 Q35.65 -19.35 37.95 -12.3 L38.95 -8.9 45.85 -22.35 Q45.8 -19.05 46.05 -13.55 L46.45 -5.55 Q46.3 2.3 44.15 8.15 49.35 4.1 50.6 2.15 47.4 13.15 41.4 22.35 36.45 30.05 30.95 34.45 L35.85 36.85 Q39.65 38.5 40.65 38.75 39.1 39.85 33.85 40.3 L26.1 40.95 29.25 51.45 20.45 47.2 Q17.45 45.7 15.65 41.3 31.9 28.75 29.85 24.35 28.3 21.05 25.8 23.35 L20.45 31.4 18.7 34.2 18.6 34.25 18.6 34.0 19.35 31.3 19.45 30.75 20.5 25.8 20.5 25.75 20.15 25.75 Q13.5 33.05 11.4 33.1 11.6 31.95 14.7 23.8 17.7 15.85 18.55 14.1 L18.6 13.7 Q18.5 13.7 18.45 13.8 L13.05 15.3 Q7.85 16.95 3.0 19.35 -0.1 20.9 -7.25 25.35 L-13.35 29.2 -15.2 30.35 -14.4 28.75 -14.2 28.4 -9.2 19.9 Q-4.45 12.05 -2.5 9.65 L-1.75 8.8 -3.1 9.4 -3.4 9.5 Q-21.25 16.85 -26.2 19.9 -28.3 21.15 -35.35 27.8 L-35.65 28.05 M-35.8 27.9 L-35.75 27.75 -35.7 27.05 Q-35.3 23.25 -33.55 18.0 L-32.1 14.15 M38.95 -8.9 L39.05 -8.35 M-42.8 -50.5 L-42.8 -50.4 M-42.8 -50.5 L-42.8 -51.45 -42.7 -50.9 M-28.8 -5.05 L-29.15 -5.35 -29.3 -5.45 Q-34.1 -9.1 -38.1 -16.85 -43.65 -27.45 -43.65 -39.6 L-43.2 -44.8 -42.9 -48.75 M-33.75 3.8 L-33.85 3.6 Q-35.6 3.55 -38.4 1.5 L-42.3 -1.75 Q-46.15 -5.3 -48.55 -8.7 M-6.25 -30.9 L-8.35 -41.05 -9.8 -49.5 Q-9.55 -48.25 -8.35 -46.45 M-30.15 -4.65 L-29.95 -4.65 -28.8 -4.7" fill="none" stroke="#000000" stroke-linecap="round" stroke-linejoin="round" stroke-opacity="0.3019608" stroke-width="0.05"/>
  </g>
</svg>
